<svg id="Camada_1" data-name="Camada 1" xmlns="http://www.w3.org/2000/svg" xmlns:xlink="http://www.w3.org/1999/xlink" viewBox="0 0 600 600"><defs><style>.cls-1{fill:url(#Gradiente_sem_nome_76);}.cls-2{fill:#fff;}</style><linearGradient id="Gradiente_sem_nome_76" x1="28.04" y1="426.82" x2="571.96" y2="173.18" gradientUnits="userSpaceOnUse"><stop offset="0" stop-color="#ffed00"/><stop offset="0.6" stop-color="#ff5c3e"/><stop offset="1" stop-color="#ff7ff4"/></linearGradient></defs><circle class="cls-1" cx="300" cy="300" r="300"/><path class="cls-2" d="M386.62,228.06l7-63.15H176.38L150.07,401.73c-2.91,26.16,15.94,47.37,42.1,47.37H393.62c17.45,0,33.15-14.13,35.09-31.5l21.06-189.54ZM324.19,369.71H292.52V323.84H247.27v45.87H215.38V245.82h31.89v47.82h45.25V245.82h31.67Zm74.7,32a18.09,18.09,0,0,1-17.54,15.8A13.86,13.86,0,0,1,367.14,404a13.59,13.59,0,0,1,.13-2.3l15.79-142.09h31.58Z"/></svg>