<svg id="Camada_1" data-name="Camada 1" xmlns="http://www.w3.org/2000/svg" xmlns:xlink="http://www.w3.org/1999/xlink" viewBox="0 0 1024 1024"><defs><style>.cls-1{fill:url(#Gradiente_sem_nome_266);}.cls-2{fill:#fff;}</style><linearGradient id="Gradiente_sem_nome_266" x1="1107.16" y1="512" x2="-283.53" y2="512" gradientUnits="userSpaceOnUse"><stop offset="0.15" stop-color="#ff0c50"/><stop offset="1" stop-color="#ff0"/></linearGradient></defs><rect class="cls-1" width="1024" height="1024" rx="512"/><path class="cls-2" d="M668.93,369.78,681.55,256H290.16l-47.4,426.66C237.51,729.8,271.48,768,318.61,768H681.55c31.43,0,59.72-25.46,63.21-56.75L782.7,369.78ZM556.45,625H499.4V542.33H417.87V625H360.42V401.78h57.45v86.15H499.4V401.78h57.05ZM691,682.67a32.6,32.6,0,0,1-31.59,28.46,25,25,0,0,1-25.61-24.32,23.91,23.91,0,0,1,.24-4.14l28.45-256h56.89Z"/></svg>