<svg id="Camada_1" data-name="Camada 1" xmlns="http://www.w3.org/2000/svg" xmlns:xlink="http://www.w3.org/1999/xlink" viewBox="0 0 600 600"><defs><style>.cls-1{fill:url(#Gradiente_sem_nome_76);}.cls-2{fill:#fff;}</style><linearGradient id="Gradiente_sem_nome_76" x1="28.04" y1="426.82" x2="571.96" y2="173.18" gradientUnits="userSpaceOnUse"><stop offset="0" stop-color="#ffed00"/><stop offset="0.6" stop-color="#ff5c3e"/><stop offset="1" stop-color="#ff7ff4"/></linearGradient></defs><circle class="cls-1" cx="300" cy="300" r="300"/><path class="cls-2" d="M389.22,223.69l7.22-65H172.67l-27.1,243.92c-3,26.95,16.43,48.8,43.37,48.8h207.5c18,0,34.14-14.56,36.14-32.45l21.69-195.23Zm-64.3,145.9H292.3V322.34H245.69v47.25H212.84V242h32.85v49.25H292.3V242h32.62Zm76.94,33a18.62,18.62,0,0,1-18.06,16.27,14.26,14.26,0,0,1-14.64-13.9,14.49,14.49,0,0,1,.13-2.37l16.27-146.36h32.52Z"/></svg>