<svg id="Camada_1" data-name="Camada 1" xmlns="http://www.w3.org/2000/svg" viewBox="0 0 100 40"><defs><style>.cls-1{fill:#fff;}</style></defs><title>aljazeera</title><path class="cls-1" d="M10.57,36.11A4.84,4.84,0,0,1,8,33.6,5.43,5.43,0,0,1,7.75,33c0-.07.46-.32.48-.27a5.48,5.48,0,0,0,.29.49c1.11,1.78,2.63,2,3.35.43a5.33,5.33,0,0,0,.41-1.71c.16-1.26.42-2.81.54-3.24.32-1.21,1-2.17,2.74-3.8,1.48-1.42,2.22-2.53,2.31-3.53a1,1,0,0,0,0-.37,2.53,2.53,0,0,0-.36.29c-.18.16-.6.49-.93.74a6.74,6.74,0,0,0-1.48,1.31,1.52,1.52,0,0,1-.25.3,3.49,3.49,0,0,1-.3-.62,2.84,2.84,0,0,1-.21-1c0-.41.07-.57.48-1.08a3.43,3.43,0,0,0,.81-2.22c0-.83-.36-1.54-1.43-2.82-.47-.57-1.84-2-1.9-2a3.69,3.69,0,0,0,0,.74,9.31,9.31,0,0,1-1.19,4.72,13.09,13.09,0,0,0-.92,2.13,5.91,5.91,0,0,0-.35,1.86V24l-.21.21c-.12.12-.22.2-.24.18a7,7,0,0,1-.1-1.68,10,10,0,0,1,1-3.74c1.26-3,1.6-4,1.53-5.1a5.17,5.17,0,0,0-.5-1.74,3.09,3.09,0,0,1,.29-2.84c.15-.23.16-.29.12-.39l-.25-.58a4.12,4.12,0,0,1-.42-2,3.26,3.26,0,0,1,.29-1.62c.2-.44.74-.95,1-.95s.17.08-.1.29a2,2,0,0,0-.58,2.14c.21,1,.61,1.69,2,3.37a49.5,49.5,0,0,1,6,8.8,15.67,15.67,0,0,1,1.48,3.74,10.72,10.72,0,0,1,.35,3.64c-.21,2.5-1.22,4.25-3,5.12a5.69,5.69,0,0,1-4.13.27c-.5-.16-.49-.12-.37-.82s.2-1,.3-1l.53.09a4.52,4.52,0,0,0,3.28-.68,6.42,6.42,0,0,0,1.11-1.07,6.08,6.08,0,0,0,1-2.22,8.56,8.56,0,0,0,.1-2.53,10.44,10.44,0,0,0-.62-2.08c-1-2.48-2.79-5.17-6.65-9.94-.17-.21-.49-.63-.74-.92A4.26,4.26,0,0,0,12,9.5a1.51,1.51,0,0,0-.37.64,1.6,1.6,0,0,0-.06.63c0,.74.35,1.19,1.9,2.81a16.1,16.1,0,0,1,1.95,2.35,4.76,4.76,0,0,1,.89,3.77.55.55,0,0,0,0,.22,5.26,5.26,0,0,0,1.29-1.17c.1-.13.19-.21.21-.19a14.72,14.72,0,0,1,.48,1.94,9.29,9.29,0,0,1,.18,2.14A3.26,3.26,0,0,1,18,24.24a11.16,11.16,0,0,1-2.08,2.55A8.87,8.87,0,0,0,14,29.11a13.62,13.62,0,0,0-.47,2.6,24.72,24.72,0,0,1-.44,3.12A1.86,1.86,0,0,1,12.19,36a1.48,1.48,0,0,1-.8.18,2,2,0,0,1-.84-.11Z"/><path class="cls-1" d="M15.48,34.08c-.37-.18-.64-.58-.92-1.38-.1-.28-.12-.4-.08-.44s.18,0,.3.34a1.48,1.48,0,0,0,.45.74.22.22,0,0,0,.27,0c.12-.05.15-.1.16-.25,0-.35.22-.16.37.35.11.36.1.43-.07.6s-.21.18-.48,0Z"/><path class="cls-1" d="M8.54,12a1,1,0,0,0,1.62.75l.13-.09V13a1.87,1.87,0,0,1-.61,1.24,9.6,9.6,0,0,1-2.33,1.67A16.88,16.88,0,0,0,4,18.19a6.45,6.45,0,0,0-1.81,3,7.38,7.38,0,0,0,.38,4.67,2.84,2.84,0,0,1,.21,1.32A6.56,6.56,0,0,0,4.55,32a2.87,2.87,0,0,0,1.77.92,3.28,3.28,0,0,0,.55,0c1.63-.14,2.35-1.48,2.7-5.1a8.75,8.75,0,0,1,.14-1,6,6,0,0,1,1-1c1-.91,1.2-1.17,1.2-1.54a14.31,14.31,0,0,0-.24-1.68,1.2,1.2,0,0,0-.25.27,14.81,14.81,0,0,1-1.68,1.59c-.55.48-.65.74-.84,2.06C8.56,28.8,8.15,30,7.46,30.72a2.22,2.22,0,0,1-2.5.41A3.65,3.65,0,0,1,3.43,28v-.56l.38.35a2,2,0,0,0,1.35.67.92.92,0,0,0,.74-.23,1.74,1.74,0,0,0,.47-1.38,4.35,4.35,0,0,0-1.48-3.32,1.08,1.08,0,0,0-1,0,2,2,0,0,0-.74,1,1.14,1.14,0,0,1-.16.34c-.09,0-.18-.55-.18-1.25a5.31,5.31,0,0,1,.1-1.18,6.28,6.28,0,0,1,1.91-3.44A18.67,18.67,0,0,1,8,16.64a7.19,7.19,0,0,0,2.16-1.81c.13-.21.16-.24.18-.14A10.58,10.58,0,0,1,9,17.91,27.54,27.54,0,0,0,7.69,21a17.62,17.62,0,0,0-.94,3.69,22.43,22.43,0,0,0-.08,3.51A13.87,13.87,0,0,0,7,30.71a.32.32,0,0,0,.21-.12l.17-.17-.09-.54a15,15,0,0,1,.37-6.28,26.3,26.3,0,0,1,2-5.17,7.91,7.91,0,0,0,1.15-4.5,4.34,4.34,0,0,0-.6-2.64.9.9,0,0,0-.74-.35,1,1,0,0,0-1,.93S8.54,11.93,8.54,12ZM4.88,25.17a.62.62,0,0,1,.27.07,1.1,1.1,0,0,1,.44.66,1.09,1.09,0,0,1-.15.38.8.8,0,0,1-.4.38,1.26,1.26,0,0,1-1.09,0c-.38-.18-.39-.21-.22-.56A1.43,1.43,0,0,1,4.88,25.17Z"/><path class="cls-1" d="M11.9,29.55a8.86,8.86,0,0,1-1.69-2.38L10,26.79l.21-.22a1,1,0,0,1,.27-.22.92.92,0,0,1,.24.28,11.22,11.22,0,0,0,1.48,1.57c.3.24.33.29.3.4s-.08.38-.15.68a5.06,5.06,0,0,1-.14.58A1.72,1.72,0,0,1,11.9,29.55Z"/><path class="cls-1" d="M5.27,21.9a.93.93,0,0,1-.17-.84,1.91,1.91,0,0,1,.22-.69c.32-.61,1.34-1.48,1.34-1.17a5.17,5.17,0,0,1-.46.51c-.68.74-.91,1.22-.66,1.53s.49.16.49-.1.16-.34.24-.3.07.21,0,.49c-.18.63-.66.9-1,.58Z"/><path class="cls-1" d="M12.05,21.22c-.13-.45-.09-.51,1.12-1.81.49-.53,1-1.06,1-1.16s.16-.2.23.15a.52.52,0,0,1,0,.38,12.13,12.13,0,0,1-1,1.16c-.49.55-1,1.09-1.08,1.23a1.09,1.09,0,0,1-.21.24A.47.47,0,0,1,12.05,21.22Z"/><path class="cls-1" d="M9.24,13.63a1,1,0,0,1-2,0h0a1,1,0,0,1,2,0Z"/><rect class="cls-1" x="12.57" y="24.03" width="1.62" height="1.4" transform="translate(-14.7 26.01) rotate(-64.19)"/><rect class="cls-1" x="16.72" y="26.68" width="1.62" height="1.4" transform="translate(-14.75 31.24) rotate(-64.19)"/><rect class="cls-1" x="9.94" y="30.04" width="1.64" height="1.4" transform="translate(-19.85 19.61) rotate(-50.72)"/><rect class="cls-1" x="9.69" y="32.26" width="1.64" height="1.4" transform="translate(-21.65 20.23) rotate(-50.72)"/><path class="cls-1" d="M27,20.74,23.81,29.9h2.37l.55-1.64H29.8l.46,1.64h2.5l-3.15-9.16Zm1.26,2.68.86,2.71H27.41Z"/><path class="cls-1" d="M48.8,20.74l-3.23,9.12h2.37l.58-1.64h3.06L52,29.86h2.5l-3.16-9.12Zm1.26,2.68.86,2.71H49.18Z"/><path class="cls-1" d="M92.26,20.74,89,29.9h2.37L92,28.26H95l.46,1.64H98l-3.15-9.16Zm1.26,2.68.86,2.71H92.64Z"/><path class="cls-1" d="M34.37,29.84h5.21V27.91h-3V20.74H34.4Z"/><path class="cls-1" d="M64.77,20.74V29.9h6.15V28H67V26.29H70V24.43H67V22.64H70.6v-1.9Z"/><path class="cls-1" d="M73,20.74V29.9H79.1V28H75.18V26.29h3.06V24.43h-3V22.64h3.6v-1.9Z"/><path class="cls-1" d="M56.28,20.74v1.93h3.26l-3.39,4.95v2.32h6.5v-2H59.23L62.55,23v-2.3Z"/><path class="cls-1" d="M41.79,20.69h2.3V30.1a3.55,3.55,0,0,1-.84,2.54c-1.38,1.48-3.85.24-3.85.24L39.93,31a1.4,1.4,0,0,0,.74.21,1.32,1.32,0,0,0,1.14-1.36V20.69Z"/><path class="cls-1" d="M81.13,20.74v9.12h2.3V26.45c.54,0,.92-.06,1.16.22A32.14,32.14,0,0,1,86,29.86h2.36l-1.41-3.63s-.3-.74-.63-.74c.35-.24.78-.6.78-.6a1.87,1.87,0,0,0,.64-1.65,2.35,2.35,0,0,0-2.19-2.49H81.13Zm2.28,1.95h1.11a.92.92,0,0,1,.83.91.89.89,0,0,1-.82.89H83.41Z"/></svg>