<svg xmlns="http://www.w3.org/2000/svg" viewBox="0 0 96.82 40"><defs><style>.a{fill:#fff;}</style></defs><title>arstechnica</title><path class="a" d="M16,4A16,16,0,1,0,32,20,16,16,0,0,0,16,4ZM11.79,24.88H10.33l-.2-1.31a4.61,4.61,0,0,1-3.46,1.51,2.62,2.62,0,0,1-2.88-2.73c0-2.44,2.08-3.41,6.18-3.83v-.42c0-1.24-.73-1.66-1.86-1.66a8.79,8.79,0,0,0-3.39.84L4.48,15.7a9.62,9.62,0,0,1,3.79-.82c2.37,0,3.52,1,3.52,3.15ZM16,19.09v5.78H14.23V15.1h1.46l.31,2a4.32,4.32,0,0,1,3.43-2.19l.29,1.75A4.47,4.47,0,0,0,16,19.09Zm8.27,6a8,8,0,0,1-3.57-.93L21,22.42a6.12,6.12,0,0,0,3.46,1.13c1.24,0,2-.47,2-1.29S25.91,21,24.13,20.6c-2.3-.58-3.21-1.26-3.21-3s1.31-2.7,3.46-2.7a7.91,7.91,0,0,1,3.21.66l-.29,1.73a6.25,6.25,0,0,0-3-.84c-1.11,0-1.68.42-1.68,1.13s.49,1,2,1.42c2.42.62,3.5,1.31,3.5,3.17S26.84,25.07,24.31,25.07Z"/><path class="a" d="M5.61,22.26c0,1,.53,1.31,1.46,1.31A4.39,4.39,0,0,0,10,22.19V19.91C6.36,20.27,5.61,21.24,5.61,22.26Z"/><path class="a" d="M48.6,22.59a4.17,4.17,0,0,1-2.84,1.11c-1.71,0-2.81-1.17-3-3.1h5.52l.2-1.22H42.77c.18-1.93,1.26-3.12,2.86-3.12a4.25,4.25,0,0,1,2.86,1.13l.22-1.31a5.1,5.1,0,0,0-3-1c-2.37,0-4.25,1.73-4.25,4.85s1.84,4.85,4.19,4.85a4.9,4.9,0,0,0,3.17-1.06ZM37.78,16.48v8.2H36.5v-8.2h-3V15.3h7.14l.2,1.17Zm16.55,8.35c-2.64,0-4.32-2-4.32-4.83s1.73-4.88,4.34-4.88A4.5,4.5,0,0,1,57,15.9l-.2,1.31a4,4,0,0,0-2.48-.91c-1.91,0-3,1.44-3,3.68s1.13,3.68,3,3.68A4.45,4.45,0,0,0,57,22.73l.2,1.2A4.94,4.94,0,0,1,54.34,24.83Zm10.53-.18V20.33H60.12v4.32H58.84V15.3h1.29v3.88h4.74V15.3h1.29v9.35Zm9.53,0-5.14-7.29v7.29H68.08V15.3h1.13l5,7v-7h1.17v9.35Zm3,0V15.3h1.29v9.35Zm7.25.18c-2.64,0-4.32-2-4.32-4.83s1.73-4.88,4.34-4.88a4.5,4.5,0,0,1,2.66.78l-.2,1.31a4,4,0,0,0-2.48-.91c-1.91,0-3,1.44-3,3.68s1.13,3.68,3,3.68a4.45,4.45,0,0,0,2.64-.93l.2,1.2A4.94,4.94,0,0,1,84.61,24.83Zm7.31-9.57h1.29l3.61,9.22-1.24.27-1.11-2.9H90.61l-1.06,2.81H88.27ZM91,20.73h3l-1.51-4Z"/></svg>