<svg id="Camada_1" data-name="Camada 1" xmlns="http://www.w3.org/2000/svg" viewBox="0 0 70 40"><defs><style>.cls-1{fill:#fff;}</style></defs><title>bbc</title><path class="cls-1" d="M48.88,10H70v20H48.88ZM65.8,23.27l-.23.11c-.59.35-1.29.7-2,1.05a7.86,7.86,0,0,1-4.9.47,5.33,5.33,0,0,1-2.8-1.63,5.17,5.17,0,0,1-1.16-4.09A4.48,4.48,0,0,1,56,16.5a5.82,5.82,0,0,1,4.67-1.63,12.06,12.06,0,0,1,4.78,1.51h.12V13.82c0-.12-.12-.12-.12-.24a13,13,0,0,0-4.67-1.16,9,9,0,0,0-5.25,1.28A7,7,0,0,0,52,19.3a6.59,6.59,0,0,0,.7,3.62,7.3,7.3,0,0,0,3.85,3.61,10.64,10.64,0,0,0,4.67.7,11.43,11.43,0,0,0,4.32-1.16c.23-.12.35-.24.23-.47Z"/><path class="cls-1" d="M0,29.92V10H21.12V30ZM13.07,19.53l.11-.11a3.3,3.3,0,0,0,1.33-4.48l0-.07a7.17,7.17,0,0,0-.7-.94,4.89,4.89,0,0,0-3.27-1.16H5.6V27.12h5.48a7.57,7.57,0,0,0,2.22-.35,4.88,4.88,0,0,0,2.1-1.29,3.67,3.67,0,0,0-.47-5.13,2.42,2.42,0,0,0-.58-.35C13.88,19.88,13.53,19.65,13.07,19.53Z"/><path class="cls-1" d="M24.38,10H45.5V30H24.38Zm5.6,2.8V27.12H35.7a5.66,5.66,0,0,0,3-.82,3.64,3.64,0,0,0,1.31-5l0,0a3.68,3.68,0,0,0-1.75-1.51c-.24-.12-.59-.24-.82-.35l.12-.12a3.31,3.31,0,0,0,1.32-4.48l0-.07a3.18,3.18,0,0,0-.82-.93,4.88,4.88,0,0,0-3.26-1.17H30.1Z"/><path class="cls-1" d="M8.17,21.05H11a3.19,3.19,0,0,1,1.51.35,1.8,1.8,0,0,1,.7,2.46,1.88,1.88,0,0,1-.93.81,2,2,0,0,1-1.4.23H8.17Z"/><path class="cls-1" d="M8.17,15.1a20,20,0,0,1,2.68.12,1.73,1.73,0,0,1,1.4,1.4,1.8,1.8,0,0,1-.93,1.86l-1.05.35H8.17Z"/><path class="cls-1" d="M32.55,21.05h2.8a3.49,3.49,0,0,1,1.52.35A1.66,1.66,0,0,1,37.92,23a2,2,0,0,1-1.17,1.75,2,2,0,0,1-1.4.24h-2.8Z"/><path class="cls-1" d="M32.55,15.1a20,20,0,0,1,2.68.12,1.72,1.72,0,0,1,1.4,1.4,1.64,1.64,0,0,1-.93,1.75,3.22,3.22,0,0,1-1.4.35H32.55Z"/></svg>