<svg xmlns="http://www.w3.org/2000/svg" viewBox="0 0 100 40"><defs><style>.a{fill:#fff;}</style></defs><title>Billboard-white</title><rect class="a" x="15.4" y="15.94" width="4.68" height="14.24"/><rect class="a" x="21.06" y="10.37" width="4.68" height="19.81"/><rect class="a" x="26.71" y="10.37" width="4.68" height="19.81"/><path class="a" d="M81.79,17.41V15.94H77.11V30.18h4.68V23.39a2.37,2.37,0,0,1,2.58-2.69h.55V15.8A3.5,3.5,0,0,0,81.79,17.41Z"/><path class="a" d="M17.75,9.6a2.72,2.72,0,1,0,2.72,2.72A2.72,2.72,0,0,0,17.75,9.6Z"/><path class="a" d="M71.46,17a5.22,5.22,0,0,0-3.35-1.31,6.62,6.62,0,0,0-6.7,5.8,7.24,7.24,0,0,0-14.24.09,6.83,6.83,0,0,0-6.82-5.85,5.45,5.45,0,0,0-3.24.91V10.37H32.42V30.18H37v-1.3a5.25,5.25,0,0,0,3.77,1.5,6.7,6.7,0,0,0,6.4-5.89,7.24,7.24,0,0,0,14.19.14,6.72,6.72,0,0,0,6.78,5.78,5.82,5.82,0,0,0,3.3-1v.8h4.68V23.95c0-.26,0-.5,0-.75s0-.49,0-.75V16H71.46ZM39.85,25.84a2.72,2.72,0,1,1,2.72-2.72A2.72,2.72,0,0,1,39.85,25.84Zm14.45-.22A2.72,2.72,0,1,1,57,22.91,2.72,2.72,0,0,1,54.3,25.63Zm14.07.09A2.72,2.72,0,1,1,71.09,23,2.72,2.72,0,0,1,68.37,25.71Z"/><path class="a" d="M95.32,10.36v6.29a5.44,5.44,0,0,0-3.24-.91c-3.91,0-7,3-7,7.37,0,4.1,2.94,7.26,6.51,7.26a5.26,5.26,0,0,0,3.77-1.5v1.3H100V10.36ZM92.56,25.81a2.72,2.72,0,1,1,2.72-2.72A2.72,2.72,0,0,1,92.56,25.81Z"/><path class="a" d="M7.93,15.75a5.45,5.45,0,0,0-3.24.91V10.37H0V30.18H4.6v-1.3a5.25,5.25,0,0,0,3.77,1.5c3.57,0,6.51-3.16,6.51-7.26C14.88,18.77,11.83,15.75,7.93,15.75Zm-.5,10.1a2.72,2.72,0,1,1,2.72-2.72A2.72,2.72,0,0,1,7.43,25.84Z"/></svg>