<svg id="Camada_1" data-name="Camada 1" xmlns="http://www.w3.org/2000/svg" viewBox="0 0 200 200"><defs><style>.cls-1{fill:#fff;}</style></defs><title>cnet-logo</title><path class="cls-1" d="M94.54,0h10.93a5.54,5.54,0,0,0,.82.17,97,97,0,0,1,25.55,5,100.12,100.12,0,0,1,67.76,86.19c.09,1.05.23,2.1.35,3.15v10.93a5,5,0,0,0-.16.62c-.59,4.54-.89,9.14-1.81,13.61-5.59,27-19.85,48.34-42.75,63.58s-48,20-74.89,14.69c-24.57-4.83-44.51-17.49-59.77-37.3A97.41,97.41,0,0,1,.22,105.72a99.54,99.54,0,0,1,34-81A98.43,98.43,0,0,1,91.39.35C92.45.26,93.49.12,94.54,0ZM75.09,132.48H89.2v-1.16q0-9.86,0-19.72,0-12.3,0-24.6a5,5,0,0,1,1.91-4.38,6.39,6.39,0,0,1,6.8-.7c2.19,1,2.73,2.88,2.72,5.15q-.06,22.11,0,44.21v1.19h15.71v-7.2h-6v-1.36c0-12.2.05-24.4,0-36.6a23.13,23.13,0,0,0-1.1-6.49A9.41,9.41,0,0,0,101.46,74a11.17,11.17,0,0,0-8.8,1.89c-1.63,1.14-3.15,2.42-4.79,3.69V74.9H74.3v7.16h5.14v43.31H75.09ZM141.41,113v2.86c0,1.2-.06,2.41,0,3.61.26,4.26-2.8,6-5.8,6.15s-6.76-1.5-6.6-6,0-8.85,0-13.27v-1.19h1.23l18.25.06c2.08,0,2.62-.54,2.62-2.59,0-5.17,0-10.34,0-15.51a12.43,12.43,0,0,0-6.73-11.51,18.94,18.94,0,0,0-16-1.12,13,13,0,0,0-9.11,13.09c.14,10.86,0,21.73,0,32.59a12.16,12.16,0,0,0,6.21,11.11,18.91,18.91,0,0,0,18.39.84,11.71,11.71,0,0,0,6.79-8.08,22.18,22.18,0,0,0,.44-4.54c.07-2.14,0-4.27,0-6.46Zm-95.22,0c0,.4,0,.75,0,1.1,0,2,0,4.1,0,6.15a4.79,4.79,0,0,1-2.87,4.61,7.18,7.18,0,0,1-6.92-.17,4.68,4.68,0,0,1-2.57-4.3q0-16.54,0-33.08a4.72,4.72,0,0,1,1.94-3.86,7,7,0,0,1,5.42-1.4c3.05.42,4.88,2.22,5,4.82,0,1,.07,2.08.08,3.12s0,2.18,0,3.28H55.9c0-2.22,0-4.39,0-6.56a12.35,12.35,0,0,0-6.7-11.13,18.88,18.88,0,0,0-15.92-1.16c-5.69,2-9.29,6.51-9.22,13.21.12,10.86,0,21.73,0,32.59a12.36,12.36,0,0,0,5.25,10.37c5.63,4.17,14.6,4.52,20.55.8a11.87,11.87,0,0,0,5.94-9.56c.21-2.88,0-5.78,0-8.68,0,0-.08-.1-.12-.14Zm133.35,12.29c-2,0-4,0-6,0-2.57,0-4.24-1.27-4.73-3.52a9.49,9.49,0,0,1-.2-2q0-18.34,0-36.69V82h9.23V74.92h-9.27V60h-9.73v1.3q0,28.78,0,57.57a23,23,0,0,0,.75,5.58c1.08,4.21,3.65,7.06,8.1,7.83a24.88,24.88,0,0,0,3.88.25c2.63,0,5.26,0,7.95,0ZM62.34,46.14V159.65h6.89V46.14Z"/><path class="cls-1" d="M141.37,97.72H129.12c0-.35-.05-.7-.05-1q0-4.39,0-8.79c0-3.5,1.83-5.57,5.33-6a7.21,7.21,0,0,1,4.43.85,4.33,4.33,0,0,1,2.51,3.61C141.45,90.14,141.37,93.91,141.37,97.72Z"/></svg>