<svg xmlns="http://www.w3.org/2000/svg" viewBox="0 0 50.22 40"><defs><style>.a{fill:#fff;}</style></defs><title>cnn</title><path class="a" d="M15.84,8.07v3H11.17a8.17,8.17,0,0,0-6.57,3.33,8.57,8.57,0,0,0-1.72,4.1,9,9,0,0,0,.86,5.43,8.18,8.18,0,0,0,5.34,4.38,8.81,8.81,0,0,0,2.76.38h7A1.69,1.69,0,0,0,20.49,27V12.37a.54.54,0,0,1,.67-.38h0c.1,0,.19.1.29.19s.19.19.19.29c3.24,5.14,6.48,10.38,9.72,15.53a2.52,2.52,0,0,0,.48.57,1.31,1.31,0,0,0,1.71-.1c.1-.1.1-.19.19-.29a3.38,3.38,0,0,0,.19-1V12.55a.54.54,0,0,1,.67-.38h0c.1,0,.19.1.29.1s.19.19.19.29c3.24,5.24,6.48,10.48,9.72,15.63a1.32,1.32,0,0,0,2.48-.57V8.07h3V27.51a4.86,4.86,0,0,1-.76,2.76,3.61,3.61,0,0,1-3,1.71,4.76,4.76,0,0,1-4.57-2.57c-1.24-2-2.38-4-3.62-6L37,21.22a.1.1,0,0,0-.1-.1v6.38A5.55,5.55,0,0,1,36.31,30a3.46,3.46,0,0,1-3.14,2,4.76,4.76,0,0,1-4.57-2.57L25.16,23.7l-1.43-2.48c0-.1-.1-.1-.19-.19v6.38a4.4,4.4,0,0,1-1,2.86,4,4,0,0,1-2.57,1.33c-.29,0-.67.1-1,.1H11.82a12.21,12.21,0,0,1-7.24-2.38A11.43,11.43,0,0,1,.3,22.46a12.15,12.15,0,0,1,1.24-8.57A11.14,11.14,0,0,1,8.58,8.56a17.54,17.54,0,0,1,3.91-.48h3.34Z"/><path class="a" d="M15.84,11.79v3H11.93a6,6,0,0,0-3.14.86A5.35,5.35,0,0,0,6.5,19.22a4.76,4.76,0,0,0,1.13,3.91,5,5,0,0,0,3,1.62,9.38,9.38,0,0,0,1.62.19h3.53a.76.76,0,0,0,.86-.86V12.46a5,5,0,0,1,.86-2.86,4.13,4.13,0,0,1,5.34-1A6.67,6.67,0,0,1,25.26,11c1.52,2.67,3,5.34,4.57,7.91a.21.21,0,0,0,.19.19V12.47a4.54,4.54,0,0,1,.86-2.76A4.12,4.12,0,0,1,36,8.46a6,6,0,0,1,2.48,2.38c1.24,2.1,2.38,4.1,3.62,6.19.38.76.86,1.43,1.33,2.19V8.07h3V27a.86.86,0,0,1-.1.48c-.1.29-.29.48-.57.38-.1,0-.19-.1-.29-.19s-.19-.19-.19-.29L35.74,12c-.1-.1-.1-.19-.19-.29a1.35,1.35,0,0,0-1.81-.29,1,1,0,0,0-.48.86c0,.19-.1.38-.1.57V27a1.21,1.21,0,0,1-.1.57.4.4,0,0,1-.47.32l-.11,0a.33.33,0,0,1-.19-.1L32,27.51,22.4,12c-.1-.1-.19-.19-.19-.29a1.57,1.57,0,0,0-1.43-.48,1.34,1.34,0,0,0-1,1c0,.19-.1.38-.1.57V27.22a.81.81,0,0,1-.76.67H11.44A7.81,7.81,0,0,1,6.3,26a7.27,7.27,0,0,1-2.38-3.81,8.84,8.84,0,0,1,1.33-7.53,7,7,0,0,1,4.57-2.76,11.67,11.67,0,0,1,1.81-.19h4.19Z"/></svg>