<svg id="deadspin-svgid" xmlns="http://www.w3.org/2000/svg" viewBox="0 0 100 40"><defs><style>.cls-1{fill:#fff;}</style></defs><title>deadspin</title><path class="cls-1" d="M98.6,26.5a5.34,5.34,0,0,1-.58,0,3.29,3.29,0,0,1-2.49-.94A3.4,3.4,0,0,1,95,22.8c.45-3.05.64-4.24.71-4.68l0-.21h4.17L98.6,26.5Zm-7.68,0H87l1.23-8.6h4l-1.24,8.6Zm-2.71-9.12V13.52h8.38a3.3,3.3,0,0,1,2.72,1.07A3.94,3.94,0,0,1,100,17.4H88.21ZM84.9,26.5a4.65,4.65,0,0,1-.55,0,3.36,3.36,0,0,1-2.51-.92,3,3,0,0,1-.52-2.49c.52-3.63.71-5,.74-5.25h4.13L84.9,26.5Zm1.37-9.16H84.12a1.9,1.9,0,0,1-1.5-.6,4.71,4.71,0,0,1-.57-3.27h4.8l-.58,3.87Zm-16.89.07.46-3.87H77.4a3,3,0,0,1,2.44,1.11,4.2,4.2,0,0,1,.79,2.57v.19Zm7,4.63H72.86l0,.24c0,.18-.06.52-.14,1.1-.53,3.06-4,3.15-4.41,3.15h0l1-8.6H80.59A4.39,4.39,0,0,1,76.33,22ZM65.39,17.6h-8.9c.15-3.94,4-4.12,4.21-4.13h7.59a3.94,3.94,0,0,1-2.9,4.14Zm1.46,4.7v.05c-.38,4-4.11,4.18-4.85,4.18H55.28a4,4,0,0,1,3.17-4.1h4.77v-.52H59l-.18-.07a3.91,3.91,0,0,1-2.35-3.71h8.22l.2.09c1,.48,2.19,1.58,1.93,4.08Zm-13.21.58c0,.14-.64,3.65-4.15,3.65H41.9a.55.55,0,0,1-.34-.17.68.68,0,0,1-.1-.51c.09-.56.72-5.38,1-7.63h4.38l-.66,4.31h3.35l.65-4.31h4l-.6,4.66Zm-11.13-5.2v-3.9h8.4a3.33,3.33,0,0,1,2.74,1.07,4,4,0,0,1,.67,2.83Zm-14-.12c.36-3.7,4.24-4,4.41-4h3.41a4,4,0,0,1,3.28,1.26,4,4,0,0,1,.73,2.71Zm11.76.55h0l-.43,4.26c0,.16-.5,4.15-4.16,4.15l-.53,0,.58-4.32H27.82l.62-4.05v-.06h11.8a.06.06,0,0,0,0,0Zm-9,8.42H27.15l.59-3.84h4l-.49,3.84ZM18,22v.51h4.68l.1,0a3.33,3.33,0,0,1,1.42.93,3.27,3.27,0,0,1,.65,2.66c0,.2-.37.35-.82.35H16.66a2.86,2.86,0,0,1-1.83-1.1,4.5,4.5,0,0,1-.57-3.53c.31-2.14.61-3.72.66-3.95H25.69a.23.23,0,0,1,.11.1.82.82,0,0,1,0,.62A4.57,4.57,0,0,1,22.89,22Zm6.73-4.64H14.92V13.52h11.9a4.09,4.09,0,0,1-2.13,3.88Zm-11.94.44H1.05V13.66H9.4a3.33,3.33,0,0,1,2.71,1.06,4.17,4.17,0,0,1,.64,3.12Zm-.64,5S11.47,26.53,8,26.53H.45a.51.51,0,0,1-.34-.17.63.63,0,0,1-.1-.51c.08-.55.66-5.07,1-7.45H5.33l-.61,4.09H8.05l.6-4.09h4l-.57,4.45Z"/></svg>