<svg xmlns="http://www.w3.org/2000/svg" viewBox="0 0 130 40"><title>digitaltrends</title><path d="M4.75,14.39a5.56,5.56,0,0,1,5.76,5.35,2.25,2.25,0,0,1,0,.26,5.48,5.48,0,0,1-5.4,5.57H0V14.39Zm.1,9.55a3.76,3.76,0,0,0,3.9-3.63c0-.1,0-.21,0-.31A3.86,3.86,0,0,0,5,16H1.77v7.9H4.85Zm7.64,1.67V14.39h1.76V25.57H12.49Zm13.29-1.42A5.05,5.05,0,0,1,22,25.8a5.68,5.68,0,0,1-5.8-5.55V20a5.67,5.67,0,0,1,5.53-5.81H22a5.78,5.78,0,0,1,5.07,2.94l-1.82.45A3.79,3.79,0,0,0,22,15.91a3.84,3.84,0,0,0-4,3.7c0,.13,0,.26,0,.39a3.92,3.92,0,0,0,3.74,4.09,1.6,1.6,0,0,0,.31,0A3.75,3.75,0,0,0,25.74,22v-.94H22.49V19.6H27.3v6H25.78Zm3.9,1.42V14.39H31.4V25.57H29.68ZM41.86,14.39v1.67H38.23v9.51H36.46V16.06H32.87V14.39ZM49,23.05h-5.2l-1.08,2.53H40.86l4.7-11.18h1.61l4.7,11.18H50.06Zm-.61-1.51L47,18.05c-.24-.61-.5-1.46-.5-1.46s-.31.85-.51,1.46l-1.4,3.47ZM60.83,24v1.67H53.34V14.39h1.77V23.9h5.72Zm13.89-9.57v2.52H71.34v8.67H68.67V16.91H65.33V14.39Zm7.33,11.23L80,22H78.63v3.64H75.94V14.39h4.19c2.79,0,4.51,1.52,4.51,3.84a3.34,3.34,0,0,1-2,3.25l2.48,4.15h-3Zm-3.44-6.06h1.87a1.25,1.25,0,0,0,1.31-1.18v-.13a1.26,1.26,0,0,0-1.22-1.31.14.14,0,0,0-.09,0H78.63ZM94.85,23.1v2.52H86.63V14.39h8.12v2.52H89.34v1.82h4.24v2.35H89.35v2h5.51ZM107,14.43V25.57h-2.52l-2.28-3.13-2.52-3.52v6.62H97V14.39h2.52l2.37,3.18L104.35,21V14.39Zm7.28,0a5.62,5.62,0,0,1,0,11.23h-4.85V14.39Zm0,8.67a2.89,2.89,0,0,0,3-2.78v-.26a3,3,0,0,0-2.8-3.12,1.08,1.08,0,0,0-.18,0h-2.17v6.17Zm13-5.11a1.92,1.92,0,0,0-1.91-1.47c-.82,0-1.27.4-1.27.86,0,.76,1.08,1,2.48,1.52,1.67.6,3.39,1.57,3.39,3.48s-1.77,3.49-4.33,3.49a4.76,4.76,0,0,1-4.7-3.39l2.58-.7a2.37,2.37,0,0,0,2.27,1.66c1,0,1.42-.45,1.42-1,0-.91-1.31-1.09-2.88-1.73-1.31-.5-2.88-1.26-2.88-3.24,0-1.73,1.76-3.34,4.2-3.34A4.42,4.42,0,0,1,130,17.22Z" style="fill:#fff"/></svg>