<svg xmlns="http://www.w3.org/2000/svg" viewBox="0 0 90 40"><defs><style>.a{fill:#fff;}</style></defs><title>discover</title><path class="a" d="M0,11.2l5.53.1c1.58,0,3.16,0,4.73.11,4.47.26,7,2.72,7.25,7.18a13.74,13.74,0,0,1-.25,3.7c-.8,3.76-3.8,6.09-8.1,6.25-3.05.12-6.11,0-9.17,0v-.81c.37,0,.73-.13,1.1-.14.86,0,1.14-.52,1.13-1.32,0-4.23,0-8.46,0-12.69,0-.89-.38-1.3-1.23-1.36l-1,0Zm4.88,8.44h.06c0,2.12,0,4.23,0,6.35,0,1.26.43,1.57,1.7,1.6a19.08,19.08,0,0,0,2.11,0c2.9-.24,4.82-1.77,5.35-4.6a17.74,17.74,0,0,0,.22-5.09c-.38-3.51-2.42-5.32-5.91-5.54a18.57,18.57,0,0,0-2,0c-1.29.06-1.52.27-1.53,1.57C4.87,15.81,4.88,17.72,4.88,19.64Z"/><path class="a" d="M58.4,22.52c0,.4,0,.77-.06,1.14-.43,3.62-2.89,5.57-6.54,5.28-4.83-.38-5.88-4-5.44-7.65a6.14,6.14,0,0,1,9.78-4.18C58,18.43,58.33,20.44,58.4,22.52Zm-2.57,0-.16,0c-.06-.67-.1-1.34-.2-2a6.53,6.53,0,0,0-.37-1.36,2.86,2.86,0,0,0-2.73-2A2.69,2.69,0,0,0,49.61,19a10,10,0,0,0,0,7.09,2.68,2.68,0,0,0,2.64,1.84A2.59,2.59,0,0,0,55,26.16,35,35,0,0,0,55.83,22.47Z"/><path class="a" d="M80.19,25l.75.38a1.47,1.47,0,0,1-.05.31c-1.09,2.57-3,3.58-6,3.16-2.69-.37-4.29-1.88-4.49-4.61a12.78,12.78,0,0,1,.38-4.56c1-3.4,5.69-4.78,8.58-2.68a4.84,4.84,0,0,1,1.84,4.17c0,.78-.52,1-1.22,1H73.12c-.48,2.14.52,4.51,2.11,5.16C77.09,28.06,78.76,27.3,80.19,25Zm-7.47-3.88c1.84,0,3.35,0,4.85,0a1,1,0,0,0,.77-.48c.4-.86-.38-2.78-1.27-3.26a2.38,2.38,0,0,0-3.13.72A20.93,20.93,0,0,0,72.72,21.09Z"/><path class="a" d="M33.23,19.78c-.75.35-.85-.07-1-.58a2.56,2.56,0,0,0-3-2.12,1.84,1.84,0,0,0-1.7,1.48,1.6,1.6,0,0,0,.89,1.86c1.1.56,2.28,1,3.41,1.49A3.22,3.22,0,0,1,34,25a3.5,3.5,0,0,1-2.45,3.55,7.41,7.41,0,0,1-5.23-.18,1.46,1.46,0,0,1-1.08-1.51,12.86,12.86,0,0,1,.11-2.51,3,3,0,0,1,.7.59,19,19,0,0,0,1.12,2,2.76,2.76,0,0,0,2.92.9,1.85,1.85,0,0,0,1.57-1.51,1.79,1.79,0,0,0-.92-2A16.23,16.23,0,0,0,29,23.51c-.58-.26-1.19-.47-1.76-.75a3.12,3.12,0,0,1-1.87-3.18,3.24,3.24,0,0,1,2.19-3.09,6.85,6.85,0,0,1,5,.06,1.12,1.12,0,0,1,.62.76C33.28,18.14,33.23,19,33.23,19.78Z"/><path class="a" d="M44.75,25c.77.12,1,.49.61,1.05A7.36,7.36,0,0,1,44,27.82a5.58,5.58,0,0,1-8.87-3.21,9,9,0,0,1,.28-5c1.22-3.38,6.36-4.82,9.17-2.57.57.46,1.12,1,.79,1.79a2,2,0,0,1-1.2.88c-.28.08-.75-.25-1-.51s-.28-.6-.44-.89A2.23,2.23,0,0,0,38.76,18a4.64,4.64,0,0,0-.94,2.29,19,19,0,0,0,.2,4.49,3.08,3.08,0,0,0,2.88,2.69,3.35,3.35,0,0,0,3.54-2Z"/><path class="a" d="M57.32,16.46h6c.31.7-.06.86-.61.88-.77,0-1,.3-.69,1.08.93,2.52,1.79,5.06,2.77,7.86.5-1.38.93-2.51,1.33-3.66.49-1.39.92-2.81,1.44-4.19.28-.75.09-1.08-.7-1.09-.52,0-1-.1-.68-.86H71c-.25.36-.38.76-.56.79-.93.11-1.29.77-1.58,1.51-1.16,3-2.34,5.93-3.46,8.92a1.25,1.25,0,0,1-1.38,1c-.78,0-1-.33-1.25-1-1.09-3-2.23-6-3.34-9-.27-.74-.62-1.31-1.5-1.44C57.77,17.24,57.62,16.86,57.32,16.46Z"/><path class="a" d="M87.78,27.78c.19.53.15.84-.53.83q-2.73,0-5.45,0c-.67,0-.72-.3-.53-.81C83,27.41,83,27.41,83,25.57c0-2.19,0-4.38,0-6.56,0-.81-.11-1.4-1.09-1.44-.21,0-.42-.31-.62-.47.21-.15.41-.4.64-.45,1-.21,2.11-.36,3.22-.55L85.55,18c.51-.41.92-.8,1.39-1.11a3.49,3.49,0,0,1,1.5-.75c.51,0,1.38.27,1.49.61a2.43,2.43,0,0,1-.34,1.82c-.35.55-1,.33-1.52,0-1.22-.76-2.28-.38-2.39,1.05-.19,2.37-.14,4.77-.11,7.15,0,.28.49.66.83.8A5.53,5.53,0,0,0,87.78,27.78Z"/><path class="a" d="M18.26,28.05c2-.59,2-.59,2-2.34,0-2.28,0-4.57,0-6.85,0-.75-.16-1.23-1-1.29-.23,0-.44-.34-.67-.52a2.33,2.33,0,0,1,.68-.41c1.08-.21,2.17-.37,3.4-.56,0,.42.08.77.08,1.11q0,4.28,0,8.57c0,1,0,2,1.44,2,.18,0,.36.4.53.61l-.19.25c-1.87,0-3.75,0-5.62,0C18.67,28.58,18.47,28.24,18.26,28.05Z"/><path class="a" d="M21.49,14.13a1.46,1.46,0,0,1-1.59-1.54A1.47,1.47,0,0,1,21.45,11,1.44,1.44,0,0,1,23,12.54,1.44,1.44,0,0,1,21.49,14.13Z"/></svg>