<svg xmlns="http://www.w3.org/2000/svg" viewBox="0 0 111.81 40"><defs><style>.a{fill:#fff;}</style></defs><title>entrepreneur</title><path class="a" d="M.17,23.89l1.4-.19v-13L0,10.41.09,9H10L9.75,13l-2-.07-.12-2.47h-3v5.88H5.9l.3-1.35H7.58V19H6.2l-.33-1.39H4.55v6.22H7.63l.29-2.7,2.07.06.16,4.13H.1Z"/><path class="a" d="M11.07,25.37l.06-1.21,1.1-.22V15.7l-1.29-.1V14.38l3.24-.47.24.7v.47a3.93,3.93,0,0,1,2.93-1.31,2.89,2.89,0,0,1,3.08,2.69,2.67,2.67,0,0,1,0,.49v7l1.16.22-.06,1.21H17.71V17.56c0-1.1-.41-1.76-1.44-1.76a2.27,2.27,0,0,0-.86.16,4,4,0,0,0-.47.53V24l1.16.22L16,25.38H11.07Z"/><path class="a" d="M73,25.37V24.16l1.1-.22V15.7l-1.28-.1V14.38L76,13.91l.24.7v.47a3.89,3.89,0,0,1,2.93-1.34,2.9,2.9,0,0,1,3.09,2.69,2.68,2.68,0,0,1,0,.49v7l1.17.22-.07,1.21H79.6V17.52c0-1.1-.41-1.76-1.44-1.76a2.27,2.27,0,0,0-.86.17,4,4,0,0,0-.48.53v7.46l1.17.22-.09,1.21H73Z"/><path class="a" d="M27.71,25.15a6.17,6.17,0,0,1-2.29.39,2.36,2.36,0,0,1-2.65-2,2.72,2.72,0,0,1,0-.57V15.7l-1.33-.21.07-1.44L23,14l.64-2.2,1.86-.09v2.36h2l-.14,1.44-1.86.21v7.21a.93.93,0,0,0,.87,1H27.5Z"/><path class="a" d="M104.41,25.37V24.18l1-.24V15.7l-1.24-.1V14.38l3.37-.47.22.8V15a5.88,5.88,0,0,1,3.51-1.1l.49.43-.34,3.12-1.86-.07-.18-1.66a2.67,2.67,0,0,0-1.19.43V24l1.17.24-.09,1.19h-4.91Z"/><path class="a" d="M56.15,25.37l.07-1.19,1.05-.24V15.7L56,15.6V14.38l3.37-.47.22.8V15a5.88,5.88,0,0,1,3.51-1.1l.49.43-.39,3.12-1.86-.07-.19-1.66a2.72,2.72,0,0,0-1.19.43V24l1.17.24-.09,1.19h-5Z"/><path class="a" d="M28.52,25.37l.08-1.19,1-.24V15.7l-1.25-.1V14.38l3.37-.47.22.8V15a5.79,5.79,0,0,1,3.48-1.1l.5.43-.34,3.12-1.86-.07-.21-1.68a2.6,2.6,0,0,0-1.19.43V24l1.17.24-.09,1.19H28.52Z"/><path class="a" d="M39.15,20.35c0,2,.86,3.49,2.56,3.49a5.27,5.27,0,0,0,2.4-.54l.47,1.1A5.71,5.71,0,0,1,41,25.61c-3,0-4.72-2.59-4.72-5.9,0-2.79,1.25-5.91,4.66-5.91,3-.06,4.15,2.75,4.15,5.79l-.29.74Zm0-1.31,3.44-.14c-.06-1.38-.34-3.54-1.69-3.54a1.83,1.83,0,0,0-.94.27,8.24,8.24,0,0,0-.85,3.45Z"/><path class="a" d="M86.78,20.35c0,2,.86,3.49,2.56,3.49a5.27,5.27,0,0,0,2.4-.54l.47,1.1a5.73,5.73,0,0,1-3.65,1.21c-3,0-4.66-2.61-4.66-5.93,0-2.79,1.25-5.92,4.66-5.92,3,0,4.13,2.8,4.13,5.84l-.29.74ZM86.69,19l3.44-.14c-.06-1.38-.34-3.54-1.69-3.54a1.8,1.8,0,0,0-.93.27A8.11,8.11,0,0,0,86.69,19Z"/><path class="a" d="M66.77,20.35c0,2,.86,3.49,2.56,3.49a5.25,5.25,0,0,0,2.44-.54l.48,1.1a5.73,5.73,0,0,1-3.65,1.21c-3,0-4.72-2.59-4.72-5.9,0-2.79,1.25-5.91,4.66-5.91,3,0,4.13,2.79,4.13,5.84l-.29.73Zm0-1.31,3.44-.14c-.06-1.38-.34-3.54-1.69-3.54a1.86,1.86,0,0,0-.94.27,8.08,8.08,0,0,0-.84,3.45Z"/><path class="a" d="M100.43,25.37l-.33-1a3.59,3.59,0,0,1-2.64,1.19,3,3,0,0,1-3.3-2.75,2.53,2.53,0,0,1,0-.55V15.41l-1.29-.1v-1.1l3.73-.43.29,1V21.9c0,1.26.52,1.86,1.52,1.86a3.06,3.06,0,0,0,1-.16,4.48,4.48,0,0,0,.51-.64V15.41l-1.34-.1v-1.1l3.73-.44.29,1V24l1.16.22-.14,1.21Z"/><path class="a" d="M50.6,23.89a2.88,2.88,0,0,1-1.44-.3V16.36a5,5,0,0,1,.53-.68,3,3,0,0,1,1-.17c1.54,0,1.8,1.56,1.8,4.35A8.8,8.8,0,0,1,52,23.59,3.24,3.24,0,0,1,50.6,23.89Zm4.59-4.53c0-3.46-1-5.59-3.59-5.59a3.42,3.42,0,0,0-2.79,1.4v-.39l-.29-1-3.3.47v1.19l1.3.16v14l-1.1.22L45.34,31h4.94l.06-1.22-1.17-.22v-4.4a3.86,3.86,0,0,0,1.86.43c4.17,0,4.2-4.28,4.2-6.23Z"/></svg>