<svg xmlns="http://www.w3.org/2000/svg" viewBox="0 0 62.31 40"><defs><style>.a{fill:#fff;}</style></defs><title>eonline</title><polygon class="a" points="36.01 11.16 34.04 11.16 34.04 28.84 40.77 28.84 40.77 26.96 36.01 26.96 36.01 11.16"/><path class="a" d="M30.68,23.17l-4.8-12H24.21V28.84h2V17.11l.07.18L31,28.84h1.62V11.16h-2Z"/><path class="a" d="M18.46,10.9c-2.75,0-4.36,1.81-4.42,5v8.28c0,4.52,3.09,5,4.42,5s4.48-.49,4.48-5V15.86C22.94,13.57,21.76,10.9,18.46,10.9Zm2.48,13.24c0,1.15-.32,3.08-2.48,3.08-1.59,0-2.42-1-2.48-3.08V15.86c0-1.1.32-3,2.49-3,1.61,0,2.41,1,2.47,3Z"/><rect class="a" x="41.81" y="11.16" width="1.99" height="17.69"/><path class="a" d="M51.67,23.17h0l-4.79-12H45.2V28.85h2V17.11a1.34,1.34,0,0,0,.07.18L52,28.85h1.61V11.16h-2Z"/><polygon class="a" points="62.31 13.07 62.31 11.16 55.07 11.16 55.07 28.85 62.31 28.85 62.31 26.94 57.01 26.94 57.01 20.97 60.3 20.97 60.3 19.06 57.01 19.06 57.01 13.07 62.31 13.07"/><rect class="a" x="1.04" y="31.04" width="10.6" height="8.96"/><polygon class="a" points="1.04 28.93 11.63 28.93 11.85 23.3 6.97 23.3 6.97 16.38 12.09 16.38 12.27 11.16 7.05 11.16 7.05 5.91 12.46 5.91 12.67 0 0 0 1.04 28.93"/></svg>