<svg xmlns="http://www.w3.org/2000/svg" viewBox="0 0 60 40"><defs><style>.a{fill:#fff;}</style></defs><title>espn</title><path class="a" d="M19.57,12.59c-2.24,0-3.72,1.18-3.92,2.94-.08.65-.15,1.22-.15,1.22H44.57l.1-.77c.22-1.77-.54-3.38-3.28-3.38H19.57Zm-17.75,0-.51,4.16H14.5L15,12.59H1.82Zm44.27,0-.51,4.16h14.3s0-.15.08-.64c.35-2.73-1.41-3.52-3.11-3.52H46.09Zm-.71,5.74-1.11,9.07H49.2l1.11-9.07H45.38Zm9.37,0-1.12,9.07h4.93l1.11-9.07H54.75Zm-53.64,0L0,27.41H13.19l.49-3.94H5.42l.21-1.7h8.25l.42-3.44H1.12Zm14.18,0c-.36,2.37.82,3.44,2.5,3.44h6.67l-.21,1.7h-9.6l-.48,3.94H25.06c.35,0,2.79-.09,3.63-2.09a23.62,23.62,0,0,0,.58-3.46c.38-2.84-1.58-3.51-3.13-3.51Zm15.35,0-1.11,9.07h4.93l.69-5.63h6.19a2.58,2.58,0,0,0,2.88-2.21c.09-.64.15-1.23.15-1.23H30.65Z"/></svg>