<svg id="svg16266" xmlns="http://www.w3.org/2000/svg" viewBox="0 0 100 40"><defs><style>.cls-1{fill:#fff;}</style></defs><title>eurogamer</title><g id="layer1"><g id="g15963"><path id="path3425" class="cls-1" d="M0,20V14H8.23v2.27H3.05v2.27H8v2.27H3.05v2.84H8.44V26H0V20Z"/><path id="path3427" class="cls-1" d="M12.33,25.88A3.92,3.92,0,0,1,9.09,23c-.11-.38-.12-.86-.15-4.63l0-4.21h2.92v3.75c0,2.28,0,3.92.07,4.2a2,2,0,0,0,.95,1.59,1.88,1.88,0,0,0,1,.15c.86,0,1.17-.12,1.56-.58s.46-.55.48-5l0-4.07h3l0,4.07c0,3.9,0,4.08-.18,4.63a3.73,3.73,0,0,1-1.95,2.59,5,5,0,0,1-2.71.54,9,9,0,0,1-1.74-.08Z"/><path id="path3429" class="cls-1" d="M20,20V14.1l2.82,0c3.05,0,3.2,0,4,.45a3.58,3.58,0,0,1,1.73,2.26,6.12,6.12,0,0,1,0,1.91,3,3,0,0,1-1.67,2.07,2.84,2.84,0,0,1-.63.24.18.18,0,0,0-.14.06s.78,1.12,1.77,2.41,1.8,2.37,1.8,2.39-.84,0-1.86,0H26l-1.46-2.26L23,21.42l0,2.27L23,26H20V20Zm4.68-.75a1.46,1.46,0,0,0-.17-2.72,3.75,3.75,0,0,0-.9-.11H23v3.08l.64-.05a3.17,3.17,0,0,0,1-.2Z"/><path id="path3431" class="cls-1" d="M33.49,25.87a5.57,5.57,0,0,1-2.76-1.44,6.17,6.17,0,0,1-1.68-2.67,7.15,7.15,0,0,1-.11-2.92,6.14,6.14,0,0,1,1.65-3.1A5.72,5.72,0,0,1,35,14.06a5.84,5.84,0,0,1,4.63,1.86,6,6,0,0,1,0,8.2,5.9,5.9,0,0,1-2.8,1.68,11.46,11.46,0,0,1-3.36.07Zm2.39-2.76a2.73,2.73,0,0,0,1.43-.85,3.11,3.11,0,0,0,.91-2.74,3.26,3.26,0,0,0-4.72-2.33,4,4,0,0,0-1.28,1.25,3.29,3.29,0,0,0-.14,2.88,3.44,3.44,0,0,0,2.07,1.79,4.2,4.2,0,0,0,1.73,0Z"/><path id="path3437" class="cls-1" d="M45.9,25.87a5.54,5.54,0,0,1-3.84-3.48,6,6,0,0,1-.34-2.55,4.82,4.82,0,0,1,.26-1.6,5.42,5.42,0,0,1,4.1-3.79,5.92,5.92,0,0,1,5.45,1.27,5.74,5.74,0,0,1,1.08,1.55c0,.06-2,.94-2.46,1.08-.11,0-.17,0-.28-.23A3.05,3.05,0,0,0,48.79,17c-.37-.2-.42-.21-1.27-.21s-.9,0-1.27.21c-1.52.85-2.11,3.36-1.2,5.1a3.89,3.89,0,0,0,1.28,1.35,3.69,3.69,0,0,0,2.23.15A2.24,2.24,0,0,0,50,22l0-.25H47.59V19.59h5.75l0,.55a12.94,12.94,0,0,1-.36,2.18,6.65,6.65,0,0,1-1,1.83,5,5,0,0,1-2.33,1.59,4.86,4.86,0,0,1-2,.22,7.19,7.19,0,0,1-1.76-.09Z"/><path id="path3439" class="cls-1" d="M53.06,25.94c-.42,0-.48,0-.46-.15s1.89-5,3.66-9.55l.77-2,1.63,0a13.14,13.14,0,0,1,1.67,0c.09.08,4.4,11.66,4.36,11.7S64,26,63.11,26H61.59l-.37-1-.37-1-2.2,0-2.2,0-.39,1-.39,1H54.61l-1.55,0ZM60,21.56c0-.16-1.19-3.6-1.27-3.68s-.09-.06-.11,0-1.25,3.7-1.25,3.77a8.3,8.3,0,0,0,1.31.05c1.09,0,1.32,0,1.32-.1Z"/><path id="path3441" class="cls-1" d="M65.49,20.09V14.22l2.86,0,2.87,0,.39,1.2c.21.67.71,2.22,1.1,3.45a13,13,0,0,0,.8,2.16s.64-1.61,1.31-3.47l1.23-3.39h5.39V26H78V21.38c0-2.52,0-4.55-.07-4.51s-.71,2.09-1.48,4.56l-1.41,4.48H71.88l-1.41-4.49C69.7,19,69,16.93,69,16.93s-.08,2-.08,4.51V26H65.49V20.09Z"/><path id="path3443" class="cls-1" d="M82.55,20.09V14.22h6.72v2.51H85.55l0,1,0,1,1.73,0,1.73,0v2.4H85.55l0,1.13,0,1.13,1.83,0,1.83,0V26H82.55V20.09Z"/><path id="path3445" class="cls-1" d="M90.27,20.08V14.21l3,0,3,0,.67.33a3.25,3.25,0,0,1,1.86,3,3.41,3.41,0,0,1-.58,2.33A3,3,0,0,1,96.73,21c-.18,0-.33.11-.33.16s.81,1.16,1.8,2.45L100,26H96.25l-1.46-2.27L93.33,21.4l0,2.28,0,2.28h-3V20.08Zm4.37-.65a1.52,1.52,0,0,0,1-2.16c-.24-.51-.71-.75-1.59-.82l-.76-.05v3.14h.48a4.07,4.07,0,0,0,.88-.11Z"/></g></g></svg>