<svg id="Camada_1" data-name="Camada 1" xmlns="http://www.w3.org/2000/svg" viewBox="0 0 200 200"><defs><style>.cls-1{fill:#fff;}</style></defs><title>ew</title><path class="cls-1" d="M199.94,100c.32,54.81-45,100.86-101.65,100C45.6,199.14-.86,156,.07,98.12A99.95,99.95,0,0,1,199.94,100ZM144,105.91l-.4,0-6.14-50.41c-7.35,0-14.56,0-21.77.06-.43,0-1.16.79-1.23,1.29-1.26,8.7-2.45,17.41-3.65,26.12q-1.63,11.87-3.26,23.74h-.25l-4.78-51.1H81.38c0,.64,0,1.18.12,1.7,1.42,9.67,2.87,19.34,4.27,29,1.35,9.35,2.66,18.71,4,28.06s2.71,18.84,4,28.26c.17,1.28.67,1.62,1.9,1.61,6.69-.05,13.39,0,20.08,0a7.82,7.82,0,0,0,1.16-.18l7.79-53.93.43.06,7.67,54.06c7.61,0,15.09,0,22.56-.08.45,0,1.18-1.07,1.28-1.71,1.31-8.82,2.51-17.66,3.78-26.49Q162.69,100,165,84.16c.9-6.14,1.81-12.28,2.69-18.43.48-3.36.9-6.73,1.35-10.15h-20ZM32.2,144.07H78V124.6H53.46V108.26h2.3c5.7,0,11.4-.06,17.09,0,1.69,0,2.14-.53,2.09-2.14-.11-3.57,0-7.15,0-10.73,0-2.1,0-4.2,0-6.53H53.46v-14h24V55.61H32.2Z"/></svg>