<svg xmlns="http://www.w3.org/2000/svg" viewBox="0 0 120 40"><defs><style>.a{fill:#fff;}</style></defs><title>fastcompany-logo</title><path class="a" d="M105.53,13.6c0-1.16.38-1.57,1-1.57s1.1.22,1.68,1.57l3.47,7.86V26.4c0,1.16-.47,1.5-1.84,1.68v.31h6.4v-.31c-1.37-.18-1.84-.51-1.84-1.68V21.46l3.34-7.57a2.76,2.76,0,0,1,2.26-2V11.6h-4.66v.31c1.59.18,2.15.6,1.7,1.66l-2.93,6.7-3-6.87c-.4-.92-.16-1.23,1.57-1.48V11.6H102.6v.31c1.59.22,2.06.51,2.06,1.68v9.2L97.32,11.6H93.69v.31c1.19.18,1.55.51,1.55,1.68V26.4c0,1.16-.34,1.57-.74,1.57s-.58-.18-1.1-1.57L87.93,11.54h-.31L82.38,25.78A3.17,3.17,0,0,1,80,28.08v.31h4.81v-.31c-1.68-.18-2.19-.81-1.81-1.86L84.22,23h4.95L90.29,26c.49,1.37.2,1.77-1.23,2v.31h9.11v-.31c-1.59-.22-2.06-.51-2.06-1.68V14.94L105,28.44h.54V13.6ZM41.34,20c0-5.22,2.46-7.95,5.35-7.95a4.72,4.72,0,0,1,3.47,1.05,5.79,5.79,0,0,1,1.25,2.28h.31V11.89A23.36,23.36,0,0,0,47,11.38c-4.34,0-8.84,2.82-8.84,8.62a8.34,8.34,0,0,0,8.58,8.62,16,16,0,0,0,4.88-.74l.49-3.29-.29-.07a7.36,7.36,0,0,1-1.3,1.81,5.51,5.51,0,0,1-3.92,1.61C43.89,27.95,41.34,25.29,41.34,20Zm36.05.49A10.51,10.51,0,0,1,76,20.38V12.25h1.34c2.22,0,3.2,1.19,3.2,4.12S79.6,20.49,77.39,20.49ZM25.12,11.6v4h.31c.49-2.55,1.5-3.36,3.22-3.36h.83V26.4c0,1.16-.47,1.5-1.84,1.68v.31h6.4v-.31c-1.37-.18-1.84-.51-1.84-1.68V12.25h.83c1.72,0,2.73.81,3.22,3.36h.31v-4ZM20,28.62c2.75,0,5.69-1.59,5.69-4.86a5,5,0,0,0-2.8-4.48l-3.16-1.75c-1.68-.92-2.17-1.79-2.17-3,0-1.37,1-2.49,2.93-2.49a2.88,2.88,0,0,1,2.19.78,6.47,6.47,0,0,1,1.41,2.78h.31V11.89a12.81,12.81,0,0,0-3.7-.52A4.43,4.43,0,0,0,16,16a5.1,5.1,0,0,0,2.69,4.46l2.91,1.64c1.66.92,2.19,1.81,2.19,3.18,0,1.59-1.61,2.71-3.43,2.71a4,4,0,0,1-2.87-1.1,6.14,6.14,0,0,1-1.28-2h1.93V24.5c-.51-.11-.85-.2-1.3-1.25L13.1,14.33h-.31L9.14,23c-.49,1.16-.81,1.37-1.39,1.48v.31H11V24.5c-1.19-.11-1.5-.69-1.21-1.41l.58-1.39h3.31l.72,1.72c.31.76-.16,1-1.34,1.07v.31h2.6V28A17.11,17.11,0,0,0,20,28.62Zm41.31-.18L66.21,15l.38,11.47c0,1.12-.43,1.46-1.77,1.63v.31H78.1v-.31C76.51,27.86,76,27.57,76,26.4V21a12.44,12.44,0,0,0,1.46.11c3.22,0,6-1.19,6-4.77s-2.75-4.77-6-4.77H71.77v.31c1.19.18,1.54.51,1.54,1.68V26.4c0,1.16-.47,1.68-1.84,1.68h0c-1.43,0-2-.51-2.06-1.63l-.47-12.81c0-1.16.36-1.55,1.61-1.72V11.6H66.59L62.27,23.7,58,11.6H53.72v.31c1.25.18,1.66.56,1.61,1.72l-.45,12.29A2,2,0,0,1,53,28.08v.31h4.46v-.31a1.91,1.91,0,0,1-1.75-2.15l.38-11.17L61,28.44h.31Zm-13-3.54a5.07,5.07,0,0,0,4.9-4.9,4.9,4.9,0,1,0-9.81,0A5.07,5.07,0,0,0,48.39,24.9Zm0-9.14c1.37,0,2.33,1.12,2.33,4.23s-1,4.23-2.33,4.23S46.06,23.11,46.06,20,47,15.77,48.39,15.77Zm40.55,6.56h-4.5l2.24-6.18ZM13.46,21.05H10.68l1.39-3.38Zm-5.28.85h.31v-5H8.17c-.54,1.79-1.07,2.19-2,2.19H4.28V12.25h3c1.72,0,2.73.81,3.22,3.36h.31v-4H0v.31c1.19.18,1.54.51,1.54,1.68V26.4c0,1.16-.36,1.5-1.54,1.68v.31H6.34v-.31c-1.59-.22-2.06-.51-2.06-1.68v-6.7H6.16C7.1,19.73,7.64,20.11,8.17,21.9Z"/></svg>