<svg xmlns="http://www.w3.org/2000/svg" viewBox="0 0 69.25 40"><defs><style>.a{fill:#fff;}</style></defs><title>forbes</title><path class="a" d="M39.23,11h.15c0,1.93,0,3.86,0,5.79a5.62,5.62,0,0,1,4.05-.51,5.25,5.25,0,0,1,3.44,4.18A8.37,8.37,0,0,1,46.07,26a6,6,0,0,1-4.32,2.94,18.71,18.71,0,0,1-6-.42c0-4.68.17-9.36,0-14,0-.71-.25-1.64-1.1-1.73-.38,0-.84-.39-.46-.71,1.69-.39,3.41-.65,5.11-1m.16,6.72c-.07,3,0,6,0,9a6.85,6.85,0,0,0,.12,1.3,2.32,2.32,0,0,0,2.18-.69,8.12,8.12,0,0,0,1.41-5.47,5,5,0,0,0-1.55-3.94,2.45,2.45,0,0,0-2.17-.18Z"/><path class="a" d="M0,11.33c4.38,0,8.77,0,13.15,0,.3,0,.66-.07.92.09.09,1.63.06,3.27.09,4.9l-.84.25c-.58-1.37-1.15-3-2.64-3.59-1.32-.48-2.77-.17-4.13-.28-.09,2.28-.16,4.55-.15,6.83a13.38,13.38,0,0,0,2.34-.13c1-.32,1.22-1.38,1.46-2.25l.78-.06c0,2,0,4,0,6l-.78,0c-.25-.82-.46-1.86-1.33-2.24a15,15,0,0,0-2.47-.22,30.37,30.37,0,0,0,.4,6.1c.23,1,1.38,1.15,2.26,1.25,0,.27,0,.54,0,.8-3,0-6.05,0-9.09,0v-.53c.42-.55,1.35-.23,1.78-.82.68-.81.58-2,.69-2.94.09-2.85.07-5.71,0-8.56a5.94,5.94,0,0,0-.62-3c-.43-.57-1.2-.55-1.82-.68,0-.14,0-.44-.05-.58Z"/><path class="a" d="M17.42,16a6.31,6.31,0,0,1,5.41,1.47,7,7,0,0,1,1.75,5.29,6.25,6.25,0,0,1-2.81,5.35,6.39,6.39,0,0,1-4,.85A5.27,5.27,0,0,1,13,25.87a8.64,8.64,0,0,1-.43-5.39A5.9,5.9,0,0,1,17.42,16m.22,1a2.89,2.89,0,0,0-1.08,1.76,17.49,17.49,0,0,0-.31,5.1c.16,1.34.36,2.85,1.38,3.81A1.54,1.54,0,0,0,20,27.11c.83-1.62.72-3.51.72-5.27-.07-1.53-.2-3.25-1.28-4.45a1.46,1.46,0,0,0-1.79-.33Z"/><path class="a" d="M31.62,16.5A3.07,3.07,0,0,1,35,16.29c-.43,1.15-.84,2.31-1.33,3.45a3.91,3.91,0,0,0-2.68-.55c-.41.12-1,.28-1,.82,0,2-.08,4,.06,6,.08.6.05,1.41.69,1.74a5.34,5.34,0,0,0,1.38.2c0,.27,0,.54,0,.8-2.48,0-5,0-7.45,0v-.8c.69,0,1.5-.33,1.58-1.12.2-2.1.1-4.22.11-6.33a4.85,4.85,0,0,0-.37-2.37c-.29-.43-.87-.38-1.32-.46l0-.62c1.83-.37,3.66-.74,5.49-1.09,0,.88-.12,1.76-.14,2.65A5.57,5.57,0,0,1,31.62,16.5Z"/><path class="a" d="M49.89,17.52a6.17,6.17,0,0,1,5.5-1.45,4.33,4.33,0,0,1,2.89,2.19A8.63,8.63,0,0,1,59.14,22c-2.48.06-5,0-7.43,0a5.51,5.51,0,0,0,1.37,4,4.32,4.32,0,0,0,5.54.18l.34.49A5.82,5.82,0,0,1,54,29a5.71,5.71,0,0,1-5.43-3.36,7.4,7.4,0,0,1,1.33-8.1m3-.23a6.13,6.13,0,0,0-1.21,3.65c1.2-.06,2.41-.07,3.61-.09a7.08,7.08,0,0,0-.73-3.51,1.06,1.06,0,0,0-1.68,0Z"/><path class="a" d="M63.11,16.16a9.41,9.41,0,0,1,5.39.41,23.21,23.21,0,0,1,.08,3.37l-.55.15a8,8,0,0,0-1.47-2.5,2.19,2.19,0,0,0-2.31-.46,1.71,1.71,0,0,0-.42,2.73C65,20.94,66.74,21.15,68,22.14a3,3,0,0,1,1.23,2.18v.45a4.11,4.11,0,0,1-3.72,4.15,12.59,12.59,0,0,1-5.67-.62c0-1.24,0-2.49-.07-3.73l.63-.18a7,7,0,0,0,1.69,2.74,2.58,2.58,0,0,0,2.84.33,1.73,1.73,0,0,0,.28-2.76c-1.3-1-3.18-1.13-4.34-2.37a3.56,3.56,0,0,1-.78-3.25A4.08,4.08,0,0,1,63.11,16.16Z"/></svg>