<svg xmlns="http://www.w3.org/2000/svg" viewBox="0 0 51.87 40"><defs><style>.a,.b{fill:#fff;}.b{opacity:0.5;isolation:isolate;}</style></defs><title>foxsports</title><path class="a" d="M14.88,15.81h3.51V19.3H14.85v4.15h-3.6V10.65H19l.24,3.49H14.88Zm26.19,7.62h-4L35.21,20.2l-1.85,3.24H29.47l3.79-6.61-3.57-6.17h4l1.57,2.76,1.6-2.76h3.86L37.2,16.78ZM25.2,10.83a6.22,6.22,0,1,0,6.07,6.38q0-.1,0-.19A6.16,6.16,0,0,0,25.2,10.83Zm1.1,8.73a1.07,1.07,0,0,1-1.08,1,1,1,0,0,1-1-1v0h0v-5a1.09,1.09,0,0,1,1-1.11,1.13,1.13,0,0,1,1.08,1.11Zm-11.41,6.6H12.33l-.08-.07v-.69l.11-.11H15L15.3,25v-.72H11.61l-.66.65V26.6l.57.57h2.55l.07.07v.71l-.1.11H11.29l-.34.33V29h3.89l.65-.65V26.74Zm5.22-1.85H16.21V29h1.3V27.52h2.54l.73-.73V25Zm-.57,2.1-.19.18H17.55V25.31h1.78l.19.19Zm5.93-2.1H22.23L21.5,25v3.27l.73.72h3.22l.73-.72V25Zm-.63,3.39-.26.26H23.06l-.26-.26v-2.1l.26-.26h1.51l.26.26Zm6.07-.6.62-.63V25l-.66-.65H27V29h1.3V27.32h1.37L30.28,29h1.45Zm-.68-1-.18.18H28.29v-1H30l.18.18ZM32,24.32v1.1h1.49V29h1.3V25.41h1.5v-1.1Zm8.65,1.85H38.07L38,26.1v-.69l.11-.11h2.69L41,25v-.72h-3.7l-.66.65V26.6l.57.57h2.55l.07.07v.71l-.1.11H37l-.34.33V29h3.89l.65-.65V26.74Z"/><path class="a" d="M4.36,19.28c.33-5.16,4.15-9.74,9.83-12.4l-.12-.44C6,8.86.47,13.68,0,19.28Zm0,1.08H0c.21,5.75,5.88,10.73,14.07,13.17l.12-.44C8.38,30.4,4.5,25.71,4.34,20.36Zm43.17-1.08h4.34c-.45-5.61-6-10.42-14.08-12.85l-.12.43C43.34,9.52,47.18,14.11,47.51,19.28Zm0,1.08c-.17,5.41-4,10.06-9.88,12.79l.12.43C46,31.1,51.65,26.12,51.87,20.35Z"/><path class="b" d="M25.93,5C14.52,5,5.25,11.72,5.25,20s9.27,15,20.68,15,20.68-6.72,20.68-15S37.34,5,25.93,5ZM41.36,29.26c-3.69,3.2-9.24,5.23-15.43,5.23s-11.74-2-15.44-5.17A14.12,14.12,0,0,1,6.85,20a14.12,14.12,0,0,1,3.63-9.31A24,24,0,0,1,25.93,5.53a23.89,23.89,0,0,1,15.43,5.17A14.12,14.12,0,0,1,45,20a14.12,14.12,0,0,1-3.63,9.3Z"/></svg>