<svg xmlns="http://www.w3.org/2000/svg" viewBox="0 0 107.3 40"><defs><style>.a{fill:#fff;}</style></defs><title>gamespot</title><path class="a" d="M99.29,12a7.86,7.86,0,0,0-5,1.78l4-5.84-7.3,5,1.8-8.65-4.85,7.39L86.26,3l-1.65,8.67L79.76,4.31l1.79,8.63L74.26,8,78.2,13.8a7.88,7.88,0,0,0-5-1.76,8,8,0,0,0-6.54,3.4,8,8,0,0,0-13.06,0,8,8,0,0,0-13.06,0A8,8,0,0,0,34.07,12a8.05,8.05,0,0,0-6.54,3.4A7.94,7.94,0,0,0,21,12a8,8,0,0,0-6.54,3.4,8,8,0,1,0,0,9.15A8,8,0,0,0,21,28a7.92,7.92,0,0,0,6.51-3.39A8,8,0,0,0,34.08,28a7.92,7.92,0,0,0,6.51-3.39,8,8,0,0,0,13.06,0,8,8,0,0,0,13.06,0A8,8,0,0,0,73.24,28a8.2,8.2,0,0,0,5-1.7L74.26,32l7.31-4.95-1.79,8.64,4.85-7.37L86.27,37l1.68-8.66L92.8,35.7,91,27.06l7.31,5-3.89-5.69A8,8,0,1,0,99.29,12Zm0,14.85c-3,0-5.18-1.76-8-3.5l3.4,5.1-5.25-3.63,1.62,6.46-3.63-5.66-1.21,6.46-1.22-6.46-3.63,5.66,1.62-6.46-5.25,3.63,3.36-5c-2.79,1.72-5,3.45-8,3.45a6.88,6.88,0,0,1-6.53-4.71,6.88,6.88,0,0,1-13.06,0,6.88,6.88,0,0,1-13.06,0,6.88,6.88,0,0,1-13.06,0,6.88,6.88,0,0,1-13.06,0,6.89,6.89,0,1,1,0-4.35,6.88,6.88,0,0,1,13.06,0,6.88,6.88,0,0,1,13.06,0,6.88,6.88,0,0,1,13.06,0,6.88,6.88,0,0,1,13.06,0,6.88,6.88,0,0,1,6.53-4.71c3.06,0,5.18,1.73,8,3.45l-3.36-5,5.25,3.64L81.46,8.69l3.63,5.66L86.3,7.88l1.22,6.46,3.63-5.66-1.62,6.46,5.25-3.64-3.33,5c2.77-1.71,5.19-3.4,7.89-3.4a6.89,6.89,0,0,1,0,13.77Z"/><path class="a" d="M9,21.42a.59.59,0,0,1-.19.45.67.67,0,0,1-.47.14,1.58,1.58,0,0,1-1.24-.56A2.07,2.07,0,0,1,6.54,20a2.1,2.1,0,0,1,.55-1.49,2.13,2.13,0,0,1,1.64-.66,3.67,3.67,0,0,1,1,.13,4.14,4.14,0,0,1,.7.23l.25-1c-.61-.22-1-.34-1-.35A7,7,0,0,0,8,16.76a3.71,3.71,0,0,0-2.62.94,3,3,0,0,0-1,2.3,3.09,3.09,0,0,0,1,2.29,3.46,3.46,0,0,0,2.43.94,4.82,4.82,0,0,0,1-.12,10.94,10.94,0,0,1,1.55-.25A1.19,1.19,0,0,1,11,23V20.11H9Z"/><path class="a" d="M20.28,17,17.43,23h1.23l.46-1h2.79l.45,1H24.6L21.74,17Zm-.65,4,.87-1.88L21.38,21Z"/><polygon class="a" points="34.06 19.63 32.18 16.95 30.47 16.95 30.47 23.04 31.6 23.04 31.6 19.65 32.92 21.58 34.06 21.58 35.6 19.37 35.6 23.04 37.64 23.04 37.64 16.95 35.95 16.95 34.06 19.63"/><polygon class="a" points="44.58 23.04 49.59 23.04 49.59 21.94 46.63 21.94 46.63 20.3 48.68 20.3 48.68 19.19 46.63 19.19 46.63 18.06 49.59 18.06 49.59 16.95 44.58 16.95 44.58 23.04"/><path class="a" d="M60.77,19.17a3.93,3.93,0,0,1-.9-.44c-.19-.13-.26-.26-.26-.37a.33.33,0,0,1,.16-.29.91.91,0,0,1,.46-.11,3.8,3.8,0,0,1,1.05.15,4.62,4.62,0,0,1,.92.44l.55-.83a4.61,4.61,0,0,0-1.2-.65,4.36,4.36,0,0,0-1.63-.31,2.77,2.77,0,0,0-1.81.57,1.62,1.62,0,0,0-.67,1.31,1.55,1.55,0,0,0,.46,1.11,3.55,3.55,0,0,0,1.4.85c1,.37,1.43.66,1.43.89a.4.4,0,0,1-.21.36,1,1,0,0,1-.61.14,2.73,2.73,0,0,1-1.1-.19,3.61,3.61,0,0,1-1-.59l-.61.75a4.07,4.07,0,0,0,1.22.87,3.89,3.89,0,0,0,1.72.38,3.4,3.4,0,0,0,2.08-.59A1.57,1.57,0,0,0,63,21.37a1.66,1.66,0,0,0-.46-1.17A4,4,0,0,0,60.77,19.17Z"/><path class="a" d="M76.11,17.54A3,3,0,0,0,74.25,17H70.78V23h2.06V21h1.42a3,3,0,0,0,1.86-.61,1.74,1.74,0,0,0,0-2.87ZM74.51,19.6a1.36,1.36,0,0,1-.86.27h-.81V18.06h.81a1.47,1.47,0,0,1,.86.27.82.82,0,0,1,.35.64.74.74,0,0,1-.35.63Z"/><path class="a" d="M88.72,17.7a3.3,3.3,0,0,0-2.41-.94,3.4,3.4,0,0,0-2.41.94,3.11,3.11,0,0,0-1,2.3,3.08,3.08,0,0,0,1,2.29,3.43,3.43,0,0,0,2.41.94,3.3,3.3,0,0,0,2.41-.94,3,3,0,0,0,1-2.29A3.07,3.07,0,0,0,88.72,17.7Zm-1.55,3.73a1,1,0,0,1-.85.58,1,1,0,0,1-.87-.56,3.06,3.06,0,0,1,0-2.88,1.08,1.08,0,0,1,.87-.61,1,1,0,0,1,.86.59A2.7,2.7,0,0,1,87.55,20,2.52,2.52,0,0,1,87.17,21.44Z"/><polygon class="a" points="96.32 18.06 98.31 18.06 98.31 23.04 100.33 23.04 100.33 18.06 102.32 18.06 102.32 16.95 96.32 16.95 96.32 18.06"/></svg>