<svg xmlns="http://www.w3.org/2000/svg" viewBox="0 0 108.67 40"><defs><style>.a{fill:#fff;}</style></defs><title>gizmodo</title><path class="a" d="M17.82,26.06V13.91a2.07,2.07,0,0,1,.43-1.42,1.39,1.39,0,0,1,1.1-.47,1.44,1.44,0,0,1,1.11.47,2.06,2.06,0,0,1,.38,1.42V26.06a2.08,2.08,0,0,1-.43,1.43,1.44,1.44,0,0,1-1.11.47,1.39,1.39,0,0,1-1.09-.48A2.08,2.08,0,0,1,17.82,26.06ZM100.88,28a8,8,0,1,1,7.79-8.15q0,.09,0,.18a7.89,7.89,0,0,1-7.79,8Zm0-12.68a4.74,4.74,0,1,0,4.63,4.85s0-.1,0-.14a4.7,4.7,0,0,0-4.64-4.74ZM65.9,28a8,8,0,1,1,7.79-8.15q0,.09,0,.18A7.89,7.89,0,0,1,65.9,28Zm0-12.68a4.74,4.74,0,1,0,4.63,4.85s0-.1,0-.14a4.7,4.7,0,0,0-4.64-4.74ZM90.56,20h0a8,8,0,0,0-1.5-4.71A7.73,7.73,0,0,0,83,12H78.88a1.94,1.94,0,0,0-1.45.47A2.13,2.13,0,0,0,77,14V26a2.13,2.13,0,0,0,.45,1.51,1.94,1.94,0,0,0,1.45.47H83a7.73,7.73,0,0,0,6-3.26A8.06,8.06,0,0,0,90.56,20ZM83.31,24.7H80.09V15.26h3.27a4.62,4.62,0,0,1,3.26,2A4.79,4.79,0,0,1,87.43,20h0a4.8,4.8,0,0,1-.81,2.72A4.63,4.63,0,0,1,83.31,24.7ZM53.69,12.09a1.32,1.32,0,0,0-1.51.56L47.48,20l-4.7-7.32a1.32,1.32,0,0,0-1.52-.56,1.4,1.4,0,0,0-1,1.35v13a1.36,1.36,0,0,0,2.72,0V18.08l3.33,5.2h0l.06.09h0l.05.06.05.05h0l.08.06h0l.09.05h.07a1.3,1.3,0,0,0,.43.12h.27a1.29,1.29,0,0,0,.53.07h.07l.09-.05h0l.08-.06h0l.05-.05.05-.06h0l.06-.09h0l3.33-5.2v8.37a1.36,1.36,0,0,0,2.72,0V13.44a1.4,1.4,0,0,0-1-1.35Zm-18,15.39H25.61a1.5,1.5,0,0,1-1.34-.91,1.81,1.81,0,0,1,.21-1.81L32.75,15H25.91a1.42,1.42,0,0,1-1.35-1.48,1.28,1.28,0,0,1,1.24-1.31h9.32a1.91,1.91,0,0,1,1.57.62A1.89,1.89,0,0,1,36.62,15l-8,9.53h7.09a1.49,1.49,0,0,1,0,3ZM7.74,28A7.51,7.51,0,0,1,2,25.43a8.1,8.1,0,0,1-2-5.28A7.84,7.84,0,0,1,7.53,12h.32a10,10,0,0,1,5.26,1.56,1.55,1.55,0,0,1,.4,2.1,1.43,1.43,0,0,1-2,.45l-.06,0A7.18,7.18,0,0,0,7.87,15c-1.9,0-4.53,1.29-4.53,5.1a4.59,4.59,0,0,0,4.42,4.75h0A6.34,6.34,0,0,0,11.23,24V21.74H9a1.52,1.52,0,0,1,0-3h3.7a1.49,1.49,0,0,1,1.47,1.52h0v4.53a1.55,1.55,0,0,1-.44,1.09,8.7,8.7,0,0,1-6,2.14Z"/></svg>