<svg id="Logo" xmlns="http://www.w3.org/2000/svg" viewBox="0 0 92.5 40"><defs><style>.cls-1{fill:#fff;}</style></defs><title>greatist</title><path class="cls-1" d="M20.65,23.89a19,19,0,0,0,5.57-4.43c1.47-1.86,1.49-3.65-.3-5.19a6.44,6.44,0,0,0-3-1.58,4.3,4.3,0,0,0-1.2-.06,3.24,3.24,0,0,0-2.68,2,50.61,50.61,0,0,0-2.52,8.08.25.25,0,0,1-.19.17,24.55,24.55,0,0,1-2.8.89c-.18.05-.14-.34-.14-.72a4.6,4.6,0,0,0-.23-1.73A2.39,2.39,0,0,0,11.79,20a6.51,6.51,0,0,0-2.4-.46,2.51,2.51,0,0,0-1.2.4A7.78,7.78,0,0,0,4.94,24a3.41,3.41,0,0,0,0,2.23,2.44,2.44,0,0,0,2.45,1.24l1.7-.18c.08,0,.13,0,.09.1-.47.8-1.87,2.52-3.77,2.44a2.27,2.27,0,0,1-2.25-1.6c-.23-.58-1-2.71.49-6.79a12,12,0,0,1,6.06-6.67,2.09,2.09,0,0,1,1.15-.2c.23.06.21.26.2.42a12.43,12.43,0,0,0-.2,1.26,1,1,0,0,0,.22.86,2.28,2.28,0,0,0,1.16.44c.69.1,1.27.1,1.64-.7a4.61,4.61,0,0,0,.3-1.46,3,3,0,0,0-.26-1.56,3.35,3.35,0,0,0-1.52-1.45,5.1,5.1,0,0,0-2.11-.51,6,6,0,0,0-1.91.4c-2.64,1-6,3.8-7.72,8.88-1,3.18-.84,6.65.34,8.65a5.24,5.24,0,0,0,3.64,2.61A5.42,5.42,0,0,0,7.74,32c2.79-1.21,4.09-3.76,4.8-5a.75.75,0,0,1,.51-.36c.78-.26,1.62-.42,2.51-.74a.08.08,0,0,1,.1.1c-.11.52-.67,2.72-.92,4.15-.1.52-.06.85.22,1.08a1.87,1.87,0,0,0,1.2.34,1,1,0,0,0,1.06-.71c.15-.47,1-4.27,1.14-4.77.11-.32.27-.22.37-.14s.91.51,1.26.7a15.29,15.29,0,0,0,4,1.49,1.32,1.32,0,0,0,1.24-.18A3.13,3.13,0,0,0,26,26.54c.13-.54,0-.81-.39-.95s-1.5-.35-2.66-.69a14.84,14.84,0,0,1-2.21-.77C20.54,24.07,20.54,24,20.65,23.89Zm-10.13.21c0,.24-.1.32-.34.37a18.57,18.57,0,0,1-2.46.31c-.11,0-.33,0-.22-.34A5.28,5.28,0,0,1,9.74,22a.55.55,0,0,1,.61.21A3.17,3.17,0,0,1,10.52,24.1ZM20.44,21c-.13.07-.4.27-.56.26s-.14-.09-.11-.22a29.46,29.46,0,0,1,1.34-4.14c.57-1.35,1.06-1.78,1.65-1.82a1.26,1.26,0,0,1,.77.23,1.41,1.41,0,0,1,.77,1.81,7,7,0,0,1-1,1.53A10.78,10.78,0,0,1,20.44,21Z"/><path class="cls-1" d="M59.64,13.6a5.56,5.56,0,0,1,2-.28c.51,0,1.4.15,2,.09a1.78,1.78,0,0,0,1.06-.33,1.57,1.57,0,0,0-.5-2.64,3.81,3.81,0,0,0-1.67-.1c-3.15.32-9.35,1.22-10.29,1.45a1.46,1.46,0,0,0-1.14.8,1.78,1.78,0,0,0,.16,1.35,1,1,0,0,0,1,.49c.32,0,2.6-.48,3-.25.17.09.12.2.1.45a42.92,42.92,0,0,1-1.26,5.72c-.56,2-1.91,5.79-2.47,7.77a.9.9,0,0,0,.53,1.13,2.2,2.2,0,0,0,1.25.28,1,1,0,0,0,.94-.71c.71-1.47,3.41-10.24,4.23-13.65A2,2,0,0,1,59.64,13.6Z"/><path class="cls-1" d="M63.42,16.62a3.13,3.13,0,0,0-1.35-.48c-.66-.09-.92.22-1,.91s-.34,1.6-.69,3.17c-.51,2.2-2,6.76-2.12,7.29s0,.85.53,1a4,4,0,0,0,1,.15A1.09,1.09,0,0,0,61,27.86c.27-.61,2.76-8.12,2.94-10.13A1.18,1.18,0,0,0,63.42,16.62Z"/><path class="cls-1" d="M92.5,8.08c0-.32-.37-.58-.75-.58a11.27,11.27,0,0,0-1.9.31c-3.53.79-11.38,2.92-12,3.09-.34.09-.72.25-.91,0-.52-.6-1.55-1.74-4.41-1.38a8.1,8.1,0,0,0-4.86,2.34,5.93,5.93,0,0,0-1.49,3A7.48,7.48,0,0,0,68,20.12c.67.93,1.65,2,2.38,2.92s.27,1.31-.46,1.56a30.5,30.5,0,0,1-3.34.74c-1.45.27-2.05.66-2,1.44a2.05,2.05,0,0,0,1.3,1.57,2.09,2.09,0,0,0,1.22.06,30,30,0,0,0,5-1.73c2-.88,2.43-2.41,1-4.35-.85-1.15-1.85-2.37-2.7-3.53-1-1.43-1.66-2.83-1-4.12a4.2,4.2,0,0,1,3.31-2.24,3.09,3.09,0,0,1,1.35,0c.59.2.7.62.9,1.27.41,1.32,1.3,1.45,1.84,1.34s.57-.33,1.06-.74a4.81,4.81,0,0,1,2.41-1.1c.1,0,.23.07.21.17-.06.25-1.23,3.44-1.73,4.94a37.86,37.86,0,0,0-1.31,4.57,21.74,21.74,0,0,0-.76,4.49c0,.8.19,1.07.54,1.25a1.91,1.91,0,0,0,1.13.17,1,1,0,0,0,.84-.83,47.82,47.82,0,0,1,2-7.85,56.51,56.51,0,0,1,2.67-6.89,3.07,3.07,0,0,1,.94-1.19,5.26,5.26,0,0,1,1.73-.73c1.78-.52,3.84-1,4.56-1.22a2.34,2.34,0,0,0,1.13-.6A2.42,2.42,0,0,0,92.5,8.08Z"/><path class="cls-1" d="M49.5,21c-.2-.06-.25-.1-.29-.33s0-6.18,0-8.16a7,7,0,0,0-.05-1,1.21,1.21,0,0,0-.38-.73,3.06,3.06,0,0,0-1-.65.9.9,0,0,0-1.16.23c-.17.17-.3.32-.49.48a2.41,2.41,0,0,1-.49.31,2.33,2.33,0,0,1-.63.21.82.82,0,0,0-.62.42c-.89,1.39-3.83,8.65-5.65,14.41-.12.37-.27.9-.29,1-.14.73,0,1,.41,1.3a1.8,1.8,0,0,0,2-.34c.45-.58.78-2.25,1.93-2.85a8.3,8.3,0,0,1,1.6-.55,14.06,14.06,0,0,1,1.61-.37.17.17,0,0,1,.19.18c0,.46-.05,1.61-.29,4a.84.84,0,0,0,.33.74,3.06,3.06,0,0,0,1.49.49c.62-.05.92-.44,1-1.43s.17-1.83.25-2.93c0-.34,0-1.3,0-1.55s0-.38.28-.48.37-.12.74-.25a.45.45,0,0,0,.3-.45,2.94,2.94,0,0,0-.34-1.19A.85.85,0,0,0,49.5,21Zm-3.12.33a.36.36,0,0,1-.29.36c-.73.16-1.76.39-2.67.53a.13.13,0,0,1-.13-.18c.65-1.91,2.52-6.68,2.73-7.08s.35-.22.36-.06C46.46,16.57,46.39,19.76,46.38,21.31Z"/><path class="cls-1" d="M36.4,18.3c-.48.17-1.87.7-2.55.94a10.33,10.33,0,0,1-1.67.44c-.19,0-.31-.11-.2-.52.22-.8.74-2.49,1-3.18s.44-.66,1.16-.82C35,15,36,14.82,37,14.66c.66-.11,1.47-.22,2.1-.34s.68-.44.5-1a3.5,3.5,0,0,0-.5-1.06,1.38,1.38,0,0,0-1.35-.45,10.6,10.6,0,0,0-1.35.23c-.75.16-1.6.39-2.33.5a3,3,0,0,1-.71.05c-.37,0-.67-.08-1.18-.12a2.24,2.24,0,0,0-1,.17c-.22.13-.22.28-.46.38a13.06,13.06,0,0,1-1.26.4c-.35.12-.53.35-.57.88a3,3,0,0,0,.27,1.23.65.65,0,0,0,.62.35c.15,0,.13.07.07.31-.85,3.19-2.13,8.25-2.41,9.66a5,5,0,0,0,0,3,2,2,0,0,0,1,1,4.56,4.56,0,0,0,2.08.16,23.82,23.82,0,0,0,4-1.2,22,22,0,0,0,2.1-.72c.35-.18.46-.54.31-1s-.4-1-.88-1.08a6.19,6.19,0,0,0-2.55.4,17.33,17.33,0,0,1-2.54.66c-.37,0-.78.11-.73-.65a14.75,14.75,0,0,1,.44-2.14c.21-.64.29-1.21.84-1.44,1.93-.79,3.81-1.31,5.77-2A.89.89,0,0,0,38,20a2.11,2.11,0,0,0-.2-1.3C37.52,18.19,37.13,18.06,36.4,18.3Z"/></svg>