<svg xmlns="http://www.w3.org/2000/svg" viewBox="0 0 51.83 40"><defs><style>.a{fill:#fff;}</style></defs><title>HBR_logo_gray</title><path class="a" d="M33.12,23.91c0,2.74-1.88,4.59-6,4.59H19.29v-17h7.56c3.61,0,5.55,1.64,5.55,4.45a3.75,3.75,0,0,1-3,3.83c2.4.5,3.71,2.1,3.71,4.13ZM24,18.57h1.82c1.21,0,2-.46,2-1.62s-.75-1.61-2-1.61H24v3.23Zm0,6h2.45c1.18,0,1.85-.52,1.85-1.5s-.67-1.5-1.85-1.5H24Z"/><path class="a" d="M46.65,28.5a3.31,3.31,0,0,1-.95-1.91l-.52-2.1c-.29-1.21-.78-1.44-1.88-1.44H41.83V28.5h-4.7v-17H44.4c3.81,0,6.43,1.49,6.43,5.34a4.09,4.09,0,0,1-3.6,4.31A3.15,3.15,0,0,1,50,23.64l.81,2.91a3.89,3.89,0,0,0,1,1.94H46.65Zm-4.82-9.27h1.82c1.64,0,2.37-.66,2.37-1.87s-.73-1.88-2.37-1.88H41.83Z"/><path class="a" d="M0,28.5v-17H4.73v6.32h5.83V11.5H15.3v17H10.56V21.92H4.73V28.5Z"/></svg>