<svg id="svg3956" xmlns="http://www.w3.org/2000/svg" viewBox="0 0 100 40"><defs><style>.cls-1{fill:#fff;}</style></defs><title>huffington-post</title><g id="layer1"><g id="g3909"><path id="path3321" class="cls-1" d="M39.71,8.1c0,1.45,0,1.66.83,1.73l.44,0c.08.06.06.3,0,.34-.79,0-1.26,0-1.81,0s-1,0-1.92,0a.24.24,0,0,1,0-.34l.5,0c.79-.07.86-.28.86-1.73V1.93c0-.43,0-.44-.41-.44H37.4a2.82,2.82,0,0,0-1.7.35,2.51,2.51,0,0,0-.62,1,.27.27,0,0,1-.36-.1A14.6,14.6,0,0,0,35.25.63a.34.34,0,0,1,.26,0c.08.44.54.43,1.17.43h5.59c.75,0,.87,0,1.08-.39.07,0,.22,0,.25,0a8.34,8.34,0,0,0-.21,2.1c-.05.11-.29.11-.36,0,0-.34-.14-.86-.35-1a2.75,2.75,0,0,0-1.6-.35h-1c-.41,0-.4,0-.4.47V8.1Z"/><path id="path3325" class="cls-1" d="M48.52,5.71c-.66,0-.69,0-.69.44V8.1c0,1.45.07,1.64.84,1.73l.4,0c.08.06.06.3,0,.35-.75,0-1.22,0-1.75,0s-1.06,0-1.6,0a.27.27,0,0,1,0-.35l.23,0c.77-.14.8-.28.8-1.73v-5c0-1.45-.1-1.68-.81-1.74l-.36,0c-.08-.06-.06-.3,0-.35.68,0,1.15,0,1.74,0s1,0,1.6,0c.08,0,.11.29,0,.35l-.26,0c-.8.08-.83.29-.83,1.74V4.72c0,.43,0,.44.69.44h3.95c.66,0,.69,0,.69-.44V3.13c0-1.45,0-1.66-.84-1.74l-.26,0c-.08-.06-.06-.3,0-.35.63,0,1.1,0,1.67,0s1,0,1.63,0c.08,0,.11.29,0,.35l-.29,0c-.8.08-.83.29-.83,1.74v5c0,1.45,0,1.63.83,1.73l.33,0c.08.06.06.3,0,.35-.66,0-1.13,0-1.67,0s-1.06,0-1.67,0a.27.27,0,0,1,0-.35l.26,0c.84-.14.84-.28.84-1.73V6.16c0-.41,0-.44-.69-.44H48.52Z"/><path id="path3329" class="cls-1" d="M58.91,3.13c0-1.44,0-1.64-.84-1.74l-.22,0c-.08-.06-.05-.3,0-.34.59,0,1.06,0,1.63,0h2.6A18.62,18.62,0,0,0,64,1a15.42,15.42,0,0,1,.22,1.84.27.27,0,0,1-.34,0c-.21-.65-.33-1.13-1-1.31a6.65,6.65,0,0,0-1.34-.08h-1c-.41,0-.41,0-.41.55V4.8c0,.39,0,.39.46.39h.8a5.13,5.13,0,0,0,1.17-.08c.17-.06.26-.14.33-.48l.11-.57a.27.27,0,0,1,.36,0c0,.33-.06.87-.06,1.39s.06,1,.06,1.33a.27.27,0,0,1-.36,0l-.12-.54a.59.59,0,0,0-.43-.53,4.62,4.62,0,0,0-1.06-.07h-.8c-.41,0-.46,0-.46.37V8c0,.73,0,1.2.26,1.44s.45.32,1.67.32a4,4,0,0,0,1.77-.21,3.48,3.48,0,0,0,1-1.34.26.26,0,0,1,.35.1,12,12,0,0,1-.62,1.92c-1.24,0-2.47,0-3.7,0H59.51c-.59,0-1.06,0-1.88,0a.27.27,0,0,1,0-.34l.46,0c.79-.07.86-.28.86-1.73v-5Z"/><path id="path3333" class="cls-1" d="M3,20.21c-.66,0-.69,0-.69.44V22.6c0,1.45.07,1.64.84,1.73l.4,0c.08.06.06.3,0,.35-.75,0-1.21,0-1.75,0s-1.06,0-1.6,0a.27.27,0,0,1,0-.35l.23,0c.77-.14.8-.28.8-1.73v-5c0-1.45-.1-1.68-.81-1.74l-.36,0c-.08-.06-.06-.3,0-.35.68,0,1.15,0,1.74,0s1,0,1.6,0c.08,0,.11.29,0,.35l-.26,0c-.8.08-.83.29-.83,1.74v1.59c0,.43,0,.44.69.44H7c.66,0,.69,0,.69-.44V17.63c0-1.45,0-1.66-.84-1.74l-.26,0c-.08-.06-.06-.3,0-.35.63,0,1.1,0,1.67,0s1,0,1.63,0c.08,0,.11.29,0,.35l-.29,0c-.8.08-.83.29-.83,1.74v5c0,1.45,0,1.63.83,1.73l.33,0c.08.06.06.3,0,.35-.66,0-1.13,0-1.67,0s-1.06,0-1.67,0a.27.27,0,0,1,0-.35l.26,0c.84-.14.84-.28.84-1.73V20.65c0-.41,0-.44-.69-.44Z"/><path id="path3337" class="cls-1" d="M20,19a10,10,0,0,0-.26-2.86.85.85,0,0,0-.69-.29l-.35,0a.25.25,0,0,1,0-.33c.53,0,1,0,1.57,0s1,0,1.45,0a.24.24,0,0,1,0,.33l-.33,0a.81.81,0,0,0-.69.33A12.36,12.36,0,0,0,20.55,19v1.56a4.81,4.81,0,0,1-1,3.3,3.64,3.64,0,0,1-2.64,1,3.92,3.92,0,0,1-2.58-.76c-.73-.61-1.08-1.62-1.08-3.26V17.62c0-1.44,0-1.67-.83-1.74l-.35,0c-.08-.06-.06-.29,0-.33.69,0,1.16,0,1.71,0s1,0,1.7,0c.08,0,.11.28,0,.33l-.33,0c-.8.07-.83.3-.83,1.74v3c0,2.22.69,3.69,2.8,3.69S20,22.71,20,20.61V19Z"/><path id="path3341" class="cls-1" d="M26,19.45c0,.37,0,.37.46.37h.94a5.21,5.21,0,0,0,1.17-.08c.15-.06.26-.12.35-.48l.12-.55a.29.29,0,0,1,.36,0c0,.33-.06.88-.06,1.39s.06,1,.06,1.34c-.06.08-.26.08-.36,0l-.14-.54a.66.66,0,0,0-.44-.52,4.68,4.68,0,0,0-1.06-.07h-.94c-.41,0-.46,0-.46.37V22.6c0,1.45,0,1.66.84,1.73l.47,0c.08.06.06.3,0,.35-.82,0-1.28,0-1.84,0s-1.08,0-1.73,0a.27.27,0,0,1,0-.35l.35,0c.8-.1.83-.28.83-1.73v-5c0-1.45,0-1.64-.83-1.74l-.22,0c-.08-.06-.06-.3,0-.35.58,0,1,0,1.6,0H28c.88,0,1.68,0,1.86,0,0,.63,0,1.3,0,1.82a.25.25,0,0,1-.33,0c-.11-.62-.28-1.13-1-1.31A5.87,5.87,0,0,0,27.26,16h-.84c-.41,0-.41,0-.41.55v2.91Z"/><path id="path3345" class="cls-1" d="M34.3,19.45c0,.37,0,.37.46.37h.94a5.21,5.21,0,0,0,1.17-.08c.15-.06.26-.12.35-.48l.12-.55a.29.29,0,0,1,.36,0c0,.33-.06.88-.06,1.39s.06,1,.06,1.34c-.06.08-.26.08-.36,0l-.14-.54a.66.66,0,0,0-.44-.52,4.68,4.68,0,0,0-1.06-.07h-.94c-.41,0-.46,0-.46.37V22.6c0,1.45,0,1.66.84,1.73l.47,0c.08.06.06.3,0,.35-.82,0-1.28,0-1.84,0s-1.08,0-1.73,0a.27.27,0,0,1,0-.35l.35,0c.8-.1.83-.28.83-1.73v-5c0-1.45,0-1.64-.83-1.74l-.22,0c-.08-.06-.06-.3,0-.35.58,0,1,0,1.6,0h2.54c.88,0,1.68,0,1.86,0,0,.63,0,1.3,0,1.82a.25.25,0,0,1-.33,0c-.11-.62-.28-1.13-1-1.31A5.88,5.88,0,0,0,35.56,16h-.84c-.41,0-.41,0-.41.55v2.91Z"/><path id="path3349" class="cls-1" d="M41.54,17.66c0-1.46,0-1.7-.84-1.77l-.34,0c-.08-.06-.06-.3,0-.35.69,0,1.16,0,1.74,0s1,0,1.71,0c.08,0,.11.29,0,.35l-.34,0c-.81.07-.84.3-.84,1.77v4.91c0,1.46,0,1.66.84,1.75l.34,0c.08.06.06.3,0,.35-.69,0-1.16,0-1.71,0s-1,0-1.74,0a.27.27,0,0,1,0-.35l.34,0c.81-.1.84-.29.84-1.75Z"/><path id="path3353" class="cls-1" d="M54.77,22.33c0,.41,0,2.06,0,2.42a.25.25,0,0,1-.26.15c-.17-.23-.57-.72-1.77-2.08l-3.2-3.64c-.37-.43-1.31-1.56-1.6-1.86h0a3.51,3.51,0,0,0-.07.9v3a10.83,10.83,0,0,0,.25,2.86c.08.15.36.23.7.26l.43,0a.25.25,0,0,1,0,.34c-.62,0-1.1,0-1.61,0s-1,0-1.44,0a.25.25,0,0,1,0-.34l.37,0c.32,0,.54-.12.61-.28a13.34,13.34,0,0,0,.18-2.84v-4a1.27,1.27,0,0,0-.3-1,1.49,1.49,0,0,0-.86-.33l-.23,0a.24.24,0,0,1,0-.34c.58,0,1.31,0,1.56,0a4.52,4.52,0,0,0,.63,0,19,19,0,0,0,2.36,3l1.34,1.51c1,1.06,1.63,1.84,2.28,2.5h0A1.4,1.4,0,0,0,54.2,22V19a9.71,9.71,0,0,0-.28-2.86c-.08-.12-.3-.21-.86-.28l-.23,0c-.1-.08-.08-.3,0-.34.63,0,1.1,0,1.63,0s1,0,1.42,0a.24.24,0,0,1,0,.34l-.19,0c-.44.07-.72.18-.77.29A11.12,11.12,0,0,0,54.77,19v3.3Z"/><path id="path3357" class="cls-1" d="M66,23.26c0,.55.08.88.33,1a.11.11,0,0,1,0,.17,3.14,3.14,0,0,0-.68.12,10.76,10.76,0,0,1-2.47.36,5.75,5.75,0,0,1-4.21-1.53,4.35,4.35,0,0,1-1.27-3.13A4.74,4.74,0,0,1,58.9,17a5.72,5.72,0,0,1,4.38-1.61,8.25,8.25,0,0,1,1.75.21,3.66,3.66,0,0,0,.86.12,15.49,15.49,0,0,0,.21,2c0,.11-.29.12-.37,0a2.52,2.52,0,0,0-2.83-2,3.66,3.66,0,0,0-3.85,4c0,2.65,1.37,4.73,4.14,4.73.86,0,1.37-.18,1.52-.41a1.54,1.54,0,0,0,.14-.79v-.55c0-1.16,0-1.24-.9-1.34l-.61-.07a.23.23,0,0,1,0-.35c.4,0,1.16,0,2,0,.54,0,1,0,1.46,0a.24.24,0,0,1,0,.35l-.22,0c-.58.07-.59.46-.59,1.16v.77Z"/><path id="path3361" class="cls-1" d="M73.27,22.6c0,1.45,0,1.66.83,1.73l.44,0c.08.06.06.3,0,.34-.79,0-1.26,0-1.81,0s-1,0-1.92,0a.24.24,0,0,1,0-.34l.5,0c.79-.07.86-.28.86-1.73V16.43c0-.43,0-.44-.41-.44H71a2.82,2.82,0,0,0-1.7.35,2.52,2.52,0,0,0-.62,1,.27.27,0,0,1-.36-.1,14.37,14.37,0,0,0,.53-2.06.34.34,0,0,1,.26,0c.08.44.54.43,1.17.43h5.59c.75,0,.87,0,1.08-.39.07,0,.22,0,.25,0a8.34,8.34,0,0,0-.21,2.1c-.05.11-.29.11-.36,0,0-.34-.14-.86-.35-1a2.75,2.75,0,0,0-1.6-.35h-1c-.41,0-.4,0-.4.47V22.6Z"/><path id="path3365" class="cls-1" d="M78.6,20.21a4.77,4.77,0,0,1,4.91-4.87,4.54,4.54,0,0,1,4.79,4.74,4.71,4.71,0,0,1-4.79,4.82,4.65,4.65,0,0,1-4.91-4.68m8.32.29c0-2.28-1-4.74-3.65-4.74-1.44,0-3.3,1-3.3,4,0,2,1,4.69,3.71,4.69,1.66,0,3.23-1.24,3.23-4"/><path id="path3369" class="cls-1" d="M98.77,22.33c0,.41,0,2.06,0,2.42a.25.25,0,0,1-.26.15c-.17-.23-.57-.72-1.77-2.08l-3.2-3.64c-.37-.43-1.31-1.56-1.6-1.86h0a3.51,3.51,0,0,0-.07.9v3a10.83,10.83,0,0,0,.25,2.86c.08.15.36.23.7.26l.43,0a.25.25,0,0,1,0,.34c-.62,0-1.1,0-1.61,0s-1,0-1.44,0a.25.25,0,0,1,0-.34l.37,0c.32,0,.54-.12.61-.28a13.35,13.35,0,0,0,.18-2.84v-4a1.26,1.26,0,0,0-.3-1,1.49,1.49,0,0,0-.86-.33l-.23,0a.24.24,0,0,1,0-.34c.58,0,1.31,0,1.56,0a4.52,4.52,0,0,0,.63,0,19,19,0,0,0,2.36,3l1.34,1.51c1,1.06,1.63,1.84,2.28,2.5h0A1.39,1.39,0,0,0,98.2,22V19a9.68,9.68,0,0,0-.28-2.86c-.08-.12-.3-.21-.86-.28l-.23,0c-.1-.08-.08-.3,0-.34.63,0,1.1,0,1.63,0s1,0,1.42,0a.24.24,0,0,1,0,.34l-.19,0c-.44.07-.72.18-.77.29A11.12,11.12,0,0,0,98.77,19v3.3Z"/><path id="path3373" class="cls-1" d="M34.21,37.1c0,1.45,0,1.63.91,1.73l.37,0a.27.27,0,0,1,0,.34c-.79,0-1.24,0-1.79,0s-1.08,0-1.68,0a.27.27,0,0,1,0-.34l.29,0c.8-.11.83-.28.83-1.73V32c0-1.17,0-1.41-.65-1.48l-.5-.05a.23.23,0,0,1,0-.35A21.64,21.64,0,0,1,34.69,30a5,5,0,0,1,2.65.55,2.39,2.39,0,0,1,1.1,2.07,2.34,2.34,0,0,1-1.38,2.2,4.67,4.67,0,0,1-1.91.41c-.1,0-.1-.25,0-.28a2.15,2.15,0,0,0,2-2.32A2,2,0,0,0,35,30.45c-.73,0-.75.06-.75.5V37.1Z"/><path id="path3377" class="cls-1" d="M40.43,34.71a4.77,4.77,0,0,1,4.91-4.87,4.54,4.54,0,0,1,4.79,4.74,4.71,4.71,0,0,1-4.79,4.82,4.65,4.65,0,0,1-4.91-4.68m8.32.29c0-2.28-1-4.74-3.65-4.74-1.44,0-3.3,1-3.3,4,0,2,1,4.69,3.71,4.69,1.66,0,3.23-1.24,3.23-4"/><path id="path3381" class="cls-1" d="M54.69,39.39a4.31,4.31,0,0,1-2.15-.51,6.38,6.38,0,0,1-.37-1.93c.07-.1.28-.12.33,0A2.51,2.51,0,0,0,54.87,39a1.57,1.57,0,0,0,1.73-1.59,2.07,2.07,0,0,0-1.13-1.93l-1.31-.86a2.94,2.94,0,0,1-1.49-2.37c0-1.31,1-2.37,2.82-2.37a5.3,5.3,0,0,1,1.28.18,1.85,1.85,0,0,0,.48.08,6,6,0,0,1,.25,1.68c-.06.08-.28.12-.35,0a1.81,1.81,0,0,0-1.88-1.56,1.45,1.45,0,0,0-1.64,1.53,2.17,2.17,0,0,0,1.17,1.7l1.1.69a3.11,3.11,0,0,1,1.73,2.65c0,1.52-1.15,2.55-2.94,2.55"/><path id="path3385" class="cls-1" d="M64.5,37.1c0,1.45,0,1.66.83,1.73l.44,0c.08.06.06.3,0,.34-.79,0-1.26,0-1.81,0s-1,0-1.92,0a.24.24,0,0,1,0-.34l.5,0c.79-.07.86-.28.86-1.73V30.93c0-.43,0-.44-.41-.44h-.76a2.82,2.82,0,0,0-1.7.35,2.52,2.52,0,0,0-.62,1,.27.27,0,0,1-.36-.1A14.6,14.6,0,0,0,60,29.63a.34.34,0,0,1,.26,0c.08.44.54.43,1.17.43h5.59c.75,0,.87,0,1.08-.39.07,0,.22,0,.25,0a8.38,8.38,0,0,0-.21,2.1.26.26,0,0,1-.36,0c0-.34-.14-.86-.34-1a2.75,2.75,0,0,0-1.6-.35h-1c-.41,0-.4,0-.4.47V37.1Z"/></g></g></svg>