<svg xmlns="http://www.w3.org/2000/svg" viewBox="0 0 66.3 40"><defs><style>.a{fill:#fff;}</style></defs><title>ign</title><path class="a" d="M35.42,21.77v-3.6h9.65A1.78,1.78,0,0,1,46.86,20v4.28a4,4,0,0,1-4,4H36.68a8.27,8.27,0,1,1,0-16.53h9.57v3.8H36.68a4.47,4.47,0,1,0,0,8.93h6.39V21.77ZM27.13,11.71H23.38v14.8a1.77,1.77,0,0,0,1.77,1.76h2V12.93S27.13,11.71,27.13,11.71Zm37.42,0h-2V24.47a.22.22,0,0,1,0,.1.26.26,0,0,1-.22.13.28.28,0,0,1-.23-.14L55.74,13.49a4,4,0,0,0-3.44-1.95h-.07a4,4,0,0,0-4,4v11A1.76,1.76,0,0,0,50,28.27h2V15.53a.28.28,0,0,1,0-.12.26.26,0,0,1,.22-.13.24.24,0,0,1,.22.13l6.35,11.14a3.9,3.9,0,0,0,3.4,1.89h.07a4,4,0,0,0,4-4v-11a1.75,1.75,0,0,0-1.75-1.76ZM4.49,16.37a6.67,6.67,0,0,1,1.89-1.89,24,24,0,0,1,.44-2.68,8.84,8.84,0,0,0-5,5A24.12,24.12,0,0,1,4.49,16.37Zm9.14-1.91s0,0,0,0a6.59,6.59,0,0,1,1.89,1.89,24,24,0,0,1,2.68.44,8.82,8.82,0,0,0-5-5A26,26,0,0,1,13.63,14.46ZM6.38,25.52a6.7,6.7,0,0,1-1.89-1.89h0a24.7,24.7,0,0,1-2.66-.45,8.84,8.84,0,0,0,5,5A22.75,22.75,0,0,1,6.38,25.52Zm9.16-1.89h0a6.59,6.59,0,0,1-1.89,1.89,0,0,0,0,1,0,0,24.54,24.54,0,0,1-.45,2.66,8.84,8.84,0,0,0,5-5,26,26,0,0,1-2.66.44ZM20,18.37a16.73,16.73,0,0,0-4.68-1.07,2.76,2.76,0,0,0-.46,0L12.41,20l2.46,2.75a3.17,3.17,0,0,0,.53,0A17.06,17.06,0,0,0,20,21.62V18.37ZM5.13,17.25a2.85,2.85,0,0,0-.46,0A16.93,16.93,0,0,0,0,18.37v3.25A16.91,16.91,0,0,0,4.6,22.7a2.75,2.75,0,0,0,.53,0L7.6,20,5.13,17.25Zm2.12,7.62a2.85,2.85,0,0,0,0,.46A16.87,16.87,0,0,0,8.37,30h3.25a17.14,17.14,0,0,0,1.09-4.6,2.77,2.77,0,0,0,.05-.53L10,22.41,7.25,24.87ZM8.37,10h3.25a17.14,17.14,0,0,1,1.09,4.6,2.74,2.74,0,0,1,.05.53L10,17.6,7.25,15.13a2.85,2.85,0,0,1,0-.46A17.07,17.07,0,0,1,8.37,10Z"/></svg>