<svg xmlns="http://www.w3.org/2000/svg" viewBox="0 0 52.07 40"><defs><style>.a{fill:#fff;}</style></defs><title>inc-logo</title><path class="a" d="M39.86,29c-.57-.09-1.14-.15-1.7-.26a8.28,8.28,0,0,1-3.94-1.88A7.2,7.2,0,0,1,32.77,25v3.62H23.4V24.82h1.77v-.31q0-1.79,0-3.58A1.72,1.72,0,0,0,23.27,19a2.41,2.41,0,0,0-2.57,2.58q0,1.45,0,2.9v.3h1.81v3.84H12.94V24.81h1.71V19H12.93V15.17h7.55v2.64a2.61,2.61,0,0,0,.22-.21,6.27,6.27,0,0,1,5.43-2.33,6.8,6.8,0,0,1,2.93.64,3.62,3.62,0,0,1,2.09,3.14c.08,1.24,0,2.49.05,3.73,0,.66,0,1.32,0,2h1.5l-.09-.26a6.72,6.72,0,0,1,.55-5.91A6.39,6.39,0,0,1,36.57,16a10.84,10.84,0,0,1,7.82-.09A5.56,5.56,0,0,1,48,20.75s0,.05,0,.1l-5.15.57c-.06-.42-.1-.83-.18-1.23a3.36,3.36,0,0,0-.29-.81A1.63,1.63,0,0,0,41,18.47a2.13,2.13,0,0,0-2.55,2,9.81,9.81,0,0,0,0,3.49,2.32,2.32,0,0,0,3.72,1.35,1.85,1.85,0,0,0,.7-1.25c0-.12,0-.23,0-.36h5.16c0,.24-.05.47-.11.68a5.46,5.46,0,0,1-4.23,4.23c-.63.17-1.28.22-1.92.33l-.27,0Z"/><path class="a" d="M12.31,11q0,1.88,0,3.76c0,.11,0,.22,0,.36l-.28,0c-.58,0-1.17,0-1.75,0-.2,0-.28,0-.28.26q0,4.59,0,9.17c0,.22.08.25.27.25h1.83c.14,0,.22,0,.22.19,0,1.18,0,2.35,0,3.53a.7.7,0,0,1,0,.12H.25l-.25,0V24.83H2.29V15.14H2l-2,0V11Z"/><path class="a" d="M52.07,26.86a2.52,2.52,0,0,1-.65,1.24,2.19,2.19,0,0,1-3.64-2.17A2.2,2.2,0,0,1,52,26c0,.06,0,.11.05.17Z"/></svg>