<svg xmlns="http://www.w3.org/2000/svg" viewBox="0 0 103.31 40"><defs><style>.a{fill:#fff;}</style></defs><title>kotaku</title><path class="a" d="M93.65,13.34l.58,8.84L90,22.26l-.49-9-3.18-.09.46,10.34a2.51,2.51,0,0,0,2.33,2.6l6.34-.24a2.23,2.23,0,0,0,1.83-2.62l-.74-9.8-3-.08Zm6.28.29a2.48,2.48,0,0,0-2.08-2.4l-1,0,.35,4.75,2.87,0-.19-2.36Zm3.18.08a2.45,2.45,0,0,0-2-2.36l-.92,0,.39,4.67,2.77,0-.21-2.32ZM73.77,12.8l.09,13.87,1.24,0a2.73,2.73,0,0,0,2.43-2.91l-.17-10.81-3.59-.1Zm4,4.95,3.85,0A2.33,2.33,0,0,1,84,19.2l4.64,9.87c-.52.66-3.39.39-4.58-2.26l-2.46-5.38h-.4a3.56,3.56,0,0,1-3.35-3.7Zm-7.67-5-6-.16a3,3,0,0,0-3.14,4l7.82.07,0,6-5.39.1,0-1.06,1.58,0a3,3,0,0,0,3.05-4h0l-5.89,0a3,3,0,0,0-2.89,2.94l0,.52-.11,3a2.73,2.73,0,0,0,2.76,3l8.19-.31a2.87,2.87,0,0,0,2.59-3l0-8.36a2.69,2.69,0,0,0-2.5-2.77ZM50.68,24.36a2.8,2.8,0,0,0,2.89,3.07l1.51-.06.5-10.25-4.45,0-.45,7.26Zm6.62-7.85a3.15,3.15,0,0,0,3.29-4.08l-10.1-.28c-3.22-.09-3.82,2.55-3.37,4.26l10.18.09ZM43.29,12l-9.47-.26c-3.69-.1-4.92,2.72-4.49,4.56l12,.11-.61,6.81-6.9.13L34.48,17l-5.32,0-1,8a3,3,0,0,0,3.27,3.36l10.52-.4a3.78,3.78,0,0,0,3.56-3.39l.71-9.42A2.91,2.91,0,0,0,43.29,12ZM9.54,11.68,6.19,29.33l2.1-.08a5,5,0,0,0,4.78-3.76l2.36-13.65ZM15,17.93l6.3,0c2,0,2.84.71,3.4,1.81l3.92,9.33c-1,.85-5.61.56-6.92-2.79l-1.43-3.72h-.66c-2.18,0-5.28-1.54-4.61-4.65ZM7.66,16.55l.92-4.9-3.2-.09C.92,11.44-.31,14.49.06,16.48l7.6.07Zm11,1.1,8-1.74c1.5-.92,2.14-4.23,1.08-5.2L20,12.58a3.49,3.49,0,0,0-1.33,5.07Zm61.16-.19,4.22-2.3a3.23,3.23,0,0,0,.62-4.66l-4.56,2.88c-1.62,1.1-1.38,2.74-.29,4.08Z"/></svg>