<svg xmlns="http://www.w3.org/2000/svg" viewBox="0 0 105 40"><defs><style>.a{fill:#fff;}</style></defs><title>mashable-01</title><path class="a" d="M4.55,17.08V28.66H0V11H6.19a.16.16,0,0,1,.18.12L10,20.6l.05.14.06-.14,3.34-8.86c.08-.22.16-.43.25-.65a.16.16,0,0,1,.11-.08H20v.13q0,8.69,0,17.38c0,.1,0,.15-.13.15H15.49V17.07h0l-.06.14L11.09,28.53a.18.18,0,0,1-.21.14H9.16A.17.17,0,0,1,9,28.54L4.63,17.22l-.06-.14Z"/><path class="a" d="M77,27.24v1.43H73V11H77v6.32l0,0a.21.21,0,0,1,0-.07,4.63,4.63,0,0,1,3.55-1.73A5.18,5.18,0,0,1,84.4,16.9a5.94,5.94,0,0,1,1.71,2.84A9.33,9.33,0,0,1,86.43,23a7.83,7.83,0,0,1-.64,2.73,5.18,5.18,0,0,1-3.48,3.06,5.06,5.06,0,0,1-3.44-.21,5.13,5.13,0,0,1-1.68-1.22l-.13-.14Zm0-4.94c0,.55,0,1.11,0,1.66a.65.65,0,0,0,.25.57l0,0a3.31,3.31,0,0,0,1.9.83A2.69,2.69,0,0,0,82,23.86a3.8,3.8,0,0,0,.28-2.33,2.75,2.75,0,0,0-3.35-2.31,3.19,3.19,0,0,0-1.74,1,.38.38,0,0,0-.11.28C77,21.08,77,21.69,77,22.29Z"/><path class="a" d="M49.87,28.66H45.81V11h4.05v6.41l.09-.07a5.52,5.52,0,0,1,3.11-1.67A6.09,6.09,0,0,1,56,15.8a3.33,3.33,0,0,1,2.44,2.78,5.8,5.8,0,0,1,.09,1q0,4.44,0,8.88v.17H54.45v-.18q0-3.64,0-7.28a3.35,3.35,0,0,0-.08-.71A1.6,1.6,0,0,0,52.9,19.2,3.13,3.13,0,0,0,50,20.29a.37.37,0,0,0-.1.27q0,4,0,7.92Z"/><path class="a" d="M67.47,22.09c0-.24,0-.5,0-.75a4.66,4.66,0,0,0-.06-.9,1.72,1.72,0,0,0-1.18-1.21A4,4,0,0,0,64.32,19a5.66,5.66,0,0,0-3,1.3l-.06,0-.38-.71-1.08-2c0-.09,0-.13,0-.19a8.12,8.12,0,0,1,3.18-1.58,9.87,9.87,0,0,1,4.95,0,4.69,4.69,0,0,1,2.38,1.36,4.18,4.18,0,0,1,1,2.16,8,8,0,0,1,.12,1.29c0,2.61,0,5.21,0,7.82v.17H67.48V27.44l-.06,0A4.62,4.62,0,0,1,65,28.8a5.22,5.22,0,0,1-3,0,4,4,0,0,1-2.69-2.46,4.3,4.3,0,0,1,.36-3.85,3.56,3.56,0,0,1,2.16-1.56,6,6,0,0,1,4.81.59A6.88,6.88,0,0,1,67.47,22.09Zm0,2.73a1,1,0,0,1,0-.19.72.72,0,0,0-.41-.78l-.15-.09a3.17,3.17,0,0,0-1.23-.38,3.07,3.07,0,0,0-1.69.22,1.33,1.33,0,0,0-.78,1.62,1.39,1.39,0,0,0,.9.91,3.3,3.3,0,0,0,2.09.06,2.5,2.5,0,0,0,1.05-.54.52.52,0,0,0,.22-.49A2.12,2.12,0,0,1,67.47,24.82Z"/><path class="a" d="M29.08,22.13c0-.07,0-.11,0-.15,0-.34,0-.67,0-1A1.72,1.72,0,0,0,28,19.27,3.79,3.79,0,0,0,26.18,19,5.6,5.6,0,0,0,23,20.3l-.1.07-1.51-2.83.24-.2a8.4,8.4,0,0,1,3.58-1.59,10,10,0,0,1,4.08,0,5.24,5.24,0,0,1,2.26,1A4.09,4.09,0,0,1,33,19.32a7.76,7.76,0,0,1,.13,1.36c0,2.61,0,5.22,0,7.83v.15H29.09V27.45l0,0-.2.21a4.87,4.87,0,0,1-2.31,1.18,5.22,5.22,0,0,1-2.94-.09,4.17,4.17,0,0,1-2.43-2,3.93,3.93,0,0,1-.45-1.67A4.55,4.55,0,0,1,21.07,23a3.69,3.69,0,0,1,2.3-2,5.72,5.72,0,0,1,2.49-.24,6,6,0,0,1,2,.54A3.62,3.62,0,0,1,29,22Zm0,2.69a.9.9,0,0,1,0-.18.74.74,0,0,0-.44-.81l-.05,0a3.44,3.44,0,0,0-2.8-.28,1.43,1.43,0,0,0-.91.76,1.32,1.32,0,0,0,.72,1.79,3.19,3.19,0,0,0,2.11.14,2.53,2.53,0,0,0,1.17-.59.48.48,0,0,0,.2-.45A2.43,2.43,0,0,1,29.08,24.82Z"/><path class="a" d="M105,23.62H95.91c0,.07,0,.14.06.2a2.74,2.74,0,0,0,2,1.75,4.71,4.71,0,0,0,2.67-.11,4.62,4.62,0,0,0,1.61-.83L104,27.29l-.28.23a6.92,6.92,0,0,1-2.58,1.16,9.81,9.81,0,0,1-3.43.25A6.77,6.77,0,0,1,93.5,27a6.11,6.11,0,0,1-1.66-3.23,7.05,7.05,0,0,1,.35-4.08,6.32,6.32,0,0,1,4.7-3.94,6.87,6.87,0,0,1,4,.26,6,6,0,0,1,3.47,3.39,7.7,7.7,0,0,1,.61,2.76C105,22.63,105,23.11,105,23.62Zm-3.89-2.79s0,0,0-.06a.86.86,0,0,0,0-.09,2.08,2.08,0,0,0-1.31-1.6,3.57,3.57,0,0,0-1.83-.2,2.4,2.4,0,0,0-1.49.71,2.34,2.34,0,0,0-.6,1.23Z"/><path class="a" d="M43.19,20.14A5.19,5.19,0,0,0,41.27,19a5.59,5.59,0,0,0-2-.29,1.91,1.91,0,0,0-1,.26,1.14,1.14,0,0,0-.34.34.41.41,0,0,0,.17.63,2,2,0,0,0,.54.21c.62.13,1.24.24,1.87.36a9.74,9.74,0,0,1,2.67.8A3.61,3.61,0,0,1,45,23.15a3.94,3.94,0,0,1,.3,1.45,3.76,3.76,0,0,1-2.36,3.71,7,7,0,0,1-2.49.64,10.66,10.66,0,0,1-4.9-.71,7.15,7.15,0,0,1-1.92-1.11c-.1-.08-.13-.14-.05-.26.52-.87,1-1.75,1.54-2.63l.08-.13.13.1a8.22,8.22,0,0,0,3.56,1.54,4,4,0,0,0,1.74,0,1.64,1.64,0,0,0,.5-.22.74.74,0,0,0,.24-.31.52.52,0,0,0-.24-.71,2.89,2.89,0,0,0-1-.32c-.78-.15-1.56-.27-2.34-.43a6.65,6.65,0,0,1-2.14-.79A3.35,3.35,0,0,1,33.94,20a3.85,3.85,0,0,1,2.17-3.68,6,6,0,0,1,2.41-.71,9.35,9.35,0,0,1,3.77.4,8.63,8.63,0,0,1,2.37,1.18c.06,0,.09.08,0,.16l-1.48,2.74Z"/><path class="a" d="M87,11H91.1V28.66H87Z"/></svg>