<svg id="svg2" xmlns="http://www.w3.org/2000/svg" viewBox="0 0 86.32 40"><defs><style>.cls-1{fill:#fff;}</style></defs><title>Nature_journal_logo</title><g id="g6"><path id="path8" class="cls-1" d="M37.79,10.76a20.25,20.25,0,0,1-4.41,4,.28.28,0,0,0-.14.33c0,.15.22.18.9.18,1.31,0,1.22-.53,1.13,5.79-.06,4.73,0,5.47.11,6.13A3.18,3.18,0,0,0,37,29.63c.37.2.6.23,1.6.22a4.1,4.1,0,0,0,1.91-.29c1.34-.54,2.93-1.73,2.93-2.18,0-.27,0-.27-.94.07a5,5,0,0,1-2.71.28,1.94,1.94,0,0,1-1.13-1.44c-.07-.35-.11-2.12-.1-4.82,0-4.2.08-6.43.24-6.59a35.53,35.53,0,0,1,4.81-.09,1.65,1.65,0,0,1,.54.21c.19.15.2.36.2,5.81s0,5.65.23,6.28A4.28,4.28,0,0,0,47,29.62a6.43,6.43,0,0,0,3.61,0,10.85,10.85,0,0,0,2.71-1.76c.47-.42.86-.67,1-.64s.15.33.15,1.39,0,1.34.17,1.4A7.05,7.05,0,0,0,56,29.61c.71-.24,2-.63,2.89-.85a9.14,9.14,0,0,0,1.67-.52c.17-.29-.15-.39-1.09-.38s-1,0-1.23-.26S58,27.19,57.89,26s-.08-4.39.13-9.39c.09-2.33.08-2.65-.07-2.9l-.17-.26-2.73.07c-3,.07-3.39.11-3.46.32s.11.39,1.14.55a4.1,4.1,0,0,1,1.27.33c.42.27.5.9.57,4.41s-.07,5.9-.35,6.66a3.41,3.41,0,0,1-1.74,1.56,5.19,5.19,0,0,1-3.26,0A2.41,2.41,0,0,1,48,26.12c-.24-.44-.24-.5-.24-6.51a50,50,0,0,0-.12-6.21c-.11-.11-.88-.11-3.73,0-4.94.19-5,.19-5.09-.09a10.14,10.14,0,0,1,0-1.59c.08-1.4,0-1.71-.33-1.71A3,3,0,0,0,37.79,10.76Z"/><path id="path10" class="cls-1" d="M24.88,12.75a7.43,7.43,0,0,0-5.35,3.75c-.5,1-.48,1.74.06,2a1.61,1.61,0,0,0,1.55-.23c.45-.28.62-.56.94-1.6a4.58,4.58,0,0,1,2.06-2.88,3.4,3.4,0,0,1,2.43-.06c.83.47,1.05,1.29,1,3.74-.06,1.92-.22,2.5-.77,2.91-.18.12-1.15.66-2.18,1.19-3,1.55-4.1,2.41-4.74,3.71a3.22,3.22,0,0,0,1.27,4.33,4.34,4.34,0,0,0,3,0,6.13,6.13,0,0,0,2.8-2.13c.11-.15.24-.28.31-.28a1.31,1.31,0,0,1,.37.61c.84,2,3.4,2.4,5.24.82A3.21,3.21,0,0,0,33.84,27c0-.39-.2-.4-.6-.05-1,.87-2.11.89-2.56.05-.23-.44-.24-2-.09-8.07.09-3.72.08-3.87-.12-4.35a2.86,2.86,0,0,0-1.36-1.43A8.41,8.41,0,0,0,24.88,12.75Zm2.32,9c.15.24.17.47.11,1.63-.13,2.3-.42,3.19-1.31,4a2.11,2.11,0,0,1-1.8.73c-1.47-.17-2.14-1.82-1.38-3.38A7.28,7.28,0,0,1,26,21.82C26.8,21.37,27,21.36,27.2,21.72Z"/><path id="path12" class="cls-1" d="M79.05,12.75a10.43,10.43,0,0,0-3,1.11,8.89,8.89,0,0,0-3.89,5.44,11.62,11.62,0,0,0,0,4.7,7.26,7.26,0,0,0,7.63,5.89A7,7,0,0,0,83.2,28.8c1.4-.82,3.27-2.84,3.08-3.34-.1-.26-.24-.2-.92.43a5.31,5.31,0,0,1-4,1.65,5,5,0,0,1-4.95-3,7.84,7.84,0,0,1-.77-3.63l-.06-1.49.27-.29c.27-.28.33-.29,1.43-.29.63,0,2.71.06,4.63.13,4.61.17,4.54.19,4.42-1.41a5.73,5.73,0,0,0-4.12-4.59A9.23,9.23,0,0,0,79.05,12.75Zm2.25.95A2.37,2.37,0,0,1,83,16.07c-.11.79-.79,1.3-2.14,1.6a15.67,15.67,0,0,1-4.53,0C76,17.56,76,17.54,76,17a4.54,4.54,0,0,1,1.86-2.87A4.44,4.44,0,0,1,81.3,13.7Z"/><path id="path14" class="cls-1" d="M4.59,13.46a13.61,13.61,0,0,1-3.21,2.1c-.6.26-.8.4-.8.56s.13.23.64.33c.8.14,1.1.31,1.26.68a91.78,91.78,0,0,1,.08,9.44c-.16,1.81-.22,1.9-1.57,2.25-.86.22-1.06.34-1,.57s.85.14,4.19.14c4.05,0,4.14,0,4.14-.22s-.17-.27-.79-.5c-1-.38-1.24-.64-1.4-1.36a66.35,66.35,0,0,1-.12-8c.17-1.81.37-2.5,1-3.17a3.45,3.45,0,0,1,3.3-1.2,2.85,2.85,0,0,1,2.55,2.09c.16.53.19,1.19.19,5.51,0,4.53,0,4.93-.2,5.3a2.15,2.15,0,0,1-1.61,1c-.65.14-.86.26-.78.46a54.9,54.9,0,0,0,8.41,0c.19-.2,0-.33-.89-.58s-1.11-.43-1.29-.87c-.08-.18-.14-2.2-.19-5.78-.06-5.27-.07-5.54-.29-6.23a4.39,4.39,0,0,0-2.68-2.76,6.64,6.64,0,0,0-3.67,0,7.42,7.42,0,0,0-2.6,1.75,3.94,3.94,0,0,1-1,.77c-.08,0-.14-.5-.18-1.35a9.61,9.61,0,0,0-.13-1.46C5.75,12.62,5.44,12.76,4.59,13.46Z"/><path id="path16" class="cls-1" d="M65.24,13.25A16.31,16.31,0,0,1,62,15.45a3.39,3.39,0,0,0-1.07.71c0,.1.23.2.64.29a4.77,4.77,0,0,1,.83.21c.61.26.76,1.65.68,6.6,0,2.11-.1,4-.16,4.27-.16.64-.5.94-1.35,1.19-1,.31-1.22.4-1.22.59s0,.17.08.18l4.69,0c3.69,0,4.64,0,4.72-.13s0-.35-1-.56c-1.29-.28-1.89-.56-2.13-1s-.19-.74-.22-4.26c0-3.77,0-5.48.3-6.44a2.88,2.88,0,0,1,.56-.91c.43-.49.44-.5,1-.46a1.6,1.6,0,0,1,1,.4,3.19,3.19,0,0,0,1.59,1,2,2,0,0,0,2-1.14,2.45,2.45,0,0,0-.51-2.52,2,2,0,0,0-1.78-.58c-1.1.07-1.69.41-2.93,1.73-.57.6-1,1-1.11,1a3.45,3.45,0,0,1-.12-1.28,10.37,10.37,0,0,0-.06-1.36C66.23,12.61,65.8,12.74,65.24,13.25Z"/></g></svg>