<svg id="svg2" xmlns="http://www.w3.org/2000/svg" viewBox="0 0 100 40"><defs><style>.cls-1{fill:#fff;}</style></defs><title>newscientist</title><g id="g10"><g id="g12"><path id="path14" class="cls-1" d="M27.7,26.83,26.34,21,25,26.83H22.09l-2.41-11h3l1.06,5.55,1.18-5.55h2.81L29,21.34l1.17-5.55h3l-2.51,11H27.7"/><path id="path16" class="cls-1" d="M51.67,26.83h3.12V16.13H51.67Z"/><path id="path18" class="cls-1" d="M81.67,26.84h3.12V16.14H81.67Z"/><path id="path20" class="cls-1" d="M61.91,19.59c0-1.45-.65-1.74-1.7-1.74s-1.59.55-1.65,1.84a3.29,3.29,0,0,0,0,.61h3.37v-.72ZM58.54,22.3c0,1.1.18,1.77.75,2a4.15,4.15,0,0,0,1.46.24,10.42,10.42,0,0,0,3.71-.65v2.5a12.8,12.8,0,0,1-4.07.64A5.32,5.32,0,0,1,56.68,26c-1-.88-1.28-2.36-1.28-4.62,0-2,.2-3.34.91-4.34s1.95-1.51,4-1.51S63.31,16,64,17a6.9,6.9,0,0,1,.8,3.91v1.46l-6.07,0h-.15"/><path id="path22" class="cls-1" d="M48.1,27.11c-3.76,0-4.78-1.46-4.78-5.78,0-4.54,1.11-5.79,5-5.79a7,7,0,0,1,2.7.54v2.68a6.7,6.7,0,0,0-2.66-.64c-1.09,0-1.67.28-1.78,1.1a15.07,15.07,0,0,0-.14,2.12,13.35,13.35,0,0,0,.14,1.92c.14.82.71,1.25,1.81,1.25A8.84,8.84,0,0,0,51,24.12v2.64a10.09,10.09,0,0,1-2.92.35"/><path id="path24" class="cls-1" d="M51.67,14.58v.95h3.12v-2a5.47,5.47,0,0,0-3.12,1"/><path id="path26" class="cls-1" d="M81.67,14.6v1h3.12v-2a5.45,5.45,0,0,0-3.12,1"/><path id="path28" class="cls-1" d="M71.59,15.68a5.3,5.3,0,0,0-3,1.07l-.3-.91a5.34,5.34,0,0,0-2.87,1v10h3.09V19.42a5.13,5.13,0,0,1,2-.71c.89,0,1.12.76,1.12,1.47v6.66h3v-8.1a2.91,2.91,0,0,0-3-3.06"/><path id="path30" class="cls-1" d="M17,19.64c0-1.44-.65-1.74-1.7-1.74s-1.59.55-1.65,1.85a3.29,3.29,0,0,0,0,.61H17Zm-3.37,2.73c0,1.09.18,1.77.75,2a4.15,4.15,0,0,0,1.46.24A10.42,10.42,0,0,0,19.53,24v2.5a12.56,12.56,0,0,1-4.07.65,5.3,5.3,0,0,1-3.71-1.07c-1-.89-1.29-2.37-1.29-4.63,0-2,.21-3.36.92-4.36s1.95-1.51,4-1.51,3,.48,3.69,1.42a6.94,6.94,0,0,1,.8,3.92v1.46H13.61"/><path id="path32" class="cls-1" d="M37.83,24.09c1.44-.05,1.59-.85,1.58-1.19,0-1-1-1.28-2.67-1.86l-.1,0c-1.57-.54-3.06-1.06-3.09-3.51a4.62,4.62,0,0,1,1-3.51,4.76,4.76,0,0,1,3.5-1.13,11.4,11.4,0,0,1,4.1.73v3.11a9.38,9.38,0,0,0-3.9-.9c-1,0-1.49.39-1.48,1.17s.65.95,1.62,1.28a16.35,16.35,0,0,1,2,.81c1.39.73,2.31,1.37,2.35,3.54a4.41,4.41,0,0,1-1.07,3.28,5.16,5.16,0,0,1-3.8,1.22,12.75,12.75,0,0,1-4.34-.81V23.23a8.3,8.3,0,0,0,4.28.86"/><path id="path34" class="cls-1" d="M89.28,27.09a11.67,11.67,0,0,1-3.88-.68V23.74a7.72,7.72,0,0,0,3.87.76c.91,0,1.28-.39,1.27-.84,0-.71-.85-.93-2.39-1.41s-2.73-.89-2.76-2.89c0-1.82.49-3.8,4.06-3.8a10.6,10.6,0,0,1,3.68.62v2.71a8.78,8.78,0,0,0-3.55-.78c-.9,0-1.18.32-1.17.82,0,.8,1.28.73,3.11,1.57,1.28.61,2.07,1.16,2.1,2.91,0,2.48-1.42,3.68-4.34,3.68"/><path id="path36" class="cls-1" d="M79.51,24.42c-1.31,0-1.14-1.07-1.14-1.84s0-4,0-4H81V16.14H78.37V13.05a5.43,5.43,0,0,0-3.12,1.08v2s-.26.14-.39.23l-.19.14.59,2v5.17c0,3,1.38,3.37,3,3.37A10.84,10.84,0,0,0,81,26.71V24.12a4,4,0,0,1-1.5.3"/><path id="path38" class="cls-1" d="M98.5,24.46c-1.31,0-1.14-1.07-1.14-1.84s0-4.05,0-4.05H100v-2.4H97.35V13.09a5.32,5.32,0,0,0-3.12,1.08v2l-.38.24-.19.14.58,2v5.16c0,3,1.38,3.38,3,3.38a10.4,10.4,0,0,0,2.75-.39V24.16a4.05,4.05,0,0,1-1.5.3"/><path id="path40" class="cls-1" d="M6.73,13.07v7.28L3.09,13.1A5.46,5.46,0,0,0,0,14.16V26.83H3.16V19.92l3.62,6.92H9.85V13.07H6.73"/></g></g></svg>