<svg xmlns="http://www.w3.org/2000/svg" viewBox="0 0 100 40"><defs><style>.a{fill:#fff;}</style></defs><title>newsweek</title><path class="a" d="M14.84,15.13H13.42V27.34h-2.6L4.47,19v5.59H5.89v2.73H0V24.61H1.42V15.13H0V12.4H4.45l5.91,7.76v-5H9V12.4h5.86l0,2.73ZM24.22,22a5.16,5.16,0,0,1,0,.68H17.77c-.18,2.07.61,2.68,1.8,2.68a1.64,1.64,0,0,0,1.74-1.67h2.78c-.08,1.82-1,3.9-4.68,3.9S14,24.94,14,22a5.22,5.22,0,0,1,5.31-5.46c3.38,0,4.88,2.33,4.88,5.46m16-2.71h-.93l-2.38,8H33.72l-1.49-4.4-1.34,4.4H27.65l-2.68-8H24V16.6h5.59v2.7H28.21l1.47,4.28,1.92-7h1.72l2.35,7,1.26-4.28H35.52V16.6h4.67v2.7Zm3.92.13c0,.38.3.63,1.37,1l1.51.5c1.39.46,3.06,1.49,3.06,3.39,0,2.22-1.67,3.29-3.72,3.29a5.06,5.06,0,0,1-3.26-1.17v.89H40.34V23.63H43a2.06,2.06,0,0,0,2.15,1.84c.81,0,1.19-.35,1.19-.76s-.3-.78-1.64-1.21l-1.34-.45c-1.37-.43-2.88-1.44-2.88-3.24a3.42,3.42,0,0,1,3.61-3.31,3.76,3.76,0,0,1,3,1l0-.83H49.8V20H47c0-.91-.94-1.32-1.82-1.32-.71,0-1,.33-1,.76m22.32-.13H65.5l-2.38,8H60l-1.49-4.4-1.34,4.4H53.89l-2.68-8h-.93V16.6h5.58v2.7H54.45l1.47,4.28,1.92-7h1.72l2.35,7,1.26-4.27H61.75V16.6h4.68ZM76.34,22a5.31,5.31,0,0,1,0,.69H69.89c-.17,2.07.61,2.68,1.8,2.68a1.64,1.64,0,0,0,1.74-1.67h2.78c-.07,1.82-1,3.89-4.67,3.89S66.15,24.92,66.15,22a5.22,5.22,0,0,1,5.31-5.46c3.39,0,4.88,2.33,4.88,5.46m10.59,0c0,.23,0,.45,0,.68H80.49c-.18,2.07.6,2.68,1.79,2.68A1.64,1.64,0,0,0,84,23.65H86.8c-.07,1.82-1,3.9-4.67,3.9S76.74,24.89,76.74,22a5.22,5.22,0,0,1,5.31-5.46c3.39,0,4.88,2.32,4.88,5.46m11.63,5.36H95.32L92,22.94l-1.09.81v.86h1v2.71h-5V24.61h.94V15.08H86.4V12.4h4.5V21l2.25-1.64H91.73V16.6h6v2.73h-.94L94.49,21.1l2.7,3.51h1.42l0,2.71Zm1.44-.61a.4.4,0,0,1-.1.3.47.47,0,0,1-.23.23.71.71,0,0,1-.33.1.39.39,0,0,1-.3-.1.47.47,0,0,1-.23-.23.71.71,0,0,1-.1-.3.4.4,0,0,1,.1-.3.51.51,0,0,1,.23-.23.71.71,0,0,1,.3-.1.48.48,0,0,1,.33.1.7.7,0,0,1,.33.53m-.25.36a.53.53,0,0,0,.15-.36.45.45,0,0,0-.15-.35.51.51,0,0,0-.36-.15.5.5,0,0,0-.35.15.49.49,0,0,0-.15.35.49.49,0,0,0,.15.36.5.5,0,0,0,.35.15.51.51,0,0,0,.36-.15m-.26-.31s.05,0,.05,0,.06.05.06.07a1.34,1.34,0,0,1,.1.21h-.21c-.07-.13-.1-.21-.12-.23s-.05-.05-.08-.05h0v.28h-.15v-.66h.3a.24.24,0,0,1,.18.05c.05.05.05.07.05.15a.25.25,0,0,1-.05.13s-.06,0-.11,0m0-.12a.13.13,0,0,0,0-.08s0,0,0-.08a.15.15,0,0,0-.1,0h-.08v.18h.08s.07,0,.1,0m-19-5.77H84a1.88,1.88,0,0,0-1.72-2.12,2,2,0,0,0-1.79,2.12m-10.6,0h3.52a1.88,1.88,0,0,0-1.72-2.13c-.84,0-1.72.71-1.8,2.13m-52.12,0h3.51a1.87,1.87,0,0,0-1.71-2.12c-.84,0-1.72.71-1.8,2.12"/></svg>