<svg xmlns="http://www.w3.org/2000/svg" viewBox="0 0 65.47 40"><defs><style>.a{fill:#fff;}</style></defs><title>people</title><path class="a" d="M42.91,33H35.45V30.24A2.19,2.19,0,0,0,37,28c0-1.58,0-3.16.05-4.74a1.13,1.13,0,0,0,0-.15,2.38,2.38,0,0,0-.1.24,8.18,8.18,0,0,1-2,3.26,5.2,5.2,0,0,1-7.57,0,8.61,8.61,0,0,1-2.43-5l-.07-.46H18.15a5.08,5.08,0,0,0,.49,3s0,.06.05.09a1.38,1.38,0,0,0,1.23.76,1.35,1.35,0,0,0,1.14-1c.1-.25.16-.52.25-.8h3.93c0,.27-.07.51-.13.75a5.36,5.36,0,0,1-4.57,4.11A5.26,5.26,0,0,1,15,25.6a8.14,8.14,0,0,1-1.31-4.1c-.07-1,0-2.06,0-3.13a5.15,5.15,0,0,1-2.19,1.12,10.2,10.2,0,0,1-1.72.23c-.91,0-1.82,0-2.76,0v3a1.82,1.82,0,0,0,1.75,2.05l.1,0v3.37H0V24.68c.21,0,.4-.06.59-.11a1.45,1.45,0,0,0,1.11-1.45c0-3.58,0-7.16,0-10.74A1.87,1.87,0,0,0,.25,10.51,1.18,1.18,0,0,1,0,10.44V7.92C0,7,0,7,.88,7c3,0,6.06-.09,9.09,0s5.49,2,5.69,5.41c0,.38,0,.76,0,1.2a5.47,5.47,0,0,1,5.78-1.43,5.7,5.7,0,0,1,3.9,4.53c.06-.13.1-.21.13-.29a7.82,7.82,0,0,1,2.2-3.23,5.17,5.17,0,0,1,7.2.24c.33.3.59.65.92,1V12.27h5.62V13.5c.23-.23.38-.39.54-.54a3.2,3.2,0,0,1,4.66.07,7.71,7.71,0,0,1,2,3.56c.07.25.13.51.19.77a1.37,1.37,0,0,0,.09.2l.09,0V11.37a1.54,1.54,0,0,0-1.42-1.7l-.24,0V7.07h6.11V18.3h.07c0-.23.08-.46.13-.68a7.45,7.45,0,0,1,3.18-4.89,5,5,0,0,1,7.17,1.5,9,9,0,0,1,1.37,4.13c.09.91.11,1.84.16,2.81H57.89A5.1,5.1,0,0,0,58.31,24a2.48,2.48,0,0,0,.65.77,1,1,0,0,0,1.39-.09l.05-.07A7.2,7.2,0,0,0,61,23.47c0-.09.15-.24.22-.24h3.69l.06,0a5.6,5.6,0,0,1-10.52,2v3H48V25.43h-.06l-.1.21a6.6,6.6,0,0,1-1.18,1.93,2.52,2.52,0,0,1-3.33.56,20.37,20.37,0,0,1-2-1.48.59.59,0,0,0,0,.14c0,.44,0,.88,0,1.31a2.18,2.18,0,0,0,1.55,2.13ZM29.36,20.63c0,.43.09,1.16.21,1.89a4.7,4.7,0,0,0,.88,2.29.78.78,0,0,0,1.37,0,4.17,4.17,0,0,0,.62-1.2,11.26,11.26,0,0,0,.17-5.92,4,4,0,0,0-.81-1.81.77.77,0,0,0-1.33,0A4.43,4.43,0,0,0,29.89,17,11,11,0,0,0,29.36,20.63Zm12-.69h.06c0,1.19,0,2.37,0,3.55a1.09,1.09,0,0,0,.52,1,2.83,2.83,0,0,0,.54.3.74.74,0,0,0,1-.26,3.87,3.87,0,0,0,.57-1.2A14.8,14.8,0,0,0,44.42,19a7.2,7.2,0,0,0-.56-2.62c-.53-1.19-1.05-1.34-2.22-.65a.43.43,0,0,0-.23.42C41.4,17.41,41.4,18.69,41.4,19.94Zm-34.33-9V16a4.33,4.33,0,0,0,2.1-.27A1.33,1.33,0,0,0,10,14.41c0-.61,0-1.23,0-1.84a1.43,1.43,0,0,0-.89-1.4A4.06,4.06,0,0,0,7.06,10.89Zm50.67,8h3.16a11.36,11.36,0,0,0,0-1.37,3.74,3.74,0,0,0-.33-1.13,1.36,1.36,0,0,0-1.31-.93c-.65,0-1,.5-1.23,1A6,6,0,0,0,57.73,18.92ZM21.4,18.76a13,13,0,0,0-.17-1.88,2.71,2.71,0,0,0-.64-1.16,1.15,1.15,0,0,0-1.85.12,2.83,2.83,0,0,0-.38.72,6.61,6.61,0,0,0-.21,2.19Z"/></svg>