<svg xmlns="http://www.w3.org/2000/svg" viewBox="0 0 72.68 40"><defs><style>.a{fill:#fff;}</style></defs><title>logo-science</title><path class="a" d="M1.85,28.5,1,29.79H.15L0,23.33H.62c1.08,2.95,2.68,5.74,5.87,5.74a3.13,3.13,0,0,0,3.4-3.46,3.74,3.74,0,0,0-2.52-3.67c-1.44-.62-2.42-1-3.86-1.65a4.94,4.94,0,0,1-3-4.86,5.07,5.07,0,0,1,5.31-5.12,6.71,6.71,0,0,1,3.86,1.34l.77-1.24h.93l.15,6.3h-.62c-1-3.15-2.27-5.53-5.61-5.53A2.75,2.75,0,0,0,2.68,14c0,1.71.72,2.64,2.27,3.57,1.24.72,2.52,1.09,3.66,1.65,2.06,1,3.61,2.17,3.61,5A5.64,5.64,0,0,1,6.28,30a7.72,7.72,0,0,1-4.43-1.5m11-5.32c0-3.41,2.16-6.56,5.61-6.56,2.58,0,3.86,1.5,3.86,3.2a1.37,1.37,0,0,1-1.39,1.55A1.42,1.42,0,0,1,19.42,20c0-1.14.31-1.19.31-1.71-.15-.83-.52-1-1.34-1-1.49,0-2.88,1.45-2.88,5.63,0,3.36,1.18,5.68,3.35,5.68a3.67,3.67,0,0,0,3.5-2.48l.57.41a5.61,5.61,0,0,1-4.64,3.31c-3.66,0-5.46-2.84-5.46-6.67M24.42,11.76A1.72,1.72,0,0,1,26.06,10a1.61,1.61,0,0,1,1.7,1.65,1.74,1.74,0,0,1-1.7,1.81A1.67,1.67,0,0,1,24.42,11.76ZM23.23,28.91a7.37,7.37,0,0,0,1.13-.21A1.2,1.2,0,0,0,25,27.47v-8a1.91,1.91,0,0,0-.67-1.4,3.68,3.68,0,0,0-1.49-.52v-.52l4.48-.31.15.21V27.31a1.48,1.48,0,0,0,.67,1.29,2.5,2.5,0,0,0,1.13.31v.57h-6v-.57h-.05Zm13.34-7.39c0-2-.36-4.24-2.11-4.24-1.49,0-2.58,1.71-2.63,4.34l4.74-.1Zm-7.42,1.6c0-3.31,2-6.51,5.31-6.51s4.74,2.48,4.74,5.32v.26H31.83v.31c0,3.57,1,6.1,3.61,6.1,1.85,0,2.52-.78,3.45-2.48l.52.31a5.21,5.21,0,0,1-4.64,3.36c-3.81.05-5.61-3-5.61-6.67Z"/><path class="a" d="M39.35,28.91a7.36,7.36,0,0,0,1.13-.21c.46-.16.67-.62.67-1.24v-8a2,2,0,0,0-.67-1.45,3,3,0,0,0-1.24-.47v-.52l4.17-.31.21.21v1.86h.05c1-1,1.91-2.27,4-2.27C49.91,16.56,51,18.32,51,21v6.41a1.25,1.25,0,0,0,.62,1.24,3.64,3.64,0,0,0,1.13.31v.57H46.67v-.57a6.37,6.37,0,0,0,1.13-.21c.46-.16.67-.62.67-1.24V20.9c0-1.91-.93-2.95-2-2.95a3.14,3.14,0,0,0-2.94,1.81v7.55a1.25,1.25,0,0,0,.62,1.24,2.2,2.2,0,0,0,1.13.31v.57h-6v-.52h.05Zm12.93-5.74c0-3.41,2.16-6.56,5.61-6.56,2.58,0,3.86,1.5,3.86,3.2a1.37,1.37,0,0,1-1.39,1.55A1.42,1.42,0,0,1,58.88,20c0-1.14.31-1.19.31-1.71-.15-.83-.52-1-1.34-1-1.49,0-2.88,1.45-2.88,5.63,0,3.36,1.18,5.68,3.35,5.68a3.67,3.67,0,0,0,3.5-2.48l.57.41a5.61,5.61,0,0,1-4.64,3.31c-3.66,0-5.46-2.84-5.46-6.67m17.57-1.65c0-2-.36-4.24-2.11-4.24-1.49,0-2.58,1.71-2.63,4.34l4.74-.1Zm-7.42,1.6c0-3.31,2-6.51,5.31-6.51s4.74,2.48,4.74,5.32v.26H65.11v.31c0,3.57,1,6.1,3.61,6.1,1.85,0,2.52-.78,3.45-2.48l.52.31A5.21,5.21,0,0,1,68,29.79c-3.86.05-5.61-3-5.61-6.67Z"/></svg>