<svg id="logo" xmlns="http://www.w3.org/2000/svg" viewBox="0 0 64.47 40"><defs><style>.cls-1{fill:#fff;}</style></defs><title>slate</title><path class="cls-1" d="M64.47,14.7H58.65v3.16h5.82V22H58.65V25.3h5.82v4.17H53.75V10.53H64.47Zm-13-4.17V14.7h-4V29.47H42.5V14.7h-4V10.53ZM30,10.53H33.3l7.17,18.94H35.25L33.8,25.3H30V21.56H32.5L30,14.26V10.53Zm-13.89,0H21V25.3h6.62v4.17H16.09Zm-9.59,4a1.4,1.4,0,0,0-.6,1.18,1.19,1.19,0,0,0,.3.83,2.53,2.53,0,0,0,.79.56,6.65,6.65,0,0,0,1.1.42l1.21.37a7.62,7.62,0,0,1,3.51,2.15,5.35,5.35,0,0,1,1.11,3.51,7,7,0,0,1-.48,2.64,5.56,5.56,0,0,1-1.43,2,6.53,6.53,0,0,1-2.3,1.31A9.84,9.84,0,0,1,6.62,30,11.26,11.26,0,0,1,0,27.86l2.1-4a8.44,8.44,0,0,0,2.17,1.46,5.22,5.22,0,0,0,2.13.48,2.52,2.52,0,0,0,1.79-.55A1.69,1.69,0,0,0,8.77,24a1.72,1.72,0,0,0-.15-.74,1.57,1.57,0,0,0-.5-.58,4,4,0,0,0-.91-.49c-.45-.18-.9-.34-1.36-.5C5.22,21.51,4.6,21.29,4,21a5.89,5.89,0,0,1-1.63-1,4.63,4.63,0,0,1-1.15-1.52,5.48,5.48,0,0,1-.43-2.33,6.7,6.7,0,0,1,.46-2.55,5.74,5.74,0,0,1,1.3-2,5.83,5.83,0,0,1,2.05-1.27A7.74,7.74,0,0,1,7.3,10a11.74,11.74,0,0,1,2.92.39,12.9,12.9,0,0,1,2.93,1.14l-2,3.85a6,6,0,0,0-1.6-1,4.2,4.2,0,0,0-1.55-.31,2.52,2.52,0,0,0-1.55.45Z"/></svg>