<svg xmlns="http://www.w3.org/2000/svg" viewBox="0 0 87.26 40"><defs><style>.a{fill:#fff;}</style></defs><title>space</title><path class="a" d="M60.23,10c.64.12,1.31.23,1.94.38A9.5,9.5,0,0,1,66.65,13L64,16.08c-1.74-1.53-3.59-2.49-5.94-2.06a5.16,5.16,0,0,0-3.16,2,6.68,6.68,0,0,0,.31,8.47,5.34,5.34,0,0,0,4.51,1.67A7,7,0,0,0,64,24l2.73,2.61a9.46,9.46,0,0,1-5.94,3.3,2.93,2.93,0,0,0-.57.13H57.8c-.44-.1-.87-.19-1.33-.31a9.77,9.77,0,0,1-7.32-10.61,9.68,9.68,0,0,1,8.68-9l.34-.1Z"/><path class="a" d="M87.22,28.64a1.74,1.74,0,0,1-1.83,1.08H82.71V28.44H85.2A1.18,1.18,0,0,0,86,28c.28-.52-.1-1-.76-1H82.72V25.7h2.37c.68,0,1-.24,1-.72s-.29-.8-1-.82-1.57,0-2.4,0V22.89h4.36c-.08.46.34,1-.43,1.31l.55.81v.87l-.6.88.63,1.08Z"/><path class="a" d="M87.22,20.05c-.07.14-.14.28-.2.42a2.28,2.28,0,0,1-2.62,1.37,2.46,2.46,0,0,1,.07-4.77A2.29,2.29,0,0,1,87,18.47l.21.49Zm-2.32.6a1.2,1.2,0,0,0,1.25-1.14v-.06A1.17,1.17,0,0,0,85,18.24h-.14a1.21,1.21,0,0,0-1.24,1.18h0a1.16,1.16,0,0,0,1.11,1.21h0Z"/><path class="a" d="M87.22,15.33l-.68,1.17-.81-.73c.53-1,.52-1.55,0-2a1.43,1.43,0,0,0-1.68.06c-.48.43-.47,1.06.08,1.93l-.7.6A2.18,2.18,0,0,1,82.7,14a2.33,2.33,0,0,1,4.3-.4c.09.2.17.41.26.61Z"/><path class="a" d="M21.22,23.83v5.75H17.06V10.39h.31c2.77,0,5.53-.05,8.3,0a6.42,6.42,0,0,1,6.35,5c1,4.49-1.8,8.08-6.49,8.41-1.19.09-2.38,0-3.57,0Zm0-3.8c1.4,0,2.75.1,4.08,0a2.72,2.72,0,0,0,2.62-2.52A2.67,2.67,0,0,0,26,14.4c-1.55-.43-3.15-.16-4.75-.22Z"/><path class="a" d="M14.49,12.6l-2.1,3c-.69-.39-1.34-.79-2-1.12a6.16,6.16,0,0,0-3.75-.63A1.87,1.87,0,0,0,5,15.1,1.53,1.53,0,0,0,5.8,17c.81.33,1.65.62,2.49.87,1.24.42,2.51.74,3.71,1.25A4.81,4.81,0,0,1,15.12,24a5.31,5.31,0,0,1-3.35,5.16,10.61,10.61,0,0,1-7.91,0A10.65,10.65,0,0,1,0,26.81l2.43-2.94.66.49A8,8,0,0,0,9,26.1a2,2,0,0,0,1.9-1.42,1.51,1.51,0,0,0-.9-1.84c-.92-.41-1.89-.68-2.84-1S5,21.2,3.94,20.78a4.68,4.68,0,0,1-3.2-4.4A5.45,5.45,0,0,1,3.4,11.15a8.32,8.32,0,0,1,5.37-1,10.72,10.72,0,0,1,5.4,2.1,1.12,1.12,0,0,1,.24.19A.8.8,0,0,1,14.49,12.6Z"/><path class="a" d="M50.11,29.71H46.28c-.42,0-.48-.26-.6-.54l-5.42-13-.36-.8c-2,4.88-4,9.59-6,14.3H29.7c.08-.21.14-.4.22-.58l7.59-18.23a.81.81,0,0,1,.92-.62c1.06,0,2.1,0,3.15,0a.57.57,0,0,1,.63.4Q46.08,20,50,29.29A1.63,1.63,0,0,0,50.11,29.71Z"/><path class="a" d="M69,29.58V10.39H80.37V14.1H73.21V18h6v3.75h-6v4.08h7.34v3.71Z"/><path class="a" d="M82.7,10.27h1.23v1.31H82.7Z"/></svg>