<svg xmlns="http://www.w3.org/2000/svg" viewBox="0 0 90 40"><defs><style>.a{fill:#fff;}</style></defs><title>the-nation</title><path class="a" d="M19,24c0-.31,0-.62,0-.94,0-2.67-.09-5.34-.15-8a8.24,8.24,0,0,0-.35-2.29,2.86,2.86,0,0,0-2.45-2c-.59-.1-1.18-.15-1.79-.22v-.23H23.2l0,.25-1,.1a2.79,2.79,0,0,0-2.8,2.62,15.88,15.88,0,0,0-.11,3c0,1.44.05,2.89.08,4.33q.09,4.26.17,8.52c0,.11,0,.23,0,.38a5.56,5.56,0,0,1-.72,0c-.09,0-.18-.13-.25-.21L15.17,25,9.41,18.08,5.89,13.84l-.43-.48c0,.22-.06.37-.07.52Q5.31,17,5.24,20.21c0,1.6-.08,3.19-.07,4.79a6.31,6.31,0,0,0,.34,2,2.53,2.53,0,0,0,1.77,1.68A7.59,7.59,0,0,0,9.5,29c.21,0,.28.07.21.28H0V29l1-.07a5.82,5.82,0,0,0,1.75-.38,2.6,2.6,0,0,0,1.57-1.8,11.17,11.17,0,0,0,.36-3c.07-2.28.13-4.56.19-6.84q0-1.34.07-2.67a3.71,3.71,0,0,0-.46-2.06,3.24,3.24,0,0,0-2.2-1.49c-.49-.11-1-.15-1.51-.22v-.24H7.09a.38.38,0,0,1,.33.16l8.34,10,2.7,3.22c.14.17.3.31.45.46Z"/><path class="a" d="M76.95,29c0,.18,0,.29-.18.28H68.43c-.07-.27-.06-.28.2-.28a10.87,10.87,0,0,0,2.29-.22.43.43,0,0,0,.39-.41c0-.5.08-1,.09-1.51q.12-3.4.22-6.79c0-.46,0-.92,0-1.38a1.43,1.43,0,0,0-.18-.84.61.61,0,0,0-.52-.32l-2-.13V17.1l5.69-.47V20h0l.07-.22a5.4,5.4,0,0,1,1.37-2.39,2.25,2.25,0,0,1,1.41-.69,6.41,6.41,0,0,1,2.76.16A3.64,3.64,0,0,1,82.71,19a4,4,0,0,1,.17,1.36q.07,2.88.14,5.76c0,.59,0,1.18,0,1.77s0,.79.8.9,1.3.13,2,.19v.23H77.29V29c.34,0,.67,0,1-.07s.85-.12,1.27-.19a.35.35,0,0,0,.32-.34c0-.21,0-.41,0-.62,0-2.19,0-4.38-.06-6.57,0-.84-.06-1.69-.15-2.52a2.21,2.21,0,0,0-.57-1.31,1.74,1.74,0,0,0-1.9-.31,3.15,3.15,0,0,0-1.52,1.41,9.1,9.1,0,0,0-1,2.61,9.67,9.67,0,0,0-.19,2.17c0,1.49-.06,3-.08,4.47,0,.13,0,.26,0,.39,0,.48.15.65.63.71s1.08.1,1.63.15Z"/><path class="a" d="M24.15,18.38a1.32,1.32,0,0,1,1.34.55,1.46,1.46,0,0,1-1,2.32,1.71,1.71,0,0,1-1.9-1.1,2.09,2.09,0,0,1,.25-1.64,2.81,2.81,0,0,1,1.57-1.28,9,9,0,0,1,5.22-.38,3.69,3.69,0,0,1,2,1.08,2,2,0,0,1,.56,1.4c0,2.33.06,4.67.11,7a11.55,11.55,0,0,0,.17,1.78A1.09,1.09,0,0,0,33.5,29a1.12,1.12,0,0,0,1.26-.78,3.62,3.62,0,0,0,.21-1c0-.78,0-1.56,0-2.35,0-.27,0-.55,0-.84h.37c0,.34,0,.68,0,1,0,.81.06,1.61.05,2.42a3.42,3.42,0,0,1-.2,1,1.32,1.32,0,0,1-1,.83,5.84,5.84,0,0,1-3.38,0,2.2,2.2,0,0,1-1.45-1.55c0-.12-.08-.24-.11-.37-.21.29-.4.59-.62.86a3.54,3.54,0,0,1-2.22,1.18,8.24,8.24,0,0,1-2.2.08A4,4,0,0,1,22,28.53a2.57,2.57,0,0,1-.74-2.59,3.85,3.85,0,0,1,2.17-2.64,7.27,7.27,0,0,1,2.94-.76,16.31,16.31,0,0,0,2-.34A1.14,1.14,0,0,0,29.25,21c0-1,0-1.95,0-2.92A1.11,1.11,0,0,0,28.15,17a4.87,4.87,0,0,0-2.91.29,2.16,2.16,0,0,0-1.06.92l0,.08A.3.3,0,0,0,24.15,18.38Zm5,3.79a4.75,4.75,0,0,1-.87.39c-.54.12-1.1.17-1.66.26a2.39,2.39,0,0,0-1.54.88,3.58,3.58,0,0,0-.74,2,7,7,0,0,0,.15,2.56,1.19,1.19,0,0,0,1,.91,2.76,2.76,0,0,0,1.3-.11,3.31,3.31,0,0,0,2.35-3.19c0-1.17,0-2.33,0-3.5C29.18,22.31,29.18,22.24,29.18,22.17Z"/><path class="a" d="M55.48,23.7a6.64,6.64,0,0,1,3.18-6,6.09,6.09,0,0,1,4.55-.95,6.38,6.38,0,0,1,5.23,4.42,6,6,0,0,1-.4,5A6.66,6.66,0,0,1,64.72,29a6.25,6.25,0,0,1-2.57.51,6.56,6.56,0,0,1-6-3.28A5.1,5.1,0,0,1,55.48,23.7Zm3.32-.19h.06A14.18,14.18,0,0,0,59.18,27a2.8,2.8,0,0,0,1.23,1.92,3.12,3.12,0,0,0,1.5.38,2.66,2.66,0,0,0,2.84-1.7,7.55,7.55,0,0,0,.42-1.5,17.41,17.41,0,0,0,.18-3.95,12.26,12.26,0,0,0-.45-3.2,2.66,2.66,0,0,0-1.39-1.74,3.29,3.29,0,0,0-1.82-.24A2.39,2.39,0,0,0,59.91,18a5.29,5.29,0,0,0-.81,2.32C59,21.37,58.9,22.45,58.8,23.52Z"/><path class="a" d="M44.22,22.94h.39c0,.35,0,.69,0,1,0,1,0,1.95,0,2.92a4,4,0,0,1-.22,1.1,2,2,0,0,1-1.44,1.29,6.37,6.37,0,0,1-3.38,0,2.69,2.69,0,0,1-2-2.4c-.05-1,0-2,0-3.06,0-1.64,0-3.29,0-4.93,0-.28,0-.55,0-.83,0-.07,0-.15,0-.25H35c-.09-.26,0-.3.23-.35a6.17,6.17,0,0,0,4.58-4.87,9.32,9.32,0,0,0,.2-1.66c0-.27.17-.21.32-.22s.24,0,.24.23c0,1.92,0,3.84,0,5.76,0,.08,0,.15,0,.25h3.48c.19,0,.26,0,.25.25s0,.4,0,.62H40.59c0,.09,0,.16,0,.22,0,2.8,0,5.61,0,8.41a7.91,7.91,0,0,0,.1,1.26,1.52,1.52,0,0,0,2,1.24,1.7,1.7,0,0,0,1.36-1.56,18.86,18.86,0,0,0,.18-2.15c0-.66,0-1.32,0-2C44.22,23.17,44.22,23.07,44.22,22.94Z"/><path class="a" d="M55.7,29c.08.22,0,.27-.2.27H45.92V29c.49,0,1,0,1.45-.07s1-.12,1.48-.19a.38.38,0,0,0,.35-.37,5,5,0,0,0,.06-.62c0-1.79,0-3.58,0-5.37,0-1.3,0-2.6,0-3.89a1,1,0,0,0-.19-.67.87.87,0,0,0-.65-.33l-2.14-.09h-.21V17.1l6.23-.47c0,.46,0,.89,0,1.32q0,4.73,0,9.47c0,.26,0,.52,0,.78s.1.5.5.58a9.3,9.3,0,0,0,1.14.14C54.59,29,55.14,29,55.7,29Z"/><path class="a" d="M88.2,26.71a1.75,1.75,0,0,1,1.69,1.09A1.55,1.55,0,0,1,89,29.86a2.06,2.06,0,0,1-1.8-.06,1.45,1.45,0,0,1-.85-1.39,1.6,1.6,0,0,1,.95-1.49,5.06,5.06,0,0,1,.89-.26Z"/><path class="a" d="M50.68,10a1.65,1.65,0,0,1,.39,3.27,1.91,1.91,0,0,1-1.64-.41A1.63,1.63,0,0,1,49,11.07,1.71,1.71,0,0,1,50.49,10Z"/><path class="a" d="M29.62,11.75h1.6c0-.45,0-.89,0-1.33,0,0-.1-.12-.17-.14a3.24,3.24,0,0,0-.41-.06v-.06h1.89v0c-.14,0-.28,0-.43.05s-.21.09-.21.23c0,.92.06,1.84.07,2.76,0,.2.1.25.27.25l.42,0v.07h-2v-.05l.3,0c.33,0,.34,0,.35-.34s0-.81,0-1.24H29.63c0,.47,0,.94,0,1.4,0,.06.12.13.2.15a2.33,2.33,0,0,0,.4,0v.07h-2v-.07a3.18,3.18,0,0,1,.39,0c.22,0,.31-.08.32-.31q0-1.32.08-2.65c0-.22-.07-.31-.29-.31a.76.76,0,0,1-.36-.08h1.89v0a2.67,2.67,0,0,0-.41.06c-.07,0-.17.1-.17.16C29.65,10.87,29.64,11.3,29.62,11.75Z"/><path class="a" d="M33.26,10.17h3.23v1.31h0c0-.13-.06-.26-.09-.39-.08-.31-.15-.66-.5-.74a6.48,6.48,0,0,0-1.16-.09s-.1.1-.1.15c0,.44,0,.87,0,1.33.25,0,.56.06.73-.16a2.76,2.76,0,0,0,.29-.74v2c-.08-.6-.22-1.13-1.06-.94,0,.12,0,.26,0,.41,0,.34,0,.68,0,1,0,.15,0,.23.21.22s.6,0,.9,0c.47,0,.73-.29.87-.84,0-.16.07-.32.1-.47h.08v1.42H33.14v-.07l.44,0c.18,0,.26-.07.27-.26,0-.87,0-1.75.06-2.62,0-.35,0-.36-.38-.38l-.27,0Z"/><path class="a" d="M24.35,11.67c0-.15,0-.3,0-.45s0-.44,0-.67c0-.41,0-.4.43-.4h2.61v1.55h0c-.07-.27-.13-.53-.21-.8a.8.8,0,0,0-.95-.65,1.58,1.58,0,0,0,0,.17c0,.93,0,1.86,0,2.79,0,.24.1.31.31.31s.36,0,.54,0v.06H24.67v-.06l.49,0c.35,0,.37,0,.37-.37,0-1,0-1.92,0-2.88a.63.63,0,0,0-.78.35,6,6,0,0,0-.27.8c0,.08,0,.16-.06.24Z"/></svg>