<svg id="Camada_1" data-name="Camada 1" xmlns="http://www.w3.org/2000/svg" viewBox="0 0 70 40"><defs><style>.cls-1{fill:#fff;}</style></defs><title>time</title><path class="cls-1" d="M0,9.72H18v4.1h-.33V11.19H10.59V29.71h2.06v.62h-7v-.6H7.51V11.19H.34v2.63H0Zm18.84,0h7.07v.57h-2V29.71h2v.62H18.84v-.61h2.05V10.28H18.84Zm13.31-.05H33.5l6.57,15.89,6.6-15.89H48l3.66,20h1.87v.62H46.24v-.6h1.88L45.83,16.9,40,30.33H38.62L32.86,16.91,30.42,29.72h1.77v.61H26.78v-.61h1.64Zm22,.05H69.7v4.06h-.23l-.13-2.5-10.19-.11V19.3H67.8L68,17.42h.38a49,49,0,0,0,0,5.14H68l-.21-2H59.15v8.45H69.71V26.23H70v4.1H54.14v-.58H56.2V10.33H54.14V9.72Z"/></svg>