<svg xmlns="http://www.w3.org/2000/svg" viewBox="0 0 49.18 40"><defs><style>.a{fill:#fff;}</style></defs><title>tmz</title><path class="a" d="M21.29,10H.67a.67.67,0,0,0,0,1.35H6s2.5-.25,2.48,2h0V27.68A2.55,2.55,0,0,0,10.85,30h.28a2.53,2.53,0,0,0,2.4-2.28V13.17c.1-2,2.45-1.81,2.48-1.81h5.29a.67.67,0,0,0,0-1.35ZM33,14h-.68a2.1,2.1,0,0,0-1.78,1,2.21,2.21,0,0,0-.28.43l-2.21,4.41c-.44.86-1.2,2.31-1.78,3.4-.71,1.34-1.53.22-1.82-.25-.18-.29-.75-1.3-1.05-1.82l-3.32-6.46a2.49,2.49,0,0,0-3.51-.89,2.54,2.54,0,0,0-1.19,2.31V28.95a1,1,0,0,0,2,.1s0-.07,0-.1V23.08c0-1.4,1.41-1.86,2-.78s3.69,6.85,3.69,6.85c.3.45.53.67.71.72l0,0c.36.18,1,.06,1.42-.74l2.91-5.77.49-1c.22-.32.4-.7,1-.7s.92.45.92,1.23v4.73a2.13,2.13,0,0,0,2.1,2.28h.5a2.12,2.12,0,0,0,1.93-2.28V16.06A2.11,2.11,0,0,0,33,14Zm15.5,14.59h-5c-1.08,0-1.28-.47-1.43-.82a3.81,3.81,0,0,1,.49-2.06l3.73-8.11c.23-.42,1.11-2.07,1.39-2.63a.7.7,0,0,0,.08-.15v0h0a.74.74,0,0,0,0-.22.65.65,0,0,0-.62-.68H37.14a.68.68,0,0,0,0,1.36h4a.78.78,0,0,1,.63.74h0l0,.19-4.19,9.13-.54,1.07c-.3.59-1.11,2.12-.38,3.09.4.53,1.77.48,2.93.49h8.95a.68.68,0,0,0,0-1.36Z"/></svg>