<svg xmlns="http://www.w3.org/2000/svg" viewBox="0 0 70 40"><defs><style>.a{fill:#fff;}</style></defs><title>tnw</title><path class="a" d="M36,28.48H29.7V23a3,3,0,0,0-.7-2L26.51,18.6a3,3,0,0,0-1.91-.74H23.33v10.6H17V11.52h9.2a5,5,0,0,1,3.71,1.59l4.55,4.55A5,5,0,0,1,36,21.38Zm27.58-17V17a3,3,0,0,1-.73,2l-2.45,2.4a2.55,2.55,0,0,1-1.91.74H55.9a5.38,5.38,0,0,0,1.38-3.5V11.52H50.91V17a3,3,0,0,1-.74,2l-2.45,2.4a2.55,2.55,0,0,1-1.91.74H44.53V11.52H38.18v17h9.23a5,5,0,0,0,3.71-1.59l3-3v4.55h6a5,5,0,0,0,3.71-1.59l4.55-4.55A5,5,0,0,0,70,18.62v-7.1Zm-48.79,0H0v6.36H4.24v10.6H10.6V17.88h4.24"/></svg>