<svg xmlns="http://www.w3.org/2000/svg" viewBox="0 0 35 40"><defs><style>.a{fill:#fff;}</style></defs><title>tvguide</title><path class="a" d="M0,2.5H35v35H0Zm16.24,7.91h.12c1.11,3.37,2.24,6.74,3.32,10.12.14.44.31.64.81.62q1.92-.06,3.85,0a.72.72,0,0,0,.83-.6c1.08-3.32,2.18-6.62,3.27-9.93l.49-1.5H24.77l-2.26,8.51c-.72-2.77-1.41-5.32-2-7.89-.12-.5-.29-.67-.82-.67-4.15,0-8.3,0-12.45,0-.2,0-.41,0-.68,0v3.57H9.47v8.4h4.09v-8.4h3Zm3.68,19.77c1.22,0,2.42.07,3.59,0A2.44,2.44,0,0,0,25.94,28a10.59,10.59,0,0,0,0-3,2.14,2.14,0,0,0-2-2c-1.33-.11-2.68,0-4,0ZM9.5,22.95c0,1.73,0,3.39,0,5,0,1.41,1,2.22,2.53,2.36,1.85.18,3.07-.47,3.44-1.81a.55.55,0,0,0,0-.13q0-2.71,0-5.43h-2c0,1.55,0,3,0,4.54,0,.79-.29,1-1,1s-1-.26-1-1.05c0-.28,0-.56,0-.84V22.94Zm-1,.15a8.64,8.64,0,0,0-.93-.21,13,13,0,0,0-1.46-.09,3,3,0,0,0-3.1,2c-.59,1.73-.21,4,.83,4.84a3.09,3.09,0,0,0,.86.46,5.62,5.62,0,0,0,3.5,0c.15,0,.38-.21.38-.32,0-1.15,0-2.31,0-3.47H6.8v2.16c-1.21.27-1.68,0-1.77-1.15a8.59,8.59,0,0,1,0-1.26c.08-1.22.5-1.59,1.75-1.51.53,0,1,.13,1.59.2ZM32,23H27v7.2h5.1V28.46h-3V27.28h2.38V25.7H29.12V24.64H32Zm-13.3,0h-2v7.22h2Z"/><path class="a" d="M22,28.38v-3.6c1.38-.37,1.92,0,2,1.37v.7C23.92,28.35,23.6,28.6,22,28.38Z"/></svg>