<svg id="Camada_1" data-name="Camada 1" xmlns="http://www.w3.org/2000/svg" viewBox="0 0 100 40"><defs><style>.cls-1{fill:#fff;}</style></defs><title>USA_Today_logo_horizontal-700x131</title><g id="_000000ff" data-name="#000000ff"><path class="cls-1" d="M8.71,11.68a8.51,8.51,0,0,1,4.49,16.4,8.72,8.72,0,0,1-4,.34,8.52,8.52,0,0,1-.49-16.74Z"/><path class="cls-1" d="M33.13,16a4.82,4.82,0,0,1,4-.63,4.73,4.73,0,0,1,1.87.92c-.34.66-.82,1.23-1.2,1.86a3.63,3.63,0,0,0-1.67-.78c-.47,0-1.13,0-1.32.5s.34.82.74.95a6.92,6.92,0,0,1,2.9,1.38,3.07,3.07,0,0,1,.34,3.45,3.35,3.35,0,0,1-2.45,1.66A5.72,5.72,0,0,1,31.57,24c.44-.63.9-1.24,1.34-1.87a3,3,0,0,0,2.94,1A.83.83,0,0,0,36,21.63,18.19,18.19,0,0,0,34,20.86a3.1,3.1,0,0,1-1.69-1.47A2.91,2.91,0,0,1,33.13,16Z"/><path class="cls-1" d="M63.46,15.2A5.7,5.7,0,0,1,68,16.5a5.15,5.15,0,0,1,1.37,5.4,4.9,4.9,0,0,1-3.25,3.17,6.26,6.26,0,0,1-4.7-.41,5.09,5.09,0,0,1-2.26-6.07,5,5,0,0,1,4.26-3.39m.16,2.47c-2.11.45-2.47,3.69-.76,4.83a2.6,2.6,0,0,0,3.49-.64,3.17,3.17,0,0,0,.1-3A2.5,2.5,0,0,0,63.62,17.68Z"/><path class="cls-1" d="M83,15.34h3.07q1.82,4.9,3.64,9.79c-1,0-1.92,0-2.88,0-.19-.46-.33-.93-.48-1.4-1.24,0-2.48,0-3.72,0l-.43,1.39H79.34q1.81-4.9,3.64-9.79m.37,6.14H85.6a38.63,38.63,0,0,1-1.13-3.9A31,31,0,0,1,83.36,21.48Z"/><path class="cls-1" d="M22.16,15.38H25c0,1.85,0,3.71,0,5.56a2.3,2.3,0,0,0,.39,1.56,1.77,1.77,0,0,0,1.74.31A1.55,1.55,0,0,0,28,21.23c0-1.95,0-3.89,0-5.84h2.8c0,1.66,0,3.33,0,5a6.36,6.36,0,0,1-.42,3.13,3.72,3.72,0,0,1-3,1.79,5.79,5.79,0,0,1-3.89-.74,3.5,3.5,0,0,1-1.33-2.9C22.16,19.58,22.18,17.48,22.16,15.38Z"/><path class="cls-1" d="M42.92,15.39c1,0,2.07,0,3.11,0q1.8,4.88,3.62,9.76c-1,0-2,0-2.93,0-.13-.47-.29-.93-.44-1.39-1.24,0-2.48,0-3.71,0-.13.47-.28.93-.42,1.39H39.3c1.2-3.25,2.42-6.5,3.62-9.76m.39,6.1c.74.08,1.49,0,2.24,0-.36-1.32-.86-2.59-1.12-3.94A29,29,0,0,1,43.31,21.49Z"/><path class="cls-1" d="M51.09,17.62c0-.76,0-1.53,0-2.29,2.53,0,5.06,0,7.59,0,.06.76,0,1.51.05,2.27-.81,0-1.61,0-2.42,0,0,2.51,0,5,0,7.52h-2.8c0-2.51,0-5,0-7.52Z"/><path class="cls-1" d="M70.69,15.34a39.75,39.75,0,0,1,5.12.15A4.68,4.68,0,0,1,79,17.43a5.35,5.35,0,0,1,.73,3.38A4.45,4.45,0,0,1,78.08,24a5.9,5.9,0,0,1-3.63,1.14H70.68q0-4.9,0-9.79m2.8,2.26c0,1.76,0,3.52,0,5.28a4.21,4.21,0,0,0,2.34-.42,2.43,2.43,0,0,0,1-2.09A2.62,2.62,0,0,0,76,18.14,3.91,3.91,0,0,0,73.48,17.6Z"/><path class="cls-1" d="M87.78,15.34c1,0,2,0,3,0,.37.58.68,1.21,1,1.81a9.71,9.71,0,0,1,1.1,2.46,23.68,23.68,0,0,1,1.86-3.77c.13-.19.21-.55.52-.49H98c-1.13,2.15-2.46,4.19-3.6,6.33,0,1.15,0,2.3,0,3.46H91.44c0-1.07,0-2.13,0-3.2,0-.38-.25-.67-.41-1C89.94,19.08,88.84,17.22,87.78,15.34Z"/></g></svg>