<svg xmlns="http://www.w3.org/2000/svg" viewBox="0 0 51.72 40"><defs><style>.a{fill:#fff;}</style></defs><title>vox</title><path class="a" d="M23.74,7.86h.75l.09-.33h-9.3l-.09.33h1.35c1.17,0,2.11.81,2.11,2.44a9.43,9.43,0,0,1-1,3.49l-6,13.3L10.17,9.81c-.12-1.35.54-2,2.08-2h.87l.09-.33H.12L0,7.81H.84c1,0,1.41.63,1.53,1.87L4.69,32.06H10.2l9.19-19.5c1.38-2.92,2.86-4.69,4.33-4.69ZM22.66,32.18c-.84,0-1.35-.27-1.35-1.65a48.74,48.74,0,0,1,1.32-8.24,2.83,2.83,0,0,0,2.56,2.86,4.71,4.71,0,0,0,1-.09c-1.36,5.9-1.9,7.13-3.49,7.13Zm26.2-11.74a2.91,2.91,0,0,0,2.86-3s0-.08,0-.11A2.32,2.32,0,0,0,49.49,15h-.18c-2.56,0-3.76,2-5.87,5.75-.45-2.32-1.5-5.36-4.21-5.36-3,0-6.53,4.33-9.75,7a7.53,7.53,0,0,1-4.36,2C23.8,24.35,23,23,23,20.62c.93-3.88,1.44-4.91,2.89-4.91,1,0,1.41.57,1.41,1.75a33.45,33.45,0,0,1-.81,6c1.44-.45,3.61-2.26,5.42-4.21a6.16,6.16,0,0,0-6-3.85A10.69,10.69,0,0,0,15.62,25.81c0,3.82,2.71,6.71,7,6.71,7,0,9.93-6.08,9.93-10.29a13.3,13.3,0,0,0-.16-1.58c1.08-1.17,2.47-2.29,3.61-2.29,1.29,0,2.32,3.25,3.34,8.15-.9,1-1.81,2.92-2.26,3.25a2.87,2.87,0,0,0-2.86-2.83,3.08,3.08,0,0,0-2.92,3,2.44,2.44,0,0,0,2.28,2.59h.22c3,0,3.82-2.83,5.69-5.33.57,2.68,1.9,5.33,4.18,5.33,2.71,0,5.24-2.32,6.53-4L50,28.13a3.85,3.85,0,0,1-2.57,1.39c-1.68,0-2.89-3.64-3.82-8,.54-.75,1.41-2.65,2-3.31a3.67,3.67,0,0,0,3.28,2.26Z"/></svg>