<svg id="Camada_1" data-name="Camada 1" xmlns="http://www.w3.org/2000/svg" viewBox="0 0 100 40"><defs><style>.cls-1{fill:#fff;}</style></defs><title>vulture</title><path class="cls-1" d="M12.75,11.66a1.17,1.17,0,0,0-1.25.68L7.73,21.58l-3.12-11A1.88,1.88,0,0,0,3.5,9.4L.65,8.56c-.5-.16-.76.12-.6.62L6.69,30.44c.16.5.32.88.7.88s.58-.4.78-.86l7.12-17.38a.73.73,0,0,0-.33-1,1,1,0,0,0-.23-.07l-2-.38ZM99.88,27.42a.94.94,0,0,0-1-.9l-6.16.22c-.5,0-.7-.16-.72-.68v-2.2c0-.5.14-.7.64-.74l5.62-.54a1,1,0,0,0,.9-1l-.08-2.68a.82.82,0,0,0-.82-.81h-.14l-5.4.8c-.5.08-.76-.16-.78-.68l0-2.06a.78.78,0,0,1,.61-.91h0l6-1.26a1.22,1.22,0,0,0,.9-1.14l0-3.46a.69.69,0,0,0-.61-.74.8.8,0,0,0-.31,0s-1.66.54-4.42,1.28-5,1.24-5,1.24a1.24,1.24,0,0,0-.88,1.18l.36,18a1,1,0,0,0,.94.94l9.6.16a.87.87,0,0,0,.9-.85v-.07Z"/><path class="cls-1" d="M27.15,13.94a.84.84,0,0,0-.94.69v.13l-.08,7.54c0,1,.34,4.92-2.46,4.84s-2.44-4.4-2.44-6l.12-7a1.11,1.11,0,0,0-.9-1.08l-1.88-.32a.8.8,0,0,0-.93.65.53.53,0,0,0,0,.13L17.49,23c0,5.6,2.18,8.26,5.84,8.26,4.26,0,6.6-2.5,6.6-7.8L30,15.18a1.06,1.06,0,0,0-.92-1l-1.94-.2Zm50.77,3.24c.34-.26,3.38-.78,3.38,1.54,0,2.16-1.72,2.72-3.34,2.72Zm4.9,6.64c-.1-.24,0-.36.34-.68a7.12,7.12,0,0,0,1.78-4.78c0-2.4-.86-4.12-2.72-4.84a6.7,6.7,0,0,0-3.92-.24c-1.08.18-3.14.42-3.14.42a1.1,1.1,0,0,0-.92,1.06l.18,15.42a1,1,0,0,0,.94.94h1.82a.9.9,0,0,0,.92-.89v-5a7.24,7.24,0,0,0,1,0c.38-.06.44.2.64.68l2,4.5a1.61,1.61,0,0,0,1.32.86h2.22a.53.53,0,0,0,.62-.45.49.49,0,0,0-.08-.39l-3-6.58ZM70.64,15.16a.84.84,0,0,0-.8-.85H69.7l-1.84.18a1,1,0,0,0-.92,1v8.4c0,1.28-.46,3.36-2.5,3.36-2.24,0-2.64-2.24-2.62-3.7s0-7.72,0-7.72a.89.89,0,0,0-.89-.9h0l-2,.1A1,1,0,0,0,58,16l0,7.54c0,5.64,2.22,7.56,6,7.68,4.68.16,6.92-2.64,6.74-8.16l-.06-7.94ZM43.21,28.26a.94.94,0,0,0-.92-.94l-5.14-.08.08-11.44a1,1,0,0,0-.92-1l-1.94-.14a.86.86,0,0,0-.94.78v.08l-.12,14.62a.93.93,0,0,0,.92.94h8a1,1,0,0,0,.94-.94V28.28ZM55.57,16.14a.94.94,0,0,0-.92-.94s-2,.06-5.4.06-5.62-.12-5.62-.12a.91.91,0,0,0-.92.9v2.12a1,1,0,0,0,.94,1h2.82c.5,0,.58.1.58.6V30.1A.94.94,0,0,0,48,31h2.15a.94.94,0,0,0,.94-.94V19.74c0-.5.1-.56.6-.56h3a.94.94,0,0,0,.94-.94V16.16Z"/></svg>