<svg xmlns="http://www.w3.org/2000/svg" viewBox="0 0 120 40"><defs><style>.a{fill:#fff;}</style></defs><title>washington-post</title><path class="a" d="M24.1,14.19a2.23,2.23,0,0,1,2.28-2.73,2.11,2.11,0,0,0-.29,1.76,5.43,5.43,0,0,1,1.35,1.45v1.26c.67-.52,1.28-1.11,1.94-1.63.17-.17.4,0,.54.1.68.45,1.35.93,2.05,1.35q.86-.82,1.78-1.6c.77.63,1.6,1.18,2.36,1.84,0,2.15.06,4.31,0,6.46-1.23,1.26-2.52,2.46-3.79,3.68A30,30,0,0,1,29.6,24c-.76.7-1.38,1.55-2.19,2.2-.8-.78-1.63-1.54-2.36-2.4-.06-1.05,0-2.11,0-3.16a1.6,1.6,0,0,0-1.73.15,2.11,2.11,0,0,1,1.73-2.49c0-1,0-2,0-2.94a6.22,6.22,0,0,1-.92-1.15M28,16c-.18.25-.6.4-.57.76v5.89c.48.46.95.94,1.43,1.4.16-.23.49-.4.47-.7,0-2,0-4,0-6A13,13,0,0,0,28,16m4,.54v4.21c0,.6,0,1.2,0,1.81a15.65,15.65,0,0,0,1.45,1.54c.15-.25.48-.43.48-.74v-6c-.44-.43-.88-.86-1.3-1.31Z"/><path class="a" d="M94.36,14.65c.8-.58,1.38-1.44,2.2-2,.6.4,1.14.86,1.72,1.28a11.89,11.89,0,0,0,.08,1.71,3.88,3.88,0,0,0,.23-1.88l.5.35v.92c.7-.6,1.41-1.17,2.1-1.79.72.56,1.43,1.14,2.14,1.71v7.64c-1,.71-2,1.45-3.09,2.14-.36.27-.8-.12-1.15-.16v2.95l-.8-.58c-.64.53-1.27,1.07-1.93,1.56H96V23.6a6.28,6.28,0,0,0-2.32.93A5,5,0,0,1,96,21.73a24.4,24.4,0,0,0,0-2.71,1.23,1.23,0,0,0-1.7.1,9,9,0,0,1,.16-1.54,1.91,1.91,0,0,1,1.6-.82,8.08,8.08,0,0,0-.1-1.78c-.38-.47-1-.37-1.52-.35m4.74,1.52c-.05,1.9,0,3.8,0,5.7a9.44,9.44,0,0,1,1.79.63V16.11c-.22-.17-.43-.34-.66-.5-.4,0-.73.38-1.1.54m-.8,1v8.43a.87.87,0,0,0,.26.77q.08-4.93,0-9.86a1,1,0,0,0-.29.67Z"/><path class="a" d="M50.5,14.46a13.6,13.6,0,0,1,1.26-1.17c.68,1.3.2,2.8.37,4.2.64,0,1-.58,1.48-.91.71.4,1.3,1.12,2.16,1.11,0,2.27,0,4.55,0,6.8a3.93,3.93,0,0,1-3.52,3.2c.67-.56,1.51-1.2,1.5-2.17V19.17c-.4-.3-.8-.6-1.18-.9l-.4.2V23l.78.74c-.56.54-1,1.32-1.64,1.7-.54-.53-1.07-1.05-1.64-1.54.16-.27.52-.47.5-.8v-8C50.06,14.83,50.34,14.66,50.5,14.46Z"/><path class="a" d="M75,15.37c.71-.66,1.42-1.32,2.13-2,0,1.11,0,2.22,0,3.33h1.08l-1.08,1.37V23a1.25,1.25,0,0,0,1.2.54c-.59.6-1.1,1.26-1.69,1.86-.6-.4-1.1-1.12-1.91-1A2.14,2.14,0,0,0,75,23.14a22.7,22.7,0,0,1,0-3.38c0-.27-.05-.53-.08-.8V17.87H74c.3-.4.65-.74.94-1.13A7,7,0,0,0,75,15.37Z"/><path class="a" d="M9.41,15c.55-.43,1-1,1.53-1.42a1.76,1.76,0,0,1,.36,1V17.7c.65.14,1-.56,1.52-.88.72.4,1.32,1.2,2.22,1.1v6a4,4,0,0,1-3.62,4c.72-.51,1.55-1.23,1.49-2.2V19.44c-.4-.29-.8-.58-1.16-.89l-.4.3c0,1.47,0,2.93,0,4.4a6.52,6.52,0,0,0,.77.86c-.52.58-1.06,1.14-1.57,1.73-.58-.55-1.12-1.13-1.69-1.67l.54-.6C9.41,20.7,9.37,17.86,9.41,15Z"/><path class="a" d="M116.87,15.42c.71-.64,1.4-1.3,2.09-2v3.35a10,10,0,0,1,1,0,9.09,9.09,0,0,0-1,1.34c-.08,1.6,0,3.2,0,4.8l.43.5H120v.24l-1.5,1.73-1.28-1-.68,0,.33-.4V18H115.8c.37-.4.73-.83,1.07-1.26C116.87,16.3,116.87,15.86,116.87,15.42Z"/><path class="a" d="M0,18c.09-1.53.6-3.34,2.13-4,1.75-.58,3.27.89,5,.83A7,7,0,0,0,9.08,14a3.62,3.62,0,0,1-2,2.8C7,18.85,7,20.91,7,23A4.6,4.6,0,0,0,9,21a5,5,0,0,1-1.6,3.73,4.27,4.27,0,0,1-4,1,4.67,4.67,0,0,1-3.2-3.2A5.49,5.49,0,0,1,2.83,16.3l-.68-.24A3,3,0,0,0,0,18m3.24-1.51c-1.69,1.75-1.9,5.14.2,6.65.08-1.56,0-3.11,0-4.67l-.45-.33q.88-.72,1.8-1.4a1.93,1.93,0,0,0-1.6-.25M5.68,17v4.22c-.67.65-1.33,1.3-2,2a3.68,3.68,0,0,0,2.92,0V17Z"/><path class="a" d="M56.81,15.41c.45-.47.88-1,1.34-1.41.52.45,1.07.88,1.6,1.33-.54.42-1,.9-1.56,1.36Z"/><path class="a" d="M68.24,18.26c1-.67,2-1.43,3-2.08a28.07,28.07,0,0,1,2.49,1.47v5.5a5.37,5.37,0,0,0,.55,2,6.44,6.44,0,0,1-3.08,3.13,2.65,2.65,0,0,0-3.26-.69l1.92-2.52A2,2,0,0,0,68,23.81l.19-.66c0-1.63,0-3.26,0-4.9m2.1-.27v4.27c.3.31.6.62.91.92.17-.24.43-.48.4-.8,0-1.14.08-2.3-.06-3.44-.37-.36-.83-.62-1.23-.95m-1.11,8.4a3.74,3.74,0,0,1,2.8.11c.44.4,1.1-.21.9-.72s-.76-.67-1.12-1a3.35,3.35,0,0,1-.25-1.2c-.78,1-1.5,1.95-2.33,2.84Z"/><path class="a" d="M36.85,18.7c1.2-.74,2.27-1.68,3.51-2.33.74.46,1.26,1.38,2.18,1.47,0,1.66,0,3.32,0,5a4.7,4.7,0,0,0,.8.8l.44-.13a10.29,10.29,0,0,1-1.6,1.82A18.1,18.1,0,0,1,40.33,24l-1.54,1.49L36.56,24l.3-.31v-5M39,18.19c0,1.52,0,3,0,4.55a3.08,3.08,0,0,0,.85.8l.4-.4v-4q-.64-.44-1.26-.94Z"/><path class="a" d="M43.48,18.27c1-.66,1.9-1.33,2.85-2a2.51,2.51,0,0,0,2.6.34c-.61,1-1.18,2-1.74,3,.69,0,1.38,0,2.07,0,.07,1.2,0,2.44,0,3.66-.91.72-1.84,1.41-2.72,2.16a2.56,2.56,0,0,0-1.78-.6,2.92,2.92,0,0,0-1.56.8c.68-1.29,1.42-2.55,2.16-3.81h-1.6l-.32-.23V18.25M45.62,18v2.18a3.86,3.86,0,0,0,.86-.09c.4-.62.71-1.27,1.1-1.89a3.1,3.1,0,0,1-2-.2m-.94,5.72a3.88,3.88,0,0,1,2.53-.08V21.44H46c-.4.79-.86,1.52-1.27,2.27Z"/><path class="a" d="M78.68,18.52c1.16-.8,2.28-1.6,3.46-2.37.55.52,1.14,1,1.71,1.48l.46,0v5.13c-1.26.84-2.46,1.76-3.74,2.58a23.23,23.23,0,0,1-2.17-1.49l.29-.4v-4.9M80.8,18v4.59l.89.86.4-.49V19c-.46-.31-.89-.64-1.31-1Z"/><path class="a" d="M103.85,18.68c1.2-.73,2.26-1.67,3.49-2.3.75.46,1.27,1.35,2.18,1.48,0,1.67,0,3.34,0,5-1.2.94-2.52,1.73-3.73,2.65-.74-.48-1.46-1-2.19-1.5a1.4,1.4,0,0,0,.28-.86V18.68m2.07-.52v4.6c.3.25.58.52.89.74a1.25,1.25,0,0,0,.46-.32v-4l-1.35-1Z"/><path class="a" d="M110.08,18.22c.87-.72,1.84-1.32,2.75-2a3.27,3.27,0,0,0,2.61.37c-.61,1-1.13,2-1.72,3a8.45,8.45,0,0,1,2.13.11V23.2c-.92.76-1.88,1.46-2.8,2.22a2.29,2.29,0,0,0-1.67-.6c-.67-.06-1.16.45-1.65.8.68-1.3,1.45-2.55,2.17-3.83H110.1a30.58,30.58,0,0,1,0-3.6m2.09-.25v2.12H113c.34-.65.71-1.28,1.09-1.92a5.13,5.13,0,0,1-1.95-.22m.4,3.38c-.46.76-.87,1.54-1.34,2.3a4.85,4.85,0,0,1,2.51-.14V21.29a7,7,0,0,1-1.16.05Z"/><path class="a" d="M15.9,18.59c1.09-.72,2.14-1.5,3.23-2.22.69.9,1.36,1.83,2,2.73-1.06.8-2.1,1.6-3.15,2.36a6,6,0,0,0,0,1.2l1.69,1.2a17.72,17.72,0,0,1,1.5-1c-.86,1-1.83,1.91-2.72,2.89-.93-.59-1.85-1.2-2.8-1.75a2.52,2.52,0,0,0,.17-.8V18.59m2.12,0v2.34c.4-.29.78-.58,1.16-.88-.39-.5-.77-1-1.16-1.46Z"/><path class="a" d="M87.91,18.05c.54-.52,1-1.08,1.57-1.6.68.4,1.2,1.31,2.05,1.24l-.19.46c0,1.56,0,3.11,0,4.67l.4.66h.74c-.57.58-1.07,1.2-1.62,1.82-.53-.47-1.07-.92-1.58-1.41-.12-1.43,0-2.89-.05-4.33-.29-.34-.58-.66-.86-1l-.42.18v4c-.06.43.33.7.54,1-.49.55-1,1.1-1.49,1.64-.65-.44-1.3-.88-2-1.29.21-.31.42-.62.65-.92V18.92a1.1,1.1,0,0,0-1.12-.59,22.72,22.72,0,0,1,1.6-1.74C86.71,17.1,87.32,17.58,87.91,18.05Z"/><path class="a" d="M56.21,18.35c.5-.52,1-1,1.51-1.57.6.47,1.2.92,1.83,1.36l-.25.37v4.75a4.9,4.9,0,0,0,.68.48,8.22,8.22,0,0,0,1-.31c0-1.4,0-2.8,0-4.2a1,1,0,0,0-1.1-.68c.54-.56,1-1.16,1.58-1.74.58.52,1.2,1,1.81,1.47q.74-.82,1.53-1.6c.7.38,1.18,1.2,2,1.24a2.48,2.48,0,0,0-.2.8v3.86c0,.4.25.72.4,1.06l.82,0c-.56.59-1.1,1.2-1.62,1.81-.56-.47-1.1-.95-1.65-1.42V19.71c-.4-.27-.62-1-1.14-.9a13.08,13.08,0,0,0-.11,2.72c.08.83-.29,1.84.5,2.43-.57.59-1.1,1.2-1.64,1.81-.62-.48-1.24-1-1.85-1.48-.45.45-.92.89-1.4,1.31-.64-.45-1.13-1.29-2-1.2l.4-.54q0-2.3,0-4.59A2.24,2.24,0,0,0,56.21,18.35Z"/></svg>