<svg xmlns="http://www.w3.org/2000/svg" viewBox="0 0 90 40"><defs><style>.a{fill:#fff;}</style></defs><title>webmd_logo</title><path class="a" d="M86.41,11.55c-2.6-2.05-7.54-1.95-7.54-1.95H70.4c-1,0-1.33.07-1.27.49a.65.65,0,0,0,.53.34,1.24,1.24,0,0,1,1.09,1.11c0,.7.11,2.91.11,3.68V28.5A1.55,1.55,0,0,0,72.39,30h5.06a17.62,17.62,0,0,0,6.29-1.22A10.12,10.12,0,0,0,90,19.32,9.82,9.82,0,0,0,86.41,11.55ZM77.85,28.25h-.2c-1.18,0-2.4,0-3-.63a2,2,0,0,1-.48-1.48v-9.4c0-1.94,0-2.85,0-5a24.46,24.46,0,0,1,3.52-.24c2.23,0,4.57.3,6.55,2.46a8.26,8.26,0,0,1,2,5.73C86.18,24.92,82.91,28.25,77.85,28.25Zm-8.76,1A1.81,1.81,0,0,1,68,28c0-.37-.38-16.77-.38-16.77,0-.82,0-1.47-.2-1.55a9.66,9.66,0,0,0-1.74-.08,2.93,2.93,0,0,0-1.42.14,7.59,7.59,0,0,0-.71,1.55L62,14.59l-1.47,2.8L58.3,21.8a.74.74,0,0,1-1.45,0l-2.36-4.35L53,14.75l-1.64-3.52a9,9,0,0,0-.7-1.54,4.09,4.09,0,0,0-1.57-.12h-2c-1,0-1.44,0-1.38.43a.64.64,0,0,0,.53.34,1.38,1.38,0,0,1,.82,1.29c0,.37,0,15.31-.08,16a.71.71,0,0,1-.06.34h0a1.54,1.54,0,0,1-1.1,1.35.64.64,0,0,0-.53.34c-.07.42.39.43,1.38.43H50c1,0,1.45,0,1.39-.43a.64.64,0,0,0-.53-.34A1.56,1.56,0,0,1,49.74,28h0a9.65,9.65,0,0,1-.16-1.13c0-.82,0-2.24,0-3.09v-.29c0-.82,0-2.24,0-3.09L49.67,17c0-.82.37-.93.77-.19l2.21,4.09c.4.74,2.52,4.76,2.9,5.51a1.17,1.17,0,0,0,1.37.93h0c1.11,0,1.11-.29,1.57-1.28.34-.72,5.07-10,5.07-10,.38-.75.72-.68.74.16,0,0,.06,11.36,0,11.88v.17a1.47,1.47,0,0,1-1,1,.65.65,0,0,0-.53.34c-.07.42.39.43,1.38.43h4.09c1,0,1.45,0,1.39-.43A.67.67,0,0,0,69.1,29.28Z"/><path class="a" d="M24.56,11.65a2.56,2.56,0,0,1,.88-1.29A1,1,0,0,0,26.2,10c.07-.3-.2-.38-1.28-.38H21.65c-1,0-1.45,0-1.38.43a.65.65,0,0,0,.53.34c.94.26,1.57.74,1.28,1.73s-4.39,13-4.39,13c-.16.43-.56.56-.68-.09L14.89,14.86c-.18-.82-.38-1.9-.45-2.37a.9.9,0,0,0-.91-.67,1,1,0,0,0-.89.55c-.27.56-.82,1.64-1.2,2.41L6,25.15c-.22.38-.5.27-.54-.19l-.67-10.5c0-.82-.08-2.46-.07-2.72a1.45,1.45,0,0,1,1.1-1.4A.7.7,0,0,0,6.42,10C6.49,9.57,6,9.58,5,9.58H.92c-.65,0-1,.09-.92.43a.65.65,0,0,0,.53.34,1.43,1.43,0,0,1,.94.82,4.53,4.53,0,0,1,.16.44v.14a.71.71,0,0,0,0,.08A23.51,23.51,0,0,1,2,14.65l.89,12.83a9.9,9.9,0,0,0,.29,2.61c.25.53,1.45.5,1.92-.21C5.28,29.68,12,17,12,17c.39-.75.82-.69,1,.15L15.15,27.6a17.12,17.12,0,0,0,.55,2.29c.29.75,1.73.62,2.11-.11a20,20,0,0,0,1-2.32S24.33,12.32,24.56,11.65Zm17.75,4.91c-2.63,0-5,2.4-6.61,4.22a9.27,9.27,0,0,1,.38-1.54l2.46-8.19a1.09,1.09,0,0,0-1.09-1.48H35.39c-1,0-1.45,0-1.39.43a.65.65,0,0,0,.53.34c1,.28,1.31,1.38,1,2.57,0-.1-2.46,9.72-2.46,9.72a6.48,6.48,0,0,1-1.55,2.58s-3,3.63-6,3.63a2.18,2.18,0,0,1-2.39-2.28,9.27,9.27,0,0,1,.23-2.19c3.13-.29,8.73-1.74,8.73-5.73,0-1.64-1.55-2.08-2.86-2.08-4.24,0-8.42,5.17-8.42,9.82,0,2,.91,3.95,3.6,3.95,5.06,0,7.81-4.91,8-5.1a13.57,13.57,0,0,0-.25,2c0,2.14,1.56,3.13,3.48,3.13A8.51,8.51,0,0,0,40,29a12.59,12.59,0,0,0,2.95-2.46,9.94,9.94,0,0,0,2.74-6.26c0-2.18-1-3.68-3.31-3.68Zm-13.66,1a1.14,1.14,0,0,1,1.2,1.26c0,3.19-3.54,4.59-6.23,4.77C24.06,21.65,26.38,17.56,28.65,17.56ZM42,24.5A13.87,13.87,0,0,1,39.52,28a5,5,0,0,1-3.32,1.64c-1.34,0-1.78-1.29-1.78-2.46,0-3.27,3.57-9.36,7.19-9.36,1.34,0,1.75.93,1.75,2A11.21,11.21,0,0,1,42,24.48Z"/></svg>