<svg xmlns="http://www.w3.org/2000/svg" viewBox="0 0 92.93 40"><title>wired</title><path d="M0,10.5H18.59v19H0v-19m1.37,3c.83,3.87,1.57,7.75,2.38,11.62.14.47,0,1,.5,1.38a10.12,10.12,0,0,0,2.46,0c.45,0,.55-.5.63-.84.56-2.76,1.17-5.51,1.73-8.26a2.58,2.58,0,0,1,.22-.68c.7,2.95,1.27,5.93,1.91,8.91.1.32.11.7.42.9a10.84,10.84,0,0,0,2.67,0c.32-.19.33-.58.41-.9.82-4,1.58-8.09,2.45-12.12H14.83C14.21,17,13.71,20.54,13,24c-.77-3-1.29-6-2-9-.16-.51-.08-1.26-.64-1.51a14.3,14.3,0,0,0-2.07,0c-.39,0-.47.49-.55.79-.62,3-1.27,5.94-1.88,8.91a5.47,5.47,0,0,1-.26.81C5,20.53,4.44,17,3.9,13.49Z" style="fill:#fff"/><path d="M37,10.5H55.61v19H37v-19m4.2,3v13H43.8V21.41H48a1,1,0,0,1,1.1.88c.06,1.41.19,2.81.27,4.23h2.45c-.23-1.59,0-3.25-.4-4.81-.22-.81-1.13-1-1.83-1.2.52-.28,1.19-.3,1.58-.82a4,4,0,0,0,.58-2.49,4.69,4.69,0,0,0-.62-2.93,2.67,2.67,0,0,0-2.24-.8Z" style="fill:#fff"/><path d="M74.1,10.5H92.93v19H74.1v-19m4.2,3v13h6.5c1.33,0,2.89-.27,3.69-1.47.94-1.5.8-3.34,1-5-.16-1.69,0-3.54-1-5a4.12,4.12,0,0,0-3.43-1.45C82.8,13.46,80.54,13.49,78.3,13.48Z" style="fill:#fff"/><path d="M23.32,13.36h9v2.33H29.13v8.62h3.18v2.33h-9V24.31h3.18V15.69H23.32C23.31,14.91,23.31,14.13,23.32,13.36Z" style="fill:#fff"/><path d="M58.94,13.36H70v4.33H67.57v-2h-4.3v3h3.48v2.22H63.27v3.42h4.42V22.05h2.42v4.61H58.94V24.33h1.78V15.7H58.94Q58.93,14.52,58.94,13.36Z" style="fill:#fff"/><path d="M43.8,15.62h5c.64.46.51,1.36.54,2.07s0,1.61-.87,1.66c-1.54.08-3.1,0-4.63,0Z" style="fill:#fff"/><path d="M80.88,15.62h4.2a1.52,1.52,0,0,1,1.52.94,12.85,12.85,0,0,1,.3,3.91,7.94,7.94,0,0,1-.37,3.1,1.73,1.73,0,0,1-1.69.79h-4Z" style="fill:#fff"/></svg>