<svg id="Camada_1" data-name="Camada 1" xmlns="http://www.w3.org/2000/svg" viewBox="0 0 200 200"><defs><style>.cls-1{fill:#fff;}</style></defs><title>wsj</title><path class="cls-1" d="M118.37,46.26a37.88,37.88,0,0,1,6.1,1.56c2.67,1.16,5.15,2.75,7.87,4.24a23.79,23.79,0,0,0,1.5-2.91c.61-1.64,1.64-2.25,3.45-1.7v36.3h-3.57c0-1.73.06-3.38,0-5-.28-6.47-1.05-12.86-4-18.74-2.45-4.83-6.08-8.18-11.71-8.81-7.29-.82-12.28,3.44-13,10.78a21.38,21.38,0,0,0,7.1,18.57c3.53,3.3,7.29,6.35,11,9.41,5.7,4.68,11.26,9.53,14.74,16.15,5.8,11.05,7.21,22.63,2.58,34.41-3.06,7.78-9.43,11.71-17.52,12.87S107.51,153,101,148.15c-.31-.23-.66-.41-1.14-.71A27.32,27.32,0,0,0,98.17,151c-.55,1.83-1.64,2.35-3.53,1.77V116.66h3.29c.14,2.27.22,4.58.42,6.88.52,6,1.79,11.77,5.15,16.87,3.13,4.77,7.31,8.18,13.25,8.43,7,.29,12.26-2.12,14-10.11,2.27-10.35-.71-19.31-7.85-26.82a138.79,138.79,0,0,0-12.21-10.82c-5.17-4.29-10.1-8.81-13.12-14.91-5.16-10.4-5.8-20.92.43-31.14,3-5,7.84-7.56,13.56-8.48a10.16,10.16,0,0,0,1.11-.31Z"/><path class="cls-1" d="M45.67,92.93,33.46,153.34c-1.76,0-3.47.07-5.17-.06-.37,0-.89-.73-1-1.19Q23.58,133.56,19.93,115,14.33,86.73,8.71,58.46c-1.33-6.61-2.06-7.19-8.71-8V46.77H28.49v3.73l-2.35.36c-2.15.32-3.19,1.2-3.12,3.38A52.21,52.21,0,0,0,23.94,62q5.46,29.58,11,59.14c0,.11.07.21.39.38.3-1.51.61-3,.89-4.54,2.21-12,4.54-24,6.52-36.07.4-2.46-.37-5.15-.83-7.7-1-5.57-2.07-11.14-3.28-16.67-1.05-4.8-1.78-5.34-6.64-6.06V46.76H60.07v3.73c-1.05.14-2.14.23-3.21.44-2.16.41-3.31,1.37-3.32,3.52a41.34,41.34,0,0,0,.78,7.9q5.47,28.56,11.08,57.08a2.85,2.85,0,0,0,.59,1.34c.43-2.21.88-4.42,1.28-6.64q5-27,9.89-53.92a19.14,19.14,0,0,0,.34-5c-.23-2.76-1.43-3.87-4.19-4.35-1.09-.19-2.2-.26-3.37-.39,0-.38-.11-.75-.12-1.13,0-.83,0-1.65,0-2.6H93.62v3.88h-2.1c-3.52,0-6,1.68-7,5.07C83.31,60.1,82.3,64.54,81.37,69q-8.61,41.35-17.15,82.71c-.1.49-.24,1-.39,1.54H57.91L46,93Z"/><path class="cls-1" d="M156.59,136.85c.45,8.21,7.35,13.4,14.69,11.22a6.79,6.79,0,0,0,4.78-5.29,28,28,0,0,0,1-6.57q.12-39.79.07-79.58c0-4.21-1.84-6-6-6h-2.26v-3.9H200v3.8a40.08,40.08,0,0,0-4.12.31,4.58,4.58,0,0,0-4.08,4.39,26.64,26.64,0,0,0-.1,3c0,23.69,0,47.38-.06,71.07a38.24,38.24,0,0,1-1.18,9.71c-2.16,8-7.89,12.24-15.79,13.68-4.61.84-9.28,1.21-13.75-.88-6.86-3.2-10.29-8.91-11.5-16.11-.67-4-.85-8,1.07-11.74,1.76-3.45,5.52-5.45,8.92-4.75a6.54,6.54,0,0,1,5.14,4.49,9.47,9.47,0,0,1-6.77,12.83Z"/></svg>