<svg id="Camada_1" data-name="Camada 1" xmlns="http://www.w3.org/2000/svg" viewBox="0 0 90 40"><defs><style>.cls-1{fill:#fff;}</style></defs><title>yahoo</title><path class="cls-1" d="M88.84,9.8A1.24,1.24,0,0,1,90,11.07a5,5,0,0,1-.16.86c-.47,2-2.27,9.24-3,14.05l-.71-.7,2.23-14.79Z"/><path class="cls-1" d="M43.83,11.76a5.81,5.81,0,0,1-2.75,0l1.43,1.47Z"/><path class="cls-1" d="M29.56,11.76a5.81,5.81,0,0,0,2.75,0l-1.44,1.47Z"/><path class="cls-1" d="M21.46,11.74c2.1,5.34,5.42,13.4,7.08,16.5l-2.43-.74-6-15.15Z"/><path class="cls-1" d="M19.58,11.74a2.62,2.62,0,0,0,1.91,0l-1.35.85Z"/><path class="cls-1" d="M20.55,12.33l6.14,15.12a3.45,3.45,0,0,1-.87.79C24,23.64,22.11,19,20.48,14.49l-.8-1.37Z"/><path class="cls-1" d="M15.25,28.23l-1.83-.64,6.39-15,.71-.22v2.23c-1,2.9-3.53,9.18-5.3,13.67Z"/><path class="cls-1" d="M13.74,9.56l.58,1.37,1.53-.71.65-.66a5.65,5.65,0,0,1-2.77,0Z"/><path class="cls-1" d="M9.4,21.53l-1.05.38-.66-1.16,6.54-10.44.47-.17a6,6,0,0,0,1.8-.58C15.47,11,11.7,17.52,9.4,21.53Z"/><path class="cls-1" d="M8,21.37l.27-.28L14.7,10.14l-1-.58C13,11,10.08,15.71,8.24,18.72l-.88,1.65Z"/><path class="cls-1" d="M2.75,9.56c1.43,2.54,3.63,6.09,5.49,9.17v2.36l-.44.43L1.37,10.1Z"/><path class="cls-1" d="M1.69,10.25l1.06-.69A5.14,5.14,0,0,1,0,9.56l.44.49Z"/><path class="cls-1" d="M8.24,21.1l-.5.7-.66-.28C5.86,19.42,2.25,13,0,9.56a4.12,4.12,0,0,0,1.8.62Z"/><path class="cls-1" d="M9.56,30.38,7.69,29.5l.16-7.8.39-.58,1.16.44Z"/><path class="cls-1" d="M8.24,29.77l-1.32.58.16-8.84,1.16-.44Z"/><path class="cls-1" d="M12.52,28.24c2.33-4.68,4.84-10.94,7.06-16.49l1,.58-6.26,15.3L13,28.07Z"/><path class="cls-1" d="M26.64,27.42l1.92.82a5.53,5.53,0,0,0-2.74,0l.38-.93Z"/><path class="cls-1" d="M16.24,22.83l1.35-.58q2.91.11,5.85,0l1.37.58-1.28.28h-6.3Z"/><path class="cls-1" d="M17.16,23.4l-.9-.58q4.27-.06,8.57,0l-.89.58C21.67,23.33,19.42,23.34,17.16,23.4Z"/><path class="cls-1" d="M32.31,28.24l-1.92-.66V12.8l.55-.28,1.37-.76A156.2,156.2,0,0,0,32.31,28.24Z"/><path class="cls-1" d="M30.93,27.47v.38l-1.37.38c.22-5.48.23-11,0-16.48l1.37.77Z"/><path class="cls-1" d="M41.1,28.24,43,27.58V12.8l-.56-.28-1.36-.76A161.77,161.77,0,0,1,41.1,28.24Z"/><path class="cls-1" d="M30.94,20l1.16-.52c3.07.08,6.14.07,9.22,0l1.16.52L41,20.29h-9Z"/><path class="cls-1" d="M53.53,11.74c-5.4,0-8.12,3.38-8.12,8.28,0,6.15,4.06,8.27,8,8.27,4.68,0,8-2.63,8-8.25,0-5.4-3.18-8.3-8-8.3Zm-.16.79h.15c3.56,0,6.18,2.42,6.18,7.5s-2.61,7.51-6.17,7.51c-3.89,0-6.17-2.78-6.17-7.48,0-5.31,2.82-7.45,6-7.54Z"/><path class="cls-1" d="M53.51,11.53c-5.8,0-8.89,3.69-8.89,8.48,0,5.22,3.34,8.44,8.88,8.44,6,0,8.91-3.6,8.91-8.4,0-5.33-3.48-8.54-8.91-8.54Zm0,.54c4.6,0,7.65,2.77,7.65,8,0,5.4-3.22,7.93-7.72,7.93-3.79,0-7.7-2-7.7-7.94C45.74,15.31,48.33,12.07,53.51,12.07Z"/><path class="cls-1" d="M73.67,10.9c-5.47,0-9.22,3.1-9.22,9.13s3.48,9.23,9.25,9.23c4.36,0,9.14-2.24,9.14-9.14,0-7.45-5.22-9.22-9.17-9.22Zm0,.66c4.35,0,7.54,2.66,7.54,8.49,0,6.35-3.88,8.4-7.54,8.4-3.93,0-7.5-2.32-7.5-8.53,0-6.45,3.95-8.36,7.49-8.36Z"/><path class="cls-1" d="M73.63,10.54c-5.8,0-10.24,3.3-10.24,9.42,0,5.05,3,9.49,10.28,9.49,6.22,0,10.27-3.41,10.27-9.4,0-5.65-3.79-9.52-10.32-9.52Zm0,.58c3.84,0,8.92,1.74,8.92,9,0,6.71-4.64,8.89-8.89,8.89-5.61,0-9-3.21-9-9s3.65-8.87,9-8.87Z"/><path class="cls-1" d="M84.39,29.18a1.28,1.28,0,0,1,1.17-1.37h.12a1.29,1.29,0,0,1,1.44,1.12c0,.05,0,.11,0,.16a1.21,1.21,0,0,1-1.07,1.34h-.2c-.83,0-1.51-.43-1.51-1.26Z"/><path class="cls-1" d="M85.77,25.8c.67-4.73,1.08-9.71,1.47-14.67a1.25,1.25,0,0,1,1.12-1.37h.49L88.67,11l-2.32,14.7Z"/><path class="cls-1" d="M6.92,30.38l1.32-1,1.32,1a9.52,9.52,0,0,0-1.32-.14A9.85,9.85,0,0,0,6.92,30.38Z"/><path class="cls-1" d="M12.52,28.24l1.84-.8a2.89,2.89,0,0,0,.88.79,5.69,5.69,0,0,0-2.72,0Z"/><path class="cls-1" d="M29.56,28.24a5.77,5.77,0,0,1,2.74,0l-1.37-.77Z"/><path class="cls-1" d="M32.1,20.58,30.94,20c3.84,0,7.68.05,11.52,0l-1.16.58Q36.71,20.51,32.1,20.58Z"/><path class="cls-1" d="M42.46,27.47v.38l1.37.38c-.22-5.48-.23-11,0-16.48l-1.37.77Z"/><path class="cls-1" d="M43.83,28.24a5.77,5.77,0,0,0-2.74,0l1.37-.77Z"/><path class="cls-1" d="M86.39,25.26l-.58.58a1.75,1.75,0,0,1,1,.16Z"/><path class="cls-1" d="M90,11a1.35,1.35,0,0,1-2.68,0A1.35,1.35,0,0,1,90,11Z"/></svg>