<svg id="Camada_1" data-name="Camada 1" xmlns="http://www.w3.org/2000/svg" viewBox="0 0 90.62 40"><defs><style>.cls-1{fill:#fff;}</style></defs><g id="Layer_2" data-name="Layer 2"><g id="Layer_3" data-name="Layer 3"><path class="cls-1" d="M83.32,28.24h7.3V11.76H85.37l.28,3.57c.11,1.23.2,2.46.3,3.68v.21H84.48l-.08-.16c-.29-1.36-.74-3.4-1-4.73l-.43-1.89-.15-.68h-6.5V28.24h4.9l-1-8.84h1.52Z"/><rect class="cls-1" x="68.03" y="11.74" width="5.37" height="16.5"/><polygon class="cls-1" points="65.14 11.74 57.34 11.74 56.54 20.55 55.08 20.55 53.93 11.74 46.37 11.74 46.37 28.26 51.05 28.26 50.2 19.33 51.85 19.33 53.4 28.26 58.29 28.26 59.81 19.33 61.36 19.33 60.52 28.26 65.14 28.26 65.14 11.74"/><path class="cls-1" d="M20,5.62V34.36l16.19,2,5.34.65V3Zm16,25L25.54,29.35V10.63L35.93,9.38Z"/><path class="cls-1" d="M0,29v5.37H17.13V5.61L0,3.44V23.78H0l11.56-1.16V29ZM5.62,17.86V10l6,.42v7.1Z"/></g></g></svg>