<svg id="Camada_1" data-name="Camada 1" xmlns="http://www.w3.org/2000/svg" viewBox="0 0 100 40"><defs><style>.cls-1{fill:#fff;}</style></defs><g id="Layer_2" data-name="Layer 2"><g id="Layer_3" data-name="Layer 3"><path class="cls-1" d="M90.27,28.72H98V11.27H92.44l.3,3.78c.11,1.31.21,2.61.32,3.9v.22H91.5L91.42,19c-.31-1.44-.79-3.6-1.11-5l-.45-2-.16-.72H82.82V28.72H88l-1.1-9.36h1.61Z"/><rect class="cls-1" x="74.08" y="11.25" width="5.69" height="17.47"/><polygon class="cls-1" points="71.02 11.25 62.76 11.25 61.92 20.58 60.37 20.58 59.15 11.25 51.15 11.25 51.15 28.75 56.1 28.75 55.2 19.29 56.95 19.29 58.59 28.75 63.77 28.75 65.38 19.29 67.02 19.29 66.13 28.75 71.02 28.75 71.02 11.25"/><path class="cls-1" d="M23.21,4.77V35.21l17.14,2.1L46,38V2ZM40.09,31.23l-11-1.33V10.08l11-1.32Z"/><path class="cls-1" d="M2.05,29.52v5.69H20.19l0-30.45L2.07,2.47V24h0l12.24-1.23v6.76ZM8,17.73V9.41l6.33.45v7.51Z"/></g></g></svg>