<svg id="Camada_1" data-name="Camada 1" xmlns="http://www.w3.org/2000/svg" viewBox="0 0 70 40"><defs><style>.cls-1{fill:#fff;}</style></defs><g id="Layer_2" data-name="Layer 2"><g id="Layer_3" data-name="Layer 3"><path class="cls-1" d="M64.36,26.36H70V13.63H66l.21,2.75c.09,1,.16,1.9.23,2.85v.16H65.26l-.06-.12c-.23-1.05-.57-2.63-.77-3.66l-.34-1.46L64,13.63H59V26.36h3.78L62,19.53h1.17Z"/><rect class="cls-1" x="52.55" y="13.61" width="4.15" height="12.75"/><polygon class="cls-1" points="50.32 13.61 44.29 13.61 43.67 20.42 42.55 20.42 41.66 13.61 35.82 13.61 35.82 26.37 39.44 26.37 38.78 19.47 40.05 19.47 41.25 26.37 45.03 26.37 46.2 19.47 47.4 19.47 46.75 26.37 50.32 26.37 50.32 13.61"/><path class="cls-1" d="M15.45,8.88v22.2L28,32.63l4.12.5V6.87ZM27.81,28.19l-8.08-1V12.75l8-1Z"/><path class="cls-1" d="M0,26.94v4.15H13.23V8.87L0,7.2V23H0l8.93-.87V27Zm4.38-8.6V12.27L9,12.59v5.49Z"/></g></g></svg>