<svg id="Camada_1" data-name="Camada 1" xmlns="http://www.w3.org/2000/svg" viewBox="0 0 120 40"><defs><style>.cls-1{fill:#fff;}</style></defs><path class="cls-1" d="M31.43,13.23a5.38,5.38,0,0,0-5.55,4.86l-.47,3.77c-.36,2.95,1.39,4.91,4.37,4.91a5.41,5.41,0,0,0,5.59-4.91l.45-3.77C36.18,15.19,34.43,13.23,31.43,13.23Zm1.38,4.82L32.32,22A2.24,2.24,0,0,1,30.1,24.1c-1.15,0-1.83-.85-1.66-2.15l.47-3.9a2.26,2.26,0,0,1,2.2-2.15A1.71,1.71,0,0,1,32.81,18.05Z"/><path class="cls-1" d="M19.87,13.38H15.33a.36.36,0,0,0-.38.34L13.41,26.23a.28.28,0,0,0,.3.34h4.54c2.88,0,5-1.64,5.33-4.13l.6-4.94C24.48,15,22.75,13.38,19.87,13.38ZM21.09,18l-.47,3.88a2.05,2.05,0,0,1-1.92,2H16.86a.12.12,0,0,1-.12-.13l.94-7.57a.16.16,0,0,1,.14-.14h1.82C20.66,16.05,21.24,16.83,21.09,18Z"/><path class="cls-1" d="M44,13.38H38.65a.36.36,0,0,0-.38.34L36.73,26.23a.27.27,0,0,0,.3.33H39.4a.35.35,0,0,0,.36-.33l.5-3.91a.27.27,0,0,1,.2-.22l1.24-.3a.18.18,0,0,1,.21.12l1.37,4.38h0a.32.32,0,0,0,.36.26h2.51a.29.29,0,0,0,.3-.39s-1.34-3.83-1.67-4.8a.26.26,0,0,1,.13-.32,4.6,4.6,0,0,0,2.59-3.58A3.35,3.35,0,0,0,44,13.38Zm.52,4a1.86,1.86,0,0,1-1.54,1.83l-2.2.55h-.05a.12.12,0,0,1-.1-.14L41,16.19h0a.15.15,0,0,1,.13-.14h2C44.15,16.05,44.55,16.67,44.48,17.4Z"/><path class="cls-1" d="M12.08,26.23,9.74,14.94h0l-.3-1.46a.33.33,0,0,0-.36-.25H6.69a.32.32,0,0,0-.34.38l.23,1.15L0,26.23c-.1.2,0,.34.22.34H2.74a.62.62,0,0,0,.54-.32l.57-1L4.9,25h0l3.63-.87L9,26.25a.4.4,0,0,0,.38.32h2.41c.25,0,.36-.14.32-.34ZM5.69,22.69l-.44.1,2.2-3.85.66,3.17Z"/><path class="cls-1" d="M109.28,13.38h-1.23a.35.35,0,0,0-.34.19L104,18.62c0,.07-.09.07-.11,0l-2.45-5.05a.3.3,0,0,0-.3-.19H99.91a.32.32,0,0,0-.32.28L98.05,26.28a.24.24,0,0,0,.24.29H99.5a.31.31,0,0,0,.3-.29L101,16.71c0-.09.09-.11.13,0L103,20.86a.32.32,0,0,0,.3.19h.59a.41.41,0,0,0,.35-.19l3-4.18c.06-.08.13-.06.11,0l-1.16,9.57a.11.11,0,0,0,0,.08.22.22,0,0,0,.23.21h1.21a.32.32,0,0,0,.32-.29l1.54-12.62A.23.23,0,0,0,109.28,13.38Z"/><path class="cls-1" d="M97.57,13.38H89.62a.31.31,0,0,0-.32.28L87.76,26.28a.23.23,0,0,0,.24.29h8a.31.31,0,0,0,.3-.29l.13-1a.23.23,0,0,0-.24-.28H89.75s-.07,0-.07-.09l.51-4.11h0a.08.08,0,0,1,.09-.08h4.35a.33.33,0,0,0,.32-.29l.11-1a.23.23,0,0,0-.24-.29H90.47a.08.08,0,0,1-.08-.09l.49-4a.12.12,0,0,1,.12-.1h6.36a.3.3,0,0,0,.32-.28l.12-1C97.81,13.49,97.72,13.38,97.57,13.38Z"/><path class="cls-1" d="M54.41,13.23a5.38,5.38,0,0,0-5.56,4.86l-.47,3.77h0c-.36,2.95,1.39,4.91,4.37,4.91a5.41,5.41,0,0,0,5.59-4.91l.45-3.77C59.15,15.19,57.4,13.23,54.41,13.23Zm1.37,4.82L55.29,22h0a2.24,2.24,0,0,1-2.22,2.15c-1.15,0-1.83-.85-1.66-2.15l.47-3.9a2.26,2.26,0,0,1,2.21-2.15A1.71,1.71,0,0,1,55.78,18.05Z"/><path class="cls-1" d="M120,26.24,117.56,13.6h0a.25.25,0,0,0-.28-.22H115.6a.34.34,0,0,0-.34.22l-5.5,12.64c-.09.21,0,.33.17.33h1.3a.36.36,0,0,0,.34-.23l.91-2.11a.09.09,0,0,1,.09-.08h5.1c.06,0,.06,0,.08.08l.38,2.11h0a.26.26,0,0,0,.28.23h1.32A.25.25,0,0,0,120,26.24Zm-2.6-3.52h-4.18c-.06,0-.09,0-.06-.11l3-7c0-.09.1-.09.11,0l1.25,7A.08.08,0,0,1,117.39,22.72Z"/><path class="cls-1" d="M66,13.23a4.77,4.77,0,0,0-5,4.29l-.6,4.88h0c-.32,2.6,1.26,4.33,3.92,4.33a4.72,4.72,0,0,0,4.95-4.2l0-.09c0-.06-.09-.08-.26-.1l-1.19-.07c-.19,0-.3.07-.3.21a2.94,2.94,0,0,1-3,2.67,2.22,2.22,0,0,1-2.39-2.67l.62-5a3,3,0,0,1,3-2.68,2.19,2.19,0,0,1,2.35,2.68v.11c0,.07.08.13.25.11l1.22-.07c.17,0,.28-.1.3-.23C70.26,14.89,68.7,13.23,66,13.23Z"/><path class="cls-1" d="M74.47,13.38H73.26a.32.32,0,0,0-.32.28L71.4,26.28a.23.23,0,0,0,.24.29h1.21a.31.31,0,0,0,.3-.29l1.54-12.62C74.71,13.49,74.62,13.38,74.47,13.38Z"/><path class="cls-1" d="M86.62,13.38H85.41a.3.3,0,0,0-.3.28L84,22.85c0,.1-.09.12-.11,0l-4.45-9.32a.3.3,0,0,0-.3-.19H78a.32.32,0,0,0-.32.28L76.09,26.28h0a.23.23,0,0,0,.24.29h1.21a.31.31,0,0,0,.3-.29L79,17c0-.09.09-.11.11,0l4.45,9.38a.32.32,0,0,0,.3.19H85a.32.32,0,0,0,.32-.29l1.54-12.62A.23.23,0,0,0,86.62,13.38Z"/></svg>