<svg id="Calque_1" data-name="Calque 1" xmlns="http://www.w3.org/2000/svg" viewBox="0 0 100 40"><defs><style>.cls-1{fill:#fff;}</style></defs><path class="cls-1" d="M47.73,19.33H44.38V14.64h3.55c1.74,0,2.48.8,2.48,2.41s-.87,2.28-2.48,2.28m.47-8.71H39.69V29.38h4.69V24h4.29c1.94,0,6.7-.67,6.7-6.57s-4.76-6.56-6.7-6.56M28.31,20h8.37l-2.61,4H28.31v5.36H23.62V10.62H36.34v4h-8Zm-8-9.38V29.38H15.58v-4H7.07l-2.68,4H.11L12.3,10.62h8Zm-4.69,4H14.44l-4.35,6.7h5.49ZM73.05,6a14,14,0,1,0,14,14,14,14,0,0,0-14-14"/></svg>