<svg id="Camada_1" data-name="Camada 1" xmlns="http://www.w3.org/2000/svg" viewBox="0 0 63 40"><defs><style>.cls-1{fill:#fff;}</style></defs><path class="cls-1" d="M0,16.59V29.07H12.45V25H4.59V4.12H0Z"/><path class="cls-1" d="M39.5,10.19a9.69,9.69,0,0,0-2.09,1.22l-1.11.9v-2H32.24V35.88h4.33V31.77a15.9,15.9,0,0,1,.25-4.07,7.92,7.92,0,0,1,1.65.88c2.76,1.7,5.61.92,6.69-1.88.41-1.11.49-2.11.49-7.12,0-5.66,0-5.85-.68-7.15a5.28,5.28,0,0,0-1.35-1.82A5.17,5.17,0,0,0,39.5,10.19Zm1.11,3.47c.79.85.9,1.69.79,6.78-.08,4.34-.11,4.54-.73,5.21q-1.23,1.3-3,.09l-.92-.63V14.31l.92-.62C38.79,12.88,39.91,12.88,40.61,13.66Z"/><path class="cls-1" d="M54.52,10.1a6.55,6.55,0,0,0-4,2.41c-.68,1-1.3,2.87-1,3.11a7.85,7.85,0,0,0,2.11.16c1.9,0,2,0,2.17-.68a2.58,2.58,0,0,1,3.29-1.57,2.55,2.55,0,0,1,.71.38c.6.46.71.78.71,1.84v1.3l-2.9,1.11c-5,1.93-6.72,3.77-6.7,7.06a3.9,3.9,0,0,0,1.84,3.66,3.8,3.8,0,0,0,2.57.54,7.15,7.15,0,0,0,4.58-1.63c.55-.4.57-.38.76.41l.19.84H63l-.14-7.78c-.13-8.27-.21-8.7-1.54-9.89S56.79,9.62,54.52,10.1Zm4,12.16V24.7l-1,.71a5,5,0,0,1-2,.87,1.66,1.66,0,0,1-1.76-.54c-1.46-1.47-.51-3.31,2.52-4.89,1.09-.54,2-1,2.09-1a15,15,0,0,1,.16,2.41Z"/><path class="cls-1" d="M15.43,18.15A81,81,0,0,0,15.7,27a3.88,3.88,0,0,0,4.83,2.41,11.26,11.26,0,0,0,2.38-1.25,8.48,8.48,0,0,1,1.55-.95c.1,0,.13.44,0,.95l-.16,1h4.39V10.36H24.37V24.67l-1.13.84c-1.36,1-2.47,1.08-3,.24-.38-.51-.43-1.76-.43-8v-7.4H15.43Z"/></svg>