<svg id="Camada_1" data-name="Camada 1" xmlns="http://www.w3.org/2000/svg" viewBox="0 0 100 40"><defs><style>.cls-1{fill:#fff;}</style></defs><path class="cls-1" d="M6.48,2.71a9.25,9.25,0,0,0,1,4.62,14.39,14.39,0,0,0,4.79,5.51c2.24,1.4,3.83,1.71,8.89,1.71h4.53l1.66,4.95L29,24.45l1.67-4.87,1.65-4.89,26.58-.14,26.57-.14,1.9-.9A12.37,12.37,0,0,0,94.53,2c0-1.56,0-1.76-.56-1.76s-.56.2-.56,1.73A11.13,11.13,0,0,1,87,12.42l-1.82.87-26.85.14-26.86.14L30.2,17c-.68,1.91-1.29,3.28-1.35,3.08s-.64-1.79-1.23-3.52L26.5,13.48l-5.34-.11c-5.37-.08-5.37-.08-7.24-1A10.9,10.9,0,0,1,8.57,7.05a9.46,9.46,0,0,1-1-4.48C7.48.22,7.43,0,6.92,0S6.36.14,6.48,2.71Z"/><path class="cls-1" d="M41.25,19.3a7.53,7.53,0,0,1-1.82.87,4.89,4.89,0,0,0-1.68.81c0,.14.39.36.84.53l.84.28v9.09c0,5,.08,9.12.19,9.12a2.69,2.69,0,0,0,.84-.62c.62-.58.73-.58,2-.22a8.1,8.1,0,0,0,5.59,0,6.53,6.53,0,0,0,3.5-6,5.81,5.81,0,0,0-5.93-6.1,4.34,4.34,0,0,0-2.66.59l-1.09.64L42,23.66c.14-3.77.08-4.64-.2-4.64A.67.67,0,0,0,41.25,19.3Zm5.93,9.54c1.09,1,1.48,2.24,1.48,4.64,0,3.47-1.21,5.4-3.3,5.4a3.74,3.74,0,0,1-2.77-1.2c-.62-.53-.65-.78-.65-4.28V29.71l1-.9a2.16,2.16,0,0,1,2.24-.75A3.78,3.78,0,0,1,47.18,28.84Z"/><path class="cls-1" d="M57.19,19.44a7.62,7.62,0,0,1-2,.9c-1.63.5-1.85.81-.79,1.09a1.59,1.59,0,0,1,1,.67c.36.7.36,14.57,0,15.52a1.36,1.36,0,0,1-1.12.87c-.45.11-.84.34-.84.5s1,.34,3.36.34c2.57,0,3.36-.09,3.36-.36s-.26-.37-.54-.37a1.46,1.46,0,0,1-1-.45c-.4-.36-.45-1.65-.45-9.79,0-5.14-.09-9.34-.2-9.34A2.23,2.23,0,0,0,57.19,19.44Z"/><path class="cls-1" d="M5.41,20.11c-.3.31,0,.56.81.73a5.87,5.87,0,0,1,1.54.59c.62.39.62.42.62,8.22,0,8.5,0,8.48-1.62,8.84-1.24.25-1.46.36-1.46.61a21,21,0,0,0,4.62.26c3.13,0,4.58-.12,4.53-.31s-.48-.36-.93-.48c-2-.39-2.07-.5-2.07-4V31.44h2.33c2.82,0,4.53-.56,5.87-2a5.5,5.5,0,0,0,1.51-4.59,4.79,4.79,0,0,0-2.91-4c-1.4-.7-1.65-.73-7.07-.75C8.07,20,5.47,20.06,5.41,20.11ZM16.6,21.79a5.54,5.54,0,0,1,1.48,4.53c-.33,2.88-2,4.25-4.89,4.11l-1.6-.08L11.51,26c-.08-5.14-.08-5.14,2.66-5A3.42,3.42,0,0,1,16.6,21.79Z"/><path class="cls-1" d="M63.62,21.26a1.28,1.28,0,0,0,.79,2.18c1,.11,1.59-.36,1.59-1.31A1.3,1.3,0,0,0,63.62,21.26Z"/><path class="cls-1" d="M65.3,27.13a7.13,7.13,0,0,1-1.82.87c-1.59.59-2.26,1.37-1.17,1.37s1.17.56,1.17,4.34c0,3.94-.25,4.78-1.48,4.95-.34.05-.62.19-.62.36s1.29.28,3.31.31c2.54,0,3.27-.06,3.27-.36s-.25-.37-.53-.37a1.6,1.6,0,0,1-1-.45C66,37.73,66,37,66.06,32.28c0-4.06,0-5.43-.26-5.43A.7.7,0,0,0,65.3,27.13Z"/><path class="cls-1" d="M74.14,27.27a6.94,6.94,0,0,0-3.69,3.28,7.91,7.91,0,0,0,0,5.67,7,7,0,0,0,3.19,3.19,6.57,6.57,0,0,0,6.43-1.31c.81-.87.31-1.29-.64-.56a5.07,5.07,0,0,1-2.3.73c-2.77.19-4.42-1.65-4.42-5C72.71,29.71,73.78,28,76,28c1.12,0,1.29.09,1.93,1.15s.84,1.12,1.62,1c1.57-.14,1.34-1.7-.33-2.6A8.43,8.43,0,0,0,74.14,27.27Z"/><path class="cls-1" d="M87.2,27.33c-1.9.64-3.63,2.18-3.52,3.13.17,1.43,2.46.84,2.46-.64,0-.76.25-1.12,1-1.54a1.53,1.53,0,0,1,2.18.39c.58.56.7.95.7,2.21v1.51l-1.46.51c-3.75,1.2-5.4,2.54-5.4,4.36A1.93,1.93,0,0,0,84,39.08c.7.61,1,.7,2.52.58A4.45,4.45,0,0,0,89.05,39l.81-.58.64.67a2.56,2.56,0,0,0,3.19.16c1.29-.86,1.37-1.7.14-1.14-.53.22-.78.22-1.14-.09s-.45-.86-.28-4.44c.19-4.4.08-4.95-1.23-5.93A4.31,4.31,0,0,0,87.2,27.33Zm2.58,8.19c0,1.71-.09,2-.62,2.35-1.2.76-2.07.84-2.71.2-1.2-1.2-.53-3,1.48-4C89.72,33.29,89.78,33.34,89.78,35.52Z"/><path class="cls-1" d="M26.14,27.3c-.17.06-1,.2-1.93.34-1.73.19-2.55.89-1.09.89s1.48.37,1.51,4.34c0,4.25.28,5.31,1.65,6.23a4.73,4.73,0,0,0,5.15-.33l1-.76v1c0,1.15,0,1.15,1,.59a8.85,8.85,0,0,1,2-.59c1.2-.16,1.76-1,.7-1S35,37.54,35,32.22V27.08l-.61.16c-.37.09-1.43.26-2.38.37-1.2.11-1.76.28-1.76.53s.3.39.78.39c1.34,0,1.45.37,1.45,4.48,0,3.38,0,3.89-.53,4.3a3.8,3.8,0,0,1-3,.76c-1.49-.28-1.82-1.45-1.82-6.55C27.12,27.1,27.06,26.91,26.14,27.3Z"/></svg>