<svg id="Camada_1" data-name="Camada 1" xmlns="http://www.w3.org/2000/svg" viewBox="0 0 100 40"><defs><style>.cls-1{fill:#fff;}</style></defs><title>logolupa</title><path class="cls-1" d="M17.19,4.23,16,4.39l-.08,1.33a2.93,2.93,0,0,1-1.24,2.44C13.18,9.59,11.91,9.94,4.48,11a15.23,15.23,0,0,0-2.25.43c-.3.19-.27,1.63.08,3.53.35,1.73.79,2.54.79,1.43,0-1.54,3.2-4.55,4.85-4.58.6,0,.52.14-.76,1.41A14,14,0,0,0,3.4,20.92l-.19,1.9-1-1.57C1.07,19.51.42,19.32.09,20.62c-.54,2,1.46,6.75,3.42,8.08,1.35.92,1.59.95,1.43.08s0-.84.87-.13c1.27,1,1.82.51.81-.73-.3-.41-.51-.76-.46-.82a5.58,5.58,0,0,1,1.44.17,21.18,21.18,0,0,0,3.6.16,6.63,6.63,0,0,0,3.42-.79,12.16,12.16,0,0,0,4.2-4.74,4.49,4.49,0,0,1,.54-1.25c.11,0,.46.25.79.71l.59.78-.75.65-.76.65.76.36c.51.24.73.48.65.81s.16.68.65,1c1,.73,1.05.7,1.05-.11,0-.54.14-.68.65-.68s1.52-.59,1.52-1a3.62,3.62,0,0,0-.43-.79c-.38-.6-.38-.7.05-1.35.33-.49.6-.66.9-.52a8.8,8.8,0,0,0,1.95.3,3.81,3.81,0,0,0,2.6-.44,7.15,7.15,0,0,0,3.61-5.77c0-2.19-1.39-3.6-4.15-4.28a2.73,2.73,0,0,0-2.55.22,7.18,7.18,0,0,0-3,3.25c-.19.49-.43.87-.54.87a6.65,6.65,0,0,1-1.33-.84c-.65-.47-1.22-.79-1.3-.71-.38.38.3,1.87,1.25,2.74a4.39,4.39,0,0,1,1.22,1.76,4.35,4.35,0,0,0,.73,1.52l.57.73-.57.57c-.32.3-.62.51-.68.43s-1.19-1.46-2.57-3.11-2.49-3.12-2.49-3.2.16-.17.37-.17a.68.68,0,0,0,.55-.24c.08-.13-.6,0-1.55.19s-1.49.49-1.27.54A3.73,3.73,0,0,1,17,16.78l.79,1.11-.62,1.32c-1,2-1.2,2.06-1.2.19,0-1.68-.27-2.14-.54-.86S13.91,23,13.67,23,12,19,12,18.16a2,2,0,0,1,.63-1.2l.59-.62-.67.44c-.95.59-1,1.87-.17,4.6a21.46,21.46,0,0,1,.71,2.74A4.66,4.66,0,0,1,12,25.8C10.88,26.94,10.69,27,9.41,27c-1.62,0-1.89-.24-2.87-2.79a8.37,8.37,0,0,1,0-6.61,14.75,14.75,0,0,1,2.63-5.24c1.2-1.38,1.95-1.7,4.2-1.73,1.63,0,2.06,0,2.36.46s.35.3.3-.92l0-1.38,1.9-.65,1.87-.63.81.73c.76.71.79.65.28-.62-.11-.24.13-.51.75-.76,1-.43.9-.49-1-1-.87-.22-1.17-.46-1.41-1.09C19,4.33,18.74,4,18.63,4S17.87,4.14,17.19,4.23Zm13,7.88A3.75,3.75,0,0,1,32.1,15c0,2.85-3.09,5.78-6.07,5.78a3,3,0,0,1-2.33-2.14c0-.49.11-.55.89-.36a13,13,0,0,0,4.42,0,2.55,2.55,0,0,0,.22-1.22,3.92,3.92,0,0,1,.27-1.41c.22-.33.19-.36-.14-.11a3.48,3.48,0,0,1-1.32.38,13.56,13.56,0,0,1-3.72-.11c-.57-.57,1.93-3.52,3.34-4A2.46,2.46,0,0,1,30.18,12.11Zm-7.57,4.2c0,.47-.16.38-.94-.46-1.22-1.32-1.22-1.81,0-.84A2.6,2.6,0,0,1,22.61,16.31Zm2.66.3c.62.14.79.27.68.63s-.14.4.35,0a3,3,0,0,1,1.19-.63c.65-.19.65-.16.17.22-.3.24-.46.51-.36.62s.41,0,.68-.27c.62-.57.87-.57.87-.05s-.9.95-2.41.95c-1.87,0-2.74-.36-2.55-1.06S24.08,16.37,25.27,16.61Zm-7,3.72c-.54.48-.62.51-.46.1A4.07,4.07,0,0,0,18,19.35c0-.54,0-.54.46-.11S18.9,19.73,18.3,20.33ZM1.69,21.41a12.93,12.93,0,0,0,4.23,4.47c1.33.87,1.43,1.2.16.46-1.63-.92-1.79-.21-.33,1.3,1.25,1.33.33.9-1.11-.48-.57-.55-1.11-.92-1.19-.84s.11.67.43,1.32l.6,1.14-.81-1C1.91,25.88.12,21.55.58,20.35.79,19.81,1.12,20.11,1.69,21.41Zm15.53-.33c-.49,1.44-.32,1.52.71.38,1.24-1.38.7-.27-.79,1.63C15.43,25.26,13.07,27,11.91,27c-.33,0-.19-.3.54-1.16a18,18,0,0,0,2-3.18c.76-1.51,1-1.87,1.08-1.41.14.87.54.74,1.2-.35S17.65,19.87,17.22,21.08Z"/><path class="cls-1" d="M29.5,14.34,29,15l.63-.52c.57-.48.73-.7.51-.7A3.44,3.44,0,0,0,29.5,14.34Z"/><path class="cls-1" d="M37,16.72V29.19H49.45V25.12H41.59V4.25H37Z"/><path class="cls-1" d="M18.85,9.65c0,.62-.06.65-.57.16-1-.84-.82-.33.19.76a3.75,3.75,0,0,0,1.05.95,3.5,3.5,0,0,0-.27-1.33C19,9.35,18.87,9.19,18.85,9.65Z"/><path class="cls-1" d="M76.5,10.32a9.63,9.63,0,0,0-2.09,1.22l-1.11.9V10.49H69.24V36h4.33V31.9a16.13,16.13,0,0,1,.25-4.07,7.51,7.51,0,0,1,1.65.87c2.76,1.71,5.61.92,6.69-1.87.41-1.11.49-2.11.49-7.13,0-5.66,0-5.85-.68-7.15a5.35,5.35,0,0,0-1.35-1.82A5.14,5.14,0,0,0,76.5,10.32Zm1.11,3.47c.79.84.9,1.68.79,6.78-.08,4.34-.11,4.53-.73,5.2-.82.87-1.82.9-3,.09l-.92-.63V14.44l.92-.62C75.79,13,76.91,13,77.61,13.79Z"/><path class="cls-1" d="M91.52,10.22a6.6,6.6,0,0,0-4,2.41c-.68,1-1.3,2.87-1,3.12a8.46,8.46,0,0,0,2.11.16c1.9,0,2,0,2.17-.68a2.58,2.58,0,0,1,4-1.19c.6.46.71.78.71,1.84v1.3l-2.9,1.11c-5,1.93-6.72,3.77-6.7,7.05A3.88,3.88,0,0,0,87.75,29a3.79,3.79,0,0,0,2.57.54,7.06,7.06,0,0,0,4.58-1.63c.55-.4.57-.38.76.41l.19.84H100l-.14-7.78c-.13-8.27-.21-8.7-1.54-9.89S93.79,9.75,91.52,10.22Zm4,12.17v2.44l-1,.7a4.84,4.84,0,0,1-2,.87,1.64,1.64,0,0,1-1.76-.54c-1.46-1.47-.51-3.31,2.52-4.88,1.09-.55,2-1,2.09-1A14.77,14.77,0,0,1,95.53,22.39Z"/><path class="cls-1" d="M21.26,11.46c-.6.92-.6,1.44,0,1.09a7.18,7.18,0,0,0,1.11-2C22.34,10.19,21.75,10.65,21.26,11.46Z"/><path class="cls-1" d="M52.43,18.27a82.15,82.15,0,0,0,.27,8.81,3.87,3.87,0,0,0,4.83,2.41,10.41,10.41,0,0,0,2.38-1.25,8.9,8.9,0,0,1,1.55-.95c.1,0,.13.44,0,.95l-.16,1h4.39V10.49H61.37V24.8l-1.13.84c-1.36,1-2.47,1.08-3,.24-.38-.51-.43-1.76-.43-8v-7.4H52.43Z"/><path class="cls-1" d="M13.67,16.18c-.22.13-.27.27-.14.27a1.75,1.75,0,0,0,.68-.27c.22-.14.3-.27.14-.27A1.76,1.76,0,0,0,13.67,16.18Z"/><path class="cls-1" d="M26.63,29.11a3.9,3.9,0,0,0,1.08,0c.24-.08,0-.14-.62-.11S26.27,29.05,26.63,29.11Z"/></svg>