<svg id="Camada_1" data-name="Camada 1" xmlns="http://www.w3.org/2000/svg" viewBox="0 0 70 40"><defs><style>.cls-1{fill:#fff;}</style></defs><path class="cls-1" d="M2.1,10.1a11.37,11.37,0,0,0,3.71,4.26c1.73,1.08,3,1.32,6.88,1.32h3.5l1.29,3.83,1.28,3.83L20,19.57l1.28-3.78,20.56-.11,20.56-.11,1.47-.7A9.54,9.54,0,0,0,69.42,6c0-1.2,0-1.36-.43-1.36S68.6,4.77,68.6,6A8.63,8.63,0,0,1,63.68,14l-1.41.68-20.77.11-20.78.1-1,2.66a8.12,8.12,0,0,1-1,2.38c-.05-.16-.49-1.39-1-2.73l-.86-2.38-4.1-.08c-4.15-.06-4.15-.06-5.6-.77a8.39,8.39,0,0,1-4.1-4.1,7.18,7.18,0,0,1-.86-3.48c-.12-1.82-.15-2-.55-2s-.43.11-.34,2.1A7.28,7.28,0,0,0,2.1,10.1Z"/><path class="cls-1" d="M18.75,24,16,15.89H12.69c-4,0-5.21-.24-7-1.35a11.5,11.5,0,0,1-3.78-4.35,7.45,7.45,0,0,1-.8-3.68C1,4.92,1.05,4.56,1.25,4.35a.53.53,0,0,1,.42-.14c.63,0,.65.38.76,2.19a7.16,7.16,0,0,0,.84,3.4,8.23,8.23,0,0,0,4,4c1.41.69,1.41.69,5.51.75l4.25.08.91,2.53c.27.79.54,1.54.72,2.05,0,.1.07.19.09.27.18-.38.45-1,.78-2l1-2.8,41.65-.22,1.37-.66A8.4,8.4,0,0,0,68.38,6V5.62c0-.65,0-.92.17-1.09A.58.58,0,0,1,69,4.4c.65,0,.65.36.65,1.57A9.77,9.77,0,0,1,64,15.07l-1.56.72-41,.22ZM1.67,4.64H1.56a7.85,7.85,0,0,0,0,1.86A7,7,0,0,0,2.3,10h0a11.09,11.09,0,0,0,3.63,4.18c1.69,1.05,2.89,1.28,6.76,1.28h3.66l2.41,7.2,2.4-7.09,41.23-.22,1.42-.67A9.33,9.33,0,0,0,69.2,6c0-1.15,0-1.15-.21-1.15h-.14a3.49,3.49,0,0,0,0,.78V6a8.85,8.85,0,0,1-5,8.28l-1.5.7-41.41.21-.93,2.51c-.9,2.54-1.1,2.55-1.24,2.54h-.16L18.48,20c0-.06-.1-.31-.23-.66-.18-.52-.45-1.27-.72-2.06l-.8-2.24-4-.08c-4.21-.05-4.21-.05-5.7-.79A8.62,8.62,0,0,1,2.88,10,7.53,7.53,0,0,1,2,6.41C1.89,4.64,1.84,4.64,1.67,4.64Z"/><path class="cls-1" d="M31.94,25.17h-.31a3.62,3.62,0,0,0-2.18.48l-.53.31L29,22.74c.11-2.92.06-3.49-.14-3.7a.31.31,0,0,0-.22-.09.72.72,0,0,0-.56.27,5.72,5.72,0,0,1-1.32.63,3.93,3.93,0,0,0-1.37.65l-.08.06v.1c0,.08,0,.3.82.6l.52.17v6.89c0,7.26.1,7.26.34,7.26h.05a2.14,2.14,0,0,0,.7-.52c.41-.39.42-.39,1.35-.13a6.4,6.4,0,0,0,4.48,0,5.26,5.26,0,0,0,2.81-4.81A4.68,4.68,0,0,0,32,25.17Zm1.82,5.15c0,2.54-.87,4-2.37,4a2.77,2.77,0,0,1-2-.89C29,33.08,29,33,29,30.27V27.49l.74-.65a1.47,1.47,0,0,1,1.55-.51,2.7,2.7,0,0,1,1.44.56C33.48,27.62,33.76,28.52,33.76,30.32Z"/><path class="cls-1" d="M27.1,35.79h-.05c-.55,0-.61,0-.61-7.47V21.59l-.37-.13c-.68-.24-1-.48-1-.8v-.21l.18-.12a3.77,3.77,0,0,1,1.44-.69A5.55,5.55,0,0,0,28,19.05a.93.93,0,0,1,.7-.32.56.56,0,0,1,.36.15c.27.29.33.8.22,3.87l-.08,2.83.19-.12A3.88,3.88,0,0,1,31.65,25H32a4.93,4.93,0,0,1,4.61,5.18,5.51,5.51,0,0,1-2.93,5,6.62,6.62,0,0,1-4.66,0c-.79-.22-.79-.22-1.12.09a2.47,2.47,0,0,1-.76.55ZM25.54,20.67c0,.06.18.2.67.38l.66.22v7.05a68,68,0,0,0,.16,7,2.09,2.09,0,0,0,.57-.43c.5-.47.6-.46,1.56-.19a6.26,6.26,0,0,0,4.35,0,5.08,5.08,0,0,0,2.67-4.6,4.53,4.53,0,0,0-1.13-3.25A4.46,4.46,0,0,0,32,25.39l0-.22v.21h-.31a3.45,3.45,0,0,0-2.07.46l-.87.51.1-3.61c.09-2.53.07-3.39-.08-3.56l-.07,0a.54.54,0,0,0-.38.19l-.05,0a5.54,5.54,0,0,1-1.37.65A3.72,3.72,0,0,0,25.54,20.67Zm5.88,13.85h0a3,3,0,0,1-2.16-1c-.46-.4-.49-.58-.49-3.31V27.4l.81-.72a1.68,1.68,0,0,1,1.76-.56,2.83,2.83,0,0,1,1.51.6c.86.78,1.16,1.72,1.16,3.6a5,5,0,0,1-1.07,3.6A2,2,0,0,1,31.42,34.52Zm-2.24-6.93v2.67c0,2.69,0,2.73.35,3a2.58,2.58,0,0,0,1.86.84,1.76,1.76,0,0,0,1.22-.48,4.69,4.69,0,0,0,.93-3.29c0-1.73-.26-2.59-1-3.27a2.42,2.42,0,0,0-1.3-.5,1.3,1.3,0,0,0-1.37.42Z"/><path class="cls-1" d="M42.45,34.08a.89.89,0,0,1-.65-.29c-.24-.22-.24-1.7-.24-7.43,0-7.42-.12-7.42-.36-7.42h-.05a2,2,0,0,0-.67.35A5.81,5.81,0,0,1,39,20c-.94.29-1.26.48-1.26.76s.32.37.66.47a1,1,0,0,1,.64.41,91.87,91.87,0,0,1,0,11.85.86.86,0,0,1-.73.55c-.08,0-.82.21-.82.58,0,.17,0,.46,2.8.46,2.33,0,2.8-.08,2.8-.47S42.82,34.08,42.45,34.08Z"/><path class="cls-1" d="M40.29,35.26c-2.8,0-3-.28-3-.68,0-.56.9-.8,1-.8a.64.64,0,0,0,.53-.41,95,95,0,0,0,0-11.69.79.79,0,0,0-.48-.27c-.36-.1-.82-.24-.83-.69s.46-.68,1.41-1a5.94,5.94,0,0,0,1.43-.65,2.3,2.3,0,0,1,.71-.38h.12c.5,0,.57,0,.57,7.64,0,5,0,7,.18,7.27a.72.72,0,0,0,.5.24c.57,0,.86.23.86.7C43.31,35.23,42.53,35.26,40.29,35.26Zm.88-16.1a1.83,1.83,0,0,0-.55.3,6.07,6.07,0,0,1-1.56.71c-.47.15-1.1.36-1.1.54s.18.18.5.27a1.21,1.21,0,0,1,.76.5,82.14,82.14,0,0,1,0,12.05,1.08,1.08,0,0,1-.91.69c-.17,0-.62.21-.62.36s.32.25,2.58.25c1.68,0,2.58,0,2.58-.26s0-.27-.42-.27h0a1.17,1.17,0,0,1-.8-.36c-.3-.27-.3-1.25-.3-7.58A66.92,66.92,0,0,0,41.17,19.16Z"/><path class="cls-1" d="M10.53,20.37c-1.13-.55-1.34-.58-5.56-.6a44.12,44.12,0,0,0-4.6.06h0a.42.42,0,0,0-.13.42c.07.22.33.37.82.48a4.54,4.54,0,0,1,1.16.44c.37.24.38.36.38,6.19,0,6.4,0,6.4-1.09,6.64-.89.19-1.29.28-1.29.67v.17H.38a16.66,16.66,0,0,0,2.73.22H4c3.42,0,3.56-.18,3.65-.3l.07-.1v-.09c0-.14-.18-.33-.88-.52-1.44-.28-1.44-.28-1.44-2.9V29H7c2.26,0,3.62-.47,4.68-1.64a4.44,4.44,0,0,0,1.15-3.68A3.93,3.93,0,0,0,10.53,20.37Zm-.42,4.4a3.05,3.05,0,0,1-3.58,3l-1-.05-.06-3.18c0-2.19-.05-3.18.28-3.51s.74-.21,1.59-.17A2.47,2.47,0,0,1,9,21.43,4.1,4.1,0,0,1,10.11,24.77Z"/><path class="cls-1" d="M4,35.28H3.11a17,17,0,0,1-2.76-.23H0v-.39c0-.57.55-.69,1.47-.88s.91-.2.91-6.43c0-5.5,0-5.83-.28-6A3.94,3.94,0,0,0,1,21c-.39-.1-.86-.25-1-.64a.64.64,0,0,1,.21-.65l0,0H.36A39.54,39.54,0,0,1,5,19.56c4.25,0,4.46,0,5.64.62a4.12,4.12,0,0,1,2.47,3.44,4.63,4.63,0,0,1-1.22,3.84c-1.09,1.21-2.49,1.7-4.83,1.7H5.61v2c0,2.44,0,2.44,1.27,2.69.5.13,1,.33,1,.73v.15l-.09.16C7.67,35.09,7.53,35.28,4,35.28ZM.44,34.63a17.35,17.35,0,0,0,2.67.21H4c2.88,0,3.42-.13,3.48-.21l0-.06h0a1.57,1.57,0,0,0-.72-.31c-1.6-.31-1.6-.47-1.6-3.11V28.73H7c2.2,0,3.51-.46,4.51-1.57a4.2,4.2,0,0,0,1.11-3.49,3.71,3.71,0,0,0-2.22-3.1h0C9.34,20,9.14,20,5,20A42.2,42.2,0,0,0,.47,20a.26.26,0,0,0,0,.15c0,.09.16.22.66.33A4.79,4.79,0,0,1,2.32,21c.5.32.5.32.5,6.38,0,6.58,0,6.58-1.26,6.85C.73,34.39.47,34.47.44,34.63ZM6.83,28H6.52l-1.24-.06L5.22,23.8c0-1.82,0-2.57.35-2.93s.72-.3,1.28-.25l.47,0a2.62,2.62,0,0,1,1.86.61,4.3,4.3,0,0,1,1.15,3.53A3.2,3.2,0,0,1,6.83,28Zm-1.12-.48.83,0a2.83,2.83,0,0,0,3.35-2.81h0a3.85,3.85,0,0,0-1-3.16,2.3,2.3,0,0,0-1.57-.5l-.5,0c-.56,0-.76-.05-.94.13s-.23,1.13-.23,2.62v.74Z"/><path class="cls-1" d="M45.38,20.75a1.2,1.2,0,0,0,0,1.64,1.13,1.13,0,0,0,.72.34h.24a1.22,1.22,0,0,0,.82-.28,1.16,1.16,0,0,0,.36-.91,1.21,1.21,0,0,0-1-1.35A1.2,1.2,0,0,0,45.38,20.75Z"/><path class="cls-1" d="M46.37,23H46.1a1.51,1.51,0,0,1,.4-3,1.43,1.43,0,0,1,1.24,1.58,1.38,1.38,0,0,1-.43,1A1.44,1.44,0,0,1,46.37,23Zm0-2.54a1,1,0,0,0-.81.45l0,0a1,1,0,0,0,0,1.34.91.91,0,0,0,.58.28h.22a1.19,1.19,0,0,0,.68-.24.94.94,0,0,0,.28-.73,1,1,0,0,0-.85-1.14Z"/><path class="cls-1" d="M48.5,34.08h0a1,1,0,0,1-.65-.28c-.27-.26-.27-.93-.23-4.4,0-4.1,0-4.4-.42-4.4h0a.74.74,0,0,0-.5.27,5.47,5.47,0,0,1-1.34.63c-.36.14-1.53.61-1.44,1.13,0,.21.23.32.6.32.62,0,.71.19.71,3.15s-.21,3.53-1,3.63c-.4.07-.65.25-.65.48s0,.4,2.77.44c2.2,0,2.72,0,2.72-.47C49.09,34.43,49,34.08,48.5,34.08Z"/><path class="cls-1" d="M46.37,35.27c-2.75,0-3-.2-3-.66s.31-.61.83-.69.79-.41.79-3.42-.1-2.94-.49-2.94c-.76,0-.82-.41-.82-.53-.08-.44.45-.9,1.58-1.34a5.15,5.15,0,0,0,1.28-.59.94.94,0,0,1,.62-.32h0c.65,0,.65.19.65,4.62,0,3-.05,4,.16,4.24a.77.77,0,0,0,.5.23.7.7,0,0,1,.8.71C49.3,35.27,48.5,35.27,46.37,35.27Zm.83-10.06a.56.56,0,0,0-.33.19l0,.05a5.42,5.42,0,0,1-1.4.65c-.92.36-1.32.72-1.29.89s.12.14.39.14c.89,0,.93.59.93,3.37s-.16,3.71-1.17,3.85c-.3,0-.46.17-.46.26s.6.19,2.55.22c1.76,0,2.5,0,2.5-.25s0-.28-.37-.28h0A1.22,1.22,0,0,1,47.7,34c-.35-.33-.34-1-.3-4.56,0-2.77,0-4-.14-4.17Z"/><path class="cls-1" d="M57.68,25.55a6.76,6.76,0,0,0-4-.22h0a5.6,5.6,0,0,0-3,2.66,6.27,6.27,0,0,0,0,4.55,5.66,5.66,0,0,0,2.58,2.56,5.08,5.08,0,0,0,1.64.27A5.32,5.32,0,0,0,58.41,34c.51-.56.36-.82.27-.95s-.59-.13-1,.21a3.73,3.73,0,0,1-1.69.53,2.82,2.82,0,0,1-2.19-.67,4,4,0,0,1-1-3c0-3.48,1.33-3.88,2.34-3.88.82,0,.82,0,1.33.82s.72,1,1.43.87a1,1,0,0,0,1-.7C59,26.68,58.51,26,57.68,25.55Z"/><path class="cls-1" d="M54.89,35.59h0a5.52,5.52,0,0,1-1.71-.28,5.89,5.89,0,0,1-2.7-2.68,6.46,6.46,0,0,1,0-4.72,5.79,5.79,0,0,1,3.09-2.78,6.84,6.84,0,0,1,4.2.22h0c.93.5,1.43,1.27,1.29,1.95a1.18,1.18,0,0,1-1.18.88c-.81.13-1.1-.1-1.64-1-.44-.72-.44-.72-1.14-.72-1,0-2.12.42-2.12,3.66A3.75,3.75,0,0,0,54,33a2.51,2.51,0,0,0,2,.6,3.46,3.46,0,0,0,1.61-.5,1.46,1.46,0,0,1,1-.3.46.46,0,0,1,.31.15c.25.34.15.74-.29,1.22A5.5,5.5,0,0,1,54.89,35.59Zm.42-10.26a6.45,6.45,0,0,0-1.63.21,5.38,5.38,0,0,0-2.83,2.55,6,6,0,0,0,0,4.37,5.43,5.43,0,0,0,2.48,2.44,4.92,4.92,0,0,0,1.54.25h0a5.06,5.06,0,0,0,3.37-1.28c.41-.44.29-.59.25-.65a1.14,1.14,0,0,0-.72.25,3.94,3.94,0,0,1-1.8.58,3,3,0,0,1-2.35-.73,4.27,4.27,0,0,1-1.09-3.18c0-2.74.84-4.08,2.56-4.08.9,0,1,.05,1.51.93s.62.86,1.22.77c.27,0,.72-.13.8-.54s-.32-1.07-1-1.47A6.43,6.43,0,0,0,55.31,25.33Z"/><path class="cls-1" d="M69.74,33.75c-.09-.17-.32-.3-.91,0-.38.15-.47.13-.68,0S67.89,33,68,30.47c.15-3.38.1-3.92-1-4.76a3.56,3.56,0,0,0-3.28-.27c-1.43.48-3,1.71-2.85,2.63a.89.89,0,0,0,1,.82h0a1.37,1.37,0,0,0,1.31-1.33c0-.51.14-.72.69-1a1,1,0,0,1,1.38.21h0l.06.07c.38.37.47.59.47,1.57v1l-1,.34c-3,1-4.31,2.06-4.31,3.54a1.66,1.66,0,0,0,.71,1.59c.61.52.9.59,2.08.5a3.71,3.71,0,0,0,2.1-.56l.49-.35.39.41a2.13,2.13,0,0,0,1.44.54,2,2,0,0,0,1.26-.41C69.58,34.51,69.9,34,69.74,33.75ZM65.58,31.9c0,1.34-.08,1.45-.4,1.64-1.09.71-1.56.47-1.84.18A1.22,1.22,0,0,1,63,32.61,2.53,2.53,0,0,1,64.42,31a3.68,3.68,0,0,1,1-.32h.06C65.58,30.72,65.58,31.35,65.58,31.9Z"/><path class="cls-1" d="M67.65,35.57h0a2.38,2.38,0,0,1-1.58-.6l-.26-.28-.34.24a3.87,3.87,0,0,1-2.24.59c-1.22.1-1.56,0-2.21-.55a1.83,1.83,0,0,1-.78-1.78c0-1.57,1.37-2.72,4.45-3.71l.85-.3v-.8c0-1-.1-1.11-.41-1.41l-.08-.1a.79.79,0,0,0-.51-.31.78.78,0,0,0-.57.14c-.53.3-.6.45-.6.86a1.6,1.6,0,0,1-1.52,1.55,1.13,1.13,0,0,1-.83-.27,1.06,1.06,0,0,1-.38-.75c-.13-1.05,1.48-2.35,3-2.86a3.78,3.78,0,0,1,3.47.29c1.27.95,1.28,1.67,1.14,5a13.44,13.44,0,0,0,0,3.09c.14.08.17.11.48,0,.77-.38,1.07-.11,1.18.09.23.41-.12,1-.91,1.49A2.35,2.35,0,0,1,67.65,35.57Zm0-.43h0a1.93,1.93,0,0,0,1.13-.37c.65-.42.84-.79.77-.91h0c-.09-.16-.5,0-.62.09a.81.81,0,0,1-.9,0c-.3-.19-.37-.67-.24-3.47.15-3.43.07-3.82-1-4.58a3.32,3.32,0,0,0-3.06-.24c-1.47.49-2.81,1.68-2.72,2.4a.66.66,0,0,0,.23.47.69.69,0,0,0,.49.16,1.17,1.17,0,0,0,1.15-1.12c0-.58.18-.86.8-1.21a1.18,1.18,0,0,1,1.65.27l.06.07c.43.41.52.7.52,1.7v1.11l-1.14.4c-2.88.92-4.16,1.95-4.16,3.33a1.42,1.42,0,0,0,.61,1.4c.58.5.81.55,1.94.47a3.51,3.51,0,0,0,2-.53l.63-.44.52.54a2,2,0,0,0,1.28.48ZM64,34.22a1.06,1.06,0,0,1-.8-.35,1.45,1.45,0,0,1-.44-1.3,2.74,2.74,0,0,1,1.6-1.8,3.52,3.52,0,0,1,1-.33h.16l0,0c.22.11.24.47.24,1.44,0,1.31-.07,1.57-.5,1.83A2.57,2.57,0,0,1,64,34.22Zm1.34-3.34a3.22,3.22,0,0,0-.8.29,2.26,2.26,0,0,0-1.36,1.5,1,1,0,0,0,.33.89c.15.16.48.5,1.58-.2.22-.13.29-.18.29-1.46A8,8,0,0,0,65.32,30.88Z"/><path class="cls-1" d="M24.27,33.63c-.6,0-.68-.16-.68-4.28V25.12l-.71.19c-.27.06-1.08.19-1.81.28-1.13.1-1.55.27-1.55.6,0,.12.06.5.82.5s.92,0,.92,3.28c0,2.58,0,2.92-.33,3.17a2.77,2.77,0,0,1-2.17.55c-1-.18-1.24-.82-1.24-4.92,0-2.68,0-3.27-.37-3.5-.21-.14-.47,0-.66.05s-.59.13-1.45.26c-.6.06-1.64.29-1.64.73s.58.35.82.35c.89,0,.95,0,1,3.16,0,3.35.24,4.23,1.38,5a3.86,3.86,0,0,0,4.2-.27l.45-.34v.37c0,.54,0,.82.2.9h.16a1.77,1.77,0,0,0,.69-.3,6.64,6.64,0,0,1,1.5-.45c.67-.09,1.17-.43,1.15-.82A.78.78,0,0,0,24.27,33.63Z"/><path class="cls-1" d="M21.5,35.7l-.13,0c-.35-.14-.36-.48-.36-1l-.11.08a4.09,4.09,0,0,1-4.44.28C15.23,34.18,15,33.27,15,29.82c0-2.94,0-2.94-.75-2.94h-.1a1.05,1.05,0,0,1-.78-.17.53.53,0,0,1-.15-.4c0-.7,1.4-.9,1.83-.95.71-.11,1.18-.19,1.41-.25l.12,0a.83.83,0,0,1,.72,0c.47.28.47.8.47,3.68,0,4.1.3,4.56,1.06,4.71a2.54,2.54,0,0,0,2-.51c.25-.18.26-.51.26-3,0-3.06-.13-3.06-.71-3.06-1,0-1-.6-1-.72,0-.61.83-.73,1.75-.82.69-.08,1.51-.21,1.78-.27l1-.26v4.51c0,4.07.11,4.07.46,4.07a1,1,0,0,1,.64.18l.2-.19,0,.48c0,.5-.53.94-1.34,1a6.63,6.63,0,0,0-1.44.43,1.84,1.84,0,0,1-.74.31Zm0-.43Zm-.06-1.51v.81a1.94,1.94,0,0,0,.06.7s0,0,0,0a1.68,1.68,0,0,0,.61-.27,7,7,0,0,1,1.59-.48c.54-.07.91-.32,1-.52a.51.51,0,0,0-.42-.14c-.86,0-.9-.51-.9-4.5v-4l-.44.12c-.28.07-1.11.2-1.84.28-.34,0-1.35.13-1.35.39s.22.28.6.28c1,0,1.14.36,1.14,3.5,0,2.74,0,3-.42,3.35a3,3,0,0,1-2.33.58c-1.18-.22-1.43-1.13-1.43-5.13,0-2.36,0-3.15-.26-3.31-.08-.05-.2,0-.36,0l-.14,0a14.8,14.8,0,0,1-1.46.26c-.84.09-1.46.35-1.46.52a.12.12,0,0,0,0,.08c.08.07.32.06.45.06h.13c1.13,0,1.16.29,1.19,3.38,0,3.29.21,4.1,1.28,4.81a3.64,3.64,0,0,0,3.95-.26Z"/></svg>