<svg id="Camada_1" data-name="Camada 1" xmlns="http://www.w3.org/2000/svg" viewBox="0 0 100 40"><defs><style>.cls-1{fill:#fff;}</style></defs><path class="cls-1" d="M2.86,7.92a13.75,13.75,0,0,0,4.52,5.2c2.12,1.32,3.62,1.61,8.4,1.61h4.27l1.57,4.68,1.56,4.67,1.57-4.6,1.56-4.61,25.09-.14,25.08-.13,1.79-.85A11.66,11.66,0,0,0,85,2.89c0-1.47,0-1.66-.53-1.66S84,1.42,84,2.86a10.53,10.53,0,0,1-6,9.86l-1.72.83-25.35.13-25.35.13-1.2,3.24c-.64,1.8-1.22,3.09-1.28,2.9s-.6-1.69-1.16-3.32l-1.05-2.91-5-.1c-5.07-.07-5.07-.07-6.84-.94a10.26,10.26,0,0,1-5-5A8.84,8.84,0,0,1,3,3.43C2.86,1.21,2.82,1,2.33,1s-.52.13-.41,2.56A8.79,8.79,0,0,0,2.86,7.92Z"/><path class="cls-1" d="M39.27,26.31h-.38a4.43,4.43,0,0,0-2.66.59l-.65.38.11-3.93c.13-3.57.07-4.26-.17-4.52a.43.43,0,0,0-.27-.11.88.88,0,0,0-.68.33,7,7,0,0,1-1.61.77,4.69,4.69,0,0,0-1.67.8l-.1.07v.12c0,.1,0,.37,1,.73l.63.21v8.41c0,8.85.13,8.85.42,8.85h.06l0,0a2.78,2.78,0,0,0,.86-.63c.5-.47.51-.48,1.64-.16a7.86,7.86,0,0,0,5.47,0,6.42,6.42,0,0,0,3.43-5.87A5.72,5.72,0,0,0,39.27,26.31Zm2.22,6.29c0,3.1-1.07,4.88-2.89,4.86a3.33,3.33,0,0,1-2.44-1.08c-.48-.41-.53-.54-.53-3.85V29.15l.9-.8a1.81,1.81,0,0,1,1.9-.62,3.3,3.3,0,0,1,1.75.68C41.15,29.3,41.49,30.4,41.49,32.6Z"/><path class="cls-1" d="M52.09,37.19a1.12,1.12,0,0,1-.79-.36C51,36.56,51,34.76,51,27.77c0-9.06-.14-9.06-.43-9.06h-.07a2.53,2.53,0,0,0-.81.43,7,7,0,0,1-1.81.82c-1.15.35-1.54.58-1.53.92s.38.46.8.58a1.21,1.21,0,0,1,.78.5c.32.78.31,13.62,0,14.46a1.07,1.07,0,0,1-.89.67c-.1,0-1,.25-1,.7,0,.21,0,.57,3.42.57,2.84,0,3.41-.1,3.41-.58S52.54,37.19,52.09,37.19Z"/><path class="cls-1" d="M13.14,20.46c-1.38-.68-1.63-.71-6.78-.73a50.6,50.6,0,0,0-5.61.07h0a.49.49,0,0,0-.16.51c.08.27.4.45,1,.59A5.46,5.46,0,0,1,3,21.43c.46.3.47.44.47,7.56,0,7.81,0,7.81-1.33,8.1-1.09.23-1.58.34-1.58.82v.2l.2,0a20.77,20.77,0,0,0,3.33.27c.36,0,.72,0,1.08,0,4.18,0,4.35-.22,4.46-.36l.08-.13,0-.11c0-.17-.21-.4-1.07-.63-1.76-.34-1.76-.34-1.76-3.54V30.92h2c2.76,0,4.42-.57,5.71-2A5.39,5.39,0,0,0,16,24.44,4.77,4.77,0,0,0,13.14,20.46Zm-.51,5.36c-.3,2.56-1.75,3.79-4.37,3.66L7,29.42l-.07-3.88c0-2.67-.06-3.88.35-4.28s.9-.25,1.93-.2a3,3,0,0,1,2.12.69A5,5,0,0,1,12.63,25.82Z"/><path class="cls-1" d="M55.67,20.92a1.45,1.45,0,0,0,0,2,1.41,1.41,0,0,0,.88.42h.29a1.52,1.52,0,0,0,1-.35,1.45,1.45,0,0,0,.44-1.11,1.47,1.47,0,0,0-1.27-1.64A1.45,1.45,0,0,0,55.67,20.92Z"/><path class="cls-1" d="M59.47,37.19h0a1.22,1.22,0,0,1-.79-.35c-.33-.32-.33-1.13-.28-5.37,0-5,0-5.37-.51-5.37h0a.91.91,0,0,0-.61.33,6.48,6.48,0,0,1-1.64.77c-.44.17-1.87.75-1.76,1.38,0,.26.29.39.74.39.75,0,.86.23.86,3.85s-.25,4.3-1.19,4.43c-.49.08-.79.3-.79.58s0,.49,3.37.54c2.69,0,3.32-.06,3.32-.58C60.19,37.61,60.12,37.19,59.47,37.19Z"/><path class="cls-1" d="M70.67,26.78a8.18,8.18,0,0,0-4.94-.27h0a6.83,6.83,0,0,0-3.62,3.24,7.65,7.65,0,0,0,0,5.55,6.87,6.87,0,0,0,3.15,3.13,6.38,6.38,0,0,0,2,.33,6.46,6.46,0,0,0,4.3-1.63c.63-.68.45-1,.34-1.15s-.72-.16-1.25.25a4.54,4.54,0,0,1-2.06.65,3.41,3.41,0,0,1-2.67-.82,4.89,4.89,0,0,1-1.24-3.66c0-4.24,1.63-4.73,2.86-4.73,1,0,1,0,1.62,1s.88,1.2,1.75,1.06c.67-.06,1.1-.37,1.2-.86C72.26,28.15,71.69,27.33,70.67,26.78Z"/><path class="cls-1" d="M85.39,36.78c-.11-.2-.39-.36-1.11,0-.46.19-.58.16-.83,0s-.32-.87-.18-4c.18-4.12.12-4.78-1.27-5.81a4.33,4.33,0,0,0-4-.33c-1.75.59-3.61,2.09-3.48,3.21a1.09,1.09,0,0,0,1.21,1,1.69,1.69,0,0,0,1.6-1.62c0-.62.17-.88.84-1.26a1.2,1.2,0,0,1,1.68.26l.07.09c.47.45.58.72.58,1.91V31.4l-1.21.42c-3.64,1.17-5.26,2.51-5.26,4.32a2,2,0,0,0,.87,1.93c.74.64,1.09.72,2.53.61A4.47,4.47,0,0,0,80,38l.6-.42.47.49a2.62,2.62,0,0,0,1.76.67,2.58,2.58,0,0,0,1.54-.5C85.19,37.71,85.59,37.13,85.39,36.78Zm-5.08-2.25c0,1.63-.1,1.77-.48,2-1.34.86-1.91.57-2.25.22a1.5,1.5,0,0,1-.47-1.36,3.05,3.05,0,0,1,1.79-2A4.49,4.49,0,0,1,80.08,33h.08C80.31,33.08,80.31,33.85,80.31,34.53Z"/><path class="cls-1" d="M29.91,36.64c-.73,0-.83-.2-.83-5.23V26.25l-.87.23c-.33.08-1.32.24-2.21.34-1.38.13-1.89.33-1.89.74,0,.15.07.61,1,.61s1.13,0,1.13,4c0,3.15,0,3.56-.41,3.87a3.34,3.34,0,0,1-2.64.67c-1.17-.22-1.52-1-1.52-6,0-3.27,0-4-.45-4.27-.25-.17-.57,0-.81.06s-.71.15-1.76.31c-.74.08-2,.36-2,.9s.7.42,1,.42c1.08,0,1.15,0,1.18,3.86,0,4.08.29,5.16,1.68,6.09a4.73,4.73,0,0,0,5.13-.33l.55-.42v.45c0,.66,0,1,.24,1.1a.41.41,0,0,0,.19,0,2.1,2.1,0,0,0,.85-.37,8.53,8.53,0,0,1,1.83-.54c.81-.11,1.43-.53,1.4-1C30.67,37,30.57,36.64,29.91,36.64Z"/></svg>