<svg id="Camada_1" data-name="Camada 1" xmlns="http://www.w3.org/2000/svg" viewBox="0 0 58 40"><defs><style>.cls-1{fill:#fff;}</style></defs><path class="cls-1" d="M0,16.86V28.35H11.46V24.6H4.23V5.38H0Z"/><path class="cls-1" d="M36.37,11a8.84,8.84,0,0,0-1.93,1.12l-1,.83V11.08H29.68V34.62h4V30.84a14.27,14.27,0,0,1,.23-3.75,7.66,7.66,0,0,1,1.52.81c2.54,1.56,5.16.85,6.16-1.73.37-1,.45-1.94.45-6.56,0-5.21,0-5.38-.63-6.58a4.86,4.86,0,0,0-1.24-1.67A4.7,4.7,0,0,0,36.37,11Zm1,3.19c.72.79.83,1.56.72,6.25-.07,4-.1,4.17-.67,4.79-.75.8-1.67.83-2.76.08l-.85-.58V14.76l.85-.57C35.71,13.45,36.74,13.45,37.39,14.16Z"/><path class="cls-1" d="M50.19,10.89a6,6,0,0,0-3.68,2.21c-.63.93-1.2,2.65-.92,2.87a7.44,7.44,0,0,0,1.94.14c1.75,0,1.84,0,2-.62a2.38,2.38,0,0,1,3-1.45,2.41,2.41,0,0,1,.65.35c.56.43.66.72.66,1.7v1.19l-2.67,1C46.59,20.08,45,21.78,45,24.81a3.61,3.61,0,0,0,1.69,3.37,3.53,3.53,0,0,0,2.37.49,6.52,6.52,0,0,0,4.21-1.5c.51-.37.53-.35.7.38l.18.77H58l-.13-7.16c-.12-7.61-.19-8-1.42-9.11S52.28,10.44,50.19,10.89Zm3.69,11.19v2.25L53,25a4.54,4.54,0,0,1-1.84.8,1.52,1.52,0,0,1-1.62-.5c-1.34-1.35-.47-3,2.32-4.5,1-.49,1.84-.92,1.93-.92a12.74,12.74,0,0,1,.14,2.22Z"/><path class="cls-1" d="M14.21,18.3a73.63,73.63,0,0,0,.24,8.14,3.58,3.58,0,0,0,4.45,2.22,10.17,10.17,0,0,0,2.19-1.15,7.69,7.69,0,0,1,1.43-.87c.09,0,.12.4,0,.87l-.15.92h4V11.13h-4V24.3l-1,.77c-1.26.92-2.28,1-2.77.22-.35-.47-.39-1.62-.39-7.36V11.12h-4Z"/></svg>