<svg id="Camada_1" data-name="Camada 1" xmlns="http://www.w3.org/2000/svg" viewBox="0 0 38 40"><defs><style>.cls-1{fill:#fff;}</style></defs><path class="cls-1" d="M37.22,20.22l-1.13-1.69a4.85,4.85,0,0,1-.79-3.37l.51-2.85a4.29,4.29,0,0,0-3.47-5h-.05l-2.71-.49A4.87,4.87,0,0,1,26.69,5L25.21,2.91A4.3,4.3,0,0,0,21.67,1a5.12,5.12,0,0,0-.87.08,4.43,4.43,0,0,0-1.59.69l-2,1.36a4.73,4.73,0,0,1-1.8.77,4.72,4.72,0,0,1-1.5.06l-2.4-.44a4.41,4.41,0,0,0-1.62,0A4.31,4.31,0,0,0,6.53,7L6.14,9.18A4.86,4.86,0,0,1,4.3,12.09L1.9,13.78A4.33,4.33,0,0,0,0,17.26a4.22,4.22,0,0,0,.77,2.52L2.26,21.9a2.33,2.33,0,0,1,.17.26,4.71,4.71,0,0,1,.7,3.54l-.38,2.09a4.3,4.3,0,0,0,3.47,5l2.13.39a4.68,4.68,0,0,1,2.85,1.72l1.57,2.18A4.33,4.33,0,0,0,16.33,39a5.12,5.12,0,0,0,.87-.08,4.21,4.21,0,0,0,1.58-.69l2-1.37a4.84,4.84,0,0,1,1.76-.71,5,5,0,0,1,1.64,0l2.85.51a4.3,4.3,0,0,0,5-3.48l.46-2.68a4.8,4.8,0,0,1,1.76-2.93l1.9-1.31a4.3,4.3,0,0,0,1.1-6v0ZM35.32,23A1.67,1.67,0,0,1,34.64,24l-1.9,1.34h-.07a7.47,7.47,0,0,0-2.76,4.56l-.47,2.67A1.66,1.66,0,0,1,27.54,34l-2.85-.51h0a7.5,7.5,0,0,0-5.31,1.23l-2.07,1.38a1.73,1.73,0,0,1-.61.26,1.67,1.67,0,0,1-1.7-.69l-1.58-2.27-.08-.05a7.37,7.37,0,0,0-4.51-2.73l-2.13-.39A1.64,1.64,0,0,1,5.4,29.12a1.53,1.53,0,0,1-.08-.87l.38-2.09a7.44,7.44,0,0,0-1.06-5.38c-.1-.14-.19-.29-.26-.37L2.94,18.27A1.65,1.65,0,0,1,3.36,16L5.83,14.3h0A7.45,7.45,0,0,0,8.68,9.75l.4-2.19a1.68,1.68,0,0,1,1.37-1.42h.61l2.45.45h.06A7.73,7.73,0,0,0,16,6.5a7.64,7.64,0,0,0,2.78-1.19l2-1.36a1.73,1.73,0,0,1,.61-.26,1.67,1.67,0,0,1,1.7.69l1.49,2.13h0a7.48,7.48,0,0,0,4.57,2.85l2.73.5a1.63,1.63,0,0,1,1.33,1.9h0l-.52,2.85v0A7.5,7.5,0,0,0,33.86,20L35,21.71A1.66,1.66,0,0,1,35.31,23Z"/><path class="cls-1" d="M17,14.83a1,1,0,0,0-2,0L12.15,25.05a1,1,0,0,0,.07.75,1.08,1.08,0,0,0,.63.5,1,1,0,0,0,1.26-.71s.19-.71.48-1.73h2.85c.29,1,.48,1.73.48,1.74a1,1,0,0,0,.95.73,1.31,1.31,0,0,0,.28,0,1,1,0,0,0,.63-.49,1,1,0,0,0,.09-.75Zm-.15,7H15.14c.26-.95.54-1.9.79-2.85l0-.19v.07C16.25,19.84,16.54,20.87,16.81,21.84Z"/><path class="cls-1" d="M25.82,24.62H22.08c-.28,0-.5.38-.5.85s.22.84.5.84h3.74c.29,0,.5-.37.5-.84S26.11,24.62,25.82,24.62Z"/><path class="cls-1" d="M26.23,14.09H23A1,1,0,0,0,22,15v8a1,1,0,0,0,1.9,0V19.7h2a.89.89,0,0,0,.18-1.78.54.54,0,0,0-.18,0h-2V15.86h2.3a.89.89,0,0,0,0-1.77Z"/></svg>