<svg id="Camada_1" data-name="Camada 1" xmlns="http://www.w3.org/2000/svg" viewBox="0 0 40 40"><defs><style>.cls-1{fill:#fff;}</style></defs><title>aos-fatos</title><path class="cls-1" d="M39.19,20.23,38,18.45a5.07,5.07,0,0,1-.83-3.55l.54-3A4.52,4.52,0,0,0,34,6.65l-2.85-.52A5.09,5.09,0,0,1,28.1,4.2L26.55,2a4.54,4.54,0,0,0-3.73-2,4.78,4.78,0,0,0-.92.09,4.68,4.68,0,0,0-1.67.72L18.15,2.25a5.12,5.12,0,0,1-1.89.81,4.93,4.93,0,0,1-1.58.06l-2.53-.46a4.47,4.47,0,0,0-1.71,0A4.52,4.52,0,0,0,6.88,6.32L6.46,8.61a5.07,5.07,0,0,1-1.93,3.06L2,13.45a4.56,4.56,0,0,0-2,3.66,4.47,4.47,0,0,0,.81,2.66L2.38,22a3.12,3.12,0,0,1,.18.27A5,5,0,0,1,3.3,26l-.4,2.2a4.44,4.44,0,0,0,.2,2.37,4.55,4.55,0,0,0,3.45,2.91l2.24.41a4.92,4.92,0,0,1,3,1.81L13.45,38a4.55,4.55,0,0,0,3.74,2,4.86,4.86,0,0,0,.92-.09,4.56,4.56,0,0,0,1.66-.72l2.1-1.45A5.13,5.13,0,0,1,23.72,37a5.3,5.3,0,0,1,1.73-.05l3,.54a4.54,4.54,0,0,0,5.27-3.66L34.2,31a5.08,5.08,0,0,1,1.85-3.08l2-1.38a4.53,4.53,0,0,0,1.15-6.32Zm-2,2.9a1.71,1.71,0,0,1-.72,1.12l-2,1.41-.07,0a7.94,7.94,0,0,0-2.91,4.81L31,33.28a1.74,1.74,0,0,1-2,1.41l-3-.54h-.05a7.91,7.91,0,0,0-5.59,1.3L18.18,36.9a1.72,1.72,0,0,1-.64.27,1.75,1.75,0,0,1-1.79-.72l-1.66-2.39L14,34a7.72,7.72,0,0,0-4.75-2.87l-2.24-.41a1.75,1.75,0,0,1-1.33-1.12,1.66,1.66,0,0,1-.08-.91l.4-2.2a7.82,7.82,0,0,0-1.12-5.67c-.1-.15-.2-.3-.27-.39L3.1,18.18a1.7,1.7,0,0,1-.31-1,1.75,1.75,0,0,1,.75-1.41L6.14,14l0,0a7.84,7.84,0,0,0,3-4.79l.42-2.31A1.76,1.76,0,0,1,11,5.41a2,2,0,0,1,.34,0,1.55,1.55,0,0,1,.31,0l2.57.47h.07a8,8,0,0,0,2.53-.1,7.86,7.86,0,0,0,2.92-1.25L21.82,3.1a1.72,1.72,0,0,1,.64-.27,1.76,1.76,0,0,1,1.79.72L25.82,5.8l0,0a7.91,7.91,0,0,0,4.81,3l2.87.52a1.73,1.73,0,0,1,1.41,2l-.55,3v.05A7.92,7.92,0,0,0,35.65,20l1.25,1.8A1.78,1.78,0,0,1,37.18,23.13Z"/><path class="cls-1" d="M17.86,14.56a1.08,1.08,0,0,0-2.07,0l-3,10.76a1,1,0,0,0,.08.79,1.12,1.12,0,0,0,.66.52,1.08,1.08,0,0,0,1.33-.74s.2-.75.5-1.83h3c.31,1.08.51,1.83.51,1.84a1.09,1.09,0,0,0,1,.77,1.45,1.45,0,0,0,.29,0,1.1,1.1,0,0,0,.67-.52,1.08,1.08,0,0,0,.09-.79Zm-.16,7.38H15.94c.28-1,.57-2,.83-3l.05-.2,0,.07C17.11,19.83,17.42,20.92,17.7,21.94Z"/><path class="cls-1" d="M27.19,24.87H23.25c-.3,0-.53.39-.53.89s.23.88.53.88h3.94c.3,0,.52-.38.52-.88S27.49,24.87,27.19,24.87Z"/><path class="cls-1" d="M27.62,13.78H24.18a1,1,0,0,0-1,.93v8.37a1,1,0,0,0,1,.93,1,1,0,0,0,1-.93v-3.4h2.08a.94.94,0,1,0,0-1.87H25.2V15.64h2.42a.93.93,0,1,0,0-1.86Z"/></svg>