<svg id="avclub-svgid" xmlns="http://www.w3.org/2000/svg" viewBox="0 0 141.76 55.73"><defs><style>.cls-1{fill:#fff;}</style></defs><title>avclub</title><polygon class="cls-1" points="23.11 31.52 27.74 31.52 25.52 26.71 23.11 31.52"/><path class="cls-1" d="M47.34,7.92a25,25,0,0,0-35,4.91h0a25,25,0,1,0,35-4.89ZM30.63,37.62l-1.05-2.69H21.12l-1.24,2.69h-4.5L25.72,17l9.4,20.63Zm9.06,0L29.73,17h4.75L39.6,28.48,44.9,17h4.56Z"/><path class="cls-1" d="M79.06,35.36a11.21,11.21,0,0,1-15.6,0,10.23,10.23,0,0,1-3.23-7.6,10.25,10.25,0,0,1,3.23-7.62,11.25,11.25,0,0,1,15.6,0l-3,2.92a6.87,6.87,0,0,0-9.57,0,6.49,6.49,0,0,0-.22,9.18l.22.23a6.94,6.94,0,0,0,9.63,0Zm17,2.26H81.75V17H86V33.53H96.1m18.83-4.29a8.87,8.87,0,0,1-2.75,6.56,9.53,9.53,0,0,1-13.32,0,8.9,8.9,0,0,1-2.76-6.56V17h4.26V29.24a4.82,4.82,0,0,0,1.52,3.59,5.18,5.18,0,0,0,7.28,0,4.85,4.85,0,0,0,1.51-3.59V17h4.26Zm15.32,2.58a2.38,2.38,0,0,0-.68-1.71A2.16,2.16,0,0,0,128,29.4h-5.18v4.72H128a2.27,2.27,0,0,0,2.3-2.3m-.77-8.56a1.83,1.83,0,0,0-.55-1.34,1.78,1.78,0,0,0-1.31-.57h-4.85v3.82h4.85a1.77,1.77,0,0,0,1.31-.56,1.85,1.85,0,0,0,.55-1.35m5,8.56a6.44,6.44,0,0,1-1.91,4.68,6.12,6.12,0,0,1-4.58,2h-9.36V17.14h9a5.74,5.74,0,0,1,4.27,1.79,5.94,5.94,0,0,1,1.8,4.33A6.1,6.1,0,0,1,132.46,27a6.46,6.46,0,0,1,2,4.83"/></svg>