<svg id="Camada_1" data-name="Camada 1" xmlns="http://www.w3.org/2000/svg" viewBox="0 0 37.6 40"><defs><style>.cls-1{fill:#fff;}</style></defs><path class="cls-1" d="M37.6,10.07a10,10,0,0,0-2.71-7.24A10,10,0,0,0,27.69,0c-5.81,0-9.84,4.38-9.84,10.06,0,5.08,3.53,9.27,8.79,9.27l-6.39,9.77h5L24,40,34,25.51H29.71l5.21-8C36.51,15.08,37.6,13.09,37.6,10.07ZM27.76,13.8a3.9,3.9,0,0,1-4-4.13,3.92,3.92,0,1,1,7.83,0A4,4,0,0,1,27.76,13.8Z"/><path class="cls-1" d="M15.22,13.82c2.76-.91,4.15-3,4.15-6.25A8.25,8.25,0,0,0,18.17,3a5.56,5.56,0,0,0-3-2.43A19.09,19.09,0,0,0,9.91,0H0V29.08H9.91a17.93,17.93,0,0,0,5.59-.76,6.46,6.46,0,0,0,3.31-2.59A8.29,8.29,0,0,0,20.22,21,7,7,0,0,0,15.22,13.82ZM6.13,4.63H8.66c1.75,0,2.89.34,3.42,1A3.73,3.73,0,0,1,12.88,8a4.26,4.26,0,0,1-.8,2.53c-.53.73-1.83,1.11-3.88,1.11H6.13ZM9.26,24H6.13V16.35H9.26a5.29,5.29,0,0,1,3.3.87,3.61,3.61,0,0,1,1.1,3Q13.66,24,9.26,24Z"/></svg>