<svg id="svg4" xmlns="http://www.w3.org/2000/svg" viewBox="0 0 64 40"><defs><style>.cls-1{fill:#fff;}</style></defs><path id="path1314-6" class="cls-1" d="M0,10.86V29.14H18.29V10.86ZM5.13,15H9a4.46,4.46,0,0,1,2.66.68,2.19,2.19,0,0,1,1,1.91,2.15,2.15,0,0,1-1.34,2.09,2.67,2.67,0,0,1,1.39.95,2.44,2.44,0,0,1,.5,1.55,2.55,2.55,0,0,1-.48,1.55,3,3,0,0,1-1.34,1,5.7,5.7,0,0,1-2.1.35H5.13Zm2.1,1.63V19.1H8.82a2,2,0,0,0,1.24-.33,1.2,1.2,0,0,0,.44-1q0-1.2-1.68-1.2Zm0,4.09v2.73H9.06a2.65,2.65,0,0,0,1.45-.34,1.15,1.15,0,0,0,.51-1c0-.93-.64-1.39-1.93-1.39Zm38.48-9.82V29.14H64V10.86Zm9.9,3.89a6.54,6.54,0,0,1,1.56.18,5.37,5.37,0,0,1,1.39.51v2a4.53,4.53,0,0,0-1.26-.59,4.78,4.78,0,0,0-1.42-.21,3.73,3.73,0,0,0-1.77.39A2.71,2.71,0,0,0,53,18.17,4,4,0,0,0,52.62,20,4.14,4.14,0,0,0,53,21.83,2.7,2.7,0,0,0,54.07,23a3.61,3.61,0,0,0,1.74.39,5.21,5.21,0,0,0,2.86-.83v2a5.46,5.46,0,0,1-1.44.55,6.93,6.93,0,0,1-1.72.21,6.12,6.12,0,0,1-2.16-.35,4.39,4.39,0,0,1-1.62-1,4.45,4.45,0,0,1-1-1.65A6.46,6.46,0,0,1,50.36,20a5.81,5.81,0,0,1,.37-2.15,4.59,4.59,0,0,1,1.06-1.67,4.73,4.73,0,0,1,1.65-1.06A6.21,6.21,0,0,1,55.61,14.75ZM22.86,10.86V29.14H41.14V10.86ZM28,15h3.89a4.47,4.47,0,0,1,2.67.68,2.19,2.19,0,0,1,.94,1.91,2.37,2.37,0,0,1-.33,1.26,2.34,2.34,0,0,1-1,.83,2.66,2.66,0,0,1,1.4.95A2.43,2.43,0,0,1,36,22.14a2.61,2.61,0,0,1-.47,1.55,3.08,3.08,0,0,1-1.34,1,5.79,5.79,0,0,1-2.11.35H28Zm2.1,1.63V19.1h1.6a2,2,0,0,0,1.24-.33,1.2,1.2,0,0,0,.44-1q0-1.2-1.68-1.2Zm0,4.09v2.73h1.84a2.65,2.65,0,0,0,1.45-.34,1.15,1.15,0,0,0,.51-1c0-.93-.65-1.39-1.93-1.39Z"/></svg>