<svg id="Camada_1" data-name="Camada 1" xmlns="http://www.w3.org/2000/svg" viewBox="0 0 38.58 40"><defs><style>.cls-1{fill:#fff;}</style></defs><path class="cls-1" d="M4.16,5.33A17.17,17.17,0,0,0,1.52,6.4L.11,7.13,0,19.33,0,31.47l.88.73a18.6,18.6,0,0,0,5,2.58c.29,0,.38-.28.38-1.12V32.55l1,.63A11.47,11.47,0,0,0,21,32.08l1.08-1,.95.92c3.62,3.53,9.82,4,14.41,1.08l1-.6-2.14-2.11-2.11-2.13-1,.43a5.37,5.37,0,0,1-4.72-.26,4.76,4.76,0,0,1-2.64-5.06,5.22,5.22,0,0,1,7.51-4.12l1,.53,2.23-2.08c2.65-2.41,2.65-2.39-.3-3.82a10.57,10.57,0,0,0-9.84-.32,13.71,13.71,0,0,0-3,1.93l-1.16,1.08-1.08-1A11.46,11.46,0,0,0,7.5,14.13a5,5,0,0,1-1.1.57,41,41,0,0,1-.1-4.83C6.33,4.43,6.45,4.7,4.16,5.33ZM15.75,18.65c4.31,1.76,4.52,7.75.4,10.89-1.15.88-1.35.93-1.18.25.13-.45,0-.5-1.33-.5a5.61,5.61,0,0,1-4.33-9.11A5.75,5.75,0,0,1,15.75,18.65Z"/></svg>