<svg id="Camada_1" data-name="Camada 1" xmlns="http://www.w3.org/2000/svg" viewBox="0 0 32 40"><defs><style>.cls-1{fill:#fff;}</style></defs><path class="cls-1" d="M3.46,7.76a14.84,14.84,0,0,0-2.2.88L.09,9.28,0,19.4V29.49l.73.6a15.22,15.22,0,0,0,4.16,2.15c.24,0,.31-.23.31-.89v-.89L6,31a9.54,9.54,0,0,0,11.43-.89l.89-.82.8.76c3,2.94,8.16,3.32,12,.89l.83-.51-1.78-1.77L28.4,26.86l-.83.35A4.47,4.47,0,0,1,23.65,27a4,4,0,0,1-2.2-4.21,4.34,4.34,0,0,1,4.78-3.85,4.28,4.28,0,0,1,1.47.43l.82.44L30.38,18c2.2-2,2.2-2-.25-3.18A8.83,8.83,0,0,0,22,14.59a11.06,11.06,0,0,0-2.49,1.61l-1,.89-.89-.84A9.5,9.5,0,0,0,6.23,15.08a4.46,4.46,0,0,1-.89.47,31.74,31.74,0,0,1-.08-4C5.27,7,5.34,7.23,3.46,7.76ZM13.1,18.83c3.55,1.46,3.75,6.44.32,9.06-.95.73-1.12.77-1,.2.1-.37,0-.42-1.11-.42a4.67,4.67,0,0,1-3.6-7.57A4.79,4.79,0,0,1,13.1,18.83Z"/></svg>