<svg id="Camada_1" data-name="Camada 1" xmlns="http://www.w3.org/2000/svg" viewBox="0 0 42.67 40"><defs><style>.cls-1{fill:#fff;}</style></defs><polygon class="cls-1" points="8.53 12.53 8.53 18.4 11.6 18.4 12.8 17.2 12.8 13.73 11.6 12.53 8.53 12.53"/><path class="cls-1" d="M0,4V36H42.67V4ZM16,18.54,14.53,20,16,21.47V27.6l-3.07,3.07H5.33V9.33h7.6L16,12.4Zm8,.68-5.33,5.35V20.78L24,15.43ZM34.53,30.67,32.1,21.6H29.87v9.07h-3.2V9.33h7.6l3.06,3.07v6.13l-2.25,2.25,2.65,9.89Z"/><polygon class="cls-1" points="29.87 12.53 29.87 18.4 32.93 18.4 34.13 17.2 34.13 13.73 32.93 12.53 29.87 12.53"/><polygon class="cls-1" points="8.53 21.6 8.53 27.47 11.6 27.47 12.8 26.27 12.8 22.8 11.6 21.6 8.53 21.6"/></svg>