<svg id="Camada_1" data-name="Camada 1" xmlns="http://www.w3.org/2000/svg" viewBox="0 0 110 40"><defs><style>.cls-1{fill:none;}.cls-2{fill:#fff;}</style></defs><rect class="cls-1" y="10.52" width="110" height="22.95"/><path class="cls-2" d="M2.89,13.36H5.27c2.17,0,3.11.69,3.11,2.09,0,1.21-1,2-2.86,2H2.91V13.36ZM0,27H5.84c3.05,0,6.12-1.1,6.12-4.6a3.84,3.84,0,0,0-3.48-3.9v0A3.59,3.59,0,0,0,11.27,15c0-2.93-2.5-4.06-4.95-4.06H0Zm2.87-7.1H5.64c2.33,0,3.41.59,3.41,2.29,0,2.13-2.06,2.38-3.53,2.38H2.89Z"/><path class="cls-2" d="M13.81,10.52h2.73V27H13.81V10.52Z"/><path class="cls-2" d="M21.12,21.56a3.21,3.21,0,1,1,6.41,0,3.21,3.21,0,1,1-6.41,0Zm-2.73,0a5.68,5.68,0,0,0,6,5.75,5.75,5.75,0,1,0,0-11.49,5.69,5.69,0,0,0-6,5.74Z"/><path class="cls-2" d="M34.27,21.56a3.21,3.21,0,1,1,6.41,0,3.21,3.21,0,1,1-6.41,0Zm-2.75,0a5.67,5.67,0,0,0,6,5.75,5.75,5.75,0,1,0,0-11.49A5.7,5.7,0,0,0,31.52,21.56Z"/><path class="cls-2" d="M45.1,16.11h2.59v1.72h.05a3.47,3.47,0,0,1,3.34-2,3.33,3.33,0,0,1,3.42,2,3.81,3.81,0,0,1,3.59-2C61,15.84,62,17.92,62,20.53v6.53H59.31V20.85c0-1.37-.42-2.54-2-2.54s-2.36,1.42-2.36,2.82v5.93H52.18V20.53c0-1.35-.55-2.24-1.88-2.24-1.81,0-2.49,1.33-2.49,2.77v6H45.08V16.11Z"/><path class="cls-2" d="M73.35,21.56a3.21,3.21,0,1,1-6.42,0,3.21,3.21,0,1,1,6.42,0ZM64.28,27h2.59V25.39h0a4.22,4.22,0,0,0,3.76,1.92c3.37,0,5.4-2.49,5.4-5.75s-2.17-5.74-5.29-5.74a4.47,4.47,0,0,0-3.71,1.67H67v-7H64.28Z"/><path class="cls-2" d="M80.06,20.49a2.71,2.71,0,0,1,2.82-2.59,2.5,2.5,0,0,1,2.77,2.59Zm8.34,2v-.76c0-3.8-2.09-5.95-5.13-5.95a5.75,5.75,0,1,0,4.62,9.3l-2-1.49A3.61,3.61,0,0,1,83,25.12a2.83,2.83,0,0,1-2.93-2.59Z"/><path class="cls-2" d="M90.19,16.11h2.72v1.74h0a3.48,3.48,0,0,1,3.23-2,3.59,3.59,0,0,1,1,.16v2.63a5.72,5.72,0,0,0-1.33-.2,2.75,2.75,0,0,0-2.93,2.75V27H90.19V16.11Z"/><path class="cls-2" d="M103.31,18.29a3,3,0,0,1,3.23,3.21,3.06,3.06,0,0,1-3.25,3.2,3.15,3.15,0,0,1-3.21-3.16,3.09,3.09,0,0,1,3.23-3.25Zm3.23-2.18v1.65h0a4.24,4.24,0,0,0-3.76-1.92c-3.37,0-5.41,2.52-5.41,5.75a5.38,5.38,0,0,0,5.45,5.61,4.45,4.45,0,0,0,3.58-1.6h0v.8c0,2.17-.82,3.66-3.46,3.66a5.23,5.23,0,0,1-3.75-1.58l-1.65,2.25A7.8,7.8,0,0,0,103,32.54c4.26,0,6.18-2.5,6.18-6.46v-10Z"/></svg>