<svg xmlns="http://www.w3.org/2000/svg" viewBox="0 0 100 40"><defs><style>.a{fill:#fff;}</style></defs><title>bloomberg</title><path class="a" d="M0,10.77H.81l7.11.09A4.62,4.62,0,0,1,10.78,12a3.89,3.89,0,0,1,.83,4.07A3.11,3.11,0,0,1,10,17.62a3.65,3.65,0,0,1,2.21,2,4.63,4.63,0,0,1-1,4.87A5,5,0,0,1,7.84,25.7H0V10.77M4,14v2.56H5.5c.62-.06,1.29.21,1.87-.13a1.44,1.44,0,0,0,.46-1.72A1.4,1.4,0,0,0,6.49,14H4m0,5.33v3.1a20.73,20.73,0,0,0,3.41-.13,1.41,1.41,0,0,0,1-1.59A1.37,1.37,0,0,0,7.14,19.4c-1,0-2,0-3.07,0Z"/><path class="a" d="M13.25,25.75q0-7.46,0-14.92h3.81V25.75C15.79,25.74,14.52,25.73,13.25,25.75Z"/><path class="a" d="M58.85,10.85h3.73v5.4a3.72,3.72,0,0,1,2.33-1.42,3.81,3.81,0,0,1,3.5,1.1,6.63,6.63,0,0,1,1.46,4.87,6.13,6.13,0,0,1-1.42,4.06,4,4,0,0,1-5.12.48,8.44,8.44,0,0,1-.89-1c0,.44,0,.89,0,1.33H58.85V10.83m5,6.72a2.47,2.47,0,0,0-1.33,2.37,3.59,3.59,0,0,0,.8,2.82,1.5,1.5,0,0,0,2,.07,3.35,3.35,0,0,0,.81-2.36,4.2,4.2,0,0,0-.52-2.29,1.49,1.49,0,0,0-1.76-.59Z"/><path class="a" d="M91.42,15.43A3.82,3.82,0,0,1,94.76,15a3.69,3.69,0,0,1,1.69,1.36V15.06H100v9a5.23,5.23,0,0,1-1.21,3.69,4.91,4.91,0,0,1-3.38,1.4,6.94,6.94,0,0,1-4.13-.8,3.7,3.7,0,0,1-1.69-2.67h3.53a1.76,1.76,0,0,0,3,.1,4.73,4.73,0,0,0,.18-1.95,3.35,3.35,0,0,1-2.23,1.26,4.09,4.09,0,0,1-3.81-1.74,6.26,6.26,0,0,1-.82-4.33,5.26,5.26,0,0,1,1.95-3.67m2.73,2.3a2.25,2.25,0,0,0-1.09,2,2.79,2.79,0,0,0,.9,2.46A1.48,1.48,0,0,0,96,21.79l0-.06a3.46,3.46,0,0,0,.06-3.33,1.5,1.5,0,0,0-2-.66Z"/><path class="a" d="M45.69,15.57a3.69,3.69,0,0,1,3.23-.65,3,3,0,0,1,2,1.75,3.79,3.79,0,0,1,5.66-1.07,4.44,4.44,0,0,1,1.21,3.33v6.75h-3.7c0-1.92,0-3.84,0-5.76a3.1,3.1,0,0,0-.33-1.56A1.25,1.25,0,0,0,52,18.15l-.12.11a2.62,2.62,0,0,0-.54,1.85v5.58H47.61V19.43A1.49,1.49,0,0,0,46.84,18a1.26,1.26,0,0,0-1.52.41,2.69,2.69,0,0,0-.4,1.69v5.59H41.08c0-3.54,0-7.08,0-10.61h3.53c0,.55,0,1.09,0,1.64C45,16.36,45.28,15.89,45.69,15.57Z"/><path class="a" d="M71.67,16.55a5.51,5.51,0,0,1,8.18.12,7.49,7.49,0,0,1,1.32,4.75c-2.38,0-4.76,0-7.14,0a2.26,2.26,0,0,0,1.13,1.9A1.89,1.89,0,0,0,77,23.09a4.53,4.53,0,0,0,.48-.67H81a4.57,4.57,0,0,1-2.65,3.16A6,6,0,0,1,71.47,24a6.27,6.27,0,0,1,.2-7.48m3.28,1A2.33,2.33,0,0,0,74,19.3h3.48a2.48,2.48,0,0,0-.59-1.54A1.72,1.72,0,0,0,75,17.51Z"/><path class="a" d="M21.6,15.08a6.14,6.14,0,0,1,5.25.84c2,1.48,2.41,4.26,1.75,6.51a4.94,4.94,0,0,1-3.27,3.34,6,6,0,0,1-6.08-1.39,6.22,6.22,0,0,1-1.15-5.74,5,5,0,0,1,3.5-3.55m1.28,2.39a1.72,1.72,0,0,0-1,1.2,6.72,6.72,0,0,0-.16,2.77,2.7,2.7,0,0,0,.86,1.84,1.41,1.41,0,0,0,1.94-.33,4.21,4.21,0,0,0,.61-2.49A4,4,0,0,0,24.47,18a1.43,1.43,0,0,0-1.59-.52Z"/><path class="a" d="M33.58,15a6.07,6.07,0,0,1,4.7.91,5.25,5.25,0,0,1,2,3.71,6.13,6.13,0,0,1-1.23,4.69,5.79,5.79,0,0,1-5.83,1.58,5,5,0,0,1-3.44-3,6.7,6.7,0,0,1,.16-5.19A5,5,0,0,1,33.58,15m.83,2.49a1.67,1.67,0,0,0-1.08,1.14,6.59,6.59,0,0,0-.2,2.91,2.61,2.61,0,0,0,.88,1.8,1.4,1.4,0,0,0,1.86-.3,3.94,3.94,0,0,0,.67-2.56,4.08,4.08,0,0,0-.67-2.52,1.42,1.42,0,0,0-1.46-.47Z"/><path class="a" d="M86.94,15.31A3,3,0,0,1,89.17,15v3.28a3.18,3.18,0,0,0-2.57.41,3.12,3.12,0,0,0-1,2.46v4.64H81.86q0-5.33,0-10.67h3.43l.12.1c0,.59,0,1.18,0,1.77C85.89,16.41,86.25,15.69,86.94,15.31Z"/></svg>