<svg id="Camada_1" data-name="Camada 1" xmlns="http://www.w3.org/2000/svg" viewBox="0 0 100 40"><defs><style>.cls-1{fill:#fff;}</style></defs><title>businessinsider</title><path class="cls-1" d="M7.75,35.53h2.33V23.11H7.75Zm8.53-.18h2.08V27.51l8.77,8V23.29H25.05V31l-8.77-7.89Zm15.61-3a6.4,6.4,0,0,0,4,1.39c1.42,0,2.42-.49,2.42-1.57s-.63-1.31-1.75-1.72l-1.8-.63c-1.66-.59-2.93-1.45-2.93-3.43s1.92-3.27,4.2-3.27a7,7,0,0,1,3.68,1v2.11A5.88,5.88,0,0,0,36,24.89c-1.26,0-2.2.47-2.2,1.45s.59,1.23,1.63,1.59l2,.7c2,.69,2.84,1.75,2.84,3.5,0,2.19-1.93,3.4-4.47,3.4a7.26,7.26,0,0,1-4-1.05Zm13.85,3.19h2.32V23.11H45.74ZM59,33.65c2.62,0,4-1.68,4-4.33S61.59,25,59,25H56.38v8.68ZM54.26,23.11h4.79c3.68,0,6.07,2.42,6.07,6.21s-2.39,6.21-6.07,6.21H54.26Zm22.48,0V25H71.12v3h5V29.8h-5v3.85h5.62v1.88H69V23.11ZM85,28.73h2.31a1.91,1.91,0,1,0,0-3.8H85v3.8Zm0,1.76v5H83V23.11h4.4c2.5,0,4.13,1.29,4.13,3.72,0,2.08-.9,3.28-2.82,3.58L93,35.53H90.69l-4.23-5ZM6.94,10.86a2.74,2.74,0,0,0,1.62-2.7c0-2.29-1.62-3.48-4.21-3.48H0V17.46H4.75C7.34,17.46,9,16.19,9,13.8A3.1,3.1,0,0,0,6.94,10.86ZM2,10.05V6.56H4.33c1.44,0,2.2.52,2.2,1.72s-.76,1.77-2.2,1.77Zm0,1.79H4.71c1.42,0,2.19.71,2.19,1.88s-.77,1.87-2.19,1.87H2V11.84Zm16.41,5.83c3,0,5-1.79,5-5.29V4.68H21.32v7.45c0,2.46-1,3.6-2.87,3.6s-2.87-1.14-2.87-3.6V4.68h-2.1v7.68C13.48,15.88,15.5,17.67,18.45,17.67Zm9.93-1.12a7,7,0,0,0,3.95,1.12c2.53,0,4.45-1.29,4.45-3.62,0-1.85-.89-3-2.84-3.71l-2-.75c-1-.37-1.62-.74-1.62-1.68s.93-1.54,2.19-1.54a5.66,5.66,0,0,1,3.62,1.37V5.51a6.61,6.61,0,0,0-3.66-1c-2.29,0-4.19,1.23-4.19,3.48s1.25,3,2.91,3.64l1.8.67c1.12.44,1.74.83,1.74,1.83s-1,1.67-2.4,1.67a6.2,6.2,0,0,1-3.95-1.48ZM44.29,4.68h-2.1V17.46h2.1Zm6,12.77h2V9.13l8.54,8.51v-13h-2v8.17L50.3,4.47ZM74,4.69V6.6H68.54V9.67h4.9v1.9h-4.9v4H74v1.94H66.48V4.69Zm4.9,11.85a7,7,0,0,0,3.94,1.12c2.53,0,4.46-1.29,4.46-3.62,0-1.85-.9-3-2.84-3.71l-2-.74c-1-.38-1.62-.75-1.62-1.69S81.77,6.36,83,6.36a5.68,5.68,0,0,1,3.62,1.37V5.51a6.53,6.53,0,0,0-3.66-1c-2.29,0-4.19,1.22-4.19,3.47,0,2.1,1.25,3,2.91,3.64l1.8.67c1.11.44,1.74.83,1.74,1.83,0,1.15-1,1.67-2.41,1.67a6.14,6.14,0,0,1-3.94-1.48Zm12.7,0a7,7,0,0,0,4,1.12c2.53,0,4.45-1.29,4.45-3.62,0-1.85-.89-3-2.83-3.71l-2-.74c-1-.38-1.62-.75-1.62-1.69s.93-1.54,2.18-1.54a5.66,5.66,0,0,1,3.62,1.37V5.51a6.51,6.51,0,0,0-3.66-1c-2.29,0-4.19,1.22-4.19,3.47,0,2.1,1.26,3,2.92,3.64l1.8.67c1.11.44,1.74.83,1.74,1.83,0,1.15-1,1.67-2.41,1.67a6.16,6.16,0,0,1-4-1.48Z"/></svg>