<svg xmlns="http://www.w3.org/2000/svg" viewBox="0 0 100 40"><defs><style>.a{fill:#fff;}</style></defs><title>BuzzFeed</title><path class="a" d="M0,11.16c2.82,0,5.63,0,8.45,0a4.31,4.31,0,0,1,4.23,3.54,4,4,0,0,1-2.59,4.75.65.65,0,0,0-.15.1A4,4,0,0,1,13,22.93,4.46,4.46,0,0,1,9,28.44a18.85,18.85,0,0,1-2,.07l-7,0Q0,19.85,0,11.16ZM3.74,25.22a.5.5,0,0,0,.14,0c1.17,0,2.34,0,3.5,0a2,2,0,0,0,.14-3.92,21.56,21.56,0,0,0-2.26-.06H3.74Zm0-7.17H6.87a3.09,3.09,0,0,0,.6,0,1.7,1.7,0,0,0,1.47-1.28A1.8,1.8,0,0,0,7.21,14.4c-.58,0-1.17,0-1.75,0H3.74c0,.13,0,.2,0,.28C3.72,15.77,3.72,16.87,3.72,18Z"/><path class="a" d="M67.13,28.85c-.44-.08-.88-.14-1.32-.25a6.27,6.27,0,0,1-4.84-7,6.37,6.37,0,0,1,12.69-.33c.08.64.08,1.29.12,2H64.39a3.08,3.08,0,0,0,1.87,2.47,4.91,4.91,0,0,0,4.8-.61l.26-.19h.09l1.47,2.16c-.48.3-.93.63-1.42.87a7.75,7.75,0,0,1-2.86.77,2.25,2.25,0,0,0-.34.08ZM70.53,21c.07-1.56-1.42-2.75-3.3-2.68-1.57.06-3,1.39-2.79,2.68Z"/><path class="a" d="M80.6,28.85c-.54-.11-1.09-.19-1.62-.33a6.15,6.15,0,0,1-4.52-5.47,6.56,6.56,0,0,1,2.48-6.13c3-2.36,8.92-1.83,10.1,3.77a8.52,8.52,0,0,1,.16,1.22c0,.43,0,.87,0,1.37H77.88a2.87,2.87,0,0,0,.8,1.73,3.89,3.89,0,0,0,3.71,1,5,5,0,0,0,2.44-1.12l1.5,2.2c-.39.26-.74.54-1.13.75a7.93,7.93,0,0,1-3.11.91,3.07,3.07,0,0,0-.38.08ZM77.91,21H84c.08-1.51-1.37-2.71-3.2-2.68A2.81,2.81,0,0,0,77.91,21Z"/><path class="a" d="M18.89,28.85c-.4-.08-.8-.15-1.2-.25a4.82,4.82,0,0,1-3.9-4.94q0-3.63,0-7.25V16h3.31v.46c0,2.28,0,4.57,0,6.85a2.33,2.33,0,0,0,1.29,2.37,3,3,0,0,0,3.14-.23,2.44,2.44,0,0,0,.93-2.14q0-3.41,0-6.81V16h3.28v.45q0,3.59,0,7.17a4.92,4.92,0,0,1-4.68,5.17,4,4,0,0,0-.42.09Z"/><path class="a" d="M50.18,28.5V11.17H62.23v1.68c0,.37,0,.75,0,1.12s-.12.44-.45.44c-2.38,0-4.76,0-7.13,0H53.9V18h.45c1.79,0,3.59,0,5.38,0,.36,0,.45.11.44.45,0,.91,0,1.83,0,2.79H53.87V28.5Z"/><path class="a" d="M88,28.49V28q0-5.82,0-11.63c0-.51,0-.51.53-.51,1.82,0,3.64-.06,5.45.08a5.92,5.92,0,0,1,5.55,3.91A6.43,6.43,0,0,1,97.83,27a6.55,6.55,0,0,1-4,1.47c-1.87.07-3.74,0-5.62,0Zm3.16-2.66H93a3.46,3.46,0,0,0,3.73-3.34,3.47,3.47,0,0,0-2-3.59c-1.16-.48-2.37-.22-3.58-.29C91.21,21,91.21,23.4,91.21,25.83Z"/><path class="a" d="M32.43,18.81H26.81V16H37c0,.54,0,1.08,0,1.61a1.72,1.72,0,0,1-.43,1.26c-1.69,2.1-3.35,4.22-5,6.34l-.31.41H37v2.9H26.78c0-.79,0-1.58,0-2.37,0-.14.14-.28.24-.4l5.15-6.54C32.24,19.08,32.31,19,32.43,18.81Z"/><path class="a" d="M37.94,18.81c0-.9,0-1.72,0-2.54,0-.09,0-.18,0-.3H48.08c0,.76,0,1.52,0,2.27,0,.11-.11.23-.19.33L42.65,25.2c-.09.11-.16.23-.3.41h.51c1.65,0,3.29,0,4.94,0,.31,0,.42.07.41.4,0,.82,0,1.64,0,2.49H37.95c0-.82,0-1.62,0-2.43,0-.1.11-.21.18-.3l5-6.39.44-.57Z"/></svg>