<svg id="svg122" xmlns="http://www.w3.org/2000/svg" viewBox="0 0 100 40"><defs><style>.cls-1{fill:#fff;}</style></defs><g id="g237"><g id="g114"><path id="path96" class="cls-1" d="M31.1,16.17a2.5,2.5,0,0,0-2.15,1,4.88,4.88,0,0,0-.76,2.91c0,2.58,1,3.87,2.92,3.87a9.14,9.14,0,0,0,3-.61v2.07a8.15,8.15,0,0,1-3.19.6A4.81,4.81,0,0,1,27,24.52a6.45,6.45,0,0,1-1.34-4.4A7.05,7.05,0,0,1,26.33,17a4.81,4.81,0,0,1,1.88-2.11,5.53,5.53,0,0,1,2.9-.72,7.79,7.79,0,0,1,3.39.81l-.79,2c-.43-.2-.87-.38-1.31-.54a3.86,3.86,0,0,0-1.3-.22Z"/><path id="path98" class="cls-1" d="M41.41,25.88,41,24.67h-.07a3.49,3.49,0,0,1-1.26,1.09,4,4,0,0,1-1.68.3,2.71,2.71,0,0,1-2-.73,2.79,2.79,0,0,1-.75-2.1,2.34,2.34,0,0,1,1-2.08,5.76,5.76,0,0,1,3-.74l1.54-.05V20a1.21,1.21,0,0,0-1.06-1.35.86.86,0,0,0-.32,0,6.38,6.38,0,0,0-2.5.64L36,17.63a7.31,7.31,0,0,1,3.41-.8,4.22,4.22,0,0,1,2.73.78,2.88,2.88,0,0,1,1,2.37v5.9Zm-.71-4.1-.94,0a3,3,0,0,0-1.54.37,1.22,1.22,0,0,0-.52,1.07q0,1,1.17,1a1.9,1.9,0,0,0,1.35-.48,1.72,1.72,0,0,0,.5-1.29v-.73Z"/><path id="path100" class="cls-1" d="M53.13,25.88H50.7V20.7a2.48,2.48,0,0,0-.35-1.43,1.22,1.22,0,0,0-1.09-.48,1.64,1.64,0,0,0-1.47.68,4.26,4.26,0,0,0-.45,2.25v4.16H44.91V17h1.82l.33,1.13h.13a2.57,2.57,0,0,1,1.12-1,3.75,3.75,0,0,1,1.61-.33,3.09,3.09,0,0,1,2.35.84,3.35,3.35,0,0,1,.8,2.43v5.76Z"/><path id="path102" class="cls-1" d="M60.59,25.88l-.47-1.21h-.07a3.46,3.46,0,0,1-1.25,1.09,4,4,0,0,1-1.68.3,2.71,2.71,0,0,1-2-.73,2.78,2.78,0,0,1-.73-2.08,2.33,2.33,0,0,1,1-2.08,5.76,5.76,0,0,1,3-.74l1.54-.05V20a1.21,1.21,0,0,0-1.06-1.35.81.81,0,0,0-.31,0,6.38,6.38,0,0,0-2.5.64l-.81-1.64a7.3,7.3,0,0,1,3.4-.8,4.22,4.22,0,0,1,2.73.78,2.88,2.88,0,0,1,1,2.37v5.9Zm-.72-4.1-.93,0a3,3,0,0,0-1.57.38,1.21,1.21,0,0,0-.52,1.06c0,.68.39,1,1.17,1a1.87,1.87,0,0,0,1.35-.49,1.7,1.7,0,0,0,.5-1.28Z"/><path id="path104" class="cls-1" d="M66.54,25.88H64.12V13.55h2.42Z"/><path id="path106" class="cls-1" d="M72.22,24.16a5.59,5.59,0,0,0,1.52-.28V25.7a5.6,5.6,0,0,1-2.22.4,2.75,2.75,0,0,1-2.11-.73,3.23,3.23,0,0,1-.66-2.2V18.92H67.59v-1l1.34-.81.7-1.87h1.54v1.88h2.48V18.9H71.17v4.25a1,1,0,0,0,.29.76,1.18,1.18,0,0,0,.76.25Z"/><path id="path108" class="cls-1" d="M78.92,26.08a4.54,4.54,0,0,1-3.35-1.18,4.46,4.46,0,0,1-1.21-3.35,4.92,4.92,0,0,1,1.11-3.44,4.52,4.52,0,0,1,6-.15,4.06,4.06,0,0,1,1,2.95v1.21H76.81a2.33,2.33,0,0,0,.61,1.61,2.14,2.14,0,0,0,1.6.61,6.5,6.5,0,0,0,1.52-.17A7.35,7.35,0,0,0,82,23.64v1.82a5.92,5.92,0,0,1-1.36.47,8.56,8.56,0,0,1-1.75.15Zm-.34-7.46a1.52,1.52,0,0,0-1.21.48,2.19,2.19,0,0,0-.5,1.39h3.39a2,2,0,0,0-.46-1.39A1.56,1.56,0,0,0,78.58,18.62Z"/><path id="path110" class="cls-1" d="M87.67,26.08q-4.14,0-4.14-4.54a4.82,4.82,0,0,1,1.13-3.45,4.23,4.23,0,0,1,3.22-1.21,6.11,6.11,0,0,1,2.76.6l-.71,1.88c-.38-.16-.74-.28-1.06-.38a3.29,3.29,0,0,0-1-.14c-1.25,0-1.88.89-1.88,2.68s.63,2.65,1.88,2.6a4,4,0,0,0,1.29-.18,4.56,4.56,0,0,0,1.21-.6V25.4a3.82,3.82,0,0,1-1.21.52A6.32,6.32,0,0,1,87.67,26.08Z"/><path id="path112" class="cls-1" d="M100,25.93H97.57V20.75c0-1.28-.47-1.92-1.42-1.92a1.63,1.63,0,0,0-1.47.69,4.25,4.25,0,0,0-.46,2.24v4.17H91.8V13.59h2.42V16.1c0,.19,0,.65,0,1.38l-.06.71h.13a2.82,2.82,0,0,1,2.57-1.3,3.13,3.13,0,0,1,2.37.85,3.35,3.35,0,0,1,.81,2.42v5.78Z"/></g><path class="cls-1" d="M10.62,9.38A10.62,10.62,0,1,0,21.23,20,10.62,10.62,0,0,0,10.62,9.38Zm6.21,8.42H14.64v6.6H4.4V15.6H16.83Z"/><polygon id="polygon120" class="cls-1" points="10.24 22.2 6.59 22.2 6.59 17.8 12.44 17.8 12.44 24.4 10.24 22.2"/></g></svg>