<svg id="svg122" xmlns="http://www.w3.org/2000/svg" viewBox="0 0 115 40"><defs><style>.cls-1{fill:#fff;}</style></defs><g id="g237"><g id="g114"><path id="path96" class="cls-1" d="M35.76,15.6a2.86,2.86,0,0,0-2.48,1.15,5.61,5.61,0,0,0-.87,3.34c0,3,1.15,4.45,3.36,4.45a10.76,10.76,0,0,0,3.45-.7v2.38a9.46,9.46,0,0,1-3.67.69A5.55,5.55,0,0,1,31,25.2a7.48,7.48,0,0,1-1.54-5.06,8.23,8.23,0,0,1,.77-3.59,5.56,5.56,0,0,1,2.16-2.42,6.31,6.31,0,0,1,3.34-.83,8.91,8.91,0,0,1,3.89.93l-.9,2.3c-.5-.23-1-.44-1.51-.62a4.24,4.24,0,0,0-1.49-.25Z"/><path id="path98" class="cls-1" d="M47.61,26.76l-.48-1.39h-.08a3.94,3.94,0,0,1-1.44,1.25,4.6,4.6,0,0,1-1.94.34,3.09,3.09,0,0,1-2.29-.83,3.23,3.23,0,0,1-.87-2.42,2.72,2.72,0,0,1,1.15-2.39,6.72,6.72,0,0,1,3.45-.85l1.77-.06V20a1.39,1.39,0,0,0-1.21-1.55h0a1.09,1.09,0,0,0-.36,0,7.56,7.56,0,0,0-2.88.73l-1-1.9a8.34,8.34,0,0,1,3.92-.92,4.81,4.81,0,0,1,3.13.89A3.31,3.31,0,0,1,49.59,20v6.78Zm-.82-4.71H45.71a3.41,3.41,0,0,0-1.77.42,1.41,1.41,0,0,0-.6,1.23c0,.77.45,1.15,1.35,1.15a2.16,2.16,0,0,0,1.55-.55,2,2,0,0,0,.57-1.48V22Z"/><path id="path100" class="cls-1" d="M61.08,26.76h-2.8v-6a2.8,2.8,0,0,0-.4-1.64,1.39,1.39,0,0,0-1.25-.55,1.87,1.87,0,0,0-1.69.78A4.84,4.84,0,0,0,54.42,22v4.78H51.63V16.55h2.09l.38,1.3h.15a2.94,2.94,0,0,1,1.29-1.15,4.35,4.35,0,0,1,1.85-.38,3.57,3.57,0,0,1,2.7,1A3.87,3.87,0,0,1,61,20.08V26.7Z"/><path id="path102" class="cls-1" d="M69.65,26.76l-.54-1.39H69a3.86,3.86,0,0,1-1.44,1.25,4.55,4.55,0,0,1-1.93.34,3.1,3.1,0,0,1-2.3-.83,3.25,3.25,0,0,1-.84-2.39,2.7,2.7,0,0,1,1.15-2.4,6.72,6.72,0,0,1,3.45-.85l1.77,0V20a1.39,1.39,0,0,0-1.21-1.55h0a1,1,0,0,0-.35,0,7.56,7.56,0,0,0-2.88.73l-.93-1.88a8.43,8.43,0,0,1,3.91-.92,4.82,4.82,0,0,1,3.14.9A3.31,3.31,0,0,1,71.71,20v6.78Zm-.83-4.71H67.75a3.33,3.33,0,0,0-1.8.43,1.41,1.41,0,0,0-.6,1.22c0,.78.45,1.15,1.35,1.15a2.16,2.16,0,0,0,1.55-.56,1.93,1.93,0,0,0,.57-1.47Z"/><path id="path104" class="cls-1" d="M76.49,26.76H73.71V12.59h2.78Z"/><path id="path106" class="cls-1" d="M83,24.78a6.08,6.08,0,0,0,1.74-.32v2.09a6.37,6.37,0,0,1-2.55.46,3.13,3.13,0,0,1-2.42-.84A3.66,3.66,0,0,1,79,23.64V18.76H77.7V17.61l1.54-.93.8-2.15h1.77v2.16h2.85v2H81.81v4.88a1.12,1.12,0,0,0,.33.87A1.33,1.33,0,0,0,83,24.78Z"/><path id="path108" class="cls-1" d="M90.72,27a5.19,5.19,0,0,1-3.85-1.36,5.08,5.08,0,0,1-1.39-3.85,5.61,5.61,0,0,1,1.27-4,5.19,5.19,0,0,1,6.9-.17,4.67,4.67,0,0,1,1.15,3.39v1.39H88.29a2.7,2.7,0,0,0,.7,1.85,2.48,2.48,0,0,0,1.84.7,7.34,7.34,0,0,0,1.75-.2,7.86,7.86,0,0,0,1.68-.61v2.1a7.11,7.11,0,0,1-1.57.54,10.36,10.36,0,0,1-2,.17Zm-.39-8.58a1.72,1.72,0,0,0-1.39.56,2.45,2.45,0,0,0-.58,1.59h3.9A2.29,2.29,0,0,0,91.73,19,1.78,1.78,0,0,0,90.33,18.41Z"/><path id="path110" class="cls-1" d="M100.77,27Q96,27,96,21.77a5.57,5.57,0,0,1,1.29-4A4.92,4.92,0,0,1,101,16.41a7.11,7.11,0,0,1,3.17.69l-.82,2.16c-.44-.18-.85-.32-1.22-.43a3.72,3.72,0,0,0-1.15-.16c-1.43,0-2.16,1-2.16,3.08s.73,3,2.16,3a4.67,4.67,0,0,0,1.49-.21,5.31,5.31,0,0,0,1.39-.69v2.37a4.48,4.48,0,0,1-1.39.59A7.68,7.68,0,0,1,100.77,27Z"/><path id="path112" class="cls-1" d="M115,26.82h-2.8v-6c0-1.47-.54-2.2-1.63-2.2a1.85,1.85,0,0,0-1.69.79A4.87,4.87,0,0,0,108.3,22v4.8h-2.78V12.63h2.78V17.1l-.07.82h.15a3.25,3.25,0,0,1,3-1.49,3.6,3.6,0,0,1,2.72,1,3.83,3.83,0,0,1,.93,2.78v6.65Z"/></g><path class="cls-1" d="M12.22,7.79A12.21,12.21,0,1,0,24.41,20h0A12.21,12.21,0,0,0,12.22,7.79Zm7.13,9.68H16.84v7.59H5.07V14.94H19.35Z"/><polygon id="polygon120" class="cls-1" points="11.78 22.53 7.59 22.53 7.59 17.47 14.31 17.47 14.31 25.06 11.78 22.53"/></g></svg>