<svg id="Camada_1" data-name="Camada 1" xmlns="http://www.w3.org/2000/svg" viewBox="0 0 100 40"><defs><style>.cls-1{fill:#fff;}</style></defs><path class="cls-1" d="M98.5,17.66v9.52H100l0-9.47,0-9.46-.7-.05-.72,0Z"/><path class="cls-1" d="M4,8.65C1.37,9.45.32,11.54,0,16.51c-.18,3.35.27,6.7,1.12,8.42,1,1.95,3,2.78,5.78,2.43,2.22-.28,3.29-1.12,3.77-2.93A6.35,6.35,0,0,0,11,21.94,18.49,18.49,0,0,0,8,21.54a8.41,8.41,0,0,0-.15.94,2.5,2.5,0,0,1-.95,2,3.09,3.09,0,0,1-1.15.2c-1.58,0-2.2-.87-2.51-3.72a31.61,31.61,0,0,1,.26-7.8c.39-1.34,1.1-2,2.14-2,1.51,0,2.21.85,2.26,2.77l0,.52,1-.14,1.55-.23.5-.08-.13-1.22a9.46,9.46,0,0,0-.38-1.9A3.93,3.93,0,0,0,8.11,8.77,11.93,11.93,0,0,0,4,8.65Z"/><path class="cls-1" d="M51.46,8.74c-2.35.83-3.15,3.18-3.15,9.22,0,4.52.4,6.72,1.49,8.05.8,1,1.38,1.23,3.2,1.3,3.38.13,4.45-.83,4.68-4.22l0-.66-.7-.1c-.8-.1-.88,0-.88,1.06,0,1.94-1.44,3-3.5,2.69-1.54-.25-2.35-1.37-2.67-3.69a50.58,50.58,0,0,1,.23-10.17,3.38,3.38,0,0,1,1.72-2.15,4.67,4.67,0,0,1,3,0,2.81,2.81,0,0,1,1.24,2.42c0,1.07.16,1.25.93,1.05l.64-.15,0-.83c-.16-2.87-1.48-4.1-4.43-4.09A7.66,7.66,0,0,0,51.46,8.74Z"/><path class="cls-1" d="M78.69,10.37l0,.88h1.67l0-.88.05-.87H78.64Z"/><path class="cls-1" d="M83.71,11.29l-.55.06v3.32h-.75c-.75,0-.75,0-.75.57s0,.58.72.63l.7.05L83.16,21c.07,3.7.15,5.18.3,5.45.37.65,1.08.9,2.42.85l1.2,0,0-.63.05-.64-.84.12a1.59,1.59,0,0,1-1.26-.17l-.42-.26V15.84h2.67V14.67H84.66V12.92c0-1.3,0-1.75-.2-1.72S84,11.25,83.71,11.29Z"/><path class="cls-1" d="M31.14,13v1.66h-1.5v2.5h1.5v4c0,3.79,0,4,.38,4.7.5,1,1.53,1.54,3.09,1.57a8.56,8.56,0,0,0,1.58-.12c.38-.1.45-.2.45-.75a9.55,9.55,0,0,0-.1-1.2l-.1-.58-.82.07c-.61,0-.91,0-1.16-.25s-.32-.54-.32-3.85V17.17h2.5v-2.5h-2.5V11.34h-3Z"/><path class="cls-1" d="M15.33,14.54a3.21,3.21,0,0,0-2.82,1.63,3.6,3.6,0,0,0-.38,1.35c0,.69-.23.59,2.23.92l.72.1.12-.6a2.09,2.09,0,0,1,.46-.93,1.77,1.77,0,0,1,1.94-.07c.31.22.36.4.36,1.32v1.06l-.78.1a12.08,12.08,0,0,0-4.12,1.22c-1,.69-1.35,1.52-1.35,3.12s.49,2.78,1.5,3.32a4.6,4.6,0,0,0,4.65-.72c.37-.4.61-.23.61.43,0,.37.06.39,1.33.39h1.33V22.53c0-2.56-.06-5-.16-5.51a2.79,2.79,0,0,0-1.39-2.11A10.82,10.82,0,0,0,15.33,14.54Zm2.6,8.17-.05,1.53-.57.39a2.13,2.13,0,0,1-2,.21,2.29,2.29,0,0,1-.57-2,2.08,2.08,0,0,1,1.87-1.43c.43-.07.86-.14.95-.17a1.41,1.41,0,0,1,.3-.07A5.11,5.11,0,0,1,17.93,22.71Z"/><path class="cls-1" d="M27.39,14.54a3,3,0,0,0-1.37.83l-.7.69-.05-.65-.05-.65-1.39,0-1.38-.05.08,2c0,1.09.09,3.91.09,6.26v4.3h3V18.34l.69-.45a3.26,3.26,0,0,1,1.57-.52l.9-.06.1-1.22a4.54,4.54,0,0,0,0-1.38C28.75,14.46,28.12,14.39,27.39,14.54Z"/><path class="cls-1" d="M41.37,14.52c-2.25.17-3.25,1-3.5,2.85l-.1.77.89.1,1.61.22.7.08V18a1.41,1.41,0,0,1,2.42-.87c.34.33.42.57.42,1.3v.9l-1.7.27c-2.35.38-3.74,1.07-4.25,2.12-.7,1.4-.54,3.88.31,4.78a2.91,2.91,0,0,0,2.57.93,3.64,3.64,0,0,0,2.8-1c.39-.43.6-.32.6.33v.49h2.67V22.13c0-5.27-.08-5.89-.78-6.66S43.76,14.34,41.37,14.52Zm2.41,8.09c0,1.28,0,1.35-.45,1.8a1.92,1.92,0,0,1-2.44.27c-.33-.32-.42-.55-.42-1.27,0-1.25.44-1.72,1.86-2a9,9,0,0,1,1.23-.19A3.34,3.34,0,0,1,43.78,22.61Z"/><path class="cls-1" d="M60.82,14.87a2.57,2.57,0,0,0-1.52,2.05,7,7,0,0,0-.12.85,5.32,5.32,0,0,0,.79.1c.7.05.73,0,.8-.41.18-1.37.76-1.84,2.26-1.85,1.9,0,2.46.61,2.46,2.73v1.13l-1.12.12c-4.2.42-5.62,1.54-5.59,4.37a3.43,3.43,0,0,0,.4,1.92c.6,1.08,1.12,1.36,2.57,1.43a3.72,3.72,0,0,0,3.15-1,2.27,2.27,0,0,1,.6-.5,1.49,1.49,0,0,1,.22.67c.1.63.13.67.68.67H67v-5a44.66,44.66,0,0,0-.19-5.59,3.07,3.07,0,0,0-1.78-2,11.85,11.85,0,0,0-2-.16A4.1,4.1,0,0,0,60.82,14.87Zm4.67,7.71v2.06l-.62.54a3.56,3.56,0,0,1-2.55,1,1.93,1.93,0,0,1-2-1.64,2.75,2.75,0,0,1,1.2-3.2,15.07,15.07,0,0,1,3.79-.81C65.44,20.51,65.49,21,65.49,22.58Z"/><path class="cls-1" d="M71.54,14.86a4,4,0,0,0-1.12.83l-.42.48-.11-.75c-.1-.73-.12-.75-.75-.75H68.5V31.85H70V28.93a22.63,22.63,0,0,1,.1-2.92,3.06,3.06,0,0,1,.63.45,3.62,3.62,0,0,0,2.72.88c1.88,0,2.9-.81,3.52-2.81a21.17,21.17,0,0,0,0-7.19c-.65-2.05-1.65-2.82-3.62-2.83A3.72,3.72,0,0,0,71.54,14.86Zm2.95,1.28c.65.47,1,1.38,1.2,3.12a13.76,13.76,0,0,1,0,3.27c-.28,2.65-1,3.56-2.58,3.55a3.18,3.18,0,0,1-2.54-1.19l-.58-.6V17.57l.73-.71C71.92,15.69,73.44,15.39,74.49,16.14Z"/><path class="cls-1" d="M90.51,14.87A2.37,2.37,0,0,0,89,17c-.07.68,0,.85.17.85a6.14,6.14,0,0,1,.78.1c.5.1.52.08.52-.42a1.92,1.92,0,0,1,.91-1.68,4.21,4.21,0,0,1,2.72,0c.77.32,1,.94,1,2.4v1.24l-1.61.2c-3.84.5-5,1.52-5,4.2a3.65,3.65,0,0,0,.38,2c.55,1.1,1.07,1.4,2.55,1.47a4,4,0,0,0,3.32-1l.55-.57.11.75c.1.7.14.74.69.74h.58l-.05-5.3c0-5.94-.1-6.19-1.28-6.91-.5-.31-.89-.38-2.35-.43S91.16,14.52,90.51,14.87Zm4.65,7.71v2.06l-.68.6a3.26,3.26,0,0,1-2.68.9A1.81,1.81,0,0,1,90,24.49a2.73,2.73,0,0,1,1.5-3.28A18.07,18.07,0,0,1,95,20.53C95.11,20.51,95.16,21,95.16,22.58Z"/><path class="cls-1" d="M78.82,20.93v6.25h1.5V14.67h-1.5Z"/></svg>