<svg id="Camada_1" data-name="Camada 1" xmlns="http://www.w3.org/2000/svg" viewBox="0 0 110 40"><defs><style>.cls-1{fill:#fff;}</style></defs><path class="cls-1" d="M70.34,1.36c-.06.16-.09,6.47-.06,14l.06,13.73h3.1l.07-3.05.07-3H77.1l0,7.93.07,7.91h2.88l.07-12.36,0-12.34H77.1v6.2H73.55l0-9.59-.07-9.57-1.5-.07C70.87,1.1,70.41,1.16,70.34,1.36Z"/><path class="cls-1" d="M17.28,11.73v1.33l4.61,0L26.48,13V10.51l-4.59-.06-4.61,0Z"/><path class="cls-1" d="M3.08,14.24A4.24,4.24,0,0,0,.27,17,23.52,23.52,0,0,0,0,21.81C0,25.69,0,25.87.58,27c.86,1.73,2.06,2.37,4.4,2.37a4.43,4.43,0,0,0,2.71-.53,4.13,4.13,0,0,0,2.1-2.74c.4-1.51.22-1.71-1.48-1.71-1.29,0-1.44,0-1.44.44a2.05,2.05,0,0,1-1,1.75,1.71,1.71,0,0,1-2.46-.79c-.36-.65-.36-7.38,0-8.11a2,2,0,0,1,1.63-1,2,2,0,0,1,1.89,2c0,.4.13.44,1.5.38l1.49-.07,0-.91C9.79,15.79,8,14.17,5.38,14A6.13,6.13,0,0,0,3.08,14.24Z"/><path class="cls-1" d="M43.53,14.26a5.19,5.19,0,0,0-2.74,2.92,44.25,44.25,0,0,0,0,9.06,5.23,5.23,0,0,0,3,3c3.34.93,6.51-.84,6.6-3.68l0-1.06-1.48-.07-1.51-.06V25a1.87,1.87,0,0,1-3.52.74,18.54,18.54,0,0,1-.24-4.06,18.49,18.49,0,0,1,.24-4.05,1.86,1.86,0,0,1,3.52,1c0,.4.16.44,1.57.44h1.6l-.13-1.15a4.18,4.18,0,0,0-2.22-3.3A7.12,7.12,0,0,0,43.53,14.26Z"/><path class="cls-1" d="M85.19,14.21a5.08,5.08,0,0,0-2.62,2.24c-.46.86-.49,1.2-.49,5.25s0,4.39.49,5.25a4.94,4.94,0,0,0,4.7,2.51,4.79,4.79,0,0,0,4.54-2.93c.42-1,.51-8,.11-9.33a4.81,4.81,0,0,0-2.79-2.9A7.07,7.07,0,0,0,85.19,14.21Zm3.23,3,.64.64v7.62l-.64.64a1.68,1.68,0,0,1-2.57.09c-.55-.53-.55-.57-.55-4.54s0-4,.55-4.54A1.68,1.68,0,0,1,88.42,17.25Z"/><path class="cls-1" d="M11.85,14.43c-.06.16-.09,3.53-.06,7.49l.06,7.2H15V14.28l-1.5-.07C12.38,14.17,11.92,14.24,11.85,14.43Z"/><path class="cls-1" d="M17.17,14.46c-.07.15-.09,3.5-.07,7.46l.07,7.2,4.61.07,4.58,0V26.58h-6V23h3.77V20.37H20.38V16.83h6V14.17H21.82C18.37,14.17,17.24,14.24,17.17,14.46Z"/><path class="cls-1" d="M28.14,21.7v7.53h3.1l0-4.34.07-4.34,2,4.3,2.06,4.27,1.55.07,1.55.07V14.15l-1.48.06-1.51.07-.07,4.21-.06,4.21-2.09-4.28-2.08-4.25H28.14Z"/><path class="cls-1" d="M52.4,14.43c-.07.16-.09,3.53-.07,7.49l.07,7.2h3.1V14.28L54,14.21C52.93,14.17,52.46,14.24,52.4,14.43Z"/><path class="cls-1" d="M61.08,14.32C61,14.55,57.16,28.75,57.16,29c0,.12.69.2,1.55.2h1.53l.22-.82c.13-.44.71-2.83,1.29-5.31a42.92,42.92,0,0,1,1.17-4.5c.07,0,.67,2.37,1.35,5.25l1.24,5.27,1.58.07c1.19,0,1.59,0,1.59-.22s-.89-3.52-2-7.49l-1.93-7.2L63,14.21A6.86,6.86,0,0,0,61.08,14.32Z"/><path class="cls-1" d="M95.71,19.8c0,5.34,0,5.65-.47,6.2a2,2,0,0,1-1.32.71l-.87.15v2.6h.73c2.22,0,4.32-1.31,4.79-3a50.3,50.3,0,0,0,.24-6.6V14.17h-3.1Z"/><path class="cls-1" d="M100.81,21.7v7.53l4.6,0,4.59-.07V26.69l-3-.07-3-.07v-3.5l2-.06,1.92-.07.07-1.29.07-1.26h-4V16.85l3-.07,3-.06V14.28l-4.59-.07-4.6,0Z"/></svg>