<svg id="Camada_1" data-name="Camada 1" xmlns="http://www.w3.org/2000/svg" viewBox="0 0 85.96 40"><defs><style>.cls-1{fill:#fff;}</style></defs><path class="cls-1" d="M26.4,1.16c-.08.08-.29.32-.46.54L24.5,3.51,23.38,4.92h1.36c1.58,0,1.31.11,2.35-.77.59-.5.67-.56.78-.5A10.92,10.92,0,0,1,29,4.59l.41.36h1.39c1.11,0,1.38,0,1.36-.08s-.8-1.05-2.09-2.65C29.22,1.14,29.15,1.07,29,1s-.68,0-1.31,0H26.54Z"/><path class="cls-1" d="M78.41,6.12c-.1,0-.29.45-1.94,4.18l-1.79,4c-.23.5-.48,1.07-1.3,2.93-.23.53-.52,1.16-.63,1.41s-.29.64-.38.86a7.59,7.59,0,0,1-.34.75,2.1,2.1,0,0,0-.15.37s3.55,0,3.91,0a1.28,1.28,0,0,0,.28-.49,3.25,3.25,0,0,1,.32-.59c.1-.09.33-.1,2.48-.1a17.63,17.63,0,0,1,2.36.06s.07.05.16.05.17,0,.37.53.25.54.31.56,3.85,0,3.89-.05-.23-.59-.55-1.27-1.17-2.62-1.9-4.28-1.4-3.17-1.49-3.35-.67-1.5-1.29-2.92S79.55,6.21,79.5,6.18A3.49,3.49,0,0,0,78.41,6.12Zm.92,8.14.46,1.26c.07.22.19.53.25.69l.12.29H79a6,6,0,0,1-1.22-.05,1.18,1.18,0,0,1,.09-.28c.05-.11.3-.76.55-1.44.41-1.11.5-1.32.6-1.33A7.2,7.2,0,0,1,79.33,14.26Z"/><path class="cls-1" d="M6.34,6.21A7.63,7.63,0,0,0,1.87,8.69,7.42,7.42,0,0,0,.81,16.84a5.7,5.7,0,0,0,.43.79s.16.19.3.38a7.4,7.4,0,0,0,3.27,2.41,6.7,6.7,0,0,0,2.83.5,8.66,8.66,0,0,0,1.44-.07,7,7,0,0,0,5-3.38c.14-.23.17-.31.12-.37s-2.31-1.62-2.69-1.85c0,0-.14.07-.27.27A4.61,4.61,0,0,1,9,17.32a4.71,4.71,0,0,1-2.3.09,3.48,3.48,0,0,1-2.44-1.95,4,4,0,0,1-.43-1.86A4,4,0,0,1,5.73,10a3.73,3.73,0,0,1,1.51-.48,4,4,0,0,1,3.46,1.32l.28.32c.07.07.19.25.28.37s.31.32.37.2.3-.22.61-.43l1.31-.89c.66-.46.71-.5.68-.64a9.33,9.33,0,0,0-1.29-1.67A7.2,7.2,0,0,0,9.41,6.27,13.73,13.73,0,0,0,6.34,6.21Z"/><path class="cls-1" d="M35.5,7.18c0,1.36,0,13.14,0,13.37l0,.18h1.22c.67,0,1.5,0,1.82,0l.61,0V17.11c0-2.42,0-3.54,0-3.54a.46.46,0,0,1,.21.14.5.5,0,0,0,.19.14s0,0,0,.09,0,.08,0,.08,1.26,1.15,2.75,2.62c.43.44,1.25,1.22,1.8,1.75s1.38,1.32,1.84,1.76l.82.81.59,0h.58V6.38H46.39c-.94,0-1.77,0-1.84,0l-.13,0v3.5a27,27,0,0,1-.07,3.49,2.55,2.55,0,0,1-.46-.38c-1.3-1.23-2.08-2-3.42-3.31S38,7.29,37.07,6.48l-.38-.35H35.53Z"/><path class="cls-1" d="M56.51,6.21a7.57,7.57,0,0,0-5.84,4.94,5.8,5.8,0,0,0-.36,2.42A6.79,6.79,0,0,0,51.1,17a6,6,0,0,0,.44.66,7.68,7.68,0,0,0,4.84,3.13,10.69,10.69,0,0,0,3.19,0,6.94,6.94,0,0,0,4.69-3.24,1.1,1.1,0,0,0,.2-.43,5.56,5.56,0,0,0-.64-.48,19,19,0,0,0-2.11-1.39s-.13.1-.21.23a6.51,6.51,0,0,1-1.32,1.37,3.87,3.87,0,0,1-2.5.64,3.6,3.6,0,0,1-3.46-2.72,5.49,5.49,0,0,1,0-2.42,3.69,3.69,0,0,1,2.36-2.6,4.1,4.1,0,0,1,3.79.57,4.79,4.79,0,0,1,1,1.12c.16.2.31.37.35.36S64.49,10,64.49,9.92a5.88,5.88,0,0,0-.8-1.2,6.94,6.94,0,0,0-4-2.43A13.23,13.23,0,0,0,56.51,6.21Z"/><path class="cls-1" d="M16.48,6.39c-.06,0-.08,1.51-.08,7.15v7.12l.19,0c.1,0,.87,0,1.7,0l1.68,0h.15V6.4l-1.78,0C17.34,6.37,16.51,6.37,16.48,6.39Z"/><path class="cls-1" d="M23,6.45c-.08.07-.09.78-.08,7.17l0,7.08h4.9c2.7,0,5,0,5.09,0l.19,0V19c0-1.43,0-1.63-.09-1.66s-1.44,0-3.09,0-3,0-3.13,0l-.12,0V16.06l0-1.22,2.18,0h2.19l0-1.54V11.74l-2.17,0-2.18,0a8.7,8.7,0,0,1,0-1v-1h3c2.66,0,3,0,3.1-.09s.08-.28.06-1.64c0-.85,0-1.58-.06-1.6s-2,0-4.87,0C23.63,6.36,23.11,6.37,23,6.45Z"/><path class="cls-1" d="M66.69,6.46c0,.08-.06,2.41-.06,7.16v7l.16,0a4.48,4.48,0,0,0,.6,0l1.71,0h1.25V13.55c0-6.45,0-7.13-.09-7.16s-.86,0-1.8,0C66.82,6.36,66.74,6.36,66.69,6.46Z"/><path class="cls-1" d="M16.4,26.6a6.16,6.16,0,0,0-3.81,2,5.78,5.78,0,0,0-1.65,4.16,6,6,0,0,0,3.41,5.54A6.75,6.75,0,0,0,21,37.91a6.08,6.08,0,0,0,2.75-5.69A6,6,0,0,0,22,28.42,6.7,6.7,0,0,0,16.4,26.6Zm1.92,3A3.18,3.18,0,0,1,20.55,32a4.21,4.21,0,0,1-.08,1.9,3.16,3.16,0,0,1-3.1,2.24,3.14,3.14,0,0,1-3.14-2.34,4.69,4.69,0,0,1,0-1.94,3.14,3.14,0,0,1,2.58-2.37A4.07,4.07,0,0,1,18.32,29.56Z"/><path class="cls-1" d="M43,26.6A6.28,6.28,0,0,0,37.54,32a6.2,6.2,0,0,0,5.25,6.91,8.38,8.38,0,0,0,2.64-.08,6.22,6.22,0,0,0,4.91-5.25,6.1,6.1,0,0,0-2.72-5.93A6.77,6.77,0,0,0,43,26.6Zm1.63,2.89a2.91,2.91,0,0,1,1.62.87,3.16,3.16,0,0,1,1,2.38A3.2,3.2,0,0,1,44.73,36a3.73,3.73,0,0,1-2.45-.31,3.39,3.39,0,0,1-1.19-1.19,4,4,0,0,1-.08-3.3A3.2,3.2,0,0,1,44.61,29.49Z"/><path class="cls-1" d="M79.35,27c-.22.45-2.42,5.4-3.45,7.74-.29.65-.8,1.81-1.15,2.58s-.61,1.43-.59,1.44a21.42,21.42,0,0,0,2.6,0l.7,0,.17-.38c.28-.63,0-.57,2.45-.57h2.11l.22.48.22.48H83c.45,0,2.94,0,3,0a3.39,3.39,0,0,0-.22-.51l-1.1-2.48L82.2,30.28c-.85-1.92-1.58-3.55-1.63-3.62s-.12-.12-.54-.12h-.47Zm1.13,6.64c.16.45.35,1,.4,1.13s.13.35.15.4,0,.1-1,.1a7.92,7.92,0,0,1-1,0s.15-.44.34-.94c.42-1.12.61-1.52.72-1.5A2.88,2.88,0,0,1,80.48,33.64Z"/><path class="cls-1" d="M2.39,26.74l-2.32,0,0,.13c0,.07,0,.67,0,1.34,0,1.07,0,1.23.09,1.3a6.6,6.6,0,0,0,1.75.09c.92,0,1.68,0,1.7,0s0,2.06,0,4.53c0,4.34,0,4.5.09,4.59s.25.09,1.34.09c1.27,0,1.64,0,1.73-.17s0-1.87,0-4.58V29.61l1.77,0,1.78,0V28.2a13.57,13.57,0,0,0,0-1.39C10.22,26.76,5.52,26.72,2.39,26.74Z"/><path class="cls-1" d="M25.63,26.8s0,2.71,0,6c0,5.17,0,6,.09,6a48.75,48.75,0,0,0,5.2-.06,6.18,6.18,0,0,0,4.89-3.4,6.45,6.45,0,0,0-.13-5.4,6.11,6.11,0,0,0-5-3.09C29.89,26.76,25.69,26.74,25.63,26.8Zm5.25,2.95a2.84,2.84,0,0,1,2.21,3,3,3,0,0,1-2.1,3,3.84,3.84,0,0,1-1.35.18l-.89,0V32.81c0-1.74,0-3.17,0-3.2A8.71,8.71,0,0,1,30.88,29.75Z"/><path class="cls-1" d="M57.24,28.09c-.06,1.73-.06,10.44,0,10.62l0,.13,2.47,0a13.23,13.23,0,0,0,3.71-.29,6.2,6.2,0,0,0,3.34-2.19,5.85,5.85,0,0,0,.93-1.87,4.15,4.15,0,0,0,.16-1.7,4.84,4.84,0,0,0-.42-2.48,5.86,5.86,0,0,0-3.8-3.2c-.86-.25-1.18-.27-3.84-.3l-2.55,0Zm5.19,1.63a2.93,2.93,0,0,1,2.34,3.05,4.08,4.08,0,0,1-.36,1.54,3.51,3.51,0,0,1-1.17,1.19,3.57,3.57,0,0,1-2,.43l-.92,0V32.8a18.86,18.86,0,0,1,.08-3.19A11.45,11.45,0,0,1,62.43,29.72Z"/><path class="cls-1" d="M69.78,26.91c0,.73,0,11.74,0,11.82s.13.1,1.52.08c.82,0,1.5,0,1.52-.05s0-1,0-7.68V26.76h-3Z"/></svg>