<svg id="Camada_1" data-name="Camada 1" xmlns="http://www.w3.org/2000/svg" viewBox="0 0 80 40"><defs><style>.cls-1{fill:#fff;}</style></defs><path class="cls-1" d="M24.53,2.48c-.08.08-.27.3-.43.5L22.76,4.67,21.72,6H23c1.47,0,1.22.1,2.19-.71.55-.47.62-.53.73-.47A11,11,0,0,1,27,5.67l.38.34h1.29c1,0,1.29,0,1.27-.07s-.75-1-1.95-2.47c-.79-1-.85-1.07-1-1.14a7.65,7.65,0,0,0-1.22,0H24.66Z"/><path class="cls-1" d="M72.94,7.1c-.1,0-.27.42-1.81,3.89l-1.67,3.72-1.21,2.73c-.21.49-.48,1.08-.58,1.31l-.36.8a6.21,6.21,0,0,1-.31.7,1.63,1.63,0,0,0-.14.34H70.5a1.13,1.13,0,0,0,.26-.45,2.94,2.94,0,0,1,.3-.55c.09-.08.3-.09,2.3-.09a16.13,16.13,0,0,1,2.2.05.29.29,0,0,0,.15.05c.08,0,.16,0,.34.49s.24.5.29.52,3.59,0,3.62,0a5.93,5.93,0,0,0-.51-1.19c-.3-.63-1.09-2.43-1.77-4s-1.3-3-1.38-3.12-.63-1.39-1.2-2.71A25.56,25.56,0,0,0,74,7.15,3.12,3.12,0,0,0,72.94,7.1Zm.85,7.57.43,1.18c.07.2.18.49.23.64l.11.27H73.48a5.38,5.38,0,0,1-1.13-.05,1.29,1.29,0,0,1,.08-.26c0-.1.28-.7.52-1.34.38-1,.46-1.23.55-1.24A5.89,5.89,0,0,1,73.79,14.67Z"/><path class="cls-1" d="M5.86,7.18A7.14,7.14,0,0,0,1.7,9.49a6.91,6.91,0,0,0-1,7.59,5.18,5.18,0,0,0,.4.73s.15.18.28.36a7,7,0,0,0,3,2.24,6.3,6.3,0,0,0,2.64.46,7.52,7.52,0,0,0,1.34-.06,6.5,6.5,0,0,0,4.65-3.15c.13-.21.16-.29.11-.34S11,15.81,10.67,15.6a.67.67,0,0,0-.25.25,4.3,4.3,0,0,1-2.09,1.67,4.31,4.31,0,0,1-2.14.09,3.27,3.27,0,0,1-2.27-1.82,3.7,3.7,0,0,1-.4-1.73,3.72,3.72,0,0,1,1.77-3.35,3.49,3.49,0,0,1,1.41-.45,3.74,3.74,0,0,1,3.22,1.23l.26.3c.06.06.17.23.26.34s.29.3.34.19.28-.2.57-.4l1.22-.83c.61-.43.66-.46.63-.59A8.3,8.3,0,0,0,12,8.94a6.72,6.72,0,0,0-3.29-1.7A12.34,12.34,0,0,0,5.86,7.18Z"/><path class="cls-1" d="M33,8.09V20.7h3.4V14a.5.5,0,0,1,.19.13.46.46,0,0,0,.18.13v.16s1.17,1.07,2.56,2.44c.4.41,1.16,1.14,1.67,1.63l1.71,1.64.77.75h1.09V7.34H41.3V10.6a23.52,23.52,0,0,1-.07,3.25,2.36,2.36,0,0,1-.42-.36c-1.21-1.14-1.94-1.86-3.19-3.08s-2.3-2.22-3.16-3l-.35-.32H33Z"/><path class="cls-1" d="M52.55,7.18a7,7,0,0,0-5.43,4.6A5.41,5.41,0,0,0,46.78,14a6.39,6.39,0,0,0,.74,3.2,5.91,5.91,0,0,0,.41.61,7.12,7.12,0,0,0,4.5,2.91,9.86,9.86,0,0,0,3,0,6.47,6.47,0,0,0,4.37-3,1,1,0,0,0,.18-.4,4.19,4.19,0,0,0-.59-.45,17.11,17.11,0,0,0-2-1.29.82.82,0,0,0-.19.21A6.49,6.49,0,0,1,56,17.09a3.69,3.69,0,0,1-2.33.59,3.34,3.34,0,0,1-3.22-2.53,5,5,0,0,1,0-2.25,3.42,3.42,0,0,1,2.2-2.42,3.81,3.81,0,0,1,3.53.53,4.62,4.62,0,0,1,.93,1,1.14,1.14,0,0,0,.32.34S60,10.71,60,10.64a5.31,5.31,0,0,0-.74-1.12,6.5,6.5,0,0,0-3.73-2.26A12.21,12.21,0,0,0,52.55,7.18Z"/><path class="cls-1" d="M15.3,7.35c-.06,0-.08,1.41-.08,6.65v6.63h3.46V7.36H17C16.1,7.33,15.32,7.33,15.3,7.35Z"/><path class="cls-1" d="M21.36,7.41c-.07.06-.08.72-.07,6.67v6.59h9.47V19.09c0-1.33,0-1.52-.08-1.55s-1.34,0-2.88,0h-3V15.21h4.07V12.33H24.8a7.22,7.22,0,0,1,0-.93v-.93h2.79c2.48,0,2.79,0,2.89-.09s.07-.26.05-1.52a8.33,8.33,0,0,0-.05-1.49c-.06,0-1.87,0-4.54,0C22,7.32,21.47,7.33,21.36,7.41Z"/><path class="cls-1" d="M62,7.42c0,.07-.06,2.24-.06,6.66v6.51h.15a2.62,2.62,0,0,0,.56,0h2.75V14c0-6,0-6.63-.08-6.66s-.8,0-1.68,0C62.15,7.32,62.07,7.32,62,7.42Z"/><path class="cls-1" d="M15.22,26.16A5.7,5.7,0,0,0,11.67,28a5.37,5.37,0,0,0-1.53,3.87,5.57,5.57,0,0,0,3.17,5.16,6.28,6.28,0,0,0,6.19-.36,5.76,5.76,0,0,0,.93-8.84A6.25,6.25,0,0,0,15.22,26.16ZM17,29a3,3,0,0,1,2.07,2.24A3.88,3.88,0,0,1,19,33a3,3,0,0,1-5.81-.09,4.54,4.54,0,0,1,0-1.8,2.93,2.93,0,0,1,2.4-2.21,3.72,3.72,0,0,1,1.41.07Z"/><path class="cls-1" d="M40,26.16a5.84,5.84,0,0,0-5.08,5,5.77,5.77,0,0,0,4.88,6.43,7.81,7.81,0,0,0,2.46-.08,5.77,5.77,0,0,0,4.57-4.88,5.67,5.67,0,0,0-2.53-5.52A6.29,6.29,0,0,0,40,26.16Zm1.52,2.69a2.68,2.68,0,0,1,1.5.81,2.94,2.94,0,0,1,.93,2.21,3,3,0,0,1-2.34,3,3.52,3.52,0,0,1-2.28-.29,3.11,3.11,0,0,1-1.11-1.11,3.7,3.7,0,0,1-.07-3.07,3,3,0,0,1,3.35-1.59Z"/><path class="cls-1" d="M73.81,26.53c-.2.42-2.25,5-3.21,7.21l-1.07,2.4A10.11,10.11,0,0,0,69,37.48a19.54,19.54,0,0,0,2.42,0h.65l.16-.36c.26-.58,0-.53,2.28-.53h2l.21.45.2.45H80a3.45,3.45,0,0,0-.2-.48l-1-2.31-2.31-5.11C75.67,27.8,75,26.28,75,26.22s-.12-.12-.51-.12H74Zm1,6.18.37,1c0,.13.13.33.14.38s0,.09-.93.09a7.22,7.22,0,0,1-.93,0s.14-.41.32-.88c.39-1,.57-1.41.67-1.39A2.6,2.6,0,0,1,74.86,32.71Z"/><path class="cls-1" d="M2.18,26.29H0v1.37c0,1,0,1.14.09,1.21A5.86,5.86,0,0,0,1.73,29H3.32s0,1.92,0,4.22c0,4,0,4.19.08,4.27s.23.08,1.25.08c1.18,0,1.52,0,1.61-.15s0-1.74,0-4.27V29h3.3V27.65q0-.64,0-1.29C9.47,26.31,5.09,26.27,2.18,26.29Z"/><path class="cls-1" d="M23.81,26.35v5.58c0,4.81,0,5.59.09,5.59,1.61.06,3.22,0,4.84-.06a5.77,5.77,0,0,0,4.55-3.17,6,6,0,0,0-.12-5,5.71,5.71,0,0,0-4.66-2.88C27.78,26.31,23.87,26.29,23.81,26.35Zm4.89,2.74a2.64,2.64,0,0,1,2.05,2.79,2.79,2.79,0,0,1-1.95,2.8,3.58,3.58,0,0,1-1.26.16h-.82V29A8.25,8.25,0,0,1,28.7,29.09Z"/><path class="cls-1" d="M53.23,27.55c0,1.61,0,9.71,0,9.88v.12h2.3A12.11,12.11,0,0,0,59,37.28a5.72,5.72,0,0,0,3.11-2A5.37,5.37,0,0,0,63,33.5a3.84,3.84,0,0,0,.15-1.58,4.58,4.58,0,0,0-.39-2.31,5.49,5.49,0,0,0-3.54-3,11.3,11.3,0,0,0-3.57-.27H53.23Zm4.83,1.51a2.75,2.75,0,0,1,2.18,2.84,4,4,0,0,1-.33,1.44,3,3,0,0,1-3,1.5H56.1V31.93a17.34,17.34,0,0,1,.07-3A10.84,10.84,0,0,1,58.06,29.06Z"/><path class="cls-1" d="M64.9,26.45v11c0,.07.12.09,1.42.07a9.22,9.22,0,0,0,1.41,0s0-.93,0-7.15v-4H64.94Z"/></svg>