<svg id="Layer_1" data-name="Layer 1" xmlns="http://www.w3.org/2000/svg" viewBox="0 0 100 40"><defs><style>.cls-1{fill:#fff;}</style></defs><title>download</title><path class="cls-1" d="M16,14.72a2.18,2.18,0,0,0-.63-.82,2.43,2.43,0,0,0-2.64-.23,2.28,2.28,0,0,0-1.23,2.05h1a.71.71,0,0,0,.23.14c-.41.31-1.19.59-1,1.22l1,6.74h0l3-6.64A2.52,2.52,0,0,0,16,14.72Z"/><path class="cls-1" d="M9.67,23.73,10.9,16a2.41,2.41,0,0,0-.32-1.5,2.33,2.33,0,0,0-1.14-1,2.39,2.39,0,0,0-2.5.45,2.34,2.34,0,0,0-.59,2.42l3,6.73.32.64Z"/><path class="cls-1" d="M20.41,17.72A2.34,2.34,0,0,1,20.27,20a5.57,5.57,0,0,1-1.14,1l-6.28,4.33h0l.1-.23,3.32-7.46a2.38,2.38,0,0,1,2.41-1.23A2.87,2.87,0,0,1,20.41,17.72Z"/><path class="cls-1" d="M2.66,20.54l7,4.78h.09L6.26,17.68a2.45,2.45,0,0,0-3-1.05,2.4,2.4,0,0,0-1.37,1.59A1.9,1.9,0,0,0,2.66,20.54Z"/><path class="cls-1" d="M21.91,25.55a2.39,2.39,0,0,0,.32-2.32A2.31,2.31,0,0,0,21,22a2.42,2.42,0,0,0-2.18.14l-6.19,4.27H20A2.42,2.42,0,0,0,21.91,25.55Z"/><path class="cls-1" d="M9.81,26.41,3.62,22a2.47,2.47,0,0,0-2.19-.13A2.35,2.35,0,0,0,.2,23.14a2.17,2.17,0,0,0,.32,2.32,2.37,2.37,0,0,0,1.91.91Z"/><path class="cls-1" d="M37.56,18.18c-.31-1.37-1.36-1.73-2.63-1.82-4-.37-4.69,2.64-4.69,3.91,0,2.18.59,3.91,4.55,3.91.77,0,2.73-.77,2.73-1.95h5.69c-.23,3.64-6.28,4.46-8.92,4.46-5.46,0-10.15-1-9.92-6.42.13-3.87,3.77-6.55,11-6.37,4,.09,7.87,1.36,7.87,4.23H37.56Z"/><path class="cls-1" d="M94.27,18.18c-.32-1.37-1.37-1.73-2.64-1.82-4-.37-4.69,2.64-4.69,3.86,0,2.19.59,3.92,4.55,3.92.77,0,2.73-.78,2.73-2h5.69c-.23,3.64-6.28,4.46-8.92,4.46-5.46,0-10.15-1-9.92-6.42.14-3.86,3.78-6.55,11-6.37,4,.09,7.92,1.37,7.92,4.24H94.27v.09Z"/><path class="cls-1" d="M44.3,14.17h7.33L57.91,23H58V14.17h4.68V26.32h-7l-6.56-8.78H49v8.78H44.3Z"/><path class="cls-1" d="M64.1,14.17H73c4.33,0,6.78,1.23,6.78,3,0,1-1,2.41-3.41,2.77h0c2.78.14,3.87,2,3.87,3,0,2.19-2.41,3.33-7.24,3.33H64.1ZM69.33,19h1.5c2.28,0,3.46-.14,3.46-1.14s-1-1.36-3-1.36H69.37V19Zm0,4.91h1.5c2.73,0,3.78-.31,3.78-1.22s-1.28-1.37-3.32-1.37H69.37v2.55h0Z"/></svg>