<svg id="Camada_1" data-name="Camada 1" xmlns="http://www.w3.org/2000/svg" viewBox="0 0 79.87 40"><defs><style>.cls-1{fill:#fff;}</style></defs><g id="_8uCZi_iBBqQpxehSqw-l2" data-name="8uCZi_iBBqQpxehSqw-l2"><g id="aKObLxOJ8mS_HtTKtmP7T" data-name="aKObLxOJ8mS HtTKtmP7T"><path class="cls-1" d="M0,16.27C0,12.77,2.18,11,6.22,11H18v7.49H17c-.41-4.35-2.35-6.14-6.3-6.14H8.31A2.48,2.48,0,0,0,5.5,15.16v9.68a2.48,2.48,0,0,0,2.81,2.81h2.43c3.89,0,5.87-1.9,6.29-6.38h1V29H6.22C2.18,29,0,27.23,0,23.73V16.27H0"/></g><g id="CXh2UpZupKGzss73aPv7g"><path class="cls-1" d="M38.8,11V29H34L22.24,14.67v6.45c0,4.75,1.9,6.51,6.2,7V29H20.8V11h5.52l11,13.46V18.81c0-4.71-1.91-6.49-6.1-6.91V11H38.8"/></g><g id="fOVt0syp-Zoav_975alWT" data-name="fOVt0syp-Zoav 975alWT"><path class="cls-1" d="M41.65,11h18v7.49h-1c-.41-4.37-2.35-6.16-6.29-6.16H47v6.75h1.84c3.06,0,4.36-1.37,4.67-4.32h1v9.89h-1c-.31-3-1.61-4.32-4.67-4.32H47v7.34H52.4c3.88,0,5.86-1.9,6.29-6.4h1V29h-18V11"/></g><g id="zIN3hcJM3j7X62Tl9s-Lt"><path class="cls-1" d="M79.87,11v7.49h-1c-.42-4.12-2.14-6-5.38-6.38V24.77c0,2.2.78,3.08,3.62,3.26v1H64.59V28c2.84-.19,3.62-1.06,3.62-3.26V12.11c-3.24.35-5,2.26-5.38,6.38h-1V11h18"/></g></g></svg>