<svg id="Camada_1" data-name="Camada 1" xmlns="http://www.w3.org/2000/svg" viewBox="0 0 48 40"><defs><style>.cls-1{fill:#fff;}</style></defs><path class="cls-1" d="M15.12,8.59v2.87H10.66a7.78,7.78,0,0,0-6.27,3.17,8.2,8.2,0,0,0-1.65,3.92,8.6,8.6,0,0,0,.83,5.18,7.77,7.77,0,0,0,5.09,4.18,8.47,8.47,0,0,0,2.64.37H18a1.62,1.62,0,0,0,1.58-1.62v-14a.51.51,0,0,1,.63-.37h0c.09,0,.18.1.27.19a.41.41,0,0,1,.18.27c3.1,4.91,6.19,9.91,9.28,14.83a2.39,2.39,0,0,0,.46.54A1.26,1.26,0,0,0,32,28.07c.09-.1.09-.18.18-.28a3.13,3.13,0,0,0,.18-.95v-14A.51.51,0,0,1,33,12.5h0c.09,0,.18.09.27.09s.19.18.19.28c3.09,5,6.18,10,9.28,14.92a1.26,1.26,0,0,0,2.36-.54V8.59H48V27.15a4.67,4.67,0,0,1-.73,2.64,3.44,3.44,0,0,1-2.86,1.63A4.53,4.53,0,0,1,40.05,29c-1.19-1.9-2.28-3.81-3.46-5.72l-1.27-2.09a.09.09,0,0,0-.1-.1v6.09a5.22,5.22,0,0,1-.56,2.39,3.31,3.31,0,0,1-3,1.91A4.54,4.54,0,0,1,27.3,29L24,23.51l-1.37-2.36c0-.1-.1-.1-.18-.19v6.1a4.2,4.2,0,0,1-1,2.73,3.86,3.86,0,0,1-2.45,1.27c-.28,0-.64.09-.95.09H11.28a11.67,11.67,0,0,1-6.91-2.27A10.89,10.89,0,0,1,.28,22.33a11.6,11.6,0,0,1,1.19-8.18A10.62,10.62,0,0,1,8.19,9.06a16.7,16.7,0,0,1,3.73-.46h3.2Z"/><path class="cls-1" d="M15.12,12.14V15H11.38a5.64,5.64,0,0,0-3,.82A5.1,5.1,0,0,0,6.2,19.24,4.53,4.53,0,0,0,7.28,23a4.83,4.83,0,0,0,2.86,1.55,10.08,10.08,0,0,0,1.55.18h3.37a.73.73,0,0,0,.82-.62.67.67,0,0,0,0-.2V12.78a4.84,4.84,0,0,1,.82-2.73,3.94,3.94,0,0,1,5.1-1,6.34,6.34,0,0,1,2.31,2.29c1.45,2.55,2.87,5.1,4.36,7.55a.2.2,0,0,0,.19.18V12.79a4.22,4.22,0,0,1,.82-2.63A3.92,3.92,0,0,1,34.36,9a5.66,5.66,0,0,1,2.37,2.28c1.19,2,2.27,3.91,3.46,5.91.36.72.82,1.36,1.27,2.09V8.59h2.86V26.66a.81.81,0,0,1-.09.46c-.1.28-.28.46-.55.37-.09,0-.18-.1-.27-.19s-.19-.18-.19-.27l-9.1-14.69c-.1-.09-.1-.18-.19-.27a1.28,1.28,0,0,0-1.72-.28,1,1,0,0,0-.46.82c0,.18-.1.36-.1.54V26.66a1.14,1.14,0,0,1-.09.55.38.38,0,0,1-.45.3H31a.31.31,0,0,1-.18-.09l-.27-.27L21.38,12.34c-.1-.09-.18-.18-.18-.27a1.5,1.5,0,0,0-1.37-.46,1.28,1.28,0,0,0-.95,1c0,.18-.1.37-.1.55V26.87a.76.76,0,0,1-.72.64H10.92A7.47,7.47,0,0,1,6,25.71a6.93,6.93,0,0,1-2.27-3.64A8.45,8.45,0,0,1,5,14.88a6.67,6.67,0,0,1,4.36-2.63,10.05,10.05,0,0,1,1.73-.18h4Z"/></svg>