<svg id="Camada_1" data-name="Camada 1" xmlns="http://www.w3.org/2000/svg" viewBox="0 0 110 40"><defs><style>.cls-1{fill:#fff;fill-rule:evenodd;}</style></defs><path class="cls-1" d="M105.59,13.82h-.36V26.14h.31c.82,0,1.21-.16,1.21-6S106.48,13.82,105.59,13.82Zm-.48,14.91h-2.88V11.23h2.7c4.18,0,5.07,1.43,5.07,8.91S109,28.73,105.11,28.73Zm-9.53,0V11.23h3v14.7h2.73l.45,2.8ZM90.65,14h-.36V17.7h.31c.82,0,1.32-.52,1.32-1.82,0-1.45-.5-1.9-1.27-1.9Zm1.27,14.75-1.13-8.25h-.5v8.25H87.35V11.23h3.37c3.88,0,4.22,2.79,4.22,4.63s-.15,3.32-1.43,4.07l1.62,8.8ZM82.81,13.86c-.69,0-.8.37-.8,6.14s.07,6.14.8,6.14.79-.46.79-6.14C83.6,14.09,83.44,13.86,82.81,13.86Zm0,15.05C80.15,28.91,79,27.18,79,20c0-7.66,1.27-8.91,3.82-8.91s3.81,1.14,3.81,8.91S85.31,28.91,82.78,28.91Zm-6.06-.18H73.9L73,21.43c-.14-1.13-.21-1.7-.25-2.45-.05.75-.12,1.29-.28,2.47l-.93,7.28H68.85l-2.7-17.5H68.9l1.34,8.36a14.78,14.78,0,0,1,.14,2.18c.06-1.11.16-1.63.22-2.18l1-8.36h2.25L75,19.64c0,.38.16,1,.2,2.13.07-1.11.14-1.73.18-2.16l1-8.38h2.84l-2.45,17.5ZM61.92,14h-.37V17.7h.32c.82,0,1.32-.52,1.32-1.82,0-1.45-.5-1.9-1.27-1.9Zm1.27,14.75-1.14-8.25h-.5v8.25H58.62V11.23H62c3.88,0,4.22,2.79,4.22,4.63s-.16,3.32-1.43,4.07l1.61,8.8Zm-11.6,0V11.23h6.59L57.63,14H54.57v3.91H57.2v2.79H54.54V26h3.23l.55,2.69ZM49,14V28.73H46V14H43.41V11.23h8V14ZM39.37,28.91c-2.71,0-3.82-1.64-3.82-5.91V11.23h3V23.16c0,2.27,0,3,.8,3s.79-.73.79-3V11.23h3V23c0,3.93-1,5.93-3.82,5.93ZM30.85,14h-.37v5.18h.32c.82,0,1.21-.55,1.21-2.43S31.74,14,30.85,14Zm.32,8h-.69v6.78h-3V11.23H31c2.09,0,4.07.88,4.07,5.36S33.19,22,31.17,22Zm-7.43,6.78V18.54l-.32,2.62-1,7.57H20.52l-1-7.66-.35-2.59V28.73H16.36V11.23h3.13l1.18,5.59.85,5.59.7-5.64,1-5.54h3.34v17.5ZM11.82,13.86c-.68,0-.79.37-.79,6.14s.07,6.14.79,6.14.8-.46.8-6.14C12.62,14.09,12.46,13.86,11.82,13.86Zm0,15.05C9.17,28.91,8,27.18,8,20c0-7.66,1.27-8.91,3.82-8.91s3.81,1.14,3.81,8.91-1.31,8.91-3.84,8.91ZM4.59,17.25c0-3-.14-3.39-.77-3.39S3,14.32,3,20c0,5.36-.09,6.14.8,6.14.64,0,.79-.37.79-3.91l3,.66c-.14,4.77-1.41,6.06-3.77,6C.73,28.86,0,26.36,0,20c0-7.68,1.36-8.91,3.82-8.91,2.82,0,3.52,1.75,3.7,5.55Z"/></svg>