<svg id="Layer_1" data-name="Layer 1" xmlns="http://www.w3.org/2000/svg" viewBox="0 0 140 40"><defs><style>.cls-1{fill:#fff;}</style></defs><path class="cls-1" d="M.1,26.72l.15.2a40,40,0,0,0,3.41-3,2.7,2.7,0,0,0,.73-2.14v-5.5l.28-.3-.21-.18-2.85,2.6v5.8A3.25,3.25,0,0,1,.1,26.72m9.44-1.51c-.66,0-2.15-.35-3.49-.51V23.59l3.54-3.78v5.35Zm.07-5.83L6.08,23.17V20.82l3.53-3.58v2.14Zm0-2.6L6.08,20.39V15.27c.73,0,1.44-.1,1.69-.1.6,0,1.84.23,1.84,1.54v.07ZM8.1,27.45a36.73,36.73,0,0,1,4.46-3.58V16.61c0-2.1-1-3.66-4.11-3.66-1.82,0-2.47.23-4.87.23A25.15,25.15,0,0,1,.1,13l-.1.05c.23,1.28.81,2.27,3.68,2.27l2.07,0v9.4c-.65-.07-1.18-.17-1.59-.17-.73-.05-2,1.23-3.76,2.65l.15.17a3.15,3.15,0,0,1,1.8-.7,51.36,51.36,0,0,1,5.75.8M18.31,13.66l0-.05a3.24,3.24,0,0,1-.43,0A2.16,2.16,0,0,1,16,12.77l-1.84,2a2.31,2.31,0,0,0,1.44.5,3.54,3.54,0,0,0,2.67-1.56M16.47,26.32l2.27-2.15-.2-.17-.48.45-.45-.38V17L16,15.67l-2.17,2.07.21.18.37-.35.46.37v6.31l-.38.4v.08Zm6.23-10.9a7.13,7.13,0,0,0,3.94-2l-1.79-.78a13.5,13.5,0,0,1-2.45,2.55Zm1.06,9.23-.17.18a3.65,3.65,0,0,1-1.9-2.95,2.13,2.13,0,0,1,.36-1.36l.8,1,.26-.16-3-3.48a2.62,2.62,0,0,0,3.1-.38l.53.48Zm1.59,1.67,2.3-2.15L27.44,24l-.47.45-.46-.38c0-.45,0-5.14,0-6.71l.12-.27L24.9,15.67c-.63.58-.78.84-1.42,1.34a2.89,2.89,0,0,1-1.71-1.34h-.15l-1.84,2.22,2.12,2.45c-1.9.45-2.7,1.59-2.7,2.75a4,4,0,0,0,2.64,3.38h0c.68-.55,1.44-1.16,1.82-1.49Zm10.22-8.8,0-.13a12.12,12.12,0,0,1-1.84-1.62l-1.87,1.72V17l-1.61-1.32-2.17,2.07.2.18.38-.35.45.37v6.31l-.37.43v.07l2,1.62,2.24-2.14-.2-.18-.45.45-.46-.38V17.79l.1-.05a12.66,12.66,0,0,0,1.85,1.54,15.82,15.82,0,0,0,1.79-1.76m4.69-3.86,0-.05a3.24,3.24,0,0,1-.43,0A2.13,2.13,0,0,1,38,12.77l-1.84,2a2.27,2.27,0,0,0,1.44.5,3.47,3.47,0,0,0,2.67-1.56M38.44,26.32l2.27-2.15-.2-.17-.48.45-.45-.38V17L38,15.67l-2.17,2.07.21.18.37-.35.46.37v6.31l-.38.43v.07Zm8.15-1.87,0,0a3.79,3.79,0,0,1-2.12-1.21V17l0,0a4.84,4.84,0,0,1,2.12,1.46Zm2.75-4.87c0-.48,0-1.61,0-2.14a4.07,4.07,0,0,0-3-1.94,7.55,7.55,0,0,1-4.74,1.86v5.2c0,.28-.08,1.51-.1,1.77v0a6.24,6.24,0,0,0,3.17,2.07,6.73,6.73,0,0,1,4.59-2.25l0-4.59Zm11.17,4.87,0,0a3.82,3.82,0,0,1-2.12-1.21V16.41l0,0,2.11,1.74v6.33Zm2.75-5.82,0-1.39a62.58,62.58,0,0,0-5.8-4.69l-1.94,1.69,2.8,2.09c-.38.18-1.47.81-2.75,1.36v4.77c0,.28-.08,1.69-.11,1.84v0a6.12,6.12,0,0,0,3.18,2.06,7,7,0,0,1,4.59-2.24V18.63ZM67.88,21V17.11l.05,0a13.81,13.81,0,0,1,2.17,2.22Zm0,.38L72.29,18a9.24,9.24,0,0,0-2.47-2.52,7.9,7.9,0,0,1-4.74,1.86v5.91c0,.27-.08.8-.1,1a11.6,11.6,0,0,1,3.18,2.09,39.83,39.83,0,0,1,3.35-2.52l-.15-.2-1.06.73a12,12,0,0,1-2.47-1.76l0-1.29ZM86.7,22.76l-1.16-1.71,1.16-1.24Zm0-3.38-1.31,1.41-.91-1.28,2.24-2.27v2.14Zm3.15-6.08-.15,0a2.45,2.45,0,0,1-2.12,1,4,4,0,0,1-2.77-1.46c-.58.6-1.19,1.18-2,1.89a6.37,6.37,0,0,0,3.84,1.54v.5l-2.4,2.43-.86-1.29-3.33-4.79a25.88,25.88,0,0,1-3.75.48v.2c.32,0,.9.15,2.52,2.47v7c-2.25,0-3.18,1.52-3.18,2.63a1.77,1.77,0,0,0,.86,1.53l.12-.15A1.44,1.44,0,0,1,76.13,26a1.15,1.15,0,0,1,1.18-1.11c1.74,0,2.7,1.71,3,2.39a25.05,25.05,0,0,1,2.37-1.76,4.43,4.43,0,0,0-3.51-2.2V16.66l7.09,10.26c1-.8,2-1.61,3-2.34L89,24.35l-.8.56L87,23.14V16.28a3.27,3.27,0,0,0,2.87-3M94.9,24.45l0,0a3.82,3.82,0,0,1-2.12-1.21V17l0,0a4.89,4.89,0,0,1,2.12,1.46v6Zm2.77-4.87c0-.48,0-1.61,0-2.14a4.07,4.07,0,0,0-3-1.94A7.55,7.55,0,0,1,90,17.36v5.2c0,.28-.08,1.51-.1,1.77v0a6.29,6.29,0,0,0,3.17,2.07,6.73,6.73,0,0,1,4.6-2.25l0-4.59Zm5.25,4.87-.46-.38,0-7h1.56v-.3h-1.56v-4h-.13a28.41,28.41,0,0,1-3,2.29l.1.18.23-.08,0,1.57h-1v.33h.93V24.2l-.37.45v.08l2,1.56,2.7-2.57-.2-.2Zm2.14-9a7.13,7.13,0,0,0,3.94-2l-1.79-.78a13.5,13.5,0,0,1-2.45,2.55ZM107,26.32l2.27-2.15-.2-.17-.48.45-.46-.38V17l-1.61-1.32-2.17,2.07.2.18.38-.35.45.37v6.31l-.37.43v.07Zm9.63-8.86,0-.1a9.76,9.76,0,0,1-2.09-1.84h-.1a5.61,5.61,0,0,1-4.29,1.84v5.88c0,.28-.08.81-.1,1a12.64,12.64,0,0,1,3.17,2.09,39.52,39.52,0,0,1,3.36-2.52l-.15-.2-1.06.73a13.41,13.41,0,0,1-2.5-1.77v-5.2l0,0a5.72,5.72,0,0,0,1.89,1.69,7.58,7.58,0,0,0,1.84-1.62m5.08-3.8,0-.05a3.24,3.24,0,0,1-.43,0,2.16,2.16,0,0,1-1.82-.86l-1.86,1.92a2.27,2.27,0,0,0,1.44.5,3.47,3.47,0,0,0,2.7-1.53m-1.85,12.66,2.27-2.15-.2-.17-.48.45-.45-.38V17l-1.62-1.32-2.16,2.07.2.18.38-.35.45.37v6.31l-.38.43v.07Zm7.32-1.67-.18.18a3.67,3.67,0,0,1-1.89-2.95,2.2,2.2,0,0,1,.35-1.36l.81,1,.25-.16-3-3.48a2.62,2.62,0,0,0,3.1-.38l.53.48Zm1.56,1.67,2.3-2.15-.2-.17-.48.45-.46-.38c0-.45,0-5.14,0-6.71l.12-.27-1.76-1.42c-.63.58-.78.84-1.41,1.34a2.87,2.87,0,0,1-1.72-1.34H125l-1.84,2.22,2.12,2.45c-1.89.45-2.7,1.59-2.7,2.75a4,4,0,0,0,2.65,3.38h0c.68-.55,1.44-1.16,1.82-1.49Zm9.74-8.22-2.72,2.69-.91-.68V17.06l0,0a2.94,2.94,0,0,0,2.63,1.33,2.14,2.14,0,0,0,1-.27M135.86,21l.73.56v3.3l0,0a3.37,3.37,0,0,0-3.41-1.29ZM140,15.85h-.2a.91.91,0,0,1-.91.93,3.92,3.92,0,0,1-2.68-1.36h0c-.45.81-1.09,1.72-4,1.72V20a2.45,2.45,0,0,0,1.87,2.35L131.32,25l.18.15.83-.78A4.56,4.56,0,0,1,135,26.67h.07a5.36,5.36,0,0,1,4.22-2.34V21.5c0-.88-.56-1.61-1.84-2.09L139,17.92a2.69,2.69,0,0,0,1-2.07"/></svg>