<svg id="Camada_1" data-name="Camada 1" xmlns="http://www.w3.org/2000/svg" viewBox="0 0 110 40"><defs><style>.cls-1{fill:#fff;}</style></defs><path class="cls-1" d="M28.59,18.28l-.14-.15a2.89,2.89,0,0,0-2.29-.94,3.87,3.87,0,0,0-3.71,4.09,3.87,3.87,0,0,0,3.71,4.09,2.92,2.92,0,0,0,2.29-.94l.14-.16v.88H30.8V14.05l-2.21.8Zm-2,5a1.87,1.87,0,0,1-1.95-2,2,2,0,1,1,3.91,0A1.88,1.88,0,0,1,26.63,23.29Z"/><path class="cls-1" d="M33.14,13.87a1.35,1.35,0,1,0,1.35,1.35A1.37,1.37,0,0,0,33.14,13.87Z"/><path class="cls-1" d="M34.24,17.4H32v7.75h2.21Z"/><path class="cls-1" d="M47.28,17.4H45.06v7.75h2.22Z"/><path class="cls-1" d="M50.8,22.4V19.52h1.3l.83-2.12H50.8V15.24l-2.22.87v6.3c0,2,1,2.85,3.22,2.85a11.83,11.83,0,0,0,1.26-.08l-1-2C51.23,23.17,50.8,23.15,50.8,22.4Z"/><path class="cls-1" d="M59.13,18.28,59,18.12a2.92,2.92,0,0,0-2.29-.93A3.87,3.87,0,0,0,53,21.28a3.87,3.87,0,0,0,3.71,4.08A2.92,2.92,0,0,0,59,24.43l.14-.16v.88h2.21V17.4H59.13Zm-2,5a1.87,1.87,0,0,1-2-2,2,2,0,1,1,3.91,0A1.88,1.88,0,0,1,57.18,23.29Z"/><path class="cls-1" d="M62.54,25.15h2.23V13.81l-2.23.78Z"/><path class="cls-1" d="M69,15.16l-2.23.8V17.4H66v2.13h.76V22.4a3,3,0,0,0,.59,2.12,2.92,2.92,0,0,0,2.25.69c.31,0,.63,0,1,0v-2h-.45a1.74,1.74,0,0,1-.86-.15A.66.66,0,0,1,69,22.4V19.53h1.63V17.4H69Z"/><path class="cls-1" d="M80.41,17.19a4.09,4.09,0,1,0,.17,8.17,3.93,3.93,0,0,0,3.34-1.52l-1.77-1a2.12,2.12,0,0,1-1.54.58,1.83,1.83,0,0,1-2-1.15l0-.11h5.65a4.85,4.85,0,0,0,.08-.87A3.92,3.92,0,0,0,80.41,17.19Zm-1.84,3.35,0-.09a1.86,1.86,0,0,1,3.55,0l0,.09Z"/><path class="cls-1" d="M90.11,17.19a2.66,2.66,0,0,0-2.2.93l-.13.19v-.88l-2.22.79v6.93h2.22V20.92a1.49,1.49,0,0,1,1.55-1.7,1.37,1.37,0,0,1,1.44,1.52v4.42H93V20.38A2.87,2.87,0,0,0,90.11,17.19Z"/><path class="cls-1" d="M100.39,18.28l-.13-.16A2.92,2.92,0,0,0,98,17.19a3.87,3.87,0,0,0-3.71,4.09A3.87,3.87,0,0,0,98,25.36a2.92,2.92,0,0,0,2.29-.93l.13-.16v.88h2.22V14.28l-2.22.79Zm-2,5a1.87,1.87,0,0,1-2-2,2,2,0,1,1,3.9,0A1.87,1.87,0,0,1,98.43,23.29Z"/><path class="cls-1" d="M77,17.25a2.64,2.64,0,0,0-.63-.06h0a2.58,2.58,0,0,0-2.15.89l-.14.17v-.82l0,0v0l-2.22.09v7.65h2.26V20.92c0-1.06.54-1.67,1.48-1.7A4.68,4.68,0,0,1,77,17.25Z"/><path class="cls-1" d="M41.59,18.28l-.14-.16a2.9,2.9,0,0,0-2.29-.93,3.87,3.87,0,0,0-3.7,4.09,3.86,3.86,0,0,0,3.7,4.08,2.94,2.94,0,0,0,2.26-.89l.14-.15v1.46a1.9,1.9,0,0,1-2,1.87,2,2,0,0,1-2-1.19l-.07-.17-2,.72,0,.17a4.13,4.13,0,0,0,4,2.61,4,4,0,0,0,4.21-4V17.4H41.61v.88Zm-2,5a1.87,1.87,0,0,1-2-2,2,2,0,1,1,3.9,0A1.88,1.88,0,0,1,39.64,23.29Z"/><path class="cls-1" d="M46.2,13.87a1.35,1.35,0,1,0,1.35,1.35A1.37,1.37,0,0,0,46.2,13.87Z"/><path class="cls-1" d="M107.31,20.34c-.66-.17-1.18-.31-1.18-.69s.27-.53.73-.53a1.12,1.12,0,0,1,.9.4l2-.72,0,0a3.41,3.41,0,0,0-3-1.58c-1.5,0-3,.79-3,2.52s1.55,2.12,2.67,2.45c.68.18,1.22.33,1.22.7s-.16.57-.94.57a1.39,1.39,0,0,1-1.2-.55l-2.09.74h0a3.4,3.4,0,0,0,3.31,1.76c1.55,0,3.21-.66,3.21-2.52S108.45,20.63,107.31,20.34Z"/><path class="cls-1" d="M19.47,29.65V10.24a0,0,0,0,0,0,0H0a0,0,0,0,0,0,0V29.67l0,0H19.44S19.49,29.68,19.47,29.65ZM3.3,22.11A.14.14,0,0,1,3.44,22H5.75a.14.14,0,0,1,.14.14v1.66a.14.14,0,0,1-.14.13H3.44a.15.15,0,0,1-.14-.15Zm4.52,4.13a.14.14,0,0,1-.14.14H3.44a.14.14,0,0,1-.14-.14V24.6a.14.14,0,0,1,.14-.14H7.68a.15.15,0,0,1,.14.14Zm8.38-5.15a.14.14,0,0,1-.14.14H11v5a.14.14,0,0,1-.14.14H8.61a.14.14,0,0,1-.14-.14v-5h-5a.14.14,0,0,1-.14-.13V18.82a.14.14,0,0,1,.14-.14h5v-5a.14.14,0,0,1,.14-.14h2.27a.14.14,0,0,1,.14.14v5h5c.06,0,.12.06.15.14Z"/></svg>