<svg id="Camada_1" data-name="Camada 1" xmlns="http://www.w3.org/2000/svg" viewBox="0 0 100 40"><defs><style>.cls-1{fill:#fff;}</style></defs><path class="cls-1" d="M13.16,3.89A16.83,16.83,0,0,0,.61,15.16a19.66,19.66,0,0,0,0,9.7,16.39,16.39,0,0,0,11.58,11,15.25,15.25,0,0,0,7.86.15A16.48,16.48,0,0,0,32.73,19.85C32.76,9.8,23.09,1.92,13.16,3.89ZM23,11.68a6.75,6.75,0,0,1,3.32,4,4.91,4.91,0,0,1,0,3.6,12.75,12.75,0,0,1-3.76,6.17,11.3,11.3,0,0,1-6.32,3c-2.41.47-10.14.63-10.08.19,0-.12,1.32-3.1,2.91-6.64l2.88-6.41,1.82-.1c1.41-.06,1.78,0,1.66.32s-1.22,2.85-2.57,5.82a48.76,48.76,0,0,0-2.25,5.57c.31.31,4.13-.53,5.79-1.28,4.35-2,6.6-6.33,5-9.46-1-1.84-1.94-2.12-7.95-2.22A40.79,40.79,0,0,1,8,14a14.34,14.34,0,0,1,.53-1.57L9,11l6.61.12C20.46,11.21,22.46,11.37,23,11.68ZM19,23.17c0,.69-3.53,2.51-5.44,2.79l-1.5.25.5-1c.43-.82.68-1,1.69-1a12,12,0,0,0,2.72-.6C18.77,23,19,22.92,19,23.17Z"/><path class="cls-1" d="M52.14,13.5c-1.76.91-1.88,1.47-1.88,8.14v6l.87,1c1.63,1.82,5.33,1.47,6.36-.59.59-1.23.78-10.74.22-12.4A3.9,3.9,0,0,0,52.14,13.5Zm3.06,7.82c.07,5.45.07,5.73-.56,6.05a1.14,1.14,0,0,1-1.25,0c-.6-.32-.63-.66-.63-5.64A56.67,56.67,0,0,1,53,15.94c.16-.34.5-.47,1.19-.41l1,.1Z"/><path class="cls-1" d="M36.17,21.39v8.17h2.66c5,0,5.17-.38,5.17-8.27V15.47l-.91-1c-.91-1-1-1-3.91-1.13l-3-.12ZM41,16c.41.41.5,1.38.5,5.57,0,5.48-.09,5.83-1.62,5.83H39V15.47h.75A1.89,1.89,0,0,1,41,16Z"/><path class="cls-1" d="M45.88,21.42v8.14h2.5V13.28h-2.5Z"/><path class="cls-1" d="M59.65,21.42v8.14h6.89V27.4l-2.1-.1-2.13-.09-.09-7-.07-7h-2.5Z"/><path class="cls-1" d="M67.79,21.42v8.14h2.5V13.28h-2.5Z"/><path class="cls-1" d="M72.17,21.42v8.14h2.51l0-5.73,0-5.7,1.44,5.64,1.47,5.63,1.35.09,1.31.1V13.28H78.15L78.06,18,78,22.76,76.74,18l-1.22-4.76H72.17Z"/><path class="cls-1" d="M82.19,20c0,7.51.19,8.51,1.85,9.36a4.7,4.7,0,0,0,4.06,0c1.63-.84,1.91-2.19,1.91-9.55V13.28h-2.5L87.45,20c-.1,6.58-.13,6.79-.79,7.23s-.75.38-1.31-.19-.66-1-.66-7.23V13.28h-2.5Z"/><path class="cls-1" d="M91.45,14c.13.41.76,2.19,1.38,4L94,21.26l-1.35,3.85c-.75,2.13-1.37,4-1.37,4.17s.53.28,1.15.21c1.13-.09,1.16-.12,2-2.5a14.16,14.16,0,0,1,1-2.57,9.38,9.38,0,0,1,1,2.48l.85,2.66H100l-1.47-4.13-1.44-4.14,1.31-3.78c.72-2.07,1.32-3.89,1.32-4s-.53-.22-1.16-.16c-1.16.1-1.16.13-1.94,2.51a9.35,9.35,0,0,1-1,2.44,11.26,11.26,0,0,1-.91-2.51L94,13.28H92.61C91.33,13.28,91.23,13.31,91.45,14Z"/></svg>