<svg id="Camada_1" data-name="Camada 1" xmlns="http://www.w3.org/2000/svg" viewBox="0 0 90 40"><defs><style>.cls-1{fill:#fff;}</style></defs><path class="cls-1" d="M11.84,5.48A15.15,15.15,0,0,0,.55,15.63a17.67,17.67,0,0,0,0,8.73A14.74,14.74,0,0,0,11,34.26a13.67,13.67,0,0,0,7.07.13,14.79,14.79,0,0,0-6.2-28.91Zm8.86,7a6.1,6.1,0,0,1,3,3.6,4.42,4.42,0,0,1,0,3.24,11.53,11.53,0,0,1-3.39,5.56,10.17,10.17,0,0,1-5.69,2.7c-2.16.42-9.12.56-9.07.17,0-.11,1.19-2.79,2.62-6L10.75,16l1.64-.09c1.27-.05,1.6,0,1.5.29s-1.1,2.57-2.32,5.24a43.33,43.33,0,0,0-2,5c.28.28,3.71-.47,5.21-1.15,3.91-1.8,5.94-5.7,4.5-8.51-.9-1.66-1.75-1.91-7.16-2a36.53,36.53,0,0,1-4.9-.22,11.7,11.7,0,0,1,.48-1.41l.42-1.29,6,.11C18.41,12.07,20.21,12.22,20.7,12.49ZM17.1,22.84c0,.62-3.18,2.25-4.9,2.51l-1.35.22.45-.9c.39-.74.61-.9,1.52-.9a10.22,10.22,0,0,0,2.45-.54C16.89,22.68,17.1,22.61,17.1,22.84Z"/><path class="cls-1" d="M46.92,14.13c-1.58.82-1.69,1.33-1.69,7.33v5.4l.79.9c1.46,1.64,4.79,1.32,5.72-.53.53-1.11.7-9.67.2-11.16a3.51,3.51,0,0,0-4.46-2.18A3,3,0,0,0,46.92,14.13Zm2.76,7c.06,4.91.06,5.16-.5,5.45a1,1,0,0,1-1.13,0c-.54-.29-.57-.6-.57-5.08,0-1.74.06-3.48.22-5.21.14-.31.45-.42,1.07-.37l.9.09Z"/><path class="cls-1" d="M32.55,21.23v7.36H35c4.5,0,4.65-.35,4.65-7.45V15.91l-.82-.9c-.82-.9-.9-.9-3.52-1l-2.7-.11Zm4.35-4.85c.37.37.45,1.24.45,5,0,4.93-.08,5.24-1.46,5.24H35.1V15.91h.67A1.7,1.7,0,0,1,36.9,16.38Z"/><path class="cls-1" d="M41.29,21.26v7.33h2.25V13.93H41.29Z"/><path class="cls-1" d="M53.68,21.26v7.33h6.21V26.64L58,26.55l-1.92-.08L56,20.17l-.07-6.3H53.68Z"/><path class="cls-1" d="M61,21.26v7.33h2.25V13.93H61Z"/><path class="cls-1" d="M65,21.26v7.33h2.26V18.3l1.3,5.08,1.32,5.06,1.22.08,1.17.09V13.93H70.33l-.08,4.25,0,4.29-1.13-4.29L68,13.9H65Z"/><path class="cls-1" d="M74,20c0,6.76.17,7.66,1.67,8.43a4.24,4.24,0,0,0,3.65,0c1.47-.76,1.72-2,1.72-8.6V13.93H78.76L78.7,20c-.09,5.92-.11,6.11-.71,6.51s-.67.34-1.18-.17-.59-.9-.59-6.51V13.93H74Z"/><path class="cls-1" d="M82.3,14.58c.12.37.69,2,1.25,3.6l1,2.94-1.22,3.46c-.67,1.92-1.23,3.6-1.23,3.75s.48.26,1,.19c1-.08,1-.1,1.8-2.25a12,12,0,0,1,.9-2.31,8.62,8.62,0,0,1,.9,2.23l.76,2.4H90l-1.32-3.72-1.3-3.73,1.18-3.4c.65-1.86,1.19-3.5,1.19-3.6s-.48-.2-1-.14c-1,.09-1,.11-1.74,2.26a8.57,8.57,0,0,1-.9,2.19,10,10,0,0,1-.82-2.26l-.64-2.26H83.35C82.2,13.93,82.11,14,82.3,14.58Z"/></svg>