<svg id="Camada_1" data-name="Camada 1" xmlns="http://www.w3.org/2000/svg" viewBox="0 0 97.23 40"><defs><style>.cls-1{fill:#fff;}</style></defs><path class="cls-1" d="M6.61,6.69H0V33.31H6.61c4.18,0,6.24-2.34,6.24-6.57V13.26C12.85,9,10.79,6.69,6.61,6.69Zm2,20.22c0,1.88-.78,2.59-2.11,2.59H4.18v-19H6.54c1.31,0,2.11.69,2.11,2.59Z"/><path class="cls-1" d="M28.45,30.05V26c0-2.81-.66-4.76-2.77-5.63v-.08c1.86-.87,2.73-2.63,2.73-5.36V12.8c0-4.1-1.86-6.11-6.19-6.11H15.88V33.28H20.1V22.45h1.41c1.89,0,2.73.91,2.73,3.38V30a8.23,8.23,0,0,0,.38,3.27H28.9A7.87,7.87,0,0,1,28.45,30.05ZM24.2,15.83c0,2.12-.95,2.82-2.5,2.82H20.06V10.48h2c1.47,0,2.11.84,2.11,2.74Z"/><path class="cls-1" d="M34.66,6.69,30.44,33.28h3.85l.7-4.83h5.14l.71,4.83h4.22L40.78,6.69Zm.87,18.14,2-13.43h.08l2,13.43Z"/><path class="cls-1" d="M55.7,27.2c0,1.88-.83,2.59-2.16,2.59s-2.17-.69-2.17-2.59V6.69H47.23V26.93c0,4.26,2.07,6.69,6.19,6.69s6.23-2.46,6.23-6.69V6.69H55.7Z"/><polygon class="cls-1" points="62.61 10.48 70.18 10.48 62.23 29.56 62.23 33.28 74.47 33.28 74.47 29.48 66.53 29.48 74.47 10.4 74.47 6.69 62.61 6.69 62.61 10.48"/><rect class="cls-1" x="77.32" y="6.69" width="4.18" height="26.59"/><path class="cls-1" d="M90.89,6.38c-4.1,0-6.34,2.46-6.34,6.69V26.9c0,4.25,2.24,6.69,6.34,6.69s6.34-2.47,6.34-6.69V13.07C97.23,8.81,95,6.38,90.89,6.38Zm2.17,20.77c0,1.92-.83,2.62-2.17,2.62s-2.16-.72-2.16-2.62V12.8c0-1.92.83-2.62,2.16-2.62s2.17.72,2.17,2.62Z"/></svg>