<svg id="Camada_1" data-name="Camada 1" xmlns="http://www.w3.org/2000/svg" viewBox="0 0 90 40"><defs><style>.cls-1{fill:#fff;}</style></defs><path class="cls-1" d="M22.82,21.38a3.64,3.64,0,0,0,1.76-1.68,5.36,5.36,0,0,0,.57-2.43,5.15,5.15,0,0,0-.57-2.42,3.61,3.61,0,0,0-1.75-1.68,6.19,6.19,0,0,0-2.93-.64H14.52V27.47h2.69V22h2.68l2.95,5.45h3l-3.28-6Zm-.29-4.11a2.46,2.46,0,0,1-.32,1.26,1.73,1.73,0,0,1-.83.76,4,4,0,0,1-1.61.26h-2.5l-.06-4.68H19.7a4.13,4.13,0,0,1,1.68.32,1.7,1.7,0,0,1,.83.77A2.88,2.88,0,0,1,22.53,17.27Z"/><path class="cls-1" d="M33.35,12.53,28,27.47h2.86l1.3-3.82h5.33l1.3,3.82h2.86L36.24,12.53Zm3.25,8.79H32.92L34.76,16Z"/><path class="cls-1" d="M53.14,21.84a3.52,3.52,0,0,1-.38,1.65,3.24,3.24,0,0,1-1.12,1.12,4.4,4.4,0,0,1-3.62,0,2.45,2.45,0,0,1-1.13-1.12,3.41,3.41,0,0,1-.37-1.65V12.53H43.83V22a5,5,0,0,0,.72,2.79,6,6,0,0,0,2.08,1.93,6.43,6.43,0,0,0,3.13.71,6.22,6.22,0,0,0,3.13-.71A4.94,4.94,0,0,0,55,24.83,5.08,5.08,0,0,0,55.69,22V12.53H53.14Z"/><polygon class="cls-1" points="69.05 14.29 69.05 12.53 58.21 12.53 58.21 14.94 65.65 14.94 58.28 25.64 58.28 27.47 69.11 27.47 69.11 25.07 61.67 25.07 69.05 14.29"/><rect class="cls-1" x="71.42" y="12.53" width="2.69" height="14.94"/><path class="cls-1" d="M89.15,16a6.08,6.08,0,0,0-2.41-2.56,7.08,7.08,0,0,0-7,0A6.88,6.88,0,0,0,77.34,16a8.86,8.86,0,0,0-.85,4,8.86,8.86,0,0,0,.85,4,6,6,0,0,0,2.43,2.56,7,7,0,0,0,3.48.92,6.38,6.38,0,0,0,3.48-.92A6.31,6.31,0,0,0,89.15,24,8.86,8.86,0,0,0,90,20,8.86,8.86,0,0,0,89.15,16Zm-1.84,4a5.86,5.86,0,0,1-.51,2.74h0a4.13,4.13,0,0,1-1.48,1.68,4,4,0,0,1-2.13.58A4.16,4.16,0,0,1,81,24.42a4.21,4.21,0,0,1-1.48-1.68A5.72,5.72,0,0,1,79,20a6.83,6.83,0,0,1,.52-2.74A4.21,4.21,0,0,1,81,15.58,4,4,0,0,1,83.18,15a3.87,3.87,0,0,1,3.61,2.26A5.72,5.72,0,0,1,87.31,20Z"/><path class="cls-1" d="M8.87,13.45a7.27,7.27,0,0,0-3.76-.92H0V27.4H4.91a7.52,7.52,0,0,0,3.89-.92,6.39,6.39,0,0,0,2.49-2.62,8.9,8.9,0,0,0,.85-4A8.52,8.52,0,0,0,11.29,16,5.58,5.58,0,0,0,8.87,13.45ZM7.52,15.51a4.42,4.42,0,0,1,1.54,1.66,7.07,7.07,0,0,1,.53,2.76,6.68,6.68,0,0,1-.53,2.77,3.62,3.62,0,0,1-1.53,1.71A5.31,5.31,0,0,1,4.91,25H2.69V14.93H5A5.36,5.36,0,0,1,7.52,15.51Z"/></svg>