<svg id="Camada_1" data-name="Camada 1" xmlns="http://www.w3.org/2000/svg" viewBox="0 0 90 40"><defs><style>.cls-1{fill:#fff;}</style></defs><path class="cls-1" d="M6.12,7.68H0V32.32H6.12c3.87,0,5.77-2.17,5.77-6.08V13.76C11.89,9.82,10,7.68,6.12,7.68ZM8,26.4c0,1.74-.72,2.39-1.95,2.39H3.87V11.21H6.05c1.22,0,2,.64,2,2.39Z"/><path class="cls-1" d="M26.33,29.3V25.55c0-2.6-.61-4.4-2.56-5.21v-.07c1.72-.81,2.53-2.44,2.53-5v-2c0-3.8-1.72-5.66-5.73-5.66H14.7V32.29h3.91v-10h1.3c1.75,0,2.53.84,2.53,3.13v3.86a7.54,7.54,0,0,0,.35,3h4A7.36,7.36,0,0,1,26.33,29.3ZM22.4,16.14c0,2-.88,2.61-2.31,2.61H18.57V11.19h1.85c1.36,0,1.95.78,1.95,2.53Z"/><path class="cls-1" d="M32.08,7.68l-3.9,24.61h3.56l.65-4.47h4.76l.65,4.47h3.91l-4-24.61Zm.81,16.79L34.74,12h.07l1.85,12.43Z"/><path class="cls-1" d="M51.56,26.66c0,1.74-.77,2.4-2,2.4s-2-.64-2-2.4v-19H43.72V26.41c0,3.95,1.91,6.2,5.73,6.2s5.76-2.28,5.76-6.2V7.68H51.56Z"/><polygon class="cls-1" points="57.95 11.19 64.96 11.19 57.6 28.85 57.6 32.29 68.93 32.29 68.93 28.77 61.58 28.77 68.93 11.11 68.93 7.68 57.95 7.68 57.95 11.19"/><rect class="cls-1" x="71.57" y="7.68" width="3.87" height="24.61"/><path class="cls-1" d="M84.13,7.39c-3.79,0-5.87,2.28-5.87,6.2v12.8c0,3.93,2.08,6.19,5.87,6.19S90,30.29,90,26.39V13.59C90,9.64,87.94,7.39,84.13,7.39Zm2,19.23c0,1.78-.77,2.42-2,2.42s-2-.66-2-2.42V13.34c0-1.78.77-2.43,2-2.43s2,.67,2,2.43Z"/></svg>