<svg id="Camada_1" data-name="Camada 1" xmlns="http://www.w3.org/2000/svg" viewBox="0 0 120 40"><defs><style>.cls-1{fill:#fff;}</style></defs><path class="cls-1" d="M.07,10.18C0,10.3,0,14,0,18.34l.06,7.92,6.15,1.95a64.18,64.18,0,0,0,6.42,1.86c.19-.05.23-1.8.19-8.16l-.06-8.06-6.15-2c-3.4-1.07-6.24-2-6.31-2S.11,10,.07,10.18Zm7.18,5.4,2.84.91v1.2a9.23,9.23,0,0,1,0,1.17s-1.66-.54-3.63-1.17L2.85,16.53l-.06-1.21-.06-1.21.85.28Zm-2,3,2.26.69v1.21c0,1.06,0,1.18-.34,1.08s-1.27-.42-2.38-.78l-2-.61V19a3.05,3.05,0,0,1,.12-1.16C2.93,17.86,4,18.18,5.25,18.58Zm1.33,3.93,3.51,1.13v1.17a9.29,9.29,0,0,1,0,1.19s-1.66-.53-3.63-1.17L2.85,23.68l-.06-1.25c0-.67,0-1.19.1-1.13S4.63,21.89,6.58,22.51Z"/><path class="cls-1" d="M32.53,19.55V27h2.18V12.11H32.53Z"/><path class="cls-1" d="M39.12,12.34a1.69,1.69,0,0,0,.08,1.83,1.85,1.85,0,0,0,2.13,0,1.33,1.33,0,0,0,0-1.71A2.42,2.42,0,0,0,39.12,12.34Z"/><path class="cls-1" d="M89,12.42a1.3,1.3,0,0,0,0,1.73,1.91,1.91,0,0,0,2.1,0,1.69,1.69,0,0,0,.08-1.83A2.42,2.42,0,0,0,89,12.42Z"/><path class="cls-1" d="M99.44,14.39v2.26l-.7-.47a2.94,2.94,0,0,0-2.72-.5c-2.2.6-3.27,3.28-2.44,6.1a3.6,3.6,0,0,0,2.72,2.54,3.4,3.4,0,0,0,2.94-1l.38-.47.14.69c.12.7.14.72,1.09.72h1V12.11H99.44Zm-1.21,3.1c.81.29,1.21,1.07,1.21,2.46s-.38,2.14-1.15,2.46a1.78,1.78,0,0,1-2.07-.52c-.39-.41-.45-.69-.45-1.94,0-1.53.27-2.13,1.19-2.5C97.49,17.23,97.51,17.23,98.23,17.49Z"/><path class="cls-1" d="M83.52,13.46l-1.16.27v1.93l-.73.06c-.73.06-.75.08-.75.85s0,.8.75.86l.73.06v2.38c0,2.66.24,3.49,1.12,4.07a4.72,4.72,0,0,0,3.41.1c.6-.26.64-.34.52-.89-.18-.88-.2-.9-1-.68a1.09,1.09,0,0,1-1.19-.12c-.49-.32-.51-.38-.51-2.6V17.47h2.8l-.06-.86-.06-.83-1.33-.06-1.33-.06-.06-1.23-.06-1.25Z"/><path class="cls-1" d="M23.5,15.66q-3.08.81-3.08,4.29a4,4,0,0,0,2,3.87c1.85.93,4.41.62,5.56-.69a6.78,6.78,0,0,0,.62-.78,4.1,4.1,0,0,0-.91-.4c-.92-.29-.94-.29-1.51.18a2.06,2.06,0,0,1-3.24-.71l-.32-.58h6l.12-.47a6.07,6.07,0,0,0-.78-3.32,3.47,3.47,0,0,0-1.13-1A5.79,5.79,0,0,0,23.5,15.66Zm2.06,1.91a2.36,2.36,0,0,1,1,1.6,11.75,11.75,0,0,1-1.88.08c-1.83,0-1.89,0-1.89-.45A1.79,1.79,0,0,1,25.56,17.57Z"/><path class="cls-1" d="M47.82,15.72a3.25,3.25,0,0,0-1.23.71L46,17l-.12-.63c-.12-.62-.16-.64-1.09-.64h-1v8.56L45,24.18l1.13-.06.06-2.8c0-2.66.08-2.84.54-3.34a1.74,1.74,0,0,1,2.4-.1c.34.36.38.82.43,3.38l.08,3h2.17l-.06-3.56-.06-3.57-.58-.6a3.49,3.49,0,0,0-2.3-1A4.66,4.66,0,0,0,47.82,15.72Z"/><path class="cls-1" d="M65.43,15.76c-1.83.5-2.72,1.89-2.72,4.19a4.1,4.1,0,0,0,1.43,3.55A5,5,0,0,0,70,23.32c.39-.37.67-.79.63-.91s-.46-.38-.91-.54c-.8-.25-.86-.25-1.19.14a2.39,2.39,0,0,1-2.43.42,2.36,2.36,0,0,1-1.19-1.49,21.55,21.55,0,0,1,3-.1h3V19.75C70.85,16.67,68.47,14.91,65.43,15.76Zm2.66,2.08a1.93,1.93,0,0,1,.57,1c0,.39-.09.41-1.88.41-1.19,0-1.89-.08-1.89-.19a2.48,2.48,0,0,1,1-1.59A1.83,1.83,0,0,1,68.09,17.84Z"/><path class="cls-1" d="M74.74,15.76A2.77,2.77,0,0,0,72.5,18.1c-.18,1.51.65,2.19,3.77,3,2,.56,1.65,1.59-.52,1.45A2.21,2.21,0,0,1,74.07,22l-.56-.53-.68.69c-.77.8-.67,1,.76,1.73a6.4,6.4,0,0,0,4.94,0c1.57-.89,1.87-2.64.64-3.67a5.36,5.36,0,0,0-1.73-.82c-2.08-.57-2.52-.79-2.58-1.23C74.7,17.09,77,17,78,18l.55.54.72-.54c.57-.43.67-.59.51-.89a3.51,3.51,0,0,0-2.2-1.37A4.76,4.76,0,0,0,74.74,15.76Z"/><path class="cls-1" d="M106.73,15.76a3.8,3.8,0,0,0-2.84,3.63,4.46,4.46,0,0,0,1,3.56,4.27,4.27,0,0,0,4.43,1.27c2-.42,3.11-1.93,3.11-4.29s-1.09-3.79-3-4.23A4.12,4.12,0,0,0,106.73,15.76Zm2.5,1.91c1.37,1.07,1.13,4.11-.36,4.8a1.87,1.87,0,0,1-2.28-.69,4.72,4.72,0,0,1-.12-3.5A1.88,1.88,0,0,1,109.23,17.67Z"/><path class="cls-1" d="M118.5,15.62a2.84,2.84,0,0,0-1.63,1.15l-.36.6V15.66l-1,.06-1,.06v8.34l1.15.06,1.13.06v-2.5a8,8,0,0,1,.3-3.08,2.16,2.16,0,0,1,2.19-1.11c.63.12.63.12.77-.82C120.13,15.58,119.67,15.22,118.5,15.62Z"/><path class="cls-1" d="M39.08,20v4.27h2.38V15.68H39.08Z"/><path class="cls-1" d="M53,15.82c0,.1.67,2,1.53,4.27l1.55,4.13h1.31c1.07,0,1.35-.06,1.47-.36s1.72-4.59,2.5-6.65l.57-1.55-1.21.06-1.21.06-1.05,3.35-1,3.38-.62-2c-.34-1.07-.79-2.62-1-3.41l-.44-1.43H54.15A2.58,2.58,0,0,0,53,15.82Z"/><path class="cls-1" d="M88.92,20v4.27H91.3V15.68H88.92Z"/></svg>