<svg id="Camada_1" data-name="Camada 1" xmlns="http://www.w3.org/2000/svg" viewBox="0 0 100 40"><defs><style>.cls-1{fill:#fff;}</style></defs><path class="cls-1" d="M0,30.86V28.8H1.49c.91,0,1.42-.28,1.42-1.95V16c0-1.19-.32-1.55-1.71-1.55H0V12.41H17.62v7.34h-2c-.4-3.78-.72-5.28-4.29-5.28H6.65v5.79H8.06c1.61,0,2.32-.84,2.32-3.09V16.8h2v9.3h-2v-.67c0-2.25-.71-3.11-2.32-3.11H6.65V28.8H12c2.45,0,3.41-1.59,3.65-5.73h2v7.79Zm19.06,0V28.8h1.71c.75,0,1.26-.28,1.26-1.23V15.66c0-.83-.35-1.19-1.42-1.19H19.06V12.41h9.77v2.06H27.34c-1.17,0-1.58.28-1.58,1.25V28.83h4.35c2.75,0,3.42-1.59,3.66-5.9h2v7.93Zm21.94,0V28.8h1.71c.62,0,1.15-.22,1.15-.95V15.41c0-.72-.53-.94-1.15-.94H41V12.41H51.47c4,0,6.3,1.92,6.3,5.06,0,3.43-2.4,5-6,5H47.6v5.34c0,.73.67.95,1.28.95h1.71v2.06Zm6.6-10.41H50c2.51,0,3.84-.81,3.84-2.95s-1.07-3-3.84-3H47.6Zm7.18,10.41h8.33V28.8H61c-.51,0-.86-.11-.86-.5a1.76,1.76,0,0,1,.11-.58l.88-2.79h6.06l.88,2.79a2.37,2.37,0,0,1,.1.67c0,.27-.21.41-.82.41H65.27v2.06H83.34V28.8H81.79c-.91,0-1.31-.47-1.31-1.36V15.8c0-1.05.83-1.33,1.68-1.33h1.18V12.41H73.89v2.06h1.49c1.05,0,1.36.55,1.36,1.25V27.8c0,.72-.42,1-1.52,1h-.66c-1.42,0-2.32-.19-2.81-1.5L66.42,12.41H62.68L57.58,27.3c-.45,1.31-1.39,1.5-2.8,1.5v2.06Zm11.67-8H61.93l2.14-6.71h.05l2.33,6.71Zm31-10.46H99v7H97.09c-.64-3-2.32-5.2-5.5-5.2-2.48,0-3.5.67-3.5,2.5,0,4.18,11.91,1.06,11.91,8.83,0,4.42-3.31,5.87-7,5.87a8.85,8.85,0,0,1-5.55-2.2l-.58,1.64H85V23.32h2c.38,3.73,2.56,5.73,6.36,5.73,2.34,0,3.47-1.14,3.47-2.48,0-4.76-11.91-1.17-11.91-9.13,0-3.92,3.39-5.59,6.62-5.59a8.64,8.64,0,0,1,5.07,2l.88-1.39Z"/><path class="cls-1" d="M83.39,8.58v2.33H73.66Z"/></svg>