<svg xmlns="http://www.w3.org/2000/svg" width="110" height="40" viewBox="0 0 110 40"><defs><style>.a{fill:#fff;}</style></defs><title>engadget</title><path class="a" d="M0,25.46a2.13,2.13,0,0,0,2.14,2.12h8.67V25.43H2.1V23.28h8.62A2.24,2.24,0,0,0,13,21.13V16.89a2.38,2.38,0,0,0-2.24-2.32H2.14A2.29,2.29,0,0,0,0,16.88Zm10.82-4.32H2.1V16.72h8.71Zm29-6.57H31.2a2.43,2.43,0,0,0-2.29,2.32v8.52a2.29,2.29,0,0,0,2.29,2.16h8.56v2.14H31.06v2.14h8.73a2.11,2.11,0,0,0,2.13-2.1V16.89a2.28,2.28,0,0,0-2.13-2.32Zm0,10.86H31.06V16.72h8.71ZM23.11,14.57H16.67a2.38,2.38,0,0,0-2.24,2.32V27.57h2.14V16.72h6.53A2.33,2.33,0,0,1,25.29,19v8.54h2.14V19A4.47,4.47,0,0,0,23.11,14.57ZM54.24,25.43H45.53V19a2.49,2.49,0,0,1,2.36-2.32h6.35V27.57h2.14V16.89a2.24,2.24,0,0,0-2.06-2.32H47.89A4.62,4.62,0,0,0,43.39,19v6.43a2.3,2.3,0,0,0,2.36,2.1h3.78c1.9,0,3.91-.79,4.72-2.1v2.1M103.43,8.14h-2.14V27.57h2.14V16.72H110V14.57h-6.57ZM68.58,14.57H60.27a2.54,2.54,0,0,0-2.41,2.32v8.52a2.41,2.41,0,0,0,2.41,2.16H70.86V8.14H68.58Zm0,10.86H60V16.72h8.58Zm18.23,0a2.37,2.37,0,0,0,2.43,2.1h8.43V25.43H89V23.28h8.86a2,2,0,0,0,2-2.16V16.89a2.19,2.19,0,0,0-2-2.32H89.24a2.55,2.55,0,0,0-2.43,2.32Zm10.86-4.33H89V16.72h8.71Zm-14.4-6.57H74.7a2.49,2.49,0,0,0-2.36,2.32v8.52a2.36,2.36,0,0,0,2.36,2.16h8.5v2.14H74.62v2.14h8.66a2,2,0,0,0,2.06-2.1V16.89a2.23,2.23,0,0,0-2.06-2.32Zm-.08,10.86H74.62V16.72h8.58Z"/></svg>