<svg id="Camada_1" data-name="Camada 1" xmlns="http://www.w3.org/2000/svg" viewBox="0 0 78 40"><defs><style>.cls-1{fill:#fff;}</style></defs><path class="cls-1" d="M25.44,10.37c-2.93,0-4.88,1.53-5.09,3.82-.11.85-.2,1.59-.2,1.59H57.93l.14-1c.28-2.3-.7-4.39-4.27-4.39H25.44Zm-23.07,0-.66,5.41H18.85l.65-5.41Zm57.52,0-.66,5.41H77.84a8,8,0,0,1,.1-.84c.46-3.55-1.83-4.57-4-4.57Zm-1,7.46-1.4,11.79H64L65.4,17.83Zm12.19,0L69.64,29.62h6.42L77.5,17.83Zm-69.74,0L0,29.63H17.15l.63-5.12H7.06l.27-2.21H18.06l.54-4.47H1.37Zm18.44,0c-.47,3.08,1.06,4.47,3.25,4.47h8.67l-.28,2.21H19l-.62,5.12H32.57c.46,0,3.63-.11,4.72-2.72A31.12,31.12,0,0,0,38,22.42c.49-3.7-2.05-4.56-4.07-4.56Zm20,0L38.32,29.62h6.53l.9-7.32h8a3.35,3.35,0,0,0,3.73-2.88c.12-.82.2-1.59.2-1.59h-18Z"/></svg>