<svg id="Camada_1" data-name="Camada 1" xmlns="http://www.w3.org/2000/svg" viewBox="0 0 70 40"><defs><style>.cls-1{fill:#fff;}</style></defs><path class="cls-1" d="M22.83,11.36c-2.63,0-4.38,1.37-4.57,3.43-.1.76-.18,1.42-.18,1.42H52l.12-.89c.26-2.07-.62-3.94-3.83-3.94H22.83Zm-20.7,0-.6,4.85H16.92l.58-4.85Zm51.62,0-.59,4.85h16.7a4.8,4.8,0,0,1,.09-.75c.41-3.19-1.65-4.1-3.59-4.1Zm-.9,6.69L51.59,28.63h5.85l1.25-10.58Zm10.94,0L62.5,28.63h5.76l1.29-10.58Zm-62.59,0L0,28.64H15.39L16,24.05H6.34l.24-2h9.63l.48-4H1.2Zm16.55,0c-.42,2.77.95,4,2.92,4h7.78l-.25,2H17.05l-.56,4.59H29.23c.41,0,3.26-.1,4.24-2.44a27.25,27.25,0,0,0,.63-4c.44-3.32-1.84-4.09-3.65-4.09Zm18,0L34.39,28.63h5.86l.81-6.57h7.18a3,3,0,0,0,3.34-2.58c.11-.74.18-1.43.18-1.43H35.7Z"/></svg>