<svg id="Camada_1" data-name="Camada 1" xmlns="http://www.w3.org/2000/svg" viewBox="0 0 100 40"><defs><style>.cls-1{fill:#fff;}</style></defs><path class="cls-1" d="M36.09,10.12c-3,0-5,1.57-5.22,3.92-.11.87-.2,1.63-.2,1.63H69.42l.14-1c.29-2.36-.72-4.51-4.38-4.51H36.09Zm-23.66,0-.68,5.55H29.33L30,10.12Zm59,0-.68,5.55H89.84a7.21,7.21,0,0,1,.1-.86c.47-3.64-1.88-4.69-4.14-4.69Zm-1,7.65L69,29.87H75.6l1.48-12.1Zm12.5,0-1.5,12.1h6.58l1.48-12.1Zm-71.52,0L10,29.88H27.59l.65-5.25h-11l.28-2.27h11l.56-4.59H11.48Zm18.91,0c-.48,3.16,1.09,4.59,3.33,4.59h8.89l-.28,2.27H29.53l-.64,5.25H43.41c.47,0,3.72-.12,4.84-2.79A32.63,32.63,0,0,0,49,22.48c.5-3.79-2.11-4.68-4.18-4.68Zm20.46,0-1.48,12.1H56l.92-7.51h8.25A3.44,3.44,0,0,0,69,19.41c.12-.85.2-1.64.2-1.64H50.85Z"/></svg>