<svg id="Camada_1" data-name="Camada 1" xmlns="http://www.w3.org/2000/svg" viewBox="0 0 100 40"><defs><style>.cls-1{fill:#fff;}</style></defs><g id="Grupo_117" data-name="Grupo 117"><path id="Caminho_66" data-name="Caminho 66" class="cls-1" d="M99.65,13.91a8.7,8.7,0,0,1-.13.87c-.07.29-.73,1.91-.77,2.17a6.84,6.84,0,0,0,0,.79c-.19.08-.65.42-.89.42s-.82-.55-1.07-.62c0-.68.17-.73.11-1.09a5.73,5.73,0,0,0-.42-1.18.93.93,0,0,1-.05-.55.69.69,0,0,0-.11.5c.06.38.36,1,.41,1.19s0,.54-.07.6a4.84,4.84,0,0,1-1.92-.63,14.39,14.39,0,0,0-1.42-.7A7.84,7.84,0,0,1,94.35,14a5.31,5.31,0,0,1,1.26-1.1,4,4,0,0,1,2.1-.41,8.43,8.43,0,0,1,1.31.26s.42-.35.74-.24l-.19.49.41.24a7.13,7.13,0,0,0-.33.68M80.91,20.13a2.29,2.29,0,0,0,.52,1.41h0a9.13,9.13,0,0,1-.26-1v-.68a6.3,6.3,0,0,1,.43-1.4h0l0,0a2.29,2.29,0,0,0-.43.59l0,.05a2.26,2.26,0,0,0-.21.81c0,.06,0,.11,0,.17s0,0,0,0m11.4-3.65a.24.24,0,0,0,.08-.09,1.56,1.56,0,0,0,.16-.28c0-.18-.38-.16-.46-.23s-.11-.16-.24-.21v.14a2,2,0,0,1,0,.35,1.41,1.41,0,0,1,0,.46,1,1,0,0,1,.21.09.89.89,0,0,1,.28-.23m0-1.39-1.48-1.66-1,.8,0,.12a2.56,2.56,0,0,0,.11.24l.16.24a2.5,2.5,0,0,0,.22.24l0,0a2.32,2.32,0,0,0,.73.46,1.69,1.69,0,0,0,.49.09l.66-.56Zm-.72-2.75V11.9a.18.18,0,0,0,0-.14.54.54,0,0,1-.16-.1l0,0a.45.45,0,0,1-.3,0,.37.37,0,0,1-.15-.08.23.23,0,0,1-.08-.18h-.14v.32a.63.63,0,0,1-.1.56.69.69,0,0,1-.55.29,1,1,0,0,0,0,.25c0,.07.09.28.12.39a2.2,2.2,0,0,1,.12.62l.22-.18c0-.18-.1-.36-.15-.54s-.07-.25-.1-.36a.88.88,0,0,0,.59-.42,1.86,1.86,0,0,0,.39.1Zm.55-.56c.06-.06.05-.2-.06-.45l-.14-.15-.15.07-.08.11s-.07,0-.09,0a.38.38,0,0,1-.15.18,1,1,0,0,0,.29.18c.08,0,.32.09.38,0m.29-1a2,2,0,0,0,.65-.59l-.14-.07a1.26,1.26,0,0,1-.44-.42,2.47,2.47,0,0,1-.72,1,.36.36,0,0,1,0,.09v0a.7.7,0,0,1,0,.25,2.66,2.66,0,0,0,.6-.26m.74-.73h0a0,0,0,0,0,0,0,.62.62,0,0,0-.22-.35,1.66,1.66,0,0,0-.21-.16c-.08-.05-.14-.07-.17-.06h0v0a0,0,0,0,0,0,0,.87.87,0,0,0,.22.31c.16.16.33.26.39.21m-1.55.65-.38,0s-.18.13-.2.24a.89.89,0,0,0,0,.23h.58a.47.47,0,0,0,0-.51m-.42.8c.31,0,.29-.16.29-.16h-.53s-.06.14.24.16m-.76-.63a.66.66,0,0,0-.17-.12,2.54,2.54,0,0,1-.24.2h0a.31.31,0,0,1-.09.07.46.46,0,0,1-.13-.21s0,0,0-.06a.16.16,0,0,1,.08-.14l.18-.08a.23.23,0,0,1,.06-.12.77.77,0,0,0-.1-.18l-.16-.1L89.63,10c0,.1,0,.17,0,.24v.15c0,.08,0,.16,0,.24h-.14v-.08a.53.53,0,0,0,0-.13v-.13c0-.18,0-.35,0-.51H89.4l-.1,0h-.1a2.72,2.72,0,0,0,.07.43s.06.4.06.42v0H89.2l-.09-.47L89,9.78a1.61,1.61,0,0,0-.36.1h0L88.4,10l0,0-.14.15-.14.22s0,.08,0,.12a.24.24,0,0,0,0,.08.28.28,0,0,0,0,.09h0l.12,0a1.87,1.87,0,0,0,.34,0h.19a1,1,0,0,0,.25.44,1,1,0,0,0,.33.24l.09,0h.05a.28.28,0,0,0,0,.09v.12h.11v-.11a.06.06,0,0,1,0,0V11h.13v.12l0,0h0l.15.16,0,.05h0v0l.11.13a.48.48,0,0,0,.11-.09l.09-.09,0-.05,0-.07a.08.08,0,0,1,0,0s0,0,0,0l0-.1a.28.28,0,0,1,.11-.13.22.22,0,0,0,0-.08m-1.82,4.68-.08-.09,0-.05h0l-.49.4,1.5,1.68.06-.05.89-.75a3.57,3.57,0,0,1-.83-.35,4,4,0,0,1-.87-.66s0,0,0,0l-.06-.06,0,0m-1.07.61h0l.45.36L89,17.4l.08-.1L88,16.05l0,0h0l-.12-.14-.34.28Zm0,.59h0l1,.37.08,0-.9-.71,0,0Zm-6.8,6.57c0-.16-.08-.34-.12-.48l-.3-1.05-.43-1.47a2.18,2.18,0,0,1,1.49-2.69,2.47,2.47,0,0,1,.6-.08l.31,0a.76.76,0,0,0,.21,0l.09,0,.08,0,.14-.07.24-.1a4.71,4.71,0,0,1,2.8-.33,4.27,4.27,0,0,1,.91.26l.34.09c.19,0,.2-.2.44-.2a1.15,1.15,0,0,1,.31.11l0,.05a7.86,7.86,0,0,0-1,2.25s0,0,0,0l0,.12S89.86,21,89.86,21s.57-1.36.57-1.36.56.4.86.57q0,.36,0,.72c.06.92.22,2.29.27,2.71,0,.06.08.11.15.11s.88-.09,1.1-.38l-.14-2-.1-1.49-1.06-2.53-.16-.39-.32.75-1.28,3.08L87,19.62a0,0,0,0,1,0,0h0s0,0,0,0a8,8,0,0,1,1-2.34.32.32,0,0,1,0-.06c0-.06,0,0,0-.06l-.72-.28.19-.48-.18-.15,0,0,.18-.15.28-.23.34-.28.15-.13,0,0-.06-.09L88.13,15a3.12,3.12,0,0,1-.3-.53c0-.12-.1-.23-.14-.35a.5.5,0,0,1,0-.13,3.12,3.12,0,0,1-.09-.44,2.46,2.46,0,0,1,0-.26v0a1,1,0,0,1,.14-.47.64.64,0,0,1,.1-.13l0,0,.09-.09a.74.74,0,0,1,.21-.13l.15-.07h0a.81.81,0,0,1,0-.15l.09,0,.24.06h0c0-.16-.21-.19-.28-.28a.1.1,0,0,1,0-.12.18.18,0,0,0,0-.1.09.09,0,0,0,0,0l0,0h0l0,0,0,0-.05-.05a1.19,1.19,0,0,1-.32-.58.09.09,0,0,0,0-.05.17.17,0,0,0,0-.07,1.55,1.55,0,0,1,0-.22.17.17,0,0,1,0-.07,1.15,1.15,0,0,1,.36-.62l.17-.12h0l.21-.1h.07l.21-.05h.64a.08.08,0,0,1,0,0v0l.08.15h0l0,0c.11.1.3.13.34.22l.19.4.33.39a.19.19,0,0,0,0,.16l.19-.07s0-.1,0-.15.24-.32.36-.31l.44,0a2,2,0,0,0,.71-1.14h0v0l0-.05a.2.2,0,0,1,.17,0l.18.07a1.39,1.39,0,0,1,.27.21.46.46,0,0,1,.07.07,1.33,1.33,0,0,1,.14.19.35.35,0,0,1,.06.31h0a2.36,2.36,0,0,1-1.23,1l0,0a.8.8,0,0,1,.22.35h.54V13s0,.05,0,.07a.17.17,0,0,1,0,.07s0,0,0,.05a1.08,1.08,0,0,1-.08.19l0,0a.75.75,0,0,1-.49.3h-.86l1.22,1.36-.49.41a1.3,1.3,0,0,0,.19.22c.08.05.59.09.55.34a.24.24,0,0,1,0,.08,1.73,1.73,0,0,1-.21.34c-.08.11-.26.11-.32.3a.41.41,0,0,1,.19.24,6.45,6.45,0,0,0,.78-1.1c.62.15,2.12,1,2.52,1.11a6.39,6.39,0,0,0,.85.17,2.45,2.45,0,0,0-.08.29s.13.07.26.15a.78.78,0,0,1,.2.16,2.19,2.19,0,0,0,.15,1,2,2,0,0,1,.12.34l0,.11c0,.09,0,.17.05.27s0,.23,0,.34,0,.06,0,.09v.13a.28.28,0,0,1,0,.09,3.13,3.13,0,0,1,0,.43s0,.06,0,.09l0,.13a3.68,3.68,0,0,1-.15.47l0,0a0,0,0,0,1,0,0H97l-.27-.12-.16-.12a1,1,0,0,1-.15-.14,1.33,1.33,0,0,0,.39.49l.09.07.07,0,.49.15a9.55,9.55,0,0,1,1.31.29c.07,0,.2-.14.59-.1a.76.76,0,0,1,.68.67c0,.26-.12.32-.16.47s-.34,1.83-.37,2.12,0,.44,0,.44.07.34.08.44v.06a.71.71,0,0,1,0,.14.75.75,0,0,1-.28.49,0,0,0,0,0,0,0,2.25,2.25,0,0,1-.08.24,3.22,3.22,0,0,1-.67,1.07h0L97.86,27h0a2.34,2.34,0,0,1,.48-.64.3.3,0,0,1,.08-.08l.18-.16V26a.79.79,0,0,1,.25-.58l.07-.07s.09-1.76,0-2.39a1.93,1.93,0,0,1-.67-.25c-.06-.05-2,.13-2,.14s-.21-.07-.32-.07l-.36,0a.66.66,0,0,1-.35-.11.58.58,0,0,1-.21-.32.25.25,0,0,1,0-.08v-.19l.06-.15a1.88,1.88,0,0,1-.3-.12,1.4,1.4,0,0,1-.26-.16,1.91,1.91,0,0,1-.52-.54L93.88,21a1.9,1.9,0,0,0,.83,1.15s0,.08,0,.12a.86.86,0,0,0,0,.23.81.81,0,0,0,.22.42.92.92,0,0,0,.48.29c-.15.56-.48,1.51-.48,1.58A8,8,0,0,1,94.41,26a8.62,8.62,0,0,1-.18,1.24,1.23,1.23,0,0,0,0,.27c0,.07,0,.51-.07,1.21,0,.07,0,.07,0,.15a.27.27,0,0,0,.06.16h0l.08.1.1.14a3.72,3.72,0,0,1,.19.34,1.3,1.3,0,0,1,.08.17.3.3,0,0,1,0,.08,3.26,3.26,0,0,1,.21.8h-1.4a1,1,0,0,0,0-.25,1.79,1.79,0,0,0-.21-.91,1.41,1.41,0,0,0-.22-.4,3,3,0,0,1,.11-.6,3.43,3.43,0,0,1,.32-.67s.08-1.68.08-1.75-.11-.68-.16-1a3.5,3.5,0,0,0-.28-.94c0-.06.15-.23.21-.33l0,0h0c-.07.06-1.42.47-1.42.47a2.61,2.61,0,0,0-.42-.46c-.59-.05-1.18-.12-1.77-.23a14.88,14.88,0,0,1-2.46-.66l-.4-.15s0,0,0,0v.07a2.64,2.64,0,0,1,0,.28,3.23,3.23,0,0,1-.28,1,2,2,0,0,1-.24.39v0a1.49,1.49,0,0,1,.13.39,1.26,1.26,0,0,1,0,.27,1.71,1.71,0,0,1,0,.32A18.81,18.81,0,0,1,88,27.73v0a.66.66,0,0,1,.33.62.85.85,0,0,1,0,.23.7.7,0,0,1-.11.23,2.21,2.21,0,0,1,0,.25,2.33,2.33,0,0,1,0,.53v0a2.57,2.57,0,0,1-.15.78l-.08.14L87,29.68l0,0c0-.12.11-.25.17-.37l.23-.37a.75.75,0,0,1-.23-.46v-.18a1,1,0,0,1,.17-.52,8.41,8.41,0,0,0-.54-.8,4.77,4.77,0,0,0-.61-.66,2.48,2.48,0,0,0-.48-.17s0,0,0,0l-.33,0L85,26h0l.09-.3v0a1.71,1.71,0,0,0,0-.32,1.55,1.55,0,0,0,0-.23.43.43,0,0,1,0-.07l0-.08,0,0c-.13-.18-.43-.56-.49-.62l0,0,0,0a4.25,4.25,0,0,0,.51-.81c.07-.14.12-.28.18-.43a5.47,5.47,0,0,0,.15-.58c0-.09,0-.18,0-.27v0a1.18,1.18,0,0,0,.18-.13,2.47,2.47,0,0,0,.65-.8l0-.08,0,.07a2.25,2.25,0,0,1-.77.7l0,0a.2.2,0,0,1-.08,0l-.18.09c0,.09,0,.17-.05.26l-.09.36-.11.3a5.11,5.11,0,0,1-.22.48,3.84,3.84,0,0,1-.32.5l-.09.11a3.71,3.71,0,0,1-.83.75,3.25,3.25,0,0,1-.52.28l-.16.06a1.5,1.5,0,0,1-.44.56A1,1,0,0,0,82,26a2.41,2.41,0,0,0-.29.68,9.56,9.56,0,0,0-.26,1.18c0,.07,0,.36,0,.43s.21.75.21.82v0a2.17,2.17,0,0,1,.7.89,2.34,2.34,0,0,1,.18.64H81.36a2.73,2.73,0,0,0-.15-.56,2.7,2.7,0,0,0-.48-.84l-.14-.16a.2.2,0,0,1,0-.11v0a2.75,2.75,0,0,1,.19-.71.9.9,0,0,0,.08-.23c0-.07.11-1.47.11-1.52a5.5,5.5,0,0,0-.46-1,1.79,1.79,0,0,1,.22-.25,1,1,0,0,0,.38-.55c0-.06.07-.07.07-.14a.07.07,0,0,0,0-.06,1.48,1.48,0,0,1-.93.3,1.41,1.41,0,0,0,.5-1.4s0,0,0-.06"/><path id="Caminho_67" data-name="Caminho 67" class="cls-1" d="M0,30.47v-17H8.71V16.3H3.18v3.92H7.4V23.1H3.18v4.49H8.94v2.88Z"/><path id="Caminho_68" data-name="Caminho 68" class="cls-1" d="M17.18,18.17a4.34,4.34,0,0,0-.95-1.75,1.93,1.93,0,0,0-1.38-.55,1.69,1.69,0,0,0-1.31.5,2,2,0,0,0-.45,1.37,1.51,1.51,0,0,0,.53,1.12,8.12,8.12,0,0,0,1.32.94l1.7.95a9.68,9.68,0,0,1,1.71,1.19,6.23,6.23,0,0,1,1.31,1.63,4.49,4.49,0,0,1,.53,2.27,5.1,5.1,0,0,1-.35,2,4.16,4.16,0,0,1-1,1.54,4.69,4.69,0,0,1-1.67,1,6.81,6.81,0,0,1-2.24.34,5.22,5.22,0,0,1-3.37-1.13,6.62,6.62,0,0,1-2.07-3.66l3.14-.69a5,5,0,0,0,.4,1.31,3.5,3.5,0,0,0,.61.87,2.34,2.34,0,0,0,.73.47,2,2,0,0,0,.73.14,2,2,0,0,0,1.43-3.41,6.24,6.24,0,0,0-1.32-1.08c-.52-.33-1.09-.66-1.7-1a10,10,0,0,1-1.71-1.11A6,6,0,0,1,10.45,20a3.64,3.64,0,0,1-.53-2,4.76,4.76,0,0,1,1.26-3.5,5,5,0,0,1,3.74-1.27,5.71,5.71,0,0,1,1.92.3,5,5,0,0,1,1.5.87,4.84,4.84,0,0,1,1.07,1.31A6,6,0,0,1,20,17.32Z"/><path id="Caminho_69" data-name="Caminho 69" class="cls-1" d="M31.26,13.42V16.3H27.55V30.47H24.37V16.3H20.66V13.42Z"/><path id="Caminho_70" data-name="Caminho 70" class="cls-1" d="M29.19,30.47l4.12-17h4.08l4,17h-3l-.81-3.59h-4.4l-.9,3.59ZM33.73,24h3.16l-1.55-6.9h-.05Z"/><path id="Caminho_71" data-name="Caminho 71" class="cls-1" d="M42.07,13.42H46.5a8.61,8.61,0,0,1,2.42.32,4.39,4.39,0,0,1,1.8,1,4.6,4.6,0,0,1,1.14,1.83,9,9,0,0,1,.45,2.72v5.25a9,9,0,0,1-.45,2.73,4.67,4.67,0,0,1-1.14,1.83,4.37,4.37,0,0,1-1.8,1,8.26,8.26,0,0,1-2.42.32H42.07Zm3.18,14.17h1.11a2.7,2.7,0,0,0,2-.74,3.76,3.76,0,0,0,.73-2.66V19.7a4.24,4.24,0,0,0-.63-2.61,2.63,2.63,0,0,0-2.14-.79h-1.1Z"/><path id="Caminho_72" data-name="Caminho 72" class="cls-1" d="M52.26,30.47l4.13-17h4.08l4,17h-3l-.81-3.59h-4.4l-.9,3.59ZM62.59,9.29a6.82,6.82,0,0,1-.3,1.07,3.42,3.42,0,0,1-.47.91,2,2,0,0,1-.73.64,2.16,2.16,0,0,1-1.06.23,3.13,3.13,0,0,1-.91-.13c-.3-.08-.59-.18-.86-.28s-.55-.2-.82-.28a2.44,2.44,0,0,0-.8-.13.91.91,0,0,0-.69.29,1.53,1.53,0,0,0-.34.7H54.15a6.05,6.05,0,0,1,.29-1.09A3.35,3.35,0,0,1,55,10.3a2.35,2.35,0,0,1,.77-.63,2.23,2.23,0,0,1,1.07-.24,3.09,3.09,0,0,1,.91.14l.87.3.78.29a1.81,1.81,0,0,0,.65.15,1,1,0,0,0,.7-.3,1.52,1.52,0,0,0,.38-.72ZM56.8,24H60l-1.54-6.89h-.05Z"/><path id="Caminho_73" data-name="Caminho 73" class="cls-1" d="M64.53,18.9a8,8,0,0,1,.39-2.67A4.49,4.49,0,0,1,66,14.47a4,4,0,0,1,1.66-1,7.46,7.46,0,0,1,4.24,0,4.18,4.18,0,0,1,1.66,1,4.59,4.59,0,0,1,1.08,1.76A8,8,0,0,1,75,18.9V25a8,8,0,0,1-.39,2.67,4.51,4.51,0,0,1-1.08,1.76,4.18,4.18,0,0,1-1.66,1,7.46,7.46,0,0,1-4.24,0,4,4,0,0,1-1.66-1,4.42,4.42,0,0,1-1.09-1.76A8,8,0,0,1,64.53,25Zm3.18,6.52a2.58,2.58,0,0,0,.55,1.91,2.6,2.6,0,0,0,3,0,2.53,2.53,0,0,0,.55-1.91V18.48a2.54,2.54,0,0,0-.55-1.92,2.6,2.6,0,0,0-3,0,2.59,2.59,0,0,0-.55,1.92Z"/></g></svg>