<svg id="Camada_1" data-name="Camada 1" xmlns="http://www.w3.org/2000/svg" viewBox="0 0 90 40"><defs><style>.cls-1{fill:#fff;}</style></defs><path class="cls-1" d="M13.37,27.07v-.25c2.42,0,3.86-1.45,6.84-5.79l-4.15-6.12c-.72-1.07-1.13-1.49-2.34-1.49v-.25h8.92v.25c-1,0-1.19.4-1.19.9a2.25,2.25,0,0,0,.45,1.16l2,3c1.31-1.92,2.21-3.31,2.21-4.15,0-.65-.5-.9-1.34-.9v-.25h5.11v.25c-1.8,0-2.79,1-5.8,5.33l4.32,6.46a3,3,0,0,0,2.44,1.61v.24H22.28v-.24c.78,0,1.06-.29,1.06-.77a2.64,2.64,0,0,0-.57-1.22l-2.39-3.51c-1.71,2.51-2.18,3.32-2.18,4s.66,1.47,1.8,1.47v.24Zm64.8-8.24c.13-4,.9-5.13,1.8-5.13s1.8.9,1.8,5.13ZM73,19.91c0,5.85,6,8.79,11.26,6.22L84.12,26c-3.42,1.14-5.82-1.38-5.82-6.07v-.62h8.36c0-4.1-2.36-6.61-6.45-6.61A7.27,7.27,0,0,0,73,19.91ZM48.34,14.67v-.24l6.39-1.5v2.21c1.41-1.05,2.92-2.2,4.5-2.2a3.07,3.07,0,0,1,3.27,2.3c1.45-1.06,3-2.3,4.68-2.3,2.21,0,3.46,1.32,3.45,3.81v8.44c0,1.16.25,1.38,1.07,1.38v.24H64.8v-.24c.74,0,1-.36,1-1.22V16c0-1.68-1.72-1.45-3.18-.39a6.59,6.59,0,0,1,.09,1.09v8.45c0,1.16.24,1.38,1.07,1.38v.24h-7v-.24c.75,0,1-.35,1-1.22V16c0-1.66-1.67-1.46-3.12-.43v10c0,.76.47,1,1.07,1v.24H48.36v-.24c1,0,1.5-.72,1.5-1.8V16.24A1.67,1.67,0,0,0,48.34,14.67Zm-11.83,9a3.87,3.87,0,0,1,3.32-4.06v4.23a1.7,1.7,0,0,1-1.69,1.68A1.61,1.61,0,0,1,36.48,24a2.53,2.53,0,0,1,0-.28Zm-4.88.5c0,2.53,2.45,3.15,3.6,3.15A5.22,5.22,0,0,0,40,24.57c.25,1.88,1.36,2.75,3.49,2.75a4,4,0,0,0,3.82-2.18L47.11,25c-1,.9-2.32.21-2.32-1.55V17c0-3.26-4.18-4.94-8-3.6v.22c2.14,0,3.07,1.45,3.07,4v1.66C33.73,20,31.63,21.62,31.63,24.17ZM5.4,18.83c.12-4,.9-5.13,1.8-5.13S9,14.6,9,18.83ZM0,20.13c0,6.3,7.2,9.34,12.67,5.46l-.16-.19c-4.2,2.44-7.25,0-7.25-5.31v-.63h8.36c0-4.07-2.36-6.57-6.46-6.57A7.26,7.26,0,0,0,0,20.13Zm35-2.06a2,2,0,0,0,2.06-2h0V16A2.07,2.07,0,1,0,35,18.07Zm53,9.25a2,2,0,0,0,2.06-2h0v-.07a2.06,2.06,0,1,0-2.07,2.05Z"/></svg>