<svg id="Camada_1" data-name="Camada 1" xmlns="http://www.w3.org/2000/svg" viewBox="0 0 100 40"><defs><style>.cls-1{fill:#fff;}</style></defs><path class="cls-1" d="M14.86,27.86v-.28c2.69,0,4.29-1.61,7.6-6.43l-4.62-6.8c-.8-1.19-1.25-1.66-2.6-1.66v-.27h9.92v.27c-1.13,0-1.33.45-1.33,1a2.56,2.56,0,0,0,.5,1.29l2.21,3.31C28,16.16,29,14.62,29,13.68c0-.72-.55-1-1.49-1v-.27h5.68v.27c-2,0-3.1,1.13-6.45,5.93l4.81,7.17a3.3,3.3,0,0,0,2.71,1.79v.27h-9.5v-.27c.86,0,1.17-.32,1.17-.85a2.87,2.87,0,0,0-.63-1.36l-2.65-3.9c-1.9,2.79-2.43,3.69-2.43,4.48,0,.95.74,1.63,2,1.63v.27Zm72-9.15c.14-4.5,1-5.71,2-5.71s2,1,2,5.71ZM81.14,19.9c0,6.5,6.71,9.77,12.52,6.92l-.19-.18C89.67,27.91,87,25.11,87,19.89V19.2h9.29c0-4.55-2.62-7.34-7.17-7.34A8.09,8.09,0,0,0,81.14,19.9ZM53.71,14.08v-.26l7.1-1.67V14.6c1.57-1.16,3.25-2.44,5-2.44a3.41,3.41,0,0,1,3.63,2.56c1.62-1.18,3.35-2.56,5.2-2.56,2.46,0,3.85,1.47,3.84,4.23v9.38c0,1.29.28,1.53,1.19,1.53v.27H72V27.3c.82,0,1.13-.39,1.13-1.35V15.6c0-1.86-1.91-1.61-3.53-.43a7.06,7.06,0,0,1,.1,1.21v9.39c0,1.29.27,1.54,1.19,1.54v.26H63.15v-.26c.83,0,1.13-.39,1.13-1.36V15.6c0-1.84-1.86-1.62-3.47-.47V26.22c0,.84.52,1.09,1.19,1.09v.26H53.73v-.26c1.12,0,1.67-.81,1.67-2V15.83A1.86,1.86,0,0,0,53.71,14.08Zm-13.14,10a4.29,4.29,0,0,1,3.69-4.51l0,4.7a1.9,1.9,0,0,1-1.88,1.87,1.8,1.8,0,0,1-1.83-2.06Zm-5.43.56c0,2.81,2.73,3.5,4,3.5a5.79,5.79,0,0,0,5.29-3.06c.28,2.09,1.52,3.06,3.88,3.06a4.42,4.42,0,0,0,4.25-2.42l-.21-.13c-1.13,1-2.58.24-2.58-1.72v-7.2c0-3.62-4.65-5.49-8.88-4l0,.25c2.38,0,3.41,1.61,3.41,4.41v1.84C37.48,20,35.14,21.8,35.14,24.64ZM6,18.71C6.13,14.21,7,13,8,13s2,1,2,5.71ZM0,20.15c0,7,8,10.38,14.08,6.07L13.9,26c-4.67,2.72-8.06,0-8.06-5.9v-.69h9.29c0-4.53-2.62-7.31-7.17-7.31A8.08,8.08,0,0,0,0,20.15Zm38.86-2.29a2.24,2.24,0,0,0,2.28-2.2v-.08a2.29,2.29,0,1,0-2.28,2.28ZM97.71,28.14a2.24,2.24,0,0,0,2.29-2.2v-.08a2.29,2.29,0,1,0-2.29,2.28Z"/></svg>