<svg id="Camada_1" data-name="Camada 1" xmlns="http://www.w3.org/2000/svg" viewBox="0 0 120 40"><defs><style>.cls-1{fill:#fff;}</style></defs><path class="cls-1" d="M17.2,9.56l-1.46,1.37L14.61,12c-.24.24-.93.89-1.52,1.44l-1.07,1h1.13c.92,0,1.14,0,1.15.07a8.15,8.15,0,0,1-1,1.58l-.39.59-.08.14.25.28a7.21,7.21,0,0,1,.74,1.07l.18.34H16c2.55,0,4.48-.05,5.15-.1a23.92,23.92,0,0,0,5.37-1.14,1.58,1.58,0,0,1,.39-.09,19.54,19.54,0,0,1,0,2.42c-.06,0-1.81.56-2.7.8a28.13,28.13,0,0,1-6.87.85c-1,0-1.88.05-1.9.07s0,.12.06.25A15.75,15.75,0,0,1,16.16,24l.06.26.23,0,.54-.06.75-.09,3.59-.41a35.44,35.44,0,0,0,3.51-.63,12.49,12.49,0,0,0,1.21-.38c.38-.14.72-.26.76-.26s.07.16.08,1.24,0,1.25-.07,1.29-2.71.7-3.67.89c-.5.1-1.19.22-1.55.26-2.29.24-4.58.57-5.62.81a38,38,0,0,0-5.54,1.68s-.35.16-.68.29l-1,.49-.47.23H5a26.19,26.19,0,0,1-3.27-.06,15.44,15.44,0,0,1,2.84-1.9l.64-.34a28.83,28.83,0,0,1,5.65-2.08,17.56,17.56,0,0,1,3.47-.58c.12,0,.25,0,.26-.05a5.81,5.81,0,0,0-.14-1.25,14.62,14.62,0,0,0-1-3,18.79,18.79,0,0,0-1.3-2.28s-.43.63-.92,1.4c-2.94,4.61-3.66,5.72-3.7,5.73a.37.37,0,0,1-.19-.05l-.59-.28L6,24.57l-1.44-.68-.72-.33-1.54-.73-.54-.24a.55.55,0,0,1-.16-.09l-.11-.09v-2.6a23.21,23.21,0,0,1,.05-2.64s.18,0,.53.23L4.82,19c.6.36,1.17.69,1.27.76l.2.1.46-.44,1.36-1.32C9.89,16.4,11.38,15,11.57,14.8a.69.69,0,0,0,.19-.21s-2.37,0-5.56,0H.64l-.21.13A1,1,0,0,0,.12,15l-.1.22,0,7.5c0,6.78,0,7.52.07,7.74a.84.84,0,0,0,.64.63c.33.07,26.54.07,26.86,0a.87.87,0,0,0,.65-.63c.07-.22.07-1,.06-7.74v-7.5L28.16,15a.81.81,0,0,0-.31-.35l-.21-.13H21c-4.22,0-6.62,0-6.64-.05s.41-.71.95-1.53l1.28-2c.16-.26.47-.74.68-1.05A9.57,9.57,0,0,0,18,8.83S17.63,9.15,17.2,9.56Zm9.69,19.18a2.59,2.59,0,0,1,0,.84,21.58,21.58,0,0,1-3.18.06c-1.72,0-3.19,0-3.28,0-.29-.05-.29-.05,2.31-.62,1.34-.3,2.13-.5,3.35-.85a5.32,5.32,0,0,1,.76-.19C26.87,28,26.88,28.08,26.89,28.74Z"/><path class="cls-1" d="M75.73,16.69a6.91,6.91,0,0,0-3.27,1.87,6.52,6.52,0,0,0-1,7.76,6.24,6.24,0,0,0,1.12,1.51,8.29,8.29,0,0,0,3.88,1.68,8.92,8.92,0,0,0,3.46-.2l1.32-.21.51-1.32a11.12,11.12,0,0,0,.51-1.58c0-.18-.34-.44-.59-.44a3.47,3.47,0,0,0-.48.73,4,4,0,0,1-4.27,2.19c-2.5-.51-4-2.65-4-5.8a4.58,4.58,0,0,1,.46-2.63,4.48,4.48,0,0,1,4.34-3A3,3,0,0,1,80.75,19c.34.64.59,1,.81,1s.31-.14.29-.82a8.23,8.23,0,0,0-.2-1.56c-.2-.74-.2-.74-1.22-1A13,13,0,0,0,75.73,16.69Z"/><path class="cls-1" d="M36.12,16.93c-.1.27.25.52.76.52a.73.73,0,0,1,.56.33c.27.5.24,10.27,0,10.49a2.83,2.83,0,0,1-.77.29c-.39.09-.56.2-.56.44s.16.32,2.63.32,2.63,0,2.63-.32-.19-.34-.71-.46A1.15,1.15,0,0,1,39.7,28a15.12,15.12,0,0,1-.12-4.31c.08-.22.37-.27,1.34-.27,1.63,0,2,.15,2.34,1,.18.49.35.68.57.65s.31-.26.31-2,0-1.93-.29-2-.37.13-.54.54c-.32.78-.7.95-2.12.95-1.82,0-1.71.14-1.71-2.46,0-1.78.05-2.29.25-2.46a4,4,0,0,1,1.76-.15c1.75.09,2.07.27,2.41,1.44.19.6.31.75.61.75s.38,0,.27-1.41c-.05-.76-.11-1.41-.13-1.44s-1.94-.07-4.24-.09C37,16.69,36.19,16.74,36.12,16.93Z"/><path class="cls-1" d="M61.79,20.78c-.17,1.27-.13,2,.12,1.9a3.61,3.61,0,0,0,.83-1.38A2.85,2.85,0,0,1,64.69,21c.17.15.22.95.22,3.65,0,3.24,0,3.47-.34,3.8a1.17,1.17,0,0,1-.68.33.31.31,0,0,0-.33.26c0,.22.28.25,2,.22,1.39,0,2-.12,2-.27s-.08-.21-.3-.21a2.1,2.1,0,0,1-.7-.16c-.3-.17-.32-.39-.32-3.92,0-4.16,0-4,1.22-3.77.64.12.76.22,1.07.85.18.39.46.71.59.73s.26-.19.21-1.15c-.07-1.22-.24-1.6-.58-1.26a27.74,27.74,0,0,1-6.5,0C62.06,19.81,61.91,20,61.79,20.78Z"/><path class="cls-1" d="M47.84,20.37c-.28.39-.5.9-1.94,4.63-1.12,2.85-1.68,3.85-2.15,3.78a.31.31,0,0,0-.34.24c0,.27.1.3,1.58.3s1.63,0,1.57-.28a.4.4,0,0,0-.39-.31c-.49,0-.52-.9-.1-1.87l.34-.78,1.32.06,1.33.05.39,1.1c.35,1,.37,1.1.1,1.3a2.09,2.09,0,0,1-.48.28c-.13.05-.13.13,0,.27a7.79,7.79,0,0,0,3.41-.07c0-.1-.2-.27-.52-.39-.51-.19-.65-.37-1-1.36-.68-1.83-1.56-4.27-2-5.46C48.38,20.13,48.19,19.9,47.84,20.37Zm.44,3.51c.51,1.54.51,1.54-.58,1.54s-1.08-.05-.66-1.3C47.7,22.18,47.7,22.18,48.28,23.88Z"/><path class="cls-1" d="M56.13,20.42a4.31,4.31,0,0,0-3,2.37A5.49,5.49,0,0,0,53,27c1,2,3.33,2.85,6.16,2.29l.93-.19.39-1c.32-.85.34-1,.14-1.17-.36-.22-.38-.2-.8.55-1.09,1.89-3.7,1.78-5-.24A4.75,4.75,0,0,1,54.28,24a3.7,3.7,0,0,1,1.64-2.8,2.25,2.25,0,0,1,1.73-.34c1.28.07,1.65.3,2.19,1.36s.93.67.63-.78c-.2-1.07-.24-1.09-2.17-1.21A6.59,6.59,0,0,0,56.13,20.42Z"/><path class="cls-1" d="M106,20.34a4.65,4.65,0,0,0-3.78,4.57,4.58,4.58,0,0,0,4.9,4.58c1.24,0,2.54-.32,2.73-.66a5.62,5.62,0,0,0,.58-1.91c-.17-.28-.6-.14-.73.25a4.47,4.47,0,0,1-.85,1,1.82,1.82,0,0,1-1.63.62c-2,0-3.39-1.66-3.39-4.15,0-2.29,1.36-3.82,3.32-3.82A2.13,2.13,0,0,1,109.34,22c.66,1.12,1,.85.76-.63-.08-.59-.2-.78-.54-.91A10.19,10.19,0,0,0,106,20.34Z"/><path class="cls-1" d="M83.4,20.57c0,.12.18.29.42.34a1,1,0,0,1,.59.55A20.57,20.57,0,0,1,84.58,25c0,3.3-.12,3.84-.86,3.84a.3.3,0,0,0-.32.26c0,.2.3.25,1.78.25S87,29.27,87,29.07a.26.26,0,0,0-.26-.26,1.19,1.19,0,0,1-.59-.33c-.29-.29-.34-.56-.34-1.75a3.73,3.73,0,0,1,.2-1.61c.31-.31,4-.27,4.16,0A7.28,7.28,0,0,1,90.18,27l-.09,1.58-.56.17c-1,.29-.47.51,1.38.56,1.47,0,1.81,0,1.81-.2s-.18-.29-.42-.34a.92.92,0,0,1-.59-.55,34.4,34.4,0,0,1,0-6.73,1.31,1.31,0,0,1,.69-.61c1-.32.39-.52-1.45-.52-1.58,0-1.79,0-1.73.28a.45.45,0,0,0,.37.33c.63.08.68.32.63,2.47l0,.82H85.94l-.1-.43a5.85,5.85,0,0,1,.22-2.64.89.89,0,0,1,.49-.22c.19,0,.32-.16.32-.29s-.37-.26-1.73-.29S83.4,20.37,83.4,20.57Z"/><path class="cls-1" d="M94.25,20.59a.29.29,0,0,0,.32.25c.75,0,.87.53.87,4.11,0,3.25,0,3.34-.38,3.59a1.34,1.34,0,0,1-.69.27c-.19,0-.29.09-.24.21s.86.22,3.34.22h3.29l.22-.85a7.14,7.14,0,0,0,.22-1.15c0-.53-.49-.31-.85.39a2.75,2.75,0,0,1-.66.85,5,5,0,0,1-2.69,0,3.94,3.94,0,0,1-.21-1.78V25.08h1c1,0,1,0,1.32.51.16.27.38.48.46.46a5.46,5.46,0,0,0,0-2.78c-.12,0-.27.17-.37.44-.2.58-.64.75-1.66.66l-.66-.05V20.93l1.18,0c1,0,1.23.11,1.48.43a2.49,2.49,0,0,1,.34.73c0,.18.17.34.3.34s.26-.22.26-1v-1l-3.09-.05C94.67,20.34,94.25,20.37,94.25,20.59Z"/><path class="cls-1" d="M111.49,20.44c-.22.22-.11.37.34.49a1.15,1.15,0,0,1,.6.3,28.76,28.76,0,0,1,.13,3.63c0,2.89,0,3.46-.27,3.68a.78.78,0,0,1-.51.27.25.25,0,0,0-.23.26c0,.2.3.25,1.76.25a6.13,6.13,0,0,0,1.86-.15c.07-.08-.18-.3-.52-.47l-.65-.31,0-1.66c0-1.27,0-1.66.17-1.61a21.68,21.68,0,0,1,1.92,2.1l1.71,2,1.15.05c1,.05,1.14,0,1.09-.25a.48.48,0,0,0-.39-.36,2.09,2.09,0,0,1-.81-.51,38,38,0,0,1-3.34-3.88,13.29,13.29,0,0,1,1.57-1.7c1.22-1.22,1.72-1.58,2.21-1.66,1.15-.22.61-.51-1.07-.56s-2.19.12-1.54.46a.64.64,0,0,1,.35.44,13.45,13.45,0,0,1-2.81,3c-.21,0-.24-.29-.21-1.5l0-1.47.55-.26c.3-.13.52-.33.49-.42A11.57,11.57,0,0,0,111.49,20.44Z"/></svg>