<svg id="Camada_1" data-name="Camada 1" xmlns="http://www.w3.org/2000/svg" viewBox="0 0 100 40"><defs><style>.cls-1{fill:#fff;}</style></defs><path class="cls-1" d="M69.41,4.75c-.92.51-.88,2.75,0,3.27a3.18,3.18,0,0,0,3.45-.3c.78-.84.78-1.5,0-2.57C72.35,4.27,70.55,4.05,69.41,4.75Z"/><path class="cls-1" d="M2.39,6.14.18,6.36.07,15.3,0,24.23l1.91-.11,2-.11L4,21.18l.11-2.83,1.73-.22c2.72-.37,4-.88,4.85-1.91,2.35-3,1.66-7.91-1.4-9.45C8,6.14,5.18,5.89,2.39,6.14ZM7,9.86c.55.29.7.77.7,2.2,0,2,0,2.1-2.13,2.43L4,14.75V9.49H5.18A5.08,5.08,0,0,1,7,9.86Z"/><path class="cls-1" d="M16.73,10.37c-2.94,1.29-4.74,5.48-3.86,9,1.06,4.34,6.36,6.32,11.32,4.26.92-.4,1.18-.73,1.18-1.54,0-1.77-.41-2-2.25-1.62-3.52.85-6.21.19-6.21-1.47,0-.66.3-.7,4.23-.7h4.23l0-1.21c.19-3.57-.47-5.37-2.35-6.51A8.73,8.73,0,0,0,16.73,10.37Zm4.37,3.38A2,2,0,0,1,21.69,15c0,.63-.26.7-2.39.7s-2.39-.11-2.39-.63C16.91,13.42,19.85,12.47,21.1,13.75Z"/><path class="cls-1" d="M29.6,10.37A4.06,4.06,0,0,0,27,13.86c-.19,1.36-.07,1.62,1.06,2.72a10.74,10.74,0,0,0,3.17,1.84c2,.74,2.86,1.47,2.42,2.14-.18.29-1.14.36-3.31.22l-3.08-.22V22c0,1.43,0,1.43,1.91,2a6.86,6.86,0,0,0,4.81.15,5,5,0,0,0,3.83-3.86,2.6,2.6,0,0,0-.85-2.65,11.07,11.07,0,0,0-3.27-2c-1.73-.66-2.24-1-2.32-1.73s-.14-.84,2.83-.62l3,.22V12.1c0-1.29-.11-1.43-1.43-1.8A10.39,10.39,0,0,0,29.6,10.37Z"/><path class="cls-1" d="M42.83,10.37A7.52,7.52,0,0,0,39.38,14a13.13,13.13,0,0,0,.33,7.54,3.89,3.89,0,0,0,2.46,2.35c1.73.77,3.12.7,5.37-.26.55-.22.62,0,.62,2.54V29l2-.11L52,28.79l.11-8.93.08-8.9-1-.44C49.56,9.86,44.12,9.75,42.83,10.37Zm5.33,6.44c0,3.08,0,3.27-.81,3.49-2.9.77-4.34-.22-4.34-3,0-3.05.56-3.68,3.61-3.75l1.54,0Z"/><path class="cls-1" d="M54.3,10.11c-.4.37-.29,9.71.11,11.18a3.8,3.8,0,0,0,4.16,3.05,7.91,7.91,0,0,0,3-.62c1.06-.55,1.21-.55,1.65,0s1,.52,1.95.44L66.73,24V10l-1.91-.11-1.95-.11V20.15H60.92a4.71,4.71,0,0,1-2.39-.44c-.29-.29-.44-2-.44-5.15V9.86H56.32A5.09,5.09,0,0,0,54.3,10.11Z"/><path class="cls-1" d="M69.12,17v7.2l1.95-.11L73,24V10l-1.91-.11-1.95-.11Z"/><path class="cls-1" d="M77.72,10.37A4.45,4.45,0,0,0,75,14.12c0,1.69,1.51,3.2,4.23,4.3,1.73.66,2.24,1,2.31,1.73.15.85.15.85-3,.63l-3.16-.22V22c0,1.43,0,1.47,2.06,2.06,3.78,1.1,7.2-.15,8.19-3,.81-2.31.15-3.31-3.45-5.11-4-2-3.93-2.61.11-2.5l3,.08V12.1c0-1.29-.11-1.43-1.43-1.8A10.8,10.8,0,0,0,77.72,10.37Z"/><path class="cls-1" d="M89,10.26c-1.14.33-1.21.44-1.1,1.91l.11,1.55,2.87-.11c3-.15,3.93.18,3.93,1.39,0,.52-.44.67-2.42.85-3.05.29-4.56,1.14-5.26,2.94a4.4,4.4,0,0,0,1.32,5,6.79,6.79,0,0,0,5.44.08c1-.52,1.22-.48,2.47.11a5.09,5.09,0,0,0,2.39.55c.92-.11,1-.26,1.14-1.69.07-1.22,0-1.55-.44-1.55s-.59-.62-.59-3.86c0-4.74-.52-6.21-2.36-7C95.11,9.78,91,9.71,89,10.26Zm5.81,9.27c0,.95-1.25,1.72-2.75,1.72A1,1,0,0,1,91,20.37c-.34-1.36.07-1.69,2.09-1.69C94.71,18.68,94.85,18.75,94.85,19.53Z"/><path class="cls-1" d="M59.19,32.1c0,3.23,0,3.49.74,3.49s.73-.26.73-1.25c0-1.17.11-1.28,1.18-1.39q1.21-.12,1.32-.78c.11-.51-.15-.62-1.17-.62s-1.33-.15-1.33-.74.26-.73,1.29-.73,1.29-.15,1.29-.74-.26-.73-2-.73h-2Z"/><path class="cls-1" d="M66,29a41.14,41.14,0,0,0-2,6.14c0,.78,1.36.56,1.58-.25.26-1,2.32-1,2.57,0,.15.62,1.73,1.14,1.73.55,0-.15-.51-1.69-1.14-3.49-.88-2.54-1.32-3.31-1.83-3.31A1.19,1.19,0,0,0,66,29Zm1.29,3.35a.34.34,0,0,1-.37.33c-.18,0-.37-.26-.37-.59s.19-.44.37-.33A.71.71,0,0,1,67.28,32.32Z"/><path class="cls-1" d="M71.43,28.86C71.1,29,71,30,71,32.36c0,3.2,0,3.27.84,3.16.55-.07.85-.41.92-1.1s.37-1,1.21-1.22c2-.44,2.32-3.56.45-4.26A4.3,4.3,0,0,0,71.43,28.86ZM73.9,31c0,.58-.22.92-.55.92s-.56-.34-.56-.92.22-.92.56-.92S73.9,30.41,73.9,31Z"/><path class="cls-1" d="M76.84,32.1v3.49h2c1.76,0,2-.07,2-.73s-.26-.74-1.28-.74-1.29-.15-1.29-.73.26-.74,1.32-.74,1.29-.11,1.18-.66-.52-.66-1.32-.74c-1.7-.18-1.59-1.17.11-1.17,1,0,1.28-.15,1.28-.74s-.26-.73-2-.73h-2Z"/><path class="cls-1" d="M83,29c-.44.22-.66.81-.66,1.66,0,1.06.19,1.36,1.29,1.87,1.69.81,1.69,1.58,0,1.58-1,0-1.28.11-1.17.63a1.17,1.17,0,0,0,1,.77c3.23.48,4.48-2.65,1.62-4.05a2.17,2.17,0,0,1-1.14-1c-.15-.4.11-.48,1.17-.29s1.33.11,1.33-.48C86.4,28.64,84.34,28.2,83,29Z"/><path class="cls-1" d="M88.49,28.86c-.59.15-.62.56-.55,3.35.11,3,.15,3.2,1,3.31s.81,0,.81-1,.18-1.14.66-1.14a3,3,0,0,0,1.47-.59c1-.66,1.14-2.72.29-3.42A5.42,5.42,0,0,0,88.49,28.86ZM91,30.67c.29.73,0,1.25-.74,1.25-.29,0-.51-.37-.51-.92C89.71,30,90.59,29.75,91,30.67Z"/><path class="cls-1" d="M97.61,33.39l-2.17,2.2H100v-2.2a10.41,10.41,0,0,0-.11-2.21S98.82,32.17,97.61,33.39Z"/></svg>