<svg id="Camada_1" data-name="Camada 1" xmlns="http://www.w3.org/2000/svg" viewBox="0 0 100 40"><defs><style>.cls-1{fill:#fff;}</style></defs><title>marca-fato-ou-fake-final-02png_295x165</title><path class="cls-1" d="M43.23,15a34,34,0,0,0-3,3.91c-1,1.77-1.3,1.82-2.66.1-1-1.3-2.13-1.3-2.13,0,0,.68,3.54,4.84,3.8,4.48.1-.11,1.25-2,2.6-4.12a32.42,32.42,0,0,1,3.44-4.89A3.36,3.36,0,0,0,46.35,13C46.35,12,45.26,12.69,43.23,15Z"/><path class="cls-1" d="M36.15,14.82c-3.7,1.67-5.21,5.42-3.6,8.86C35.57,30,45.31,28,45.31,21a8.55,8.55,0,0,0-.52-3.23c-.47-.68-.62-.62-1.3.21a5.81,5.81,0,0,0-.78,2.92c0,3.64-4.22,5.57-6.67,3-1.3-1.35-1.66-5-.68-6.3.47-.57,1.57-.83,3.29-.83s2.6-.21,2.86-.78a1.27,1.27,0,0,0,0-1.1C40.89,14.15,37.6,14.15,36.15,14.82Z"/><path class="cls-1" d="M67.45,14.56c-.16.32-1.41,3.23-2.81,6.51-2.56,6.05-2.56,6.05-1.31,6.05,1.83,0,4.07-5.06,3.65-8.23l-.31-2.19h4.06l-.26,2a10.42,10.42,0,0,0,.94,5.21c1.09,2.81,1.4,3.18,2.65,3.18h1.41l-1.62-3.81c-3.69-8.75-3.95-9.22-5-9.22A1.91,1.91,0,0,0,67.45,14.56Z"/><path class="cls-1" d="M0,20.87v6.25H1.3c1.2,0,1.3-.21,1.3-2.35V22.43H5.73c3,0,3.12-.05,3.12-1.3s-.15-1.31-3.12-1.31H2.6V16.7H6.25c3.28,0,3.65-.11,3.65-1s-.37-1-4.95-1H0Z"/><path class="cls-1" d="M13.39,16.54c-.42,1.1-1.62,3.91-2.66,6.25L8.91,27.12h1.3a2,2,0,0,0,1.87-1.31c.52-1.14.89-1.3,3.6-1.3s3.07.11,3.38,1.3c.26,1,.68,1.31,1.77,1.31h1.46l-2.65-6.25c-2.45-5.73-2.82-6.25-4.07-6.25S14,15,13.39,16.54Zm3.07,3c1,2.4,1,2.35-1,2.35H13.65l.78-2.09a8.25,8.25,0,0,1,1-2.08A6.48,6.48,0,0,1,16.46,19.56Z"/><path class="cls-1" d="M20.83,15.66c0,.88.37,1,2.09,1H25V27.12h2.6V16.7h2.09c1.72,0,2.08-.16,2.08-1s-.36-1-5.47-1S20.83,14.67,20.83,15.66Z"/><path class="cls-1" d="M53.75,20.87v6.25H55c1.15,0,1.25-.21,1.25-2.35V22.43h3.13c3,0,3.12-.05,3.12-1.3s-.16-1.31-3.12-1.31H56.25V16.7H59.9c3.28,0,3.64-.11,3.64-1s-.36-1-4.89-1h-4.9Z"/><path class="cls-1" d="M77.08,20.87v6.25h1.31c1.14,0,1.3-.21,1.3-2s.73-3.23,1.61-3.23a10.3,10.3,0,0,1,2.29,2.6c1.57,2.08,2.19,2.61,3.44,2.61h1.51l-2.65-3.7-2.71-3.7,2.55-2.55,2.5-2.55H86.61c-1.3,0-2.08.52-4,2.6A19.61,19.61,0,0,1,80,19.82a6,6,0,0,1-.31-2.6c0-2.45-.11-2.6-1.3-2.6H77.08Z"/><path class="cls-1" d="M90.1,20.87v6.25h5c4.59,0,5-.06,5-1.05s-.36-1-3.65-1H92.71V21.91h3.12c2.76,0,3.13-.11,3.13-1s-.37-1.05-3.13-1.05H92.71V16.7h3.64c3.29,0,3.65-.11,3.65-1s-.36-1-5-1h-5Z"/><path class="cls-1" d="M67.92,20.45c.52,4.95,1.09,4.95,1.66,0,.32-3.13.32-3.23-.83-3.23S67.55,17.32,67.92,20.45Z"/><path class="cls-1" d="M67.71,26.07a1,1,0,1,0,1-1A.94.94,0,0,0,67.71,26.07Z"/></svg>