<svg id="Camada_1" data-name="Camada 1" xmlns="http://www.w3.org/2000/svg" viewBox="0 0 110 40"><defs><style>.cls-1{fill:#fff;}</style></defs><path class="cls-1" d="M47.51,14.48a36.06,36.06,0,0,0-3.3,4.3c-1.1,1.94-1.43,2-2.92.11-1.1-1.43-2.34-1.43-2.34,0,0,.75,3.89,5.32,4.17,4.92.11-.12,1.37-2.2,2.86-4.53a35.81,35.81,0,0,1,3.78-5.37,3.62,3.62,0,0,0,1.17-1.63C50.93,11.19,49.74,11.94,47.51,14.48Z"/><path class="cls-1" d="M39.73,14.28c-4.07,1.84-5.73,6-4,9.74,3.32,7,14,4.75,14-2.94a9.32,9.32,0,0,0-.57-3.55c-.52-.75-.68-.68-1.43.23A6.43,6.43,0,0,0,46.93,21c0,4-4.63,6.12-7.33,3.29-1.42-1.48-1.82-5.49-.74-6.92.51-.63,1.72-.91,3.61-.91s2.86-.23,3.15-.86a1.42,1.42,0,0,0,0-1.21C44.93,13.55,41.32,13.55,39.73,14.28Z"/><path class="cls-1" d="M74.12,14c-.17.35-1.55,3.55-3.09,7.15-2.81,6.65-2.81,6.65-1.44,6.65,2,0,4.48-5.56,4-9l-.34-2.41h4.47l-.29,2.2a11.49,11.49,0,0,0,1,5.72c1.2,3.09,1.54,3.5,2.91,3.5h1.55l-1.78-4.19C77.1,14,76.81,13.45,75.66,13.45A2.12,2.12,0,0,0,74.12,14Z"/><path class="cls-1" d="M0,20.93V27.8H1.43c1.32,0,1.43-.23,1.43-2.58V22.65H6.3c3.29,0,3.43-.06,3.43-1.43s-.17-1.44-3.43-1.44H2.86V16.35h4c3.6,0,4-.12,4-1.1s-.41-1.1-5.44-1.1H0Z"/><path class="cls-1" d="M14.71,16.18c-.46,1.2-1.78,4.29-2.92,6.86l-2,4.76h1.43a2.18,2.18,0,0,0,2-1.44c.58-1.25,1-1.43,4-1.43s3.37.12,3.72,1.43c.28,1.1.74,1.44,1.94,1.44h1.6l-2.91-6.87c-2.69-6.29-3.1-6.86-4.47-6.86S15.38,14.48,14.71,16.18Zm3.38,3.29c1.1,2.64,1.1,2.58-1.1,2.58H15l.86-2.29A8.63,8.63,0,0,1,17,17.47a7.43,7.43,0,0,1,1.13,2Z"/><path class="cls-1" d="M22.89,15.21c0,1,.41,1.1,2.3,1.1h2.28V27.8h2.86V16.35h2.3c1.89,0,2.28-.17,2.28-1.1s-.39-1.1-6-1.1S22.89,14.12,22.89,15.21Z"/><path class="cls-1" d="M59.07,20.93V27.8h1.37c1.26,0,1.37-.23,1.37-2.58V22.65h3.44c3.3,0,3.43-.06,3.43-1.43s-.17-1.44-3.43-1.44H61.81V16.35h4c3.61,0,4-.12,4-1.1s-.39-1.1-5.37-1.1H59.07Z"/><path class="cls-1" d="M84.7,20.93V27.8h1.44c1.26,0,1.43-.23,1.43-2.2s.8-3.55,1.77-3.55a11.47,11.47,0,0,1,2.52,2.86c1.72,2.29,2.4,2.87,3.78,2.87H97.3l-2.92-4.07-3-4.06,2.8-2.8L97,14H95.18c-1.43,0-2.29.57-4.4,2.86a21.11,21.11,0,0,1-2.87,2.88,6.62,6.62,0,0,1-.34-2.86c0-2.69-.12-2.85-1.43-2.85H84.7Z"/><path class="cls-1" d="M99,20.93V27.8h5.5c5,0,5.49-.06,5.49-1.15s-.4-1.1-4-1.1h-4.11V22.08h3.43c3,0,3.44-.12,3.44-1.1s-.41-1.16-3.44-1.16h-3.43V16.35h4c3.61,0,4-.12,4-1.1s-.4-1.1-5.49-1.1H98.9Z"/><path class="cls-1" d="M74.64,20.47c.57,5.44,1.2,5.44,1.82,0,.35-3.44.35-3.55-.91-3.55S74.23,17,74.64,20.47Z"/><path class="cls-1" d="M74.41,26.65a1.1,1.1,0,1,0,1.1-1.1,1,1,0,0,0-1.1,1A.33.33,0,0,0,74.41,26.65Z"/></svg>