<svg id="Camada_1" data-name="Camada 1" xmlns="http://www.w3.org/2000/svg" viewBox="0 0 200 200"><defs><style>.cls-1{fill:#fff;}</style></defs><title>ft</title><path class="cls-1" d="M201.58,69.6h-5.5c-.7-1.82-1.3-3.54-2-5.23-2.71-6.45-7.42-10.41-14.52-10.75-5.76-.28-11.55-.06-17.56-.06,0,.56-.09,1.28-.09,2q0,42.23,0,84.46c0,2.8.19,5.59,2,8,2.17,2.88,5.45,3,8.6,3.43,1.6.21,3.22.26,4.92.39v4H124v-3.89c2.57-.3,5.07-.52,7.55-.89,5-.73,7.32-3.17,7.78-8.18.18-2,.26-3.94.26-5.92q0-40.29,0-80.57c0-.94,0-1.88,0-3.09-3.22,0-6.19-.07-9.17,0a85.81,85.81,0,0,0-10.59.56c-6.84,1.05-10.72,5.65-13.1,11.82-1.57,4.07-1.61,4.05-5.93,3.91-.26,0-.52-.05-1-.1l2.23-24.31h97.22c.21,2.11.43,4.25.63,6.39.45,4.95.89,9.9,1.34,14.85a2.82,2.82,0,0,0,.29.74Z"/><path class="cls-1" d="M53.93,151.9v3.89H1.58v-4c1.34-.14,2.68-.34,4-.4,6.43-.3,9.25-3,9.78-9.39.05-.61,0-1.23,0-1.84q0-39.58,0-79.15c0-.07,0-.14,0-.2,0-8-3-11.07-11.08-11.3-.74,0-1.47-.1-2.34-.15V45.18H94.44l.7,24.4a22.31,22.31,0,0,1-3.88-.07c-.51-.09-1-.92-1.29-1.51-1.55-2.84-2.69-6-4.64-8.52-2.87-3.7-7.29-5-11.76-5.35-6.37-.51-12.78-.65-19.17-.84-3.61-.11-7.23,0-10.84,0-4.58,0-5.78,1.15-5.85,5.84-.09,6.75,0,13.5,0,20.25,0,4.3,0,8.59,0,12.88,0,.58.7,1.65,1.05,1.64,6.19-.15,12.41-.1,18.55-.76,6.48-.69,10-5,11.26-11.2.12-.6.26-1.2.4-1.79,0-.19.11-.38.2-.66H73.3v39H69.24c-.47-1.67-.89-3.44-1.47-5.15-1.81-5.4-5.46-9.16-11.08-10-6.15-.92-12.43-1-19-1.53,0,1.68,0,2.74,0,3.8q0,16.16,0,32.32A49,49,0,0,0,38,143c.51,4.78,3,7.35,7.78,8C48.43,151.38,51.13,151.6,53.93,151.9Z"/></svg>