<svg id="Camada_1" data-name="Camada 1" xmlns="http://www.w3.org/2000/svg" viewBox="0 0 140 40"><defs><style>.cls-1{fill:#fff;}</style></defs><path class="cls-1" d="M10.14,20.72c0,4.7,1.64,6.87,5.12,6.87,3,0,5.38-1.95,5.38-6.72S19,14,15.5,14c-3,0-5.36,1.9-5.36,6.69Zm7.31.18c0,5.18-1.06,5.91-2.14,5.91s-2-.84-2-6.13,1.06-5.87,2.13-5.87,2,.79,2,6.09Zm3.81,6.44h7.85v-4h-.63L27.4,26.46h-2V15.14l1.15-.27v-.6H21.35v.6l1.07.27V26.48l-1.16.26v.6Zm8.89-13.07v.6l1.06.29V26.48l-1.06.26v.6h5v-.6l-.95-.26V21.34h2.88v5.14l-.89.26v.6h4.94v-.6l-1.06-.26V15.14l1-.27v-.6H36.19v.6l.89.27v5.31H34.2V15.14l.95-.27v-.6ZM42,27.34h3.35v-.6L44,26.48l.73-3.13h2.79l1,3.13-1.17.26v.6h5.27v-.6l-1-.26L48,14.25H46.09L42.93,26.48l-1,.26v.6Zm3-4.89,1-4.12,1.26,4.12ZM65.65,21c0-5.14-2-6.74-5.18-6.74h-5v.6l1,.27V26.48l-1,.26v.6h5.27c2.59,0,5-1.7,5-6.33Zm-5.22,5.45h-.85V15.16h.76c1.48,0,2.3.86,2.3,5.71s-.71,5.59-2.21,5.59ZM0,12.46v.68l1.36.29V26.37L0,26.66v.68H6.47v-.68L4.7,26.37v-6H6.6l.47,2h.7V17.55h-.7L6.6,19.37H4.7V13.45H7.13l1.24,3.39h.76V12.46Z"/><path class="cls-1" d="M72.07,26.46H69.65V21.25h1.62l.4,1.75h.62V18.77h-.62l-.4,1.6H69.65V15.2h2l1.06,2.88h.69V14.32h-8v.57l1.2.27V26.48l-1.22.26v.6h8.37V23.53h-.66l-1.08,2.93Zm11.07-14.2c-2.66,0-4.76,1.7-4.78,4.38,0,4.41,5.6,4.46,5.6,8a1.81,1.81,0,0,1-1.88,1.81A4.5,4.5,0,0,1,79.84,26l-.66-2.88H78.4v4a9.22,9.22,0,0,0,3.23.49,4.86,4.86,0,0,0,5.08-4.9c0-4.78-5.52-4.47-5.52-7.73,0-.89.69-1.57,2-1.57a6.24,6.24,0,0,1,1.48.18l.74,3h.7v-4a15.15,15.15,0,0,0-2.92-.24Zm12.56,8h-.55V13.5h.59c1.13,0,1.55.62,1.55,3.37s-.57,3.41-1.59,3.41Zm.82,1c3,0,4.25-1.75,4.25-4.41,0-3.44-1.64-4.41-4.07-4.41H90.49v.69l1.36.28V26.37l-1.4.29v.68h6.38v-.68l-1.68-.29V21.3Zm6.4,1.17,1-4.14,1.26,4.14Zm-3.1,4.87h3.48v-.6L102,26.48l.73-3.12h2.77l1,3.12-1.18.26v.6h5.41v-.6l-1.11-.26-3.68-12.21h-1.86l-3.19,12.21-1.06.26v.6Zm10.34-13v.57l1.07.27v8.42c0,3,1,4.16,3.87,4.16,2.62,0,3.86-1.06,3.86-3.59v-9l1-.27v-.57h-3v.57l1.11.27V24c0,1.83-.51,2.83-2.22,2.83-1.21,0-1.61-.77-1.61-2.44V15.16l1.15-.27v-.57Zm10.77,13h7.71v-4H128L127,26.46h-1.9V15.16l1.15-.27v-.57H121v.57l1.09.27V26.48l-1.15.26v.6Zm8.62-6.62c0,4.7,1.63,6.87,5.11,6.87,3,0,5.34-1.95,5.34-6.72s-1.66-6.82-5.14-6.82c-3,0-5.31,1.91-5.31,6.67Zm7.28.2c0,5.16-1.08,5.89-2.15,5.89s-2-.84-2-6.11,1.07-5.87,2.13-5.87,2,.79,2,6.09Zm-49.06,4a1.36,1.36,0,0,1,1.29,1.41,1.31,1.31,0,1,1-2.62,0,1.43,1.43,0,0,1,1.33-1.41Z"/></svg>