<svg id="Camada_1" data-name="Camada 1" xmlns="http://www.w3.org/2000/svg" viewBox="0 0 100 40"><defs><style>.cls-1{fill:#fff;}</style></defs><path class="cls-1" d="M19.28,21.33c0,8.92,3.11,13,9.72,13,5.76,0,10.22-3.7,10.22-12.75s-3.15-13-9.76-13c-5.77,0-10.19,3.62-10.19,12.71Zm13.88.33c0,9.85-2,11.24-4.08,11.24s-3.79-1.6-3.79-11.66c0-9.8,2-11.15,4-11.15s3.83,1.51,3.83,11.57ZM40.4,33.91H55.3V26.38H54.12l-2.06,5.85H48.27V10.72l2.19-.51V9.08H40.57v1.13l2,.51V32.27l-2.19.5v1.14ZM57.28,9.08v1.13l2,.55V32.27l-2,.5v1.14h9.51V32.77L65,32.27V22.5h5.47v9.77l-1.68.5v1.14h9.39V32.77l-2-.5V10.72L78,10.21V9.08H68.77v1.13l1.68.51v10.1H65V10.72l1.81-.51V9.08ZM79.76,33.91h6.35V32.77l-2.57-.5,1.39-5.94h5.31l2,5.94-2.23.5v1.14h10V32.77l-1.85-.5L91.12,9H87.58l-6,23.23-1.81.5v1.14Zm5.64-9.3,1.93-7.83,2.4,7.83ZM.08,5.63v1.3l2.57.55V32.06L0,32.61v1.3H12.29v-1.3l-3.37-.55V20.69h3.62l.89,3.75h1.34V15.31H13.43l-.89,3.45H8.92V7.52h4.63L15.91,14h1.43V5.63Z"/></svg>