<svg id="Camada_1" data-name="Camada 1" xmlns="http://www.w3.org/2000/svg" viewBox="0 0 100 40"><defs><style>.cls-1{fill:#fff;}</style></defs><path class="cls-1" d="M12.85,13.72V26.23a5.31,5.31,0,1,0,10.61,0V13.72a5.31,5.31,0,1,0-10.61,0m3.8,12.51V13.72a1.44,1.44,0,0,1,1.42-1.46h.14a1.41,1.41,0,0,1,1.45,1.37.14.14,0,0,1,0,.09V26.23a1.46,1.46,0,0,1-1.45,1.45,1.5,1.5,0,0,1-1.56-1.45h0M54.08,8.69H43.35v3.8h3.47V31.15h3.79V12.49h3.47Zm11.17,0V26.23a1.45,1.45,0,0,1-2.9,0h0V8.69H58.44V26.23a5.36,5.36,0,1,0,10.72,0V8.69ZM100,12.49V8.69H90.61V31.15H100v-3.8H94.41V21.54H98v-3.8H94.41V12.49ZM39.78,31.15h-4L33,20.53a3,3,0,0,0,2.46-3V14.05a1.53,1.53,0,0,0-1.5-1.56H32.4V31.15H28.6V8.69h5.25a5.32,5.32,0,0,1,5.37,5.14V17.4a6,6,0,0,1-2.13,4.92ZM82.12,8.69V21L78.21,8.69H74.3V31.15h3.91V20.2l3.58,11H86V8.69ZM0,9V31.48H4V21.87H7.71v-3.8H4V12.82H9.83V9Z"/></svg>