<svg id="Camada_1" data-name="Camada 1" xmlns="http://www.w3.org/2000/svg" viewBox="0 0 49.61 40"><defs><style>.cls-1{fill:#fff;fill-rule:evenodd;}</style></defs><path class="cls-1" d="M.48,25.77V5H13.09l.39,5.68H6.42v2.71h5.75v5.67H6.38v6.71H.48m48.57-.06L42.74,14.93,48.47,5H42.16L39.54,9.47,37,5H30.43l5.85,10L30.09,25.72h6.35l3-5.25,3.06,5.24h6.53"/><path class="cls-1" d="M25.09,19.56v-8.3a1.84,1.84,0,0,0-1.76-1.79,1.77,1.77,0,0,0-1.69,1.79v8.28a1.71,1.71,0,0,0,1.7,1.71,1.74,1.74,0,0,0,1.76-1.69ZM13.32,15.41a10,10,0,1,1,10,10.1A10,10,0,0,1,13.32,15.41ZM0,34.79V33.72l.55-.53H5L5.2,33V31.88l-.13-.12H.92L0,30.84V28.23l1.06-1.05h6v1.15l-.43.44H2.28l-.17.17v1.11l.13.12H6.38l.92.92v2.65l-1.06,1H0m13.62-3.93.31-.3V29.1l-.31-.31H10.73v2.07Zm-5-3.68h6.25l1.18,1.17v2.82l-1.18,1.18H10.73v2.44H8.62ZM22.15,33l.44-.43V29.26l-.44-.43H19.69l-.43.43v3.32l.43.43Zm-5,.61V28.35l1.17-1.17h5.19l1.18,1.17v5.27l-1.18,1.17H18.33ZM31,30.44l.3-.3V29l-.3-.29H28.19v1.7Zm-5-3.26h6.31l1.07,1.05v2.43l-1,1,1.34,3.13H31.43l-1-2.76H28.19v2.76H26.08Zm10.53,1.76H34.17V27.18h7v1.76H38.73v5.85H36.61V28.94M42.31,35V33.92l.56-.53h4.47l.17-.16V32.09L47.39,32H43.23l-.92-.92V28.44l1.06-1.06h6v1.16L49,29H44.6l-.17.17v1.11l.12.12h4.14l.92.92V34l-1.06,1H42.31"/></svg>