<svg id="Camada_1" data-name="Camada 1" xmlns="http://www.w3.org/2000/svg" viewBox="0 0 100 40"><defs><style>.cls-1{fill:#fff;}</style></defs><path class="cls-1" d="M67.22,13l-4.71-2.2a.44.44,0,0,0-.49.07.47.47,0,0,0-.14.36V13h0v1.86h5.48V13.18A.24.24,0,0,0,67.22,13Z"/><path class="cls-1" d="M74.55,19.43,74,19.24c-.36-.12-.55-.32-.54-.59a.49.49,0,0,1,.17-.38.7.7,0,0,1,.41-.16h.12a5,5,0,0,1,1.37.23q.29.07.57.18a.15.15,0,0,0,.18-.08l1.4-3s0,0,0,0a.13.13,0,0,0-.1-.15,14.22,14.22,0,0,0-1.94-.52,10.75,10.75,0,0,0-1.6-.19h-.4a6.2,6.2,0,0,0-2.72.55,4.05,4.05,0,0,0-2.4,3.77,3.92,3.92,0,0,0,.83,2.54A5.09,5.09,0,0,0,71.66,23l.51.19c.44.15.65.37.65.68a.5.5,0,0,1-.19.4.83.83,0,0,1-.57.17A6,6,0,0,1,70,24a.15.15,0,0,0-.18.08l-1.44,3.08v0a11.4,11.4,0,0,0,2.14.7,10.25,10.25,0,0,0,2.21.24,6.6,6.6,0,0,0,2.8-.55A4.34,4.34,0,0,0,77.4,26a4.17,4.17,0,0,0,.65-2.32,3.89,3.89,0,0,0-.86-2.57A5.94,5.94,0,0,0,74.55,19.43Z"/><path class="cls-1" d="M98.84,16a4.38,4.38,0,0,0-3.52-1.37,6.33,6.33,0,0,0-2.24.39,5.1,5.1,0,0,0-1.65,1,.13.13,0,0,1-.2,0h0A3.8,3.8,0,0,0,88,14.59a4.89,4.89,0,0,0-2,.38,4.32,4.32,0,0,0-1.15.73.14.14,0,0,1-.2,0,.12.12,0,0,1,0-.09v-1a.14.14,0,0,0-.14-.14h-.06l-5.2,2.44a.13.13,0,0,0-.09.13V27.54a.15.15,0,0,0,.15.14h5.2a.14.14,0,0,0,.14-.14V20.35a1.2,1.2,0,0,1,.3-.86,1.12,1.12,0,0,1,1.57,0,1.2,1.2,0,0,1,.3.86v7.19a.14.14,0,0,0,.14.14h5.2a.15.15,0,0,0,.15-.14V20.35a1.24,1.24,0,0,1,.29-.86,1.12,1.12,0,0,1,1.57,0,1.2,1.2,0,0,1,.3.86v4.51a.11.11,0,0,0,0,.08.16.16,0,0,0,0,.09v1.68a.16.16,0,0,0,.08.13l5.21,2.43a.13.13,0,0,0,.19-.07.13.13,0,0,0,0-.06V19.6A5.44,5.44,0,0,0,98.84,16Z"/><path class="cls-1" d="M25.18,14.44,20,16.87a.16.16,0,0,0-.08.13v5.14a1.44,1.44,0,0,1-.34,1,1.27,1.27,0,0,1-1.8,0h0a1.39,1.39,0,0,1-.34-1V14.57a.14.14,0,0,0-.14-.14h-.06L12,16.88a.13.13,0,0,0-.08.13V22.9A5.88,5.88,0,0,0,13,26.67a4.06,4.06,0,0,0,3.35,1.4,5.65,5.65,0,0,0,2-.37,4.55,4.55,0,0,0,1.36-.84.15.15,0,0,1,.2,0,.18.18,0,0,1,0,.1v.57a.15.15,0,0,0,.14.15h5.09a.15.15,0,0,0,.15-.15v-13a.15.15,0,0,0-.14-.15Z"/><path class="cls-1" d="M49.8,14.44l-5.2,2.43a.17.17,0,0,0-.09.13v5.14a1.38,1.38,0,0,1-.33,1,1.28,1.28,0,0,1-1.81,0h0a1.38,1.38,0,0,1-.33-1V14.57a.15.15,0,0,0-.15-.14h-.06l-5.2,2.44a.13.13,0,0,0-.08.13V22.9a5.88,5.88,0,0,0,1.11,3.77A4,4,0,0,0,41,28.07a5.65,5.65,0,0,0,2-.37,4.55,4.55,0,0,0,1.36-.84.15.15,0,0,1,.2,0,.17.17,0,0,1,0,.1v.57a.15.15,0,0,0,.15.15h5.09a.15.15,0,0,0,.14-.15v-13a.14.14,0,0,0-.13-.15Z"/><path class="cls-1" d="M60.24,14.67a4.54,4.54,0,0,0-2.17.53,3.29,3.29,0,0,0-.81.68.14.14,0,0,1-.2,0,.16.16,0,0,1-.05-.11V14.57a.15.15,0,0,0-.15-.14H56.8l-5.2,2.43a.16.16,0,0,0-.08.13V27.54a.14.14,0,0,0,.14.14h5.2a.15.15,0,0,0,.15-.14v-5a3,3,0,0,1,.86-2.43,3.56,3.56,0,0,1,2.37-.76.15.15,0,0,0,.15-.14V14.82a.15.15,0,0,0-.15-.15Z"/><path class="cls-1" d="M11.92,10.9a.15.15,0,0,0-.14-.15H0V29.14a.15.15,0,0,0,.15.14H.2l5.32-2.49a.16.16,0,0,0,.08-.13V23.07a.15.15,0,0,1,.15-.15h4.64a.14.14,0,0,0,.14-.14v-4.7a.15.15,0,0,0-.14-.15H5.75a.15.15,0,0,1-.15-.14v-1.9a.15.15,0,0,1,.15-.15h6a.14.14,0,0,0,.14-.14Z"/><path class="cls-1" d="M32.22,15.21h0V11.46a.17.17,0,0,0-.17-.17H32l-5.14,2.4a.18.18,0,0,0-.1.15v8.88a5.58,5.58,0,0,0,1.34,4,5.37,5.37,0,0,0,4.07,1.42,8.57,8.57,0,0,0,3-.49h0V23.22h0a5.15,5.15,0,0,1-1.4.25,1.49,1.49,0,0,1-1.13-.39A1.63,1.63,0,0,1,32.22,22V19.46h2.89V15.21Z"/><path class="cls-1" d="M62.1,15.55h-.24V27.23a.42.42,0,0,0,.44.42h4.59a.44.44,0,0,0,.45-.42V15.55Z"/></svg>