<svg id="Layer_1" data-name="Layer 1" xmlns="http://www.w3.org/2000/svg" viewBox="0 0 100 40"><defs><style>.cls-1{fill:#fff;}</style></defs><path class="cls-1" d="M17.66,7.68v19c0,1.79.77,2.38,2,2.38s2-.59,2-2.38V7.68h3.65v18.7c0,4-2,6.18-5.76,6.18s-5.75-2.21-5.75-6.18V7.68Z"/><path class="cls-1" d="M26.81,7.68H38.74v3.51h-4V32.24H30.85V11.19h-4Z"/><path class="cls-1" d="M44.11,7.68v19c0,1.79.77,2.38,2,2.38s2-.59,2-2.38V7.68h3.64v18.7c0,4-2,6.18-5.75,6.18s-5.75-2.21-5.75-6.18V7.68Z"/><path class="cls-1" d="M62.47,32.24c0-.17-.11-.33-.14-.46a3.75,3.75,0,0,1-.18-1.33c0-.33,0-.74,0-1.23V25.36c0-2.27-.74-3.12-2.53-3.12H58.26v10H54.38V7.68h5.83c4,0,5.71,1.87,5.71,5.65v1.93c0,2.53-.84,4.18-2.52,5,2,.81,2.56,2.67,2.56,5.23v3.79a7.16,7.16,0,0,0,.42,3ZM58.24,11.19v7.56h1.51c1.44,0,2.31-.63,2.31-2.6V13.72c0-1.79-.59-2.53-2-2.53Z"/><path class="cls-1" d="M68.48,7.68h3.86V32.24H68.48Z"/><path class="cls-1" d="M74,7.68H86v3.51h-4V32.24H78.06V11.19H74Z"/><path class="cls-1" d="M91.25,24.1,86.37,7.68h4l3,11.2,3-11.2H100L95.12,24.1v8.14H91.25Z"/><polygon class="cls-1" points="0 17.37 0 32.05 4.96 32.05 4.96 22.32 9.93 22.32 9.93 17.37 4.96 17.37 0 17.37"/><path class="cls-1" d="M11.72,10V7.61a9.3,9.3,0,0,0-2-.16H6.55A2.37,2.37,0,0,0,5,8c-.49.4-1,.84-1.43,1.26C2.69,10,1.8,10.79.94,11.58A2.7,2.7,0,0,0,0,13.65V17.2c0,.16,0,.16.17.16h4.6c.19,0,.19,0,.19-.18V12.62c0-.16,0-.16.17-.16H9.75a10.45,10.45,0,0,0,2-.06V10ZM7.13,8.07h.71L5.94,10l-1,1v-.7l.31-.31Zm-.59,0L5,9.68v-.1C5,8.86,5.62,8.29,6.54,8.12Zm4.56.43L9.69,10,7.8,11.84h.54l1.92-1.92.84-.83V9.8L11,10,9.06,11.84H9.6l1.5-1.49v.7l-.79.79h.52l.27-.27v.13c0,.12-.06.15-.22.15H5.18c-.16,0-.22,0-.22-.15v-.25L6.49,9.92,8.35,8.07h.76L7.21,10,5.32,11.84h.53l2-1.93L9.65,8.07h.71L8.47,10l-1.9,1.89H7.1L9,9.93,10.9,8.07c.15,0,.2,0,.2.15Z"/></svg>