<svg id="Camada_1" data-name="Camada 1" xmlns="http://www.w3.org/2000/svg" viewBox="0 0 100 40"><defs><style>.cls-1{fill:#fff;}</style></defs><title>futurity</title><g id="Page-1"><g id="futurity"><g id="header"><g id="logo"><path id="Fill-1" class="cls-1" d="M23,29.33H33.31l-4.2,6.21H18.83L23,29.33"/><path id="Fill-2" class="cls-1" d="M11.54,12.74h5.73l5.61-8.28H12.6L0,23.08H4.54l7-10.34"/><path id="Fill-3" class="cls-1" d="M16.75,25.18h5.74l5.6-8.28H17.82L9.41,29.31H14l2.79-4.13"/><path id="Futurity-2" data-name="Futurity" class="cls-1" d="M37.73,12.3H45v2.2h-4.8v2.83h4.67v2.21H40.21V24.7H37.73ZM52.8,23.57h0a2.88,2.88,0,0,1-1.22,1.08,3.72,3.72,0,0,1-1.42.29,3.46,3.46,0,0,1-1.35-.24,2.43,2.43,0,0,1-.93-.65,2.6,2.6,0,0,1-.54-.94A3.66,3.66,0,0,1,47.13,22V16.13h2.39v5.22a2.21,2.21,0,0,0,.12.78,1.36,1.36,0,0,0,.35.51,1.31,1.31,0,0,0,.48.28A1.7,1.7,0,0,0,51,23a1.5,1.5,0,0,0,1.22-.57A2.16,2.16,0,0,0,52.71,21V16.13h2.41V24.7H52.8Zm3.87-7.44H58V13.66h2.41v2.47h2V18h-2v4.14a.65.65,0,0,0,.24.59,1.24,1.24,0,0,0,.71.16,4.53,4.53,0,0,0,.71-.06V24.7c-.19,0-.43.05-.72.07l-.72,0a4.51,4.51,0,0,1-1.07-.11,2,2,0,0,1-.83-.38,1.7,1.7,0,0,1-.53-.74,3.05,3.05,0,0,1-.2-1.18V18H56.67Zm12.82,7.44h0a2.88,2.88,0,0,1-1.22,1.08,3.77,3.77,0,0,1-1.43.29,3.46,3.46,0,0,1-1.35-.24,2.6,2.6,0,0,1-.93-.65,2.75,2.75,0,0,1-.54-.94A4,4,0,0,1,63.82,22V16.13h2.39v5.22a2,2,0,0,0,.13.78,1.34,1.34,0,0,0,.34.51,1.27,1.27,0,0,0,.49.28,1.61,1.61,0,0,0,.54.09,1.52,1.52,0,0,0,1.22-.57A2.15,2.15,0,0,0,69.4,21V16.13h2.41V24.7H69.49Zm4.84-7.44h2.3V18.3h0a3.75,3.75,0,0,1,.4-.87,3.81,3.81,0,0,1,.62-.77,2.71,2.71,0,0,1,.79-.56,2.11,2.11,0,0,1,.93-.21h.22v2.34h-.24a2.56,2.56,0,0,0-1,.2,2.79,2.79,0,0,0-.85.54,2.63,2.63,0,0,0-.57.82,2.58,2.58,0,0,0-.21,1V24.7H74.33Zm6.73,0h2.39V24.7H81.06Zm-.2-2.65A1.39,1.39,0,0,1,81,13a1.51,1.51,0,0,1,.29-.45,1.42,1.42,0,0,1,.45-.32,1.32,1.32,0,0,1,.57-.12,1.19,1.19,0,0,1,.52.11,1.42,1.42,0,0,1,.43.29,1.4,1.4,0,0,1,.31.44,1.25,1.25,0,0,1,.12.54,1.2,1.2,0,0,1-.11.53,1.41,1.41,0,0,1-.3.46,1.55,1.55,0,0,1-.44.32,1.28,1.28,0,0,1-.53.12,1.2,1.2,0,0,1-.57-.13,1.6,1.6,0,0,1-.45-.32A1.46,1.46,0,0,1,81,14a1.24,1.24,0,0,1-.1-.5ZM85,16.13h1.29V13.66h2.41v2.47h2V18h-2v4.14a.65.65,0,0,0,.24.59,1.24,1.24,0,0,0,.71.16,4.53,4.53,0,0,0,.71-.06V24.7c-.19,0-.43.05-.72.07l-.72,0a4.51,4.51,0,0,1-1.07-.11A2,2,0,0,1,87,24.3a1.8,1.8,0,0,1-.54-.74,3.27,3.27,0,0,1-.19-1.18V18H85Zm9.32,8.57-3.21-8.57h2.7l1.81,5.73h0l1.83-5.73H100L95.27,28.35H92.76Z"/></g></g></g></g></svg>