<svg id="Camada_1" data-name="Camada 1" xmlns="http://www.w3.org/2000/svg" viewBox="0 0 25 40"><defs><style>.cls-1{fill:#fff;}</style></defs><path class="cls-1" d="M18.54,9.5l5.23-3.07A.91.91,0,0,1,24.94,7a.82.82,0,0,1,.06.38V26a.84.84,0,0,1-.86.74h-2.4a.9.9,0,0,1-.86-.86V12.41l-1.6.91a.86.86,0,0,1-1.15-.39.85.85,0,0,1-.08-.39V10.28A.85.85,0,0,1,18.54,9.5Z"/><path class="cls-1" d="M8,23.12a4,4,0,0,1-3.95-4A.81.81,0,0,1,4,19a3.92,3.92,0,1,1,7.83-.38,2.41,2.41,0,0,1,0,.38,4,4,0,0,1-3.72,4.16Zm4.84-12a.75.75,0,0,0-.81.68.33.33,0,0,0,0,.14v.91a5.87,5.87,0,0,0-4.31-2A7.91,7.91,0,0,0,0,19v0a7.49,7.49,0,0,0,7.16,7.79H7.6A5.69,5.69,0,0,0,11.8,25c0,3.22-1.73,4.68-4.64,4.68a8.53,8.53,0,0,1-4.72-1.56.75.75,0,0,0-1.06.09.62.62,0,0,0-.12.19l-1,1.93a.88.88,0,0,0,.25,1.19l.06,0a12.68,12.68,0,0,0,6.73,2c5.6,0,8.68-3,8.68-10V11.94a.74.74,0,0,0-.66-.82H12.82Z"/></svg>