<svg id="Camada_1" data-name="Camada 1" xmlns="http://www.w3.org/2000/svg" viewBox="0 0 100 40"><defs><style>.cls-1{fill:#fff;}</style></defs><path class="cls-1" d="M20.37,8.48,26.12,5.1a1,1,0,0,1,1.35,1V26.65a.92.92,0,0,1-.94.81H23.89a1,1,0,0,1-.95-.95V11.68l-1.76,1a.94.94,0,0,1-1.35-.86V9.33A.93.93,0,0,1,20.37,8.48Z"/><path class="cls-1" d="M8.76,23.45a4.37,4.37,0,0,1-4.33-4.58,4.31,4.31,0,1,1,8.61,0A4.34,4.34,0,0,1,8.76,23.45Zm5.32-13.19a.82.82,0,0,0-.89.9v1A6.43,6.43,0,0,0,8.46,10a8.71,8.71,0,0,0-8.46,9,8.22,8.22,0,0,0,8.35,8.56,6.27,6.27,0,0,0,4.61-2c0,3.54-1.9,5.14-5.1,5.14a9.32,9.32,0,0,1-5.18-1.71.83.83,0,0,0-1.3.3L.26,31.42A.94.94,0,0,0,.6,32.76,14,14,0,0,0,8,35c6.15,0,9.54-3.32,9.54-10.95V11.16a.82.82,0,0,0-.89-.9Z"/></svg>