<svg xmlns="http://www.w3.org/2000/svg" viewBox="0 0 120 40"><defs><style>.a{fill:#fff;}</style></defs><title>gameinformer</title><path class="a" d="M9.6,28.6a2.46,2.46,0,0,1-1.86.77H2.21V27.2H7.68c.3,0,.44-.14.44-.42v-2.4c0,.43-.38.65-1.1.65H2.64A2.6,2.6,0,0,1,0,22.48H0V17.34a2.54,2.54,0,0,1,.76-1.86,2.48,2.48,0,0,1,1.88-.78H7c.72,0,1.09.22,1.12.66V14.7h2.17v12A2.37,2.37,0,0,1,9.6,28.6ZM8.12,17.34a.39.39,0,0,0-.32-.44H2.64a.39.39,0,0,0-.43.32V22.4a.37.37,0,0,0,.31.44.24.24,0,0,0,.12,0h5a.37.37,0,0,0,.44-.31v0a.11.11,0,0,0,0-.11Z"/><path class="a" d="M14,25a2.58,2.58,0,0,1-2.63-2.54v-.88a1.54,1.54,0,0,1,1.2-1.52l6.89-2.21V17.6q0-.66-.45-.66H14a.37.37,0,0,0-.42.31v1.2H11.33V17.37a2.6,2.6,0,0,1,2.57-2.64H19a2.63,2.63,0,0,1,2.59,2.59V25Zm5.49-4.94-5,1.51c-.6.16-.9.44-.9.83a.37.37,0,0,0,.29.42H19a.39.39,0,0,0,.44-.32v0a.17.17,0,0,0,0-.1Z"/><path class="a" d="M45.52,14.7a2.58,2.58,0,0,1,2.62,2.54v.89a1.51,1.51,0,0,1-1.2,1.52L40,21.85v.27c0,.45.16.66.45.66h5a.36.36,0,0,0,.42-.29v0a.2.2,0,0,0,0-.11V21.27h2.21V22.4A2.61,2.61,0,0,1,45.6,25H40.45a2.6,2.6,0,0,1-2.63-2.58v0h0V14.72ZM40,19.64l5-1.5c.6-.17.9-.44.9-.83a.41.41,0,0,0-.35-.43H40.45a.39.39,0,0,0-.44.34.24.24,0,0,0,0,.12Z"/><path class="a" d="M34.58,25V17.34a.38.38,0,0,0-.31-.44h-3a.39.39,0,0,0-.44.32V25h-2.2V17.34a.39.39,0,0,0-.32-.44h-3a.38.38,0,0,0-.42.32.24.24,0,0,0,0,.12V25H22.8V14.7H34.21a2.47,2.47,0,0,1,1.84.79,2.38,2.38,0,0,1,.79,1.83V25Z"/><path class="a" d="M110.88,14.7a2.59,2.59,0,0,1,2.63,2.54v.89a1.53,1.53,0,0,1-1.2,1.52l-6.9,2.2v.27c0,.45.14.66.44.66h5a.37.37,0,0,0,.42-.31v-1.2h2.21V22.4A2.61,2.61,0,0,1,110.93,25h-5.1a2.6,2.6,0,0,1-2.63-2.58V22.4h0V14.72Zm-5.5,4.94,5-1.5c.6-.17.9-.44.9-.83a.39.39,0,0,0-.36-.43h-5.11a.4.4,0,0,0-.45.34.24.24,0,0,0,0,.12Z"/><path class="a" d="M51.34,16.69a.66.66,0,0,1-.4.17H49.86a.56.56,0,0,1-.55-.56h0V15.2a.56.56,0,0,1,.54-.56h1.09a.55.55,0,0,1,.55.56h0v1.08A.49.49,0,0,1,51.34,16.69Z"/><path class="a" d="M49.28,25V18h2.21v7Z"/><path class="a" d="M60.9,25V17.34a.4.4,0,0,0-.35-.44H55.4a.39.39,0,0,0-.43.32V25H52.8V14.7h7.68a2.6,2.6,0,0,1,2.62,2.59V25Z"/><path class="a" d="M68,12.8c-.3,0-.46.14-.46.42v1.44h2.22v2.22H67.51V25H65.34V16.9H63.6V14.7h1.76V13.26a2.61,2.61,0,0,1,2.58-2.63H70.8V12.8Z"/><path class="a" d="M117.16,16.9a.4.4,0,0,0-.45.32V25h-2.18V17.34a2.6,2.6,0,0,1,2.57-2.64H120v2.2Z"/><path class="a" d="M84.22,16.9a.4.4,0,0,0-.45.32V25H81.6V17.34a2.6,2.6,0,0,1,2.57-2.64h2.9v2.2Z"/><path class="a" d="M79.76,24.25A2.37,2.37,0,0,1,77.9,25h-5a2.59,2.59,0,0,1-2.64-2.54h0V17.34a2.62,2.62,0,0,1,2.6-2.64H77.9a2.49,2.49,0,0,1,1.86.76,2.52,2.52,0,0,1,.78,1.86V22.4A2.5,2.5,0,0,1,79.76,24.25Zm-1.4-6.91a.4.4,0,0,0-.46-.44h-5a.39.39,0,0,0-.43.32V22.4a.39.39,0,0,0,.32.44.2.2,0,0,0,.11,0h5a.41.41,0,0,0,.46-.33Z"/><path class="a" d="M100,25V17.34a.39.39,0,0,0-.31-.44h-3a.38.38,0,0,0-.43.32V25H94V17.34a.39.39,0,0,0-.31-.44h-3a.38.38,0,0,0-.42.32.24.24,0,0,0,0,.12V25H88.1V14.7H99.52a2.5,2.5,0,0,1,1.83.79,2.38,2.38,0,0,1,.79,1.83V25Z"/></svg>