<svg id="Logotipo" xmlns="http://www.w3.org/2000/svg" viewBox="0 0 100 40"><defs><style>.cls-1{fill:#fff;}</style></defs><path class="cls-1" d="M42.65,11.13c.52,0,.7.17.7.69v2.32A3.55,3.55,0,0,1,42,17a5.51,5.51,0,0,1-3.68,1.13c-3.16,0-5-1.71-5-4.52V10.2c0-2.84,1.83-4.52,5-4.52q3.69,0,4.72,2.84c.18.43,0,.72-.43.87l-1.3.46c-.5.15-.7.06-.87-.43A2,2,0,0,0,38.36,8.2c-1.48,0-2.23.67-2.23,2v3.42c0,1.34.75,2,2.23,2s2.26-.61,2.26-1.48v-.61h-2c-.52,0-.69-.17-.69-.69V11.79c0-.52.17-.69.69-.69h4.06Z"/><path class="cls-1" d="M48.3,8.87c2.53,0,3.77,1.19,3.77,3.56v4.29c0,.58-.14.79-.63,1a8.52,8.52,0,0,1-3.19.46,5.07,5.07,0,0,1-3-.66,2.62,2.62,0,0,1-.84-2.12c0-2.09,1.1-2.75,3.91-2.75l1.19,0v-.37A1.14,1.14,0,0,0,48.19,11a1.61,1.61,0,0,0-1.39.61c-.29.38-.38.46-.87.26L45,11.53a.58.58,0,0,1-.35-.9C45.32,9.45,46.51,8.87,48.3,8.87Zm1.22,5.71c-.09,0-.32,0-.67,0s-.58,0-.75,0c-.9,0-1.16.29-1.16.81s.26.81,1.13.81c.58,0,1,0,1.34-.05.08,0,.11-.06.11-.12V14.58Z"/><path class="cls-1" d="M59.81,15.62c.47,0,.64.18.64.64v1c0,.47-.14.64-.64.64H53.87c-.46,0-.61-.14-.61-.64v-1a1,1,0,0,1,.2-.64l3.6-4.26H54c-.47,0-.61-.18-.61-.64v-1c0-.47.14-.64.61-.64h5.77c.46,0,.61.14.61.64v1a1,1,0,0,1-.26.67l-3.66,4.2h3.39Z"/><path class="cls-1" d="M61.5,12.61c0-2.44,1.42-3.74,4.06-3.74s4,1.48,4,3.56v1a.76.76,0,0,1-.87.84H64.05v.43c0,.9.49,1.34,1.51,1.34a1.89,1.89,0,0,0,1.59-.67c.29-.41.49-.46,1-.23l.81.43a.62.62,0,0,1,.26,1c-.67,1-1.89,1.56-3.71,1.56-2.76,0-4-1.47-4-3.74V12.61ZM67,12.2c0-.87-.49-1.3-1.5-1.3S64,11.33,64,12.2v.26h3V12.2Z"/><path class="cls-1" d="M73.67,7.1c.47,0,.61.14.61.64V9.13h1.57c.46,0,.61.14.61.64v1c0,.46-.15.64-.61.64H74.28V14.2c0,1.28.38,1.57,1.54,1.57.46,0,.61.14.61.63v1.08c0,.49-.15.64-.61.64a4.55,4.55,0,0,1-3.16-.79,3.88,3.88,0,0,1-1-3v-2.9h-.9c-.46,0-.63-.15-.63-.64v-1c0-.47.14-.64.63-.64h.9V7.71c0-.47.18-.64.64-.64h1.33Z"/><path class="cls-1" d="M81.18,8.87c2.53,0,3.77,1.19,3.77,3.56v4.29a.86.86,0,0,1-.64,1,8.48,8.48,0,0,1-3.19.46,5.06,5.06,0,0,1-3-.66,2.62,2.62,0,0,1-.84-2.12c0-2.09,1.1-2.75,3.91-2.75l1.19,0v-.37A1.14,1.14,0,0,0,81.07,11a1.6,1.6,0,0,0-1.39.61c-.29.38-.38.46-.87.26l-.93-.38a.58.58,0,0,1-.35-.9A3.82,3.82,0,0,1,81.18,8.87Zm1.22,5.71c-.09,0-.32,0-.67,0s-.58,0-.75,0c-.9,0-1.16.29-1.16.81s.26.81,1.13.81c.58,0,1,0,1.33-.05.09,0,.12-.06.12-.12Z"/><path class="cls-1" d="M41.29,20.29c.23,0,.32.12.32.35v.46c0,.23-.09.35-.32.35H35.34v4.17h5.19c.24,0,.32.12.32.35v.47c0,.23-.08.34-.32.34H35.34v4.35h6.18c.23,0,.32.12.32.35V32c0,.23-.09.34-.32.34H34.47c-.26,0-.34-.08-.34-.34V20.64c0-.26.08-.35.34-.35Z"/><path class="cls-1" d="M46.59,23.33c1.74,0,2.9.61,3.45,1.83a.27.27,0,0,1-.14.44l-.44.17a.3.3,0,0,1-.43-.15c-.38-.86-1-1.27-2.44-1.27s-2.2.49-2.2,1.48c.06.81.32,1.16,1,1.36a6.33,6.33,0,0,0,1.51.23,5.68,5.68,0,0,1,2.32.58,2,2,0,0,1,1,1.92c0,1.62-1.19,2.58-3.45,2.58-1.89,0-3.11-.7-3.66-2.09-.08-.2,0-.35.18-.41l.43-.14a.31.31,0,0,1,.41.17,2.43,2.43,0,0,0,2.58,1.48c1.59,0,2.38-.49,2.38-1.54s-.76-1.36-2.44-1.53a8.93,8.93,0,0,1-1.91-.35,2,2,0,0,1-.81-.44,2.34,2.34,0,0,1-.7-1.76C43.29,24.29,44.45,23.33,46.59,23.33Z"/><path class="cls-1" d="M55.44,23.33c2.34,0,3.5,1.14,3.5,3.37v2.43c0,2.24-1.16,3.37-3.45,3.37A6.64,6.64,0,0,1,53,31.92v3.74c0,.2-.09.29-.29.29h-.55c-.2,0-.29-.09-.29-.29V24.76c0-.56.15-.73.67-1A8.6,8.6,0,0,1,55.44,23.33Zm2.37,3.4c0-1.57-.84-2.35-2.52-2.35a5.69,5.69,0,0,0-2,.32c-.29.11-.32.17-.32.46v5.71a5.74,5.74,0,0,0,2.44.58,2.1,2.1,0,0,0,2.4-2.35V26.73Z"/><path class="cls-1" d="M60.39,26.44c0-2,1.4-3.11,3.69-3.11s3.71,1.16,3.71,3.11v2.95c0,1.95-1.42,3.08-3.71,3.08s-3.69-1.19-3.69-3.08Zm6.27,0c0-1.28-1-2.09-2.58-2.09s-2.55.78-2.55,2.09v2.95c0,1.28,1,2.06,2.55,2.06s2.58-.78,2.58-2.06Z"/><path class="cls-1" d="M73.64,23.33c.21,0,.29.09.29.29v.44c0,.2-.08.29-.29.29h-.58a6.61,6.61,0,0,0-2.23.35.47.47,0,0,0-.29.43v6.79c0,.2-.08.29-.29.29H69.7c-.2,0-.29-.09-.29-.29V24.78a.88.88,0,0,1,.64-1,9.24,9.24,0,0,1,3-.52h.55Z"/><path class="cls-1" d="M77.44,21.57c.26,0,.29.08.29.29v1.71h2.44a.26.26,0,0,1,.29.29v.43c0,.2-.09.29-.29.29H77.73V29a2.65,2.65,0,0,0,.5,1.91,2.74,2.74,0,0,0,1.91.47c.2,0,.29.08.29.32v.52c0,.23-.09.29-.29.29a3.92,3.92,0,0,1-2.76-.7,3.68,3.68,0,0,1-.78-2.72V24.64H75c-.21,0-.29-.09-.29-.29v-.44c0-.2.08-.29.29-.29H76.6V21.91c0-.2.09-.29.29-.29h.55Z"/><path class="cls-1" d="M82.43,20.49c.46,0,.64.15.64.61v.12c0,.46-.15.64-.64.64h-.09c-.46,0-.64-.15-.64-.64V21.1c0-.46.15-.61.64-.61Zm.2,3.08a.25.25,0,0,1,.29.29v8.06a.26.26,0,0,1-.29.29h-.55c-.2,0-.29-.09-.29-.29v-8a.26.26,0,0,1,.29-.29h.55Z"/><path class="cls-1" d="M92.08,23.57c.29,0,.35.05.24.34L89,32a.46.46,0,0,1-.43.29H88.2a.41.41,0,0,1-.44-.29L84.4,23.94c-.11-.29-.06-.34.26-.34H85c.35,0,.43,0,.52.29l2.32,5.56c.09.23.17.49.29.87s.17.55.17.61h.06a4.84,4.84,0,0,0,.18-.61,4.72,4.72,0,0,1,.26-.84l2.29-5.57c.08-.26.17-.29.55-.29h.4Z"/><path class="cls-1" d="M96.64,23.33c2.49,0,3.36,1.31,3.36,3.34v4.41c0,.58-.14.75-.61,1a7.2,7.2,0,0,1-2.81.44,4.68,4.68,0,0,1-2.87-.64,2.4,2.4,0,0,1-.78-2c0-1.92,1-2.61,3.71-2.61.46,0,1.19.06,2.2.17v-.78c0-1.48-.58-2.32-2.29-2.32a2.47,2.47,0,0,0-2.35,1.22.31.31,0,0,1-.43.14l-.41-.17c-.23-.09-.26-.23-.17-.44A3.67,3.67,0,0,1,96.64,23.33Zm2.23,5c-1-.09-1.8-.14-2.32-.14-1.77,0-2.44.49-2.44,1.65s.53,1.68,2.41,1.68a6.37,6.37,0,0,0,2-.26c.26-.12.32-.18.32-.49Z"/><path class="cls-1" d="M22.24,16.78a1,1,0,0,0-1,1c0,.26,0,3.71-.08,5.65a5,5,0,0,1-4.3,4.87,28.62,28.62,0,0,1-6.14,0,4.86,4.86,0,0,1-4.58-4.67,72.63,72.63,0,0,1-.06-8.52A5.15,5.15,0,0,1,8,11.24c1.25-1,2.47-1.16,5.6-1.16s6.06.47,7,1.74h0a.89.89,0,0,0,.58.32.87.87,0,0,0,.64-.2l3.36-3a.81.81,0,0,0,.12-1.1,8.7,8.7,0,0,0-5.8-3.42,49.85,49.85,0,0,0-11.71,0A8.8,8.8,0,0,0,.12,13.1c0,.43-.12,3.3-.12,6.2,0,3.08.12,6.15.12,6.3A8.82,8.82,0,0,0,8,34.24a51.63,51.63,0,0,0,11.57,0,8.73,8.73,0,0,0,7.6-8.7c.05-2.49.14-5.19.11-7.71a1,1,0,0,0-1-1C24.76,16.78,22.24,16.78,22.24,16.78Z"/><path class="cls-1" d="M18,19.28c0-1.69-.06-2.24-.09-3a2.79,2.79,0,0,0-2.75-2.76,17.19,17.19,0,0,0-2.87,0,2.81,2.81,0,0,0-2.76,2.79c-.06,1-.09,2-.09,3s.06,2.76.09,3.05A2.88,2.88,0,0,0,12.24,25a15.27,15.27,0,0,0,2.87,0,2.89,2.89,0,0,0,2.75-2.75C17.86,22.06,18,19.77,18,19.28Z"/><path class="cls-1" d="M12.35,22.35c0-.29-.09-2.15-.09-3.05s0-2,.09-3a2.81,2.81,0,0,1,2.76-2.76,17.19,17.19,0,0,0-2.87,0,2.81,2.81,0,0,0-2.76,2.79c-.06,1-.09,2-.09,3s.06,2.76.09,3.05a2.88,2.88,0,0,0,2.76,2.69,15.27,15.27,0,0,0,2.87,0A2.92,2.92,0,0,1,12.35,22.35Z"/></svg>