<svg id="Logotipo" xmlns="http://www.w3.org/2000/svg" viewBox="0 0 90 40"><defs><style>.cls-1{fill:#fff;}</style></defs><path class="cls-1" d="M38.28,11.9c.47,0,.63.16.63.62V14.6a3.2,3.2,0,0,1-1.21,2.57,4.94,4.94,0,0,1-3.31,1c-2.83,0-4.49-1.54-4.49-4.06V11.07C29.9,8.52,31.55,7,34.39,7q3.31,0,4.24,2.55a.53.53,0,0,1-.39.78l-1.16.41c-.45.14-.63.06-.78-.38a1.81,1.81,0,0,0-1.87-1.1c-1.33,0-2,.6-2,1.8v3.07c0,1.2.67,1.79,2,1.79s2-.54,2-1.33v-.54h-1.8c-.46,0-.62-.16-.62-.62V12.5c0-.47.16-.62.62-.62h3.65Z"/><path class="cls-1" d="M43.35,9.87c2.27,0,3.38,1.07,3.38,3.2v3.85a.79.79,0,0,1-.56.9,7.55,7.55,0,0,1-2.87.41,4.54,4.54,0,0,1-2.69-.59,2.36,2.36,0,0,1-.75-1.9c0-1.88,1-2.47,3.51-2.47h1.07v-.33a1,1,0,0,0-.88-1.16,1.08,1.08,0,0,0-.31,0,1.44,1.44,0,0,0-1.25.54c-.26.35-.34.42-.78.24l-.83-.31a.52.52,0,0,1-.4-.62.64.64,0,0,1,.08-.19A3.44,3.44,0,0,1,43.35,9.87ZM44.44,15H43.17c-.81,0-1,.26-1,.73s.23.72,1,.72a10.25,10.25,0,0,0,1.21,0c.07,0,.09-.06.09-.11Z"/><path class="cls-1" d="M53.68,15.93c.42,0,.57.16.57.58v.89c0,.43-.12.58-.57.58H48.35c-.41,0-.55-.13-.55-.58v-.89a.93.93,0,0,1,.18-.58l3.23-3.82H48.47c-.43,0-.55-.16-.55-.57v-.9c0-.42.12-.58.55-.58h5.17c.42,0,.55.13.55.58v.9a.9.9,0,0,1-.23.6l-3.29,3.77h3Z"/><path class="cls-1" d="M55.2,13.23c0-2.19,1.27-3.36,3.64-3.36s3.59,1.33,3.59,3.2V14a.68.68,0,0,1-.6.75H57.49v.39c0,.81.44,1.2,1.35,1.2a1.69,1.69,0,0,0,1.43-.6c.26-.37.44-.41.9-.21l.72.39a.56.56,0,0,1,.35.71.72.72,0,0,1-.11.19,3.76,3.76,0,0,1-3.33,1.4c-2.48,0-3.59-1.32-3.59-3.36v-1.6Zm4.93-.37c0-.78-.44-1.16-1.34-1.16s-1.35.38-1.35,1.16v.24h2.69Z"/><path class="cls-1" d="M66.12,8.29c.42,0,.55.12.55.57v1.25h1.41c.41,0,.54.12.54.57v.9c0,.41-.13.57-.54.57H66.67v2.51c0,1.15.34,1.41,1.38,1.41.41,0,.55.12.55.56v1c0,.44-.14.58-.55.58a4.1,4.1,0,0,1-2.84-.71,3.46,3.46,0,0,1-.89-2.69V12.17h-.81c-.42,0-.57-.13-.57-.57v-.9c0-.42.13-.57.57-.57h.81V8.83c0-.42.16-.57.57-.57h1.19Z"/><path class="cls-1" d="M72.86,9.87c2.27,0,3.38,1.07,3.38,3.2v3.85a.77.77,0,0,1-.57.9,7.52,7.52,0,0,1-2.86.41,4.55,4.55,0,0,1-2.7-.59,2.36,2.36,0,0,1-.75-1.9c0-1.88,1-2.47,3.51-2.47h1.07v-.33a1,1,0,0,0-.88-1.16,1,1,0,0,0-.3,0,1.44,1.44,0,0,0-1.25.54c-.26.35-.34.42-.78.24l-.83-.34a.53.53,0,0,1-.4-.62.54.54,0,0,1,.08-.19A3.43,3.43,0,0,1,72.86,9.87ZM74,15H72.68c-.81,0-1,.26-1,.73s.23.72,1,.72a10,10,0,0,0,1.2,0,.1.1,0,0,0,.1-.11Z"/><path class="cls-1" d="M37.26,29.6H32V26.2h4.41a.49.49,0,0,0,.53-.56v-.42a.49.49,0,0,0-.53-.56H32V21.42h5.09a.51.51,0,0,0,.53-.57v-.41a.51.51,0,0,0-.53-.57H30.94a.5.5,0,0,0-.56.57V30.63a.49.49,0,0,0,.56.56h6.32a.5.5,0,0,0,.54-.56v-.46A.51.51,0,0,0,37.26,29.6Z"/><path class="cls-1" d="M44.3,26.83h0a5.41,5.41,0,0,0-2.19-.55,5.58,5.58,0,0,1-1.29-.19c-.51-.15-.67-.38-.72-1,0-.27,0-1.08,1.72-1.08,1.28,0,1.69.36,2,1l0,.07a.49.49,0,0,0,.31.24.47.47,0,0,0,.36,0l.36-.15a.43.43,0,0,0,.21-.11.49.49,0,0,0,.08-.66,3.31,3.31,0,0,0-3.32-1.76c-2,0-3.2.93-3.26,2.54a2.35,2.35,0,0,0,.71,1.78,2,2,0,0,0,.82.44,8.94,8.94,0,0,0,1.76.33c1.68.17,2,.49,2,1.12S43.6,30,41.89,30a2,2,0,0,1-2.06-1.19.47.47,0,0,0-.29-.28.5.5,0,0,0-.38,0l-.39.12a.55.55,0,0,0-.31.27.52.52,0,0,0,0,.43c.53,1.35,1.72,2,3.52,2,2.12,0,3.34-.93,3.34-2.54A2,2,0,0,0,44.3,26.83Z"/><path class="cls-1" d="M49.76,22.6A7.77,7.77,0,0,0,47,23a1.07,1.07,0,0,0-.74,1.12v9.78a.47.47,0,0,0,.51.51h.5a.47.47,0,0,0,.51-.51v-3a6.28,6.28,0,0,0,2,.39c2.19,0,3.35-1.13,3.35-3.27V25.88C53.15,23.74,52,22.6,49.76,22.6Zm-2,1.77.12-.05A5,5,0,0,1,49.62,24c1.38,0,2,.6,2,1.86v2.16a1.48,1.48,0,0,1,0,.47,1.63,1.63,0,0,1-1.9,1.36,5,5,0,0,1-1.94-.43V24.37Z"/><path class="cls-1" d="M57.51,22.6c-2.23,0-3.56,1.14-3.56,3v2.65c0,1.86,1.37,3,3.56,3s3.58-1.16,3.58-3V25.64C61.09,23.77,59.72,22.6,57.51,22.6Zm2.07,3v2.65c0,1-.79,1.6-2.07,1.6s-2-.61-2-1.6V25.64c0-1,.75-1.62,2-1.62S59.58,24.64,59.58,25.64Z"/><path class="cls-1" d="M66.25,22.62l0-.08h-.64a8.5,8.5,0,0,0-2.75.48,1,1,0,0,0-.76,1.13v6.41a.47.47,0,0,0,.51.51h.49a.46.46,0,0,0,.51-.51V24.47a.16.16,0,0,1,.09-.15,5.67,5.67,0,0,1,1.92-.3h.52a.47.47,0,0,0,.51-.51v-.4A.45.45,0,0,0,66.25,22.62Z"/><path class="cls-1" d="M72.46,23.24a.46.46,0,0,0-.18-.32.47.47,0,0,0-.34-.1H70V21.53c0-.22-.05-.51-.51-.51l-.25.05H69a.47.47,0,0,0-.51.51v1.28H67.31a.47.47,0,0,0-.51.51v.4a.47.47,0,0,0,.51.51H68.5V28a3.61,3.61,0,0,0,.75,2.63l0,.05a3.77,3.77,0,0,0,2.18.7l.45,0a.46.46,0,0,0,.51-.51v-.47a.47.47,0,0,0-.54-.53,2.18,2.18,0,0,1-1.51-.36A2.14,2.14,0,0,1,70,27.94V24.22H72a.47.47,0,0,0,.51-.51v-.47Z"/><path class="cls-1" d="M74,20.05H73.9c-.58,0-.82.24-.82.8V21a.71.71,0,0,0,.82.82H74A.71.71,0,0,0,74.8,21v-.11C74.8,20.31,74.54,20.05,74,20.05Z"/><path class="cls-1" d="M74.67,23.21a.44.44,0,0,0-.2-.31.48.48,0,0,0-.35-.08l-.12.05h-.42a.51.51,0,0,0-.32.19.42.42,0,0,0-.1.32v7.18a.47.47,0,0,0,.51.51h.58a.49.49,0,0,0,.32-.18.47.47,0,0,0,.1-.33V23.37A.43.43,0,0,0,74.67,23.21Z"/><path class="cls-1" d="M82.64,22.82l-.15,0h-.24c-.36,0-.61,0-.73.42l-2,5a5.49,5.49,0,0,0-.2.57c-.07-.24-.14-.43-.2-.6l-2.08-5c-.13-.43-.38-.43-.7-.43H76a.55.55,0,0,0-.47.16.53.53,0,0,0,0,.49l3,7.2a.6.6,0,0,0,.57.45h.4a.65.65,0,0,0,.61-.41l3-7.27a.5.5,0,0,0,0-.48A.51.51,0,0,0,82.64,22.82Z"/><path class="cls-1" d="M86.75,22.6a3.52,3.52,0,0,0-3.34,1.73.6.6,0,0,0,0,.45.53.53,0,0,0,.32.28l.37.15a.52.52,0,0,0,.69-.23,2,2,0,0,1,1.89-1c1.29,0,1.81.53,1.81,1.83v.42c-.83-.08-1.36-.12-1.73-.12-2.14,0-3.57.44-3.57,2.57a2.4,2.4,0,0,0,.82,2,4.36,4.36,0,0,0,2.26.63,3.1,3.1,0,0,0,.43,0,6.94,6.94,0,0,0,2.65-.42A1.05,1.05,0,0,0,90,29.81v-4C90,23.7,88.91,22.61,86.75,22.6Zm1.73,5,0,2a.55.55,0,0,1,0,.14l-.1.06a5,5,0,0,1-1.72.22c-1.62,0-1.92-.42-1.92-1.25s.32-1.24,1.94-1.24C87.06,27.46,87.68,27.5,88.48,27.57Z"/><path class="cls-1" d="M20,17a.9.9,0,0,0-.9.9c0,.23,0,3.33-.07,5.07a4.48,4.48,0,0,1-3.86,4.37,25.38,25.38,0,0,1-5.51,0,4.35,4.35,0,0,1-4.11-4.19,64.92,64.92,0,0,1,0-7.64A4.59,4.59,0,0,1,7.18,12c1.12-.9,2.22-1,5-1s5.43.42,6.28,1.56h0a.83.83,0,0,0,.52.29.78.78,0,0,0,.57-.18l3-2.69a.73.73,0,0,0,.11-1A7.82,7.82,0,0,0,17.5,5.88,45.06,45.06,0,0,0,7,5.88,7.9,7.9,0,0,0,.11,13.67c0,.39-.11,3-.11,5.57,0,2.76.11,5.52.11,5.65a7.91,7.91,0,0,0,7.07,7.75,46.19,46.19,0,0,0,10.38,0,7.84,7.84,0,0,0,6.83-7.8c0-2.24.12-4.66.09-6.92a.89.89,0,0,0-.89-.9C22.22,17,20,17,20,17Z"/><path class="cls-1" d="M16.16,19.22c0-1.52-.06-2-.09-2.69a2.5,2.5,0,0,0-2.46-2.48,15.87,15.87,0,0,0-2.58,0,2.52,2.52,0,0,0-2.48,2.5c-.05.9-.08,1.8-.08,2.69s.06,2.48.08,2.74A2.59,2.59,0,0,0,11,24.35a13.79,13.79,0,0,0,2.57,0A2.59,2.59,0,0,0,16,21.88C16,21.71,16.16,19.66,16.16,19.22Z"/></svg>