<svg id="Camada_1" data-name="Camada 1" xmlns="http://www.w3.org/2000/svg" viewBox="0 0 38 40"><defs><style>.cls-1{fill:#fff;fill-rule:evenodd;}</style></defs><g id="logo-ge-alternative-2"><path id="Fill-1" class="cls-1" d="M24.6,14a4.41,4.41,0,0,1,4.3-3.2A4,4,0,0,1,32.8,14Zm4.3-7.4A9.26,9.26,0,0,0,19.8,16h0v.1a9.27,9.27,0,0,0,9,9.5h.4c4.2,0,7.4-1.9,8.6-5.3.2-.6,0-1.1-.8-1.1H34a1.43,1.43,0,0,0-1.2.6,3.71,3.71,0,0,1-3.4,1.4,4.74,4.74,0,0,1-4.8-3.9H37a1,1,0,0,0,1-.7h0v-.2h0c.1-5.3-3.4-9.8-9.1-9.8Z"/><path id="Fill-4" class="cls-1" d="M9.41,21.1a4.67,4.67,0,0,1-4.6-4.7v-.2a4.67,4.67,0,0,1,4.5-4.8A4.52,4.52,0,0,1,14,15.5v.6A4.66,4.66,0,0,1,9.71,21l-.3.1M17.8,7H15.1a.82.82,0,0,0-.9.8V9A7,7,0,0,0,9.11,6.6,9.28,9.28,0,0,0,0,16.1v.1a8.8,8.8,0,0,0,8.4,9.1H9a6.71,6.71,0,0,0,4.89-2.1c-.1,3.9-2.1,5.7-5.49,5.7A9.86,9.86,0,0,1,2.91,27a.82.82,0,0,0-1.2.1h0c-.1.1-.1.1-.1.2L.41,29.7A.87.87,0,0,0,.61,31h.1a15.88,15.88,0,0,0,7.9,2.4c6.59,0,10.19-3.6,10.19-11.7V7.9A.88.88,0,0,0,18,7h-.2"/></g></svg>