<svg id="Camada_1" data-name="Camada 1" xmlns="http://www.w3.org/2000/svg" viewBox="0 0 42.57 40"><defs><style>.cls-1{fill:#fff;fill-rule:evenodd;}</style></defs><g id="logo-ge-alternative-2"><path id="Fill-1" class="cls-1" d="M27.58,13.3a4.87,4.87,0,0,1,4.85-3.56,4.47,4.47,0,0,1,4.41,3.56ZM32.32,5A10.38,10.38,0,0,0,22.08,15.52v.15A10.39,10.39,0,0,0,32.17,26.34h.45c4.74,0,8.29-2.1,9.59-5.93.22-.66,0-1.19-.86-1.19H37.94a1.51,1.51,0,0,0-1.31.71,4.33,4.33,0,0,1-3.81,1.6,5.22,5.22,0,0,1-5.34-4.36h14a1,1,0,0,0,1.07-.84v0a.6.6,0,0,0,0-.19h0C42.68,10.05,38.76,5,32.31,5Z"/><path id="Fill-4" class="cls-1" d="M10.49,21.24a5.24,5.24,0,0,1-5.15-5.31V15.7A5.16,5.16,0,0,1,15.63,15a4.09,4.09,0,0,1,0,.7,5.17,5.17,0,0,1-4.85,5.47h-.26M19.91,5.4H16.85a1,1,0,0,0-1.06.92V7.64A7.63,7.63,0,0,0,10.13,5,10.39,10.39,0,0,0,0,15.7,9.83,9.83,0,0,0,9.42,25.93h.63a7.52,7.52,0,0,0,5.53-2.37c-.16,4.36-2.33,6.37-6.16,6.37a11.2,11.2,0,0,1-6.2-2.14,1,1,0,0,0-1.4.12h0a.79.79,0,0,0-.14.23L.34,30.78a1.17,1.17,0,0,0,.31,1.55H.73A16.83,16.83,0,0,0,9.62,35C17,35,21,31,21,21.89V6.48a1,1,0,0,0-.88-1H20"/></g></svg>