<svg id="Camada_1" data-name="Camada 1" xmlns="http://www.w3.org/2000/svg" viewBox="0 0 100 40"><defs><style>.cls-1{fill:#fff;}</style></defs><path class="cls-1" d="M16.4,25.57V14.39a1.93,1.93,0,0,1,.4-1.31,1.26,1.26,0,0,1,1-.43,1.28,1.28,0,0,1,1,.43,1.86,1.86,0,0,1,.35,1.31V25.57a1.87,1.87,0,0,1-.39,1.31,1.3,1.3,0,0,1-1,.43,1.28,1.28,0,0,1-1-.44A1.94,1.94,0,0,1,16.4,25.57Zm76.43,1.78A7.36,7.36,0,1,1,100,19.8V20a7.26,7.26,0,0,1-7.16,7.36h0Zm0-11.67a4.36,4.36,0,1,0,4.26,4.47V20a4.33,4.33,0,0,0-4.27-4.36ZM60.64,27.35a7.36,7.36,0,1,1,7.17-7.55V20A7.26,7.26,0,0,1,60.64,27.35Zm0-11.67a4.36,4.36,0,1,0,4.26,4.47V20a4.31,4.31,0,0,0-4.26-4.36ZM83.34,20h0A7.46,7.46,0,0,0,82,15.66a7.14,7.14,0,0,0-5.58-3H72.59a1.77,1.77,0,0,0-1.34.43,2,2,0,0,0-.39,1.41v11a1.93,1.93,0,0,0,.41,1.39,1.77,1.77,0,0,0,1.34.43h3.77a7.1,7.1,0,0,0,5.52-3A7.45,7.45,0,0,0,83.34,20Zm-6.68,4.32h-3V15.63h3a4.24,4.24,0,0,1,3,1.84A4.41,4.41,0,0,1,80.46,20h0a4.53,4.53,0,0,1-.75,2.5A4.23,4.23,0,0,1,76.66,24.31ZM49.41,12.71a1.22,1.22,0,0,0-1.39.52L43.69,20l-4.32-6.74a1.21,1.21,0,0,0-1.4-.51A1.29,1.29,0,0,0,37.05,14v12a1.25,1.25,0,0,0,2.5,0V18.22L42.62,23h0l.05.08h0l0,.06.05,0h0l.07.06h0l.08,0H43a1,1,0,0,0,.39.11h.25a1.17,1.17,0,0,0,.49.07h.06l.09,0h0l.07-.05h0l0-.05,0-.05h0l.06-.09h0l3.06-4.78v7.7a1.25,1.25,0,1,0,2.5,0V14a1.28,1.28,0,0,0-.92-1.24ZM32.85,26.87H23.57A1.37,1.37,0,0,1,22.34,26a1.67,1.67,0,0,1,.19-1.67l7.61-9H23.85A1.31,1.31,0,0,1,22.6,14a1.19,1.19,0,0,1,1.15-1.21h8.57a1.79,1.79,0,0,1,1.45.57,1.75,1.75,0,0,1-.07,2l-7.36,8.77h6.52a1.38,1.38,0,1,1,0,2.76Zm-25.72.48A6.92,6.92,0,0,1,1.85,25,7.44,7.44,0,0,1,0,20.13a7.21,7.21,0,0,1,6.91-7.5h.31a9.24,9.24,0,0,1,4.84,1.43A1.44,1.44,0,0,1,12.44,16a1.31,1.31,0,0,1-1.81.43l0,0h-.06a6.53,6.53,0,0,0-3.29-1c-1.75,0-4.17,1.19-4.17,4.69a4.22,4.22,0,0,0,4.07,4.37h0a5.86,5.86,0,0,0,3.19-.78V21.59H8.29a1.4,1.4,0,0,1,0-2.76h3.4A1.37,1.37,0,0,1,13,20.22h0V24.4a1.4,1.4,0,0,1-.4,1,8,8,0,0,1-5.52,2Z"/></svg>