<svg id="Camada_1" data-name="Camada 1" xmlns="http://www.w3.org/2000/svg" viewBox="0 0 100 40"><defs><style>.cls-1{fill:#fff;fill-rule:evenodd;}</style></defs><path class="cls-1" d="M16.37,22.26H10.9A2.18,2.18,0,0,0,9.35,26a2.14,2.14,0,0,0,1.55.63h2.22a4.6,4.6,0,0,1-1.23,1.22,3.93,3.93,0,0,1-2.2.68,4.61,4.61,0,0,1-3.42-1.39,4.58,4.58,0,0,1-1.39-3.42A4.57,4.57,0,0,1,6.27,20.3a4.64,4.64,0,0,1,3.42-1.38,4.58,4.58,0,0,1,3,1.09,2.44,2.44,0,1,0,3.1-3.77A9.42,9.42,0,0,0,9.7,14a9.45,9.45,0,0,0-6.89,2.8A9.41,9.41,0,0,0,0,23.72a9.41,9.41,0,0,0,2.8,6.89,9.39,9.39,0,0,0,6.89,2.81,8.41,8.41,0,0,0,6.18-2.75,8.74,8.74,0,0,0,2.69-6.25,2.17,2.17,0,0,0-2.18-2.16h0ZM29.22,22c-.42-.19-1-.41-1.63-.67-1.46-.56-2.2-1.09-2.2-1.61s.42-1,1.26-1a6.61,6.61,0,0,1,2.26.67,6.68,6.68,0,0,0,2.19.67,2.15,2.15,0,0,0,1.63-.67,2.26,2.26,0,0,0,.65-1.65c0-1.27-.8-2.27-2.41-3a9.84,9.84,0,0,0-4.07-.86,7.5,7.5,0,0,0-4.8,1.53A5.29,5.29,0,0,0,20,19.86a4.73,4.73,0,0,0,1.62,3.65,11.94,11.94,0,0,0,3.63,2l.36.14c1.77.67,2.65,1.3,2.65,1.88,0,.76-.51,1.13-1.54,1.13a6.81,6.81,0,0,1-2.56-.81,6.69,6.69,0,0,0-2.56-.8,1.86,1.86,0,0,0-1.55.79,2.62,2.62,0,0,0-.55,1.69c0,1.41.84,2.49,2.52,3.25a10.55,10.55,0,0,0,4.34.87,8.28,8.28,0,0,0,5.16-1.6,5.64,5.64,0,0,0,2.31-4.73A4.54,4.54,0,0,0,32.42,24a11.22,11.22,0,0,0-3.2-2ZM45.88,14.1a6.27,6.27,0,0,0-4.75,1.75V10.38q0-4.05-2.77-4.05c-1.84,0-2.77,1.35-2.77,4.05v19q0,4,2.76,4t2.78-4V23q0-4.21,2.94-4.22a2.55,2.55,0,0,1,2.48,1.32,6.79,6.79,0,0,1,.49,3v6.26q0,4,2.79,4t2.78-4V21.41q0-7.31-6.74-7.31ZM99.29,15a2.42,2.42,0,0,0-1.88-.76q-1.95,0-2.61,2.28L91.89,26.88,89.37,17q-.66-2.58-2.82-2.58c-1.31,0-2.16.84-2.55,2.51L81.63,27,78.72,16.91c-.52-1.8-1.47-2.71-2.85-2.71A2.54,2.54,0,0,0,74,15a2.73,2.73,0,0,0-.74,2,4.41,4.41,0,0,0,.31,1.49l4.39,12.28c.68,1.92,1.8,2.88,3.34,2.88a3.06,3.06,0,0,0,3.16-2.71l2.14-9,2.29,8.81q.74,2.88,3.34,2.88c1.46,0,2.51-.9,3.15-2.71L99.59,18.8A6,6,0,0,0,100,17a2.77,2.77,0,0,0-.7-2ZM63.68,14a9.83,9.83,0,0,0-9.84,9.85,9.86,9.86,0,0,0,16.81,7,9.49,9.49,0,0,0,2.87-7A9.8,9.8,0,0,0,63.68,14Zm4.43,14.19a6.21,6.21,0,0,1-10.6-4.4.7.7,0,0,1,1.39,0,4.78,4.78,0,0,0,4.81,4.82,4.81,4.81,0,0,0,4.82-4.82.7.7,0,0,1,1.39,0,6.06,6.06,0,0,1-1.82,4.4Z"/></svg>