<svg id="Camada_1" data-name="Camada 1" xmlns="http://www.w3.org/2000/svg" viewBox="0 0 100 40"><defs><style>.cls-1{fill:#fff;}</style></defs><path class="cls-1" d="M17.16,10.92a1,1,0,0,1,.37.05.87.87,0,0,1,.31.2.8.8,0,0,1,.24.68V25.13c0,7.89-3.5,11.28-9.85,11.28a14.62,14.62,0,0,1-7.59-2.3,1.08,1.08,0,0,1-.3-.26,1,1,0,0,1-.17-.36.86.86,0,0,1,0-.39.92.92,0,0,1,.14-.37l1.13-2.27a.92.92,0,0,1,.24-.31A.87.87,0,0,1,2,30a.78.78,0,0,1,.4,0,.88.88,0,0,1,.35.17,9.61,9.61,0,0,0,5.35,1.77c3.31,0,5.23-1.65,5.27-5.3a6.43,6.43,0,0,1-2.17,1.51,6.68,6.68,0,0,1-2.6.53A8.49,8.49,0,0,1,0,19.83a9,9,0,0,1,8.73-9.2,6.66,6.66,0,0,1,2.68.59,6.51,6.51,0,0,1,2.21,1.64v-1a.78.78,0,0,1,.05-.37.89.89,0,0,1,.19-.31.83.83,0,0,1,.32-.2.87.87,0,0,1,.36-.05Zm-3.69,8.87A4.45,4.45,0,0,0,9,15.07a4.5,4.5,0,0,0-4.49,4.72,4.54,4.54,0,0,0,.27,1.79,4.59,4.59,0,0,0,1,1.54,4.42,4.42,0,0,0,1.49,1,4.45,4.45,0,0,0,6.2-4.36ZM20.39,24c-.19-.64.15-1,.81-1h3a1,1,0,0,1,.6.17,1.09,1.09,0,0,1,.4.47c.46.73,1.12,1.28,3,1.28,1.5,0,2.57-.43,2.57-1.28,0-3.27-10.43-.16-10.43-7.6,0-3.27,2.85-5.42,7.35-5.42,4,0,6.5,2,7.39,5,.19.64-.16,1-.81,1H31.16c-.46,0-.64-.15-1-.64-.5-.77-1.23-1.28-3-1.28-1.46,0-2.31.64-2.31,1.28,0,2.88,10.51,0,10.51,7.22,0,3.49-3.16,5.75-7.43,5.75C23.35,29,21.24,26.62,20.39,24Zm32.83-5.83v9.67a.87.87,0,0,1,0,.36.89.89,0,0,1-.19.31.79.79,0,0,1-.31.2.85.85,0,0,1-.36.05H49.48a.77.77,0,0,1-.37,0,.87.87,0,0,1-.51-.51.92.92,0,0,1-.05-.37v-8.9c0-2.56-1-3.84-3-3.84s-3.34,1.5-3.34,4v8.75a.92.92,0,0,1-.05.37.87.87,0,0,1-.51.51.77.77,0,0,1-.37,0H38.4a.77.77,0,0,1-.37,0,.87.87,0,0,1-.51-.51.92.92,0,0,1-.05-.37V4.51a.9.9,0,0,1,.05-.36A.87.87,0,0,1,38,3.64a.92.92,0,0,1,.37-.05h2.84a.92.92,0,0,1,.37.05.87.87,0,0,1,.51.51.9.9,0,0,1,.05.36v8a6.4,6.4,0,0,1,2.15-1.44,6.48,6.48,0,0,1,2.54-.48C50.86,10.63,53.22,13.42,53.22,18.14Zm2.08,1.69A9.12,9.12,0,1,1,58,26.26,9.07,9.07,0,0,1,55.3,19.83Zm14.85-.15a.66.66,0,0,0-.19-.46.65.65,0,0,0-.9,0,.62.62,0,0,0-.19.46,4.49,4.49,0,0,1-4.43,4.52,4.42,4.42,0,0,1-3.17-1.32,4.31,4.31,0,0,1-1-1.48,4.22,4.22,0,0,1-.3-1.72.66.66,0,0,0-.19-.46.63.63,0,0,0-.45-.18.62.62,0,0,0-.64.64,5.73,5.73,0,0,0,11.46,0Zm29-8.76a.76.76,0,0,1,.39.05.73.73,0,0,1,.31.24.79.79,0,0,1,.14.37.72.72,0,0,1-.07.38L94.7,28a1.1,1.1,0,0,1-.4.59,1,1,0,0,1-.68.19H90.85a1,1,0,0,1-1-.76l-3-10.64L83.91,28a1,1,0,0,1-1,.76H80.1a1,1,0,0,1-.67-.19A1.07,1.07,0,0,1,79,28L73.71,12a.71.71,0,0,1-.06-.38.73.73,0,0,1,.14-.37A.74.74,0,0,1,74.1,11a.7.7,0,0,1,.38,0H78a.93.93,0,0,1,.66.2,1,1,0,0,1,.34.6L81.51,22l2.93-10.24a.91.91,0,0,1,.35-.58,1,1,0,0,1,.65-.22h3a.94.94,0,0,1,.66.21,1,1,0,0,1,.34.59L92.37,22l2.57-10.29a.93.93,0,0,1,1-.8Z"/></svg>