<svg id="Camada_1" data-name="Camada 1" xmlns="http://www.w3.org/2000/svg" viewBox="0 0 90 40"><defs><style>.cls-1{fill:#fff;}</style></defs><path class="cls-1" d="M15.45,11.83a.91.91,0,0,1,.33,0,.75.75,0,0,1,.28.18.72.72,0,0,1,.22.62v12c0,7.1-3.15,10.15-8.87,10.15A13.18,13.18,0,0,1,.58,32.7a1.18,1.18,0,0,1-.27-.23,1,1,0,0,1-.15-.33.69.69,0,0,1,0-.35.79.79,0,0,1,.13-.33l1-2.05a.82.82,0,0,1,.22-.27A.71.71,0,0,1,1.81,29a.73.73,0,0,1,.36,0,.89.89,0,0,1,.31.15,8.69,8.69,0,0,0,4.82,1.6c3,0,4.7-1.49,4.74-4.77a5.84,5.84,0,0,1-4.29,1.83A7.64,7.64,0,0,1,0,20.28c0-.14,0-.29,0-.43a8.09,8.09,0,0,1,7.85-8.28,6.09,6.09,0,0,1,2.42.53,5.76,5.76,0,0,1,2,1.48v-.9a.78.78,0,0,1,.05-.34,1,1,0,0,1,.17-.28.79.79,0,0,1,.29-.18.85.85,0,0,1,.32,0Zm-3.32,8a4,4,0,0,0-3.75-4.24H8.11a4.06,4.06,0,0,0-4,4.06,1.21,1.21,0,0,0,0,.19,4,4,0,0,0,.24,1.61,4.11,4.11,0,0,0,.9,1.39,4.06,4.06,0,0,0,1.34.9,4,4,0,0,0,5.26-2.1,3.92,3.92,0,0,0,.32-1.82Zm6.23,3.79c-.17-.58.13-.9.73-.9h2.7a.94.94,0,0,1,.54.15,1,1,0,0,1,.36.43c.41.65,1,1.15,2.7,1.15,1.35,0,2.31-.39,2.31-1.15,0-3-9.39-.15-9.39-6.84,0-3,2.57-4.88,6.62-4.88,3.6,0,5.85,1.8,6.65,4.5.17.58-.15.9-.73.9h-2.8c-.41,0-.58-.14-.9-.58-.45-.69-1.11-1.15-2.7-1.15-1.31,0-2.08.58-2.08,1.15,0,2.6,9.46,0,9.46,6.5,0,3.14-2.84,5.18-6.69,5.18C21,28.1,19.12,26,18.36,23.6ZM47.9,18.35v8.71a.58.58,0,0,1,0,.32.73.73,0,0,1-.45.46.69.69,0,0,1-.32,0H44.54a.62.62,0,0,1-.33,0,.73.73,0,0,1-.46-.45.78.78,0,0,1,0-.34v-8q0-3.45-2.7-3.45c-1.8,0-3,1.35-3,3.6V27.1a.91.91,0,0,1,0,.33.77.77,0,0,1-.46.46.62.62,0,0,1-.33,0H34.57a.65.65,0,0,1-.34,0,.77.77,0,0,1-.46-.46.91.91,0,0,1,0-.33v-21a.85.85,0,0,1,0-.32.77.77,0,0,1,.44-.46.74.74,0,0,1,.33,0H37.1a.76.76,0,0,1,.33,0,.77.77,0,0,1,.46.46.85.85,0,0,1,0,.32v7.2A5.81,5.81,0,0,1,39.87,12a5.92,5.92,0,0,1,2.28-.43c3.63,0,5.75,2.55,5.75,6.8Zm1.88,1.53a8.21,8.21,0,1,1,2.43,5.75,8.11,8.11,0,0,1-2.43-5.78Zm13.36-.14a.57.57,0,0,0-.17-.41.58.58,0,0,0-.81,0,.55.55,0,0,0-.17.41,4,4,0,0,1-6.84,2.88,3.87,3.87,0,0,1-.9-1.33A3.73,3.73,0,0,1,54,19.74a.57.57,0,0,0-.17-.41.58.58,0,0,0-.41-.17.56.56,0,0,0-.57.54v0a5.16,5.16,0,1,0,10.31,0Zm26.1-7.88a.69.69,0,0,1,.35,0,.67.67,0,0,1,.28.22.79.79,0,0,1,.13.33.57.57,0,0,1-.07.34L85.24,27.2a1,1,0,0,1-.36.53.92.92,0,0,1-.62.17H81.77a.89.89,0,0,1-.9-.68l-2.7-9.58L75.53,27.2a.9.9,0,0,1-.9.68H72.1a.89.89,0,0,1-.61-.17.93.93,0,0,1-.38-.51L66.35,12.8a.66.66,0,0,1-.06-.34.71.71,0,0,1,.41-.56.65.65,0,0,1,.34,0h3.17a.85.85,0,0,1,.59.18,1,1,0,0,1,.31.54l2.26,9.18L76,12.59a.88.88,0,0,1,.9-.72h2.7a.86.86,0,0,1,.6.18.89.89,0,0,1,.3.54l2.64,9.21,2.31-9.26a.84.84,0,0,1,.9-.72Z"/></svg>