<svg id="Camada_1" data-name="Camada 1" xmlns="http://www.w3.org/2000/svg" viewBox="0 0 100 40"><defs><style>.cls-1{fill:#fff;}</style></defs><title>huffpost</title><g id="Layer_1" data-name="Layer 1"><path class="cls-1" d="M13,25.61h3.65l2-11.21H14.94l-.72,4H11l.72-4H8.12l-2,11.21H9.81l.74-4.19h3.17Z"/><path class="cls-1" d="M20.66,14.39l-1.11,6.24a7.16,7.16,0,0,0-.14,1.4c0,3.31,2.89,3.81,4.62,3.81,3.64,0,5.21-1.21,5.78-4.47l1.22-7H27.38l-1,5.86C26,22.07,25.77,23,24.41,23c-.89,0-1.32-.47-1.32-1.44a7.54,7.54,0,0,1,.17-1.4l1.06-5.8Z"/><path class="cls-1" d="M50.33,25.61H54l.51-2.89h1.72c3.18,0,4.94-1.72,4.94-4.86,0-2.21-1.53-3.47-4.21-3.47H52.29ZM56,20H55l.49-2.64h1c.81,0,1.24.4,1.24,1.14A1.46,1.46,0,0,1,56,20Z"/><path class="cls-1" d="M68.26,14.15c-4,0-6.35,2.57-6.35,6.89,0,3,1.89,4.8,5.05,4.8,4,0,6.35-2.57,6.35-6.89C73.33,15.95,71.44,14.15,68.26,14.15Zm-1.07,8.79c-.94,0-1.5-.68-1.5-1.82a6.22,6.22,0,0,1,.12-1.24c.28-1.47.75-2.82,2.24-2.82.94,0,1.5.68,1.5,1.82a6.22,6.22,0,0,1-.12,1.24C69.15,21.58,68.68,22.94,67.19,22.94Z"/><path class="cls-1" d="M86,25.61h3.65l1.44-8.21h2.75l.53-3H85.05l-.53,3h2.92Z"/><path class="cls-1" d="M80,18.54c-1.15-.36-1.62-.51-1.62-1.06,0-.36.24-.79.93-.79a1.17,1.17,0,0,1,1.11.72l3.22-.87c-.37-1.58-1.74-2.39-4.08-2.39-4.42,0-4.76,3-4.76,3.86,0,1.83,1,3,3.08,3.54.56.15,1.19.32,1.19.93s-.36.79-1,.79a1.47,1.47,0,0,1-1.39-.92l-3.18.86c.35,1.67,1.92,2.61,4.37,2.61,1.87,0,5-.5,5-3.89C82.89,20.25,81.93,19.14,80,18.54Z"/><path class="cls-1" d="M4.12,25.61l2-11.21h-6V25.61Z"/><path class="cls-1" d="M96,14.4,94,25.61h6V14.4Z"/><polygon class="cls-1" points="33.12 14.39 31.16 25.61 34.81 25.61 35.39 22.3 38.46 22.3 38.96 19.49 35.89 19.49 36.24 17.4 40.53 17.4 41.06 14.39 33.12 14.39"/><polygon class="cls-1" points="42.7 14.39 40.74 25.61 44.39 25.61 44.96 22.3 48.04 22.3 48.54 19.49 45.47 19.49 45.82 17.4 50.11 17.4 50.64 14.39 42.7 14.39"/></g></svg>