<svg id="Camada_1" data-name="Camada 1" xmlns="http://www.w3.org/2000/svg" viewBox="0 0 120 40"><defs><style>.cls-1{fill:#fff;}</style></defs><path class="cls-1" d="M10.8,11.06V25h-1V18.31H1.09V25H0V11.06H1V17.4H9.82V11.06Zm4,17.34a1.31,1.31,0,0,0,.28,0,2.16,2.16,0,0,0,.36,0,.75.75,0,0,0,.33-.1.69.69,0,0,0,.22-.16,2,2,0,0,0,.27-.44c.12-.23.26-.54.46-1L17.46,25,12.91,14.77h1L18,24l3.85-9.23h1l-5.67,13.4a1.81,1.81,0,0,1-.69.85,2.4,2.4,0,0,1-1.31.31h-.35Zm15-3.27a4.07,4.07,0,0,1-2.34-.7,6.07,6.07,0,0,1-1.66-1.69V29.1h-1V14.73h.9v2a5,5,0,0,1,1.65-1.57A4.39,4.39,0,0,1,31.54,15a5,5,0,0,1,1.55,1.2,5.57,5.57,0,0,1,1.37,3.65,6,6,0,0,1-.34,2,4.91,4.91,0,0,1-.95,1.68,4.49,4.49,0,0,1-1.47,1.2,4.44,4.44,0,0,1-1.9.43Zm-.24-.89a3.52,3.52,0,0,0,1.66-.38,3.92,3.92,0,0,0,1.2-1,4.84,4.84,0,0,0,1.09-3,4.53,4.53,0,0,0-2.49-4,3.63,3.63,0,0,0-1.59-.36,3.17,3.17,0,0,0-1.09.23,4.47,4.47,0,0,0-2.15,1.5,2.1,2.1,0,0,0-.44,1v3.35a5.3,5.3,0,0,0,1.53,1.92,3.81,3.81,0,0,0,1.09.58,4,4,0,0,0,1.19.21Zm11.84.89a4.92,4.92,0,0,1-2-.36,5.18,5.18,0,0,1-1.59-1.2,5.33,5.33,0,0,1-1.09-1.69,5.79,5.79,0,0,1-.38-2.06,5.08,5.08,0,0,1,.41-2,5.43,5.43,0,0,1,1.09-1.66,4.7,4.7,0,0,1,1.59-1.09,4.88,4.88,0,0,1,4,0A4.76,4.76,0,0,1,45,16.16a5.09,5.09,0,0,1,1,1.66,5.29,5.29,0,0,1,.37,2v.25a.54.54,0,0,1,0,.18H37.39a4.45,4.45,0,0,0,.41,1.64,4.64,4.64,0,0,0,.9,1.31,4,4,0,0,0,1.2.85,3.88,3.88,0,0,0,2.59.16,4.13,4.13,0,0,0,.95-.39,3.67,3.67,0,0,0,.79-.62,3,3,0,0,0,.53-.8l.88.24a3.57,3.57,0,0,1-.65,1,4.65,4.65,0,0,1-1,.79,5.32,5.32,0,0,1-1.2.52,5.16,5.16,0,0,1-1.41.2Zm4-5.68a4.82,4.82,0,0,0-.4-1.63,4.44,4.44,0,0,0-.89-1.29,3.85,3.85,0,0,0-4.21-.84,4.09,4.09,0,0,0-2.07,2.18,4.85,4.85,0,0,0-.38,1.64Zm7,5.71a8.26,8.26,0,0,1-2.52-.36,6.36,6.36,0,0,1-2.12-1.2l1-1.65a8.14,8.14,0,0,0,1.85,1,4.81,4.81,0,0,0,1.76.32,2.09,2.09,0,0,0,1.2-.28,1,1,0,0,0,.45-.84.84.84,0,0,0-.52-.81,13.06,13.06,0,0,0-1.73-.59c-.57-.15-1.09-.32-1.71-.52a3.81,3.81,0,0,1-1.09-.58,1.88,1.88,0,0,1-.63-.74,2.73,2.73,0,0,1-.2-1,3,3,0,0,1,1.2-2.47,3.72,3.72,0,0,1,1.29-.68,5.66,5.66,0,0,1,1.53-.22,7,7,0,0,1,2.18.34A5.09,5.09,0,0,1,56.14,16l-1.09,1.58a6.63,6.63,0,0,0-1.51-.86,4.39,4.39,0,0,0-1.48-.26A2.2,2.2,0,0,0,51,16.7a1,1,0,0,0-.44.89.85.85,0,0,0,.11.44.92.92,0,0,0,.33.32,3.1,3.1,0,0,0,.63.26,6.37,6.37,0,0,0,.95.26c.7.2,1.3.38,1.82.56a5.06,5.06,0,0,1,1.2.62,2.14,2.14,0,0,1,.7.82A2.19,2.19,0,0,1,56.5,22a2.83,2.83,0,0,1-1.09,2.4,4.75,4.75,0,0,1-3,.88Zm5.46-5.34a5.63,5.63,0,0,1,.28-2,5.37,5.37,0,0,1,2.8-2.88,6,6,0,0,1,5.07.29,4.62,4.62,0,0,1,1.78,1.91l-2.57.77a2.45,2.45,0,0,0-.88-.87A2.67,2.67,0,0,0,62,17a2.68,2.68,0,0,0-.89.67,3,3,0,0,0-.58,1,3.77,3.77,0,0,0-.19,1.2,3.08,3.08,0,0,0,.22,1.2,2.81,2.81,0,0,0,.56,1,2.51,2.51,0,0,0,.85.64,2.19,2.19,0,0,0,1.09.23,2.47,2.47,0,0,0,1.3-.36,2,2,0,0,0,.83-.85l2.57.78a4.42,4.42,0,0,1-1.69,1.94,6.11,6.11,0,0,1-5.18.31,5.16,5.16,0,0,1-1.69-1.2,5.26,5.26,0,0,1-1.09-1.7,5.67,5.67,0,0,1-.38-2Zm11.81-6.54V10.67h2.63v2.61Zm0,11.67V14.71h2.63V25Zm10,.21a5.74,5.74,0,0,1-2.18-.36,5.2,5.2,0,0,1-1.7-1.2,5.65,5.65,0,0,1-1.09-1.68,5.86,5.86,0,0,1-.48-2,6.12,6.12,0,0,1,.33-2.08,5,5,0,0,1,2.79-2.88,5.64,5.64,0,0,1,2.25-.44,5.29,5.29,0,0,1,2.25.44,4.76,4.76,0,0,1,1.68,1.2,4.6,4.6,0,0,1,1.09,1.68,5.7,5.7,0,0,1,.36,2v.49a1.28,1.28,0,0,1,0,.39H77a2.93,2.93,0,0,0,.28,1.09,2.7,2.7,0,0,0,1.45,1.31,2.84,2.84,0,0,0,1,.17,3,3,0,0,0,1.47-.38,2.05,2.05,0,0,0,1-1l2.25.62a4.59,4.59,0,0,1-1.8,1.93,5.62,5.62,0,0,1-3,.75ZM82.3,19a2.69,2.69,0,0,0-.85-1.84,2.57,2.57,0,0,0-1.82-.72,2.8,2.8,0,0,0-1,.18A2.72,2.72,0,0,0,77,19Zm14.1,6H93.65V19.2a2.93,2.93,0,0,0-.44-1.8,1.41,1.41,0,0,0-1.2-.57,2.15,2.15,0,0,0-.79.17,2.85,2.85,0,0,0-.79.42,4.16,4.16,0,0,0-.64.69,2.3,2.3,0,0,0-.44.85v6H86.76V14.71h2.42v1.88a3.83,3.83,0,0,1,1.63-1.51,5.13,5.13,0,0,1,2.4-.56,3,3,0,0,1,1.56.36,2.54,2.54,0,0,1,1,.92,3.74,3.74,0,0,1,.46,1.3,7.93,7.93,0,0,1,.13,1.46V25Zm1.81-5.11a5.59,5.59,0,0,1,.34-2,5.07,5.07,0,0,1,1.09-1.68,5.2,5.2,0,0,1,1.7-1.2,5.53,5.53,0,0,1,2.24-.4,5.45,5.45,0,0,1,2.87.72,4.74,4.74,0,0,1,1.78,1.91l-2.58.82a2.37,2.37,0,0,0-.87-.88,2.51,2.51,0,0,0-1.2-.3,2.17,2.17,0,0,0-1.09.23,2.52,2.52,0,0,0-.85.62,3,3,0,0,0-.58,1,4.15,4.15,0,0,0-.21,1.2,3.59,3.59,0,0,0,.22,1.21,3.14,3.14,0,0,0,.58,1,2.45,2.45,0,0,0,.85.64,2.27,2.27,0,0,0,1.09.22,2.3,2.3,0,0,0,1.3-.36,2,2,0,0,0,.83-.85l2.56.78a4.37,4.37,0,0,1-1.75,1.91,5.47,5.47,0,0,1-2.92.75,5.86,5.86,0,0,1-2.26-.43,5.52,5.52,0,0,1-1.7-1,4.77,4.77,0,0,1-1.09-1.7,5.85,5.85,0,0,1-.35-2.07Zm16.52,5.31a6,6,0,0,1-2.18-.36,5.2,5.2,0,0,1-1.7-1.2,4.78,4.78,0,0,1-1.09-1.68,5.43,5.43,0,0,1-.43-2,5.78,5.78,0,0,1,.37-2.06A5.08,5.08,0,0,1,112.4,15a5.35,5.35,0,0,1,2.27-.44,5.28,5.28,0,0,1,2.18.44,4.79,4.79,0,0,1,1.69,1.2,5.07,5.07,0,0,1,1.09,1.68,5.72,5.72,0,0,1,.36,2v.49a2.41,2.41,0,0,1,0,.38h-7.92a2.93,2.93,0,0,0,.28,1.09,2.74,2.74,0,0,0,1.47,1.31,2.45,2.45,0,0,0,1,.17,3,3,0,0,0,1.47-.38,2.12,2.12,0,0,0,1-1l2.25.62a4.62,4.62,0,0,1-1.81,1.83,5.51,5.51,0,0,1-3,.8Zm2.66-6.2a2.67,2.67,0,0,0-.9-1.84,2.6,2.6,0,0,0-1.77-.72,2.85,2.85,0,0,0-1,.18,2.42,2.42,0,0,0-.81.53,2.78,2.78,0,0,0-.58.79,3,3,0,0,0-.27,1.09Z"/></svg>