<svg id="Camada_1" data-name="Camada 1" xmlns="http://www.w3.org/2000/svg" viewBox="0 0 78 40"><defs><style>.cls-1{fill:#fff;}</style></defs><path class="cls-1" d="M41.69,22.08V17.84H53.05a2.1,2.1,0,0,1,2.11,2.08V25a4.7,4.7,0,0,1-4.7,4.71H43.18A9.74,9.74,0,1,1,42,10.31l.52,0H54.44v4.47H43.14a5.27,5.27,0,0,0-.88,10.5h8.4V22.08ZM31.93,10.24H27.52V27.67a2.09,2.09,0,0,0,2.09,2.07H32V11.68Zm44.05,0H73.63V25.31a.2.2,0,0,1,0,.11.26.26,0,0,1-.26.15.32.32,0,0,1-.28-.16L65.62,12.33A4.72,4.72,0,0,0,61.57,10h-.09a4.71,4.71,0,0,0-4.71,4.71v13a2.08,2.08,0,0,0,2.09,2h2.35v-15a.38.38,0,0,1,0-.15.3.3,0,0,1,.52,0L69.2,27.71a4.56,4.56,0,0,0,4,2.22h.08A4.7,4.7,0,0,0,78,25.23V12.28a2.07,2.07,0,0,0-2-2.07h0ZM5.28,15.72A8.06,8.06,0,0,1,7.53,13.5a30.41,30.41,0,0,1,.52-3.15,10.39,10.39,0,0,0-5.91,5.88C3.18,16,4.23,15.84,5.28,15.72ZM16,13.48h0a7.73,7.73,0,0,1,2.22,2.23,28.1,28.1,0,0,1,3.16.51,10.38,10.38,0,0,0-5.85-5.88A30.49,30.49,0,0,1,16,13.48Zm-8.48,13A8,8,0,0,1,5.3,24.28h0c-1-.12-2.1-.29-3.14-.51A10.43,10.43,0,0,0,8,29.65,27.92,27.92,0,0,1,7.53,26.5Zm10.78-2.22h0a7.73,7.73,0,0,1-2.23,2.22h0a27.61,27.61,0,0,1-.52,3.13,10.42,10.42,0,0,0,5.86-5.86c-1,.22-2.08.39-3.12.51Zm5.23-6.16A20,20,0,0,0,18,16.86h-.54L14.61,20l2.9,3.24a3.21,3.21,0,0,0,.62,0,20.18,20.18,0,0,0,5.41-1.36ZM6,16.76H5.5A20.06,20.06,0,0,0,0,18.12v3.76a19.83,19.83,0,0,0,5.41,1.27,3.31,3.31,0,0,0,.63,0L9,20Zm2.49,9a4.86,4.86,0,0,0,0,.54,20,20,0,0,0,1.32,5.5h3.82A19.87,19.87,0,0,0,15,26.36a3.36,3.36,0,0,0,.06-.63l-3.25-2.9ZM9.85,8.23h3.82A19.87,19.87,0,0,1,15,13.64a3.36,3.36,0,0,1,.06.63l-3.25,2.9-3.24-2.9a4.86,4.86,0,0,1,0-.54A20,20,0,0,1,9.85,8.23Z"/></svg>