<svg id="Camada_1" data-name="Camada 1" xmlns="http://www.w3.org/2000/svg" viewBox="0 0 82.83 40"><defs><style>.cls-1{fill:#fff;}</style></defs><path class="cls-1" d="M44.27,22.21v-4.5H56.34a2.24,2.24,0,0,1,2.24,2.21v5.43a5,5,0,0,1-5,5H45.85a10.34,10.34,0,1,1-.72-20.66H57.81v4.75h-12a5.59,5.59,0,1,0-.53,11.16h8.52V22.21ZM33.91,9.64H29.22v18.5a2.22,2.22,0,0,0,2.22,2.2h2.5V11.16Zm46.78,0h-2.5v16a.24.24,0,0,1,0,.12.32.32,0,0,1-.28.16.34.34,0,0,1-.29-.17L69.68,11.86a5,5,0,0,0-4.3-2.44h-.09a5,5,0,0,0-5,5V28.18a2.2,2.2,0,0,0,2.21,2.16H65V14.41a.38.38,0,0,1,0-.15.32.32,0,0,1,.28-.16.3.3,0,0,1,.27.16l7.94,13.93a4.85,4.85,0,0,0,4.25,2.36h.09a5,5,0,0,0,5-5V11.8a2.2,2.2,0,0,0-2.18-2.2h0ZM5.61,15.46A8.42,8.42,0,0,1,8,13.1a31.6,31.6,0,0,1,.55-3.35A11.07,11.07,0,0,0,2.27,16,31.8,31.8,0,0,1,5.61,15.46ZM17,13.08h0a8.16,8.16,0,0,1,2.36,2.36,29.23,29.23,0,0,1,3.35.55A11,11,0,0,0,16.5,9.74,31,31,0,0,1,17,13.08ZM8,26.9a8.32,8.32,0,0,1-2.37-2.36h0A33.33,33.33,0,0,1,2.29,24a11.07,11.07,0,0,0,6.25,6.25A26.91,26.91,0,0,1,8,26.9Zm11.44-2.36h0a8.16,8.16,0,0,1-2.36,2.36h0a28.92,28.92,0,0,1-.56,3.33A11.07,11.07,0,0,0,22.75,24c-1.1.24-2.21.42-3.32.55ZM25,18a21.06,21.06,0,0,0-5.85-1.33,2.81,2.81,0,0,0-.58,0L15.51,20l3.08,3.44a3.64,3.64,0,0,0,.66,0A21.51,21.51,0,0,0,25,22ZM6.41,16.56H5.84A21.38,21.38,0,0,0,0,18V22a21.41,21.41,0,0,0,5.75,1.35,3.64,3.64,0,0,0,.66,0L9.5,20Zm2.65,9.53a5.42,5.42,0,0,0,0,.57,21.29,21.29,0,0,0,1.4,5.84h4.06a21.44,21.44,0,0,0,1.37-5.75,3.68,3.68,0,0,0,.06-.66L12.5,23ZM10.46,7.5h4.06a21.44,21.44,0,0,1,1.37,5.75,3.68,3.68,0,0,1,.06.66L12.5,17,9.06,13.91a5.42,5.42,0,0,1,0-.57A21.38,21.38,0,0,1,10.46,7.5Z"/></svg>