<svg id="Camada_1" data-name="Camada 1" xmlns="http://www.w3.org/2000/svg" viewBox="0 0 70 40"><defs><style>.cls-1{fill:#fff;}</style></defs><path class="cls-1" d="M37.41,21.85v-3.8h10.2a1.88,1.88,0,0,1,1.89,1.86v4.56a4.21,4.21,0,0,1-4.21,4.23H38.75a8.74,8.74,0,0,1-2.23-17.34,9.18,9.18,0,0,1,1.17-.07H48.86v4H38.72a4.73,4.73,0,0,0-.79,9.43h7.53V21.85ZM28.66,11.23h-4V26.87a1.87,1.87,0,0,0,1.87,1.86h2.15V12.52Zm39.53,0H66.08V24.75a.17.17,0,0,1,0,.1.26.26,0,0,1-.24.14.31.31,0,0,1-.25-.15L58.89,13.1A4.25,4.25,0,0,0,55.26,11h-.09A4.22,4.22,0,0,0,51,15.24V26.91a1.86,1.86,0,0,0,1.87,1.79h2.11V15.24a.33.33,0,0,1,0-.14A.27.27,0,0,1,55.3,15a.22.22,0,0,1,.1.09l6.7,11.81a4.1,4.1,0,0,0,3.59,2h.07A4.22,4.22,0,0,0,70,24.7V13.06a1.86,1.86,0,0,0-1.79-1.86h0ZM4.74,16.15a7.13,7.13,0,0,1,2-2,26.72,26.72,0,0,1,.46-2.82,9.32,9.32,0,0,0-5.3,5.27A27.11,27.11,0,0,1,4.74,16.15Zm9.62-2h0a6.9,6.9,0,0,1,2,2,27.49,27.49,0,0,1,2.84.45,9.32,9.32,0,0,0-5.25-5.27A26.62,26.62,0,0,1,14.36,14.14ZM6.75,25.8a7,7,0,0,1-2-2h0c-.9-.11-1.89-.26-2.82-.46a9.35,9.35,0,0,0,5.24,5.28,24.76,24.76,0,0,1-.42-2.83Zm9.67-2h0a6.9,6.9,0,0,1-2,2h0A26.54,26.54,0,0,1,14,28.61a9.33,9.33,0,0,0,5.25-5.26,27.71,27.71,0,0,1-2.8.46Zm4.7-5.53a18.08,18.08,0,0,0-5-1.11h-.48L13.11,20l2.6,2.9a2.62,2.62,0,0,0,.56,0,18.15,18.15,0,0,0,4.86-1.22ZM5.38,17.08H4.94A17.88,17.88,0,0,0,0,18.3v3.37a17.65,17.65,0,0,0,4.86,1.14,2.62,2.62,0,0,0,.56,0L8.08,20Zm2.24,8.08a3.84,3.84,0,0,0,0,.48A18.27,18.27,0,0,0,8.8,30.58h3.43a17.92,17.92,0,0,0,1.23-4.89,2.6,2.6,0,0,0,.06-.56l-2.92-2.6ZM8.84,9.42h3.43a18.1,18.1,0,0,1,1.19,4.86,2.67,2.67,0,0,1,.06.56L10.6,17.45,7.69,14.84a3.84,3.84,0,0,1,0-.48A18.31,18.31,0,0,1,8.84,9.42Z"/></svg>