<svg id="home_img" data-name="home img" xmlns="http://www.w3.org/2000/svg" viewBox="0 0 64 40"><defs><style>.cls-1{fill:#fff;}</style></defs><path class="cls-1" d="M37.83,14.24a2.65,2.65,0,0,0-1.13-.16V25.89c.73,0,1.18-.13,1.35-.4a5.47,5.47,0,0,0,.25-2.2v-7a9.51,9.51,0,0,0-.08-1.57A.76.76,0,0,0,37.83,14.24Z"/><path class="cls-1" d="M50.53,18.29c-.26,0-.67.11-.75.3v7.22c.09.2.48.32.75.32s.67-.11.75-.32a5.55,5.55,0,0,0,.13-1.53V20a4.29,4.29,0,0,0-.14-1.38A.9.9,0,0,0,50.53,18.29Z"/><path class="cls-1" d="M60,4H4A4,4,0,0,0,0,8V32a4,4,0,0,0,4,4H60a4,4,0,0,0,4-4V8A4,4,0,0,0,60,4ZM13,29H8V11h5Zm17,0H25.77V16.85L24.06,29H21L19.26,17.11l0,11.89H15V11h6.28c.18,1.09.38,2.37.58,3.84l.69,4.57L23.67,11H30Zm13-3.18A3.19,3.19,0,0,1,39.8,29H32V11h7.8A3.19,3.19,0,0,1,43,14.18Zm13,0A3.19,3.19,0,0,1,52.75,29h-.32a3.3,3.3,0,0,1-2.66-1.33l-.29,1.1H45V11h4.78v5.78a3.4,3.4,0,0,1,2.65-1.27h.32A3.19,3.19,0,0,1,56,18.64Z"/></svg>