<svg id="Camada_1" data-name="Camada 1" xmlns="http://www.w3.org/2000/svg" viewBox="0 0 100 40"><defs><style>.cls-1{fill:#fff;fill-rule:evenodd;}</style></defs><path class="cls-1" d="M100,14H96.44s-2,7-2.39,7.81c0,0-2.26-6.16-2.6-7.81H87.8a68.52,68.52,0,0,0,4.57,11.34v0a2.83,2.83,0,0,1-1.12,1.34,2.71,2.71,0,0,1-.8.35,3.45,3.45,0,0,1-.9.1c-.16,0-1.27,0-1.27,0V30h2.14a4.48,4.48,0,0,0,.82-.1,5.07,5.07,0,0,0,2.94-1.81h0C97.32,24.34,100,14,100,14M61.31,22.25a2.27,2.27,0,0,1-3.62,0,4.13,4.13,0,0,1-.64-2.44,4,4,0,0,1,.64-2.41,2.3,2.3,0,0,1,3.62,0,4.06,4.06,0,0,1,.63,2.41,4.18,4.18,0,0,1-.63,2.44m2.46-6.89a5.49,5.49,0,0,0-1.87-1.25,6.45,6.45,0,0,0-2.4-.44,6.33,6.33,0,0,0-2.37.44A5.45,5.45,0,0,0,54,17.3a6.72,6.72,0,0,0-.45,2.51A7.11,7.11,0,0,0,54,22.34a5.76,5.76,0,0,0,1.22,2,5.26,5.26,0,0,0,1.87,1.25A6.28,6.28,0,0,0,59.5,26,6.37,6.37,0,0,0,62,25.55a5.49,5.49,0,0,0,1.87-1.25,5.4,5.4,0,0,0,1.19-2,7.34,7.34,0,0,0,.41-2.53A6.92,6.92,0,0,0,65,17.3a5.58,5.58,0,0,0-1.22-1.94M75.5,15.2a3.86,3.86,0,0,0-1.63-1.14,7.38,7.38,0,0,0-2.58-.39,19.57,19.57,0,0,0-2.92.21,20.51,20.51,0,0,0-2.27.47V26h3.45V16.69c.22,0,.46-.06.74-.08l.79,0a1.79,1.79,0,0,1,1.64.69,4.44,4.44,0,0,1,.44,2.33V26h3.45V19.19a9.74,9.74,0,0,0-.25-2.25,4.58,4.58,0,0,0-.86-1.74m-27.13-3c-.39.78-.76,1.57-1.12,2.37s-.78,1.72-1.16,2.61L45,19.67c-.34-.78-.7-1.62-1.08-2.51s-.76-1.74-1.15-2.61-.74-1.59-1.12-2.37c-.31-.63-.62-1.24-1-1.85H37V26h3.6V16.82l.42.88c.33.77.67,1.54,1,2.31s.65,1.5,1,2.2L43.7,24h2.48q.32-.75.78-1.8l.95-2.2,1-2.31c.14-.3.26-.6.39-.88V26h3.59V10.33H49.31s-.6,1.14-.94,1.85"/><path class="cls-1" d="M80.63,17.82a2.14,2.14,0,0,1,.42-.73,2.26,2.26,0,0,1,.67-.5,2.45,2.45,0,0,1,1-.19,2.13,2.13,0,0,1,1,.21,2,2,0,0,1,1,1.22,3.28,3.28,0,0,1,.14.82H80.41a4.84,4.84,0,0,1,.22-.83m3.07,5.33a4,4,0,0,1-2.31-.6,2.19,2.19,0,0,1-1-1.62h7.66c0-.18,0-.39,0-.62s0-.44,0-.63a6.23,6.23,0,0,0-1.48-4.49,5.32,5.32,0,0,0-4-1.52,5.65,5.65,0,0,0-2.11.4,5.25,5.25,0,0,0-1.82,1.18,6,6,0,0,0-1.29,1.94A7.16,7.16,0,0,0,77,19.92a7.56,7.56,0,0,0,.37,2.41,5.05,5.05,0,0,0,1.16,1.92,5.38,5.38,0,0,0,2,1.28,7.62,7.62,0,0,0,2.79.47,10.69,10.69,0,0,0,1.27-.07c.42,0,.82-.1,1.19-.16a10.06,10.06,0,0,0,1-.24l.26-.08V22.57a6.4,6.4,0,0,1-1.45.41,9.2,9.2,0,0,1-1.82.17M14.48,15.2a3.86,3.86,0,0,0-1.63-1.14,7.3,7.3,0,0,0-2.58-.39,19.57,19.57,0,0,0-2.92.21,19.79,19.79,0,0,0-2.26.47V26H8.53V16.69l.75-.08.78,0a1.82,1.82,0,0,1,1.65.69,4.56,4.56,0,0,1,.43,2.33V26h3.45V19.19a9.23,9.23,0,0,0-.25-2.25,4.44,4.44,0,0,0-.86-1.74m17.33,7.05a2.07,2.07,0,0,1-1.8.9,2.09,2.09,0,0,1-1.81-.9,4.13,4.13,0,0,1-.64-2.44,4,4,0,0,1,.64-2.41A2.1,2.1,0,0,1,30,16.52a2.07,2.07,0,0,1,1.8.88,4,4,0,0,1,.63,2.41,4.11,4.11,0,0,1-.63,2.44m2.47-6.89a5.49,5.49,0,0,0-1.87-1.25,6.45,6.45,0,0,0-2.4-.44,6.29,6.29,0,0,0-2.37.44,5.57,5.57,0,0,0-1.89,1.25,5.77,5.77,0,0,0-1.24,1.94,6.92,6.92,0,0,0-.44,2.51,7.11,7.11,0,0,0,.43,2.53,5.76,5.76,0,0,0,1.22,2,5.26,5.26,0,0,0,1.87,1.25A6.28,6.28,0,0,0,30,26a6.4,6.4,0,0,0,2.45-.45,5.49,5.49,0,0,0,1.87-1.25,5.55,5.55,0,0,0,1.19-2,7.34,7.34,0,0,0,.41-2.53,6.92,6.92,0,0,0-.43-2.51,5.58,5.58,0,0,0-1.22-1.94M0,26H3.39V10.33H0Z"/><path class="cls-1" d="M20.48,14.05A1.23,1.23,0,0,1,21.17,13l.06,0h0l.14,0a2.93,2.93,0,0,1,.89-.08h2.48V10H21.13A4.11,4.11,0,0,0,17,14h0c0,.24,0,12,0,12h3.53V18.19h3.79V15.4H20.48Z"/></svg>