<svg id="Camada_1" data-name="Camada 1" xmlns="http://www.w3.org/2000/svg" viewBox="0 0 100 40"><defs><style>.cls-1{fill:#fff;}</style></defs><path class="cls-1" d="M68.87,8.84l-1.81.51,0,1.74a5.31,5.31,0,0,0,.1,1.76,7.79,7.79,0,0,0,1.06-.25c.49-.15,1.36-.38,1.94-.55l1-.3V10c0-1.27,0-1.72-.21-1.71S69.87,8.57,68.87,8.84Z"/><path class="cls-1" d="M2.9,9.88l-2.21.61-.69.2V27H4.72v-8.8c0-4.85-.06-8.81-.13-8.79S3.76,9.64,2.9,9.88Z"/><path class="cls-1" d="M61.89,10.77,60,11.29,59,11.6v6.23c0,6.67.09,7.49.93,8.38a3.56,3.56,0,0,0,1.32.71,10.88,10.88,0,0,0,4.05.13,12.13,12.13,0,0,0,1-3c0-.09-.52-.15-1.16-.15-1.76,0-1.74,0-1.74-3.81V16.86l1.12-.05,1.11,0,.35-1.18a11,11,0,0,0,.32-1.42c0-.15-.41-.22-1.45-.22H63.34V12.22C63.34,10.28,63.38,10.31,61.89,10.77Z"/><path class="cls-1" d="M8.13,14.16l-2,.54V27h4.36v-3.9c0-4.27.09-4.79,1-5.5a2.45,2.45,0,0,1,2.73,0c.63.58.81,1.83.81,6V27h4.18V22.24c0-3.78-.06-5-.27-5.72-.59-1.92-2-2.87-4.36-2.83A4.72,4.72,0,0,0,11,15.1l-.68.68V14.67c0-.6-.05-1.09-.12-1.07S9.2,13.85,8.13,14.16Z"/><path class="cls-1" d="M37.3,13.76a7.09,7.09,0,0,0-4.92,3.87,5.36,5.36,0,0,0-.53,3,5.32,5.32,0,0,0,.47,2.9c1.22,2.6,3.32,3.81,6.54,3.83a10.18,10.18,0,0,0,5.86-1.71c.34-.25.34-.29-.16-1.68-.28-.8-.53-1.47-.57-1.51s-.36.2-.74.53c-2.16,1.9-5.68,2.08-6.73.36-.13-.22-.22-.42-.19-.44s6.81-1.92,8.75-2.43c.29-.07.33-.22.22-1.18a6.14,6.14,0,0,0-5.94-5.66A9.68,9.68,0,0,0,37.3,13.76Zm2.43,3c.67.32,1.5,1.32,1.43,1.68,0,.18-.83.49-2.5,1-1.35.39-2.51.71-2.58.71s-.18-.76.07-1.47C36.75,16.86,38.33,16,39.73,16.76Z"/><path class="cls-1" d="M50.45,13.69C48.4,14,46.68,15,46.17,16.25a3.66,3.66,0,0,0,.76,3.9c.71.65,1.47.94,3.85,1.49,3,.67,3.58,1.09,3,2.12-.29.58-.94.89-2,.89a2.2,2.2,0,0,1-2.32-1.36l-.35-.78L47.6,23l-1.81.51c-.4.13.18,1.42,1.05,2.31,1.15,1.14,2.6,1.59,5.07,1.59,3.9,0,6.33-1.69,6.35-4.41a3.3,3.3,0,0,0-1.11-2.61c-.74-.69-1.58-1-3.74-1.42A11.56,11.56,0,0,1,51,18.26c-.7-.33-.78-.42-.72-.94s.16-.6.76-.8a3.2,3.2,0,0,1,1.36-.11,2.71,2.71,0,0,1,1.67,1.33c.07.18.46.12,1.89-.26,1-.27,1.83-.51,1.87-.54s-.4-1.15-.84-1.6C55.83,14.05,52.89,13.33,50.45,13.69Z"/><path class="cls-1" d="M68.93,14.16l-2,.54V27h4.17V20.29c0-3.7,0-6.71-.12-6.69S70,13.85,68.93,14.16Z"/><path class="cls-1" d="M74.77,14.11a15.5,15.5,0,0,0-2,.63c-.16.09-.21,1.6-.21,6.21V27H77V23.23a37.56,37.56,0,0,1,.18-4.41,2,2,0,0,1,2.05-1.57c.82-.08,1,0,1.47.34.71.62.82,1.42.84,5.64V27h4.19l-.05-5.23c-.06-5-.08-5.24-.46-6-.81-1.51-2-2.16-4.14-2.14a4.33,4.33,0,0,0-3.43,1.36l-.83.76V14.69c0-.6,0-1.11-.13-1.09S75.72,13.83,74.77,14.11Z"/><path class="cls-1" d="M91.05,13.78A5.74,5.74,0,0,0,87.24,17c-.33.73-.4,1.18-.4,3.12s0,2.36.47,3.27a4.93,4.93,0,0,0,4.45,3.05,4,4,0,0,0,3.49-1.13l.81-.74L96,25.76c-.18,2.23-.92,3.06-2.7,3.06a1.59,1.59,0,0,1-1.51-.59,3.55,3.55,0,0,1-.69-.84c0-.22-.38-.18-1.89.24-1,.29-1.85.54-1.92.6-.24.12.53,1.43,1.2,2,1.39,1.24,4.21,1.76,6.62,1.25a6,6,0,0,0,3.61-2C100,28,100,27.81,100,20.26c0-3.67,0-6.68,0-6.68s-.48.11-1,.25l-1.92.55c-.89.25-1,.36-1,.72s-.08.35-.8-.34A4.17,4.17,0,0,0,91.05,13.78Zm3.83,3.54c1.05.69,1.45,3.08.76,4.52a2.39,2.39,0,0,1-4.53-.64c-.42-1.76.16-3.57,1.32-4.1A3,3,0,0,1,94.88,17.32Z"/><path class="cls-1" d="M19.15,14.34c.07.24,1,3.18,2.14,6.55l2,6.14L25.84,27l2.53,0,2.07-6.17c1.12-3.4,2.1-6.32,2.16-6.5s-.1-.31-2.07-.31H28.37l-1.13,4c-.62,2.23-1.18,4.19-1.25,4.38s-.55-1.22-1.31-4L23.5,14l-2.23,0L19,13.92Z"/></svg>