<svg id="Camada_1" data-name="Camada 1" xmlns="http://www.w3.org/2000/svg" viewBox="0 0 110 40"><defs><style>.cls-1{fill:#fff;}</style></defs><path class="cls-1" d="M50.55,12.74c0,1.07-.17,1.83-.51,2.1a1.63,1.63,0,0,0-.52,1.07.59.59,0,0,0,.52.65c.41,0,.51.65.55,3.68A21.45,21.45,0,0,0,51,25.12a4.2,4.2,0,0,0,3.1,2.65c.82.17.92.11.92-.65s-.2-.9-1-1.07c-1.44-.27-1.72-1.24-1.72-5.74V16.56h1.38c1.13,0,1.37-.1,1.37-.69s-.24-.68-1.37-.68H52.27V13.12c0-2,0-2.06-.86-2.06S50.55,11.16,50.55,12.74Z"/><path class="cls-1" d="M0,12.92c0,.72.17.89.89.89s.86-.14.76-.79a1,1,0,0,0-.86-.86C.14,12.06,0,12.19,0,12.92Z"/><path class="cls-1" d="M103.52,14.46c0,.45-.31.73-1,.9a3.37,3.37,0,0,0-2.44,4.43c.41,1.31,1.54,2,4.26,2.62,2.3.51,3,.93,3,1.89s-.9,1.55-2.37,1.55-2.07-.31-2.65-1.41a1.46,1.46,0,0,0-1.52-1c-1.34,0-1.51.45-.82,1.92a3.85,3.85,0,0,0,2.1,1.93c.82.34,1.48.86,1.48,1.14s.41.51,1.37.51,1.38-.14,1.38-.48.51-.65,1.17-.89A3.32,3.32,0,0,0,110,24.51c.27-2-.49-3-2.89-3.68-4.13-1.17-4.4-1.31-4.4-2.21s1.34-1.82,2.57-1.51c1,.24,2.07,1.1,2.07,1.76,0,.27.41.44,1.2.44,1,0,1.21-.1,1.21-.82a3.84,3.84,0,0,0-2.41-3c-.62-.28-1-.69-1-1.07s-.28-.65-1.38-.65S103.52,13.91,103.52,14.46Z"/><path class="cls-1" d="M0,21.55v6.36H1.72V15.19H0Z"/><path class="cls-1" d="M3.1,21.55v6.36H4.81V23.82c0-3.65.07-4.16.8-5.23,1.44-2.13,3.64-2.61,5.29-1.2,1,.82,1,.89,1.14,5.6s.2,4.75,1,4.85.76.1.76-4.4c0-5.16-.38-6.5-2.14-7.57a4.83,4.83,0,0,0-6.29,1.24c-.45.62-.48.55-.52-.65s-.1-1.27-.86-1.27H3.1Z"/><path class="cls-1" d="M16.82,21.44c3.54,8.4,3.4,8.4,6.81.28,1.37-3.3,2.51-6.12,2.51-6.26s-.38-.27-.79-.27c-.73,0-1,.55-2.86,5.15a44.19,44.19,0,0,1-2.23,5.16,45.21,45.21,0,0,1-2.2-5.16c-1.9-4.91-2-5.15-2.93-5.15h-1Z"/><path class="cls-1" d="M29.27,15.77a6.54,6.54,0,0,0-2.07,2c-.75,1.14-.89,1.72-.89,3.78,0,3.72,1.55,5.71,4.88,6.26a5.77,5.77,0,0,0,5.26-2.34c.86-1.44.86-1.65-.1-1.65a1.71,1.71,0,0,0-1.37,1,4,4,0,0,1-4,1.58,4.71,4.71,0,0,1-3.13-3.92c0-.69.17-.72,4.85-.72h4.84l-.24-1.48C36.63,16.08,32.88,14,29.27,15.77Zm5.33,2a3.47,3.47,0,0,1,1.17,2.06v.9h-4c-2.65,0-3.95-.14-3.95-.38a5.32,5.32,0,0,1,2-3.23,5.9,5.9,0,0,1,2.23-.52A3,3,0,0,1,34.6,17.73Z"/><path class="cls-1" d="M41.2,15.7a3,3,0,0,0-1.65,3.06c0,1.52,1,2.37,3.54,3,3.41.79,4,1.2,4,2.51s-.51,1.93-2.2,2.2a3.75,3.75,0,0,1-3.85-1.65c-.48-1-1.85-1.41-1.85-.65a4.56,4.56,0,0,0,2.16,3c1.62.86,4.75.79,6-.1,1.75-1.35,1.92-4.1.27-5.16a16.21,16.21,0,0,0-3.34-1.21c-3.26-.82-4.16-1.92-2.68-3.4a3.75,3.75,0,0,1,4.65.17,2.6,2.6,0,0,1,.85,1.38c0,.27.31.51.69.51,1,0,.9-1.48-.31-2.82-.86-1-1.2-1.1-3.16-1.2A5.85,5.85,0,0,0,41.2,15.7Z"/><path class="cls-1" d="M56.74,21.55v6.36H59.5V24.13c0-5,.75-6.54,3.26-6.54,2.34,0,2.93,1.34,2.93,6.61v3.74l1.3-.1,1.28-.1V23.1c0-3.72-.14-4.85-.62-5.75a4.39,4.39,0,0,0-4.17-2.16,3.5,3.5,0,0,0-2.78,1.06l-1.2,1.07V16.25c0-1-.07-1.06-1.38-1.06H56.74Z"/><path class="cls-1" d="M73.25,15.43a6.44,6.44,0,0,0-3.78,6.05,6,6,0,0,0,11.18,3.3l.55-1H79.72c-1.14,0-1.58.17-1.93.69-1.06,1.75-4.09,1.51-5.05-.34-1-2-1-2.07,4-2.07h4.47V20.93A7.19,7.19,0,0,0,78.44,16,7.1,7.1,0,0,0,73.25,15.43ZM77.52,18a2.23,2.23,0,0,1,.89,1.55c0,.82,0,.82-3.09.82-3.48,0-3.72-.24-2.21-2A3.12,3.12,0,0,1,77.52,18Z"/><path class="cls-1" d="M81.16,15.39c0,.1.86,2.89,1.89,6.19s1.89,6.09,1.89,6.16c0,.34,2.38.17,2.58-.17s.83-2.27,1.55-4.58c1.24-3.92,1.34-4.12,1.69-3.23a8.32,8.32,0,0,1,.37,1.17c0,.1.49,1.72,1,3.58l1.06,3.4H94.4c.79,0,1.27-.21,1.48-.62s1.07-3,1.93-5.85S99.49,16,99.59,15.7s-.1-.51-1.3-.51H96.81l-1.2,4.47C95,22.13,94.33,24,94.23,23.71s-.76-2.27-1.41-4.47l-1.17-4H89.17l-1.3,4.47A29.85,29.85,0,0,1,86.42,24a22.15,22.15,0,0,1-.82-2.65c-1.82-6.7-1.55-6.15-3.06-6.15C81.78,15.19,81.16,15.29,81.16,15.39Z"/></svg>