<svg id="Camada_1" data-name="Camada 1" xmlns="http://www.w3.org/2000/svg" viewBox="0 0 90 40"><defs><style>.cls-1{fill:#fff;}</style></defs><path class="cls-1" d="M62,10l-1.63.46V12a5.24,5.24,0,0,0,.09,1.58,7.45,7.45,0,0,0,1-.22c.44-.14,1.22-.35,1.74-.5l.9-.27V11c0-1.15,0-1.55-.18-1.54S62.88,9.73,62,10Z"/><path class="cls-1" d="M2.61,10.91l-2,.55L0,11.64V26.32H4.25V18.4c0-4.37-.06-7.93-.12-7.91Z"/><path class="cls-1" d="M55.7,11.71l-1.7.47-.9.28v5.6c0,6,.08,6.74.84,7.55a3.14,3.14,0,0,0,1.18.63,9.75,9.75,0,0,0,3.65.12,10.72,10.72,0,0,0,.9-2.7c0-.08-.47-.13-1-.13-1.59,0-1.57,0-1.57-3.43V17.19l1,0h1l.31-1.07a9.33,9.33,0,0,0,.29-1.27c0-.14-.37-.2-1.31-.2H57V13C57,11.27,57,11.3,55.7,11.71Z"/><path class="cls-1" d="M7.32,14.76l-1.8.49V26.32H9.44V22.81c0-3.85.08-4.31.9-4.95a2.2,2.2,0,0,1,2.46,0c.56.52.73,1.64.73,5.4v3.06h3.76V22a24.29,24.29,0,0,0-.24-5.15c-.54-1.72-1.8-2.58-3.93-2.54A4.21,4.21,0,0,0,9.9,15.61l-.61.61v-1c0-.54,0-1-.11-1S8.28,14.48,7.32,14.76Z"/><path class="cls-1" d="M33.57,14.4a6.39,6.39,0,0,0-4.43,3.48,5,5,0,0,0-.48,2.7,4.78,4.78,0,0,0,.43,2.61c1.1,2.34,3,3.43,5.88,3.45a9.16,9.16,0,0,0,5.28-1.54c.3-.22.3-.26-.15-1.51a14.45,14.45,0,0,0-.51-1.36s-.32.18-.67.48c-1.94,1.71-5.11,1.87-6.05.32-.12-.2-.2-.38-.17-.39s6.13-1.73,7.87-2.19c.26-.06.3-.2.2-1.06a5.53,5.53,0,0,0-5.35-5.1A8.81,8.81,0,0,0,33.57,14.4Zm2.19,2.7c.6.29,1.35,1.19,1.28,1.51,0,.16-.74.44-2.25.9-1.21.35-2.25.64-2.32.64a2,2,0,0,1,.07-1.32C33.07,17.19,34.5,16.42,35.76,17.1Z"/><path class="cls-1" d="M45.41,14.34c-1.85.28-3.4,1.18-3.86,2.3a3.3,3.3,0,0,0,.69,3.51c.64.59,1.32.85,3.46,1.34,2.7.61,3.22,1,2.7,1.91-.26.52-.84.8-1.8.8A2,2,0,0,1,44.51,23l-.31-.7-1.36.44-1.63.46c-.36.11.16,1.27.95,2.07,1,1,2.34,1.44,4.56,1.44,3.51,0,5.7-1.53,5.71-4a3,3,0,0,0-1-2.35c-.66-.62-1.42-.9-3.36-1.28a10.21,10.21,0,0,1-2.17-.64c-.63-.3-.7-.38-.65-.85s.15-.54.69-.72a2.79,2.79,0,0,1,1.22-.09A2.39,2.39,0,0,1,48.66,18c.07.16.42.11,1.7-.23.9-.24,1.65-.46,1.69-.49a4.22,4.22,0,0,0-.76-1.44C50.25,14.66,47.6,14,45.41,14.34Z"/><path class="cls-1" d="M62,14.76l-1.8.49V26.32H64v-6a58.36,58.36,0,0,0-.11-6C63.77,14.27,63,14.48,62,14.76Z"/><path class="cls-1" d="M67.29,14.72a12.91,12.91,0,0,0-1.8.56c-.14.08-.19,1.44-.19,5.59v5.45h4v-3.4a35.14,35.14,0,0,1,.16-4,1.81,1.81,0,0,1,1.85-1.41,1.45,1.45,0,0,1,1.32.31c.64.56.74,1.28.76,5.07v3.4h3.77l0-4.71c0-4.5-.07-4.72-.41-5.4C76,14.85,74.9,14.27,73,14.28a3.88,3.88,0,0,0-3.08,1.23l-.75.68v-1c0-.54,0-1-.12-1S68.15,14.46,67.29,14.72Z"/><path class="cls-1" d="M82,14.42a5.14,5.14,0,0,0-3.43,2.9,5.71,5.71,0,0,0-.36,2.8c0,1.75,0,2.13.42,2.95a4.43,4.43,0,0,0,4,2.74,3.61,3.61,0,0,0,3.14-1l.73-.67,0,1.07c-.16,2-.83,2.75-2.43,2.75a1.4,1.4,0,0,1-1.36-.53,3.44,3.44,0,0,1-.62-.75c0-.2-.34-.16-1.7.21-.9.26-1.67.49-1.73.54-.21.11.48,1.29,1.08,1.8,1.25,1.12,3.79,1.59,6,1.13a5.46,5.46,0,0,0,3.25-1.8C90,27.22,90,27.05,90,20.25v-6l-.9.22-1.73.5c-.8.22-.9.32-.9.65s-.07.31-.72-.31A3.75,3.75,0,0,0,82,14.42Zm3.44,3.18c1,.63,1.31,2.78.69,4.07A2.15,2.15,0,0,1,82,21.1c-.38-1.59.14-3.22,1.19-3.69A2.69,2.69,0,0,1,85.39,17.6Z"/><path class="cls-1" d="M17.23,14.92c.07.22.9,2.86,1.93,5.9L21,26.34l2.3,0h2.27l1.87-5.56c1-3.06,1.89-5.68,1.94-5.85s-.09-.28-1.86-.28H25.53l-1,3.6c-.56,2-1.07,3.78-1.13,3.95s-.49-1.1-1.18-3.6l-1.06-4h-2l-2-.08Z"/></svg>