<svg id="Camada_1" data-name="Camada 1" xmlns="http://www.w3.org/2000/svg" viewBox="0 0 100 40"><defs><style>.cls-1{fill:#fff;}</style></defs><path class="cls-1" d="M17.56,27.76H16.27c-1.2,0-1.83-.44-1.84-1.79V19.51h3.13V15.82H14.41v-4.6h-3.8v2.16a2.28,2.28,0,0,1-.12,1,2.06,2.06,0,0,1-.51.82,2,2,0,0,1-.81.53,2.08,2.08,0,0,1-1,.14H.53l0,15.87H4.76V19.55h5.49v7.17c0,3,1.9,4.76,4.91,4.75a6.17,6.17,0,0,0,2.37-.38Z"/><path class="cls-1" d="M0,10.86a2.53,2.53,0,0,0,4.32,1.75A2.53,2.53,0,0,0,4.32,9a2.52,2.52,0,0,0-1.78-.74,2.48,2.48,0,0,0-1,.2,2.59,2.59,0,0,0-.83.56,2.56,2.56,0,0,0-.55.83A2.52,2.52,0,0,0,0,10.86Z"/><path class="cls-1" d="M28,14.69v1.62H31.4v3.44H28V31.17H23.83V19.77H21.29V16.32h2.53V14.63a5.19,5.19,0,0,1,5.53-5.54,6.18,6.18,0,0,1,2,.31v3.39a4.41,4.41,0,0,0-1.3-.16,2,2,0,0,0-.85.1,1.92,1.92,0,0,0-.72.44,1.86,1.86,0,0,0-.46.7A1.9,1.9,0,0,0,28,14.69Z"/><path class="cls-1" d="M48.15,23.68A7.82,7.82,0,0,1,46.79,28a7.85,7.85,0,0,1-13.72-7.46A8,8,0,0,1,43.36,16.3,7.66,7.66,0,0,1,45.94,18a7.49,7.49,0,0,1,1.69,2.6A7.57,7.57,0,0,1,48.15,23.68Zm-4.06,0c0-2.83-1.82-4.26-3.8-4.26s-3.81,1.43-3.81,4.26,1.83,4.26,3.81,4.26,3.82-1.4,3.82-4.26Z"/><path class="cls-1" d="M59.05,20.36a6.71,6.71,0,0,0-1.26-.11c-2.11,0-3.92,1-3.92,4.17v6.75H49.74V16.4h4v2.19A4.53,4.53,0,0,1,58,16.28a5.93,5.93,0,0,1,1,0Z"/><path class="cls-1" d="M70.74,29.68a4.68,4.68,0,0,1-1.81,1.55,4.78,4.78,0,0,1-2.33.47c-3.62,0-5.7-2.66-5.7-5.92v-9.5H65V25c0,1.64.82,3,2.75,3a2.7,2.7,0,0,0,1.12-.19,2.54,2.54,0,0,0,.94-.64,2.72,2.72,0,0,0,.6-1A2.6,2.6,0,0,0,70.52,25V16.28h4.07V28.59c0,.9,0,1.81.15,2.71H70.87A9.83,9.83,0,0,1,70.74,29.68Z"/><path class="cls-1" d="M77.12,31.17v-15H81V18a5.27,5.27,0,0,1,1.9-1.67,5.14,5.14,0,0,1,2.46-.57,4.62,4.62,0,0,1,4.46,2.49,5.18,5.18,0,0,1,4.76-2.49c2.78,0,5.43,1.63,5.43,5.7v9.71H96.07V22.28c0-1.63-.82-2.84-2.66-2.84a2.82,2.82,0,0,0-1.11.22,2.74,2.74,0,0,0-.93.65,2.84,2.84,0,0,0-.59,1,2.67,2.67,0,0,0-.15,1.12v8.77h-4V22.28c0-1.63-.82-2.84-2.65-2.84a2.7,2.7,0,0,0-2.06.86,2.64,2.64,0,0,0-.6,1,2.69,2.69,0,0,0-.15,1.13v8.77Z"/></svg>