<svg id="Camada_1" data-name="Camada 1" xmlns="http://www.w3.org/2000/svg" viewBox="0 0 90 40"><defs><style>.cls-1{fill:#fff;}</style></defs><path class="cls-1" d="M15.8,27H14.64C13.56,27,13,26.59,13,25.37V19.56H15.8V16.24H13V12.1H9.55V14a2.11,2.11,0,0,1-.11.9,1.85,1.85,0,0,1-.46.74,1.79,1.79,0,0,1-.73.48,1.83,1.83,0,0,1-.9.12H.48V30.56H4.29v-11H9.23v6.45c0,2.7,1.71,4.28,4.41,4.27A5.56,5.56,0,0,0,15.78,30Z"/><path class="cls-1" d="M0,11.78a2.28,2.28,0,1,0,3.92-1.65l0,0a2.27,2.27,0,0,0-1.6-.66,2,2,0,0,0-.9.18,2.19,2.19,0,0,0-.75.5,2.22,2.22,0,0,0-.49.75A2.35,2.35,0,0,0,0,11.78Z"/><path class="cls-1" d="M25.2,15.22v1.46h3.06v3.1H25.2V30.05H21.45V19.79H19.16v-3.1h2.28V15.17a4.67,4.67,0,0,1,4.33-5h.64a5.74,5.74,0,0,1,1.8.28v3A4.17,4.17,0,0,0,27,13.37a1.64,1.64,0,0,0-.76.09,1.88,1.88,0,0,0-.65.39,1.85,1.85,0,0,0-.41.63A1.69,1.69,0,0,0,25.2,15.22Z"/><path class="cls-1" d="M43.33,23.31a7.06,7.06,0,1,1-13.57-2.82A7.2,7.2,0,0,1,39,16.67a7,7,0,0,1,2.32,1.53,6.57,6.57,0,0,1,1.52,2.34A6.74,6.74,0,0,1,43.33,23.31Zm-3.65,0c0-2.55-1.64-3.83-3.42-3.83s-3.43,1.28-3.43,3.83,1.65,3.84,3.43,3.84,3.44-1.26,3.44-3.84Z"/><path class="cls-1" d="M53.14,20.32A6.08,6.08,0,0,0,52,20.23c-1.9,0-3.53.89-3.53,3.75v6.07H44.76V16.76h3.6v2a4.1,4.1,0,0,1,3.84-2.08,6.76,6.76,0,0,1,.9,0Z"/><path class="cls-1" d="M63.66,28.71A4.17,4.17,0,0,1,62,30.11a4.33,4.33,0,0,1-2.1.42c-3.25,0-5.12-2.39-5.12-5.33V16.65H58.5V24.5c0,1.48.73,2.7,2.47,2.7A2.5,2.5,0,0,0,62,27a2.23,2.23,0,0,0,.84-.58,2.31,2.31,0,0,0,.54-.9,2.21,2.21,0,0,0,.1-1.05V16.65h3.66V27.73a14.27,14.27,0,0,0,.14,2.44H63.78A8.9,8.9,0,0,1,63.66,28.71Z"/><path class="cls-1" d="M69.4,30.05V16.55h3.49V18.2a4.69,4.69,0,0,1,3.93-2,4.18,4.18,0,0,1,4,2.25,4.66,4.66,0,0,1,4.28-2.25c2.51,0,4.89,1.47,4.89,5.13v8.74H86.45v-8a2.25,2.25,0,0,0-2.39-2.55,2.47,2.47,0,0,0-1,.19,2.72,2.72,0,0,0-.84.59,2.82,2.82,0,0,0-.53.9,2.47,2.47,0,0,0-.13,1v7.89H78v-8a2.26,2.26,0,0,0-2.39-2.55,2.4,2.4,0,0,0-1.85.77,2.43,2.43,0,0,0-.54.9,2.36,2.36,0,0,0-.13,1v7.89Z"/></svg>