<svg id="Camada_1" data-name="Camada 1" xmlns="http://www.w3.org/2000/svg" viewBox="0 0 82 40"><defs><style>.cls-1{fill:#fff;}</style></defs><path class="cls-1" d="M14.4,26.37H13.34c-1,0-1.49-.38-1.49-1.49V19.59H14.4v-3H11.85V12.79H8.7v1.73a1.89,1.89,0,0,1-.1.82,1.62,1.62,0,0,1-.42.67,1.63,1.63,0,0,1-.66.44,1.64,1.64,0,0,1-.82.11H.44V29.61H3.91v-10h4.5v5.87a3.65,3.65,0,0,0,4,3.89,5,5,0,0,0,2-.25Z"/><path class="cls-1" d="M0,12.5A2.08,2.08,0,1,0,3.57,11h0a2.09,2.09,0,0,0-1.46-.6,1.8,1.8,0,0,0-.82.17A1.92,1.92,0,0,0,.61,11a2.18,2.18,0,0,0-.45.68A2.25,2.25,0,0,0,0,12.5Z"/><path class="cls-1" d="M23,15.63V17h2.79v2.83H23v9.35H19.55V19.8H17.46V17h2.08V15.59A4.25,4.25,0,0,1,23.47,11h.6a5.39,5.39,0,0,1,1.64.25V14A3.78,3.78,0,0,0,24.6,14a1.48,1.48,0,0,0-.69.08,1.68,1.68,0,0,0-.59.35,1.88,1.88,0,0,0-.38.58A1.68,1.68,0,0,0,23,15.63Z"/><path class="cls-1" d="M39.48,23a6.43,6.43,0,1,1-12.36-2.57A6.57,6.57,0,0,1,35.54,17a6.38,6.38,0,0,1,2.11,1.4A6,6,0,0,1,39,20.48,6.21,6.21,0,0,1,39.48,23Zm-3.32,0a3.14,3.14,0,1,0-6.24,0c0,2.33,1.5,3.5,3.12,3.5A3.16,3.16,0,0,0,36.18,23Z"/><path class="cls-1" d="M48.42,20.28a5.15,5.15,0,0,0-1-.08c-1.73,0-3.21.81-3.21,3.41v5.53H40.79V17h3.28v1.83a3.72,3.72,0,0,1,3.5-1.9,5.61,5.61,0,0,1,.82,0Z"/><path class="cls-1" d="M58,27.92A3.82,3.82,0,0,1,56.5,29.2a3.87,3.87,0,0,1-1.92.38,4.53,4.53,0,0,1-4.66-4.85v-7.8h3.39v7.16a2.17,2.17,0,0,0,2.25,2.46,2.53,2.53,0,0,0,.94-.18,2.13,2.13,0,0,0,.76-.53,2.16,2.16,0,0,0,.49-.82,2,2,0,0,0,.09-1V16.93h3.34V27a12.67,12.67,0,0,0,.13,2.22H58.12A7.39,7.39,0,0,1,58,27.92Z"/><path class="cls-1" d="M63.24,29.14V16.84h3.18v1.51A4.28,4.28,0,0,1,70,16.52a3.82,3.82,0,0,1,3.64,2.05,4.28,4.28,0,0,1,3.9-2.05c2.29,0,4.46,1.34,4.46,4.68v8H78.77V21.87A2,2,0,0,0,77,19.56a2,2,0,0,0-.42,0,2.14,2.14,0,0,0-.91.17,2.44,2.44,0,0,0-.77.54,2.6,2.6,0,0,0-.48.82,2.16,2.16,0,0,0-.12.91v7.19H71.07V21.89a2.05,2.05,0,0,0-1.77-2.31,1.79,1.79,0,0,0-.4,0,2.23,2.23,0,0,0-2.18,1.52,2,2,0,0,0-.12.91v7.19Z"/></svg>