<svg id="Camada_1" data-name="Camada 1" xmlns="http://www.w3.org/2000/svg" viewBox="0 0 64.89 40"><defs><style>.cls-1{fill:#fff;}</style></defs><path class="cls-1" d="M57.35,31.72H54.09V8.26h.73c.87,0,1.73,0,2.59,0,.3,0,.4.1.46.37q1.62,6.89,3.25,13.76a18.54,18.54,0,0,0,.56,2V8.28h3.21V31.7H61.21q-1.91-8-3.79-16h-.08v16Z"/><path class="cls-1" d="M38.81,8.26h2.47c.93,0,1.85,0,2.77,0a3.54,3.54,0,0,1,3.6,3.46,27.9,27.9,0,0,1,0,4.75,3,3,0,0,1-2.33,2.93,1,1,0,0,0,.19.09,3,3,0,0,1,2.36,2.91,46.62,46.62,0,0,1,0,5.67,3.62,3.62,0,0,1-3.74,3.56c-1.68.1-3.37.05-5,.08-.2,0-.26-.09-.25-.27V8.26Zm3.26,20.66H43c1.12-.07,1.64-.51,1.71-1.63.08-1.39.05-2.78.06-4.16a3.7,3.7,0,0,0-.07-.66c-.13-.62-.39-1.18-1.08-1.32a12.13,12.13,0,0,0-1.5-.13v7.9Zm0-10.62h.59c1.29,0,1.77-.45,1.86-1.73,0-.13,0-.26,0-.39,0-.88,0-1.77,0-2.66a8.89,8.89,0,0,0-.08-1.15,1.3,1.3,0,0,0-.87-1.17A10.38,10.38,0,0,0,42.06,11V18.3Z"/><path class="cls-1" d="M37.62,20c0,2.26,0,4.53,0,6.79a10.63,10.63,0,0,1-.34,2.52,3.28,3.28,0,0,1-2.66,2.5,7.48,7.48,0,0,1-3.09,0,3.5,3.5,0,0,1-2.89-3.08A9.18,9.18,0,0,1,28.44,27q0-6.93,0-13.88a9.63,9.63,0,0,1,.25-2.14A3.38,3.38,0,0,1,32,8.06a9.32,9.32,0,0,1,2.36,0,3.46,3.46,0,0,1,3.1,3.11,10.48,10.48,0,0,1,.2,2c0,2.27,0,4.53,0,6.8ZM31.68,20c0,2.17,0,4.33,0,6.49A9.24,9.24,0,0,0,31.82,28,1,1,0,0,0,33,29a1.07,1.07,0,0,0,1.22-1,6.54,6.54,0,0,0,.12-1.25q0-6.78,0-13.57A6.23,6.23,0,0,0,34.21,12,1.06,1.06,0,0,0,33,11a1,1,0,0,0-1.16,1,11.15,11.15,0,0,0-.13,1.53c0,2.15,0,4.3,0,6.45Z"/><path class="cls-1" d="M10.36,31.72H7.28L10.52,8.28h4.34Q16.49,20,18.13,31.71H15c-.06-.54-.13-1.08-.2-1.62-.12-1.11-.24-2.21-.37-3.31,0-.11-.13-.29-.2-.29-1.07,0-2.14,0-3.24,0C10.77,28.24,10.57,30,10.36,31.72ZM12.73,12h-.07Q12,17.77,11.32,23.54h2.73L12.73,12Z"/><path class="cls-1" d="M24.08,23.08h3.11s0,.05,0,.07c0,1.81-.05,3.62-.14,5.43a3.89,3.89,0,0,1-.73,2.05,3.05,3.05,0,0,1-2,1.22,7.2,7.2,0,0,1-3,0,3.12,3.12,0,0,1-2.48-2.31,8.51,8.51,0,0,1-.36-2.23q0-7.29,0-14.59a8.3,8.3,0,0,1,.41-2.36,3.08,3.08,0,0,1,2.73-2.25,10.28,10.28,0,0,1,2.54,0A3.2,3.2,0,0,1,27,11a10.53,10.53,0,0,1,.19,1.77c0,1.36,0,2.73,0,4.13-.11,0-.21,0-.31,0-.83,0-1.66,0-2.49,0-.27,0-.36-.07-.36-.35,0-1.21,0-2.41,0-3.61a5.93,5.93,0,0,0-.12-1.19A.91.91,0,0,0,22.87,11a.86.86,0,0,0-.95.83,8.54,8.54,0,0,0-.13,1.43q0,6.75,0,13.5a9,9,0,0,0,.13,1.46.82.82,0,0,0,.92.77c.63,0,.94-.15,1.08-.71a5.42,5.42,0,0,0,.15-1.21c0-1.18,0-2.36,0-3.54v-.43Z"/><path class="cls-1" d="M0,28.54H1.56c1.21,0,1.62-.4,1.62-1.62v-15L0,13.42V8.26H6.57V8.7c0,6.46,0,12.92,0,19.38a6.88,6.88,0,0,1-.2,1.56,2.37,2.37,0,0,1-1.91,1.87,8.88,8.88,0,0,1-1.7.21c-.91,0-1.82,0-2.75,0V28.54Z"/><path class="cls-1" d="M49.17,8.21h3.37V31.72H49.17Z"/></svg>