<svg id="Camada_1" data-name="Camada 1" xmlns="http://www.w3.org/2000/svg" viewBox="0 0 90 40"><defs><style>.cls-1{fill:#fff;}</style></defs><path class="cls-1" d="M.38,14.86H7.73v6.89a6,6,0,0,1-.28,2.42,2.58,2.58,0,0,1-2.36,1.45H5a2.56,2.56,0,0,1-1.82-.79A2.61,2.61,0,0,1,2.46,23v-.46H0v.6a5,5,0,0,0,1.55,3.48A4.8,4.8,0,0,0,5.05,28h.23a4.93,4.93,0,0,0,3.54-1.5c1.22-1.25,1.38-3,1.38-4.62V12.5H.38Z"/><path class="cls-1" d="M11.36,27.5H14L15.55,24h5.76l1.51,3.48h2.73L18.44,11.31Zm8.91-5.85H16.55l1.82-4.35Z"/><path class="cls-1" d="M37.85,23.64a5,5,0,0,1-4,1.81h-.3a5.21,5.21,0,0,1-5-5.42v-.22a5.21,5.21,0,0,1,5.22-5.19h0a5.05,5.05,0,0,1,4,1.74l.3.35,1.75-1.58-.29-.34a7.65,7.65,0,0,0-5.68-2.54h-.22A7.66,7.66,0,0,0,26,20v.35a7.68,7.68,0,0,0,7.66,7.48h.19a7.6,7.6,0,0,0,5.78-2.63l.29-.33-1.76-1.59Z"/><path class="cls-1" d="M54.21,14.38a7.75,7.75,0,0,0-5.46-2.14h-.19A7.68,7.68,0,0,0,41,20a7.83,7.83,0,0,0,7.27,7.27h.56A7.79,7.79,0,0,0,56.58,20v-.25A7.64,7.64,0,0,0,54.21,14.38ZM48.72,25.45h-.27a5.23,5.23,0,0,1-5.06-5.4V20a5.35,5.35,0,0,1,10.7,0v.3a5.22,5.22,0,0,1-5.28,5.16h-.09Z"/><path class="cls-1" d="M66.88,19.21A3.31,3.31,0,0,0,68,16.48v-.12A4.08,4.08,0,0,0,63.8,12.5H59v15h5.54a4.55,4.55,0,0,0,4.55-4.54v-.07A3.79,3.79,0,0,0,66.88,19.21Zm-2.51,1.53a2.22,2.22,0,0,1,2.22,2.18V23a2.23,2.23,0,0,1-2.35,2.1h0l-2.73,0V20.74h2.86Zm-2.88-2.33V14.87h2.37a1.73,1.73,0,0,1,1.69,1.76h0v.1a1.78,1.78,0,0,1-1.82,1.66Z"/><rect class="cls-1" x="71.65" y="12.5" width="2.48" height="15"/><polygon class="cls-1" points="87.52 12.46 87.52 22.41 77.63 11.24 77.63 27.58 80.11 27.58 80.11 17.63 90 28.75 90 12.46 87.52 12.46"/></svg>