<svg id="Camada_1" data-name="Camada 1" xmlns="http://www.w3.org/2000/svg" viewBox="0 0 100 40"><defs><style>.cls-1{fill:#fff;}</style></defs><path class="cls-1" d="M1.75,23.35a3.4,3.4,0,0,0,3.33,3.47h.14a3.38,3.38,0,0,0,3.11-1.91,7.41,7.41,0,0,0,.36-3V13.72H.43V12.09h10v10c0,1.93-.23,3.61-1.41,4.83a5,5,0,0,1-3.83,1.52A5.06,5.06,0,0,1,0,23.35Z"/><path class="cls-1" d="M20.18,11.52l7.17,16.39H25.42L23.72,24H16.59l-1.7,3.91H13ZM23,22.37l-2.86-6.71L17.3,22.37Z"/><path class="cls-1" d="M37.42,11.8a7.92,7.92,0,0,1,6,2.68l-1.21,1.09a6.2,6.2,0,0,0-4.83-2.14A6.36,6.36,0,0,0,31,20a6.36,6.36,0,0,0,6.47,6.59,6.23,6.23,0,0,0,4.9-2.22l1.2,1.09a8,8,0,0,1-6.1,2.77A8.1,8.1,0,0,1,29.17,20,8.11,8.11,0,0,1,37.42,11.8Z"/><path class="cls-1" d="M54.21,11.8A8.1,8.1,0,0,1,62.46,20,8.25,8.25,0,0,1,46,20,8.1,8.1,0,0,1,54.21,11.8Zm0,14.79A6.35,6.35,0,0,0,60.68,20a6.49,6.49,0,1,0-13,0,6.39,6.39,0,0,0,6.5,6.59Z"/><path class="cls-1" d="M66.26,12.09H71.1a4.05,4.05,0,0,1,4.24,4,3.22,3.22,0,0,1-2,3.18,3.76,3.76,0,0,1,3.18,3.92,4.62,4.62,0,0,1-4.81,4.68H66.26ZM71,18.7a2.46,2.46,0,0,0,2.57-2.5A2.43,2.43,0,0,0,71,13.73H68v5Zm.59,7.57a3,3,0,0,0,3.15-3,3,3,0,0,0-3.18-2.95H68v6Z"/><path class="cls-1" d="M80.43,12.09H82.2V27.91H80.43Z"/><path class="cls-1" d="M87.13,11.52l11.1,12.53v-12H100V28.48L88.9,16v12H87.13Z"/></svg>