<svg id="Camada_1" data-name="Camada 1" xmlns="http://www.w3.org/2000/svg" viewBox="0 0 100 40"><defs><style>.cls-1{fill:#fff;}</style></defs><path class="cls-1" d="M.92,14.35H9v7.57a6.57,6.57,0,0,1-.31,2.67,2.81,2.81,0,0,1-2.59,1.59H6a2.79,2.79,0,0,1-2-.87,2.84,2.84,0,0,1-.79-2l0-.51H.5v.67a5.42,5.42,0,0,0,1.7,3.82,5.34,5.34,0,0,0,3.86,1.5h.25a5.42,5.42,0,0,0,3.89-1.65c1.34-1.38,1.52-3.26,1.52-5.08V11.75H.92Z"/><path class="cls-1" d="M13,28.25h2.94l1.67-3.83h6.33l1.66,3.83h3L20.78,10.44Zm9.8-6.43H18.71l2-4.79Z"/><path class="cls-1" d="M42.14,24a5.55,5.55,0,0,1-4.41,2H37.4a5.75,5.75,0,0,1-5.52-6v-.21a5.74,5.74,0,0,1,5.74-5.71h0A5.58,5.58,0,0,1,42,16l.33.38,1.93-1.74-.32-.37a8.45,8.45,0,0,0-6.25-2.8h-.24A8.43,8.43,0,0,0,29.09,20c0,.12,0,.23,0,.35a8.44,8.44,0,0,0,8.42,8.23h.21a8.36,8.36,0,0,0,6.36-2.89l.32-.37-1.93-1.75Z"/><path class="cls-1" d="M60.13,13.82a8.49,8.49,0,0,0-6-2.36h-.21A8.45,8.45,0,0,0,45.58,20a8.62,8.62,0,0,0,8,8c.2,0,.41,0,.61,0a8.57,8.57,0,0,0,8.55-8v-.27A8.4,8.4,0,0,0,60.13,13.82ZM54.09,26H53.8a5.76,5.76,0,0,1-5.57-6A5.87,5.87,0,1,1,60,20v.33A5.74,5.74,0,0,1,54.14,26h0Z"/><path class="cls-1" d="M74.07,19.13a3.61,3.61,0,0,0,1.26-3V16a4.48,4.48,0,0,0-4.65-4.25H65.43V28.21h6.1a5,5,0,0,0,5-5.07A4.17,4.17,0,0,0,74.07,19.13Zm-2.76,1.68a2.45,2.45,0,0,1,2.44,2.4v.12a2.45,2.45,0,0,1-2.59,2.31l-3,.05V20.81h3.17Zm-3.17-2.56V14.36h2.61a1.89,1.89,0,0,1,1.85,1.94v.11a1.94,1.94,0,0,1-2,1.83Z"/><rect class="cls-1" x="79.32" y="11.75" width="2.73" height="16.5"/><polygon class="cls-1" points="96.77 11.71 96.77 22.65 85.89 10.37 85.89 28.34 88.62 28.34 88.62 17.39 99.5 29.63 99.5 11.71 96.77 11.71"/></svg>