<svg id="Camada_1" data-name="Camada 1" xmlns="http://www.w3.org/2000/svg" viewBox="0 0 58.53 40"><defs><style>.cls-1{fill:#fff;}</style></defs><path class="cls-1" d="M5.81,5.07,3.36,7.51V21L1.69,22.48,0,24l1.73,1.74c1.63,1.63,1.78,1.73,2.62,1.73s.89,0,.89.56.53,1.11,2.45,3l2.47,2.47h2.92L15,35.45,17,37.4l1.73-1.74L20.39,34h7.92l.59-.57.58-.56,2.36,2.34,2.35,2.34L36,35.72,37.74,34H48.19l2.57-2.57,2.54-2.55V23.42l.84.81.84.82,1.77-1.76,1.78-1.78V11.07L55.81,8.35,53.1,5.63,51.74,7,50.38,8.33,48.71,6.68,47,5l-.59.56-.58.57H34.62L34,6.72l-.59.57V3.54L30.84,6.16,28.23,8.77V8c0-.75-.17-1-2.3-3.13L23.65,2.5l-1.9,1.88a9,9,0,0,0-1.88,2.28c0,.37-.06.35-.58-.15L18.7,6H11.83L10.16,4.28A21.61,21.61,0,0,0,8.38,2.6C8.32,2.6,7.17,3.71,5.81,5.07ZM8.23,23.33,6.39,25.17H4.89c-.84,0-1.53-.06-1.53-.17A17,17,0,0,1,5,23.19l1.67-1.68V8.77L8.34,7.14,10,5.53l.06,8,0,8ZM24.64,7.39l1.5,1.34v2.8a12.59,12.59,0,0,0,.15,2.78,26.78,26.78,0,0,0,2.4-2.24L31,9.81v4.6l-2.51,2.51-2.51,2.51-1.77-1.78-1.78-1.78v-5.2c0-4.91,0-5.18.38-4.91C22.94,5.93,23.8,6.66,24.64,7.39Zm-4.83,3.2,1.73,1.73v7.21h-7L12.7,17.75,10.89,16V8.87H18.1ZM42.23,9a13.11,13.11,0,0,1-1.53,1.67l-1.54,1.51H35.33v2.09h2l-.92.94-.92.94h6.87l-1.67,1.67L39,19.53H31.78v-7l1.86-1.82,1.84-1.82h3.39A18.32,18.32,0,0,1,42.23,9Zm6.94,2.49L51.63,14V9l1.67,1.67L55,12.32V23L53.3,21.31l-1.67-1.68V14l-1.31,1.3L49,16.63l-1.21-1.26a7.31,7.31,0,0,0-1.4-1.27,8.83,8.83,0,0,0-.17,2.4A8,8,0,0,1,46,18.9a14.35,14.35,0,0,1-1.67-1.52l-1.5-1.51V12.59l1.71-1.75a12.84,12.84,0,0,1,1.92-1.76A22,22,0,0,1,49.17,11.53ZM48,29.29,46.1,31.23h-7V23.92l1.79-1.82,1.8-1.82,1.69,1.78,1.72,1.75-1.72.07-1.73.06v3.53h3.76V20.26l1.73-1.73,1.72-1.72.06,5.27,0,5.26ZM19.66,25.86v5.48L18,33a23.57,23.57,0,0,1-1.77,1.6c-.07,0-.13-2.44-.13-5.43V23.71H12.66L14.33,22,16,20.37h3.65ZM29.17,22,27.5,23.71H23.84V25.8H25.6l-.78.79a3.32,3.32,0,0,0-.77,1.05c0,.16.92.25,3.26.29l3.26.06-1.63,1.63-1.65,1.61-3.45,0-3.45-.06-.06-3.56L20.27,24l1.94-1.82,1.95-1.83h6.68Zm-17,3.59v5.08L10.47,29,8.8,27.37V23.81l1.61-1.61c.89-.89,1.65-1.63,1.67-1.63S12.14,22.85,12.14,25.63Zm23.19,3.72v5.33L33.56,32.9l-1.78-1.77V20.47l1.78,1.78L35.33,24Zm2.09-7L39,23.92H35.54V22.35a3.68,3.68,0,0,1,.17-1.57A13.77,13.77,0,0,1,37.42,22.35Z"/><path class="cls-1" d="M14.44,14.31v1.88H18.2V12.43H14.44Z"/></svg>