<svg id="Camada_1" data-name="Camada 1" xmlns="http://www.w3.org/2000/svg" viewBox="0 0 53.44 40"><defs><style>.cls-1{fill:#fff;}</style></defs><path class="cls-1" d="M5.3,6.35,3.07,8.57V20.89L1.54,22.24,0,23.63l1.58,1.59C3.07,26.71,3.2,26.8,4,26.8s.81,0,.81.51.49,1,2.24,2.74L9.28,32.3h2.66l1.75,1.78,1.83,1.78,1.58-1.59,1.52-1.51h7.23l.54-.52.52-.51,2.16,2.13L31.21,36l1.66-1.67,1.59-1.57H44l2.34-2.35,2.32-2.33v-5l.77.74.77.75L51.81,23l1.63-1.62V11.82L51,9.34,48.48,6.86,47.24,8.11,46,9.32l-1.53-1.5L42.91,6.28l-.54.51-.53.52H31.61L31,7.85l-.54.52V5L28.16,7.34,25.77,9.72V9c0-.68-.15-.91-2.1-2.86L21.59,4,19.86,5.72A7.83,7.83,0,0,0,18.14,7.8c0,.34-.05.32-.53-.14l-.54-.46H10.8L9.28,5.63A19.68,19.68,0,0,0,7.65,4.09C7.6,4.09,6.55,5.1,5.3,6.35ZM7.51,23,5.83,24.7H4.46c-.76,0-1.39-.06-1.39-.16a16.68,16.68,0,0,1,1.49-1.65l1.53-1.53V9.72L7.61,8.24,9.13,6.77l0,7.3v7.3Zm15-14.56,1.37,1.23v2.55A11.37,11.37,0,0,0,24,14.78a23.5,23.5,0,0,0,2.19-2l2.11-2.07v4.2L26,17.17l-2.29,2.29L22.1,17.83l-1.62-1.62V11.46c0-4.48,0-4.73.35-4.48C20.94,7.13,21.73,7.8,22.5,8.46Zm-4.41,2.93L19.67,13v6.58h-6.4l-1.68-1.63L9.94,16.33V9.82h6.58ZM38.56,9.93a12.71,12.71,0,0,1-1.4,1.53l-1.41,1.38H32.26v1.91h1.82l-.84.85-.84.86h6.27L37.15,18l-1.54,1.56H29V13.16l1.7-1.66,1.68-1.67h3.1A17.52,17.52,0,0,1,38.56,9.93Zm6.33,2.28,2.25,2.29V9.93l1.52,1.53L50.21,13v9.75l-1.55-1.55-1.52-1.53V14.5l-1.2,1.19-1.2,1.21-1.11-1.15a6.43,6.43,0,0,0-1.28-1.16,8.06,8.06,0,0,0-.15,2.19A7.65,7.65,0,0,1,42,19a12.55,12.55,0,0,1-1.53-1.38L39.1,16.21v-3l1.56-1.6A11.62,11.62,0,0,1,42.42,10a20.06,20.06,0,0,1,2.47,2.23ZM43.82,28.46l-1.73,1.77H35.7V23.56l1.63-1.67L39,20.23l1.54,1.63,1.57,1.6-1.57.06-1.58.05V26.8h3.43V20.21L44,18.64l1.57-1.58.06,4.82v4.8ZM18,25.33v5l-1.52,1.52c-.51.51-1,1-1.61,1.46-.07,0-.12-2.23-.12-5v-5H11.56l1.52-1.56,1.53-1.49h3.33Zm8.68-3.53-1.52,1.56H21.77v1.91h1.6l-.71.72a3,3,0,0,0-.7,1c0,.15.84.23,3,.27l3,.05-1.49,1.49-1.5,1.47H21.77l-3.15-.05-.06-3.26,0-3.29L20.28,22l1.78-1.67h6.1ZM11.11,25.08v4.64L9.56,28.19,8,26.71V23.46L9.5,22C10.32,21.17,11,20.5,11,20.5s.05,2.08.05,4.62Zm21.17,3.4v4.86l-1.64-1.59L29,30.14V20.41L30.64,22l1.62,1.6Zm1.91-6.39,1.42,1.47H32.45V22.12a3.31,3.31,0,0,1,.15-1.43,12.42,12.42,0,0,1,1.56,1.43Z"/><path class="cls-1" d="M13.18,14.78V16.5h3.44V13.07H13.18Z"/></svg>