<svg id="Camada_1" data-name="Camada 1" xmlns="http://www.w3.org/2000/svg" viewBox="0 0 33.76 40"><defs><style>.cls-1{fill:#fff;}</style></defs><path class="cls-1" d="M15.29.18a13,13,0,0,0-4.23,1.89A13.64,13.64,0,0,1,8.58,3.3c-1.51.41-1.47.33-.84,1.36a4.22,4.22,0,0,1,.53.93c-1.25.88-1.2.86-3.21.86h-2v2c0,1.92,0,2-.67,3A18.66,18.66,0,0,0,.36,16.25a21.9,21.9,0,0,0,0,7.91,21.36,21.36,0,0,0,2.09,5.23,3.5,3.5,0,0,1,.63,1.81c0,.67-.05.75-.55.84L2,32.15v2.26c0,2.07,0,2.25.33,2.16.47-.13,4.53-.47,6.28-.5a4.71,4.71,0,0,1,2.95.65,22.92,22.92,0,0,1,4.7,2.91,1.1,1.1,0,0,0,.61.37,10.39,10.39,0,0,0,1.9-1.1c.92-.61,2.39-1.51,3.28-2l1.64-.9,1.68.06a54.42,54.42,0,0,1,6.13.5c.3.09.32-.06.28-2.2l-.05-2.29L31.19,32c-.48-.05-.52-.11-.52-1a4.09,4.09,0,0,1,.84-2.36,17.26,17.26,0,0,0,2.16-10.18A17.71,17.71,0,0,0,31.06,11c-.33-.48-.39-.85-.39-2.57v-2H28.73a4.93,4.93,0,0,1-2.51-.34c-.32-.17-.58-.35-.58-.43a9.18,9.18,0,0,1,.56-1,5.48,5.48,0,0,0,.56-1,4.76,4.76,0,0,0-1-.35A16.83,16.83,0,0,1,22.84,2C19.69.18,17.55-.32,15.29.18ZM18,2h.58l-.39.43a1.68,1.68,0,0,0-.41.93c0,.55-.17.64-.52.28-.17-.16-.34-.16-.69,0-.67.32-.71.3-.58-.26a.88.88,0,0,0-.28-.93L15.33,2h.49a1,1,0,0,0,.82-.48L16.93,1l.27.49A.76.76,0,0,0,18,2Zm-4.69.1a1.12,1.12,0,0,0,.76.28c.49,0,.52,0,.34.44a.8.8,0,0,0,0,.82c.28.54.26.56-.26.45a1,1,0,0,0-.82.23c-.36.31-.58.22-.58-.27,0-.16-.23-.41-.51-.54l-.52-.24L12.27,3a.83.83,0,0,0,.51-.73C12.78,1.73,13,1.66,13.34,2.07Zm8.27,1c.39.16.38.18-.11.41a.75.75,0,0,0-.52.68c0,.53-.21.56-.5.08-.15-.24-.36-.32-.73-.24s-.49,0-.35-.26a1.48,1.48,0,0,0,0-1.22c-.11-.24,0-.28.41-.2a.82.82,0,0,0,.79-.26c.26-.3.29-.28.44.26A1.37,1.37,0,0,0,21.61,3.06Zm3,1.52c.38.32.34.56-.11.56-.2,0-.46.23-.61.51l-.28.5-.25-.41a.89.89,0,0,0-.8-.41c-.52,0-.54,0-.2-.37A1,1,0,0,0,22.6,4c-.11-.54-.09-.56.34-.35a.71.71,0,0,0,.87-.08c.41-.28.43-.26.49.23A1.19,1.19,0,0,0,24.63,4.58Zm-14-.87c.52,0,.56,0,.49.43a.94.94,0,0,0,.24.82c.34.35.32.37-.21.37a.92.92,0,0,0-.8.41l-.24.41-.28-.5c-.15-.28-.41-.51-.61-.51-.49,0-.47-.3,0-.56.3-.16.36-.33.27-.69s-.06-.44.22-.31A3.26,3.26,0,0,0,10.65,3.71Zm10,1.9a17.29,17.29,0,0,1,4.44,2,3,3,0,0,0,2.34.67h1.33V9.65a3.21,3.21,0,0,0,.74,2.48,14.43,14.43,0,0,1,2.32,8.2,14.12,14.12,0,0,1-2.33,8,3.3,3.3,0,0,0-.73,2.29v1.14l-1.62-.09c-.92-.06-2.18-.13-2.84-.19l-1.19-.11.82-.54a3,3,0,0,1,2.18-.54H27.5V28.76a5.33,5.33,0,0,1,.17-1.71,14.06,14.06,0,0,0,1.62-3.64,15.74,15.74,0,0,0,0-6.34,15.25,15.25,0,0,0-1-2.51c-.64-1.25-.64-1.35-.6-3.27l.05-1.95-2.33-.1c-1.93-.07-2.44-.16-3.11-.52-2.89-1.55-7.75-1.51-10.87.06-.85.43-1.15.46-3.26.46H5.88v2.32c0,2.14,0,2.38-.54,3.5A14.32,14.32,0,0,0,4.2,20.24a14.32,14.32,0,0,0,1.14,5.18,5.55,5.55,0,0,1,.54,3v1.85H7.52c1.47,0,1.7.05,2.42.54l.79.54-1.34.11c-.75.06-2.06.15-2.89.19L5,31.78V30.66a2.69,2.69,0,0,0-.58-2,18.22,18.22,0,0,1-2.12-4.64,16.76,16.76,0,0,1,.29-8.61,17.58,17.58,0,0,1,2-3.91c.37-.49.45-.81.45-1.9V8.31H6.27a2.79,2.79,0,0,0,2.09-.54,16.12,16.12,0,0,1,6.06-2.44A22.89,22.89,0,0,1,20.7,5.61ZM16,12V13.9H13.52l0,5.45.06,5.46,1.45.05,1.44.06V23h3.54v6.52H6.63V26H8.3V13.9H6.63V10.18H16Zm11,.32c0,1.21-.13,3.71-.28,5.55s-.27,3.54-.27,3.77c0,.43,0,.43-2.24.43A8.19,8.19,0,0,1,21.91,22c0-.08-.13-2-.28-4.24s-.28-4.88-.28-5.83V10.18h5.59ZM26.57,27v2.61h-5V24.34h5ZM11.94,33.42c-.06.6,0,1,0,.84s.63-.3.63,0,.06.17.23,0A2,2,0,0,0,13,33.2v-.84h.73c.71,0,.73,0,1,1,.16.56.39,1,.5,1s.17-.36.07-1l-.11-1h.54a.9.9,0,0,1,.75.31c.18.32.18.32.2,0s.15-.31.54-.31c.62,0,.92.3.6.61a2.58,2.58,0,0,0-.21,1.2c0,1-.24,1.26-.8.7-.24-.24-.3-.24-.39,0-.15.43-2,.38-2.27,0s-.28-.3-.47,0-.45.33-1.53.33H10.82v-1.3c0-1.14,0-1.31.37-1.36C12,32.32,12,32.32,11.94,33.42Zm10.29-1,1,.11,0,1.29c0,1.23,0,1.28-.47,1.28s-.45,0-.46-1.26l0-1.25-.23.74c-.13.41-.15.77-.07.8a.79.79,0,0,1,.15.53c0,.44,0,.44-1.62.42-1.85,0-2.24-.16-2.5-.85s.07-1.66.45-1.79A19.32,19.32,0,0,1,22.23,32.47Zm-.95,3.86c-.39.22-1.44.87-2.33,1.45l-1.81,1.16c-.11.07-.58-.17-1-.51a27.38,27.38,0,0,0-2.48-1.58L12,35.9h5l5,0Z"/><path class="cls-1" d="M18.93,33.66c0,.62.17.8.5.54s.32-.15.52,0,.28.15.28-.39,0-.63-.65-.65S18.93,33.21,18.93,33.66Z"/></svg>