<svg id="Layer_1" data-name="Layer 1" xmlns="http://www.w3.org/2000/svg" viewBox="0 0 110 40"><defs><style>.cls-1{fill:#fff;}</style></defs><path class="cls-1" d="M41.53,15.84v.26h4v-.26c-1.33,0-1.33-.36-1.33-1.55V8.55c0-1.19,0-1.54,1.33-1.54V6.76H42.86l-3.33,7.3-3.39-7.3H33.49V7c1.19,0,1.33.4,1.33,1.52v5.76c0,1.19,0,1.55-1.33,1.55v.26h3.29v-.26c-1.33,0-1.33-.36-1.33-1.55v-6l3.61,7.84h.21l3.59-7.84v6C42.86,15.48,42.86,15.84,41.53,15.84Z"/><path class="cls-1" d="M45.77,16.35H41.28v-.76h.25c1.08,0,1.08-.1,1.08-1.3V9.4l-3.18,7H38.9l-3.2-7v4.9c0,1.2,0,1.3,1.08,1.3H37v.76H33.24v-.76h.25c1.08,0,1.08-.1,1.08-1.3V8.53c0-1-.09-1.28-1.08-1.28h-.25V6.51h3l3.24,7,3.17-7h3.07v.74h-.25c-1.08,0-1.08.1-1.08,1.3v5.74c0,1.2,0,1.3,1.08,1.3h.25Zm-3.07-.5h1.65c-.38-.26-.41-.76-.41-1.56V8.55c0-.78,0-1.27.38-1.54H43l-3.49,7.64L36,7H34.61c.37.27.46.77.46,1.52v5.76c0,.8,0,1.3-.41,1.56h1c-.38-.26-.41-.76-.41-1.56V7.12l4,8.61,3.94-8.62v7.18C43.11,15.09,43.08,15.59,42.7,15.85Z"/><path class="cls-1" d="M76.88,14.28h-.2c-.58,1-.94,1.46-1.93,1.46H73.21c-.49,0-.6-.1-.6-.59V12.41H74.1c.9,0,1.21.11,1.32,1.11h.23v-2.6h-.2c-.06,1-.4,1.12-1.31,1.12H72.61v-3h1.88c1.07,0,1.4.08,1.62,1.25h.21l-.11-1.67H70.49v.25c1,0,1,.3,1,1.25V14.7c0,1,0,1.25-1,1.25v.21h5.76Z"/><path class="cls-1" d="M76.42,16.4H70.24v-.7h.25c.79,0,.79,0,.79-1V10.13c0-1,0-1-.79-1h-.25V8.38h6.2l.14,2.17H75.9l0-.21c-.19-1-.38-1-1.37-1H72.86v2.49h1.28c.86,0,1-.06,1.06-.89l0-.23h.68v3.1h-.71l0-.22c-.09-.82-.25-.89-1.07-.89H72.86v2.49c0,.34,0,.34.35.34h1.54c.86,0,1.15-.37,1.72-1.34l.07-.12h.68Zm-1-.49h.67l.18-.54A1.86,1.86,0,0,1,75.4,15.91Zm-3.86,0h1.17c-.25-.11-.35-.35-.35-.76V8.88h-.87c.29.24.29.67.29,1.25V14.7C71.78,15.25,71.78,15.66,71.54,15.91Zm3.31-3.68a.91.91,0,0,1,.55.38v-.68A.9.9,0,0,1,74.85,12.23Zm.57-3.35a1,1,0,0,1,.58.38l0-.38Z"/><path class="cls-1" d="M49.88,16a3.65,3.65,0,1,0-3.65-3.65A3.65,3.65,0,0,0,49.88,16Zm0-7.15c1.86,0,2.39,1.83,2.39,3.5s-.53,3.47-2.39,3.47-2.4-1.84-2.4-3.49S48,8.88,49.87,8.88Z"/><path class="cls-1" d="M49.88,16.28a3.9,3.9,0,1,1,3.9-3.9A3.9,3.9,0,0,1,49.88,16.28Zm0-7.15c-1.94,0-2.15,2.26-2.15,3.23s.21,3.25,2.15,3.25S52,13.35,52,12.38,51.81,9.13,49.87,9.13Zm1.87.4a4.65,4.65,0,0,1,.77,2.85,4.57,4.57,0,0,1-.79,2.86,3.4,3.4,0,0,0,0-5.71ZM48,9.57a3.4,3.4,0,0,0,0,5.64,4.65,4.65,0,0,1-.77-2.85A4.71,4.71,0,0,1,48,9.57Z"/><path class="cls-1" d="M69.8,12.33a3.59,3.59,0,0,0-1.51-3.07,5.72,5.72,0,0,0-3.12-.63H62.34v.23c1,0,1,.29,1,1.25h0v4.56c0,1,0,1.25-1.06,1.25v.21h3.48A3.68,3.68,0,0,0,69.8,12.33Zm-5.36,3.25V9.21a4.27,4.27,0,0,1,1.12-.16c2,0,3,1.54,3,3.35s-1,3.33-3,3.33A6,6,0,0,1,64.44,15.58Z"/><path class="cls-1" d="M65.76,16.38H62v-.71h.25c.81,0,.81,0,.81-1V9.86h0c0-.72-.07-.75-.79-.75h-.25V8.38h3.08A5.82,5.82,0,0,1,68.41,9a3.84,3.84,0,0,1,1.64,3.3C70,14.79,68.36,16.38,65.76,16.38Zm-2.41-.5h1.31l-.27-.06-.2,0V9l.18,0,.41-.09h-1.4c.25.25.25.66.25,1.23v.25h0v4.31A1.81,1.81,0,0,1,63.35,15.88Zm3.2-7a3.39,3.39,0,0,1,2.28,3.47,3.36,3.36,0,0,1-2,3.38,3.32,3.32,0,0,0,2.76-3.45h0a3.34,3.34,0,0,0-1.4-2.86A5.29,5.29,0,0,0,66.55,8.93Zm-1.86,6.45a6,6,0,0,0,.94.1c1.87,0,2.7-1.55,2.7-3.08a2.8,2.8,0,0,0-2.77-3.1,3.7,3.7,0,0,0-.87.11Z"/><path class="cls-1" d="M55.8,14.67h0V10.22l5,6H61V10.07c0-1,0-1.25,1-1.25V8.61H59.4v.21c1.06,0,1.06.31,1.06,1.22v4.17L55.89,8.63H53.82v.21a1.57,1.57,0,0,1,1.46.79v5c0,1,0,1.25-1,1.25v.21h2.6v-.21C55.8,15.92,55.8,15.63,55.8,14.67Z"/><path class="cls-1" d="M61.21,16.46h-.58L56,10.91l0,3.76c0,1,0,1,.79,1h.25v.71H54v-.71h.25c.79,0,.79,0,.79-1v-5a1.3,1.3,0,0,0-1.19-.61h-.27V8.38H56l4.2,5.13V10c0-.92,0-1-.81-1h-.25V8.36h3.1v.71H62c-.79,0-.79,0-.79,1Zm-5.92-.58h.5a1.41,1.41,0,0,1-.24-1h0V9.53l5.17,6.24v-5.7c0-.55,0-1,.24-1.21h-.49c.23.24.24.63.24,1.18v4.87l-4.92-6H54.9a1.81,1.81,0,0,1,.6.63l0,.06v5.1C55.53,15.22,55.53,15.63,55.29,15.88Z"/><path class="cls-1" d="M15,18.08A1,1,0,1,0,15,16h0a1,1,0,0,0-1,1h0A1.05,1.05,0,0,0,15,18.08Z"/><path class="cls-1" d="M15,18.33a1.29,1.29,0,0,1,0-2.58v0a1.37,1.37,0,0,1,.92.37,1.29,1.29,0,0,1,0,1.82,1.25,1.25,0,0,1-.91.39h0Zm0-2.08a.78.78,0,0,0-.56.23.79.79,0,0,0-.23.56.8.8,0,0,0,.79.79h0a.78.78,0,0,0,.78-.8.75.75,0,0,0-.23-.55A.79.79,0,0,0,15,16.25Z"/><path class="cls-1" d="M7.78,28.63c-.19,0-.27-.18-.27-.36s.21-.81.21-1h0l3.64-12.54H11.2l-3.4.57v.41a3.63,3.63,0,0,1,.65-.09c.39,0,.91.09.91.59A9.57,9.57,0,0,1,8.91,18L8,21.12a2,2,0,0,0-1.73-1c-2.68,0-6,3.95-6,7,0,1.17.58,2.69,2,2.72,1.86,0,3.46-2.44,4.38-3.85a10.72,10.72,0,0,0-.73,2.83c0,.53.25,1,.84,1,1.08,0,2.29-1.5,2.91-2.33l-.33-.21C9,27.57,8.22,28.63,7.78,28.63Zm-4.66-.06c-.83,0-1.15-.94-1.15-1.64,0-2.23,2.19-6.29,4.21-6.29h.13a1.39,1.39,0,0,1,1.24,1.51C7.55,24.14,4.81,28.57,3.12,28.57Z"/><path class="cls-1" d="M2.24,30.08c-1.47,0-2.24-1.52-2.24-3,0-3.24,3.45-7.24,6.26-7.24a2.34,2.34,0,0,1,1.63.7l.78-2.66a9.69,9.69,0,0,0,.45-1.72c0-.05,0-.3-.67-.3a4.3,4.3,0,0,0-.6.08l-.3.06V15.1l3.6-.6h.59l-3.81,13-.07.28a3.54,3.54,0,0,0-.1.45.42.42,0,0,0,0,.11h0c.13,0,.43-.2,1.21-1.14l.27-.32.74.47-.17.22c-.78,1-1.95,2.43-3.1,2.43a1.09,1.09,0,0,1-1.09-1.23,10.69,10.69,0,0,1,.22-1.28C4.94,28.78,3.68,30.08,2.24,30.08Zm4-9.71C3.73,20.37.5,24.15.5,27.11c0,1,.46,2.45,1.74,2.47S4.78,28.19,5.65,27C4.83,28,3.9,28.82,3.12,28.82s-1.4-.95-1.4-1.89c0-2.34,2.25-6.54,4.46-6.54h.16a1.63,1.63,0,0,1,1.45,1.78,8.38,8.38,0,0,1-1.37,3.67l.43.22a11.08,11.08,0,0,0-.72,2.77c0,.24.08.7.6.7a2.41,2.41,0,0,0,1.49-.82c-.5.32-1,.06-1-.45a2.89,2.89,0,0,1,.12-.57c0-.14.09-.35.09-.41v-.24h.1l3.49-12-2.34.39c.76.09.88.54.88.82a9.92,9.92,0,0,1-.47,1.84L8.07,21.74l-.29-.5A1.79,1.79,0,0,0,6.26,20.37Zm-.08.52c-1.86,0-4,3.94-4,6,0,.56.24,1.39.9,1.39,1.51,0,4.18-4.25,4.18-6.16a1.13,1.13,0,0,0-1-1.26Z"/><path class="cls-1" d="M15.13,27.43l-.36-.26c-.29.42-1.1,1.46-1.6,1.46-.19,0-.3-.08-.3-.27a2.67,2.67,0,0,1,.15-.68l2.11-7.56h-.2l-3.36.59v.41a1.93,1.93,0,0,1,.63-.1c.39,0,.91.1.91.58a8.58,8.58,0,0,1-.46,1.74l-1.13,4a10.13,10.13,0,0,0-.32,1.45.37.37,0,0,0,0,.11.92.92,0,0,0,1,.87C13.25,29.8,14.56,28.34,15.13,27.43Z"/><path class="cls-1" d="M12.1,30.05a1.17,1.17,0,0,1-1.16-1.11.76.76,0,0,1,0-.15,8.57,8.57,0,0,1,.34-1.5l1.13-4a8.87,8.87,0,0,0,.44-1.72c0-.24-.36-.29-.66-.29a1.67,1.67,0,0,0-.55.09l-.33.1v-1l3.56-.62h.57l-2.19,7.87a2.54,2.54,0,0,0-.14.64h0c.3,0,.92-.6,1.44-1.35l.14-.21.75.54-.12.2C14.71,28.58,13.33,30.07,12.1,30.05Zm.43-9.26c.53.08.83.37.83.81a9.62,9.62,0,0,1-.47,1.83l-1.13,4a10.35,10.35,0,0,0-.32,1.42v.07a.66.66,0,0,0,.67.63A3.08,3.08,0,0,0,14,28.44a1.46,1.46,0,0,1-.85.44.49.49,0,0,1-.54-.52,2.7,2.7,0,0,1,.16-.77l2-7.19Z"/><path class="cls-1" d="M39.59,7.57h0c-.15.38-.29.48-.57.48h-.45c-.15,0-.15-.12-.15-.3l-.05-1.36c0-.32,0-.42.36-.42V5.9h-.91v0c.29,0,.29.08.29.37V7.76c0,.29,0,.38-.29.38v0H39.4Z"/><path class="cls-1" d="M39.58,8.44h-2v-.5l.25-.05h0V6.19h-.29v-.5l.25,0h1.16v.56h-.38s0,.09,0,.17l.05,1.36v0H39c.14,0,.21,0,.34-.32l.06-.16h.5l-.05.32Z"/><path class="cls-1" d="M41.59,7.65h-.06c-.17.3-.27.44-.56.44h-.42c-.16,0-.16,0-.16-.16V7.09h.36c.26,0,.36,0,.36.34h.06V6.6h-.06c0,.32-.1.32-.38.32h-.42V6h.54c.31,0,.39,0,.46.37h0l0-.5H39.74v0c.29,0,.29.08.29.37V7.76c0,.29,0,.38-.29.38v.07h1.67Z"/><path class="cls-1" d="M41.59,8.46h-2.1V7.89h.29V6.19h-.29v-.5l.25,0h1.79l.09,1h-.2V7.4h.51Zm-1-.62H41c.11,0,.16,0,.26-.17h-.37V7.43a.25.25,0,0,0,0-.1h-.21Zm-.1-1.17h.31s0,0,0-.09V6.35H41a.73.73,0,0,0,0-.08h-.47Z"/><path class="cls-1" d="M38.11,20.14c-3.19,0-6.14,3.27-6.14,6.39h0c0,.14,0,.28,0,.42a3.13,3.13,0,0,0,3.35,2.89c3.21,0,5.95-3.31,5.95-6.39a1.82,1.82,0,0,0,0-.33A3.09,3.09,0,0,0,38.11,20.14Zm1.39,2.48h0c0,3-2,6.68-4,6.68a1.27,1.27,0,0,1-.28,0,1.82,1.82,0,0,1-1.55-2.06c0-2.35,1.77-6.58,4.11-6.58l.17,0A1.76,1.76,0,0,1,39.5,22.62Z"/><path class="cls-1" d="M35.1,30.1A3.37,3.37,0,0,1,31.75,27a2,2,0,0,1,0-.25l0-.19c0-3.35,3.16-6.63,6.38-6.64a3.34,3.34,0,0,1,3.45,3.22,2.16,2.16,0,0,1,0,.36c0,3.05-2.71,6.62-6.2,6.62Zm-2.88-3.82h0v.26a1.7,1.7,0,0,0,0,.39,2.84,2.84,0,0,0,1,2,2.88,2.88,0,0,0,2.09.69c3.18,0,5.72-3.36,5.72-6.14,0-.12,0-.22,0-.32a2.85,2.85,0,0,0-3-2.74H38a2,2,0,0,1,1.74,2.24v.07c0,3-2.07,6.83-4.23,6.83l-.3,0a2.08,2.08,0,0,1-1.77-2.34c0-2.15,1.48-6,3.67-6.69A6.59,6.59,0,0,0,32.22,26.28Zm5.57-5.39c-2,0-3.85,3.95-3.85,6.33a1.61,1.61,0,0,0,.3,1.2,1.55,1.55,0,0,0,1,.62h.23c1.75,0,3.73-3.42,3.73-6.43l0-.25a1.53,1.53,0,0,0-1.33-1.47Z"/><path class="cls-1" d="M88.14,20.39l-.32,1.25a1.75,1.75,0,0,0-1.63-1.51c-2.66,0-6,3.95-6,7,0,1.17.58,2.69,2,2.69,1.83,0,3.42-2.11,4.25-3.37v0L84.8,32c-.44,1.45-.77,1.7-2.19,1.7l-.1.38h4.95l.11-.38c-.47,0-1.38,0-1.38-.71a6.1,6.1,0,0,1,.29-1.28h0l3.28-11.6Zm-.66,1.8c0,2.74-2.85,6.39-4.41,6.39-.84,0-1.15-.94-1.15-1.64,0-2.23,2.19-6.29,4.21-6.29a1.44,1.44,0,0,1,1.35,1.5Z"/><path class="cls-1" d="M87.64,34.35H82.19l.23-.87h.19c1.31,0,1.55-.19,2-1.53l1.22-4.23c-1.23,1.55-2.45,2.34-3.63,2.34-1.45,0-2.2-1.48-2.2-2.94,0-3.25,3.44-7.24,6.24-7.24a2,2,0,0,1,1.59.93l.16-.64,2.14-.36L86.76,31.59h0l0,.21A5.22,5.22,0,0,0,86.44,33c0,.36.45.44,1.13.44h.33Zm-3.88-.5h2.8a.83.83,0,0,1-.62-.84,6,6,0,0,1,.26-1.22l0-.14,3.17-11.22-1,.18-.59,2.33,0-.32a7.58,7.58,0,0,1-1,3v.9L85,32.09C84.72,33.16,84.42,33.65,83.76,33.85Zm2.42-13.47c-2.51,0-5.74,3.78-5.74,6.74,0,.94.47,2.44,1.71,2.44,1.08,0,2.22-.8,3.42-2.37a4,4,0,0,1-2.5,1.64c-1,0-1.4-1-1.4-1.89,0-2.34,2.25-6.54,4.46-6.54a1.74,1.74,0,0,1,1.06.46A1.45,1.45,0,0,0,86.18,20.38Zm-.07.52c-1.85,0-3.94,3.94-3.94,6,0,.48.19,1.39.9,1.39,1.34,0,4.16-3.44,4.16-6.14v0A1.19,1.19,0,0,0,86.11,20.9Zm1.53,1.27-.16,0h.17Z"/><path class="cls-1" d="M76.76,28.64c-.19,0-.3-.08-.3-.27a3.93,3.93,0,0,1,.15-.68h0l2.1-7.56h-.26l-3.37.59v.41a1.89,1.89,0,0,1,.63-.1c.41,0,.91.1.91.58a9.44,9.44,0,0,1-.44,1.74l-1.12,4a7.16,7.16,0,0,0-.31,1.46V29a.91.91,0,0,0,1,.81c1.17,0,2.41-1.46,3-2.37l-.38-.26C78.07,27.6,77.26,28.64,76.76,28.64Z"/><path class="cls-1" d="M75.63,30.07A1.17,1.17,0,0,1,74.49,29V28.8a7.15,7.15,0,0,1,.33-1.51l1.11-4a8.84,8.84,0,0,0,.43-1.72c0-.18-.22-.29-.66-.29a1.77,1.77,0,0,0-.56.09l-.32.1v-1l3.58-.62H79l-2.15,7.74h0l0,.15a2.65,2.65,0,0,0-.14.62h.05c.25,0,.87-.59,1.4-1.35l.14-.2.78.53-.13.2c-.74,1.15-2,2.49-3.21,2.49ZM76,20.79c.73.11.82.59.82.81a10.64,10.64,0,0,1-.45,1.83l-1.12,4a7,7,0,0,0-.3,1.42A.48.48,0,0,0,75,29a.66.66,0,0,0,.73.59,3.26,3.26,0,0,0,2.09-1.31,1.77,1.77,0,0,1-1,.64.49.49,0,0,1-.54-.52,3.46,3.46,0,0,1,.12-.67l0-.09,2-7.22Z"/><path class="cls-1" d="M78.55,16h0a1,1,0,1,0,1.06,1.06A1,1,0,0,0,78.55,16Z"/><path class="cls-1" d="M78.55,18.34h0a1.31,1.31,0,0,1-.92-2.2,1.33,1.33,0,0,1,.9-.39h.07a1.28,1.28,0,0,1,.88.39,1.25,1.25,0,0,1,.37.91,1.3,1.3,0,0,1-.38.91A1.26,1.26,0,0,1,78.55,18.34Zm-.06-2.09a.75.75,0,0,0-.52.24.82.82,0,0,0-.22.55.8.8,0,0,0,.79.8.79.79,0,0,0,.56-.23.8.8,0,0,0,.24-.55.81.81,0,0,0-.23-.57.79.79,0,0,0-.56-.23Z"/><path class="cls-1" d="M105.36,28.73h0A2.26,2.26,0,0,1,103,26.5a5.69,5.69,0,0,1,.08-.83c3.27-.35,6.64-1.73,6.64-4,0-1.21-1.23-1.54-2.22-1.54-3.19,0-6.29,3.43-6.29,6.55v.09a3,3,0,0,0,3,3A7,7,0,0,0,109,27.38l-.21-.31C107.59,28,106.6,28.73,105.36,28.73Zm1.86-8.08h.22a.92.92,0,0,1,.82,1h0c0,1.09-1.4,3.06-5,3.48C103.57,23.32,105.17,20.65,107.22,20.65Z"/><path class="cls-1" d="M104.28,30.06A3.28,3.28,0,0,1,101,26.77v-.1c0-3.35,3.3-6.79,6.54-6.79,1.55,0,2.47.67,2.47,1.79,0,2.39-3.32,3.83-6.67,4.23a4.07,4.07,0,0,0,0,.61,2,2,0,0,0,2,2h.08c1.12,0,2-.64,3.28-1.61l.21-.16.48.7-.15.14c-1.69,1.69-3.29,2.51-4.9,2.51Zm2.09-9.52a7,7,0,0,0-4.88,6.14v.09a2.78,2.78,0,0,0,2.79,2.79h0A5.75,5.75,0,0,0,107.93,28a4.5,4.5,0,0,1-2.56.95h-.06a2.51,2.51,0,0,1-2.53-2.48,6.1,6.1,0,0,1,.09-.87l0-.19.18,0c3.1-.33,6.42-1.64,6.42-3.75,0-1.16-1.38-1.29-2-1.29a3.87,3.87,0,0,0-.48,0h.42a1.15,1.15,0,0,1,1,1.27l0,.29h0c-.24,1.29-1.87,3-5.19,3.42l-.34,0,.07-.33C103.3,23.38,104.61,21.12,106.37,20.54Zm.85.36c-1.77,0-3.23,2.21-3.68,3.93,3.34-.5,4.43-2.35,4.43-3.19v-.32a.68.68,0,0,0-.56-.43h-.19Z"/><path class="cls-1" d="M98.27,26.37l1.82-6.2-1.69.26-.24.92C97,25.68,94.08,28.59,93,28.59H93a.45.45,0,0,1-.42-.48,13.72,13.72,0,0,1,.75-2.81c.95-3.43,1-3.79,1-4.26v-.2a.84.84,0,0,0-.92-.72c-1.08,0-2.3,1.34-2.85,2.25l.39.23c.33-.35.88-1.26,1.41-1.26a.27.27,0,0,1,.28.31c0,.56-.24,1.08-1.15,4.35A11.36,11.36,0,0,0,91,28.58s0,.08,0,.12a1.15,1.15,0,0,0,1.16,1.13c2.06,0,4.19-3.54,5.1-5a14.6,14.6,0,0,0-1,4.16.43.43,0,0,0,0,.16.78.78,0,0,0,.86.68c1.12,0,2.24-1.42,2.79-2.33l-.34-.21c-.69,1-1,1.37-1.46,1.37-.26,0-.26-.14-.26-.31a13.76,13.76,0,0,1,.49-2Z"/><path class="cls-1" d="M92.1,30.08a1.4,1.4,0,0,1-1.39-1.37c0-.06,0-.1,0-.15a12.36,12.36,0,0,1,.53-2.64c.31-1.1.54-1.89.71-2.48a7.23,7.23,0,0,0,.43-1.79.35.35,0,0,0,0-.07c-.31,0-.7.52-1,.85a2.82,2.82,0,0,1-.28.34l-.13.15-.78-.47.13-.21c.56-.95,1.85-2.37,3.06-2.37a1,1,0,0,1,.76.23,1,1,0,0,1,.4.71,1.13,1.13,0,0,1,0,.26c0,.48-.09.88-1,4.3a13.79,13.79,0,0,0-.75,2.78.19.19,0,0,0,.06.12.17.17,0,0,0,.13.07c.92,0,3.77-2.74,5-7.06l.28-1.07,2.24-.35L98.25,27.3v0A11,11,0,0,0,98,28.38h0v0c.34,0,.66-.35,1.27-1.26l.14-.2.75.46-.13.21c-.35.58-1.58,2.46-3,2.46a1,1,0,0,1-.73-.22,1,1,0,0,1-.38-.69.67.67,0,0,1,0-.2,14.91,14.91,0,0,1,.42-2.31c-1.11,1.61-2.66,3.44-4.23,3.44Zm.26-9a.52.52,0,0,1,.53.56,7.5,7.5,0,0,1-.45,1.93c-.17.59-.4,1.38-.71,2.49a10.92,10.92,0,0,0-.51,2.53.38.38,0,0,0,0,.1.9.9,0,0,0,.89.88h0c1,0,2-.93,2.91-2a3.49,3.49,0,0,1-2,1.28h-.07a.7.7,0,0,1-.48-.24.71.71,0,0,1-.17-.5,13.87,13.87,0,0,1,.76-2.88c1-3.43,1-3.75,1-4.18v-.17a.57.57,0,0,0-.22-.38.53.53,0,0,0-.42-.12c-.86,0-1.88,1-2.46,1.81l0-.05C91.38,21.66,91.83,21.09,92.36,21.09Zm4.71,3.62.38.2a14.36,14.36,0,0,0-1,4.09.17.17,0,0,0,0,.1.49.49,0,0,0,.19.35.5.5,0,0,0,.39.11,2.35,2.35,0,0,0,1.51-.8,1,1,0,0,1-.49.13.48.48,0,0,1-.51-.56,13.6,13.6,0,0,1,.5-2.07l.22-.67,1.5-5.11-1.14.17-.2.76A15.8,15.8,0,0,1,97.07,24.71Z"/><path class="cls-1" d="M67.11,20.19l-1.62.26-.36,1.15a1.65,1.65,0,0,0-1.71-1.41C61,20.19,57.6,24,57.6,27.48c0,1.09.6,2.4,1.89,2.4,1.75,0,3.16-1.7,4.08-2.95A8.18,8.18,0,0,0,63.15,29a.48.48,0,0,0,0,.17.81.81,0,0,0,.91.67c1.21,0,2.25-1.3,2.87-2.21l-.33-.26c-.37.52-1,1.43-1.49,1.43-.18,0-.26-.18-.26-.32a4.57,4.57,0,0,1,.17-.91Zm-6.63,8.38c-.81,0-1.2-.85-1.2-1.54,0-2.43,2.27-6.36,4.1-6.38,1,0,1.29.78,1.33,1.68C64.71,25.78,61.77,28.57,60.48,28.57Z"/><path class="cls-1" d="M59.49,30.13a2.4,2.4,0,0,1-2.14-2.65c0-3.64,3.56-7.54,6.07-7.54a1.87,1.87,0,0,1,1.69.89l.19-.6,2.16-.35-2.2,7.76a4.18,4.18,0,0,0-.16.87s0,0,0,.06c.32,0,1-.9,1.24-1.28l.19-.26.72.56-.13.19c-1.06,1.56-2.07,2.32-3.08,2.32a1,1,0,0,1-1.15-.88.87.87,0,0,1,0-.23A8.06,8.06,0,0,1,63,28,5,5,0,0,1,59.49,30.13Zm3.2-9.58c-2.18.66-4.84,3.95-4.84,6.93,0,.84.44,2.15,1.64,2.15,1.59,0,2.9-1.52,3.88-2.85l.93-1.28L63.8,27a9.17,9.17,0,0,0-.41,2,.37.37,0,0,0,0,.11.51.51,0,0,0,.22.36.52.52,0,0,0,.4.1A2.29,2.29,0,0,0,65.49,29a.82.82,0,0,1-.38.11.54.54,0,0,1-.51-.57,5,5,0,0,1,.18-1l2-7-1.09.17-.63,2-.16-1.08a1.41,1.41,0,0,0-.6-1A2,2,0,0,1,65,22.32c0,3.5-3,6.5-4.48,6.5A1.62,1.62,0,0,1,59,27C59,24.78,60.89,21.33,62.69,20.55Zm.68.34c-1.65,0-3.84,3.88-3.84,6.14,0,.5.26,1.29.95,1.29,1.12,0,4-2.65,4-6C64.41,21.07,63.85,20.9,63.37,20.89Z"/><path class="cls-1" d="M28.56,28.63c-.21,0-.32-.08-.32-.27a2.29,2.29,0,0,1,.14-.68h0L32,14.75H31.8l-3.37.57v.41a3.19,3.19,0,0,1,.63-.09c.41,0,.91.09.91.59A9.75,9.75,0,0,1,29.53,18l-2.66,9.39a8.78,8.78,0,0,0-.36,1.45V29a.91.91,0,0,0,1,.82c1.13,0,2.41-1.46,3-2.37l-.38-.26C29.84,27.59,29,28.63,28.56,28.63Z"/><path class="cls-1" d="M27.4,30.06A1.17,1.17,0,0,1,26.26,29v-.2a10.1,10.1,0,0,1,.37-1.51l2.66-9.38a9.62,9.62,0,0,0,.43-1.72c0-.06,0-.3-.66-.3a3.85,3.85,0,0,0-.58.08l-.3.07v-.93l3.58-.61h.58L28.69,27.43h0l-.1.33a2.23,2.23,0,0,0-.14.62h.07c.24,0,.86-.61,1.38-1.36l.14-.2.78.53-.13.2c-.59.93-1.94,2.49-3.21,2.49Zm2-14.65c.75.1.87.54.87.82a10.64,10.64,0,0,1-.45,1.83l-2.66,9.37a8.06,8.06,0,0,0-.35,1.43V29a.65.65,0,0,0,.72.6,3.14,3.14,0,0,0,1.94-1.14,1.46,1.46,0,0,1-.87.47.5.5,0,0,1-.56-.52,2.34,2.34,0,0,1,.09-.54l0-.21L31.68,15Zm-.87,13Z"/><path class="cls-1" d="M72.4,20.39l.83-2.85h-.4c-1.15,1.74-1.89,2.68-3.64,3.1l-.11.41h1.6l-1.82,6.32a10,10,0,0,0-.28,1.45V29a.93.93,0,0,0,1,.81c1.12,0,2.4-1.46,3-2.37l-.38-.26c-.29.44-1.1,1.65-1.74,1.65-.21,0-.27-.2-.27-.35a7.32,7.32,0,0,1,.35-1.54l1.71-5.88h1.66l.18-.66H72.4Z"/><path class="cls-1" d="M69.47,30.06a1.16,1.16,0,0,1-1.13-1,.81.81,0,0,1,0-.22,10.72,10.72,0,0,1,.28-1.5l1.73-6H68.77l.21-.86.15,0c1.63-.39,2.32-1.21,3.5-3l.07-.11h.86l-.83,2.85h1.69L74.1,21.3H72.44L70.78,27a7.08,7.08,0,0,0-.34,1.5.14.14,0,0,0,0,.07c.2,0,.65-.2,1.54-1.53l.14-.21.78.53-.13.2c-.59.93-1.93,2.49-3.2,2.49Zm.08-9.26H71L69.1,27.43a11.12,11.12,0,0,0-.27,1.42V29a.66.66,0,0,0,.73.59,2.3,2.3,0,0,0,1.36-.61,1,1,0,0,1-.46.13.54.54,0,0,1-.52-.6,7.65,7.65,0,0,1,.37-1.62l1.75-6.05h1.66l0-.16H72.1l.06-.32L72.84,18C71.8,19.53,71,20.37,69.55,20.8Z"/><path class="cls-1" d="M54.35,28.63a.31.31,0,0,1-.29-.31c0-.19.48-1.7.83-2.81.86-2.89,1-3.31,1-4.14a1.27,1.27,0,0,0,0-.2,1.21,1.21,0,0,0-1.3-1.12c-2,0-4,3.58-4.79,5.07l.67-2.25a6.41,6.41,0,0,0,.29-1.56v-.08a1.16,1.16,0,0,0-1.19-1.14c-1.94,0-3.79,3.12-4.56,4.61H45l0,0,1.35-4.56h-.2l-3.39.59v.41a1.87,1.87,0,0,1,.62-.1c.42,0,.91.1.91.58a9.44,9.44,0,0,1-.44,1.74l-1.74,6.21h1.56L44,28.44c1-3.47,3.54-7.07,4.65-7.07.45,0,.53.27.53.54a8.12,8.12,0,0,1-.35,1.61l-1.71,6H48.6l.54-1.71c.72-2.18,3.23-6.47,4.56-6.47.38,0,.51.2.51.52a17.42,17.42,0,0,1-.83,3.27,19.29,19.29,0,0,0-1,3.75V29a.84.84,0,0,0,.91.78c1,0,2.29-1.46,2.85-2.37l-.33-.19C55.6,27.59,54.76,28.63,54.35,28.63Z"/><path class="cls-1" d="M53.25,30.05a1.1,1.1,0,0,1-1.08-1v-.13a20.38,20.38,0,0,1,1-3.84A16.27,16.27,0,0,0,54,21.86c0-.2-.07-.24-.26-.24-1.12,0-3.58,4-4.32,6.3l-.6,1.88h-2l1.8-6.35a8.66,8.66,0,0,0,.35-1.57c0-.19,0-.26-.29-.26-.9,0-3.41,3.41-4.41,6.89l-.34,1.29H41.78l1.83-6.52A9.62,9.62,0,0,0,44,21.56s0-.29-.66-.29a1.91,1.91,0,0,0-.54.08l-.33.11v-1l3.6-.62h.58l-.89,3c1-1.45,2.32-3,3.78-3A1.42,1.42,0,0,1,51,21.23v.09a6.83,6.83,0,0,1-.31,1.62l-.08.27c1.12-1.76,2.51-3.41,4-3.41a1.45,1.45,0,0,1,1.54,1.36,1,1,0,0,1,0,.24c0,.77-.12,1.2-.82,3.55l-.19.63c-.59,1.84-.81,2.63-.82,2.75a.06.06,0,0,0,0,.06c.22,0,.9-.74,1.28-1.29l.13-.19.75.43-.13.22c-.61,1-1.93,2.49-3.06,2.49Zm.45-8.93a.7.7,0,0,1,.76.77,17.49,17.49,0,0,1-.85,3.35,20.61,20.61,0,0,0-1,3.71v0a.58.58,0,0,0,.64.56,2.63,2.63,0,0,0,1.57-.89,1,1,0,0,1-.53.22h0a.55.55,0,0,1-.53-.56,17.48,17.48,0,0,1,.84-2.88l.19-.63a12.1,12.1,0,0,0,.81-3.44v-.18a1,1,0,0,0-.33-.66,1,1,0,0,0-.7-.23c-1.27,0-2.81,1.66-4.59,4.94L48.9,27.32l1.34-4.52a6.49,6.49,0,0,0,.28-1.51.91.91,0,0,0-.93-.95c-1.66,0-3.32,2.59-4.07,4,1.07-1.82,2.31-3.18,3.09-3.18a.72.72,0,0,1,.78.79A8.22,8.22,0,0,1,49,23.59L47.41,29.3h1l.5-1.54C49.55,25.79,52.1,21.12,53.7,21.12ZM42.44,29.3h1l.24-.92A17.55,17.55,0,0,1,45.15,25h-1l.62-.42L46,20.4l-2.29.39c.73.12.82.59.82.81a10.42,10.42,0,0,1-.45,1.83Z"/><path class="cls-1" d="M23.85,20.09A5,5,0,0,0,20,22.5H20v0l.73-2.37h-.21l-3.36.55v.42a2.17,2.17,0,0,1,.62-.1c.41,0,.91.1.91.58a9.75,9.75,0,0,1-.44,1.75L15.71,32c-.44,1.46-.77,1.7-2,1.7l-.11.38h4.87l.1-.35c-.66,0-1.58,0-1.58-.71a6.38,6.38,0,0,1,.31-1.29L18,29.25a3.24,3.24,0,0,0,1.77.52c3.6,0,6.2-4.31,6.2-7A2.39,2.39,0,0,0,23.85,20.09Zm-3.76,9.15a2.3,2.3,0,0,1-1.82-.77L19,25.93c1.09-3.66,3-4.85,4-4.85s1.33.94,1.33,1.77C24.31,25.68,22.06,29.24,20.09,29.24Z"/><path class="cls-1" d="M18.71,34.27H13.32l.25-.87h.19c1,0,1.29-.13,1.71-1.53L18,23.22a9.62,9.62,0,0,0,.43-1.72c0-.18-.22-.29-.66-.29a1.71,1.71,0,0,0-.55.09l-.32.1v-1l3.57-.59H21l-.52,1.68a4.56,4.56,0,0,1,3.34-1.68,2.64,2.64,0,0,1,2.41,2.88c0,2.94-2.71,7.29-6.45,7.29h0a3.41,3.41,0,0,1-1.6-.39l-.6,2.13a5.55,5.55,0,0,0-.3,1.25c0,.36.47.43,1.33.43H19Zm-4-.49h2.61a.82.82,0,0,1-.57-.81,6,6,0,0,1,.33-1.37l.77-2.75.28.19a3,3,0,0,0,1.62.48h0c3.39,0,6-4.12,6-6.8a2.16,2.16,0,0,0-1.91-2.38c-1.27,0-2.46.75-3.64,2.31l-.07.09h-.51l.08-.3.64-2.08-2.28.38c.74.11.83.58.83.8a10.42,10.42,0,0,1-.45,1.83L16,32C15.63,33.08,15.34,33.57,14.75,33.78ZM20,29.49a2.53,2.53,0,0,1-1.89-.85L18,28.53l.79-2.67c1-3.45,2.9-5,4.2-5s1.58,1.09,1.58,2c0,2.77-2.25,6.63-4.46,6.64ZM18.54,28.4a2.06,2.06,0,0,0,1.54.59h0c1.78,0,4-3.39,4-6.14,0-.36-.07-1.52-1.08-1.52s-2.7,1.25-3.72,4.67Z"/></svg>