<svg id="Layer_1" data-name="Layer 1" xmlns="http://www.w3.org/2000/svg" viewBox="0 0 120 40"><defs><style>.cls-1{fill:#fff;}</style></defs><path class="cls-1" d="M38.59,7.13h0v6.62c0,1.3,0,1.69,1.46,1.69v.29H36.44v-.29c1.46,0,1.46-.39,1.46-1.69V7.43c0-1.23-.16-1.67-1.46-1.67V5.49h2.9l3.72,8,3.65-8h2.92v.27c-1.46,0-1.46.39-1.46,1.69v6.3c0,1.3,0,1.69,1.46,1.69v.29H45.25v-.29c1.46,0,1.46-.39,1.46-1.69V7.13h0l-3.93,8.6h-.23Zm11.82,4.52a4,4,0,1,1,8,0,4,4,0,1,1-8,0Zm6.61,0c0-1.83-.59-3.83-2.62-3.83s-2.63,2-2.63,3.81.6,3.83,2.63,3.83,2.62-2,2.62-3.81Zm3.88,2.51c0,1.05,0,1.37,1.14,1.37v.23H59.19v-.23c1.14,0,1.14-.32,1.14-1.37V8.64a1.73,1.73,0,0,0-1.6-.87V7.54H61l5,6.12h0V9.09c0-1,0-1.34-1.16-1.34V7.52h2.85v.23c-1.14,0-1.14.32-1.14,1.37v6.73h-.23L60.88,9.28v4.88Zm8.31-5c0-1.05,0-1.37-1.14-1.37V7.54h3.1a6.24,6.24,0,0,1,3.42.69,3.92,3.92,0,0,1,1.65,3.37c0,2.26-1.47,4.16-4.43,4.16H68v-.23c1.16,0,1.16-.32,1.16-1.37v-5Zm1.16,6a6.42,6.42,0,0,0,1.3.16c2.1,0,3.24-1.67,3.24-3.65S73.77,8,71.6,8a4.75,4.75,0,0,0-1.23.18v7Zm8.95-3.88H81c1,0,1.37-.11,1.44-1.23h.22V12.9H82.4c-.12-1.09-.46-1.21-1.44-1.21H79.32v3c0,.53.13.64.66.64h1.69c1.09,0,1.48-.5,2.12-1.6H84l-.69,2.06H77v-.23c1.14,0,1.14-.32,1.14-1.37v-5c0-1.05,0-1.37-1.14-1.37V7.54h6.27l.12,1.83h-.23C82.92,8.09,82.56,8,81.39,8H79.32v3.26Z"/><path class="cls-1" d="M41.8,6.58c0,.19,0,.32.16.32h.5c.3,0,.46-.11.62-.52h.05l-.21.68H41.14V7c.32,0,.32-.09.32-.41V5c0-.32,0-.41-.32-.41V4.55h1v.07c-.39,0-.39.11-.39.46Zm2.12-.91h.46c.3,0,.39,0,.41-.36h.07v.91h-.07c0-.34-.11-.37-.39-.37H44v.92c0,.16,0,.18.18.18h.46c.32,0,.43-.16.61-.48h.07l-.2.61H43.29V7c.32,0,.32-.09.32-.41V5c0-.32,0-.41-.32-.41V4.55H45l.05.55H45c-.07-.39-.16-.41-.5-.41h-.6v1ZM8.19,28c0,.18-.23.87-.23,1.07s.09.39.3.39c.48,0,1.37-1.16,1.67-1.51l.36.23c-.68.91-2,2.56-3.19,2.56-.64,0-.92-.5-.92-1.08a12.18,12.18,0,0,1,.8-3.1l0,0c-1,1.55-2.76,4.22-4.8,4.22C.64,30.75,0,29.08,0,27.8c0-3.33,3.65-7.66,6.59-7.66a2.21,2.21,0,0,1,1.9,1.09l1-3.44a10.11,10.11,0,0,0,.5-1.92c0-.55-.57-.64-1-.64a4.6,4.6,0,0,0-.71.09v-.45L12,14.25h.23L8.24,28ZM6.5,20.71c-2.21,0-4.61,4.45-4.61,6.89,0,.77.35,1.8,1.26,1.8C5,29.4,8,24.54,8,22.37A1.51,1.51,0,0,0,6.5,20.71ZM14,28.42a2.88,2.88,0,0,0-.16.75c0,.21.12.3.32.3.55,0,1.44-1.14,1.76-1.6l.39.28c-.62,1-2.06,2.6-3.27,2.6A1,1,0,0,1,12,29.67a10.11,10.11,0,0,1,.36-1.59l1.24-4.41a9.91,9.91,0,0,0,.5-1.91c0-.53-.57-.64-1-.64a2.37,2.37,0,0,0-.69.11v-.45l3.68-.64h.22L14,28.42Zm2.13-12.8A1.14,1.14,0,1,1,15,16.76,1.13,1.13,0,0,1,16.16,15.62Zm5.47,7.12.07,0c1-1.32,2.37-2.64,4.2-2.64,1.48,0,2.37,1.41,2.37,2.89,0,3-2.85,7.72-6.8,7.72a3.52,3.52,0,0,1-1.94-.57l-.75,2.67a6.44,6.44,0,0,0-.34,1.41c0,.78,1,.78,1.73.78l-.11.38H14.69l.12-.41c1.3,0,1.66-.27,2.14-1.87l2.74-9.49a10.86,10.86,0,0,0,.48-1.92c0-.52-.55-.63-1-.63a2.25,2.25,0,0,0-.68.11v-.46l3.69-.61h.23l-.8,2.6Zm-1.85,6.55a2.51,2.51,0,0,0,2,.84c2.16,0,4.63-3.9,4.63-7,0-.91-.37-1.94-1.46-1.94s-3.15,1.3-4.34,5.32Zm11.09-.87a2.88,2.88,0,0,0-.16.75c0,.21.12.3.35.3.52,0,1.41-1.14,1.73-1.6l.41.28c-.64,1-2.05,2.6-3.29,2.6a1,1,0,0,1-1.09-1.08,10.24,10.24,0,0,1,.39-1.59l2.92-10.29a11.08,11.08,0,0,0,.48-1.92c0-.55-.55-.64-1-.64a4.08,4.08,0,0,0-.69.09v-.45l3.7-.62h.23l-4,14.17Zm3.93-1.26c0-3.42,3.24-7,6.73-7A3.39,3.39,0,0,1,45,23.79c0,3.37-3,7-6.52,7A3.43,3.43,0,0,1,34.8,27.16Zm8.26-4.28a1.93,1.93,0,0,0-1.87-2.17c-2.56,0-4.5,4.63-4.5,7.21a2,2,0,0,0,2,2.28c2.19,0,4.36-4.06,4.36-7.32Zm6,2.28.05,0c.84-1.64,2.87-5.06,5-5.06a1.28,1.28,0,0,1,1.3,1.34,7,7,0,0,1-.32,1.71l-.73,2.47,0,0c.89-1.64,3.08-5.56,5.25-5.56A1.33,1.33,0,0,1,61,21.51c0,.91-.16,1.37-1.1,4.54-.39,1.21-.91,2.87-.91,3.08a.34.34,0,0,0,.32.34c.45,0,1.37-1.14,1.64-1.53l.36.21c-.61,1-2,2.6-3.12,2.6a.93.93,0,0,1-1-.89v-.09a21.73,21.73,0,0,1,1.05-4.11,18.6,18.6,0,0,0,.91-3.58c0-.35-.14-.57-.55-.57-1.46,0-4.22,4.7-5,7.09L53,30.47H51.34l1.87-6.61a9.27,9.27,0,0,0,.39-1.76c0-.3-.09-.59-.59-.59-1.21,0-4,3.94-5.09,7.75l-.32,1.21H45.89l1.91-6.8a10.85,10.85,0,0,0,.48-1.91c0-.53-.54-.64-1-.64a2.3,2.3,0,0,0-.68.11v-.45l3.72-.64h.22l-1.48,5ZM71,28.31a5.3,5.3,0,0,0-.18,1c0,.16.09.35.28.35.52,0,1.23-1,1.64-1.56l.36.28c-.68,1-1.82,2.42-3.15,2.42a.87.87,0,0,1-1-.92,9.75,9.75,0,0,1,.46-2.28l0,0c-1,1.37-2.55,3.24-4.47,3.24-1.41,0-2.07-1.44-2.07-2.63,0-3.81,3.71-8,6.38-8a1.82,1.82,0,0,1,1.88,1.55h0l.39-1.26,1.78-.29L71,28.31Zm-1.78-7.6c-2,0-4.51,4.33-4.51,7,0,.76.43,1.69,1.32,1.69,1.41,0,4.63-3.06,4.63-6.84C70.62,21.57,70.3,20.71,69.18,20.71Zm9.91-.28h1.82l-.2.73H78.93L77.06,27.6a8.13,8.13,0,0,0-.39,1.69c0,.16.07.38.3.38.7,0,1.59-1.32,1.91-1.8l.41.28c-.64,1-2.05,2.6-3.28,2.6a1,1,0,0,1-1.1-1.08,12.05,12.05,0,0,1,.3-1.59l2-6.92H75.46l.11-.45c1.92-.46,2.74-1.49,4-3.4H80l-.91,3.12Zm4.58,8a3.35,3.35,0,0,0-.16.75c0,.21.12.3.32.3.55,0,1.44-1.14,1.76-1.6l.41.28c-.64,1-2,2.6-3.28,2.6a1,1,0,0,1-1.1-1.08A7.69,7.69,0,0,1,82,28.08l1.23-4.41a10.85,10.85,0,0,0,.48-1.91c0-.53-.55-.64-1-.64a2.37,2.37,0,0,0-.69.11v-.45l3.7-.64H86L83.7,28.42Zm2.13-12.8a1.14,1.14,0,1,1-1.15,1.14A1.13,1.13,0,0,1,85.8,15.62Zm8.69,17.23a6.38,6.38,0,0,0-.32,1.41c0,.78,1,.78,1.51.78l-.12.41H90.18l.11-.41c1.55,0,1.92-.28,2.4-1.87l1.75-6.07,0-.05c-.91,1.39-2.65,3.7-4.66,3.7-1.5,0-2.14-1.67-2.14-2.95,0-3.33,3.65-7.66,6.57-7.66A1.91,1.91,0,0,1,96,21.8h0l.35-1.37,1.75-.29L94.51,32.85Zm1.09-10.5a1.57,1.57,0,0,0-1.48-1.64c-2.21,0-4.61,4.45-4.61,6.89,0,.77.34,1.8,1.26,1.8,1.71,0,4.83-4,4.83-7Zm11.82,4.59a15.5,15.5,0,0,0-.54,2.19c0,.18,0,.34.29.34.46,0,.85-.39,1.6-1.51l.37.23c-.6,1-1.83,2.56-3.06,2.56a.85.85,0,0,1-.94-.92,16.23,16.23,0,0,1,1.14-4.56l0,0c-1,1.62-3.33,5.5-5.59,5.5a1.25,1.25,0,0,1-1.26-1.37,12.58,12.58,0,0,1,.57-2.83c1-3.58,1.26-4.15,1.26-4.77,0-.16-.07-.34-.3-.34-.59,0-1.19,1-1.55,1.39L99,22.6c.6-1,1.94-2.46,3.13-2.46a.9.9,0,0,1,1,1c0,.52-.09.91-1.14,4.68a15.37,15.37,0,0,0-.82,3.08.49.49,0,0,0,.52.52c1.17,0,4.34-3.19,5.64-7.94l.27-1,1.85-.29-2,6.8Zm11.78,1.14c-1.37,1.37-3.15,2.67-5.18,2.67a3.33,3.33,0,0,1-3.33-3.43c0-3.42,3.4-7.18,6.89-7.18,1.09,0,2.44.36,2.44,1.69,0,2.48-3.7,4-7.28,4.38a6.23,6.23,0,0,0-.09.91,2.47,2.47,0,0,0,2.56,2.44c1.36,0,2.44-.8,3.76-1.82Zm-.82-6.28a1,1,0,0,0-1.14-1.09c-2.24,0-4,2.92-4.38,4.9C116.83,25.16,118.36,23,118.36,21.8Z"/></svg>