<svg id="Camada_1" data-name="Camada 1" xmlns="http://www.w3.org/2000/svg" viewBox="0 0 120 40"><defs><style>.cls-1{fill:#fff;fill-rule:evenodd;}</style></defs><path class="cls-1" d="M109.25,12.94V27.06H120V24.3h-7.67v-3h7.39V18.57h-7.38V15.7h7.56V12.94ZM46.93,27.26a8.94,8.94,0,0,1-6-2.26l1.83-2.2A6.47,6.47,0,0,0,47,24.52c1.27,0,2-.51,2-1.33v0c0-.79-.48-1.19-2.84-1.8-2.84-.72-4.68-1.51-4.68-4.32v0c0-2.56,2.06-4.25,4.94-4.25a8.17,8.17,0,0,1,5.25,1.79l-1.62,2.34a6.67,6.67,0,0,0-3.67-1.39c-1.19,0-1.81.55-1.81,1.23v0c0,.93.6,1.23,3,1.86,2.87.74,4.48,1.77,4.48,4.23v0c0,2.81-2.14,4.38-5.18,4.38m13.46,0A7.12,7.12,0,0,1,53.15,20v0a7.17,7.17,0,0,1,7.36-7.3,7.3,7.3,0,0,1,5.57,2.18l-2,2.28a5.21,5.21,0,0,0-3.61-1.6A4.18,4.18,0,0,0,56.4,20v0a4.19,4.19,0,0,0,4.09,4.44,5.1,5.1,0,0,0,3.71-1.66l2,2a7.23,7.23,0,0,1-5.79,2.52m41.76,0A7.13,7.13,0,0,1,94.91,20v0a7.18,7.18,0,0,1,7.37-7.3,7.27,7.27,0,0,1,5.56,2.18l-2,2.28a5.21,5.21,0,0,0-3.61-1.6,4.19,4.19,0,0,0-4.1,4.4v0a4.2,4.2,0,0,0,4.1,4.44A5.1,5.1,0,0,0,106,22.78l2,2a7.21,7.21,0,0,1-5.79,2.52m-34.67-.24h3.11V12.94H67.48ZM90.54,12.94v8.69l-6.61-8.69H81.06V15.7H73.63v2.89h7.43v2.74H73.63v3h7.42v2.77h3.07v-9l6.84,9h2.64V12.94Z"/><path class="cls-1" d="M0,12.89H1.59V25.54h8V27H0ZM11.16,27h1.59V12.89H11.16Zm15-14.12h1.72L21.85,27.11H20.44L14.36,12.89h1.78l5,12.16Zm13.54,1.45H31.13v4.82h7.7v1.46h-7.7v4.94h8.71V27H29.53V12.89H39.74Z"/></svg>