<svg id="Camada_1" data-name="Camada 1" xmlns="http://www.w3.org/2000/svg" viewBox="0 0 20.08 40"><defs><style>.cls-1{fill:#fff;}</style></defs><path class="cls-1" d="M7.78,1.45A8.64,8.64,0,0,1,4.87,3.07c-.68,0-.7,0-.63,1s.18,1.09.65,1.14.55.18.55,2.57v2.46h-3v2.49H5.51l-.17,1.41c-.13,1.3-1.67,17.09-2.07,21.27l-.14,1.69H1.83c-1.59,0-1.91.32-1.81,1.79L.09,40H20l.07-1.07c.1-1.44-.25-1.79-1.71-1.79-.67,0-1.22-.07-1.22-.2s-.57-5.5-1.25-12-1.24-11.89-1.24-12,.67-.19,1.49-.19h1.5V10.28h-3V7.82c0-2.34,0-2.49.52-2.57A1.1,1.1,0,0,0,16,3.74c-.12-.53-.32-.67-.79-.67a7.42,7.42,0,0,1-2.66-1.45C11.46.83,10.41.11,10.26,0A8.42,8.42,0,0,0,7.78,1.45ZM14,27.84c.35.12.4.74.4,4.35v4.2H9.92v-4.1c0-3.63.05-4.1.44-4.33A8.48,8.48,0,0,1,14,27.84Z"/></svg>