<svg id="svg_resize" data-name="svg resize" xmlns="http://www.w3.org/2000/svg" viewBox="0 0 170 40"><defs><style>.cls-1{fill:#fff;fill-rule:evenodd;}</style></defs><g id="svgg"><path id="path0" class="cls-1" d="M143.21,13.45c-1.29,2.15-1.28,2-.1,2h1l1.51-1.66c.83-.91,1.53-1.7,1.56-1.76a4.79,4.79,0,0,0-1.5-.11h-1.53l-.94,1.57M73.72,20.11v6.82h2.82V13.29H73.72v6.82m15.52-4.39v2.42l-.34-.37a4.28,4.28,0,0,0-4-.8c-4.35,1.5-3.82,9.55.67,10.18A4,4,0,0,0,89,26.23l.32-.38v1.08h2.7V13.29H89.24v2.43M156,14.47v1.17h2.82V13.29H156v1.18M.15,14.49C0,14.7,0,27.76.15,28a108.91,108.91,0,0,0,11.71,0c.21-.2.21-13.26,0-13.47a114.35,114.35,0,0,0-11.71,0m10.91,6.74v5.94H1V15.29H11.06v5.94m9.81-4.4a2.81,2.81,0,0,0-1.73.83l-.55.47V17.06H15.88v9.87H18.7V23.84c0-4,.21-4.62,1.61-4.75,1.58-.15,1.68.12,1.68,4.4v3.44h2.79l0-3.2c.06-4.14.27-4.68,1.85-4.68,1.38,0,1.54.48,1.54,4.74v3.14h2.83l0-3.85c0-3.76-.05-3.86-.32-4.47-.94-2.08-4.11-2.5-5.84-.76-.29.28-.52.46-.52.39,0-.83-1.91-1.61-3.48-1.41m15.11,0c-2.21.2-3.63,1.28-3.77,2.86l-.05.47,1.29,0c1.38,0,1.45,0,1.65-.58.46-1.38,3.24-1.19,3.24.23,0,.78-.37,1-2.38,1.25-3.23.45-4.19,1.24-4.07,3.37C32,27,35.5,28.19,38,26.52c.51-.34.59-.37.59-.18,0,.57.06.59,1.55.59,1.3,0,1.41,0,1.33-.21a25.11,25.11,0,0,1-.29-5.09V18.74l-.36-.55c-.72-1.08-2.45-1.56-4.82-1.35m11.46,0a3.48,3.48,0,0,0-2,1l-.38.42V17.06H42.33v9.87h2.8l0-3.14c.06-4.12.24-4.6,1.86-4.71s1.82.24,1.86,4.53l0,3.32h2.83l0-3.79c-.06-4.17-.1-4.44-.81-5.3a3.86,3.86,0,0,0-3.46-1m19.7,0c-2.22.2-3.64,1.28-3.78,2.86l0,.47,1.28,0c1.38,0,1.45,0,1.65-.58.46-1.38,3.24-1.19,3.24.23,0,.78-.37,1-2.38,1.25-3.23.45-4.19,1.24-4.06,3.37.15,2.55,3.61,3.72,6.09,2.05.5-.34.58-.37.58-.18,0,.57.07.59,1.56.59,1.29,0,1.4,0,1.33-.21a24,24,0,0,1-.3-5.09V18.74L72,18.19c-.72-1.08-2.45-1.56-4.81-1.35m30.06,0c-5.3.53-6,8.65-.87,10.17a5.07,5.07,0,0,0,6.78-5c0-3.43-2.37-5.49-5.91-5.13m25.08,0c-2.39.2-3.75,1.72-3.31,3.7.27,1.17,1,1.62,3.89,2.33,1.88.47,2.45.92,2.1,1.66-.6,1.26-3.32.88-3.58-.5l-.07-.39h-2.68l.07.5c.33,2.19,2.42,3.34,5.53,3,2.36-.24,3.61-1.38,3.61-3.29s-.66-2.32-3.68-3a11.92,11.92,0,0,1-2-.61c-1-.61-.4-1.52,1-1.52,1,0,1.52.33,1.76,1.09.06.18.23.2,1.37.2h1.29V19.7c0-1.95-2.15-3.12-5.28-2.86m20.57,0c-2.22.2-3.64,1.28-3.78,2.86l0,.47,1.29,0c1.38,0,1.45,0,1.65-.58.46-1.38,3.24-1.19,3.24.23,0,.78-.37,1-2.38,1.25-3.23.45-4.19,1.24-4.06,3.37.14,2.55,3.6,3.72,6.08,2.05.51-.34.59-.37.59-.18,0,.57.06.59,1.55.59,1.3,0,1.41,0,1.34-.21a24,24,0,0,1-.3-5.09V18.74l-.36-.55c-.72-1.08-2.45-1.56-4.81-1.35m11.74,0a3.56,3.56,0,0,0-2.28,1.39l-.29.41V17.06h-2.71v9.87h2.8l0-2.73c.06-4,.63-4.94,2.93-4.77l.7.05V16.85l-.33-.05a4.4,4.4,0,0,0-.86,0m9.5,0c-5.3.53-6,8.65-.87,10.17A5.07,5.07,0,0,0,170,22c0-3.43-2.36-5.49-5.91-5.13M52.94,20.79c.06,4.18.13,4.61.86,5.43a4.1,4.1,0,0,0,5.3.07l.51-.5v1.14h2.71V17.06H59.5v2.8c0,4.35-.3,5.11-2,5.11-1.51,0-1.64-.37-1.69-4.59l0-3.32H52.89l0,3.73m55.61,0c0,4.18.12,4.61.86,5.43a4.08,4.08,0,0,0,5.29.07l.52-.5v1.14h2.7V17.06H115.1v2.8c0,4.35-.3,5.11-2,5.11-1.51,0-1.65-.37-1.7-4.59l0-3.32H108.5l0,3.73m20.1,0c.06,4.18.13,4.61.86,5.43a4.09,4.09,0,0,0,5.29.07l.52-.5v1.14H138V17.06H135.2v2.8c0,4.35-.3,5.11-2,5.11-1.51,0-1.64-.37-1.7-4.59l0-3.32H128.6l.05,3.73M156,22v4.94h2.82V17.06H156V22M3,18.17v.41H9.06v-.82H3v.41m85.11,1c1.69,1,1.67,4.85,0,5.66-2.07,1-3.9-1.5-3.1-4.18a2.16,2.16,0,0,1,3.13-1.48m10.93,0c1.85.94,1.74,5-.15,5.75s-3.13-.6-3.14-3,1.57-3.68,3.29-2.8m66.89,0c1.85.94,1.74,5-.15,5.75s-3.13-.6-3.13-3,1.56-3.68,3.28-2.8M3,21.23v.41H9.06v-.82H3v.41m35.39,1.89a1.88,1.88,0,0,1-2.06,2.16c-2,0-2.25-2-.29-2.45l2.26-.47s.09.34.09.76m31.15,0a1.88,1.88,0,0,1-2.06,2.16c-2,0-2.25-2-.29-2.45l2.26-.47s.09.34.09.76m75.71,0a1.88,1.88,0,0,1-2.06,2.16c-2,0-2.25-2-.29-2.45l2.26-.47s.09.34.09.76M3,24.28v.42H9.06v-.83H3v.41"/></g></svg>