<svg id="Layer_1" data-name="Layer 1" xmlns="http://www.w3.org/2000/svg" viewBox="0 0 105 40"><defs><style>.cls-1{fill:#fff;}</style></defs><polygon class="cls-1" points="13.99 11.67 13.99 11.67 13.99 11.67 9.06 20.22 4.13 11.67 4.12 11.67 4.12 11.67 0 11.67 0 28.33 4.12 28.33 4.12 19.92 7.54 25.86 8.16 26.91 9.96 26.91 10.74 25.54 13.99 19.92 13.99 28.33 18.1 28.33 18.1 11.67 13.99 11.67"/><path class="cls-1" d="M28.24,22.29A2,2,0,0,0,26.3,20.1a2.08,2.08,0,0,0-2,2.19,2.05,2.05,0,0,0,2,2.19A2,2,0,0,0,28.24,22.29Zm-8.34,0c0-3.64,2.49-6.09,5-6.09A4.18,4.18,0,0,1,28.43,18l.41-1.48h3.69V28H28.84l-.41-1.48a4.16,4.16,0,0,1-3.51,1.8C22.39,28.34,19.9,25.89,19.9,22.32Z"/><path class="cls-1" d="M43.23,17v3.5a8.11,8.11,0,0,0-3.55-.88c-.72,0-1.11.14-1.11.42s.41.46,1.52.71c2,.42,4,1.13,4,3.62s-1.89,3.92-5.34,3.92a8.88,8.88,0,0,1-4.18-.94V23.65a6.93,6.93,0,0,0,4,1.25c.85,0,1.34-.14,1.34-.46s-.62-.49-2-.85c-1.77-.46-3.48-1.32-3.48-3.48s1.83-3.88,5.08-3.88A8.51,8.51,0,0,1,43.23,17Z"/><path class="cls-1" d="M50.07,17.43h0A4.09,4.09,0,0,1,53,16.21a3.69,3.69,0,0,1,4,4.06V28H52.63V21.4c0-.93-.41-1.34-1.2-1.34a1.24,1.24,0,0,0-1.34,1.27V28H45.72V11.64h4.37v5.79Z"/><path class="cls-1" d="M66.81,22.29a2,2,0,0,0-1.94-2.19,2.07,2.07,0,0,0-2,2.19,2,2,0,0,0,2,2.19A2,2,0,0,0,66.81,22.29Zm-8.33,0c0-3.64,2.49-6.09,5-6.09A4.22,4.22,0,0,1,67,18l.4-1.48H71.1V28H67.41L67,26.53a4.19,4.19,0,0,1-3.52,1.8C61,28.34,58.48,25.89,58.48,22.32Z"/><path class="cls-1" d="M77.59,22.25a2,2,0,0,0,1.94,2.19,2,2,0,0,0,2-2.17,2.07,2.07,0,0,0-2-2.21A2,2,0,0,0,77.59,22.25Zm0-4.29A4.27,4.27,0,0,1,81,16.21c2.63,0,4.87,2.37,4.87,6s-2.43,6-5.06,6a4.17,4.17,0,0,1-3.45-1.8L77,28H73.29V11.64h4.35Z"/><rect class="cls-1" x="87.56" y="11.64" width="4.34" height="16.34"/><path class="cls-1" d="M100.92,21a1.44,1.44,0,0,0-1.49-1.48A2,2,0,0,0,97.58,21Zm4,2.41H97.74A3.36,3.36,0,0,0,100.9,25a8.16,8.16,0,0,0,3.34-.85v3.32a9,9,0,0,1-4,.85c-4.38,0-6.76-2.58-6.76-6a5.81,5.81,0,0,1,5.93-6.07c3.06,0,5.55,2,5.55,5.88A7.4,7.4,0,0,1,104.91,23.44Z"/></svg>