<svg id="Camada_1" data-name="Camada 1" xmlns="http://www.w3.org/2000/svg" viewBox="0 0 120 40"><defs><style>.cls-1{fill:#fff;}</style></defs><path class="cls-1" d="M18,20.1A9,9,0,1,1,9,11a9,9,0,0,1,9,9.06"/><path class="cls-1" d="M27.86,20.1c0,4.71-2,8.52-4.5,8.52s-4.5-3.81-4.5-8.52,2-8.53,4.5-8.53,4.5,3.82,4.5,8.53"/><path class="cls-1" d="M31.9,20.1c0,4.22-.71,7.64-1.58,7.64s-1.59-3.42-1.59-7.64.71-7.64,1.59-7.64,1.58,3.42,1.58,7.64"/><path class="cls-1" d="M56.72,11.83h0v-.19H51.63L46.88,22.79,42.13,11.63H36.62v.19h0c.94.21,1.41.52,1.41,1.65V26.76c0,1.13-.47,1.44-1.41,1.65h0v.19h3.74v-.19h0c-.93-.21-1.41-.52-1.41-1.65V14.25L45,28.61h.34l6.28-14.76V27.08c-.08.9-.54,1.18-1.39,1.37h0v.2h6.52v-.2h0c-.84-.19-1.32-.47-1.4-1.37V13.48h0c0-1.13.47-1.44,1.4-1.65m3,8.79c.11-2.39,1-4.11,2.4-4.14a1.56,1.56,0,0,1,1.1.43c.62.6.91,1.85.86,3.71Zm-.06.67h7.63v0A5.7,5.7,0,0,0,65.71,17a5.18,5.18,0,0,0-3.56-1.3h0a5.31,5.31,0,0,0-2.2.48,5.19,5.19,0,0,0-1.85,1.46,7.24,7.24,0,0,0-1.46,4c0,.05,0,.09,0,.14s0,.09,0,.13,0,.17,0,.26v.41c.08,3.55,2,6.39,5.41,6.39,3,0,4.74-2.19,5.18-5.13L67,23.81a3.87,3.87,0,0,1-3.7,2.42c-2.13-.16-3.76-2.32-3.61-4.94m16.27,4.82a1.51,1.51,0,0,1-1.48.92,2.12,2.12,0,0,1-1.79-1.36,8.46,8.46,0,0,1-.75-3.83c0-3.27,1-5.38,2.59-5.38a1.48,1.48,0,0,1,1.43.89ZM81,28.44a1.49,1.49,0,0,1-1.4-1.74V10.84l-5.68,1.67v.21h0a2.07,2.07,0,0,1,1.62.33,1.34,1.34,0,0,1,.36,1v2.18a3.66,3.66,0,0,0-2-.53,5.51,5.51,0,0,0-4.22,1.94,7.77,7.77,0,0,0-1.72,5.15c0,3.7,1.82,6.18,4.53,6.18a3.59,3.59,0,0,0,3.44-2.33v2H81v-.21ZM85.84,13a2,2,0,0,0-2-2,2,2,0,1,0,0,4,2,2,0,0,0,2-2m1.34,15.44c-.94-.22-1.41-.55-1.41-1.74h0V15.77l-5.09,1.47v.2h0c1.11.1,1.41.48,1.41,1.76v9.45H87.2v-.21Zm13,0a1.49,1.49,0,0,1-1.4-1.74V15.77L94,17.19v.2h0c.9.09,1.16.5,1.16,1.79v6.9a1.74,1.74,0,0,1-1.55,1c-1.11,0-1.72-.75-1.72-2.1V15.77L86.8,17.24v.2h0c1.1.1,1.41.48,1.41,1.76V25a6.55,6.55,0,0,0,.1,1.22l.1.4A3.1,3.1,0,0,0,91.77,29a3.66,3.66,0,0,0,3.39-2.38v2h5.09v-.21Zm19.78.21v-.21h0c-1-.24-1.4-.68-1.4-1.57V19.44c0-2.32-1.3-3.7-3.48-3.7a3.58,3.58,0,0,0-3.45,2.34,3.13,3.13,0,0,0-3.33-2.34,3.29,3.29,0,0,0-3.24,2.17V15.77L100,17.18v.2h0c1.09.1,1.41.49,1.41,1.74v9.53h4.75v-.21h0c-.8-.19-1.06-.54-1.06-1.43V18.49a1.6,1.6,0,0,1,1.49-1.09c1.06,0,1.6.74,1.6,2.18v9.07h4.75v-.21h0c-.8-.19-1.06-.54-1.06-1.43V19.44a5.62,5.62,0,0,0-.07-.85,1.7,1.7,0,0,1,1.56-1.19c1.08,0,1.6.72,1.6,2.18v9.07Z"/></svg>