<svg id="Camada_1" data-name="Camada 1" xmlns="http://www.w3.org/2000/svg" viewBox="0 0 100 40"><defs><style>.cls-1{fill:#fff;}</style></defs><path class="cls-1" d="M0,25.33c0-4.25,2.9-7.71,8.47-7.71,5.92,0,7.92,3.48,8.15,5.89v.41H13.7v-.21c.06-1.55-1.37-3.64-5.08-3.64S3,22.3,3,25.33C3,28,4.6,30.5,8.66,30.5c3.49,0,5.19-1.71,5-3.57v-.05h2.68V27C16.48,29.83,14.21,33,8.6,33,2.21,33,0,29.06,0,25.33Zm85.91.3c0-4.6,2.75-7.46,7-7.46S100,21,100,25.63,97.25,33,92.94,33,85.91,30.21,85.91,25.63Zm11,0c0-2.94-1.53-4.78-4-4.78s-4,1.84-4,4.78,1.5,4.73,4,4.73S97,28.55,97,25.63ZM75.61,32.08a1.46,1.46,0,0,0,.44.16,2.7,2.7,0,0,0,.49,0,1.89,1.89,0,0,0,1.39-.54,2.06,2.06,0,0,0,.56-1.5,5.14,5.14,0,0,0-.41-1.93A17.1,17.1,0,0,0,77,26.19c-.42-.7-.79-1.37-1.11-2a4.48,4.48,0,0,1-.46-2.07,3.73,3.73,0,0,1,1.35-2.9,5.82,5.82,0,0,1,4-1.14,8.4,8.4,0,0,1,2.17.29,3.65,3.65,0,0,1,1.73.95,2.53,2.53,0,0,1,.67,1.91,3,3,0,0,1-.5,1.62,1.55,1.55,0,0,1-1.42.77A1.46,1.46,0,0,1,82.16,23a2.71,2.71,0,0,1-.44-1.64A3.87,3.87,0,0,1,82,19.79a3.63,3.63,0,0,1,.58-1,1.52,1.52,0,0,0-.66-.12,1.75,1.75,0,0,0-1.41.53A2.4,2.4,0,0,0,80,20.77a3.34,3.34,0,0,0,.48,1.82l1.07,1.88A17.93,17.93,0,0,1,82.78,27a5.27,5.27,0,0,1,.35,1.88,3.65,3.65,0,0,1-.62,2,4.18,4.18,0,0,1-1.81,1.46,7,7,0,0,1-3,.53,9.63,9.63,0,0,1-2.39-.33,3.94,3.94,0,0,1-1.84-1.09,3.31,3.31,0,0,1-.18-3.79A1.55,1.55,0,0,1,74.66,27a1.47,1.47,0,0,1,1.25.66,2.81,2.81,0,0,1,.47,1.74A4.56,4.56,0,0,1,76.09,31C75.9,31.44,75.74,31.81,75.61,32.08Zm-57-3.37V18H21V28.88c0,1.2,0,1.69.48,1.69s.49-.49.49-1.69V18h2.19v10.7c0,3.38-1.06,4.16-2.79,4.16S18.56,32.09,18.56,28.71Zm8.19-10.63H40c6.29,0,8.42,1.69,8.42,4.27,0,1.65-.86,3.1-3.76,3.5v0c3.18.38,3.67,2,3.67,3.79v3H44.87v-3c0-1.43-.46-2.73-4-2.73H30.18v5.71H26.75Zm13.73,6.7c3.09,0,4.46-.55,4.46-1.93s-1.28-2-5.15-2H30.18v4Zm23.69,5.48a3.63,3.63,0,0,1-1.6-.81,14.06,14.06,0,0,1-4.14-1.3,7.51,7.51,0,0,0,.31.91C60.51,29.84,62.46,30.55,64.17,30.26Zm-6.06-4.72v.09q0,.4,0,.78a19.28,19.28,0,0,0,3.23.95,6.7,6.7,0,0,1-.18-1.09A18.91,18.91,0,0,1,58.11,25.54Zm9.35,6.16a4.66,4.66,0,0,1-2,1.33,9.55,9.55,0,0,0,1.31-.15,5.25,5.25,0,0,0,.73-.61c1.08-1.11,1.86-2.11,3.44-2.09.13-.2.25-.41.36-.62C69.38,29.29,68.63,30.41,67.46,31.7Z"/><path class="cls-1" d="M62.37,29.18a2.59,2.59,0,0,1-.84-1.31,18.57,18.57,0,0,1-3.35-1c0,.35.1.69.17,1a11.39,11.39,0,0,0,3.52,1.25Zm5,1.64c-1.48,1.82-3.54,1.94-5.6,1.49a7.43,7.43,0,0,0,2.81.71,4.65,4.65,0,0,0,2.88-1.59c1.18-1.38,1.93-2.53,4-2.16a5.36,5.36,0,0,0,.24-.6C69.26,28.07,68.56,29.31,67.34,30.82Zm-8.8-8.08a8.64,8.64,0,0,0-.26,1,22.16,22.16,0,0,0,3,.36,5.58,5.58,0,0,1,.41-1.19A30.8,30.8,0,0,1,58.54,22.74Zm8.75-3.82c.65.14,1.3.26,1.94.38a6,6,0,0,0-1.06-.56L67,18.51a7.59,7.59,0,0,1-1.06-.31c-.21,0-.43,0-.65,0a6.7,6.7,0,0,0,2,.75ZM64,18.25a26,26,0,0,0,6.86,2.65,4,4,0,0,0-.45-.57c-.87-.23-1.45-.33-2.27-.62l-.52-.17a9.24,9.24,0,0,1-3-1.35Q64.33,18.2,64,18.25Zm5,6.13c0,.22.06.43.08.66a4.25,4.25,0,0,1,2,.23c.37.12.74.26,1.11.41v-.05c0-.17,0-.33,0-.5a13,13,0,0,0-1.31-.5A4.56,4.56,0,0,0,69,24.38Zm-1.48,8.15-.3.25a7.14,7.14,0,0,0,1.07-.37A5.13,5.13,0,0,1,70,31.32a5.92,5.92,0,0,0,.75-.83C69.35,30.58,68.59,31.51,67.56,32.53Zm-9.35-8.34q-.06.45-.09.93a21.06,21.06,0,0,0,3,.64v-.13a8.22,8.22,0,0,1,.06-1A21.86,21.86,0,0,1,58.21,24.19Z"/><path class="cls-1" d="M70.15,20.05a6.8,6.8,0,0,0-.57-.5c-.72-.13-1.43-.27-2.14-.43A7.43,7.43,0,0,1,65,18.17h-.18a6.55,6.55,0,0,0,2.09,1q.3.11.6.18l.26.07C68.53,19.64,69.4,19.89,70.15,20.05Zm-2,2.23a4,4,0,0,1,.35.56,12,12,0,0,1,3.45.7c0-.15-.07-.29-.11-.44A16,16,0,0,0,68.18,22.28Zm.49.84a4.57,4.57,0,0,1,.22.62,9.58,9.58,0,0,1,3.22.61,5.81,5.81,0,0,0-.09-.58A11,11,0,0,0,68.67,23.12ZM67.05,21.3a3.84,3.84,0,0,1,.88.68,18.52,18.52,0,0,1,3.88.9c0-.15-.09-.3-.14-.44A28.34,28.34,0,0,0,67.05,21.3Z"/><path class="cls-1" d="M64.22,19.76a15,15,0,0,0-3.13-.48,6,6,0,0,0-1.3,1.16,40.62,40.62,0,0,1,4.8.25,43.32,43.32,0,0,1,7,1.58c-.06-.15-.13-.31-.2-.46C69,21.12,66.61,20.43,64.22,19.76Zm-.57-1.38-.12-.06a7.21,7.21,0,0,0-1.67.53,18,18,0,0,1,2.18.46c2.3.62,4.73,1.4,7.18,2.16-.06-.11-.12-.22-.19-.33A33,33,0,0,1,63.65,18.38ZM69,24.05a.47.47,0,0,0,0,.09,5.45,5.45,0,0,1,1.75.2,10.08,10.08,0,0,1,1.42.53,2.11,2.11,0,0,1,0-.26A9.07,9.07,0,0,0,69,24.05ZM58.72,22.23q1.68.12,3.36.09a3.38,3.38,0,0,1,1.51-1.18c-1.42,0-2.85,0-4.29,0A7.07,7.07,0,0,0,58.72,22.23Zm13,5.48a3.06,3.06,0,0,0-3,.31,3.68,3.68,0,0,1-1.49,1.79l0,0c-1.9,2.54-4.68,2.07-7.27,1.09a6.28,6.28,0,0,0,1.25,1c2.25.59,4.52.56,6.13-1.48,1.23-1.55,1.9-2.84,4.5-2.13a5.69,5.69,0,0,0,.16-.59Z"/><path class="cls-1" d="M66.66,30.09a4.39,4.39,0,0,1-1.52.27h0c-1.87.78-4.13,0-6.18-.85a6.88,6.88,0,0,0,.59,1C62,31.46,64.71,32.09,66.66,30.09Zm4.53-4.49a4.09,4.09,0,0,0-2-.22c0,.09,0,.17,0,.26s0,.35,0,.52a3.72,3.72,0,0,1,2.26.16c.25.08.51.17.76.27,0-.2,0-.41,0-.62A9.94,9.94,0,0,0,71.19,25.6Zm.28,1.06a3.63,3.63,0,0,0-2.39-.09,4.79,4.79,0,0,1-.19.93,3.2,3.2,0,0,1,2.75-.12l.38.12c0-.2.07-.4.1-.61C71.9,26.8,71.69,26.73,71.47,26.66Z"/><path class="cls-1" d="M55.51,29.26h.39l-.51,1.57a2.9,2.9,0,0,1-1.26,1.78A3.34,3.34,0,0,1,52.5,33a2.41,2.41,0,0,1-1.45-.39,1.76,1.76,0,0,1-.68-1.23,5,5,0,0,1,.26-2.07l1.87-5.93a2.71,2.71,0,0,0,.09-.41c0-.21,0-.35-.08-.42a.31.31,0,0,0-.2-.07.76.76,0,0,0-.56.29,3.3,3.3,0,0,0-.55,1.07l-.47,1.3h-.38l.57-1.67a2.86,2.86,0,0,1,2.69-2.2h.32a2.09,2.09,0,0,1,1.52.47A1.86,1.86,0,0,1,56,22.92h0a3.19,3.19,0,0,1-.15,1.37l-2.1,6.62a1.08,1.08,0,0,0-.06.71.32.32,0,0,0,.3.19.91.91,0,0,0,.47-.23,2.71,2.71,0,0,0,.61-1.13Zm1.23-9.87c.21,2-3.28,1.84-3.53,0a1.24,1.24,0,0,1,1-1.39A1.94,1.94,0,0,1,56.74,19.39Z"/><path class="cls-1" d="M.09,7.08h2.3l2.12,6.05h0L6.66,7.08H8.9v8H7.46l0-6.86h0L5.06,15.08H3.86L1.45,8.22h0l0,6.86H.09Zm10.28,0h5.4V8.29h-4v2.29H15v.95H11.81v2.34h4.07v1.22H10.37Zm6.06,4.09A4,4,0,0,1,20.13,7h.38C22.5,7,24,8,24,9.86c0,.14,0,.33,0,.48H22.69c0-.15,0-.28,0-.39,0-1.13-.95-1.78-2.17-1.78a2.7,2.7,0,0,0-2.65,3,2.64,2.64,0,0,0,2.38,2.88h.21a2,2,0,0,0,2.19-1.7.49.49,0,0,1,0-.12v-.18H20.22v-.93h3.84v3.94h-1.2c0-.31.06-.88.07-1.43h0c-.24.92-1.13,1.56-2.57,1.56a3.78,3.78,0,0,1-3.93-3.61A3.09,3.09,0,0,1,16.43,11.17Zm14.63,2.11H27.38l-.67,1.8H25.22l3.21-8h1.76l3.2,8H31.72Zm-.36-1-1.46-4h0l-1.47,4Z"/></svg>