<svg xmlns="http://www.w3.org/2000/svg" height="74px" width="426px" version="1.1" xmlns:xlink="http://www.w3.org/1999/xlink" viewBox="0 0 426 74"><g id="m-logo-metropoles" fill-rule="evenodd" fill="none"><g id="HOME-DESKTOP" transform="translate(-747 -36)"><g id="Header-e-anuncio"><g id="assets/desktop/globais/header/full"><g id="Group-2" transform="translate(746 36)"><g id="Group-3" transform="translate(.61055 .099391)"><polygon points="0 0.5182 78.767 0.5182 78.767 73.067 63.221 73.067 63.221 15.845 47.675 15.845 47.675 72.556 32.129 72.556 32.129 15.845 16.583 15.845 16.583 72.556 1.0364 72.556 1.0364 0.5182" fill="#C32417"></polygon><g id="Group" fill="#111" transform="translate(92.24 21.765)"><path d="m1.5646 51.329c-1.0431 0-1.5646-0.518-1.5646-1.555v-35.781c0-1.038 0.52153-1.556 1.5646-1.556h19.818c1.043 0 1.564 0.518 1.564 1.556v4.667c0 1.037-0.521 1.555-1.564 1.555h-11.995l-0.0004 7.26h10.952c1.043 0 1.564 0.519 1.564 1.556v4.149c0 1.037-0.521 1.555-1.564 1.555h-10.952l-0.0004 8.816h12.516c1.043 0 1.565 0.518 1.565 1.556v4.667c0 1.037-0.522 1.555-1.565 1.555h-20.339-0.0004z"></path><path d="m59.95 12.408c1.044 0 1.565 0.518 1.565 1.556v4.667c0 1.037-0.521 1.555-1.565 1.555h-7.301v29.559c0 1.037-0.522 1.555-1.565 1.555h-6.258c-1.043 0-1.565-0.518-1.565-1.555v-29.559h-7.301c-1.043 0-1.565-0.518-1.565-1.555v-4.667c0-1.038 0.522-1.556 1.565-1.556h23.99z"></path><path fill-rule="nonzero" d="m95.936 35.743l5.734 14.002c0.52 1.037-0.52 1.555-1.56 1.555h-6.26c-1.043 0-1.564-1.037-1.564-1.555l-5.216-12.964h-4.172v12.964c0 1.037-0.522 1.555-1.565 1.555h-6.258c-1.043 0-1.565-0.518-1.565-1.555v-35.781c-0.521-1.038 0-1.556 1.565-1.556h12.517c10.952 0 14.598 4.667 14.598 9.853v5.185c0 3.112-1.56 6.223-6.254 8.297zm-13.038-15.557v9.335h4.694c2.607 0 5.215-1.038 5.215-3.63v-1.556c0-2.593-2.608-3.63-5.215-3.63h-4.694v-0.519z"></path><path fill-rule="nonzero" d="m114.71 21.742c0-5.186 3.65-9.853 14.6-9.853 10.96 0 14.61 4.667 14.61 9.853v20.224c0 5.186-4.17 9.853-14.61 9.853-10.43 0-14.6-4.667-14.6-9.853v-20.224zm20.34 1.556c0-2.593-2.61-3.63-5.21-3.63-2.61 0-5.22 1.037-5.22 3.63v17.112c0 2.593 2.61 3.63 5.22 3.63 2.6 0 5.21-1.037 5.21-3.63v-17.112zm-1.56-15.039c-0.52 0.5185-1.05 1.0371-2.09 1.0371h-4.69c-1.05 0-1.57-0.5186-1.05-1.5557l2.09-5.1857c0.52-1.0371 1.04-1.5557 2.61-1.5557l6.26 0.00004c1.04 0 1.56 0.51856 1.04 1.5557l-4.17 5.7043z"></path><path fill-rule="nonzero" d="m167.39 38.336v11.409c0 1.037-0.53 1.555-1.57 1.555h-6.26c-1.04 0-1.56-0.518-1.56-1.555v-35.781c0-1.038 0.52-1.556 1.56-1.556h12.52c10.95 0 14.6 4.667 14.6 9.853v6.222c0 5.186-3.65 9.853-14.6 9.853h-4.69zm0-18.15v10.372h4.69c2.61 0 5.22-1.037 5.22-3.63v-2.593c0-2.593-2.61-3.63-5.22-3.63h-4.69v-0.519z"></path><path fill-rule="nonzero" d="m196.07 21.742c0-5.186 3.65-9.853 14.6-9.853 10.96 0 14.61 4.667 14.61 9.853v20.224c0 5.186-4.18 9.853-14.61 9.853s-14.6-4.667-14.6-9.853v-20.224zm19.82 1.556c0-2.593-2.61-3.63-5.22-3.63-2.6 0-5.21 1.037-5.21 3.63v17.112c0 2.593 2.61 3.63 5.21 3.63 2.61 0 5.22-1.037 5.22-3.63v-17.112z"></path><path d="m246.14 43.522h11.47c1.04 0 1.57 0.518 1.57 1.556v4.667c0 1.037-0.53 1.555-1.57 1.555h-19.29c-1.05 0-1.57-0.518-1.57-1.555v-35.781c0-1.038 0.52-1.556 1.57-1.556h6.25c1.05 0 1.57 0.518 1.57 1.556v29.558z"></path><path d="m271.69 51.3c-1.04 0-1.56-0.518-1.56-1.555v-35.781c0-1.038 0.52-1.556 1.56-1.556h19.82c1.04 0 1.57 0.518 1.57 1.556v4.667c0 1.037-0.53 1.555-1.57 1.555h-11.99v7.26h10.95c1.04 0 1.56 0.519 1.56 1.556v4.149c0 1.037-0.52 1.555-1.56 1.555h-10.95v8.816h12.51c1.05 0 1.57 0.518 1.57 1.556v4.667c0 1.037-0.52 1.555-1.57 1.555h-20.34z"></path><path d="m323.33 22.779c0-2.593-2.09-3.63-4.7-3.63s-4.69 1.037-4.69 3.63v0.519c0 1.555 1.04 2.074 2.08 2.593l9.91 3.111c4.18 1.556 7.3 4.667 7.3 8.816v4.148c0 5.186-3.65 9.853-14.6 9.853s-14.6-4.667-14.6-9.853v-3.63c0-1.037 0.52-1.555 1.56-1.555h6.26c1.04 0 1.57 0.518 1.57 1.555v2.593c0 2.593 2.08 3.63 5.21 3.63 2.61 0 5.22-1.037 5.22-3.63v-1.037c0-2.074-2.61-3.111-5.22-3.63l-8.34-3.111c-3.13-1.038-5.22-4.149-5.22-7.779v-3.63c0-5.186 3.13-9.853 13.56-9.853 10.95 0 14.08 4.667 14.08 9.853v2.074c0 1.037-0.52 1.556-1.56 1.556h-6.26c-1.04 0-1.56-0.519-1.56-1.556v-1.037z"></path></g></g></g></g></g></g></g></svg>