<svg id="Camada_1" data-name="Camada 1" xmlns="http://www.w3.org/2000/svg" viewBox="0 0 110 40"><defs><style>.cls-1{fill:#fff;fill-rule:evenodd;}</style></defs><g id="Page-1"><g id="Matéria-Copy-2"><g id="Group-4-Copy-3"><path id="TIMES" class="cls-1" d="M72.33,13.62,72,15.88H68.8L67.5,26.37H64.67L66,15.88h-3.3L63,13.62ZM75,26.37H72.08l1.61-12.75h2.87Zm9-5.61c.12.38.22.75.31,1.1l.3-.57.32-.56L88.73,14a.75.75,0,0,1,.44-.36,1.7,1.7,0,0,1,.51-.08h2.2L90.35,26.37H87.84L88.73,19a1.14,1.14,0,0,1,.09-.52,2.29,2.29,0,0,0,.12-.59l-3.84,6.6a1.06,1.06,0,0,1-.45.44A1.32,1.32,0,0,1,84,25h-.38a1,1,0,0,1-.58-.15.74.74,0,0,1-.34-.44l-2.2-6.6v1.09l-.88,7.46H77l1.58-12.75h2.75a.36.36,0,0,1,.18.12.62.62,0,0,1,.14.25Zm17.18-4.94H96.36L96,18.89H99.6L99.31,21H95.68l-.38,3.15h4.78l-.27,2.2H92.18l1.58-12.75h7.6Zm8,.36a1.3,1.3,0,0,1-.31.31.64.64,0,0,1-.36.08.73.73,0,0,1-.4-.13l-.45-.28a3.81,3.81,0,0,0-.57-.29,2,2,0,0,0-.77-.13,1.84,1.84,0,0,0-.7.11,1.52,1.52,0,0,0-.51.32,1.35,1.35,0,0,0-.3.47,1.69,1.69,0,0,0-.09.59.89.89,0,0,0,.19.59,1.76,1.76,0,0,0,.53.41,3.49,3.49,0,0,0,.74.33l.84.32a8.32,8.32,0,0,1,.85.41,3.23,3.23,0,0,1,.75.57,2.6,2.6,0,0,1,.52.82,3.19,3.19,0,0,1,.19,1.15,4.73,4.73,0,0,1-.33,1.82,4.22,4.22,0,0,1-1,1.48,4.41,4.41,0,0,1-1.51,1,5.28,5.28,0,0,1-2,.36,4.08,4.08,0,0,1-1.1-.12,5.2,5.2,0,0,1-1.1-.34,5.84,5.84,0,0,1-1-.52,4.39,4.39,0,0,1-.74-.69l1-1.33a1,1,0,0,1,.29-.25,1.24,1.24,0,0,1,.38-.09.73.73,0,0,1,.47.17l.52.37a3.86,3.86,0,0,0,.65.39,2.36,2.36,0,0,0,.91.16,1.64,1.64,0,0,0,1.23-.43,1.69,1.69,0,0,0,.44-1.29,1,1,0,0,0-.2-.64,1.75,1.75,0,0,0-.51-.43,5.27,5.27,0,0,0-.74-.31l-.84-.3a6.24,6.24,0,0,1-.84-.36,2.5,2.5,0,0,1-.73-.56,2.79,2.79,0,0,1-.52-.86,3.25,3.25,0,0,1-.17-1.28,4.4,4.4,0,0,1,.34-1.59,4.29,4.29,0,0,1,.91-1.39,4.5,4.5,0,0,1,1.45-1,4.92,4.92,0,0,1,3-.24,4.11,4.11,0,0,1,1,.3,3.72,3.72,0,0,1,.81.49A2.71,2.71,0,0,1,110,15Z"/><path id="MONEY-Copy" class="cls-1" d="M6.88,20.76a11,11,0,0,1,.32,1.1l.29-.57.32-.56L11.71,14a.75.75,0,0,1,.44-.36,1.81,1.81,0,0,1,.51-.08h2.2L13.33,26.37H10.82L11.71,19a1.14,1.14,0,0,1,.09-.52,5.61,5.61,0,0,1,.13-.59L8.09,24.39a1,1,0,0,1-.46.44A1.25,1.25,0,0,1,7,25H6.6A1.06,1.06,0,0,1,6,24.83a.75.75,0,0,1-.36-.44l-2.2-6.6v1.09l-.88,7.47H0L1.57,13.62h2.5a.53.53,0,0,1,.25,0,.39.39,0,0,1,.19.12.6.6,0,0,1,.13.25Zm20.76-1.58a8.17,8.17,0,0,1-.24,2,7,7,0,0,1-.69,1.76,6.33,6.33,0,0,1-1.1,1.48,6.78,6.78,0,0,1-1.41,1.1,7,7,0,0,1-1.69.73,6.89,6.89,0,0,1-1.92.25A5.38,5.38,0,0,1,18.32,26a5,5,0,0,1-1.7-1.21,5.14,5.14,0,0,1-1.1-1.8,6.61,6.61,0,0,1-.38-2.2,7.79,7.79,0,0,1,.25-2,6.62,6.62,0,0,1,.68-1.76,6.33,6.33,0,0,1,1.1-1.48,6.53,6.53,0,0,1,1.41-1.1,6.79,6.79,0,0,1,1.68-.73,6.65,6.65,0,0,1,1.93-.25,5.3,5.3,0,0,1,2.26.44,5,5,0,0,1,1.69,1.21A5.18,5.18,0,0,1,27.24,17,6.63,6.63,0,0,1,27.64,19.18Zm-2.93.07a5.17,5.17,0,0,0-.18-1.46,3.25,3.25,0,0,0-.55-1.1,2.49,2.49,0,0,0-.9-.71,2.66,2.66,0,0,0-1.18-.24,3.33,3.33,0,0,0-1.58.36,3.44,3.44,0,0,0-1.17,1,4.94,4.94,0,0,0-.75,1.59,7.76,7.76,0,0,0-.25,2,5.06,5.06,0,0,0,.18,1.45,3.14,3.14,0,0,0,.54,1.1,2.51,2.51,0,0,0,.88.71,2.77,2.77,0,0,0,1.2.24,3.38,3.38,0,0,0,1.57-.35,3.49,3.49,0,0,0,1.18-1,4.94,4.94,0,0,0,.75-1.59A7.37,7.37,0,0,0,24.71,19.25Zm6.36-5.63h.32a.41.41,0,0,1,.22,0,.46.46,0,0,1,.18.13L32,14l4.47,7.87a1.88,1.88,0,0,1,.06-.58,1.88,1.88,0,0,0,0-.53l.91-7.12h2.53L38.34,26.37H36.85a1.19,1.19,0,0,1-.55-.1.8.8,0,0,1-.38-.37L31.52,18v.9l-.88,7.44H28l1.57-12.75Zm18,2.2H44.35L44,18.89h3.62L47.29,21H43.71l-.39,3.15h4.76l-.28,2.2H40.19l1.6-12.75h7.6Zm6.79,5.67-.61,4.88H52.4L53,21.51l-3.3-7.89h2.54a.92.92,0,0,1,.58.17,1.05,1.05,0,0,1,.3.45l1.23,3.86.22.74c.07.24.12.47.17.69.11-.22.24-.45.37-.68l.43-.75,2.2-3.86a1.73,1.73,0,0,1,.38-.43,1,1,0,0,1,.62-.19h2.36Z"/></g></g></g></svg>