<svg id="Camada_1" data-name="Camada 1" xmlns="http://www.w3.org/2000/svg" viewBox="0 0 100 40"><defs><style>.cls-1{fill:#fff;fill-rule:evenodd;}</style></defs><g id="Page-1"><g id="Matéria-Copy-2"><g id="Group-4-Copy-3"><path id="TIMES" class="cls-1" d="M65.77,14.2l-.27,2.06H62.56L61.38,25.8H58.8L60,16.26H57l.25-2.06Zm2.38,11.6H65.54L67,14.2h2.61Zm8.14-5.1c.11.34.2.68.28,1l.27-.52c.09-.17.19-.34.29-.51l3.55-6.1a.66.66,0,0,1,.4-.33,1.51,1.51,0,0,1,.46-.07h2L82.15,25.8H79.87l.81-6.75c0-.14,0-.3.08-.47s.07-.36.11-.54l-3.49,6a.93.93,0,0,1-.41.4,1.19,1.19,0,0,1-.56.14h-.35a1,1,0,0,1-.53-.14.7.7,0,0,1-.31-.4l-2-6,0,.53c0,.17,0,.32,0,.46l-.8,6.79H70l1.43-11.6h2.27a.86.86,0,0,1,.23,0,.45.45,0,0,1,.17.11.55.55,0,0,1,.12.23Zm15.62-4.5H87.62L87.27,19h3.29l-.26,1.93H87l-.35,2.87H91l-.25,2H83.82l1.43-11.6h6.91Zm7.31.33a1.06,1.06,0,0,1-.28.28.67.67,0,0,1-.33.08.65.65,0,0,1-.36-.12l-.41-.26a4.2,4.2,0,0,0-.52-.26,1.86,1.86,0,0,0-.7-.12,1.83,1.83,0,0,0-.64.1,1.44,1.44,0,0,0-.46.29,1.12,1.12,0,0,0-.27.43,1.53,1.53,0,0,0-.09.54.79.79,0,0,0,.18.53,1.55,1.55,0,0,0,.48.38,4.2,4.2,0,0,0,.67.3l.77.29a7.76,7.76,0,0,1,.77.37,2.86,2.86,0,0,1,.68.52,2.23,2.23,0,0,1,.47.74,2.82,2.82,0,0,1,.18,1.05,4.48,4.48,0,0,1-.3,1.65,3.83,3.83,0,0,1-.87,1.35,4,4,0,0,1-1.37.92,4.8,4.8,0,0,1-1.82.33,4.34,4.34,0,0,1-1-.11,5.23,5.23,0,0,1-1-.31,5.46,5.46,0,0,1-.86-.48,3.72,3.72,0,0,1-.68-.62l.92-1.21a.87.87,0,0,1,.27-.23.88.88,0,0,1,.34-.08.72.72,0,0,1,.43.15l.47.34a3.68,3.68,0,0,0,.59.35,2.05,2.05,0,0,0,.83.15,1.51,1.51,0,0,0,1.12-.39,1.57,1.57,0,0,0,.4-1.17.94.94,0,0,0-.18-.59,1.66,1.66,0,0,0-.47-.39,4.66,4.66,0,0,0-.67-.28l-.76-.27a5.75,5.75,0,0,1-.77-.33,2.34,2.34,0,0,1-.66-.51,2.49,2.49,0,0,1-.47-.78A3.06,3.06,0,0,1,92.69,18,4,4,0,0,1,93,16.55a3.89,3.89,0,0,1,.83-1.26,4.1,4.1,0,0,1,1.32-.87,4.53,4.53,0,0,1,2.69-.22,4,4,0,0,1,.87.28,3.62,3.62,0,0,1,.74.44,2.46,2.46,0,0,1,.57.54Z"/><path id="MONEY-Copy" class="cls-1" d="M6.26,20.7c.11.34.21.68.29,1,.08-.17.17-.35.26-.52l.29-.51,3.55-6.1a.66.66,0,0,1,.4-.33,1.56,1.56,0,0,1,.46-.07h2L12.12,25.8H9.84l.81-6.75c0-.14,0-.3.08-.47a5.23,5.23,0,0,1,.12-.54L7.36,24a1,1,0,0,1-.42.4,1.15,1.15,0,0,1-.55.14H6a1,1,0,0,1-.53-.14.71.71,0,0,1-.32-.4l-2-6c0,.18,0,.36,0,.53s0,.32,0,.46l-.8,6.79H0L1.43,14.2H3.7a.78.78,0,0,1,.23,0,.39.39,0,0,1,.17.11.55.55,0,0,1,.12.23Zm18.87-1.44a7,7,0,0,1-.22,1.79,6.41,6.41,0,0,1-.62,1.6,6.26,6.26,0,0,1-1,1.35A6.36,6.36,0,0,1,22,25a6.55,6.55,0,0,1-1.53.66,6.32,6.32,0,0,1-1.75.23,5,5,0,0,1-2.06-.4,4.55,4.55,0,0,1-1.55-1.1,4.73,4.73,0,0,1-1-1.64,5.81,5.81,0,0,1-.34-2,7.16,7.16,0,0,1,.22-1.8,6.41,6.41,0,0,1,.62-1.6,6,6,0,0,1,1-1.35,6.36,6.36,0,0,1,1.28-1,6.55,6.55,0,0,1,1.53-.66,6.34,6.34,0,0,1,1.76-.23,5,5,0,0,1,2.05.4,4.51,4.51,0,0,1,1.54,1.1,4.86,4.86,0,0,1,1,1.65A5.85,5.85,0,0,1,25.13,19.26Zm-2.66.06A4.76,4.76,0,0,0,22.3,18a2.76,2.76,0,0,0-.5-1,2.22,2.22,0,0,0-.81-.65,2.51,2.51,0,0,0-1.08-.22,3,3,0,0,0-1.43.33,3.13,3.13,0,0,0-1.07.92,4.57,4.57,0,0,0-.68,1.44,7.18,7.18,0,0,0-.23,1.86A4.69,4.69,0,0,0,16.67,22a2.83,2.83,0,0,0,.49,1,2.18,2.18,0,0,0,.8.64,2.53,2.53,0,0,0,1.09.22,3,3,0,0,0,1.43-.32,3.15,3.15,0,0,0,1.07-.92,4.37,4.37,0,0,0,.68-1.44A6.63,6.63,0,0,0,22.47,19.32Zm5.78-5.12.29,0a.46.46,0,0,1,.2,0,.66.66,0,0,1,.17.12l.14.21,4.07,7.16c0-.18,0-.36.05-.53s0-.33,0-.48L34,14.2h2.3L34.86,25.8H33.51a1.21,1.21,0,0,1-.5-.09.76.76,0,0,1-.35-.34l-4-7.16c0,.15,0,.3,0,.43s0,.27,0,.39l-.8,6.77H25.45l1.43-11.6Zm16.38,2h-4.3L40,19h3.29L43,20.93H39.74l-.35,2.87h4.33l-.26,2H36.54L38,14.2h6.91Zm6.17,5.16-.55,4.44h-2.6l.55-4.42-3-7.18h2.31a.84.84,0,0,1,.53.16.92.92,0,0,1,.27.41l1.12,3.51.2.67q.09.33.15.63c.1-.2.22-.41.34-.62s.25-.44.39-.68l2-3.51a1.41,1.41,0,0,1,.35-.39.89.89,0,0,1,.56-.18h2.15Z"/></g></g></g></svg>