<svg id="Camada_1" data-name="Camada 1" xmlns="http://www.w3.org/2000/svg" viewBox="0 0 110 40"><defs><style>.cls-1{fill:#fff;}</style></defs><path class="cls-1" d="M7.26,22h0L6.12,10.32H0V30.94H3.89V19.32l-.23-4.89.28,2L5.89,30.94H8.48l1.95-14.52.27-2-.22,4.89h0V30.94h3.89V10.32H8.45L7.26,22m45.65-1.46c0-4.47-.16-7.93-4.59-7.93s-4.92,4.49-4.92,8.48c0,5.08.75,10,5.36,10a5.22,5.22,0,0,0,4.08-2.39v-4.2s-1.13,2.87-3.32,2.87c-1.53,0-2.39-1.43-2.39-3.76h5.68C52.81,23.19,52.91,21.78,52.91,20.58Zm-5.78-.43c0-1.88.26-3.37,1.3-3.37s1.37,1.67,1.37,3.37Zm-27.06-7.5c-5.23,0-5.23,3.67-5.23,8.8,0,5.89.53,9.7,5.23,9.7S25.31,27.63,25.31,21C25.31,16.16,25.31,12.65,20.07,12.65Zm0,14.12c-1.24,0-1.35-.67-1.35-4.87,0-4,.11-4.88,1.35-4.88s1.36,1,1.36,4.88c0,3.68-.11,4.87-1.36,4.87ZM59.8,12.65c-1.27,0-1.86,1.15-2.16,2.33l-.35,2.64V12.86H53.37V30.94h4.2V21.27c0-3.52,1.06-4.1,2.16-4.1,1.59,0,2,1.91,2,1.91V13.64a2.61,2.61,0,0,0-1.89-1Zm-19.7,0a2.74,2.74,0,0,0-2.66,2.52l-.3,1.69V10.32h-4.2V30.94h4.2V18.85c0-.69.06-1.88.86-1.88s.72,1,.72,2v12h4.21V15.69c0-1.55-.65-3-2.83-3Zm35.32,0c-5.24,0-5.24,3.67-5.24,8.8,0,5.88.54,9.69,5.24,9.69s5.24-3.51,5.24-10.13C80.66,16.21,80.66,12.7,75.42,12.7Zm0,14.12c-1.24,0-1.35-.68-1.35-4.88,0-4,.11-4.87,1.35-4.87s1.35,1,1.35,4.87C76.77,25.62,76.67,26.82,75.42,26.82ZM88.29,12.65a2.75,2.75,0,0,0-2.67,2.52l-.29,1.69v-4h-4.2V30.94h4.2V18.85c0-.69.06-1.88.86-1.88s.72,1,.72,2v12h4.21V15.69c0-1.55-.65-3-2.83-3ZM61.7,25v4.86s.73,1.29,3.27,1.29c3.82,0,4.75-3.13,4.75-6.59V10.32H65.83V22.77c0,3.52-1.07,4.1-2.16,4.1C62.08,26.87,61.7,25,61.7,25Zm39.8-.4c.38,1.45,1.16,2.88,3,2.88,1.18,0,1.73-.4,1.79-1.55.12-2.53-4.64-3.66-4.64-8.08,0-3.85,1.87-5.16,4.56-5.16a4.21,4.21,0,0,1,3.6,2.1v4.33c-.45-1.27-1.39-2.71-2.68-2.71a1.35,1.35,0,0,0-1.55,1.44c-.13,2.61,4.47,3.54,4.47,7.66,0,3.48-1.22,5.68-4.64,5.68a4.45,4.45,0,0,1-3.86-2.39Zm-.4-4c0-4.47-.17-7.93-4.6-7.93s-4.92,4.49-4.92,8.48c0,5.08.75,10,5.36,10A5.22,5.22,0,0,0,101,28.76v-4.2s-1.13,2.87-3.32,2.87c-1.54,0-2.39-1.43-2.39-3.76H101C101,23.19,101.1,21.78,101.1,20.58Zm-5.78-.43c0-1.88.26-3.37,1.29-3.37S98,18.45,98,20.15Z"/><path class="cls-1" d="M30,8.81l-5,4.53a16.16,16.16,0,0,1,.8,5.49v8.82c0,2.49,1.45,3.5,3.5,3.5A4.37,4.37,0,0,0,32.47,30V26.27a1.47,1.47,0,0,1-1.32.94c-.63,0-1.17-.45-1.17-1.45V16.67h2.49V12.86H30Z"/></svg>