<svg id="Camada_1" data-name="Camada 1" xmlns="http://www.w3.org/2000/svg" viewBox="0 0 200 200"><defs><style>.cls-1{fill:#fff;}</style></defs><title>mtv</title><path class="cls-1" d="M124.7,160.83H113.4c0-.26,0-.53,0-.79q0-16.3,0-32.6c0-.19,0-.37,0-.68L91.79,144.63,70.22,126.78v.7q0,16.32,0,32.65c0,.23,0,.47,0,.7H0V39.23c.2,0,.4,0,.6,0h56c3.77,0,7.53,0,11.3,0a1.12,1.12,0,0,1,.73.29q10,10.29,19.91,20.59c1.08,1.11,2.28,2.09,3.43,3.13,0,.07.14-.1.29-.25l22.55-23.4a1.15,1.15,0,0,1,.91-.39H184c0,.19,0,.32,0,.45q0,25.4,0,50.8a2.63,2.63,0,0,1-.37,1.31,160.29,160.29,0,0,0-14.14,28.54,6.47,6.47,0,0,1-1.59,2.74,2.09,2.09,0,0,1-3.27-.7,6,6,0,0,1-.42-1.53c-.75-5.7-1.45-11.4-2.22-17.09a17.22,17.22,0,0,0-1.58-5.49A6.16,6.16,0,0,0,156,94.67a9.4,9.4,0,0,0-3.92.06,7.9,7.9,0,0,0-6.57,6.32,12.59,12.59,0,0,0,0,5.06,61.7,61.7,0,0,0,3.13,11q5.48,14.44,11.09,28.83a14.52,14.52,0,0,0,1.24,2.44,6.3,6.3,0,0,0,4.66,3.11,22.58,22.58,0,0,0,3.68.12,6,6,0,0,0,5.37-3.64,22.19,22.19,0,0,0,1.27-3c1.11-3.44,2.09-6.91,3.24-10.33,1.43-4.27,3-8.51,4.48-12.76a4.8,4.8,0,0,1,.2-.44c.1,4.89.1,9.74.1,14.59q0,12.37,0,24.75H141.1a1.35,1.35,0,0,1-.06-.24c-.25-3.05-.63-6.1-.71-9.16-.09-3.84,0-7.7.13-11.54a189.7,189.7,0,0,0-.58-22.32,130.51,130.51,0,0,1-.7-14.62c0-2.61-.06-5.23-.14-7.84a.8.8,0,0,1,.44-.86q7.5-4.33,15-8.68a26.87,26.87,0,0,0,4.85-3.42,6.21,6.21,0,0,0,1.61-2.26,3.4,3.4,0,0,0,0-2.81c-1.71-3.63-6.83-5.25-10.22-3.15a30.91,30.91,0,0,0-3.29,2.66,32.69,32.69,0,0,1-3.35,2.75c-3,1.89-6.16,3.64-9.24,5.46a.86.86,0,0,1-.91,0,10.73,10.73,0,0,0-7.78-.68,5,5,0,0,0-3.79,3.79,10.13,10.13,0,0,0-.11,1.79c0,.37,0,.73,0,1.1a3.59,3.59,0,0,1-2,3.54c-4.61,2.64-9.21,5.28-13.78,8a44.83,44.83,0,0,1-11,4.93,11.47,11.47,0,0,0-3.25,1.59,4.63,4.63,0,0,0-2.16,4.21,7,7,0,0,0,9,6.22,21.52,21.52,0,0,0,6.11-3.42q6.31-4.54,12.64-9a11.06,11.06,0,0,1,3.86-1.83,2.64,2.64,0,0,1,3.14,1.61,13,13,0,0,1,.81,3.38c.15,2.31.18,4.63.11,6.94-.17,5.89-.42,11.79-.65,17.68-.18,4.59-.48,9.19-.57,13.78C124.49,152.53,124.65,156.68,124.7,160.83Z"/><path class="cls-1" d="M188.6,160.83q0-15.67,0-31.34,0-8.62,0-17.25a4.39,4.39,0,0,1,.65-2.12,136.09,136.09,0,0,1,8.91-14.38c.5-.71,1-1.4,1.53-2.1a2.48,2.48,0,0,1,.32-.3v67.5Z"/><path class="cls-1" d="M200,70.73c-.54.56-1.09,1.11-1.61,1.69q-4.94,5.51-9.34,11.47l-.41.53V39.17l.47.25,10.4,6.15c.16.09.32.17.48.25Z"/><path class="cls-1" d="M74.9,160.83c0-.15,0-.3,0-.45q0-11.62,0-23.25v-.48c.16.1.26.16.36.24q4.38,3.6,8.76,7.21a1,1,0,0,1,.28.67q0,8,0,16Z"/><path class="cls-1" d="M98.11,50.3l-6.3,6.55L75,39.41l.08-.1,1.59.68c6.1,2.63,12.18,5.27,18.3,7.86A8.81,8.81,0,0,1,98.11,50.3Z"/><path class="cls-1" d="M98.69,144.93l9.94-8.23a1.2,1.2,0,0,1,.06.23c0,2,0,4,0,5.95a1,1,0,0,1-.36.76A4.54,4.54,0,0,1,104.4,145c-1.72-.14-3.46,0-5.19-.06C99.07,145,98.94,144.95,98.69,144.93Z"/></svg>