<svg id="Camada_1" data-name="Camada 1" xmlns="http://www.w3.org/2000/svg" viewBox="0 0 21.78 40"><defs><style>.cls-1{fill:#fff;}</style></defs><path class="cls-1" d="M5,3.21A.86.86,0,0,0,4.42,4a.6.6,0,0,1-.68.65.61.61,0,0,0-.68.68A.6.6,0,0,1,2.42,6a.94.94,0,0,0-.85.75c-.38,1.42-.24,1.73.57,1.56s.79,0,.65.65-.07.78,2,.78,2.11,0,2-.78,0-.75,1.43-.75,1.56.07,1.43.82-.07.78,1.36.68,1.49-.11,1.36.61-.07.78,2.65.78,2.79,0,2.66-.78,0-.78.68-.65.81.07.68-.68,0-.82.64-.68.79,0,.79-1.29-.07-1.43-.79-1.3-.78,0-.64-.64.06-.78-2-.78-2.11,0-2,.74,0,.79-1.43.79S12,5.8,12.18,5.05s.07-.78-1.36-.68-1.5.1-1.36-.65S9.49,3,7.62,3A15.86,15.86,0,0,0,5,3.21Z"/><path class="cls-1" d="M3.67,12.74c-1.7.1-2,.24-2,.78a.6.6,0,0,1-.65.68c-.54,0-.64.38-.81,2.79C.1,18.56,0,23.29,0,27.54V35.3H.85c.68,0,.85.17.85.85s.07.85,2.52.85c3,0,3.61-.17,3.61-1a.6.6,0,0,1,.68-.65c.61,0,.68-.24.68-2.72V29.85h1c.95,0,1,.07,1,1.37,0,1.12.1,1.36.68,1.36s.68.23.68,1.36.1,1.36.68,1.36A.61.61,0,0,1,14,36c0,.65.24.68,3.06.68s3.06,0,3.06-.68a.6.6,0,0,1,.62-.68c.58,0,.64-.48.85-6.19.13-3.37.24-8.24.24-10.76V13.79l-.79.14c-.68.14-.78,0-.64-.65s0-.78-1.33-.78c-.82,0-2.31.1-3.27.21-1.46.2-1.8.34-1.8.85a.6.6,0,0,1-.68.64c-.58,0-.68.24-.68,1.5,0,2.55-.34,3.54-1.23,3.71-.44.07-.71,0-.61-.17.34-.51-.24-2.31-.75-2.31-.34,0-.47-.45-.47-1.54,0-1.29-.1-1.53-.68-1.53a.61.61,0,0,1-.68-.68C8.17,12.47,8.27,12.47,3.67,12.74Z"/></svg>