<svg id="Camada_1" data-name="Camada 1" xmlns="http://www.w3.org/2000/svg" viewBox="0 0 20.55 40"><defs><style>.cls-1{fill:#fff;}</style></defs><path class="cls-1" d="M4.71,4.2a.81.81,0,0,0-.55.74.57.57,0,0,1-.51.62H3.52a.58.58,0,0,0-.64.5.33.33,0,0,0,0,.14.56.56,0,0,1-.49.63H2.28a.88.88,0,0,0-.8.71C1.12,8.87,1.25,9.16,2,9s.75,0,.62.61-.07.73,1.88.73,2,0,1.88-.73,0-.71,1.35-.71S9.2,9,9.08,9.68s-.06.73,1.28.64,1.4-.11,1.28.57-.06.73,2.5.73,2.62,0,2.5-.73,0-.73.64-.61.76.06.64-.64,0-.77.6-.64.75,0,.75-1.22-.07-1.34-.75-1.22-.73,0-.6-.6S18,5.22,16,5.22s-2,0-1.88.7,0,.74-1.35.74-1.52,0-1.35-.73.07-.73-1.28-.64-1.41.09-1.28-.61S8.93,4,7.17,4A14.49,14.49,0,0,0,4.71,4.2Z"/><path class="cls-1" d="M3.45,13.17c-1.6.09-1.88.22-1.88.73a.57.57,0,0,1-.48.64.57.57,0,0,1-.13,0c-.51,0-.6.36-.76,2.63C.09,18.64,0,23.1,0,27.1v7.3H.8c.64,0,.8.16.8.8S1.67,36,4,36c2.83,0,3.4-.16,3.4-.94a.57.57,0,0,1,.51-.62H8c.57,0,.64-.23.64-2.56V29.27h.94c.89,0,.94.07.94,1.29,0,1.05.1,1.28.64,1.28s.64.22.64,1.28.1,1.28.64,1.28a.57.57,0,0,1,.71.39.62.62,0,0,1,0,.27c0,.61.22.64,2.88.64s2.88,0,2.88-.64a.56.56,0,0,1,.48-.64h.1c.55,0,.6-.45.8-5.83.12-3.17.23-7.75.23-10.12V14.16l-.75.13c-.64.13-.73,0-.6-.61s0-.74-1.25-.74c-.77,0-2.18.1-3.08.2-1.37.19-1.69.32-1.69.8a.56.56,0,0,1-.52.6.24.24,0,0,1-.12,0c-.55,0-.64.23-.64,1.41,0,2.4-.32,3.33-1.16,3.49-.42.07-.67,0-.58-.16.32-.48-.22-2.17-.7-2.17-.32,0-.44-.42-.44-1.45,0-1.21-.1-1.44-.64-1.44a.57.57,0,0,1-.64-.5.33.33,0,0,1,0-.14C7.69,12.91,7.78,12.91,3.45,13.17Z"/></svg>