<svg id="Layer_1" data-name="Layer 1" xmlns="http://www.w3.org/2000/svg" viewBox="0 0 100 40"><defs><style>.cls-1{fill:#fff;}</style></defs><title>nat-geo</title><path class="cls-1" d="M0,34.69V5.31H20.5V34.69Zm17.54-3V8.27H3V31.73Z"/><path class="cls-1" d="M34.13,18.49H32.86c-1.66-2.35-3.32-4.69-5-7.33h0v7.33H26.46V8.26h1.27c1.66,2.34,3.31,4.66,4.95,7.29h0V8.26h1.43V18.49Z"/><path class="cls-1" d="M37.45,14.45c.41-1.34.82-2.59,1.18-4.17h0c.41,1.58.78,2.83,1.16,4.17Zm.68-6.18L34.59,18.49H36.1L37,15.7h3.08l.81,2.79h1.95L39.6,8.26H38.13Z"/><path class="cls-1" d="M44.5,18.49V9.64H41.81V8.27h7.11V9.64H46.23v8.85H44.5Z"/><path class="cls-1" d="M49.51,18.49V8.26h1.74V18.49Z"/><path class="cls-1" d="M56.65,17.18c-1.83,0-2.47-2-2.47-4s.71-3.68,2.47-3.68,2.47,1.8,2.47,3.68S58.48,17.18,56.65,17.18Zm0,1.44c2.67,0,4.34-2.38,4.34-5.44C61,10.32,59.14,8,56.65,8s-4.34,2.28-4.34,5.14c0,3.1,1.67,5.49,4.34,5.49Z"/><path class="cls-1" d="M69.7,18.49H68.43c-1.66-2.35-3.32-4.69-5-7.33h0v7.33H62V8.26H63.3c1.66,2.34,3.32,4.66,5,7.29h0V8.26h1.44V18.49Z"/><path class="cls-1" d="M73.05,14.45c.41-1.34.81-2.59,1.18-4.17h0c.41,1.58.77,2.83,1.15,4.17H73.05Zm.67-6.18L70.19,18.5h1.52l.89-2.79h3.08l.8,2.79h2L75.18,8.27H73.72Z"/><path class="cls-1" d="M79,8.26h1.74v8.85h3.46v1.38H79Z"/><path class="cls-1" d="M33,27v4.23a8.25,8.25,0,0,1-2.91.63c-3,0-4.9-2.34-4.9-5.35a5,5,0,0,1,5-5.23,4.36,4.36,0,0,1,2.49.79l-.57,1.21a3.73,3.73,0,0,0-1.87-.54c-1.87,0-3.14,1.48-3.14,3.8s1.44,3.85,3,3.85a2.52,2.52,0,0,0,1.23-.25V27H33Z"/><path class="cls-1" d="M39.31,22.87H36.39v2.8h2.87V27H36.39v3.31h3.45v1.37h-5.2V21.48h4.67v1.38Z"/><path class="cls-1" d="M44.72,30.43c-1.83,0-2.47-2-2.47-4s.72-3.68,2.47-3.68,2.47,1.8,2.47,3.68S46.55,30.43,44.72,30.43Zm0,1.44c2.67,0,4.33-2.38,4.33-5.43,0-2.87-1.84-5.15-4.33-5.15s-4.34,2.28-4.34,5.15c0,3.08,1.67,5.46,4.34,5.46Z"/><path class="cls-1" d="M57.47,27v4.23a8.25,8.25,0,0,1-2.91.63c-3,0-4.9-2.34-4.9-5.35a5,5,0,0,1,5-5.23,4.36,4.36,0,0,1,2.49.79l-.57,1.21a3.73,3.73,0,0,0-1.87-.54c-1.87,0-3.14,1.48-3.14,3.8s1.44,3.85,3,3.85a2.52,2.52,0,0,0,1.23-.25V27h1.74Z"/><path class="cls-1" d="M60.84,22.87h.77a1.48,1.48,0,0,1,1.62,1.33,1.61,1.61,0,0,1,0,.31,1.81,1.81,0,0,1-1.57,2h-.09l-.72.05V22.86Zm4.44,8.85-2-4.24a3.45,3.45,0,0,0,1.77-3c0-2-1.21-3-3.17-3H59.12V31.72h1.76V27.86h.79l1.65,3.86h2Z"/><path class="cls-1" d="M68.17,27.68c.41-1.34.81-2.59,1.18-4.17h0c.41,1.58.77,2.82,1.15,4.17H68.17Zm.67-6.2L65.31,31.71h1.52l.89-2.79H70.8l.81,2.79h2L70.3,21.48H68.84Z"/><path class="cls-1" d="M76.87,21.48H74.14V31.71h1.75V27.86h.79A3.34,3.34,0,0,0,80,24.54v-.1C80,22.46,78.8,21.48,76.87,21.48Zm-.25,5.06-.72,0V22.86h.79a1.46,1.46,0,0,1,1.6,1.65,1.81,1.81,0,0,1-1.55,2h-.12Z"/><path class="cls-1" d="M88.14,31.72H86.38V26.79H82.74v4.93H81V21.48h1.74v3.93h3.64v-3.9h1.76v10.2Z"/><path class="cls-1" d="M89.82,31.72V21.48h1.74V31.71H89.82Z"/><path class="cls-1" d="M99.45,23.35a3.71,3.71,0,0,0-1.8-.57c-1.79,0-3.08,1.48-3.08,3.8s1.43,3.85,3.12,3.85a3.33,3.33,0,0,0,1.76-.5l.48,1.26a4.43,4.43,0,0,1-2.31.72c-3,0-4.91-2.34-4.91-5.35a5,5,0,0,1,4.94-5.23,4.33,4.33,0,0,1,2.35.79Z"/></svg>