<svg id="Camada_1" data-name="Camada 1" xmlns="http://www.w3.org/2000/svg" viewBox="0 0 100 40"><defs><style>.cls-1{fill:#fff;}</style></defs><path class="cls-1" d="M6.29,12l.06,4.23h.12a6.37,6.37,0,0,1,6.12-4.35c4,0,5.26,2,5.26,5.88v7.58a23.48,23.48,0,0,0,.68,6.49H12a21.34,21.34,0,0,0,.61-6.3V18.29c0-1.78-.67-2.57-2.63-2.57a5,5,0,0,0-3.43,1.16v8.69a21.34,21.34,0,0,0,.61,6.3H.66a21.6,21.6,0,0,0,.67-6.48v-7.1A6.92,6.92,0,0,0-.14,13.82Zm23.5,16.1V21a4.69,4.69,0,0,1-2.33,1.59A3.77,3.77,0,0,0,25,26.49c0,1.71,1,2.81,2.45,2.81A2.22,2.22,0,0,0,29.79,28.08ZM28.07,11.92c5,0,6.92,2,6.92,6.12v8.57c0,1.53.61,2,1.83,2a2.16,2.16,0,0,0,1-.31,7.06,7.06,0,0,1-.3,1.23,3.56,3.56,0,0,1-3.73,2.69A3.57,3.57,0,0,1,30,28.69H30a4.72,4.72,0,0,1-5,3.55c-3.12,0-5.14-1.9-5.14-4.83,0-3.13,2.82-4.47,5.75-5.57s4.29-1.9,4.29-3.92v-.43c0-2.2-.68-3.3-2.76-3.3-1.28,0-1.77.61-2,1.83-.42,1.9-1.16,2.57-2.38,2.57a2,2,0,0,1-2.14-2.14C20.42,13.76,24.22,11.92,28.07,11.92ZM49.25,29.67c-.68,1.53-2.33,2.57-4.65,2.57-4,0-5.57-2-5.57-5.69V15h-1.9v-.12l6.92-7.16.12.06v4.53h5L48.7,15.1H44.23V25.75c0,2,.86,2.88,2.69,2.88a5.42,5.42,0,0,0,2.82-.55A11.09,11.09,0,0,1,49.25,29.67Zm7.16-17.44V25.69c0,2,.79,3.12,2.75,3.12a4.41,4.41,0,0,0,3.61-1.47V18.23a14.1,14.1,0,0,0-.85-5.39l6-.61V26a16.24,16.24,0,0,0,.8,5.87H62.83V28h-.06c-.85,2.51-2.44,4.28-5.81,4.28-4.22,0-5.81-2.57-5.81-6.36V18.23a14.1,14.1,0,0,0-.86-5.39Zm19.7,4.65c.86-3.61,2.51-5,4.72-5,2,0,3.06,1,3.06,2.69a2.44,2.44,0,0,1-2.39,2.7,2.47,2.47,0,0,1-1.84-.8c-.42-.43-.73-.86-1.22-.86-1,0-2.2,1.78-2.2,4.72V25.2a27.06,27.06,0,0,0,.67,6.61H70.42a21.3,21.3,0,0,0,.68-6.49v-7a7,7,0,0,0-1.47-4.47L76,12l.06.06v4.9Zm12.31,2.88L95,19.14c-.06-3.12-.55-5-2.69-5S88.78,16,88.42,19.76Zm3.91,12.48c-5,0-9.12-3.3-9.12-9.67S87.13,11.8,92.45,11.8c5,0,7.41,3.18,7.41,9.24H88.42v.61c0,4.84,2.5,6.8,5.93,6.8a6.74,6.74,0,0,0,5.39-2.15l.12.31A7.43,7.43,0,0,1,92.33,32.24Z"/></svg>