<svg id="Camada_1" data-name="Camada 1" xmlns="http://www.w3.org/2000/svg" viewBox="0 0 200 200"><defs><style>.cls-1{fill:#fff;}</style></defs><title>nbc</title><path class="cls-1" d="M113.19,149.48l2-4.74C124,123.82,132.81,102.86,141.8,82c3-6.88,8.49-11,15.86-12.37a21.3,21.3,0,0,1,24.56,17.53c.86,5.26.36,10.35-2.36,15a25.75,25.75,0,0,1-8.21,8.4L113.88,149.2l-.55.36Z"/><path class="cls-1" d="M86.58,141.86,82.9,133c-8.2-19.72-16.47-39.41-24.56-59.18-3.23-7.88-2.52-15.65,2.78-22.4,9-11.48,26.3-11.33,34.77,2A19.91,19.91,0,0,1,99,66.32c-.34,3.49-.94,6.95-1.5,10.41q-2.65,16.36-5.35,32.7l-5,30.59c-.1.61-.21,1.22-.31,1.84Z"/><path class="cls-1" d="M107.47,156.71l11.6-7.8,47-31.61a22,22,0,0,1,13.19-4.1,21.31,21.31,0,0,1,14.35,6.26c4.76,4.51,6.51,10.22,6.36,16.59a21.28,21.28,0,0,1-15.16,20,19.32,19.32,0,0,1-5.49.85q-35.44.08-70.88,0h-1Z"/><path class="cls-1" d="M92.52,156.89H21.31a20.21,20.21,0,0,1-15.63-7,22.22,22.22,0,0,1-1.77-27.43c6.48-9,18.2-12.42,28.56-6,5.16,3.17,10.11,6.67,15.14,10q22.16,14.88,44.3,29.78c.22.15.44.31.65.47Z"/><path class="cls-1" d="M86.72,149.78l-8.34-5.69q-25.86-17.68-51.7-35.39a19.91,19.91,0,0,1-8.17-12.24A22.21,22.21,0,0,1,30.1,71.34,21.25,21.25,0,0,1,53.47,74.8a25,25,0,0,1,6,8.87l26.88,65.05C86.42,149,86.52,149.28,86.72,149.78Z"/><path class="cls-1" d="M101.82,66.14a21.35,21.35,0,0,1,6.35-17,20.94,20.94,0,0,1,13.44-6c10.87-.81,20.19,7.36,22.17,17.72a22.69,22.69,0,0,1-1.69,13.39q-4.21,9.92-8.4,19.86t-8.45,19.93q-3.93,9.29-7.85,18.58c-1.24,2.94-2.5,5.88-3.85,9.06-.15-.67-.28-1.12-.35-1.57q-2.67-17-5.34-33.91-2.15-13.75-4.28-27.5a8.54,8.54,0,0,1,4.34-8.86L111,68c.6-.36.67-.93.06-1.27a4.08,4.08,0,0,0-1.75-.57c-2.22-.07-4.44,0-6.67-.06Z"/></svg>