<svg id="Camada_1" data-name="Camada 1" xmlns="http://www.w3.org/2000/svg" viewBox="0 0 100 40"><defs><style>.cls-1{fill:#fff;}</style></defs><path class="cls-1" d="M.16,10.87C.07,10.94,0,15.06,0,20v9H4.68V24.13c0-4.49,0-4.89-.49-5.68l-.49-.84.56.6C4.54,18.54,6.69,21.14,9,24l4.21,5.17h1.94l1.92,0v-18H12.4v4.68c0,4.56,0,4.73.58,5.85a6,6,0,0,1,.52,1.17c-.05,0-2.27-2.74-5-6.08L3.65,10.7H2A5.53,5.53,0,0,0,.16,10.87Z"/><path class="cls-1" d="M19.88,20.06V29h11V25.44H25.5v-4h5.14V18H25.5V14.68h5.38V11.17h-11Z"/><path class="cls-1" d="M39,11.48a9.39,9.39,0,0,0-5.64,5,10.05,10.05,0,0,0,.51,8.65,9.56,9.56,0,0,0,4.26,3.65,14,14,0,0,0,7.3.14,10.36,10.36,0,0,0,4.16-3,10.17,10.17,0,0,0,.87-9.64A9.57,9.57,0,0,0,46.2,12a7.28,7.28,0,0,0-3.86-.73A12.33,12.33,0,0,0,39,11.48ZM43.79,17c2.2,1.31,2.25,4.89.12,6.48a4.13,4.13,0,0,1-4.12-.07A4,4,0,0,1,40.05,17,4.38,4.38,0,0,1,43.79,17Z"/><path class="cls-1" d="M53.85,20.11l.07,8.72.54.07L55,29V19.83h1.64c1.59,0,1.64,0,1.64-.59s0-.58-1.64-.58H55V12.34h3c2.88,0,3,0,3-.47s-.16-.46-3.62-.46H53.8Z"/><path class="cls-1" d="M64.14,20.11l.07,8.72,4.16.07,4.14.05V27.78H65.26v-8h5.62V18.66H65.26V12.34H67.6c2.18,0,2.34,0,2.34-.47s-.16-.46-2.92-.46H64.09Z"/><path class="cls-1" d="M76,20.18V29h8.19V27.78H77v-8h7.27l-.07-.54c-.07-.52-.14-.52-3.65-.59l-3.57-.07L77,15.55l.07-3.09,2.29-.07c2.08-.05,2.27-.09,2.27-.52s-.17-.46-2.81-.46H76Z"/><path class="cls-1" d="M87.72,20.15V29h1.82c5.17,0,8-1.47,9.71-5.1a6.48,6.48,0,0,0,.75-3.79,6.48,6.48,0,0,0-.75-3.79,8.62,8.62,0,0,0-3.86-4.09c-1.14-.59-1.5-.66-4.44-.73l-3.23-.09Zm5.68-7.46a7,7,0,0,1,4.87,4.1c.47.89.56,1.38.56,3.27s-.07,2.36-.65,3.44c-1.55,3-3.35,4.05-7,4.23l-2.31.12V12.34h1.59A14.69,14.69,0,0,1,93.4,12.69Z"/></svg>