<svg id="Layer_1" data-name="Layer 1" xmlns="http://www.w3.org/2000/svg" viewBox="0 0 44.38 40"><defs><style>.cls-1{fill:#fff;}</style></defs><path class="cls-1" d="M42.24,26.29,38,20a6.16,6.16,0,0,1-2.75.56,5.64,5.64,0,0,1-3.66-1.19v0c7.8.64,9.66-1.32,9.66-3.81,0-2.81-3-3.53-7.34-3.53H23.21v.09c1.42.14,4.26,1.79,5.43,5A7.94,7.94,0,0,1,29,18.85v3.48L20,12H1.17L0,19.24H.09c1.66-4.14,3.44-7.13,6.68-7.13V23.42c0,3-.23,4.13-2.7,4.49V28H22.29v-.09c-1.45-.14-4.39-1.87-5.5-5.26a7,7,0,0,1-.23-1.43V15.63L27.15,28h4.17v-.09c-1.28-.29-1.82-1.08-2-3V19.69c0-4,.57-6.51,1.82-7.32a1.42,1.42,0,0,1,.75-.21h.72a3.16,3.16,0,0,1,3.47,3.5c0,1.92-.93,3.62-3.47,3.58l-1.37,0,6,8.79h7.15v-.09A3,3,0,0,1,42.24,26.29Zm-26.09-6c0,3.33-.39,5.62-1.24,6.76a1.61,1.61,0,0,1-.56.54h0a1.26,1.26,0,0,1-1,.13,1.49,1.49,0,0,1-1-.67l-.1-.14c-.52-.7-.59-1.79-.59-3.52V12.11h0a4,4,0,0,1,3,1.42l1,1.12a1.82,1.82,0,0,1,.44,1.21Z"/></svg>