<svg id="Camada_1" data-name="Camada 1" xmlns="http://www.w3.org/2000/svg" viewBox="0 0 120 40"><defs><style>.cls-1{fill:#fff;}</style></defs><path class="cls-1" d="M51.57,6.75h.63v6.41h1.42V6.75h.66a3.25,3.25,0,0,1,1.87.73l.12.11-.43-1.44H50l-.44,1.44.12-.11A3.25,3.25,0,0,1,51.57,6.75Z"/><polygon class="cls-1" points="10.71 27.13 2.17 16.45 2.16 16.43 0.05 16.43 0 33.06 0 33.1 1.45 33.1 1.45 19.87 12.05 33.3 12.13 33.41 12.13 16.43 10.71 16.43 10.71 27.13"/><path class="cls-1" d="M20.41,31.89H17v-7.6h2.45a2.29,2.29,0,0,1,1.91.81l.08.13V22.51l-.07.07c-.49.48-.67.61-1.92.61H17V17.43h1.44a4.42,4.42,0,0,1,2.93,1l.07-.05-.88-1.95H14.32l0,16.63v0h10l1.26-2.53-.07-.06A8.54,8.54,0,0,1,20.41,31.89Z"/><polygon class="cls-1" points="35.35 28.52 33.59 24.73 37.13 16.49 37.16 16.43 35.78 16.43 32.83 22.86 29.75 16.45 29.74 16.43 27.17 16.43 31.48 26.09 30.36 28.52 24.79 16.46 24.78 16.43 22.08 16.43 29.64 33.24 29.69 33.33 32.21 27.88 34.77 33.21 34.81 33.3 42.34 16.49 42.37 16.43 40.77 16.43 35.35 28.52"/><path class="cls-1" d="M70.08,12,70,12a2,2,0,0,1-1.56.57H67V9.71h1a.79.79,0,0,1,.72.3l.09.14V8.71l-.09.13s-.16.25-.72.25H67V6.75h1.15a2.49,2.49,0,0,1,1.17.47l.13.09L69,6.12H65.6v7.06h3.9Z"/><polygon class="cls-1" points="59.1 9.74 61.94 9.74 61.94 13.16 63.3 13.16 63.3 6.12 61.94 6.12 61.94 9.11 59.1 9.11 59.1 6.12 57.73 6.12 57.73 13.16 59.1 13.16 59.1 9.74"/><path class="cls-1" d="M119.6,31.9l0,0a1.45,1.45,0,0,1-1.13.59c-.69,0-1.5-1.12-1.5-4.28s-.79-4.27-3.13-4.71c1.24-.41,3.11-1.13,3.11-3.67,0-2.38-2-3.44-3.87-3.44h-4L109,33.09v0h2.53V17.43h1.09c.22,0,2.13.08,2.13,2.86a3,3,0,0,1-2.18,3.11h0v.44h0c1,0,2.31,0,2.31,4.81,0,3,1,4.75,2.76,4.75A2.71,2.71,0,0,0,120,32.22l0,0Z"/><path class="cls-1" d="M98.53,31.88a1.45,1.45,0,0,1-1.13.6c-.69,0-1.5-1.12-1.5-4.28v-.05h0v-.62c0-3.88-.89-5.57-3.18-6l4.61-5.1.07-.07h-1.7l-4.35,4.81V16.38H88.81l0,16.65v0h2.54V22.13h.47a2.3,2.3,0,0,1,1.61,1.33,15.4,15.4,0,0,1,.43,4.47v.67c0,3,1,4.75,2.76,4.75a2.69,2.69,0,0,0,2.33-1.19l0,0-.41-.26Z"/><polygon class="cls-1" points="57.59 16.43 55.96 16.43 51.52 24 47.11 16.45 47.09 16.43 45.47 16.43 50.2 24.5 50.2 33.1 52.86 33.1 52.86 24.5 57.55 16.5 57.59 16.43"/><path class="cls-1" d="M87.55,31.94a1.47,1.47,0,0,1-1.13.59c-.69,0-1.5-1.12-1.5-4.28s-.8-4.27-3.14-4.71c1.24-.4,3.11-1.13,3.11-3.67,0-2.38-1.94-3.44-3.87-3.44H77L77,33.09v0h2.53V17.43h1.1c.21,0,2.12.08,2.12,2.86a3,3,0,0,1-2.18,3.11h0v.44h0c1,0,2.32,0,2.32,4.81,0,3,1,4.75,2.75,4.75a2.7,2.7,0,0,0,2.34-1.19l0,0-.4-.27Z"/><path class="cls-1" d="M103.88,31.89h-1.61V24.21h2.67c1.36,0,1.64.56,1.64.56l.09,0V22.67l-.08.08c-.37.36-.66.44-1.65.44h-2.67V17.43h2.21a4.4,4.4,0,0,1,3.06,1l.07-.05-.87-1.92v0H99.82V33.1h6.72l1.5-2L108,31A7.38,7.38,0,0,1,103.88,31.89Z"/><path class="cls-1" d="M65.75,15.84c-5.51,0-9.51,3.82-9.51,9.07a8.86,8.86,0,0,0,2.56,6.17,9.62,9.62,0,0,0,7.09,2.8,9.08,9.08,0,0,0,6.89-2.56,9.88,9.88,0,0,0,2.35-6.91,8.31,8.31,0,0,0-2.5-6A9.63,9.63,0,0,0,65.75,15.84Zm6.76,8.81c0,5-2.41,8-6.46,8-5,0-7.22-4.2-7.22-8.1,0-5,3.41-7.62,6.79-7.62C70.32,16.92,72.51,21.53,72.51,24.65Z"/></svg>