<svg id="Camada_1" data-name="Camada 1" xmlns="http://www.w3.org/2000/svg" viewBox="0 0 140 40"><defs><style>.cls-1{fill:#fff;}</style></defs><title>new-york-times</title><path class="cls-1" d="M10.5,12.68c0-1.5-1.41-1.94-2.59-1.88V11c.71,0,1.25.26,1.25.73s-.25.74-.95.74a11,11,0,0,1-2.52-.66,8.75,8.75,0,0,0-2.62-.64,2.51,2.51,0,0,0-2.6,2.43v0h0a1.74,1.74,0,0,0,1.16,1.66l.12-.19a.79.79,0,0,1-.44-.75.93.93,0,0,1,1-.81h0a12,12,0,0,1,2.86.59A22.72,22.72,0,0,0,8,14.82v2.34l-1.17.95v.08l1.17,1v3.24a3.86,3.86,0,0,1-1.88.45,3.81,3.81,0,0,1-3-1.17l3.12-1.49V15.06L2.45,16.75a4.53,4.53,0,0,1,1.94-2.18v-.19A5.75,5.75,0,0,0,0,19.66,5.34,5.34,0,0,0,5.33,25h0a4.88,4.88,0,0,0,5-4.76h0V20h-.16a5.23,5.23,0,0,1-2,2.45V19.3l1.22-1v-.11l-1.22-1V14.85a2.2,2.2,0,0,0,2.33-2v-.12Zm-6.61,8.5L3,21.64a4.61,4.61,0,0,1-.85-3A5.39,5.39,0,0,1,2.33,17l1.6-.71Zm8.16,1.67-1,.76.13.14.5-.35L13.36,25l2.33-1.53-.11-.17-.6.38-.79-.8V17.68l.6-.47,1.31,1.05v4.67c0,2.82-.64,3.35-1.94,3.82v.19c2.15.09,4.11-.64,4.11-4.32v-5l.69-.54-.13-.15-.59.47-1.88-1.6-2.18,1.62v-6.3H14l-2.68,1.84v.18A1.08,1.08,0,0,1,12,14.27ZM26,22,24.1,23.44l-2-1.52V21l3.57-2.42v-.12l-1.8-2.71-3.93,2.06v5l-.78.59.13.15L20,23l2.58,1.87L26,22.16Zm-3.8-1.27V17l.13-.08L24,19.54ZM40.55,12a2,2,0,0,0-.14-.71h-.18c-.25.64-.53,1-1.27,1a2,2,0,0,1-1.45-.79L35.33,14l.18.17.62-.71a2.55,2.55,0,0,0,1.87.73v6.33l-4.53-7.62a2.4,2.4,0,0,0-2-1.41A2.34,2.34,0,0,0,29.3,14a3.48,3.48,0,0,0,.05.36h.21a.91.91,0,0,1,.81-1h0a1.34,1.34,0,0,1,1,.76v2.49c-1.41,0-2.33.64-2.33,1.75A1.68,1.68,0,0,0,30.33,20v-.17a.67.67,0,0,1-.25-.53c0-.4.31-.68.86-.68h.4v3.22A2.5,2.5,0,0,0,28.53,24c0,.08,0,.17,0,.25a2.16,2.16,0,0,0,2.22,2.1h.35v-.18c-.82-.09-1.25-.47-1.25-1a1,1,0,0,1,1-1h.12a2.16,2.16,0,0,1,1.54.82l2.25-2.45-.24-.22L33.9,23a3.77,3.77,0,0,0-2.26-1.17V14.18l6.14,10.71h.44V14.27a2.33,2.33,0,0,0,2.33-2.33ZM46,22l-1.86,1.41L42.2,21.85V21l3.56-2.4v-.12L44,15.74,40,17.86v4.95l-.78.6.13.15L40.1,23l2.58,1.87,3.44-2.72L46,22Zm-3.8-1.25V17l.13-.08L44,19.52Zm16.22-4.2-.56.41L56.44,15.7l-1.68,1.53.69.65v5.74L53.6,22.45V17.79l.59-.41-1.84-1.62-1.66,1.52.69.66V23.4l-.24.14-1.61-1.17V17.7a1.8,1.8,0,0,0-1.17-1.78c-.67-.37-.82-.64-.82-1.17s.45-.69.66-.81a.6.6,0,0,1,0-.19A2.32,2.32,0,0,0,46,15.86a1.68,1.68,0,0,0,.71,1.49,1.76,1.76,0,0,1,.72,1.35v4.39l-.82.65.13.17.75-.58,2,1.57,1.87-1.29,2.12,1.28,4-2.33v-5.1l1-.72-.16-.23Zm14.14-4.2L71.8,13,70,11.52l-2.48,1.86V11.67h-.26V24c-.26,0-.89-.18-1.41-.26V13.42A1.81,1.81,0,0,0,64,11.61h-.11a2.23,2.23,0,0,0-2.33,2.1v0h.23c.07-.46.32-.85.76-.85s.87.28.87,1.3v3c-1.42,0-2.2.84-2.2,1.8a1.42,1.42,0,0,0,1.25,1.55v-.19a.56.56,0,0,1-.4-.52c0-.45.41-.62,1-.62h.26v4.66A2.21,2.21,0,0,0,61.76,26a2.33,2.33,0,0,0,2.34,2.26h.25a12.45,12.45,0,0,0,2.92-.4,14.72,14.72,0,0,1,2.18-.33c.59,0,.84.26.84.68a.72.72,0,0,1-.53.82v.19a2.12,2.12,0,0,0,2-2.16c0-1.17-1.11-1.86-2.33-1.86a16.8,16.8,0,0,0-2.83.42,13.38,13.38,0,0,1-2.45.34C63.62,26,63,25.7,63,25s.52-1.17,1.82-1.17a10.81,10.81,0,0,1,2.4.37,12.8,12.8,0,0,0,2.53.46c1.11,0,2.11-.4,2.11-2V13.28l.89-.76ZM69.44,17a1.24,1.24,0,0,1-.91.44,1.36,1.36,0,0,1-.92-.44V13.61l.78-.53,1,1Zm0,2.26a1.3,1.3,0,0,0-.91-.38,1.49,1.49,0,0,0-.92.38V17.33a1.57,1.57,0,0,0,.92.4,1.32,1.32,0,0,0,.91-.4Zm0,3.5a1.17,1.17,0,0,1-1.17,1.17h-.6V19.59a1.17,1.17,0,0,1,1.64-.18l.18.18Zm10.39-5.4-2.52-1.65-3.68,2.12v5l-.76.61.12.16.59-.49L76,24.83l3.76-2.33Zm-4,4.88V16.85l1.93,1.41v5.43Zm11.32-6.36H87a1.11,1.11,0,0,1-.67.32,1.19,1.19,0,0,1-.85-.41h-.14L84,17.18l-1.33-1.41L80.5,17.32l.12.19.59-.4L82,18v4.89l-1,.76.13.14.49-.34L83.42,25l2.33-1.58-.19-.21-.66.4-.9-.73V17.41a2,2,0,0,0,1.41.78c1,0,1.58-1.16,1.68-2.33Zm9.15,7.29-2.59,1.69-3.5-5.3,2.47-3.8h.18a2,2,0,0,0,1.27.6,1.3,1.3,0,0,0,1.1-.6h.14a2.33,2.33,0,0,1-1.91,2.41,2.7,2.7,0,0,1-1.6-.62l-.24.34,3.76,5.64.75-.46Zm-8.43-.32-1,.75.13.14.49-.33,1.69,1.55,2.33-1.53-.13-.18-.58.39-.74-.81V11.09h-.22l-2.75,1.84v.18a1.07,1.07,0,0,1,.78,1.16Zm21-10.12c0-1.49-1.41-1.94-2.59-1.88v.25c.71,0,1.25.25,1.25.72s-.24.75-.94.75a10.8,10.8,0,0,1-2.52-.62,8.88,8.88,0,0,0-2.63-.64,2.51,2.51,0,0,0-2.6,2.42h0A1.72,1.72,0,0,0,100,15.37l.11-.19a.77.77,0,0,1-.44-.73.94.94,0,0,1,1-.85h0a11.91,11.91,0,0,1,2.82.65,23,23,0,0,0,2.82.64v2.25l-1.16,1v.08l1.16,1v3.24a4.24,4.24,0,0,1-4.86-.75l3.12-1.49V15.06l-3.87,1.69a4.58,4.58,0,0,1,2-2.18v-.19a5.75,5.75,0,0,0-4.48,5.27A5.35,5.35,0,0,0,103.61,25h0a4.88,4.88,0,0,0,5-4.67V20h-.14a5.27,5.27,0,0,1-2,2.33V19.29l1.23-1v-.12l-1.23-1V14.83a2.19,2.19,0,0,0,2.33-2v-.15Zm-6.66,8.47-.92.46a4.59,4.59,0,0,1-.86-2.79,4.91,4.91,0,0,1,.21-1.62l1.61-.72V21.3Zm9.22-9.13h-.12l-1.53,1.28v.12l1.29,1.41h.13l1.52-1.27V13.5l-1.28-1.41Zm2.33,11.31-.58.39-.75-.94V17.6l.73-.54-.14-.18-.56.44-1.32-1.55L109,17.3l.12.19.54-.37.67.84v4.88l-1,.73.11.14.52-.37,1.66,1.53,2.26-1.48Zm12.73-.08-.54.37-.81-.74V17.59l.78-.59-.13-.17-.66.51-1.8-1.58-2.25,1.59-1.72-1.59-2.22,1.55-1.41-1.58-2.18,1.53.12.2.53-.37.75.81v4.91l-.59.6,1.73,1.41,1.68-1.53-.68-.65V17.59l.65-.45,1.17,1.09v4.6l-.59.59,1.75,1.41,1.66-1.53-.69-.65V17.54l.58-.38,1.25,1.07v4.6l-.51.52L124.14,25l2.43-1.66Zm6.61-1.17-1.87,1.4L129.29,22V21l3.5-2.4v-.12L131,15.72l-3.82,2.15V23l2.62,1.89,3.44-2.71Zm-3.8-1.24V17l.09-.09,1.67,2.62ZM140,20l-1.41-1.16A3.88,3.88,0,0,0,140,16.07v-.49h-.19a1,1,0,0,1-1,.75,1.81,1.81,0,0,1-1.41-.73L134,17.47v2.82l1.27,1c-1.29,1.16-1.53,1.93-1.53,2.52a1.53,1.53,0,0,0,1,1.55l.08-.18a.64.64,0,0,1-.31-.58c0-.26.31-.62.89-.62a1.9,1.9,0,0,1,1.41.78L140,22.83Zm-.82-2.33A9.21,9.21,0,0,1,136.85,20l-.84-.65V16.68a2.25,2.25,0,0,0,3,1.16l.22-.11Zm-1.3,6.06a2.47,2.47,0,0,0-2.17-1.39,2.66,2.66,0,0,0-1.41.37A8.5,8.5,0,0,1,137,20.27l1,.72Z"/></svg>