<svg id="Layer_1" data-name="Layer 1" xmlns="http://www.w3.org/2000/svg" viewBox="0 0 55.38 40"><defs><style>.cls-1{fill:#fff;}</style></defs><path class="cls-1" d="M52.7,27.83,47.41,20a7.65,7.65,0,0,1-3.43.7,7,7,0,0,1-4.57-1.48h0c9.74.79,12.06-1.65,12.06-4.76,0-3.5-3.75-4.4-9.16-4.4H29v.11c1.77.17,5.31,2.23,6.77,6.24a9.88,9.88,0,0,1,.45,2.16v4.34L25,10H1.46L0,19H.11c2.07-5.16,4.29-8.89,8.34-8.89V24.25c0,3.74-.29,5.15-3.37,5.6V30H27.81v-.11C26,29.68,22.33,27.52,21,23.29a8.36,8.36,0,0,1-.29-1.79v-7L33.87,30h5.21v-.11c-1.6-.36-2.27-1.35-2.5-3.74V19.59c0-5,.71-8.12,2.27-9.13a1.82,1.82,0,0,1,.94-.26h.9A3.94,3.94,0,0,1,45,13.71a4.12,4.12,0,0,1,0,.86C45,17,43.86,19.08,40.69,19H39l7.48,11h8.92v-.11A3.76,3.76,0,0,1,52.7,27.83ZM20.15,20.34c0,4.16-.49,7-1.55,8.44a1.88,1.88,0,0,1-.7.67h0a1.5,1.5,0,0,1-1.24.16,1.85,1.85,0,0,1-1.25-.83l-.13-.18c-.64-.87-.73-2.23-.73-4.39V10.14h0a5,5,0,0,1,3.74,1.77l1.25,1.4a2.3,2.3,0,0,1,.55,1.51Z"/></svg>