<svg id="Camada_1" data-name="Camada 1" xmlns="http://www.w3.org/2000/svg" viewBox="0 0 70 40"><defs><style>.cls-1{fill:#fff;}</style></defs><path class="cls-1" d="M14.24,11.81a2.06,2.06,0,0,0-2,2v7.31L3.45,12.41a2.48,2.48,0,0,0-.3-.25h0L3,12.06H3L2.82,12h0a2,2,0,0,0-2.22.43A2.06,2.06,0,0,0,0,14V26.09a2,2,0,1,0,4.1,0v-7.3l8.7,8.74.11.1h0l.09.08a.15.15,0,0,1,.06,0l.11.07.06,0h.1l.09,0h1.36l.15-.06h0l.14-.05h0l.14-.08h0a2.1,2.1,0,0,0,.57-.58v0l.09-.13v-.05l.06-.13v-.05l0-.14V13.85A2.05,2.05,0,0,0,14.24,11.81Z"/><path class="cls-1" d="M31.46,24.07H24.08V22h7.38a2,2,0,0,0,0-4.1H24.08v-2h7.38a2.05,2.05,0,1,0,0-4.1H22.05a2,2,0,0,0-2.1,2h0a2,2,0,0,0,.06.54V26.2a2,2,0,0,0,2,2h9.41a2,2,0,1,0,0-4.09Z"/><path class="cls-1" d="M51.63,12.41a2,2,0,0,0-2.89,0l-4.69,4.68-4.67-4.68a2,2,0,0,0-3,2.8l.08.08L41.19,20l-4.68,4.67a2,2,0,0,0,2.89,2.88l4.67-4.67,4.67,4.67a2,2,0,0,0,2.89-2.88L47,20l4.67-4.68a2,2,0,0,0,0-2.87Z"/><path class="cls-1" d="M70,20a8.2,8.2,0,0,0-8.2-8.19h0A8.19,8.19,0,0,0,53.61,20h0a8.2,8.2,0,0,0,8.19,8.2h0A8.2,8.2,0,0,0,70,20Zm-8.2,4.1h0a4.1,4.1,0,1,1,0-8.2h0a4.1,4.1,0,1,1,0,8.2Z"/></svg>