<svg id="Camada_1" data-name="Camada 1" xmlns="http://www.w3.org/2000/svg" viewBox="0 0 100 40"><defs><style>.cls-1{fill:#fff;}</style></defs><path class="cls-1" d="M17.64,9.05a2.5,2.5,0,0,0-2.49,2.49v8.92L4.47,9.78a2.6,2.6,0,0,0-.36-.3h0l-.2-.12h0l-.2-.1h0A2.49,2.49,0,0,0,1,9.78a2.45,2.45,0,0,0-.73,1.9V26.47a2.49,2.49,0,0,0,5,0V17.56L15.88,28.23l.13.12,0,0,.12.1a.18.18,0,0,1,.07.05l.13.08.08.05.12,0,.11.05.1,0,.13,0,.09,0,.15,0,.09,0,.15,0h.48l.19,0h.05l.18,0h.05l.18-.07,0,0,.17-.07.05,0a1,1,0,0,0,.17-.1l0,0a2.59,2.59,0,0,0,.7-.7l0-.05.1-.16s0,0,0-.06a1.19,1.19,0,0,0,.08-.16s0,0,0-.06l.06-.17s0,0,0-.05,0-.13,0-.19,0,0,0-.05l0-.19v-.05c0-.06,0-.12,0-.19V11.54A2.5,2.5,0,0,0,17.64,9.05Z"/><path class="cls-1" d="M38.64,24h-9V21.53h9a2.49,2.49,0,1,0,0-5h-9V14.06h9a2.49,2.49,0,0,0,0-5H27.16A2.5,2.5,0,0,0,24.6,11.5a2.84,2.84,0,0,0,.07.66V26.51s0,.06,0,.09A2.48,2.48,0,0,0,27.16,29H38.64a2.49,2.49,0,1,0,0-5Z"/><path class="cls-1" d="M63.25,9.78a2.49,2.49,0,0,0-3.52,0L54,15.49l-5.7-5.71a2.49,2.49,0,1,0-3.52,3.52L50.51,19l-5.7,5.7a2.49,2.49,0,0,0,3.52,3.52l5.7-5.7,5.7,5.7a2.49,2.49,0,0,0,3.52-3.52L57.55,19l5.7-5.71A2.47,2.47,0,0,0,63.25,9.78Z"/><path class="cls-1" d="M85.66,19.08a10,10,0,0,0-10-10h0a10,10,0,0,0-10,10h0a10,10,0,0,0,10,10h0a10,10,0,0,0,10-10Zm-10,5h0a5,5,0,0,1,0-10h0a5,5,0,0,1,0,10Z"/></svg>