<svg id="Camada_1" data-name="Camada 1" xmlns="http://www.w3.org/2000/svg" viewBox="0 0 88 40"><defs><style>.cls-1{fill:#fff;fill-rule:evenodd;}</style></defs><path class="cls-1" d="M21.42,36.17a1.43,1.43,0,1,1,0,2.85H11.68a1.43,1.43,0,1,1,0-2.85ZM69.49,21a6.33,6.33,0,0,1,4.32,1.53,1.38,1.38,0,0,1,.43,1A1.27,1.27,0,0,1,73,24.78h0a1.44,1.44,0,0,1-.83-.27,4,4,0,0,0-2.64-1.05,3.7,3.7,0,0,0-3.57,3.82v.07h0a3.7,3.7,0,0,0,3.37,4l.31,0a4.09,4.09,0,0,0,2.75-1.1A1.29,1.29,0,0,1,73.1,30a1.21,1.21,0,0,1,1.22,1.22h0a1.09,1.09,0,0,1-.4.87,6.07,6.07,0,0,1-4.47,1.74,6.27,6.27,0,0,1-6.37-6.16v-.21A6.33,6.33,0,0,1,69.3,21Zm12,0A6.36,6.36,0,0,1,88,27.18v.19h0a6.43,6.43,0,0,1-6.48,6.37H81.4a6.35,6.35,0,0,1-6.53-6.16v-.2A6.42,6.42,0,0,1,81.33,21h.11ZM16.58,21a6.37,6.37,0,0,1,6.55,6.17v.17h0a6.43,6.43,0,0,1-6.47,6.37h-.18A6.34,6.34,0,0,1,10,27.57v-.2A6.41,6.41,0,0,1,16.44,21Zm25.71.12a1.41,1.41,0,0,1,1.41,1.41v9.67a1.43,1.43,0,1,1-2.85,0v-.62a4.43,4.43,0,0,1-3.8,2.14c-2.78,0-4.39-1.84-4.39-4.69v-6.5a1.43,1.43,0,0,1,2.85,0v5.7c0,1.9,1,3,2.64,3a2.71,2.71,0,0,0,2.72-2.7c0-.12,0-.23,0-.34V22.56a1.4,1.4,0,0,1,1.4-1.41h0Zm12.73,0a1.25,1.25,0,0,1,1.32,1.19v0a1.39,1.39,0,0,1-.4.95l-3.34,3.95,3.44,4a1.75,1.75,0,0,1,.49,1,1.29,1.29,0,0,1-1.25,1.3h-.07a1.58,1.58,0,0,1-1.3-.72l-3-3.8-3,3.8a1.67,1.67,0,0,1-1.24.72,1.25,1.25,0,0,1-1.3-1.21v0a1.37,1.37,0,0,1,.4-.95l3.5-4.16-3.24-3.8a1.67,1.67,0,0,1-.47-1.07,1.26,1.26,0,0,1,1.23-1.29h.07a1.57,1.57,0,0,1,1.3.69L51,25.43l2.85-3.59A1.55,1.55,0,0,1,55,21.13ZM29.23,16.48a9.73,9.73,0,0,1,1.43.11,1.17,1.17,0,0,1,1,1.27,1.15,1.15,0,0,1-1.25,1,5.85,5.85,0,0,0-.59,0c-1.07,0-1.64.58-1.64,1.85v.67H30.4a1.15,1.15,0,0,1,1.19,1.11v0a1.17,1.17,0,0,1-1.18,1.16H28.27v8.55a1.43,1.43,0,1,1-2.85,0V23.69h-.48a1.17,1.17,0,0,1-1.19-1.15h0a1.2,1.2,0,0,1,1.19-1.18h.48v-.9a4.07,4.07,0,0,1,1-3A3.79,3.79,0,0,1,29.23,16.48Zm30.62,4.67a1.4,1.4,0,0,1,1.43,1.38v9.7a1.43,1.43,0,1,1-2.85,0V22.56a1.38,1.38,0,0,1,1.35-1.41Zm21.59,2.33a3.68,3.68,0,0,0-3.72,3.64c0,.09,0,.17,0,.25h0a3.8,3.8,0,0,0,3.68,3.91h.12a3.68,3.68,0,0,0,3.74-3.61,2,2,0,0,0,0-.25v-.05a3.79,3.79,0,0,0-3.66-3.93h-.14Zm-64.87,0a3.69,3.69,0,0,0-3.72,3.65v.24h0a3.8,3.8,0,0,0,3.69,3.91h.11a3.67,3.67,0,0,0,3.73-3.62v-.29a3.81,3.81,0,0,0-3.72-3.89h-.09Zm43.28-6.84a1.46,1.46,0,0,1,1.61,1.26.31.31,0,0,0,0,.1v.14a1.63,1.63,0,0,1-1.83,1.4,1.61,1.61,0,0,1-1.39-1.4V18a1.43,1.43,0,0,1,1.51-1.36Z"/><path class="cls-1" d="M16,13.65a9.3,9.3,0,0,1-5.49,1.68H8.89v2.75L6,14.56C3.47,13,2.64,11,2.64,9.47A5.23,5.23,0,0,1,5,5.29a9.3,9.3,0,0,1,5.49-1.68A9.3,9.3,0,0,1,16,5.29a5.23,5.23,0,0,1,2.34,4.18A5.23,5.23,0,0,1,16,13.65m1.9-10.23A11.78,11.78,0,0,0,10.5,1,11.82,11.82,0,0,0,3.13,3.42,7.74,7.74,0,0,0,0,9.53c0,2.2,1.12,5.11,4.57,7.39L10.36,22V18h.72a10.18,10.18,0,0,0,6.79-2.44,7.79,7.79,0,0,0,3.13-6,7.74,7.74,0,0,0-3.13-6.06"/></svg>