<svg id="Camada_1" data-name="Camada 1" xmlns="http://www.w3.org/2000/svg" viewBox="0 0 92.63 40"><defs><style>.cls-1{fill:#fff;fill-rule:evenodd;}</style></defs><path class="cls-1" d="M22.55,37.05a1.48,1.48,0,1,1,0,3H12.29a1.48,1.48,0,0,1,0-3Zm50.6-15.94a6.61,6.61,0,0,1,4.54,1.61,1.42,1.42,0,0,1,.46,1,1.34,1.34,0,0,1-1.37,1.34,1.53,1.53,0,0,1-.88-.29,4.16,4.16,0,0,0-2.78-1.1,3.89,3.89,0,0,0-3.75,4.09v0A3.9,3.9,0,0,0,73.24,32a4.36,4.36,0,0,0,2.9-1.15,1.33,1.33,0,0,1,.81-.31,1.28,1.28,0,0,1,1.28,1.29,1.14,1.14,0,0,1-.42.92,6.34,6.34,0,0,1-4.71,1.83,6.59,6.59,0,0,1-6.7-6.65v-.05A6.66,6.66,0,0,1,73.15,21.11Zm12.58,0a6.69,6.69,0,0,1,6.9,6.67v0a6.76,6.76,0,0,1-6.95,6.7,6.68,6.68,0,0,1-6.87-6.65v-.05a6.76,6.76,0,0,1,6.92-6.72Zm-68.28,0a6.7,6.7,0,0,1,6.9,6.67v0a6.76,6.76,0,0,1-7,6.7,6.68,6.68,0,0,1-6.87-6.65v-.05A6.75,6.75,0,0,1,17.45,21.11Zm27.07.12A1.49,1.49,0,0,1,46,22.72V32.9a1.5,1.5,0,0,1-3,0v-.66A4.67,4.67,0,0,1,39,34.5c-2.93,0-4.62-1.94-4.62-4.94V22.72a1.49,1.49,0,1,1,3,0v6c0,2,1,3.12,2.78,3.12A2.85,2.85,0,0,0,43,28.64V22.72a1.48,1.48,0,0,1,1.5-1.49Zm13.39,0a1.33,1.33,0,0,1,1.4,1.29,1.47,1.47,0,0,1-.42,1l-3.51,4.16L59,31.92A1.8,1.8,0,0,1,59.51,33a1.34,1.34,0,0,1-1.38,1.37,1.63,1.63,0,0,1-1.37-.76l-3.14-4-3.15,4a1.72,1.72,0,0,1-1.3.76,1.32,1.32,0,0,1-1.37-1.29,1.41,1.41,0,0,1,.42-1l3.68-4.38-3.41-4A1.74,1.74,0,0,1,48,22.57a1.33,1.33,0,0,1,1.37-1.36,1.66,1.66,0,0,1,1.37.73l2.92,3.8,3-3.78A1.67,1.67,0,0,1,57.91,21.21ZM30.77,16.32a9,9,0,0,1,1.5.12,1.22,1.22,0,0,1-.22,2.43,6,6,0,0,0-.62-.05c-1.13,0-1.72.61-1.72,1.95v.71H32a1.21,1.21,0,0,1,1.25,1.21A1.23,1.23,0,0,1,32,23.91H29.76v9a1.49,1.49,0,0,1-3,0v-9h-.51A1.23,1.23,0,0,1,25,22.69a1.25,1.25,0,0,1,1.25-1.24h.51V20.5a4.3,4.3,0,0,1,1.06-3.16A4,4,0,0,1,30.77,16.32ZM63,21.23a1.48,1.48,0,0,1,1.5,1.49V32.9a1.49,1.49,0,0,1-3,0V22.72A1.46,1.46,0,0,1,63,21.23Zm22.72,2.46a3.87,3.87,0,0,0-3.9,4.09v0a4,4,0,0,0,4,4.12,3.87,3.87,0,0,0,3.93-4.07v-.05a4,4,0,0,0-4-4.14Zm-68.28,0a3.88,3.88,0,0,0-3.91,4.09v0a4,4,0,0,0,4,4.12,3.87,3.87,0,0,0,3.92-4.07v-.05A4,4,0,0,0,17.4,23.69ZM63,16.49a1.52,1.52,0,0,1,1.7,1.43v.15a1.71,1.71,0,0,1-3.39,0v-.15A1.52,1.52,0,0,1,63,16.49Z"/><path class="cls-1" d="M16.83,13.34a9.79,9.79,0,0,1-5.78,1.77c-.22,0-1.46,0-1.69,0V18l-3-3.7c-2.71-1.65-3.58-3.76-3.58-5.36a5.51,5.51,0,0,1,2.45-4.4,9.79,9.79,0,0,1,5.78-1.77,9.79,9.79,0,0,1,5.78,1.77,5.5,5.5,0,0,1,2.46,4.4,5.49,5.49,0,0,1-2.46,4.4m2-10.77A12.42,12.42,0,0,0,11.05,0,12.44,12.44,0,0,0,3.29,2.57,8.16,8.16,0,0,0,0,9c0,2.32,1.18,5.38,4.81,7.78l6.1,5.38V17.88c.3,0,.45,0,.75,0a10.74,10.74,0,0,0,7.15-2.57A8.17,8.17,0,0,0,22.1,9a8.16,8.16,0,0,0-3.29-6.38"/></svg>