<svg id="Camada_1" data-name="Camada 1" xmlns="http://www.w3.org/2000/svg" viewBox="0 0 100 40"><defs><style>.cls-1{fill:#fcfcfc;}</style></defs><title>o-globo</title><path class="cls-1" d="M6.61,12a7.59,7.59,0,0,0-4,2.11A7.95,7.95,0,0,0,.91,23.66a6.11,6.11,0,0,0,1.45,2A11.33,11.33,0,0,0,4,27a8.19,8.19,0,0,0,7.72.27,8.64,8.64,0,0,0,3.77-3.77,8.45,8.45,0,0,0,0-7,8.66,8.66,0,0,0-5.3-4.37A10.17,10.17,0,0,0,6.61,12Zm2.23,3.89a4.4,4.4,0,0,1,3.08,2.37,2.92,2.92,0,0,1,.31,1.7,2.91,2.91,0,0,1-.29,1.66A4.29,4.29,0,0,1,7.4,24.08a4.13,4.13,0,0,1-2.22-7A4.48,4.48,0,0,1,7.3,15.93,3.09,3.09,0,0,1,8.84,15.93Z"/><path class="cls-1" d="M29.61,12a8.39,8.39,0,0,0-5,2.87,9.17,9.17,0,0,0-1.67,3.35,10.36,10.36,0,0,0,0,3.6,9.45,9.45,0,0,0,.62,1.7,8.12,8.12,0,0,0,10.16,4.08,7.94,7.94,0,0,0,3.07-2.1A7.33,7.33,0,0,0,39,20.3a8.69,8.69,0,0,0,0-1.56l-.06-.28H31.16l-.06.45a14.74,14.74,0,0,0,0,1.62l0,1.17,1.78,0a8.66,8.66,0,0,1,1.77.11,4.43,4.43,0,0,1-1.11,1.36,3.58,3.58,0,0,1-2.65.92,3.65,3.65,0,0,1-1.57-.24,4.63,4.63,0,0,1-2.22-2.11A2.84,2.84,0,0,1,26.75,20a2.84,2.84,0,0,1,.35-1.77A4.1,4.1,0,0,1,31.86,16a4.58,4.58,0,0,1,1.94,1c.14.15.33,0,2.49-2l.53-.49-.66-.63a8.6,8.6,0,0,0-3.31-1.76A11.6,11.6,0,0,0,29.61,12Z"/><path class="cls-1" d="M57.43,12A8.29,8.29,0,0,0,51,17.72,6.29,6.29,0,0,0,50.71,20,6.29,6.29,0,0,0,51,22.28,8.44,8.44,0,0,0,54.72,27a8.21,8.21,0,0,0,5,1,7.81,7.81,0,0,0,5-2.55,7.72,7.72,0,0,0,1.87-3.07A6,6,0,0,0,66.82,20a6,6,0,0,0-.28-2.41,9.87,9.87,0,0,0-.67-1.52,10.34,10.34,0,0,0-2.71-2.86A8.2,8.2,0,0,0,57.43,12Zm2,3.91a4.45,4.45,0,0,1,3.08,2.38,4.14,4.14,0,0,1-4.46,5.79,4,4,0,0,1-2.39-1.3A4.13,4.13,0,0,1,57.87,16,2.91,2.91,0,0,1,59.47,15.92Z"/><path class="cls-1" d="M90.61,12a8.29,8.29,0,0,0-6,4.38,8.43,8.43,0,0,0,0,7.21,8.16,8.16,0,0,0,11.48,3.34,11.14,11.14,0,0,0,1.57-1.32,6,6,0,0,0,1.46-2A6.85,6.85,0,0,0,100,20a6.85,6.85,0,0,0-.85-3.65,5.88,5.88,0,0,0-1.46-2,7.76,7.76,0,0,0-2.84-1.94A8.59,8.59,0,0,0,90.61,12Zm2.66,4.08a4.91,4.91,0,0,1,2.45,2.21,4.08,4.08,0,0,1,.33,2.33A4,4,0,0,1,94.71,23a3.53,3.53,0,0,1-2.81,1.11,3.79,3.79,0,0,1-2.53-.81,4.17,4.17,0,0,1-1.19-5.09,4.42,4.42,0,0,1,2.88-2.29A5.15,5.15,0,0,1,93.27,16.08Z"/><path class="cls-1" d="M41.22,20v7.69h5.47c4.34,0,5.45,0,5.39-.13s-.57-.8-1.18-1.59l-1.1-1.46H45.15V12.31H41.22Z"/><path class="cls-1" d="M69.32,20v7.71l4-.06c4.46-.06,4.92-.11,6.16-.76A4.2,4.2,0,0,0,81.43,25a4.39,4.39,0,0,0-.06-4,3.64,3.64,0,0,0-1.75-1.55c-.3-.11-.46-.31-.24-.31a4.86,4.86,0,0,0,1.42-1.42A2.53,2.53,0,0,0,81,16.29a2.75,2.75,0,0,0-.29-1.55A4,4,0,0,0,79,13c-1-.53-1.66-.6-5.8-.66l-3.85-.05Zm7.28-4.47a1.25,1.25,0,0,1-.27,2.3,12.55,12.55,0,0,1-1.78.1H73.14V15.26l1.56,0A4.52,4.52,0,0,1,76.6,15.53Zm.67,5.74a1.57,1.57,0,0,1,.76,1.5,1.32,1.32,0,0,1-.9,1.41c-.44.21-.69.25-2.25.3l-1.74.06V21L75,21C76.68,21.06,76.94,21.08,77.27,21.27Z"/></svg>