<svg id="obs-icon-observador" xmlns="http://www.w3.org/2000/svg" viewBox="0 0 120 40"><defs><style>.cls-1{fill:#fff;}</style></defs><path class="cls-1" d="M17.42,25.81V14.19m.06-.06H22.7c2.4,0,3.86,1.14,3.86,3h0A2.69,2.69,0,0,1,25,19.63l-.13.08H25a2.86,2.86,0,0,1,2.19,2.87h0c0,2-1.6,3.2-4.39,3.2H17.48Zm5.32,9.59c1.2,0,1.93-.48,1.93-1.37h0c0-.9-.69-1.37-2-1.37H19.82v2.76h3Zm-.7-4.8c1.29,0,2-.46,2-1.33h0c0-.82-.66-1.3-1.79-1.3H19.81V19ZM33.43,26a7.61,7.61,0,0,1-4.89-1.79.07.07,0,0,1,0-.09l1.36-1.65h0a5.41,5.41,0,0,0,3.5,1.37c1.09,0,1.78-.46,1.78-1.2h0c0-.76-.51-1.09-2.4-1.58-2.64-.68-3.88-1.38-3.88-3.6h0c0-2.1,1.64-3.52,4.09-3.52a6.77,6.77,0,0,1,4.26,1.42.07.07,0,0,1,0,.09l-1.2,1.75h0a5.54,5.54,0,0,0-3-1.1c-1,0-1.59.42-1.59,1.1h0c0,.89.67,1.14,2.61,1.64,2.31.61,3.72,1.39,3.72,3.51h0C37.73,24.66,36.08,26,33.43,26Zm6.34-.18s-.07,0-.07-.06V14.19a.06.06,0,0,1,.07-.06h8.4m.06.06v2m-.06.06h-6v2.56h5.22a.07.07,0,0,1,.07.07h0v2a.07.07,0,0,1-.07.07H42.14v2.64h6.08s.07,0,.07.06V25.8a.06.06,0,0,1-.07.06h-8.4Zm9.35,9.52h0L55,22.05H52.8v3.73m0,.06H50.4s-.07,0-.07-.06V14.19a.06.06,0,0,1,.07-.06h5.29c2.77,0,4.42,1.44,4.42,3.85h0a3.59,3.59,0,0,1-2.5,3.6h-.08l2.81,4.12m0,.06Zm-4.85-5.94a1.83,1.83,0,0,0,2.07-1.75h0c0-1.13-.78-1.78-2.13-1.78H52.8v3.6Zm10,6h0L60.83,14.2h2.71l3.14,8.4,3.15-8.34h2.58L67.72,25.88a.11.11,0,0,1-.08,0Zm14.88,0h-.07L79.27,23.2H74.14l-1.07,2.62H70.6v-.06l5-11.59H78l5,11.61m0,.06h0ZM78.4,21l-1.7-4.13L75,21Zm5.89,4.74V14.19m0-.06H88.8a5.87,5.87,0,0,1,6.26,5.45c0,.14,0,.28,0,.42h0a5.89,5.89,0,0,1-5.88,5.9H84.29ZM88.8,23.6a3.46,3.46,0,0,0,3.67-3.23,2.29,2.29,0,0,0,0-.37h0a3.5,3.5,0,0,0-3.4-3.6H86.7v7.2Zm28.4,2.22h0l-2.54-3.77h-2.22v3.73m0,.06H110s-.07,0-.07-.06V14.19a.06.06,0,0,1,.07-.06h5.3c2.78,0,4.43,1.44,4.43,3.85h0a3.59,3.59,0,0,1-2.51,3.6h-.08l2.82,4.2m0,.06Zm-4.82-6c1.27,0,2.08-.68,2.08-1.75h0c0-1.13-.78-1.78-2.13-1.78h-2.68v3.6Zm-12.66,6.25A6.09,6.09,0,1,1,108.61,20,6.09,6.09,0,0,1,102.52,26.07Zm0-9.74a3.6,3.6,0,1,0,3.6,3.6A3.6,3.6,0,0,0,102.52,16.33Zm-94.8-4A7.69,7.69,0,1,0,15.38,20v0a7.67,7.67,0,0,0-7.66-7.69h0ZM7.72,25a5,5,0,1,1,5-5v0a5,5,0,0,1-5,5Z"/></svg>