<svg id="Camada_1" data-name="Camada 1" xmlns="http://www.w3.org/2000/svg" viewBox="0 0 88 40"><defs><style>.cls-1{fill:#fff;}</style></defs><path class="cls-1" d="M10.41,6.8a13.66,13.66,0,0,0-6.14,3.56,13.23,13.23,0,0,0-3.86,13A13.54,13.54,0,1,0,18,7.18,15.38,15.38,0,0,0,10.41,6.8Z"/><path class="cls-1" d="M36.66,8.25c-3,.77-4.58,3.06-4.83,6.93-.14,1.81-.08,2.11.48,2.8.82,1,2,1.49,4,1.49A7,7,0,0,0,41.13,18c1.61-1.52,2.61-6.3,1.71-8a3.57,3.57,0,0,0-1.28-1.28A9.5,9.5,0,0,0,36.66,8.25Zm2.91,3c.37.64-.19,3.87-.86,4.72a2.14,2.14,0,0,1-2.9.69c-.65-.43-.68-.53-.53-2s1-3.55,1.55-3.81S39.28,10.81,39.57,11.26Z"/><path class="cls-1" d="M45.47,8.27c0,.08-.54,2.19-1.09,4.7-1,4.42-1,4.61-.54,5.28.65,1,1.44,1.22,4.16,1.22h2.38l.26-1c.41-1.41.42-1.38-1-1.38-1.76,0-2.47-.25-2.47-.81,0-.27.36-2,.79-4s.8-3.66.8-3.87S45.62,8,45.47,8.27Z"/><path class="cls-1" d="M54,8.43c-.06.13-.59,2.48-1.17,5.19S51.65,18.77,51.57,19c-.14.43,0,.48,1.59.48h1.73l.26-1a10.48,10.48,0,0,0,.29-1.26,7.2,7.2,0,0,1,.3-1.28L56,15h1.71c1.93,0,1.89-.08,1.32,2.26s-.61,2.27,1.29,2.27H62L63.25,14c.69-3.05,1.22-5.54,1.19-5.54a11.48,11.48,0,0,0-1.65-.14l-1.6-.07-.53,2-.51,2.08H58.31c-1.6,0-1.81-.06-1.67-.49a23.74,23.74,0,0,0,.68-3.25c0-.31-.35-.4-1.62-.4C54.79,8.14,54,8.25,54,8.43Z"/><path class="cls-1" d="M68.89,8.94c-1.52,2-5.44,9.34-5.44,10.19,0,.24.46.34,1.63.34h1.6l.57-1.37.55-1.33h3.65v2.67h3.46V17.18a41.68,41.68,0,0,0-1-8.4c-.16-.48-.43-.55-2.26-.58C69.56,8.14,69.51,8.17,68.89,8.94ZM71.3,12.6l.18,1.81H70.25c-.66,0-1.2,0-1.2-.14a14,14,0,0,1,2-3.54S71.19,11.61,71.3,12.6Z"/><path class="cls-1" d="M78.52,8.55c-.3,1-2.27,10.15-2.27,10.52s.3.4,1.65.35l1.69-.08.34-1.68c.34-1.57.4-1.66,1.15-1.66s1.68,1,1.93,2.59l.16.91,1.66-.08,1.64-.08-.08-1a7.07,7.07,0,0,0-.6-2.06l-.5-1.11,1-.83A3.7,3.7,0,0,0,87,9.25l-.81-.82-3.76-.14C79.21,8.17,78.63,8.2,78.52,8.55ZM84,11.23c.53,1-.14,2-1.4,2.4-1.56.4-1.8.24-1.51-1.14.4-1.79.42-1.82,1.54-1.82C83.45,10.67,83.77,10.81,84,11.23Z"/><path class="cls-1" d="M31.7,26.32l-1.2,5.55,3.28.08c4.13.08,5.21-.18,6.65-1.68a6.25,6.25,0,0,0,1.7-3.36c.64-2.43.59-3.68-.21-4.78s-2-1.3-5.65-1.3l-3.37,0Zm6.38-2.9a1.45,1.45,0,0,1,.85.74,8,8,0,0,1-.75,4.06,3.15,3.15,0,0,1-2.82,1.36l-.88-.09.64-2.79c.34-1.55.66-3,.74-3.14.14-.38,1.2-.46,2.22-.17Z"/><path class="cls-1" d="M44.18,21c-.08.14-.64,2.48-1.23,5.28s-1.17,5.23-1.22,5.41S42,32,43.39,32l1.75-.08,1.3-5.56,1.26-5.51H46A4.91,4.91,0,0,0,44.18,21Z"/><path class="cls-1" d="M50.77,21.23c-2.51.9-4,3.5-4,7.09,0,1.49.11,1.87.65,2.46a4.57,4.57,0,0,0,1.59,1,15.3,15.3,0,0,0,6,0l1.06-.27.62-2.74c.32-1.49.58-2.9.58-3.07s-.64-.32-2.13-.32h-2.1l-.27,1c-.43,1.47-.37,1.68.4,1.68.58,0,.67.08.53.58a7.73,7.73,0,0,0-.16.81c0,.13-.58.21-1.28.21-2.08,0-2.53-.79-1.86-3.41s1.51-3.12,4.4-2.91a12,12,0,0,1,2.23.32c.35.17.51,0,.73-1,.18-.75.21-1.23,0-1.42C57.38,20.75,52,20.75,50.77,21.23Z"/><path class="cls-1" d="M58.15,26.08c-.64,2.9-1.22,5.42-1.28,5.57s.32.35,1.6.35h1.76l.26-.9c.14-.51.64-2.78,1.16-5s.89-3.81,1-3.49c.08.56.24.62,1.69.62a4.82,4.82,0,0,1,1.56.12c0,.09-.42,2-1,4.33s-1,4.21-1,4.26a8.14,8.14,0,0,0,1.71.08h1.7l.59-2.29c.3-1.29.75-3.26,1-4.37l.45-2.08h1.46c1.42,0,1.42,0,1.69-1a9.54,9.54,0,0,0,.29-1.2,32.21,32.21,0,0,0-4.91-.18c-4.83,0-4.93,0-5,.58l-.1.62-.06-.62c0-.53-.15-.58-1.67-.58H59.32Z"/><path class="cls-1" d="M72.86,22.72A81.67,81.67,0,0,0,68.39,31L68,32h3.43l.54-1.2.54-1.2h3.75V32H79.8l-.19-3.24A42.45,42.45,0,0,0,79,23.23L78.52,21l-2.18-.07-2.22-.08ZM76,25.34V27.2H74.91c-.6,0-1.06-.13-1.06-.29a11.89,11.89,0,0,1,1.93-3.44A4.63,4.63,0,0,1,76,25.34Z"/><path class="cls-1" d="M81.5,25.12a49.73,49.73,0,0,0-1,5,2.09,2.09,0,0,0,.67,1.25c.59.62.83.67,3.44.67h2.8l.27-1A9.85,9.85,0,0,0,88,29.81a4.07,4.07,0,0,0-1.73-.19c-1.38,0-1.79-.11-1.94-.43a18.31,18.31,0,0,1,.59-3.81c.4-1.83.81-3.62.88-4,.11-.56,0-.58-1.59-.58H82.49Z"/></svg>