<svg id="Camada_1" data-name="Camada 1" xmlns="http://www.w3.org/2000/svg" viewBox="0 0 89.5 40"><defs><style>.cls-1{fill:#fff;}</style></defs><path class="cls-1" d="M9.62,7.81A12.47,12.47,0,0,0,4,11.1a12.19,12.19,0,0,0-3.57,12A12.51,12.51,0,1,0,16.63,8.16,14.24,14.24,0,0,0,9.62,7.81Z"/><path class="cls-1" d="M36.42,7.85c-3.09.8-4.74,3.17-5,7.17-.14,1.87-.08,2.18.5,2.89.85,1.08,2.12,1.55,4.19,1.55A7.26,7.26,0,0,0,41,17.89c1.66-1.57,2.7-6.51,1.77-8.3a3.66,3.66,0,0,0-1.33-1.32A9.78,9.78,0,0,0,36.42,7.85Zm3,3.12c.39.66-.19,4-.88,4.88a2.22,2.22,0,0,1-3,.71c-.68-.44-.71-.55-.55-2.09s1-3.67,1.6-3.94S39.12,10.5,39.42,11Z"/><path class="cls-1" d="M45.53,7.88c0,.08-.56,2.26-1.13,4.85-1,4.58-1,4.77-.56,5.46.67,1,1.49,1.27,4.3,1.27H50.6l.27-1.05c.42-1.46.44-1.43-1-1.43-1.82,0-2.56-.25-2.56-.83,0-.28.38-2.12.82-4.13S49,8.24,49,8,45.68,7.58,45.53,7.88Z"/><path class="cls-1" d="M54.31,8c-.06.14-.61,2.56-1.21,5.37S51.91,18.73,51.83,19c-.14.44.05.5,1.65.5h1.79l.26-1.07a9.78,9.78,0,0,0,.3-1.3,8.44,8.44,0,0,1,.31-1.32l.27-1h1.77c2,0,2-.08,1.37,2.34s-.63,2.35,1.33,2.35h1.76l1.27-5.71C64.62,10.61,65.17,8,65.14,8a10.86,10.86,0,0,0-1.71-.14l-1.65-.08-.55,2.07L60.7,12H58.8c-1.65,0-1.87-.06-1.73-.5a22.82,22.82,0,0,0,.71-3.36c0-.33-.36-.42-1.68-.42C55.16,7.74,54.36,7.85,54.31,8Z"/><path class="cls-1" d="M69.74,8.57c-1.57,2.09-5.62,9.65-5.62,10.53,0,.25.47.36,1.68.36h1.66L68,18l.57-1.38h3.78v2.76H76V17.09A43,43,0,0,0,74.9,8.4c-.17-.49-.44-.57-2.34-.6C70.43,7.74,70.38,7.77,69.74,8.57Zm2.49,3.78.19,1.87H71.15c-.69,0-1.24,0-1.24-.14A14.52,14.52,0,0,1,72,10.42S72.12,11.33,72.23,12.35Z"/><path class="cls-1" d="M79.7,8.16c-.31,1-2.35,10.5-2.35,10.88s.31.42,1.71.36l1.74-.08.36-1.74c.35-1.62.41-1.71,1.18-1.71s1.74,1,2,2.68l.17.94,1.71-.09,1.7-.08-.08-1a7.17,7.17,0,0,0-.63-2.13L86.7,15l1-.86a3.82,3.82,0,0,0,.75-5.29L87.61,8,83.72,7.9C80.41,7.77,79.81,7.8,79.7,8.16Zm5.65,2.78c.55,1-.14,2.12-1.44,2.48-1.62.41-1.87.25-1.57-1.18.42-1.85.44-1.88,1.6-1.88C84.8,10.36,85.13,10.5,85.35,10.94Z"/><path class="cls-1" d="M31.29,26.54l-1.24,5.74,3.39.08c4.27.08,5.38-.19,6.87-1.74a6.42,6.42,0,0,0,1.76-3.47c.66-2.51.61-3.81-.22-4.94S39.78,20.86,36,20.86l-3.48,0Zm6.59-3a1.43,1.43,0,0,1,.88.77A8.19,8.19,0,0,1,38,28.5a3.27,3.27,0,0,1-2.92,1.41l-.91-.09.66-2.89c.36-1.6.69-3.06.77-3.25.14-.39,1.24-.47,2.29-.17Z"/><path class="cls-1" d="M44.19,21c-.08.14-.66,2.56-1.27,5.46s-1.21,5.4-1.26,5.59.3.33,1.71.28l1.81-.08,1.35-5.75,1.3-5.7H46A4.84,4.84,0,0,0,44.19,21Z"/><path class="cls-1" d="M51,21.28c-2.59.93-4.11,3.61-4.11,7.33,0,1.54.11,1.93.67,2.54a4.9,4.9,0,0,0,1.65,1,15.93,15.93,0,0,0,6.23,0l1.1-.28L57.18,29c.33-1.54.6-3,.6-3.17s-.66-.33-2.2-.33H53.4l-.28,1c-.44,1.52-.38,1.74.42,1.74.6,0,.69.08.55.6a7.63,7.63,0,0,0-.17.83c0,.14-.6.22-1.32.22-2.15,0-2.62-.82-1.93-3.53s1.57-3.22,4.55-3a11.29,11.29,0,0,1,2.31.33c.36.17.53-.05.75-1,.19-.77.22-1.27,0-1.46C57.84,20.78,52.27,20.78,51,21.28Z"/><path class="cls-1" d="M58.64,26.29c-.67,3-1.27,5.6-1.33,5.76s.33.36,1.66.36h1.82l.27-.93c.14-.53.66-2.87,1.19-5.19s.93-3.94,1-3.61c.08.58.25.64,1.74.64a4.9,4.9,0,0,1,1.62.13c0,.09-.44,2.1-1,4.47s-1,4.36-1,4.41a8.75,8.75,0,0,0,1.77.08h1.76L68.75,30c.31-1.33.77-3.37,1-4.52l.47-2.15h1.51c1.46,0,1.46,0,1.74-1.05a9,9,0,0,0,.3-1.24,31.81,31.81,0,0,0-5.07-.19c-5,0-5.1,0-5.21.6l-.11.64-.06-.64c0-.55-.16-.6-1.73-.6H59.85Z"/><path class="cls-1" d="M73.85,22.82a83.16,83.16,0,0,0-4.63,8.57l-.41,1h3.55l.55-1.24.56-1.24h3.88v2.48H81L80.83,29a43.45,43.45,0,0,0-.67-5.7L79.7,21l-2.26-.08-2.29-.08Zm3.23,2.7v1.93H76c-.63,0-1.1-.14-1.1-.3a12.36,12.36,0,0,1,2-3.56A4.93,4.93,0,0,1,77.08,25.52Z"/><path class="cls-1" d="M82.78,25.3a50.17,50.17,0,0,0-1,5.13,2.19,2.19,0,0,0,.69,1.29c.61.64.86.69,3.56.69h2.89l.28-1a9.59,9.59,0,0,0,.3-1.26,4,4,0,0,0-1.79-.2c-1.43,0-1.85-.11-2-.44a18.59,18.59,0,0,1,.61-3.94c.41-1.9.83-3.75.91-4.11.11-.58,0-.6-1.65-.6H83.8Z"/></svg>