<svg id="Camada_1" data-name="Camada 1" xmlns="http://www.w3.org/2000/svg" viewBox="0 0 86 40"><defs><style>.cls-1{fill:#fff;}</style></defs><path class="cls-1" d="M10.17,7.1a13.34,13.34,0,0,0-6,3.48A13,13,0,0,0,.4,23.29,13.24,13.24,0,1,0,17.59,7.47,15,15,0,0,0,10.17,7.1Z"/><path class="cls-1" d="M35.83,8.52c-2.94.75-4.48,3-4.72,6.77C31,17.06,31,17.35,31.58,18c.8,1,2,1.46,3.9,1.46a6.86,6.86,0,0,0,4.72-1.44c1.57-1.49,2.55-6.16,1.67-7.82A3.56,3.56,0,0,0,40.62,9,9.31,9.31,0,0,0,35.83,8.52Zm2.84,2.93c.36.63-.19,3.78-.84,4.61a2.08,2.08,0,0,1-2.83.68c-.64-.42-.67-.52-.52-2s1-3.46,1.51-3.72,2.4,0,2.68.4Z"/><path class="cls-1" d="M44.44,8.54c0,.08-.53,2.14-1.07,4.59-1,4.32-1,4.51-.53,5.16.64,1,1.41,1.2,4.07,1.2h2.32l.26-1c.4-1.38.41-1.35-1-1.35-1.72,0-2.41-.25-2.41-.79,0-.27.35-2,.77-3.91s.78-3.58.78-3.78A7.32,7.32,0,0,0,44.44,8.54Z"/><path class="cls-1" d="M52.77,8.7c-.06.12-.57,2.42-1.14,5.07s-1.15,5-1.23,5.26c-.14.42,0,.46,1.55.46h1.69l.26-1a10.89,10.89,0,0,0,.28-1.23A7.33,7.33,0,0,1,54.47,16l.26-.92H56.4c1.88,0,1.85-.08,1.29,2.21s-.6,2.21,1.26,2.21h1.64l1.22-5.4c.68-3,1.19-5.41,1.17-5.41a11.07,11.07,0,0,0-1.62-.14L59.8,8.52l-.52,2-.5,2H57c-1.56,0-1.76-.06-1.63-.48A22.74,22.74,0,0,0,56,8.85c0-.3-.34-.39-1.59-.39C53.54,8.41,52.77,8.52,52.77,8.7Z"/><path class="cls-1" d="M67.32,9.19c-1.48,2-5.31,9.13-5.31,10,0,.24.45.34,1.59.34h1.56l.56-1.34.54-1.3h3.57v2.61h3.38V17.25a41.12,41.12,0,0,0-1-8.21c-.16-.47-.42-.54-2.21-.57C68,8.41,67.93,8.44,67.32,9.19Zm2.36,3.58.18,1.77H68.65c-.64,0-1.17,0-1.17-.14a13.78,13.78,0,0,1,2-3.46S69.57,11.8,69.68,12.77Z"/><path class="cls-1" d="M76.74,8.81c-.3,1-2.22,9.92-2.22,10.28s.29.4,1.61.35l1.65-.08.33-1.64c.34-1.54.39-1.63,1.13-1.63s1.64,1,1.88,2.54l.16.88,1.62-.07,1.6-.08-.07-1a7,7,0,0,0-.59-2l-.49-1.09,1-.81a3.61,3.61,0,0,0,.69-5l-.79-.8-3.67-.14C77.41,8.44,76.84,8.47,76.74,8.81Zm5.35,2.62c.52,1-.14,2-1.37,2.35-1.52.39-1.76.23-1.47-1.12.39-1.75.41-1.77,1.5-1.77C81.55,10.89,81.87,11,82.09,11.43Z"/><path class="cls-1" d="M31,26.18,29.81,31.6l3.2.08c4,.08,5.09-.17,6.5-1.64a6.07,6.07,0,0,0,1.66-3.28c.63-2.38.58-3.6-.2-4.68s-2-1.27-5.52-1.27h-3.3Zm6.23-2.83a1.4,1.4,0,0,1,.84.72,7.89,7.89,0,0,1-.74,4,3.09,3.09,0,0,1-2.75,1.33l-.86-.09.62-2.73c.33-1.51.65-2.93.72-3.07.14-.37,1.18-.45,2.17-.16Z"/><path class="cls-1" d="M43.18,21c-.08.14-.63,2.42-1.21,5.16s-1.14,5.11-1.19,5.29.27.3,1.62.3l1.71-.08,1.27-5.43,1.24-5.39H45A4.8,4.8,0,0,0,43.18,21Z"/><path class="cls-1" d="M49.62,21.21c-2.46.87-3.91,3.42-3.91,6.92,0,1.46.1,1.83.63,2.41a4.63,4.63,0,0,0,1.56,1,15.2,15.2,0,0,0,5.86,0l1-.27.6-2.68c.31-1.45.57-2.83.57-3s-.63-.31-2.08-.31H51.83l-.26,1c-.42,1.43-.36,1.64.39,1.64.57,0,.66.08.52.57a6.91,6.91,0,0,0-.16.79c0,.13-.56.2-1.25.2-2,0-2.47-.77-1.82-3.33s1.48-3.05,4.3-2.84a11.34,11.34,0,0,1,2.18.31c.35.17.5,0,.72-1,.17-.73.2-1.2,0-1.39C56.08,20.74,50.82,20.74,49.62,21.21Z"/><path class="cls-1" d="M56.83,25.94c-.63,2.84-1.19,5.3-1.25,5.45s.31.34,1.56.34h1.72l.26-.88c.13-.5.62-2.72,1.13-4.89s.87-3.72,1-3.41c.07.55.23.61,1.65.61a4.86,4.86,0,0,1,1.52.12c0,.08-.41,1.95-1,4.23s-1,4.11-1,4.16a7.77,7.77,0,0,0,1.67.08h1.66l.58-2.24c.29-1.26.73-3.18,1-4.27l.44-2H69.2c1.39,0,1.39,0,1.65-1a9.09,9.09,0,0,0,.29-1.17,32.11,32.11,0,0,0-4.8-.18c-4.72,0-4.82,0-4.89.57l-.1.61-.06-.61c0-.52-.14-.57-1.63-.57H58Z"/><path class="cls-1" d="M71.2,22.66a79.7,79.7,0,0,0-4.36,8.09l-.39,1h3.36l.52-1.17.53-1.18h3.67v2.35H78l-.19-3.17a40.92,40.92,0,0,0-.6-5.4L76.74,21l-2.14-.07-2.16-.08Zm3.07,2.56V27H73.21c-.59,0-1-.13-1-.28a11.78,11.78,0,0,1,1.89-3.37A4.54,4.54,0,0,1,74.27,25.22Z"/><path class="cls-1" d="M79.65,25a47.88,47.88,0,0,0-1,4.88,2,2,0,0,0,.66,1.22c.57.61.81.66,3.36.66h2.73l.27-1a9.6,9.6,0,0,0,.31-1.2,4,4,0,0,0-1.69-.19c-1.35,0-1.75-.1-1.9-.42A18.12,18.12,0,0,1,83,25.26c.39-1.79.79-3.54.86-3.91.11-.55,0-.57-1.55-.57H80.62Z"/></svg>