<svg id="Camada_1" data-name="Camada 1" xmlns="http://www.w3.org/2000/svg" viewBox="0 0 90.95 40"><defs><style>.cls-1{fill:#fff;}</style></defs><path class="cls-1" d="M10.74,6.32A14,14,0,0,0,4.4,10a13.68,13.68,0,0,0-4,13.43A14,14,0,1,0,18.59,6.71,15.94,15.94,0,0,0,10.74,6.32Z"/><path class="cls-1" d="M37.89,7.81c-3.09.8-4.74,3.17-5,7.17-.14,1.87-.08,2.18.5,2.89.85,1.08,2.12,1.55,4.19,1.55a7.26,7.26,0,0,0,4.93-1.57c1.66-1.57,2.7-6.51,1.77-8.3a3.74,3.74,0,0,0-1.33-1.32A9.87,9.87,0,0,0,37.89,7.81Zm3,3.12c.39.66-.19,4-.88,4.88a2.22,2.22,0,0,1-3,.71c-.68-.44-.71-.55-.55-2.09s1-3.67,1.6-3.94S40.59,10.46,40.89,10.93Z"/><path class="cls-1" d="M47,7.84c0,.08-.56,2.26-1.13,4.85-1,4.58-1,4.77-.56,5.46.67,1,1.49,1.27,4.3,1.27h2.46l.27-1.05c.42-1.46.44-1.43-1-1.43-1.82,0-2.56-.25-2.56-.83,0-.28.38-2.12.82-4.13s.83-3.78.83-4S47.15,7.54,47,7.84Z"/><path class="cls-1" d="M55.78,8c-.06.14-.61,2.56-1.21,5.37s-1.19,5.32-1.27,5.57c-.14.44.05.5,1.65.5h1.79L57,18.37a8.77,8.77,0,0,0,.3-1.3,8.29,8.29,0,0,1,.31-1.32l.27-1h1.77c2,0,1.95-.08,1.37,2.34s-.63,2.35,1.33,2.35h1.76l1.27-5.71C66.09,10.57,66.64,8,66.61,8a11.67,11.67,0,0,0-1.71-.14l-1.65-.08L62.7,9.85,62.17,12h-1.9c-1.65,0-1.87-.06-1.73-.5a23.27,23.27,0,0,0,.71-3.36c0-.33-.36-.42-1.68-.42C56.63,7.7,55.83,7.81,55.78,8Z"/><path class="cls-1" d="M71.21,8.53c-1.57,2.09-5.62,9.65-5.62,10.53,0,.25.47.36,1.68.36h1.66L69.51,18l.57-1.38h3.78v2.76h3.58V17.05a43.6,43.6,0,0,0-1.07-8.69c-.17-.49-.44-.57-2.34-.6C71.9,7.7,71.85,7.73,71.21,8.53Zm2.49,3.78.19,1.87H72.62c-.69,0-1.24,0-1.24-.14a14.46,14.46,0,0,1,2.07-3.66S73.59,11.29,73.7,12.31Z"/><path class="cls-1" d="M81.17,8.12c-.31,1-2.35,10.5-2.35,10.88s.31.42,1.71.36l1.74-.08.36-1.74c.35-1.62.41-1.71,1.18-1.71s1.74,1,2,2.68l.17.94,1.71-.09,1.7-.08-.08-1a7.24,7.24,0,0,0-.63-2.13L88.17,15l1-.86c1.68-1.49,2-3.86.75-5.29L89.08,8l-3.89-.14C81.88,7.73,81.28,7.76,81.17,8.12Zm5.65,2.78c.55,1-.14,2.12-1.44,2.48-1.62.41-1.87.25-1.57-1.18.42-1.85.44-1.88,1.6-1.88C86.27,10.32,86.6,10.46,86.82,10.9Z"/><path class="cls-1" d="M32.76,26.5l-1.24,5.74,3.39.08c4.27.08,5.38-.19,6.87-1.74a6.43,6.43,0,0,0,1.76-3.47c.66-2.51.61-3.81-.22-4.94s-2.07-1.35-5.84-1.35L34,20.8Zm6.59-3a1.43,1.43,0,0,1,.88.77,8.22,8.22,0,0,1-.77,4.19,3.27,3.27,0,0,1-2.92,1.41l-.91-.09.66-2.89c.36-1.6.69-3.06.77-3.25C37.2,23.25,38.3,23.17,39.35,23.47Z"/><path class="cls-1" d="M45.66,21c-.08.14-.66,2.56-1.27,5.46s-1.21,5.4-1.26,5.59.3.33,1.71.28l1.81-.08L48,26.5l1.3-5.7H47.51A5,5,0,0,0,45.66,21Z"/><path class="cls-1" d="M52.47,21.24c-2.59.93-4.11,3.61-4.11,7.33,0,1.54.11,1.93.67,2.54a4.79,4.79,0,0,0,1.65,1,15.74,15.74,0,0,0,6.23,0l1.1-.28L58.65,29c.33-1.54.6-3,.6-3.17s-.66-.33-2.2-.33H54.87l-.28,1c-.44,1.52-.38,1.74.42,1.74.6,0,.69.08.55.6a8,8,0,0,0-.17.83c0,.14-.6.22-1.32.22-2.15,0-2.62-.82-1.93-3.53s1.57-3.22,4.55-3a11.79,11.79,0,0,1,2.31.33c.36.17.53-.05.75-1,.19-.77.22-1.27,0-1.46C59.31,20.74,53.74,20.74,52.47,21.24Z"/><path class="cls-1" d="M60.11,26.25c-.67,3-1.27,5.6-1.33,5.76s.33.36,1.66.36h1.82l.27-.93c.14-.53.66-2.87,1.19-5.19s.93-3.94,1-3.61c.08.58.25.64,1.74.64a5,5,0,0,1,1.62.13c0,.09-.44,2.1-1,4.47s-1,4.36-1,4.41a8.43,8.43,0,0,0,1.77.08h1.76L70.22,30c.31-1.33.77-3.37,1-4.52l.47-2.15H73.2c1.46,0,1.46,0,1.74-1.05a8.59,8.59,0,0,0,.3-1.24,33.4,33.4,0,0,0-5.07-.19c-5,0-5.1,0-5.21.6l-.11.64-.06-.64c0-.55-.16-.6-1.73-.6H61.32Z"/><path class="cls-1" d="M75.32,22.78a83,83,0,0,0-4.63,8.57l-.41,1h3.55l.55-1.24.56-1.24h3.88v2.48h3.67L82.3,29a43.26,43.26,0,0,0-.67-5.7l-.46-2.35-2.26-.08-2.29-.08Zm3.23,2.7v1.93H77.44c-.63,0-1.1-.14-1.1-.3a12.4,12.4,0,0,1,2-3.56C78.44,23.55,78.55,24.41,78.55,25.48Z"/><path class="cls-1" d="M84.25,25.26c-.58,2.48-1,4.77-1,5.13a2.15,2.15,0,0,0,.69,1.29c.61.64.86.69,3.56.69h2.89l.28-1a10.06,10.06,0,0,0,.3-1.26,4.18,4.18,0,0,0-1.79-.2c-1.43,0-1.85-.11-2-.44a18.48,18.48,0,0,1,.61-3.94c.41-1.9.83-3.75.91-4.11.11-.58,0-.6-1.65-.6H85.27Z"/></svg>