<svg id="Camada_1" data-name="Camada 1" xmlns="http://www.w3.org/2000/svg" viewBox="0 0 90 40"><defs><style>.cls-1{fill:#fff;}</style></defs><path class="cls-1" d="M27.28,14.19c3.5,0,5.91,2.06,5.91,5.81v7.86a.42.42,0,0,1-.45.48H29.69a.45.45,0,0,1-.48-.36v-8.1a1.79,1.79,0,0,0-1.47-2.07,1.82,1.82,0,0,0-.57,0,3.72,3.72,0,0,0-1.73.43A5,5,0,0,1,25.68,20V27.9a.41.41,0,0,1-.45.47H22.14a.43.43,0,0,1-.48-.36V19.92c0-1.39-.64-2.1-1.93-2.1a5.57,5.57,0,0,0-1.57.23V28a.45.45,0,0,1-.38.48H14.61a.44.44,0,0,1-.48-.36.24.24,0,0,1,0-.12V15.81a.59.59,0,0,1,.37-.58,14.2,14.2,0,0,1,5.18-1,6.16,6.16,0,0,1,3.6,1.12A7.94,7.94,0,0,1,27.28,14.19Zm26,14.51c-3.13,0-4.91-1.91-4.91-5.15V11.76a.44.44,0,0,1,.37-.48H52c.29,0,.45.16.45.49V23.05C52.43,24.37,53,25,54,25h.81a.4.4,0,0,1,.49.3v0a.29.29,0,0,1,0,.13v2.65c0,.25-.11.45-.29.48a9.23,9.23,0,0,1-1.74.16Zm22.27-3.6a5.07,5.07,0,0,0,.9-.06c.34-.05.5.09.5.4V28a.45.45,0,0,1-.37.52,10.36,10.36,0,0,1-1.67.14c-3.08,0-5.14-1.68-5.14-5.07V11.74a.41.41,0,0,1,.38-.46h3.2a.42.42,0,0,1,.47.36v2.55h2.7a.42.42,0,0,1,.48.36h0v2.63a.43.43,0,0,1-.4.46H73.77v5.49c0,1.29.61,2,1.8,2ZM62.22,14.19c-2.36,0-6.17.72-6.17,7.25s3.59,7.26,6.17,7.26a8.59,8.59,0,0,0,5.56-1.76.45.45,0,0,0,.11-.62v0l-1.38-1.8a.37.37,0,0,0-.49-.19h0a.23.23,0,0,0-.1.07,6.51,6.51,0,0,1-3.38.95c-1.4,0-2.27-.68-2.27-2v-.42h7.5a.42.42,0,0,0,.47-.37.28.28,0,0,0,0-.09V20.89c0-6-3.6-6.71-6-6.71Zm2.08,6H60.21v-.54a2,2,0,1,1,4.09,0Zm-23.48-6c-2.37,0-6.18.72-6.18,7.25s3.6,7.26,6.18,7.26a8.59,8.59,0,0,0,5.56-1.76.47.47,0,0,0,.11-.62v0l-1.42-1.79a.37.37,0,0,0-.49-.19h0a.35.35,0,0,0-.12.07,6.45,6.45,0,0,1-3.37.95c-1.4,0-2.28-.68-2.28-2v-.42h7.51a.43.43,0,0,0,.48-.37V20.89C46.78,14.91,43.18,14.19,40.82,14.19Zm2.07,6H38.82v-.54a2,2,0,1,1,4.08,0Zm41.08-6c-2.36,0-6.17.72-6.17,7.25S81.4,28.7,84,28.7a8.69,8.69,0,0,0,5.56-1.76.46.46,0,0,0,.12-.62v0l-1.38-1.8a.37.37,0,0,0-.5-.18h0a.26.26,0,0,0-.11.07,6.45,6.45,0,0,1-3.37.95c-1.41,0-2.28-.68-2.28-2v-.42h7.51A.43.43,0,0,0,90,22.5V20.89C90,14.91,86.36,14.19,84,14.19Zm2.1,6H82v-.54a2,2,0,1,1,4.09,0Zm-79.71-6c-2,0-6.36,1.08-6.36,7.25,0,6.35,3.81,7.26,6.36,7.26s6.3-.9,6.3-7.26C12.69,15.27,8.34,14.19,6.36,14.19Zm0,10.88C4.92,25.07,4,23.63,4,21.81c0-2,1.09-4,2.36-4s2.36,2,2.36,4c0,1.8-.9,3.26-2.37,3.26Z"/></svg>