<svg id="Camada_1" data-name="Camada 1" xmlns="http://www.w3.org/2000/svg" viewBox="0 0 100 40"><defs><style>.cls-1{fill:#fff;}</style></defs><path class="cls-1" d="M30.32,13.55c3.89,0,6.57,2.3,6.57,6.46v8.74c0,.35-.17.53-.5.53H33a.49.49,0,0,1-.53-.4v-9a2,2,0,0,0-2.27-2.31,4.14,4.14,0,0,0-1.92.48A5.43,5.43,0,0,1,28.54,20v8.79c0,.35-.17.53-.5.53H24.61a.49.49,0,0,1-.53-.4v-9c0-1.54-.71-2.33-2.15-2.33a6,6,0,0,0-1.74.26v11a.5.5,0,0,1-.43.53H16.24a.48.48,0,0,1-.53-.4.28.28,0,0,1,0-.13V15.35a.66.66,0,0,1,.41-.64,15.77,15.77,0,0,1,5.76-1.15,6.77,6.77,0,0,1,4,1.24A8.87,8.87,0,0,1,30.32,13.55ZM59.23,29.68c-3.48,0-5.46-2.12-5.46-5.72V10.85a.48.48,0,0,1,.41-.53h3.6c.32,0,.5.18.5.54V23.4c0,1.47.59,2.15,1.74,2.15.29,0,.62,0,.91,0a.45.45,0,0,1,.55.35.38.38,0,0,1,0,.15V29c0,.27-.12.5-.32.53a10.53,10.53,0,0,1-1.94.18Zm24.75-4c.27,0,.62,0,1-.06s.56.09.56.44v2.88a.51.51,0,0,1-.41.58,11.66,11.66,0,0,1-1.86.15c-3.42,0-5.72-1.86-5.72-5.63V10.83a.47.47,0,0,1,.53-.51h3.45a.48.48,0,0,1,.53.4v2.83h3a.47.47,0,0,1,.53.41v2.92a.48.48,0,0,1-.44.51H82v6.1C82,24.93,82.68,25.67,84,25.67ZM69.16,13.55c-2.62,0-6.86.81-6.86,8.06s4,8.07,6.86,8.07a9.57,9.57,0,0,0,6.18-1.95.51.51,0,0,0,.13-.69l0-.05-1.54-2a.41.41,0,0,0-.55-.2.36.36,0,0,0-.12.08,7.21,7.21,0,0,1-3.75,1.06c-1.56,0-2.53-.76-2.53-2.26v-.47h8.34a.47.47,0,0,0,.53-.51V21c0-6.65-4-7.46-6.65-7.46Zm2.31,6.68H66.93v-.6a2.27,2.27,0,1,1,4.54,0Zm-26.1-6.68c-2.63,0-6.86.81-6.86,8.06s4,8.07,6.86,8.07a9.57,9.57,0,0,0,6.18-1.95.51.51,0,0,0,.13-.69.1.1,0,0,1,0-.05L50.1,25a.41.41,0,0,0-.55-.2.57.57,0,0,0-.13.08,7.15,7.15,0,0,1-3.74,1.06c-1.56,0-2.54-.76-2.54-2.26v-.47h8.35a.47.47,0,0,0,.53-.51V21C52,14.36,48,13.55,45.37,13.55Zm2.31,6.68H43.15v-.6a2.27,2.27,0,1,1,4.54,0Zm45.66-6.68c-2.62,0-6.86.81-6.86,8.06s4,8.07,6.86,8.07a9.59,9.59,0,0,0,6.18-1.95.5.5,0,0,0,.13-.69l0-.05-1.53-2a.42.42,0,0,0-.56-.2.36.36,0,0,0-.12.08,7.17,7.17,0,0,1-3.74,1.06c-1.57,0-2.54-.76-2.54-2.26v-.47h8.35a.47.47,0,0,0,.53-.51V21C100,14.36,96,13.55,93.34,13.55Zm2.33,6.68H91.13v-.6a2.27,2.27,0,1,1,4.54,0ZM7.07,13.55C4.84,13.55,0,14.76,0,21.61c0,7.06,4.24,8.07,7.07,8.07s7-1,7-8.07C14.11,14.76,9.27,13.55,7.07,13.55Zm0,12.1c-1.6,0-2.62-1.6-2.62-3.63,0-2.22,1.21-4.44,2.62-4.44S9.69,19.8,9.69,22c0,2-1,3.63-2.63,3.63Z"/></svg>