<svg id="Layer_1" data-name="Layer 1" xmlns="http://www.w3.org/2000/svg" viewBox="0 0 100 40"><defs><style>.cls-1{fill:#fff;}</style></defs><path class="cls-1" d="M94.63,6H89.3a.66.66,0,0,0-.6.46v13s0,.34.3.38h3a.47.47,0,0,0,.47-.42v-4h1.91c3.33,0,5.63-1.23,5.63-4.78C100,7.21,97.87,6,94.63,6Zm-.13,6.13H92.58V9.17h2c1.11,0,1.62.46,1.62,1.44S95.61,12.11,94.5,12.11Z"/><path class="cls-1" d="M87.93,12.92A7.16,7.16,0,0,1,86.27,18a6.52,6.52,0,0,1-9,.08A7.16,7.16,0,0,1,75.56,13a7.34,7.34,0,0,1,1.66-5.15,6.49,6.49,0,0,1,8.94-.08A7.07,7.07,0,0,1,87.93,12.92Zm-3.83,0a5,5,0,0,0-.64-2.76,1.93,1.93,0,0,0-1.76-.94c-1.58,0-2.34,1.24-2.3,3.66A5.09,5.09,0,0,0,80,15.66a2,2,0,0,0,1.77,1c1.53.05,2.3-1.22,2.3-3.65Z"/><path class="cls-1" d="M51.44,17.06a.6.6,0,0,0-.51-.38H45.38v-2H49a.65.65,0,0,0,.42-.47V12a.62.62,0,0,0-.51-.46H45.39V9.33h5.47a.61.61,0,0,0,.42-.55V6.56a.82.82,0,0,0-.42-.44H42a.6.6,0,0,0-.44.39v13a.6.6,0,0,0,.35.35H51a.62.62,0,0,0,.42-.52Z"/><path class="cls-1" d="M62.44,16.93a.59.59,0,0,0-.46-.39H56.34v-10A.85.85,0,0,0,56,6.16h-3.2a.92.92,0,0,0-.34.34v13a.78.78,0,0,0,.38.38h9.25a.51.51,0,0,0,.34-.38v-2.6Z"/><path class="cls-1" d="M35.3,6.14H29.8a.62.62,0,0,0-.43.43V19.66a.92.92,0,0,0,.34.34h3a.64.64,0,0,0,.39-.47V15.48H35c3.33,0,5.63-1.24,5.63-4.78C40.67,7.39,38.49,6.14,35.3,6.14Zm-.13,6.19H33.24v-3h2c1.12,0,1.64.47,1.64,1.46S36.28,12.33,35.17,12.33Z"/><path class="cls-1" d="M12.5,6.14H7a.63.63,0,0,0-.44.43v.1l.11,13A.83.83,0,0,0,7,20H9.93a.59.59,0,0,0,.38-.47V15.48h1.91c3.34,0,5.62-1.24,5.62-4.78C17.86,7.39,15.69,6.14,12.5,6.14Zm-.12,6.19H10.47v-3h2c1.11,0,1.61.47,1.61,1.46s-.61,1.53-1.71,1.53Z"/><path class="cls-1" d="M69.6,6.06H64.23a.5.5,0,0,0-.54.47V19.4a.74.74,0,0,0,.38.48h3a.78.78,0,0,0,.39-.48v-4H69.4c3.33,0,5.62-1.24,5.62-4.78C75,7.3,72.84,6.06,69.6,6.06Zm-.12,6.16h-2v-3h2c1.11,0,1.67.48,1.67,1.46S70.59,12.22,69.48,12.22Z"/><path class="cls-1" d="M12.67,22.6s-.18-.47-.57-.47h.57Z"/><path class="cls-1" d="M24.12,6.83c0-.09-.12-.13-.3-.16H20.49a.35.35,0,0,0-.26.16l-4.55,12.7h0a.45.45,0,0,0,.24.51h3.34a.44.44,0,0,0,.34-.25l.63-2.09h4l.64,2.09a.35.35,0,0,0,.34.21h3.34c.25,0,.25-.26.25-.38Zm-3,7.88.26-.89a28.93,28.93,0,0,0,.83-3.33c.13.63.39,1.74.83,3.33l.27.84Z"/><path class="cls-1" d="M27.58,23.19a.71.71,0,0,0-.38-.38H17l-4.37,4.61V22.13H2.72V7.9a.6.6,0,0,0-.38-.47H.39A.59.59,0,0,0,0,7.78V24.44a.8.8,0,0,0,.38.39l9.62,0V34l8.18-8.46h9a.77.77,0,0,0,.39-.44Z"/></svg>