<svg id="Layer_1" data-name="Layer 1" xmlns="http://www.w3.org/2000/svg" viewBox="0 0 120 40"><defs><style>.cls-1{fill:#fff;}</style></defs><path class="cls-1" d="M113.51,5.18h-6.39a.77.77,0,0,0-.72.56l0,15.54s0,.41.36.46h3.58a.56.56,0,0,0,.56-.51V16.38h2.3c4,0,6.75-1.49,6.75-5.73C120,6.66,117.39,5.18,113.51,5.18Zm-.16,7.36h-2.3V9h2.41c1.27,0,1.94.56,1.94,1.74S114.68,12.54,113.35,12.54Z"/><path class="cls-1" d="M105.48,13.51a8.65,8.65,0,0,1-2,6.14,7.83,7.83,0,0,1-10.78.1,8.66,8.66,0,0,1-2.1-6.13,8.86,8.86,0,0,1,2-6.19,7.78,7.78,0,0,1,10.74-.1A8.44,8.44,0,0,1,105.48,13.51Zm-4.6.05a6,6,0,0,0-.77-3.32A2.33,2.33,0,0,0,98,9.12c-1.89,0-2.81,1.48-2.76,4.39A6.07,6.07,0,0,0,96,16.84,2.35,2.35,0,0,0,98.12,18C100,18,100.88,16.48,100.88,13.56Z"/><path class="cls-1" d="M61.71,18.47c-.1-.15-.25-.46-.61-.46H54.5V15.66h4.3a.83.83,0,0,0,.51-.56V12.44c-.05-.1-.21-.51-.61-.56H54.45V9.22H61a.75.75,0,0,0,.51-.67V5.84A1,1,0,0,0,61,5.33l-10.64,0a.69.69,0,0,0-.51.46l0,15.65a.67.67,0,0,0,.41.41l10.89,0c.1-.05.51-.26.51-.62Z"/><path class="cls-1" d="M74.9,18.32a.67.67,0,0,0-.56-.46H67.59l0-12.07a1,1,0,0,0-.46-.46H63.3a1.06,1.06,0,0,0-.41.41l0,15.7a1,1,0,0,0,.46.46l11.09,0a.62.62,0,0,0,.41-.46V18.32Z"/><path class="cls-1" d="M42.34,5.38h-6.6a.72.72,0,0,0-.51.51V6l.05,15.59a1.06,1.06,0,0,0,.41.41h3.58a.77.77,0,0,0,.46-.56V16.58H42c4,0,6.75-1.48,6.75-5.73C48.78,6.87,46.17,5.38,42.34,5.38Zm-.16,7.42h-2.3V9.22h2.4c1.28,0,1.95.56,1.95,1.74S43.51,12.8,42.18,12.8Z"/><path class="cls-1" d="M15,5.38H8.39a.76.76,0,0,0-.52.51V6l.06,15.59a1,1,0,0,0,.4.41h3.58a.75.75,0,0,0,.46-.56V16.58h2.3c4,0,6.75-1.48,6.75-5.73C21.42,6.87,18.82,5.38,15,5.38Zm-.15,7.42h-2.3V9.22h2.4c1.28,0,1.94.56,1.94,1.74S16.16,12.8,14.83,12.8Z"/><path class="cls-1" d="M83.49,5.28H77.05a.63.63,0,0,0-.66.56l0,15.44a.88.88,0,0,0,.46.57h3.63a.91.91,0,0,0,.46-.57v-4.8h2.3c4,0,6.75-1.49,6.75-5.73C89.94,6.76,87.38,5.28,83.49,5.28Zm-.15,7.36H81V9.06h2.4c1.28,0,2,.57,2,1.74S84.67,12.64,83.34,12.64Z"/><path class="cls-1" d="M15.19,25.12s-.21-.56-.67-.56h.67Z"/><path class="cls-1" d="M28.94,6.2c-.05-.1-.15-.15-.36-.2H24.64a.46.46,0,0,0-.3.2L18.87,21.44v-.05a.52.52,0,0,0,.3.61h3.94a.52.52,0,0,0,.41-.31l.77-2.5h4.8l.77,2.5a.41.41,0,0,0,.41.26h4c.3-.05.3-.31.3-.46Zm-3.63,9.46.31-1.07c.56-1.9.87-3.23,1-4,.15.76.46,2.09,1,4l.31,1Z"/><path class="cls-1" d="M33.08,25.83a.82.82,0,0,0-.46-.46l-12.17.06L15.19,30.9V24.56H3.27l0-17.08c-.05-.1-.15-.46-.46-.56H.46A.76.76,0,0,0,0,7.38L.05,27.32a1,1,0,0,0,.46.46L12,27.73V38.82l9.81-10.17,10.79,0a.81.81,0,0,0,.46-.52Z"/></svg>