<svg xmlns="http://www.w3.org/2000/svg" viewBox="0 0 93.54 40"><defs><style>.a{fill:#fff;}</style></defs><title>pcgamer</title><path class="a" d="M70.71,27.05h-3.6v-8.7h0c0,.28-.08.55-.15.82-.26,1.08-.51,2.17-.79,3.24-.39,1.49-.82,3-1.22,4.46a.21.21,0,0,1-.25.19h-3c-.11,0-.17,0-.2-.14-.56-2.12-1.15-4.23-1.69-6.35-.2-.77-.31-1.55-.46-2.33a.07.07,0,0,0,0-.06V27H55.94V12.92h4.83c.12,0,.17,0,.21.15q1.18,4.64,2.36,9.28l.05.17.18-.78q1-4.32,2-8.64c0-.13.07-.19.22-.19h4.76c.14,0,.19,0,.19.18q0,6.9,0,13.79C70.71,26.94,70.71,27,70.71,27.05Z"/><path class="a" d="M82.34,12.91h.18c1.81,0,3.62,0,5.43,0a8.35,8.35,0,0,1,3.14.53,3.67,3.67,0,0,1,2.37,3A5.83,5.83,0,0,1,93.35,19a4,4,0,0,1-2.52,2.71l-.2.08v0l2.88,5.24H89.63a.23.23,0,0,1-.23-.14L86.87,22.3a.23.23,0,0,0-.25-.15c-.19,0-.39,0-.6,0V27H82.34ZM86,19.23c.64,0,1.27,0,1.9,0a4.06,4.06,0,0,0,.81-.11,1.26,1.26,0,0,0,1-1,2.29,2.29,0,0,0,0-1,1.14,1.14,0,0,0-.76-.92,2.92,2.92,0,0,0-.81-.18c-.71,0-1.42,0-2.12,0L86,16Z"/><path class="a" d="M38.36,22.58h-2v-2.8H42V27H39v-1.8a7.33,7.33,0,0,1-.44.67,3.76,3.76,0,0,1-2.68,1.39,6.6,6.6,0,0,1-3.12-.48,5.2,5.2,0,0,1-2.81-2.9,9.27,9.27,0,0,1-.67-3,11.8,11.8,0,0,1,.06-2.47,6.9,6.9,0,0,1,1.89-4.11,5.66,5.66,0,0,1,2.89-1.52,8.24,8.24,0,0,1,3.6,0,4.77,4.77,0,0,1,3.36,2.79c.22.48.37,1,.56,1.49,0,.1,0,.14-.09.16l-3.24.91-.08,0c-.1-.26-.18-.51-.29-.76a2.9,2.9,0,0,0-1-1.3,2.39,2.39,0,0,0-3.16.57,3.92,3.92,0,0,0-.69,1.85A8.67,8.67,0,0,0,33.27,22a3.15,3.15,0,0,0,1.1,1.8,2.61,2.61,0,0,0,3.94-1.07Z"/><path class="a" d="M81.67,12.93V16.1h-6.5v2.28h4.21c.15,0,.19,0,.18.19q0,1.32,0,2.63c0,.15,0,.18-.19.18H75.17V24h6.46V27H71.4V12.93Z"/><path class="a" d="M55.64,27.06H52a.16.16,0,0,1-.19-.14c-.25-.79-.51-1.58-.76-2.37a.16.16,0,0,0-.19-.13H46.76a.17.17,0,0,0-.19.14c-.26.79-.54,1.58-.81,2.37,0,.08,0,.14-.16.14H42.28l.16-.49,4.69-13.5a.16.16,0,0,1,.19-.14H50.6a.17.17,0,0,1,.19.13l3,8.7,1.78,5.14Zm-6.78-9.24h0l-1.32,3.87h2.62Z"/><path class="a" d="M27.36,11V29H1a1,1,0,0,1-1-1c0-.06,0-.12,0-.17Q0,20,0,12.11A1,1,0,0,1,1.1,11H27.36ZM5.65,27.05v-4.5H7.46a9,9,0,0,0,2.82-.44,3.89,3.89,0,0,0,2.66-2.75,6.56,6.56,0,0,0,.11-2.81,3.81,3.81,0,0,0-2.59-3.18,9.12,9.12,0,0,0-3.1-.46c-1.76,0-3.51,0-5.27,0H1.91V27.05Zm16.78-5.49c0,.07,0,.13-.06.19-.15.42-.27.84-.45,1.25a1.87,1.87,0,0,1-1,1,2.4,2.4,0,0,1-2.57-.31,3,3,0,0,1-1-1.59,7.92,7.92,0,0,1-.27-2.59,6.54,6.54,0,0,1,.33-1.91,2.4,2.4,0,0,1,2.33-1.81,1.9,1.9,0,0,1,1.83,1,8.31,8.31,0,0,1,.44,1c.06.15.1.32.16.49l3.59-1.08c-.14-.42-.25-.83-.41-1.22a4.79,4.79,0,0,0-3.31-3A8.28,8.28,0,0,0,19,12.7a6.17,6.17,0,0,0-3,1.08,6,6,0,0,0-2.28,3.37,10.64,10.64,0,0,0-.35,3.34,9.42,9.42,0,0,0,.52,2.9,5.56,5.56,0,0,0,3.3,3.47,7.31,7.31,0,0,0,2.64.47A7.76,7.76,0,0,0,22.2,27a5.07,5.07,0,0,0,3.19-2.86,8.75,8.75,0,0,0,.6-1.79Z"/><path class="a" d="M5.65,19.64V16.06l0,0c.76,0,1.52,0,2.28.06a1.53,1.53,0,0,1,1.5,1.76,2.84,2.84,0,0,1,0,.49,1.46,1.46,0,0,1-1.36,1.22,12.17,12.17,0,0,1-1.28.07C6.41,19.65,6,19.64,5.65,19.64Z"/></svg>