<svg id="Camada_1" data-name="Camada 1" xmlns="http://www.w3.org/2000/svg" viewBox="0 0 100 40"><defs><style>.cls-1{fill:#fff;}</style></defs><path class="cls-1" d="M0,27c1.3,0,1.82-.61,1.82-2V15c0-1.39-.43-2-1.82-2V11.58H7.47c4.08,0,6.77,1.82,6.77,5,0,3-2.43,5-6.86,5H6.16V25c0,1.56.78,2,2.95,2v1.39H0ZM6.16,12.88v7.55h.7c2.08,0,3.21-1.56,3.21-3.82s-1.13-3.73-3.3-3.73Z"/><path class="cls-1" d="M14.41,27c1.22,0,1.65-.52,1.65-1.82V20.52a1,1,0,0,0-1.22-1h-.43V18L19,16.61h1.13v8.51c0,1.3.43,1.82,1.65,1.82v1.39H14.32V27Zm3.73-15.28A2.26,2.26,0,1,1,15.89,14a2.24,2.24,0,0,1,2.25-2.26"/><path class="cls-1" d="M22.92,18.87H21.35v-.95a7.12,7.12,0,0,0,4.78-4.17H27V17.4h2.86v1.47H27v5.64c0,1.39.78,1.83,1.56,1.83A2.66,2.66,0,0,0,30,25.9l.44.78a4.88,4.88,0,0,1-4,2c-2.43,0-3.56-1.48-3.56-3.91Z"/><path class="cls-1" d="M36.37,16.61a9,9,0,0,1,4.26,1.13l-1.48,4h-1c-.26-2.43-1.38-3.39-2.6-3.39-1.48,0-2.34,1.3-2.34,3A3.65,3.65,0,0,0,37,25.3a2.72,2.72,0,0,0,2.78-1.74l.87.35c-.53,2.69-1.74,4.77-5,4.77-3,0-5.21-2.17-5.21-5.55.09-4,2.43-6.52,6-6.52"/><path class="cls-1" d="M40.28,27c1.21,0,1.65-.52,1.65-1.82V15.14c0-.7-.52-1-1.22-1h-.52V12.53l5-1.21H46v7.73a3.44,3.44,0,0,1,3.47-2.44,3.37,3.37,0,0,1,3.65,3.74v4.77c0,1.3.43,1.82,1.64,1.82v1.39H47.92V26.94c1,0,1-.6,1-1.73V20.43c0-1-.52-1.56-1.48-1.56a1.57,1.57,0,0,0-1.56,1.3v5c0,1.13.09,1.73,1,1.73v1.39H40.1V27Z"/><path class="cls-1" d="M55.47,27c1.21,0,1.65-.52,1.65-1.82V18.87H55.47v-.95c1.3,0,1.73-.35,1.73-1.31,0-2.25,2-5.29,6.08-5.29a10.39,10.39,0,0,1,3.91.95l-1.74,4.34-.87-.17c.09-2.34-.69-3.82-2.08-3.82-1.13,0-1.74,1-1.74,2.17a10,10,0,0,0,.44,2.61h2.43v1.47H61.28v6.25c0,1.3.44,1.82,1.65,1.82v1.39H55.47Z"/><path class="cls-1" d="M63.54,22.6a6,6,0,1,1,12,0,6,6,0,1,1-12,0m4.6,0c0,3.82.35,4.95,1.39,4.95s1.39-1.13,1.39-4.95-.35-4.94-1.39-4.94-1.39,1.21-1.39,4.94"/><path class="cls-1" d="M75.78,27c1.22,0,1.65-.52,1.65-1.82V20.69a1.11,1.11,0,0,0-1.21-1.12h-.53V18.09L80,16.79h1.22v1.82c0,1-.09,2.34-.09,2.87h.09C81.6,18,83.16,16.53,85,16.53a1.85,1.85,0,0,1,.7.08v4c-1.48-.26-4.08-.18-4.08,2.52v2c0,1.3.43,1.82,1.65,1.82v1.39H75.78Z"/><path class="cls-1" d="M85.33,27c1.22,0,1.65-.52,1.65-1.82V15.14c0-.7-.52-1-1.22-1h-.52V12.53l5-1.21h.87V21.91h.17l2-1c1-.43,1.12-.86,1.12-1.47,0-.78-.6-1.22-1.56-1.22V16.88H99v1.21A10.45,10.45,0,0,1,95.05,21l2.69,3.65c.87,1.13,1.39,2.34,2.26,2.34v1.39H94.88L91.32,22.6h-.17v2.87c0,1,.08,1.39,1,1.39v1.39H85.33Z"/></svg>