<svg id="Camada_1" data-name="Camada 1" xmlns="http://www.w3.org/2000/svg" viewBox="0 0 100 40"><defs><style>.cls-1{fill:#fff;}</style></defs><path class="cls-1" d="M13.1,18.18v-6c0-3.9,2.9-5.83,6.4-5.83S26,8,26,12.14v5.94c0,4.09-3,5.83-6.44,5.83s-6.42-1.57-6.42-5.73m8.89,0V12A2.3,2.3,0,0,0,19.5,9.59a2.24,2.24,0,0,0-2.43,2.53v6a2.27,2.27,0,0,0,2.48,2.52A2.3,2.3,0,0,0,22,18.18M27.42,6.66h6.44c3.33,0,6,1.57,6,5.09v6.46c0,3.77-2.64,5.4-5.94,5.4H27.42Zm6.06,13.8a2.24,2.24,0,0,0,2.38-2.36v-6a2.2,2.2,0,0,0-2.42-2.33H31.37V20.45Zm29.43-3.79c2-.76,3-2.55,3-4.83,0-3.07-1.86-5.18-5.62-5.18H53.56v17h3.95V9.73h2.26A2.08,2.08,0,0,1,62,12.1c0,1.6-.79,2.4-2.28,2.4H58.07l4,9.11h4.28Zm-21.65-10h11V9.84h-7v3.57h5.56v3.18H45.21V20.4h7v3.21h-11ZM6.7,6.66H0v17H4V9.73H6a2.13,2.13,0,0,1,2.14,2.42c0,1.57-.84,2.57-2.3,2.57H4.6l1.29,3h.68C10.35,17.69,12,15.12,12,12c0-3-1.69-5.32-5.28-5.32"/><path class="cls-1" d="M100,20q0-.48,0-1H94.45l5.41-1.08a15.21,15.21,0,0,0-.4-2l-5.11,1,4.81-2a14.8,14.8,0,0,0-.79-1.89l-4.53,1.88,4.08-2.72a14.52,14.52,0,0,0-1.21-1.8L92.89,13l3.25-3.25A15.89,15.89,0,0,0,94.6,8.18l-3,3L94,7.65a14.36,14.36,0,0,0-1.9-1.28l-2.2,3.3L91.38,6a15.55,15.55,0,0,0-2.12-.88L87.84,8.51l.72-3.6a14.71,14.71,0,0,0-2.36-.47l-.66,3.3V4.37c-.39,0-.8,0-1.2,0s-.81,0-1.21,0V13.6a6.13,6.13,0,0,1,1.21-.12h.06a7.21,7.21,0,0,1,1.32.15A6.48,6.48,0,0,1,90.83,20a4.1,4.1,0,0,1,0,.49,6.48,6.48,0,0,1-5.68,6,6.87,6.87,0,0,1-1.57,0v9.2l.79,0,.78,0V26.94l1.93,8.46a13.37,13.37,0,0,0,1.52-.35l-1.86-8.2,3.63,7.59a16.41,16.41,0,0,0,1.52-.74l-3.53-7.33,5.08,6.36a14.71,14.71,0,0,0,1.32-1l-4.91-6.16L96,30.44A17.16,17.16,0,0,0,97.13,29l-5.94-4.74L98,27.58c.29-.53.55-1.07.79-1.63l-6.61-3.18,7.15,1.63a15,15,0,0,0,.42-1.88L92.91,21H100c0-.32,0-.64,0-1M79.59,34.9c.45.14.92.26,1.4.37l2.38-8.87A6.72,6.72,0,0,1,82,26Zm.9-9.69-4.6,7.95c.4.26.82.5,1.25.73l4.6-8a6.24,6.24,0,0,1-1.25-.72M79.3,24.08l-6.49,6.48c.3.32.61.64.94.94L80.24,25a7,7,0,0,1-.94-.94m-.89-1.44-8,4.59c.21.4.43.78.66,1.15l8-4.6a6.91,6.91,0,0,1-.67-1.15m-.47-1.56-8.87,2.37c.09.4.19.79.31,1.17l8.87-2.38a6.39,6.39,0,0,1-.31-1.16M77.85,20a5.88,5.88,0,0,1,0-.6H68.7c0,.21,0,.4,0,.61s0,.39,0,.59h9.18a5.88,5.88,0,0,1,0-.6m.5-2.52-8.72-2.83c-.13.33-.24.68-.34,1L78,18.5a6.29,6.29,0,0,1,.33-1m1.08-1.72L72,10.34c-.23.28-.44.58-.64.88l7.42,5.4a6.81,6.81,0,0,1,.64-.88m1.5-1.28L75.54,7c-.27.18-.53.37-.78.56L80.15,15a5.58,5.58,0,0,1,.78-.57m1.87-.79L80,5l-.92.29L81.88,14a7.6,7.6,0,0,1,.92-.3m-36,19.78V33h1.39v.31a1.21,1.21,0,0,0,1.36,1.17c1,0,1.28-.55,1.28-1.59a1.42,1.42,0,0,0-1.31-1.52h-1v-1.2h.75c.82,0,1.41-.4,1.41-1.49a1.21,1.21,0,0,0-1.25-1.38c-.72,0-1.21.33-1.21,1.09v.35H46.81v-.36c0-1.42,1-2.3,2.71-2.3a2.29,2.29,0,0,1,2.53,2.41,2.1,2.1,0,0,1-1.39,2.21v0A2.21,2.21,0,0,1,52.29,33a2.64,2.64,0,0,1-2.76,2.72c-1.82,0-2.78-.9-2.78-2.22m6.83-.24V28.6a2.55,2.55,0,0,1,2.85-2.53c1.6,0,2.64.84,2.64,2.13v.52H57.59v-.41c0-.68-.5-1-1.24-1A1.15,1.15,0,0,0,55.1,28.5v2.24a2.18,2.18,0,0,1,2-1.07,2.06,2.06,0,0,1,2.08,2,.28.28,0,0,1,0,.09v1.5c0,1.48-1.23,2.39-2.8,2.39a2.49,2.49,0,0,1-2.75-2.46m4.11.12V31.91a1.08,1.08,0,0,0-1.2-1.16,1.45,1.45,0,0,0-1.39,1.5h0v1a1.23,1.23,0,0,0,1.19,1.26h.11a1.17,1.17,0,0,0,1.29-1.16m2.84-.15v-4.6c0-1.72,1.43-2.51,2.9-2.51s2.9.77,2.9,2.5v4.6c0,1.7-1.43,2.49-2.87,2.49s-2.93-.77-2.93-2.48m4.28,0V28.53a1.26,1.26,0,0,0-1.36-1.24,1.29,1.29,0,0,0-1.4,1.26v4.58a1.24,1.24,0,0,0,1.41,1.31,1.21,1.21,0,0,0,1.35-1.3"/></svg>