<svg id="Camada_1" data-name="Camada 1" xmlns="http://www.w3.org/2000/svg" viewBox="0 0 100 40"><defs><style>.cls-1{fill:#fff;}</style></defs><path class="cls-1" d="M43.46,8.51l-4.09,3.9-1.8-1.18c-1-.63-1.83-1.05-1.89-.92A41.23,41.23,0,0,0,37.28,16a6.69,6.69,0,0,0,2-.18c1.52-.26,1.94-.44,2.33-1,1-1.5,6.13-10,6-10.11S45.71,6.36,43.46,8.51Z"/><path class="cls-1" d="M83.3,12.2A3.74,3.74,0,0,0,81,15.81l-.1,1.57H79.09V18.8c0,1.41,0,1.44.86,1.51l.84.08v7.07l-.78.13c-.76.13-.79.19-.79,1.44v1.31l3.61.08,3.62.08-.08-1.39c-.08-1.28-.13-1.39-.79-1.47l-.73-.07V20.26h2.36V17.38H86c-1.15,0-1.18,0-1.18-.89,0-1.07.37-1.41,1.7-1.52l1-.07.16-1.44a7.26,7.26,0,0,0,.07-1.55,11.61,11.61,0,0,0-1.72-.21A4.07,4.07,0,0,0,83.3,12.2Z"/><path class="cls-1" d="M27.52,13.19c0,1.26,0,1.29.91,1.47l.92.16V27.57l-.71.07c-.68.08-.73.19-.81,1.47l-.08,1.39,3.61-.08L35,30.34l.07-1.23c.08-1.2.06-1.23-.78-1.47l-.86-.2-.08-7.78-.06-7.78H27.52Z"/><path class="cls-1" d="M0,14.35c0,1.33.05,1.46.6,1.46,1.23,0,1.25.08,1.18,6l-.08,5.6-.79.13c-.73.13-.78.21-.86,1.52L0,30.5l3.74-.08,3.75-.08V29c0-1.25,0-1.31-.79-1.44s-.78-.21-.86-1.59l-.08-1.47,2.3-.18c2.94-.21,4.77-1.05,5.79-2.6.6-.91.71-1.33.71-3.06s-.08-2.12-.76-3.09a5.48,5.48,0,0,0-2.2-1.8c-1.36-.69-1.65-.71-6.49-.82L0,12.85Zm9.89,2.51A2.54,2.54,0,0,1,10,20.52c-.41.42-.89.53-2.35.53H5.79V16.34H7.57C9,16.34,9.48,16.44,9.92,16.86Z"/><path class="cls-1" d="M39.56,16.88c-2.65.5-2.36-.15-2.36,5.61v5.08l-.71.07c-.68.08-.73.19-.81,1.47L35.6,30.5l3.62-.08,3.61-.08V29c0-1.25,0-1.31-.79-1.44l-.78-.13L41.18,22a37.56,37.56,0,0,0-.26-5.4Z"/><path class="cls-1" d="M18.43,17.77c-2.28,1.16-3.3,3.07-3.27,6.18s1.07,4.93,3.27,6a7.24,7.24,0,0,0,5.63,0c2.2-1.12,3.25-3.16,3.22-6.38,0-3.8-2.12-6.16-5.71-6.39A4.58,4.58,0,0,0,18.43,17.77Zm4,3.12c.62.52.73.84.83,2.33.19,2.91-.44,4.11-2.17,4.11a1.41,1.41,0,0,1-1.47-.86c-.44-.68-.49-1.18-.44-2.88.08-1.89.16-2.12.81-2.7A1.55,1.55,0,0,1,22.44,20.89Z"/><path class="cls-1" d="M46.36,17.72c-1.67.89-2.67,2.78-2.82,5.45-.13,2.41.23,4.21,1.15,5.42,1.52,2,3.11,2.38,6.05,1.49.49-.16.55-.11.42.44C50.87,31.62,50.29,32,49,32a8.08,8.08,0,0,1-2.3-.36l-1-.37-.29,1.13c-.15.6-.34,1.28-.42,1.51-.23.58,2.23,1.37,4.32,1.34,2.94,0,4.93-1.34,5.74-3.74A51.12,51.12,0,0,0,55.27,24V17.38H53.43c-1.65,0-1.83.05-1.83.53s-.05.47-.94-.14A4.05,4.05,0,0,0,46.36,17.72ZM50.89,21c.37.31.45.83.45,2.95,0,2.36-.05,2.6-.58,3a2.22,2.22,0,0,1-2.3.16c-1-.52-1.36-3.33-.71-5.24A1.83,1.83,0,0,1,50.89,21Z"/><path class="cls-1" d="M63.64,17.3a2.9,2.9,0,0,0-.83.55c-.42.34-.48.34-.63-.05s-.6-.42-2.88-.42H56.57v1.29c0,1.25,0,1.28.92,1.43l.92.19v7.28l-.71.07c-.68.08-.73.19-.81,1.44l-.08,1.39h7.12l-.08-1.36c-.08-1.2-.15-1.39-.73-1.52s-.65-.21-.73-2.82c-.11-3.43,0-3.72,1.91-3.72h1.39l.18-1.68a5.88,5.88,0,0,0,0-2C65.71,17.12,64.32,17,63.64,17.3Z"/><path class="cls-1" d="M69.17,17.64c-2,.74-2.12.87-2.12,2.78v1.67h1.44c1.15,0,1.49-.1,1.59-.47.32-1,.58-1.23,1.63-1.31.83,0,1.12,0,1.46.53A2.25,2.25,0,0,1,73.59,22c0,.5-.18.58-2.09.71-2.59.15-4.11.91-4.82,2.35a3.89,3.89,0,0,0,1.75,5.08A5.47,5.47,0,0,0,72.91,30c.89-.52.92-.52,1.07,0s.42.5,2.39.5h2.2V29.14c0-1.1-.08-1.36-.53-1.47s-.52-.37-.52-3.32a26.16,26.16,0,0,0-.26-4.11C76.52,17.62,72.68,16.39,69.17,17.64Zm4.42,8.2a1.86,1.86,0,0,1-2.9,1.26c-.58-.48-.58-.5-.16-1.18s.65-.68,1.75-.68S73.59,25.29,73.59,25.84Z"/><path class="cls-1" d="M91.52,17.51c-3.71,1.31-5,7.44-2.35,11,2.15,2.85,7.46,2.77,9.55-.13a8.71,8.71,0,0,0,.58-8A6.2,6.2,0,0,0,91.52,17.51Zm3.85,3.54c.95,1.15.92,4.34-.08,5.6a1.76,1.76,0,0,1-2.82,0c-1.18-1.52-.87-5.34.49-6A2,2,0,0,1,95.37,21.05Z"/></svg>