<svg id="svg_logo-plain" data-name="svg logo-plain" xmlns="http://www.w3.org/2000/svg" viewBox="0 0 120 40"><defs><style>.cls-1{fill:#fff;}</style></defs><path class="cls-1" d="M22.6,14.32l1.21-2.54A7.17,7.17,0,0,0,21,11.3a7.68,7.68,0,0,0-5.92,2.54A8.63,8.63,0,0,0,12.81,20a8.63,8.63,0,0,0,2.3,6.16A7.68,7.68,0,0,0,21,28.7,7.69,7.69,0,0,0,27,26.16,8.66,8.66,0,0,0,29.24,20a8.75,8.75,0,0,0-1.81-5.56l-1.45,3a7.89,7.89,0,0,1,.49,2.42A6.79,6.79,0,0,1,25,24.23,4.76,4.76,0,0,1,21.15,26a4.69,4.69,0,0,1-3.75-1.81A6.81,6.81,0,0,1,15.83,20a6.09,6.09,0,0,1,1.45-4.11,4.85,4.85,0,0,1,3.87-1.69,3,3,0,0,1,1.45.12M2.78,14.08H4.11c2.05,0,3.14,1,3.14,2.9s-1,3-3,3H2.78Zm0,8.1H4.83c3.51,0,5.32-1.7,5.32-5.2S8.22,11.9,4.35,11.9H0V28.46H2.78Zm32.39-10.4H32.39V28.34h7.85V25.92h-5V11.78Z"/><path class="cls-1" d="M89.06,22.42h-5l2.42-7Zm.73,2.17,1.45,3.75h3L88.1,11.78H85.32L79,28.34h3l1.45-3.75Z"/><path class="cls-1" d="M25.5,11.42,20.79,20.6l-1.33-2.17h-2.3L21,24.59l6.76-13.17Z"/><path class="cls-1" d="M43.63,28.34H46.4V11.78H43.63m9.9,16.56h2.54V14.2h3.75V11.78H49.91V14.2h3.62m9.79-2.42H66.1V28.34H63.32Z"/><path class="cls-1" d="M78.55,14.2V11.78H70.21V28.34h2.9V20.85h5.08V18.43H73.11V14.2ZM107,12.27a8.09,8.09,0,0,0-3.63-1,7.62,7.62,0,0,0-5.8,2.54,9,9,0,0,0-2.29,6.28,8.57,8.57,0,0,0,2.29,6,7.62,7.62,0,0,0,5.8,2.54,9.48,9.48,0,0,0,3.75-1V24.35A4.36,4.36,0,0,1,103.44,26a4.66,4.66,0,0,1-3.74-1.81,6.69,6.69,0,0,1-1.57-4.11,6.13,6.13,0,0,1,1.57-4.23,4.66,4.66,0,0,1,3.74-1.81,4.71,4.71,0,0,1,3.63,1.69v-3.5Zm9.3,1.93H120V11.78h-9.91V14.2h3.63V28.34h2.53Z"/></svg>