<svg xmlns="http://www.w3.org/2000/svg" viewBox="0 0 94.3 40"><defs><style>.cls-1{fill:#fff;}</style></defs><title>polygon</title><path class="cls-1" d="M24.54,17.55c2.71,0,3.69.42,4.53,1.06a5,5,0,0,1,1.72,3.85,5.25,5.25,0,0,1-1.54,3.82,5.66,5.66,0,0,1-4.33,1.28H23.5v4.53H19.78V17.55Zm-1.07,6.79h1.36a3.53,3.53,0,0,0,1.44-.21,1.48,1.48,0,0,0,.92-1.59,1.44,1.44,0,0,0-.93-1.48,4,4,0,0,0-1.54-.22H23.45v3.4Z"/><path class="cls-1" d="M30.86,26.63a5.66,5.66,0,0,1,5.53-5.79h.36a5.82,5.82,0,1,1-5.89,5.79Zm3.26,0a2.75,2.75,0,1,0,0-.07v.07Z"/><path class="cls-1" d="M43.68,17.55H47V32.13H43.68Z"/><path class="cls-1" d="M51.81,31.57l-4-10.38h3.48l2.27,6.35,2.09-6.35H59L53.55,35.76h-3.4Z"/><path class="cls-1" d="M70.76,30.8a7,7,0,0,1-.63,3.62A6.43,6.43,0,0,1,64.57,37c-3.79,0-5.23-2.27-5.43-3.86h3.77a1.93,1.93,0,0,0,1,1,2.87,2.87,0,0,0,.87.13,2.52,2.52,0,0,0,2.65-2.39,1.13,1.13,0,0,0,0-.26v-.63a3.42,3.42,0,0,1-3,1.52A5.5,5.5,0,0,1,58.91,27v-.24a5.55,5.55,0,0,1,5.2-5.88h.32a3.59,3.59,0,0,1,3.09,1.36v-1h3.26v9.61Zm-8.58-4.17a2.64,2.64,0,0,0,2.49,2.78h.14a2.63,2.63,0,0,0,1.92-.75,3,3,0,0,0,.77-1.88,3.07,3.07,0,0,0-.66-2,2.45,2.45,0,0,0-2-.85,2.65,2.65,0,0,0-2.65,2.65h0v.08Z"/><path class="cls-1" d="M71.77,26.63a5.89,5.89,0,1,1,6,5.82h-.06A5.67,5.67,0,0,1,71.77,27C71.77,26.9,71.76,26.77,71.77,26.63Zm3.26,0a2.63,2.63,0,1,0,2.63-2.78A2.68,2.68,0,0,0,75,26.58Z"/><path class="cls-1" d="M84.22,21.18h3v1.14a3.2,3.2,0,0,1,3-1.54c3.7,0,4.07,3,4.07,4.46V32H91.07V26.12c0-1.19-.26-2.26-1.72-2.26S87.49,25,87.49,26.12v5.95H84.22Z"/><path class="cls-1" d="M19.62,12.9a.29.29,0,0,0,0-.13h0a.19.19,0,0,0-.08-.14h0L10,3.08A.41.41,0,0,0,9.8,3h0a.19.19,0,0,0-.14.08h0L.1,12.58h0a.21.21,0,0,0,0,.11H0v9.58a.16.16,0,0,0,.08.14h0l9.53,9.52a.25.25,0,0,0,.21.08.17.17,0,0,0,.1,0,.29.29,0,0,0,.19-.26v-9.4l9.44-9.45S19.6,12.94,19.62,12.9Zm-10.06.18v8.56L1,13.09Zm-9,.4L9.13,22H.59Zm9.53-.4h8.55l-8.55,8.56Zm0-.59V4l8.55,8.55Zm-.56,0H1L9.53,4V12.5Zm0,18.67L1,22.62H9.56Z"/></svg>