<svg id="Camada_1" data-name="Camada 1" xmlns="http://www.w3.org/2000/svg" viewBox="0 0 120 40"><defs><style>.cls-1{fill:#fff;}</style></defs><path class="cls-1" d="M42.66,22.54a4,4,0,0,0-2.68-3,18.9,18.9,0,0,0-4.09-8.33,2.15,2.15,0,0,0-.49-1.48,17.93,17.93,0,0,0-28.06,0,2.18,2.18,0,0,0-.48,1.47,18.89,18.89,0,0,0-4.09,8.34,4,4,0,0,0,.39,7.64v-4h0v4.07c0,.36.41.65.91.65l.18,0v.06a2,2,0,0,0,2.11,1.82h.1A2,2,0,0,0,8.51,28.3a13.85,13.85,0,0,0,25.72,0,2,2,0,0,0,2.05,1.43h.1a2,2,0,0,0,2.1-1.82v-.06l.18,0c.51,0,.91-.29.91-.65v0A4,4,0,0,0,42.66,22.54ZM27.57,23a5.54,5.54,0,0,1-2.52,2.52,5.29,5.29,0,0,1-2.32.53H21.58V30a2.62,2.62,0,0,1-.36,1.69C21,32,19.1,32,18.61,32h0c-.53,0-2.26,0-2.49-.3A2.63,2.63,0,0,1,15.73,30V17.37a2.81,2.81,0,0,1,.4-1.86,2.45,2.45,0,0,1,1.72-.42h4.87a5.84,5.84,0,0,1,.73.05,5.41,5.41,0,0,1,4.3,3.43A5.6,5.6,0,0,1,27.57,23Zm8.81-6.11h-.1a2.09,2.09,0,0,0-2,1.25,13.84,13.84,0,0,0-25.82,0,2.1,2.1,0,0,0-2-1.26h-.1a2.28,2.28,0,0,0-1.57.6,17.57,17.57,0,0,1,2.85-5A2,2,0,0,0,10,11.86a14.53,14.53,0,0,1,22.75,0,2,2,0,0,0,2.36.61A17.6,17.6,0,0,1,38,17.53,2.27,2.27,0,0,0,36.38,16.92Z"/><path class="cls-1" d="M48.11,14.28h5.68c3.35,0,5.5,1.72,5.5,4.66v0c0,3.12-2.4,4.77-5.69,4.77H51.78v3.78H48.11Zm5.41,6.59c1.31,0,2.1-.69,2.1-1.73v0c0-1.14-.79-1.74-2.12-1.74H51.78v3.5Z"/><path class="cls-1" d="M60.39,20.94v0A6.94,6.94,0,0,1,67.54,14a6.86,6.86,0,0,1,7.11,6.84v0a7.13,7.13,0,0,1-14.26,0Zm10.52,0v0a3.44,3.44,0,0,0-3.41-3.57,3.37,3.37,0,0,0-3.34,3.53v0a3.44,3.44,0,0,0,3.38,3.58A3.38,3.38,0,0,0,70.91,20.94Z"/><path class="cls-1" d="M76.57,14.28h5.67c3.35,0,5.51,1.72,5.51,4.66v0c0,3.12-2.41,4.77-5.7,4.77H80.24v3.78H76.57ZM82,20.87c1.3,0,2.1-.69,2.1-1.73v0c0-1.14-.8-1.74-2.12-1.74H80.24v3.5Z"/><path class="cls-1" d="M89.88,27.52V13.71h1.46V27.52Z"/><path class="cls-1" d="M94.76,15.61V14h1.67v1.61Zm.1,11.91V17.74h1.45v9.78Z"/><path class="cls-1" d="M101.16,27.52H99.7V17.74h1.46v1.71a4.62,4.62,0,0,1,1.28-1.36,3.54,3.54,0,0,1,2.07-.55,4.09,4.09,0,0,1,1.58.28,3.35,3.35,0,0,1,1.17.8,3.56,3.56,0,0,1,.74,1.24,4.77,4.77,0,0,1,.25,1.59v6.07H106.8V21.81a3.19,3.19,0,0,0-.7-2.16,2.54,2.54,0,0,0-2-.79,3.07,3.07,0,0,0-1.16.22,2.7,2.7,0,0,0-.94.62,2.75,2.75,0,0,0-.61,1,3.36,3.36,0,0,0-.22,1.25Z"/><path class="cls-1" d="M112.62,24.58a3.2,3.2,0,0,0,.78,1,3.29,3.29,0,0,0,2.29.86,3.8,3.8,0,0,0,1.75-.37,5.2,5.2,0,0,0,1.33-1l.91.82A6.07,6.07,0,0,1,118,27.25a4.84,4.84,0,0,1-2.34.5,4.9,4.9,0,0,1-1.89-.37,4.69,4.69,0,0,1-1.56-1,5.05,5.05,0,0,1-1.06-1.62,5.27,5.27,0,0,1-.39-2.08,5.42,5.42,0,0,1,.35-2,5.19,5.19,0,0,1,1-1.63,4.59,4.59,0,0,1,1.49-1.09,4.72,4.72,0,0,1,3.81,0,4.32,4.32,0,0,1,1.44,1.11,4.84,4.84,0,0,1,.89,1.64,7,7,0,0,1,.3,2v.21a1.94,1.94,0,0,1,0,.24h-7.74A4,4,0,0,0,112.62,24.58Zm5.89-2.49a5,5,0,0,0-.28-1.26,3.1,3.1,0,0,0-.6-1.06,2.78,2.78,0,0,0-.94-.73,3,3,0,0,0-1.29-.28,2.82,2.82,0,0,0-1.18.26,3.17,3.17,0,0,0-1,.7,3.87,3.87,0,0,0-.68,1.05,4.67,4.67,0,0,0-.34,1.32Z"/></svg>