<svg id="Camada_1" data-name="Camada 1" xmlns="http://www.w3.org/2000/svg" viewBox="0 0 100 40"><defs><style>.cls-1{fill:#fff;}</style></defs><path class="cls-1" d="M35.47,22.13a3.35,3.35,0,0,0-2.24-2.5,15.7,15.7,0,0,0-3.41-6.95,1.77,1.77,0,0,0-.41-1.23,14.94,14.94,0,0,0-21-2.39A14.6,14.6,0,0,0,6,11.45a1.8,1.8,0,0,0-.4,1.22,15.73,15.73,0,0,0-3.41,7A3.34,3.34,0,0,0,2.52,26V22.66h0v3.4c0,.3.35.54.76.54h.15v0a1.67,1.67,0,0,0,1.76,1.52h.09A1.68,1.68,0,0,0,7,26.93a11.55,11.55,0,0,0,21.45,0,1.65,1.65,0,0,0,1.71,1.19h.08A1.66,1.66,0,0,0,32,26.61v-.05h.15c.43,0,.76-.24.76-.55h0A3.33,3.33,0,0,0,35.47,22.13Zm-12.59.38a4.59,4.59,0,0,1-2.1,2.1,4.31,4.31,0,0,1-1.93.45h-1v3.29a2.24,2.24,0,0,1-.3,1.41c-.19.26-1.77.26-2.18.26h0c-.44,0-1.89,0-2.08-.25A2.2,2.2,0,0,1,13,28.35V17.82a2.28,2.28,0,0,1,.33-1.55,2,2,0,0,1,1.44-.35h4.06a4.26,4.26,0,0,1,.61,0A4.5,4.5,0,0,1,23,18.82,4.65,4.65,0,0,1,22.88,22.51Zm7.35-5.09h-.08a1.74,1.74,0,0,0-1.67,1,11.55,11.55,0,0,0-21.54,0,1.72,1.72,0,0,0-1.66-1.05H5.19a1.89,1.89,0,0,0-1.31.5,14.64,14.64,0,0,1,2.38-4.17,1.67,1.67,0,0,0,2-.52,12.1,12.1,0,0,1,17-1.94,11.55,11.55,0,0,1,1.95,1.94,1.66,1.66,0,0,0,2,.51A14.63,14.63,0,0,1,31.58,18a1.93,1.93,0,0,0-1.35-.51Z"/><path class="cls-1" d="M40,15.24h4.74c2.79,0,4.58,1.43,4.58,3.89h0c0,2.6-2,4-4.74,4H43.07v3.16H40Zm4.51,5.5c1.09,0,1.75-.58,1.75-1.45h0c0-.95-.66-1.45-1.76-1.45H43.07v2.92Z"/><path class="cls-1" d="M50.25,20.79h0A5.8,5.8,0,0,1,56,15h.17a5.72,5.72,0,0,1,5.93,5.51v.19h0a5.95,5.95,0,1,1-11.89,0Zm8.77,0h0a2.86,2.86,0,0,0-2.75-3h-.09a2.81,2.81,0,0,0-2.79,2.83.41.41,0,0,0,0,.11h0a2.86,2.86,0,0,0,2.74,3h.07A2.83,2.83,0,0,0,59,20.92.62.62,0,0,0,59,20.79Z"/><path class="cls-1" d="M63.75,15.24h4.72c2.8,0,4.6,1.43,4.6,3.89h0c0,2.6-2,4-4.75,4H66.81v3.16H63.75Zm4.52,5.5c1.09,0,1.75-.58,1.75-1.45h0c0-.95-.66-1.45-1.76-1.45H66.81v2.92Z"/><path class="cls-1" d="M74.84,26.28V14.76h1.22V26.28Z"/><path class="cls-1" d="M78.91,16.35V15h1.4v1.34ZM79,26.28V18.13h1.21v8.15Z"/><path class="cls-1" d="M84.25,26.28H83V18.13h1.22v1.42a3.85,3.85,0,0,1,1.07-1.13A2.93,2.93,0,0,1,87.05,18a3.45,3.45,0,0,1,1.31.23,2.76,2.76,0,0,1,1,.67,3.18,3.18,0,0,1,.62,1,4,4,0,0,1,.2,1.33v5.06H89V21.52a2.68,2.68,0,0,0-.59-1.8,2.1,2.1,0,0,0-1.67-.66,2.6,2.6,0,0,0-1,.18,2.22,2.22,0,0,0-.79.52,2.3,2.3,0,0,0-.51.83,2.9,2.9,0,0,0-.18,1.05Z"/><path class="cls-1" d="M93.81,23.83a2.63,2.63,0,0,0,.65.83,2.7,2.7,0,0,0,1.91.72,3.1,3.1,0,0,0,1.46-.31,4.3,4.3,0,0,0,1.11-.83l.76.68a5.12,5.12,0,0,1-1.4,1.14,4,4,0,0,1-2,.41,3.86,3.86,0,0,1-1.57-.31,3.71,3.71,0,0,1-1.3-.83A4.34,4.34,0,0,1,92.58,24a4.46,4.46,0,0,1-.32-1.73,4.52,4.52,0,0,1,.29-1.67,4.33,4.33,0,0,1,.83-1.36,3.63,3.63,0,0,1,1.25-.91,3.89,3.89,0,0,1,3.17,0,3.5,3.5,0,0,1,1.2.92,4.08,4.08,0,0,1,.75,1.37,6.31,6.31,0,0,1,.25,1.67v.38H93.54A3.49,3.49,0,0,0,93.81,23.83Zm4.91-2.08a4.19,4.19,0,0,0-.23-1.05,2.75,2.75,0,0,0-.5-.88,2.24,2.24,0,0,0-.79-.61A2.32,2.32,0,0,0,96.13,19a2.41,2.41,0,0,0-1,.21,2.68,2.68,0,0,0-.83.59,3.12,3.12,0,0,0-.57.87,3.79,3.79,0,0,0-.28,1.1Z"/></svg>