<svg xmlns="http://www.w3.org/2000/svg" viewBox="0 0 94.89 40"><defs><style>.a{fill:#fff;}</style></defs><title>Popular_Science</title><path class="a" d="M0,3.46l.48,0H4.11l2,0a2.81,2.81,0,0,1,.48.06A4.9,4.9,0,0,1,9.66,5.36a5.18,5.18,0,0,1,.9,2.14,5.93,5.93,0,0,1-1.15,5.14,4.48,4.48,0,0,1-3.27,1.74c-.85.07-1.71,0-2.57,0-.32,0-.35,0-.35.35q0,1.88,0,3.77v.2h-3l-.17,0ZM3.2,9h0q0,1.09,0,2.18c0,.3.06.36.36.36H5.4a1.69,1.69,0,0,0,1.26-.49,3,3,0,0,0,.79-2.95A2,2,0,0,0,6,6.59a3.24,3.24,0,0,0-.83-.05l-1.68,0c-.23,0-.28.05-.28.28Q3.2,7.91,3.2,9Z"/><path class="a" d="M27.87,11.24a7.82,7.82,0,0,1-13.14,5.69,6.51,6.51,0,0,1-1.78-2.64,15.91,15.91,0,0,1-.51-1.6,6.81,6.81,0,0,1-.1-2.08,7.85,7.85,0,0,1,2.15-5,7.61,7.61,0,0,1,3.89-2.21,7.22,7.22,0,0,1,1.06-.11,6.82,6.82,0,0,1,2.36.09,7.73,7.73,0,0,1,5.87,5.87A6.56,6.56,0,0,1,27.87,11.24ZM20.14,15.9a7.75,7.75,0,0,0,.78-.09,4.52,4.52,0,0,0,2.91-1.92,4.42,4.42,0,0,0,.79-3.38A4.93,4.93,0,0,0,23.49,8a4.34,4.34,0,0,0-4.61-1.44,4.71,4.71,0,0,0-3.4,4.72A4.55,4.55,0,0,0,16,13.4,4.55,4.55,0,0,0,20.14,15.9Z"/><path class="a" d="M49.61,20.78l1.07,1,7.45,6.73,1.07,1a.61.61,0,0,0,.15.07.76.76,0,0,0,0-.16q0-3.79,0-7.57c0-.47,0-.47.47-.47h2.69c.07.36,0,15.49-.06,15.69a1.26,1.26,0,0,1-.21-.13l-3.23-3-5.54-5.17-.53-.5A2.82,2.82,0,0,0,52.7,28a2.29,2.29,0,0,0,0,.23c0,1.39,0,2.77,0,4.16s.06,2.57.09,3.86c0,.29,0,.33-.33.33H49.87c-.28,0-.3,0-.3-.31q0-7.6,0-15.21v-.3Z"/><path class="a" d="M91.81,13.68l3.08,5.09h-.27c-.93,0-1.85,0-2.78,0a.55.55,0,0,1-.56-.34c-.71-1.33-1.43-2.66-2.13-4a.48.48,0,0,0-.5-.3c-.41,0-.83,0-1.25,0-.21,0-.23,0-.23.23q0,2,0,4.08c0,.27,0,.29-.3.29H84.25c-.32,0-.33,0-.33-.32q0-7.12,0-14.23c0-.16,0-.32,0-.49s.06-.3.31-.3h5.27a5.3,5.3,0,0,1,2,.36,4.62,4.62,0,0,1,2.74,2.88,6,6,0,0,1-.47,5.08,4.32,4.32,0,0,1-1.35,1.44C92.25,13.35,92,13.51,91.81,13.68ZM87.18,6.53v4.82h2.1a1.88,1.88,0,0,0,1.57-.78,2.89,2.89,0,0,0,.43-2.83,1.84,1.84,0,0,0-1.61-1.21c-.78,0-1.56,0-2.34,0Z"/><path class="a" d="M36.21,21.33H46.83v2.86H39.44v3.13h6c.17,0,.21.06.21.21,0,.86,0,1.71,0,2.57,0,.17-.06.22-.26.22l-2.28,0H39.45v3.4h7.4v2.92H36.5c-.23,0-.29-.06-.29-.3q0-7.41,0-14.82Z"/><path class="a" d="M91.15,33.71v.45q0,1.09,0,2.18c0,.23,0,.27-.26.27H80.81c-.28,0-.31,0-.31-.34q0-2.44,0-4.88,0-4.93,0-9.85v-.2H91.14s0,.1,0,.14q0,1.21,0,2.43c0,.25-.05.3-.31.3H84c-.34,0-.34,0-.34.34q0,1.29,0,2.57v.19h6.18c0,.1,0,.19,0,.27q0,1.23,0,2.46c0,.23-.06.29-.32.29H83.9c-.15,0-.2,0-.2.19,0,1,0,2,0,3,0,.21.05.25.28.25h7.17Z"/><path class="a" d="M51.81,3.46H55c0,.27,0,.53,0,.79q0,3.56,0,7.12c0,.75,0,1.51,0,2.26a5.3,5.3,0,0,1-1.11,2.89A6,6,0,0,1,49.05,19a6,6,0,0,1-4.47-1.69,5.56,5.56,0,0,1-1.67-3.07,7.28,7.28,0,0,1-.13-1.33c0-3.08,0-6.16,0-9.24,0-.06,0-.12,0-.19H46q0,.29,0,.58,0,1.38,0,2.77c0,1.13,0,2.26,0,3.4,0,.88,0,1.76,0,2.64a3.09,3.09,0,0,0,.7,2,2.8,2.8,0,0,0,2.61,1,2.91,2.91,0,0,0,2.48-2.91c0-3.08,0-6.16,0-9.24Z"/><path class="a" d="M33.31,18.75H30.13V3.45h4.26c.64,0,1.27,0,1.91,0a4.48,4.48,0,0,1,2.16.75,4.92,4.92,0,0,1,2.05,2.7,5.61,5.61,0,0,1,.22,2.58,6.48,6.48,0,0,1-.5,2,5,5,0,0,1-3.09,2.76,5.34,5.34,0,0,1-1.66.22h-2c-.15,0-.2,0-.2.2,0,1.3,0,2.61,0,3.91Zm0-12.22v.18q0,2.33,0,4.66c0,.21,0,.21.22.21l2.09,0a1.48,1.48,0,0,0,.3,0,2,2,0,0,0,1.19-.88,3.27,3.27,0,0,0,.48-1.32,2.51,2.51,0,0,0-.41-2,1.74,1.74,0,0,0-1.37-.83c-.8,0-1.61,0-2.41,0Z"/><path class="a" d="M67.7,18.76l.08-.19L75,3.14A.75.75,0,0,1,75.13,3a1,1,0,0,1,.1.14l7.29,15.45.08.18H79.3a.38.38,0,0,1-.4-.26l-.67-1.59c-.09-.22-.14-.25-.37-.25H72.28a.3.3,0,0,0-.31.22l-.65,1.6a.36.36,0,0,1-.38.26H67.7ZM73.18,14c1.3,0,2.57.07,3.86,0l-2-4.52Z"/><path class="a" d="M27.6,23l-1.79,2.5-.42-.33a4.55,4.55,0,0,0-5.21-.42,4.63,4.63,0,0,0-2.11,3,5.39,5.39,0,0,0,.44,3.82,4.12,4.12,0,0,0,3.25,2.21,4.4,4.4,0,0,0,1.68,0,5.14,5.14,0,0,0,2.24-1.2l.27-.24c.1-.09.18-.08.26,0l1.18,1.62.27.36c.12.15.12.24,0,.36A7.69,7.69,0,0,1,15.35,32.5a7.52,7.52,0,0,1-.86-3.33A7.86,7.86,0,0,1,20.4,21.3a8.11,8.11,0,0,1,3.53-.11,6.82,6.82,0,0,1,2.93,1.24l.48.35Z"/><path class="a" d="M68.27,28.95a4.93,4.93,0,0,0,.48,2.41A4.21,4.21,0,0,0,72,33.74,4.63,4.63,0,0,0,76,32.53l.29-.26c.09-.08.18-.09.26,0l1.48,2c.09.13,0,.24-.07.34a7.27,7.27,0,0,1-1.73,1.27,7.19,7.19,0,0,1-3.45.91,7.78,7.78,0,0,1-4.89-1.67,7.57,7.57,0,0,1-2.7-3.88,7.85,7.85,0,0,1,4.74-9.7,7.92,7.92,0,0,1,4.15-.41A7,7,0,0,1,77.4,22.6l.34.25a.18.18,0,0,1,.06.29l-1.57,2.22c-.1.14-.19.07-.28,0a4.84,4.84,0,0,0-1.55-1,4.59,4.59,0,0,0-6.12,4.58Z"/><path class="a" d="M11.59,25.22c-.5-.3-1-.6-1.48-.87a3.67,3.67,0,0,0-2.18-.48,3,3,0,0,0-.66.14,1.3,1.3,0,0,0-.45,2.29,5.2,5.2,0,0,0,1.3.8c.73.34,1.47.65,2.18,1A5.65,5.65,0,0,1,12.47,30a3,3,0,0,1,.55,1.5,5.2,5.2,0,0,1,0,1.85,4.58,4.58,0,0,1-2.46,2.91,6.31,6.31,0,0,1-3.29.58,7.07,7.07,0,0,1-3.39-1.1,8.8,8.8,0,0,1-1-.79c-.2-.17-.2-.27-.06-.49L4,32.52c.12-.19.17-.2.35-.05a5.91,5.91,0,0,0,2.25,1.29,3.65,3.65,0,0,0,2.15,0,1.4,1.4,0,0,0,.59-2.25,4.71,4.71,0,0,0-1.58-1.1c-.68-.32-1.37-.63-2-1a4.84,4.84,0,0,1-1.5-1.16,4,4,0,0,1-1-2.54,4.22,4.22,0,0,1,1.27-3.32,4.8,4.8,0,0,1,2.59-1.29,6.94,6.94,0,0,1,5.46,1.28c.18.13.35.29.52.44a.19.19,0,0,1,0,.28l-1.44,2Z"/><path class="a" d="M57.67,18.75V3.47h3.19v.21q0,5.89,0,11.78c0,.4,0,.4.4.4h5.21v2.9Z"/><path class="a" d="M33.18,21.22V36.6H30.29c-.25,0-.29,0-.29-.29q0-7.4,0-14.8c0-.26,0-.29.28-.29h2.9Z"/></svg>