<svg id="svg2" xmlns="http://www.w3.org/2000/svg" viewBox="0 0 120 40"><defs><style>.cls-1{fill:#fff;}</style></defs><path class="cls-1" d="M43.86,25.13a4.67,4.67,0,0,0,1.5,1,5,5,0,0,0,1.87.36h4.32a4.72,4.72,0,0,0,1.92-.4A4.85,4.85,0,0,0,55,25a5.13,5.13,0,0,0,1.54,1.11,4.71,4.71,0,0,0,1.91.4H62.8a5,5,0,0,0,1.86-.36,5.24,5.24,0,0,0,1.52-1,5.12,5.12,0,0,0,1-1.53,4.51,4.51,0,0,0,.38-1.85v-7H65v7a2.3,2.3,0,0,1-.18.9,2.1,2.1,0,0,1-.5.75,2.2,2.2,0,0,1-1.66.69h-4a2.34,2.34,0,0,1-2.31-2.34v-7H53.72v7A2.19,2.19,0,0,1,53,23.34a2.1,2.1,0,0,1-1.65.69h-4a2.24,2.24,0,0,1-1.67-.69,2.1,2.1,0,0,1-.5-.75,2.3,2.3,0,0,1-.18-.9v-7H42.46v7a4.62,4.62,0,0,0,.37,1.87A5,5,0,0,0,43.86,25.13Z"/><path class="cls-1" d="M36.7,25.09a4.58,4.58,0,0,0,3.36,1.43h.52V24.06h-.49a2.33,2.33,0,0,1-2.19-2.37V9.94H35.32V21.69a4.71,4.71,0,0,0,.36,1.89A4.43,4.43,0,0,0,36.7,25.09Z"/><path class="cls-1" d="M70.75,25.11a5,5,0,0,0,1.52,1.05,4.74,4.74,0,0,0,1.86.36h6.3a4.93,4.93,0,0,0,1.86-.36,5,5,0,0,0,2.56-2.56,4.58,4.58,0,0,0,.38-1.9V19.5a4.58,4.58,0,0,0-.38-1.9,5.17,5.17,0,0,0-1-1.54,4.6,4.6,0,0,0-3.37-1.39H70.83v2.48h9.5a2.13,2.13,0,0,1,1.64.69,2.17,2.17,0,0,1,.68,1.34H69.45v2.48a4.7,4.7,0,0,0,.36,1.88A4.57,4.57,0,0,0,70.75,25.11ZM82.6,21.7a2.27,2.27,0,0,1-.68,1.65,2.08,2.08,0,0,1-1.63.68h-6a2.31,2.31,0,0,1-2.34-2.29v-.11Z"/><path class="cls-1" d="M105.64,25.13a4.47,4.47,0,0,0,1.5,1,4.93,4.93,0,0,0,1.86.36h9.6V24h-9.48a2.23,2.23,0,0,1-1.67-.68,2.59,2.59,0,0,1-.43-.61,2.13,2.13,0,0,1-.23-.74H120V19.51a4.8,4.8,0,0,0-.32-1.91,5,5,0,0,0-1-1.54,5.24,5.24,0,0,0-1.52-1,5,5,0,0,0-1.86-.36H109a5,5,0,0,0-1.86.36,4.67,4.67,0,0,0-1.5,1,4.73,4.73,0,0,0-1,1.54,4.43,4.43,0,0,0-.38,1.86v2.21a4.44,4.44,0,0,0,.38,1.93A4.65,4.65,0,0,0,105.64,25.13ZM107,18.62a2.57,2.57,0,0,1,.51-.74,2.28,2.28,0,0,1,1.67-.69h6a2.39,2.39,0,0,1,2.16,1.43,2.3,2.3,0,0,1,.18.9H106.84a2.28,2.28,0,0,1,.12-.9Z"/><path class="cls-1" d="M89.6,19.56a2.44,2.44,0,0,1,.18-.93,2.2,2.2,0,0,1,.5-.74,2.23,2.23,0,0,1,1.66-.7h6a2.09,2.09,0,0,1,.89.19,2.38,2.38,0,0,1,.75.51,2.2,2.2,0,0,1,.5.74,2.44,2.44,0,0,1,.18.93h2.59a4.87,4.87,0,0,0-.36-2,5.1,5.1,0,0,0-1-1.54,4.71,4.71,0,0,0-3.38-1.4h-6.3a4.79,4.79,0,0,0-1.87.36,4.84,4.84,0,0,0-2.53,2.58A5.07,5.07,0,0,0,87,19.48v7H89.6Z"/><path class="cls-1" d="M2.57,26a4.69,4.69,0,0,0,2.23.52h6.28a4.69,4.69,0,0,0,4.38-2.92,4.57,4.57,0,0,0,.36-1.86V19.52a4.8,4.8,0,0,0-2.9-4.45,4.64,4.64,0,0,0-1.84-.36H4.8A4.55,4.55,0,0,0,3,15.07a4.83,4.83,0,0,0-1.51,1A5.33,5.33,0,0,0,.37,17.6,4.86,4.86,0,0,0,0,19.52V30.06H2.57Zm0-6.44a2.29,2.29,0,0,1,.2-.93,2.71,2.71,0,0,1,.51-.74,2.13,2.13,0,0,1,1.64-.69h6a2.24,2.24,0,0,1,1.66.69,2.29,2.29,0,0,1,.63,1.65v2.15a2.2,2.2,0,0,1-.69,1.66,2.23,2.23,0,0,1-1.66.68h-6a2.15,2.15,0,0,1-1.64-.68,2.76,2.76,0,0,1-.51-.75,2.16,2.16,0,0,1-.2-.91Z"/><path class="cls-1" d="M20.24,26a4.58,4.58,0,0,0,2.17.53h6.33a4.64,4.64,0,0,0,3.36-1.39,4.78,4.78,0,0,0,1.39-3.4V19.52a4.86,4.86,0,0,0-.37-1.92,4.7,4.7,0,0,0-4.38-2.93H22.42a4.52,4.52,0,0,0-3.34,1.39,4.74,4.74,0,0,0-1.42,3.42V30h2.58Zm0-6.44a2.28,2.28,0,0,1,.19-.93,2.87,2.87,0,0,1,.51-.74,2.13,2.13,0,0,1,1.64-.69h6a2.24,2.24,0,0,1,1.66.69,2.27,2.27,0,0,1,.68,1.67V21.7a2.2,2.2,0,0,1-.68,1.66,2.24,2.24,0,0,1-1.66.69h-6a2.16,2.16,0,0,1-1.64-.69,2.87,2.87,0,0,1-.51-.74,2.23,2.23,0,0,1-.19-.92Z"/></svg>