<svg id="Layer_1" data-name="Layer 1" xmlns="http://www.w3.org/2000/svg" viewBox="0 0 120 40"><defs><style>.cls-1{fill:#fff;}</style></defs><path class="cls-1" d="M15.93,15.8H12V20h4a2.1,2.1,0,0,0,.2-4.2Z"/><path class="cls-1" d="M14,6A14,14,0,1,0,28.09,20h0A14,14,0,0,0,14,6ZM15.93,22.8H12V27H9.16V13H16a4.92,4.92,0,1,1,.4,9.84Z"/><path class="cls-1" d="M37.45,24.68V15.32h4.32a3,3,0,1,1,0,5.92H39.41v3.44Zm5.4-6.4A1.25,1.25,0,0,0,41.61,17h-2.2v2.48h2.08a1.25,1.25,0,0,0,1.36-1.12Z"/><path class="cls-1" d="M46.06,24.68V17.84h1.76v.88a2.9,2.9,0,0,1,2.12-1.08v1.72a2.22,2.22,0,0,0-2.12.72v4.56H46.06Z"/><path class="cls-1" d="M50.58,21.2a3.54,3.54,0,1,1,3.56,3.52h0a3.37,3.37,0,0,1-3.52-3.24Zm5.24,0a1.74,1.74,0,0,0-1.72-1.92,1.71,1.71,0,0,0-1.68,1.92,1.76,1.76,0,0,0,1.68,2,1.79,1.79,0,0,0,1.72-2Z"/><path class="cls-1" d="M63.54,24.68v-1a2.58,2.58,0,0,1-2,1c-1.68,0-3-1.28-3-3.52s1.24-3.48,3-3.48a2.54,2.54,0,0,1,2,1v-3.4H65.3v9.36H63.54Zm0-2.32V20A1.89,1.89,0,0,0,62,19.24a1.73,1.73,0,0,0-1.68,1.92,1.77,1.77,0,0,0,1.68,2A1.89,1.89,0,0,0,63.54,22.36Z"/><path class="cls-1" d="M71.54,24.68v-1a3.18,3.18,0,0,1-2.32,1,1.91,1.91,0,0,1-2.16-2.12V17.84h1.76v4a1.08,1.08,0,0,0,1.24,1.24,1.89,1.89,0,0,0,1.52-.76V17.84h1.76v6.84Z"/><path class="cls-1" d="M74.62,21.2a3.37,3.37,0,0,1,3.29-3.48h.24a3.19,3.19,0,0,1,2.64,1.2l-1.16,1a1.55,1.55,0,0,0-1.4-.72,1.76,1.76,0,0,0-1.8,1.92,1.81,1.81,0,0,0,1.8,2,1.74,1.74,0,0,0,1.4-.72l1.16,1.08a3.19,3.19,0,0,1-2.64,1.2,3.4,3.4,0,0,1-3.53-3.24Z"/><path class="cls-1" d="M82.27,22.84V19.36H81.15V17.84h1.12V16H84v1.8h1.36v1.52H84v3c0,.44.24.76.6.76a1,1,0,0,0,.6-.2l.36,1.32a2.06,2.06,0,0,1-1.44.44A1.72,1.72,0,0,1,82.27,22.84Z"/><path class="cls-1" d="M96.63,24.68v-4H92.27v4h-2V15.32h2v3.6h4.36v-3.6h2v9.36Z"/><path class="cls-1" d="M104.83,24.68v-1a3.2,3.2,0,0,1-2.36,1,1.93,1.93,0,0,1-2.16-2.12V17.84h1.76v4a1.08,1.08,0,0,0,1.24,1.24,1.89,1.89,0,0,0,1.52-.76V17.84h1.77v6.84Z"/><path class="cls-1" d="M112.84,24.68v-4.2a1.08,1.08,0,0,0-1.24-1.24,1.89,1.89,0,0,0-1.52.76v4.68h-1.76V17.84h1.76v.84a2.93,2.93,0,0,1,2.36-1,2,2,0,0,1,2.2,2.12v4.88Z"/><path class="cls-1" d="M116.72,22.84V19.36H115.6V17.84h1.12V16h1.72v1.8h1.36v1.52h-1.36v3c0,.44.2.76.6.76a1,1,0,0,0,.6-.2l.36,1.32a2.23,2.23,0,0,1-1.48.44A1.68,1.68,0,0,1,116.72,22.84Z"/></svg>