<svg id="Camada_1" data-name="Camada 1" xmlns="http://www.w3.org/2000/svg" viewBox="0 0 100 40"><defs><style>.cls-1{fill:#fff;}</style></defs><path class="cls-1" d="M59.72,25.85a6.32,6.32,0,0,0,2-1.46,6.47,6.47,0,0,0,1.22-1.94,6.89,6.89,0,0,0,0-4.9,6.45,6.45,0,0,0-3.18-3.4,7.51,7.51,0,0,0-2.33-.7,6.93,6.93,0,0,0-6.68,3,6.55,6.55,0,0,0,0,7.16A7.07,7.07,0,0,0,59.72,25.85Zm-5.3-7.92a2.7,2.7,0,0,1,1.22-.76,3.38,3.38,0,0,1,1.73,0,3,3,0,0,1,1.75,4.13,2.89,2.89,0,0,1-4.7.77A3,3,0,0,1,54.42,17.93Z"/><polygon class="cls-1" points="94.29 11.66 94.29 17.43 94.29 23.21 93.39 23.21 92.49 23.21 92.49 24.78 92.49 26.35 96.25 26.35 100 26.35 100 24.78 100 23.21 99.1 23.21 98.2 23.21 98.2 15.86 98.2 8.51 95.28 8.51 92.36 8.51 92.36 10.08 92.36 11.66 93.33 11.66 94.29 11.66"/><path class="cls-1" d="M42.49,16.79V20.3c0,1.94,0,3.69.06,3.89A2.52,2.52,0,0,0,43.81,26c.57.29,1,.33,3,.33h1.87V23H47.52l-1.15,0v-6.1l1.43,0h1.43V13.65l-1.43,0-1.43,0,0-2v-2H42.49v4.11H40.76v3.14h1.73Z"/><path class="cls-1" d="M82.89,26.22a6.51,6.51,0,0,0,2.41.35,6.37,6.37,0,0,0,3.29-.77,6.66,6.66,0,0,0,3.2-3.69,6.8,6.8,0,0,0-.45-5.24,6.7,6.7,0,0,0-4.43-3.29,10.25,10.25,0,0,0-2.41-.15,6.88,6.88,0,0,0-4.19,2,6.56,6.56,0,0,0-1.72,6.25A6.65,6.65,0,0,0,82.89,26.22Zm1.5-9a3,3,0,0,1,2.45,5.33,3,3,0,1,1-2.45-5.33Z"/><path class="cls-1" d="M66.94,25.33c2.91,2.14,7.51,1.49,9.43-1.34a6.51,6.51,0,0,0,1-2.71l0-.22-1.83,0H73.78l-.24.48a2.71,2.71,0,0,1-3.16,1.41A2.85,2.85,0,0,1,68.29,20a2.83,2.83,0,0,1,.89-2.23,2.71,2.71,0,0,1,1.7-.74,2.64,2.64,0,0,1,2.7,1.51l.19.4h3.64V13.65H73.88V15.2l-.26-.33a4.08,4.08,0,0,0-2.09-1.32,7.86,7.86,0,0,0-1.86-.12,6.86,6.86,0,0,0-2.56,1A7,7,0,0,0,65,16.89a5.8,5.8,0,0,0-.51,1.44,7.74,7.74,0,0,0,.11,3.76A6.77,6.77,0,0,0,66.94,25.33Z"/><path class="cls-1" d="M7.89,31.49V28.34H5.71V24.88l.34.36a5,5,0,0,0,4.72,1.2,7.13,7.13,0,0,0,2.07-1,6.79,6.79,0,0,0,2.42-3.72A5.1,5.1,0,0,0,15.43,20a5.1,5.1,0,0,0-.17-1.74,6.79,6.79,0,0,0-2.42-3.72,6.87,6.87,0,0,0-2.09-1,7.1,7.1,0,0,0-2.1-.11A4.69,4.69,0,0,0,6,14.85l-.4.42V13.65H0v3.14H1.8V28.34H0v3.15H7.89ZM5.81,19.2a2.89,2.89,0,0,1,5.14-1,3.13,3.13,0,0,1,0,3.54,2.91,2.91,0,0,1-4.4.33A3.06,3.06,0,0,1,5.81,19.2Z"/><path class="cls-1" d="M24.07,26.35V23.21H23c-.79,0-1.07,0-1.09-.08s0-1.51,0-3.26l0-3.18.15.28a2.63,2.63,0,0,0,3.49,1,2.72,2.72,0,0,0,1.06-1.16,1.76,1.76,0,0,0,.17-1,1.83,1.83,0,0,0-.2-1,2.44,2.44,0,0,0-1.76-1.34A2.53,2.53,0,0,0,22,14.77l-.19.38v-1.5H16.17v3.14H18v6.42H16.17v3.14h7.9Z"/><path class="cls-1" d="M27.8,23.73a7,7,0,0,0,6.44,2.83,6.61,6.61,0,0,0,6-5.12,8.2,8.2,0,0,0,0-2.88,6.62,6.62,0,0,0-5.78-5.1A6.87,6.87,0,0,0,27.36,17,6.6,6.6,0,0,0,27.8,23.73Zm4.93-6.59a3.74,3.74,0,0,1,.74-.09A2.85,2.85,0,0,1,36.39,20a2.89,2.89,0,1,1-5.77,0A2.91,2.91,0,0,1,32.73,17.14Z"/></svg>