<svg id="Camada_1" data-name="Camada 1" xmlns="http://www.w3.org/2000/svg" viewBox="0 0 100 40"><defs><style>.cls-1{fill:#fff;}</style></defs><path class="cls-1" d="M62.07,29.53l.34-.11c1.1-.3,1.14-.41,1.14-1.68V19.55c0-1.21-.11-1.32-.93-1.95l-.88-.66V16.3l6.87-.68.36.25c-.09,1.29-.11,2.17-.11,3.43v8.45c0,1.29.08,1.37,1.14,1.65l.52.14v.88H62.06ZM63.25,12.3a2.85,2.85,0,1,1,3.08,2.6h-.24a2.64,2.64,0,0,1-2.83-2.43c0-.06,0-.12,0-.18ZM52.87,29.53l.52-.14c1.18-.3,1.24-.38,1.24-1.65v-14c0-1.46-.06-1.62-1-2.09l-.94-.46V10.4l6.93-.6L60,10s-.08,1.38-.08,3.22V27.75c0,1.29,0,1.39,1.18,1.7l.38.09v.88H52.87Zm-5.66-6c0-3.93-1-5.11-2.78-5.11a5.28,5.28,0,0,0-1.76.33v9.79a2.38,2.38,0,0,0,1.9.93c1.68,0,2.64-.8,2.64-5.94Zm-9.85,5.33V13.7c0-1.46,0-1.65-.87-2.09l-.94-.46V10.4l6.84-.6.36.24s-.08,1.38-.08,3.22V17.6h.14a6.31,6.31,0,0,1,4.45-2c2.58,0,5.36,1.87,5.36,6.76a7.54,7.54,0,0,1-8.38,8.36A11.48,11.48,0,0,1,37.36,28.89ZM20.19,27.05V19.47c0-1.21,0-1.35-.94-1.95L18.37,17v-.64l6.77-.68.35.24v9.84c0,1.65.57,2.12,1.62,2.12a6.53,6.53,0,0,0,2-.36v-8c0-1.21-.09-1.4-.94-2l-.88-.57v-.63L34,15.63l.35.24v11c0,1.42,0,1.56.93,1.92l.69.28v.78l-6.43.93-.36-.25.06-1.92h-.14a8.59,8.59,0,0,1-5.36,2.17,3.32,3.32,0,0,1-3.59-3,3.18,3.18,0,0,1,0-.69h0Zm3.54-13L27,10.8A2.33,2.33,0,0,1,28.62,10a1.81,1.81,0,0,1,1.68,1.92,1.66,1.66,0,0,1-1.4,1.68l-4.92,1Zm47,9.17c0-5.66,4.59-7.56,8.71-7.56,2.81,0,4.68.89,4.68,2.72a2,2,0,0,1-1.87,2.15H82c-1.65,0-2.14-1.21-2.25-2.51-.08-.93-.22-1.1-1.1-1.1-1.14,0-2.69.61-2.69,5,0,3.93,1.1,6.1,4.23,6.1a7.93,7.93,0,0,0,3.76-1v1a7.4,7.4,0,0,1-6,2.75,6.75,6.75,0,0,1-7.21-6.27A6.93,6.93,0,0,1,70.7,23.19Zm13.68,0a7.81,7.81,0,1,1,8.11,7.51h-.3a7.19,7.19,0,0,1-7.77-6.56c0-.32,0-.64,0-1Zm10.12.12c0-5.91-.94-6.49-2.39-6.49s-2.23,1-2.23,5.88c0,6,.71,6.76,2.36,6.76,1.25,0,2.27-.42,2.27-6.17ZM0,29.51l.77-.18C1.7,29.1,2,29,2,27.13V14.66c0-1.87-.28-2-1.21-2.2L0,12.27v-.91H9.8C15.16,11.36,18,13,18,17.11A6.08,6.08,0,0,1,11.75,23a4,4,0,0,1-.6-.05,6.58,6.58,0,0,1-2.28-.38v-1c2.25-.14,2.94-.91,2.94-4.37,0-3.74-.57-4.56-2.42-4.56a4.37,4.37,0,0,0-1.29.22V27.11c0,1.79.16,1.87,1.26,2.15l1,.25v.9H0v-.9"/></svg>