<svg id="Camada_1" data-name="Camada 1" xmlns="http://www.w3.org/2000/svg" viewBox="0 0 120 40"><defs><style>.cls-1{fill:#fff;}</style></defs><g id="Group_318" data-name="Group 318"><path id="Path_736" data-name="Path 736" class="cls-1" d="M31,23.25v2.9a1,1,0,0,1-.95,1H28.61a1,1,0,0,1-1-.95h0V14.63a1.21,1.21,0,0,1,1.2-1.21h3.6c3.32,0,5.65,2,5.65,4.92s-2.33,4.91-5.69,4.91ZM31,16V20.7h1c1.69,0,2.76-1,2.74-2.37S33.61,16,31.92,16Z"/><path id="Path_737" data-name="Path 737" class="cls-1" d="M68.92,27.14V30a.78.78,0,0,1-.77.77H66.92a.78.78,0,0,1-.77-.77V18.91a1,1,0,0,1,1-1h3.53a4.28,4.28,0,0,1,4.29,4.6,4.4,4.4,0,0,1-4.32,4.6H68.92Zm0-6.81v4.42h.91c1.58,0,2.58-.91,2.56-2.21s-1-2.21-2.56-2.21Z"/><path id="Path_738" data-name="Path 738" class="cls-1" d="M99.62,27.14V30a.79.79,0,0,1-.77.77H97.62a.78.78,0,0,1-.77-.77V18.91a1,1,0,0,1,1-1h3.53a4.27,4.27,0,0,1,4.28,4.6,4.39,4.39,0,0,1-4.31,4.6H99.62Zm0-6.81v4.42h.91c1.58,0,2.57-.91,2.55-2.21a2.25,2.25,0,0,0-2.55-2.21Z"/><path id="Path_739" data-name="Path 739" class="cls-1" d="M45.85,18a.61.61,0,0,0-.61.61V22.9a1.63,1.63,0,1,1-3.25,0V18.59a.61.61,0,0,0-.6-.61H39.88a.61.61,0,0,0-.61.61V23.5c0,1.12.53,3.59,4.32,3.62h0c3.79,0,4.32-2.5,4.32-3.62V18.59a.61.61,0,0,0-.61-.61Z"/><path id="Path_740" data-name="Path 740" class="cls-1" d="M91,18a4.55,4.55,0,0,0-3.32,1.34,4.82,4.82,0,0,0-1.29,3.39,4.87,4.87,0,0,0,1.29,3.41,4.8,4.8,0,0,0,6.65,0,4.82,4.82,0,0,0,1.3-3.41A4.53,4.53,0,0,0,91,18Zm2.11,4.71a2.09,2.09,0,0,1-2.05,2.25,2.06,2.06,0,0,1-2-2.25,2,2,0,0,1,2-2.23A2.07,2.07,0,0,1,93.12,22.69Z"/><path id="Path_741" data-name="Path 741" class="cls-1" d="M65,22.69c0,.17,0,.4,0,.6a.5.5,0,0,1-.5.48h-6a2.06,2.06,0,0,0,2,1.63,2.68,2.68,0,0,0,1.61-.67.49.49,0,0,1,.6-.15l1.18.56a.51.51,0,0,1,.25.7l0,.09a4.64,4.64,0,0,1-3.64,1.52,4.53,4.53,0,0,1-4.7-4.79A4.51,4.51,0,0,1,60.46,18,4.41,4.41,0,0,1,65,22.69Zm-6.64-.49h4a2,2,0,0,0-2-2.16C59.21,20,58.48,20.91,58.33,22.2Z"/><path id="Path_742" data-name="Path 742" class="cls-1" d="M85.35,22.69c0,.17,0,.4,0,.6a.51.51,0,0,1-.51.48h-6a2.06,2.06,0,0,0,2,1.63,2.63,2.63,0,0,0,1.6-.67.5.5,0,0,1,.61-.15l1.18.56a.53.53,0,0,1,.25.7l-.06.09a4.6,4.6,0,0,1-3.63,1.52,4.53,4.53,0,0,1-4.7-4.79A4.5,4.5,0,0,1,80.83,18,4.42,4.42,0,0,1,85.35,22.69Zm-6.64-.49h4a2,2,0,0,0-2-2.16c-1.11,0-1.84.87-2,2.16Z"/><path id="Path_743" data-name="Path 743" class="cls-1" d="M120,22.69c0,.17,0,.4,0,.6a.5.5,0,0,1-.5.48h-6a2,2,0,0,0,2,1.63,2.65,2.65,0,0,0,1.6-.67c.13-.11.32-.3.6-.15l1.19.56a.52.52,0,0,1,.24.7.41.41,0,0,1,0,.09,4.64,4.64,0,0,1-3.64,1.52,4.53,4.53,0,0,1-4.7-4.79A4.51,4.51,0,0,1,115.49,18,4.41,4.41,0,0,1,120,22.69Zm-6.63-.49h4a2,2,0,0,0-2-2.16C114.24,20,113.52,20.91,113.37,22.2Z"/><path id="Path_744" data-name="Path 744" class="cls-1" d="M50.19,19.09a4.27,4.27,0,0,1,2-1,9.76,9.76,0,0,1,2.2-.2h.22a.51.51,0,0,1,.48.51v1.71c0,.52-.37.42-.93.45a3.18,3.18,0,0,0-1.85.51c-.64.58-.53,2.4-.53,3.14v2.36a.51.51,0,0,1-.51.51H49.61a.51.51,0,0,1-.51-.51V21.89A4,4,0,0,1,50.19,19.09Z"/><path id="Path_745" data-name="Path 745" class="cls-1" d="M107.44,13.32h1.49a.64.64,0,0,1,.64.64V26.52a.64.64,0,0,1-.64.64h-1.49a.64.64,0,0,1-.64-.64V14a.64.64,0,0,1,.64-.64Z"/><path id="Path_746" data-name="Path 746" class="cls-1" d="M11.66,31.65h-.23a11.92,11.92,0,1,1,.45,0Zm0-22.8a11.21,11.21,0,1,0,8,3.41l-.12-.13a11.12,11.12,0,0,0-7.65-3.28Z"/><path id="Path_747" data-name="Path 747" class="cls-1" d="M16.38,20.81a5.4,5.4,0,0,1-3.78,1.31h-.42v2.3a3.12,3.12,0,0,1-2.6,3.1,2.92,2.92,0,0,1-3.34-2.43,2.28,2.28,0,0,1,0-.45V16A1.46,1.46,0,0,1,6.52,15a1.44,1.44,0,0,1,1.09-.52h5.17a3.71,3.71,0,0,1,2.48.71,2.84,2.84,0,0,1,.81,2.27,2.48,2.48,0,0,1-.89,2.06,3.78,3.78,0,0,1-2.41.68H10.64v4.35A1.38,1.38,0,0,1,9.29,26a1.5,1.5,0,0,1-1-.41,1.48,1.48,0,0,1-.41-1l0-9.3h.44l0,9.3a1,1,0,0,0,.47.86,1.06,1.06,0,0,0,.34.12.92.92,0,0,0,1.09-1V19.78h2.57a3.35,3.35,0,0,0,2.14-.59,2.07,2.07,0,0,0,.72-1.72A2.49,2.49,0,0,0,15,15.54a3.38,3.38,0,0,0-2.2-.59H7.6a.92.92,0,0,0-.43.09,1,1,0,0,0-.54.88v8.66A2.52,2.52,0,0,0,9.1,27.12a2.64,2.64,0,0,0,2.64-2.62h0V21.68h.85a5,5,0,0,0,3.48-1.2,4.11,4.11,0,0,0,1.3-3.19,3.84,3.84,0,0,0-1.32-3.12A5.47,5.47,0,0,0,12.36,13H9.3a1,1,0,0,0-1,1h0v.21H7.88V14a1.41,1.41,0,0,1,1.41-1.41h3.06a5.94,5.94,0,0,1,4,1.25,4.27,4.27,0,0,1,1.46,3.45A4.49,4.49,0,0,1,16.38,20.81Z"/></g></svg>