<svg id="Camada_1" data-name="Camada 1" xmlns="http://www.w3.org/2000/svg" viewBox="0 0 148.96 40"><defs><style>.cls-1{fill:#fff;}</style></defs><path id="logo_mark" data-name="logo  mark" class="cls-1" d="M23,4.7a1.54,1.54,0,1,0-1.54-1.54A1.49,1.49,0,0,0,23,4.7Zm0,30.52a1.54,1.54,0,1,0,1.54,1.54A1.6,1.6,0,0,0,23,35.22ZM8.82,26.88A1.38,1.38,0,0,0,7.69,27a2.66,2.66,0,0,0-.73.89,1.41,1.41,0,0,0,.16,1.14,1.58,1.58,0,0,0,1.3.73,1.26,1.26,0,0,0,.73-.25,1.86,1.86,0,0,0,.73-.89,1.38,1.38,0,0,0-.16-1.13A1.29,1.29,0,0,0,8.82,26.88ZM37.89,10.12a1.38,1.38,0,0,0-1.13.16,1.57,1.57,0,0,0-.57,2.11,2.56,2.56,0,0,0,.89.73c.16,0,.24.08.4.08a1.3,1.3,0,0,0,.73-.24,1.89,1.89,0,0,0,.73-.89,1.41,1.41,0,0,0-.16-1.14A1.14,1.14,0,0,0,37.89,10.12ZM38.29,27a1.38,1.38,0,0,0-1.13-.16,1.68,1.68,0,0,0-.65.41l-2.75-1.62a2.13,2.13,0,0,0,.08-1.22,2.2,2.2,0,0,0-1-1.29A2.12,2.12,0,0,0,30,24a2.26,2.26,0,0,0-.24,1.62c0,.08,0,.08.08.16l-5.1,2.91a2,2,0,0,0-1.62-.73,2.38,2.38,0,0,0-1.62.73l-5.1-2.91c0-.08,0-.08.08-.16A1.86,1.86,0,0,0,16.19,24a2.2,2.2,0,0,0-1.29-1h-.17V17.09h.17a2.26,2.26,0,0,0,1.29-1,2.17,2.17,0,0,0,.24-1.62c0-.08,0-.08-.08-.16l5.1-2.91A2.13,2.13,0,0,0,25.18,10,2.11,2.11,0,0,0,21,10a2.4,2.4,0,0,0,.16.73L16,13.69a2.84,2.84,0,0,0-.57-.49A2.26,2.26,0,0,0,13.84,13a2.2,2.2,0,0,0-1.29,1,2.11,2.11,0,0,0,.81,2.91h0c.24.08.4.16.65.25V23c-.25.08-.49.08-.65.24a2.2,2.2,0,0,0-1,1.29,1.89,1.89,0,0,0,.24,1.62,2.2,2.2,0,0,0,1.29,1,1.29,1.29,0,0,0,.57.09,1.63,1.63,0,0,0,1-.33,1.06,1.06,0,0,0,.57-.48l5.1,2.91a2.4,2.4,0,0,0-.16.73,2.09,2.09,0,0,0,2.1,2.1A2.14,2.14,0,0,0,25.26,30a2.4,2.4,0,0,0-.16-.73l5.1-2.91a3.48,3.48,0,0,0,.56.48h0a2.72,2.72,0,0,0,1.06.33,2.2,2.2,0,0,0,1.62-.73l2.75,1.62a1.39,1.39,0,0,0,0,.81,1.18,1.18,0,0,0,.73.89,1.3,1.3,0,0,0,.73.24.72.72,0,0,0,.4-.08,1.16,1.16,0,0,0,.89-.73,1.38,1.38,0,0,0,.16-1.13A2.25,2.25,0,0,0,38.29,27ZM7.69,12.88a1.32,1.32,0,0,0,.73.24.72.72,0,0,0,.4-.08,1.19,1.19,0,0,0,.9-.73A1.55,1.55,0,1,0,7,10.77a1.38,1.38,0,0,0-.16,1.13A1.45,1.45,0,0,0,7.69,12.88Zm5-10.69a1.18,1.18,0,1,0-1.62-.41A1.26,1.26,0,0,0,12.71,2.19ZM33.27,37.81a1.19,1.19,0,0,0-.4,1.62,1.18,1.18,0,1,0,.4-1.62Zm-20.56,0a1.18,1.18,0,1,0,.41,1.62A1.18,1.18,0,0,0,12.71,37.81ZM33.27,2.19a1.18,1.18,0,0,0,1.62-.41,1.18,1.18,0,0,0-2-1.21A1.14,1.14,0,0,0,33.27,2.19Zm11.5,16.6A1.21,1.21,0,1,0,46,20,1.29,1.29,0,0,0,44.77,18.79Zm-43.56,0a1.21,1.21,0,0,0,0,2.42A1.24,1.24,0,0,0,2.43,20,1.3,1.3,0,0,0,1.21,18.79Zm30.44-1.7a1.83,1.83,0,0,0,1.06-.33A2.14,2.14,0,1,0,30.6,13h0a2.25,2.25,0,0,0-1,1.29A1.92,1.92,0,0,0,29.87,16,2,2,0,0,0,31.65,17.09Z"/><path id="logo_quanta" data-name="logo  quanta" class="cls-1" d="M69.22,23.16a7.71,7.71,0,0,0,.65-3.4A7.75,7.75,0,0,0,67.52,14a8.2,8.2,0,0,0-11.33,0,7.75,7.75,0,0,0-2.35,5.75,7.76,7.76,0,0,0,2.35,5.75,7.64,7.64,0,0,0,5.66,2.26,8,8,0,0,0,5.51-2.1L69.46,27l1.78-2.67Zm-2.75-1.78-1.86-1.22-1.79,2.67,1.87,1.22a4.78,4.78,0,0,1-2.84.89,4.71,4.71,0,0,1-3.48-1.38,5.21,5.21,0,0,1-1.29-3.72,5.25,5.25,0,0,1,1.29-3.73,4.41,4.41,0,0,1,3.48-1.37,4.68,4.68,0,0,1,3.48,1.37,5.11,5.11,0,0,1,1.3,3.73A10.19,10.19,0,0,1,66.47,21.38ZM83.55,22a3.3,3.3,0,0,1-.73,2.27,2.84,2.84,0,0,1-2,.81,2.58,2.58,0,0,1-2-.81A3.19,3.19,0,0,1,78,22V15.14H74.89v7.29a5.39,5.39,0,0,0,1.37,3.88,4.39,4.39,0,0,0,3.48,1.38c1.79,0,2.92-.32,3.89-1.38v1.22h3.16V15.22H83.63V22Zm33.27-6.8a4.7,4.7,0,0,0-3.88,1.38V15.39h-3.16V27.85h3.16V21a3.31,3.31,0,0,1,.73-2.27,2.87,2.87,0,0,1,2-.8,2.46,2.46,0,0,1,2,.8,3.18,3.18,0,0,1,.73,2.27v6.88h3.16V20.57a5.42,5.42,0,0,0-1.38-3.89A4.41,4.41,0,0,0,116.82,15.22Zm-15.78,0v1.22a6,6,0,0,0-3.89-1.38,5.46,5.46,0,0,0-4.21,1.78,6.54,6.54,0,0,0-1.7,4.62,6.5,6.5,0,0,0,1.7,4.61,5.43,5.43,0,0,0,4.21,1.78A6,6,0,0,0,101,26.56v1.13h3.15V15.22Zm-1,8.91a3.2,3.2,0,0,1-2.27,1,3.06,3.06,0,0,1-2.27-1,3.61,3.61,0,0,1-1-2.67,3.57,3.57,0,0,1,1-2.67,3.21,3.21,0,0,1,2.27-1,3.39,3.39,0,0,1,2.35,1,3.61,3.61,0,0,1,1,2.67A4.05,4.05,0,0,1,100.07,24.13Zm45.74-8.91v1.22a6,6,0,0,0-3.89-1.38,5.46,5.46,0,0,0-4.21,1.78,6.54,6.54,0,0,0-1.7,4.62,6.5,6.5,0,0,0,1.7,4.61,5.43,5.43,0,0,0,4.21,1.78,6,6,0,0,0,3.89-1.29v1.13H149V15.22Zm-1,8.91a3.2,3.2,0,0,1-2.27,1,3.06,3.06,0,0,1-2.27-1,3.61,3.61,0,0,1-1-2.67,3.57,3.57,0,0,1,1-2.67,2.73,2.73,0,0,1,2.19-1.06,3.42,3.42,0,0,1,2.35,1,3.65,3.65,0,0,1,1,2.68A3.72,3.72,0,0,1,144.84,24.13ZM130.67,25a1.5,1.5,0,0,1-1.54-1.7V18.14h3.32V15.55h-3.32V12.31h-3v11c0,3,1.7,4.45,4.29,4.37a6.23,6.23,0,0,0,2.43-.48L132,24.7A2.86,2.86,0,0,1,130.67,25Z"/></svg>