<svg aria-labelledby="logo-r7com" xmlns="http://www.w3.org/2000/svg" width="39.003" height="34.201" viewBox="0 0 710.44 622.969">
  <defs>
    <style>
      .logo-r7-svg{
        fill: #fff;
      }
      .show .logo-r7-svg{
        fill: #556373 !important;
      }
    </style>
  </defs>
  <path class="logo-r7-svg" d="M1728.61,489.533h-33.24v98.64h32.17q59.49,0,59.5-50.122Q1787.04,489.544,1728.61,489.533Zm486.76,164.676v-141.9c0-210.308-177.59-204.249-177.59-204.249H1709.23C1505,308.059,1505,494.544,1505,494.544V931s19.61-72.37,116.18-72.37h372.19C2226,858.63,2215.37,654.209,2215.37,654.209ZM1778.46,766.148l-83.09-115.8v115.8H1608V408.579h113.11q45.54,0,68.88,5.373a95.344,95.344,0,0,1,41,20.37q43.95,36.457,43.95,98.1,0,44.5-24.11,74.773-24.12,30.314-64.86,37.266l97.02,121.689H1778.46Zm346.82-287.34-125.97,287.34H1899.07L2030.94,485.78H1892.1v-77.2h233.18v70.229Z" transform="translate(-1505 -308.031)"></path>
</svg>