<svg id="Camada_1" data-name="Camada 1" xmlns="http://www.w3.org/2000/svg" viewBox="0 0 81.16 40"><defs><style>.cls-1{fill:#fff;}</style></defs><path class="cls-1" d="M73.29,14.2A1.74,1.74,0,1,0,75,15.94h0A1.73,1.73,0,0,0,73.29,14.2Z"/><path class="cls-1" d="M44.8,17.57c-2.59,0-4.72,2.43-4.72,5.32S42.2,28.2,44.8,28.2a4.69,4.69,0,0,0,3.68-1.54,1.11,1.11,0,0,0-.16-1.49h0a1.16,1.16,0,0,0-1.35.1,3.11,3.11,0,0,1-2.22,1A3,3,0,0,1,42,23.53h6a1.48,1.48,0,0,0,1.49-1.15,3.6,3.6,0,0,0-.12-.81A5,5,0,0,0,44.8,17.57ZM42,21.72a2.7,2.7,0,0,1,5.3,0Z"/><path class="cls-1" d="M39.11,17.57a3.85,3.85,0,0,0-3.61,1.34v-.09a1,1,0,0,0-1-.91h0a1,1,0,0,0-.91.9v8.23a1.14,1.14,0,0,0,1.06,1.06,1,1,0,0,0,1-.9V22.93a3.11,3.11,0,0,1,3-3.19h.57A1.42,1.42,0,0,0,40,18.58,1,1,0,0,0,39.11,17.57Z"/><path class="cls-1" d="M73.29,18.74a.9.9,0,0,0-.9.9h0v7.3a1,1,0,0,0,1,.9h0a.9.9,0,0,0,.9-.9V19.62a1,1,0,0,0-1-.9h0Z"/><path class="cls-1" d="M58.58,13.15a1,1,0,0,0-1.07.81v4.51a3.64,3.64,0,0,0-2.54-1c-2.58,0-4.73,2.44-4.73,5.31s2.11,5.32,4.73,5.32a3.63,3.63,0,0,0,2.65-1.06,1,1,0,0,0,1,.76,1,1,0,0,0,1-1h0V14a.9.9,0,0,0-.9-.86ZM55,26.09a3.08,3.08,0,0,1-2.8-3.29c0-1.8,1.16-3.37,2.71-3.37a3.14,3.14,0,0,1,2.79,3.37c0,1.84-1.25,3.35-2.7,3.25Z"/><path class="cls-1" d="M69,13.15a.9.9,0,0,0-1,.73A.22.22,0,0,0,68,14v4.51a3.6,3.6,0,0,0-2.59-1c-2.59,0-4.73,2.44-4.73,5.31s2.12,5.31,4.73,5.31A3.59,3.59,0,0,0,68,27.05a1,1,0,0,0,1,.76,1,1,0,0,0,.9-1V14A.89.89,0,0,0,69,13.15ZM65.27,26.09a3.06,3.06,0,0,1-2.8-3.29c0-1.8,1.26-3.37,2.8-3.37a3.14,3.14,0,0,1,2.8,3.37c0,1.84-1.16,3.35-2.8,3.25Z"/><path class="cls-1" d="M80.21,17.67h-.9V16.23a1.11,1.11,0,0,0-1-1.05,1,1,0,0,0-1.06.89h0v1.49h-.9a.9.9,0,0,0-.9.9,1,1,0,0,0,.9,1h.9v7.43a1,1,0,0,0,1,.94h0a.9.9,0,0,0,1.08-.65h0a1.89,1.89,0,0,0,0-.23V19.53h.9a.9.9,0,0,0,.9-.86h0a1,1,0,0,0-.94-1Z"/><path class="cls-1" d="M17,25a4.16,4.16,0,0,1-2.89.9,4,4,0,0,1-2.9-.9c-.19-.2-.38-.2-.49,0s-.19.39,0,.49a5.57,5.57,0,0,0,3.45,1,5.77,5.77,0,0,0,3.46-1c-.09-.1-.09-.3-.19-.49a.31.31,0,0,0-.42,0Z"/><circle class="cls-1" cx="17.2" cy="21.74" r="1.45"/><path class="cls-1" d="M13.62,6A13.93,13.93,0,0,0,0,20.22v.07A14.12,14.12,0,0,0,13.52,34a14,14,0,0,0,14.42-13.6v-.77A13.94,13.94,0,0,0,13.7,6h-.08Zm8.5,16.12v.58c0,3.18-3.67,5.68-8.2,5.68s-8.24-2.5-8.24-5.68v-.58a2.1,2.1,0,0,1-1.06-2.71,1.79,1.79,0,0,1,1.87-1.14,2,2,0,0,1,1.45.58,10.33,10.33,0,0,1,5.51-1.73l1.05-4.83a.35.35,0,0,1,.1-.19.38.38,0,0,1,.29-.1l3.38.81A1.45,1.45,0,1,1,19,14.73h0a1.3,1.3,0,0,1-.9-1.26l-3-.68-1,4.32a10.35,10.35,0,0,1,5.41,1.73,2.09,2.09,0,0,1,2.9,0,2,2,0,0,1,.58,1.45A1.48,1.48,0,0,1,22.12,22.12Z"/><circle class="cls-1" cx="10.83" cy="21.74" r="1.45"/></svg>