<svg id="Camada_1" data-name="Camada 1" xmlns="http://www.w3.org/2000/svg" viewBox="0 0 100 40"><defs><style>.cls-1{fill:#fff;}</style></defs><path class="cls-1" d="M90.35,12.86A2.14,2.14,0,1,0,92.49,15,2.14,2.14,0,0,0,90.35,12.86Z"/><path class="cls-1" d="M55.23,17C52,17,49.4,20,49.4,23.57s2.62,6.55,5.83,6.55a5.74,5.74,0,0,0,4.53-1.91,1.35,1.35,0,0,0-.21-1.88l0,0a1.43,1.43,0,0,0-1.67.12,3.73,3.73,0,0,1-2.74,1.19c-1.67,0-3-1.43-3.33-3.33h7.5a1.84,1.84,0,0,0,1.79-1.43,9.39,9.39,0,0,0-.13-1A6.16,6.16,0,0,0,55.23,17Zm-3.45,5.11a3.33,3.33,0,0,1,6.55,0Z"/><path class="cls-1" d="M48.21,17a4.76,4.76,0,0,0-4.4,1.66v-.12a1.2,1.2,0,0,0-2.39,0V28.69A1.39,1.39,0,0,0,42.62,30a1.21,1.21,0,0,0,1.3-1.14V23.57a3.82,3.82,0,0,1,4.17-3.93h.24a1.77,1.77,0,0,0,1-1.43A1.26,1.26,0,0,0,48.21,17Z"/><path class="cls-1" d="M90.35,18.45a1.07,1.07,0,0,0-1.07,1.08v9a1.18,1.18,0,0,0,1.29,1.07h0a1.07,1.07,0,0,0,1.07-1.07v-9a1.19,1.19,0,0,0-1.28-1.08Z"/><path class="cls-1" d="M72.26,11.55a1.18,1.18,0,0,0-1.31,1V18.1a4.5,4.5,0,0,0-3.22-1.2c-3.21,0-5.83,3-5.83,6.55S64.52,30,67.73,30A4.41,4.41,0,0,0,71,28.69a1.27,1.27,0,0,0,1.19.95,1.19,1.19,0,0,0,1.19-1.19V12.62A1.07,1.07,0,0,0,72.26,11.55Zm-4.53,16c-1.9,0-3.45-1.79-3.45-4.05s1.43-4.16,3.34-4.16,3.44,1.9,3.44,4.16S69.52,27.62,67.73,27.5Z"/><path class="cls-1" d="M85.11,11.55a1.17,1.17,0,0,0-1.3,1V18.1a4.48,4.48,0,0,0-3.21-1.2c-3.21,0-5.83,3-5.83,6.55S77.38,30,80.59,30a4.38,4.38,0,0,0,3.21-1.31,1.29,1.29,0,0,0,1.19.95,1.2,1.2,0,0,0,1.2-1.19V12.62A1.07,1.07,0,0,0,85.11,11.55Zm-4.64,16c-1.91,0-3.45-1.79-3.45-4.05s1.54-4.16,3.45-4.16,3.45,1.9,3.45,4.16S82.49,27.62,80.47,27.5Z"/><path class="cls-1" d="M98.92,17.14H97.73V15.36a1.38,1.38,0,0,0-1.19-1.31,1.22,1.22,0,0,0-1.31,1.14V17H94.16a1.07,1.07,0,0,0-1.07,1.07,1.19,1.19,0,0,0,1.07,1.19h1.07v9.16a1.19,1.19,0,0,0,1.19,1.19,1.13,1.13,0,0,0,1.43-1.07V19.4h1.07A1.07,1.07,0,0,0,100,18.33h0A1.19,1.19,0,0,0,98.92,17.14Z"/><path class="cls-1" d="M21,26.19c-.71.83-2.38,1.07-3.57,1.07s-2.85-.24-3.57-1.07c-.24-.24-.47-.24-.6,0s-.23.48,0,.6c1.2,1.18,3.58,1.31,4.29,1.31a7.06,7.06,0,0,0,4.29-1.31c-.12-.12-.12-.36-.24-.6S21.07,26,21,26.19Z"/><circle class="cls-1" cx="21.19" cy="22.14" r="1.79"/><path class="cls-1" d="M16.78,2.74A17.16,17.16,0,0,0,0,20.29v.07a17.41,17.41,0,0,0,16.66,16.9A17.28,17.28,0,0,0,34.4,20.48v-.95A17.17,17.17,0,0,0,16.85,2.74ZM27.26,22.62v.71c0,3.93-4.52,7-10.12,7S7,27.26,7,23.33v-.71a2.58,2.58,0,0,1-1.32-3.33A2.18,2.18,0,0,1,8,17.86a2.43,2.43,0,0,1,1.78.71,12.65,12.65,0,0,1,6.79-2.14l1.3-5.95a.44.44,0,0,1,.13-.24.41.41,0,0,1,.35-.12l4.17,1a1.78,1.78,0,1,1,.84,2.38,1.6,1.6,0,0,1-1-1.55l-3.69-.83L17.5,16.43a12.65,12.65,0,0,1,6.66,2.14,2.6,2.6,0,0,1,3.58,0,2.43,2.43,0,0,1,.71,1.79A1.82,1.82,0,0,1,27.26,22.62Z"/><circle class="cls-1" cx="13.34" cy="22.14" r="1.79"/></svg>