<svg id="Camada_1" data-name="Camada 1" xmlns="http://www.w3.org/2000/svg" viewBox="0 0 94 40"><defs><style>.cls-1{fill:#fff;}</style></defs><path class="cls-1" d="M84.93,13.29a2,2,0,1,0,2,2h0A2,2,0,0,0,84.93,13.29Z"/><path class="cls-1" d="M51.92,17.18c-3,0-5.48,2.82-5.48,6.17s2.46,6.16,5.48,6.16a5.43,5.43,0,0,0,4.26-1.79A1.28,1.28,0,0,0,56,26h0a1.34,1.34,0,0,0-1.57.11,3.51,3.51,0,0,1-2.58,1.12,3.42,3.42,0,0,1-3.13-3.13h7a1.73,1.73,0,0,0,1.69-1.34c0-.32-.07-.63-.13-.94A5.78,5.78,0,0,0,51.92,17.18ZM48.68,22a3.13,3.13,0,0,1,6.15,0Z"/><path class="cls-1" d="M45.32,17.18a4.47,4.47,0,0,0-4.14,1.56v-.11a1.12,1.12,0,0,0-1.22-1,1.13,1.13,0,0,0-1,1v9.54a1.3,1.3,0,0,0,1.13,1.23,1.14,1.14,0,0,0,1.22-1v-5a3.58,3.58,0,0,1,3.47-3.7,3.38,3.38,0,0,1,.45,0h.22a1.64,1.64,0,0,0,.94-1.34A1.18,1.18,0,0,0,45.32,17.18Z"/><path class="cls-1" d="M84.93,18.54a1,1,0,0,0-1,1h0V28a1.11,1.11,0,0,0,1.21,1h0a1,1,0,0,0,1-1V19.56a1.12,1.12,0,0,0-1.2-1Z"/><path class="cls-1" d="M67.93,12.06a1.11,1.11,0,0,0-1.24.94v5.21a4.21,4.21,0,0,0-3-1.12c-3,0-5.48,2.82-5.48,6.15s2.46,6.16,5.48,6.16a4.15,4.15,0,0,0,3.07-1.23,1.2,1.2,0,0,0,1.12.89A1.12,1.12,0,0,0,69,27.94h0V13.06a1,1,0,0,0-1-1Zm-4.26,15a3.56,3.56,0,0,1-3.25-3.81c0-2.13,1.35-3.91,3.14-3.91s3.24,1.78,3.24,3.91-1.45,3.87-3.13,3.76Z"/><path class="cls-1" d="M80,12.06a1.09,1.09,0,0,0-1.22.94v5.21a4.19,4.19,0,0,0-3-1.12c-3,0-5.48,2.82-5.48,6.15s2.46,6.16,5.48,6.16a4.1,4.1,0,0,0,3-1.23,1.21,1.21,0,0,0,1.12.89A1.13,1.13,0,0,0,81,27.94V13.06a1,1,0,0,0-1-1Zm-4.36,15a3.55,3.55,0,0,1-3.24-3.81c0-2.13,1.45-3.91,3.24-3.91s3.25,1.78,3.25,3.91-1.35,3.87-3.25,3.76Z"/><path class="cls-1" d="M93,17.31H91.87V15.64a1.29,1.29,0,0,0-1.12-1.23,1.14,1.14,0,0,0-1.23,1.05v1.72h-1a1,1,0,0,0-1,1,1.12,1.12,0,0,0,1,1.12h1v8.61A1.12,1.12,0,0,0,90.63,29h0a1.05,1.05,0,0,0,1.31-.74A1.17,1.17,0,0,0,92,28V19.44h1a1,1,0,0,0,1-1h0A1.12,1.12,0,0,0,93,17.31Z"/><path class="cls-1" d="M19.74,25.82c-.66.78-2.23,1-3.35,1s-2.68-.22-3.36-1c-.22-.23-.44-.23-.56,0s-.22.45,0,.56c1.13,1.11,3.36,1.23,4,1.23a6.6,6.6,0,0,0,4-1.23c-.11-.11-.11-.34-.22-.56A.34.34,0,0,0,19.74,25.82Z"/><circle class="cls-1" cx="19.92" cy="22.01" r="1.68"/><path class="cls-1" d="M15.78,3.78A16.13,16.13,0,0,0,0,20.25v.09A16.36,16.36,0,0,0,15.66,36.22,16.25,16.25,0,0,0,32.34,20.45v-.89A16.14,16.14,0,0,0,15.85,3.78h-.07Zm9.85,18.68v.67c0,3.69-4.25,6.58-9.51,6.58s-9.54-2.89-9.54-6.58v-.67a2.44,2.44,0,0,1-1.24-3.13A2.05,2.05,0,0,1,7.52,18a2.29,2.29,0,0,1,1.68.66,12,12,0,0,1,6.38-2l1.22-5.59a.43.43,0,0,1,.12-.22.41.41,0,0,1,.33-.12l3.92.94A1.68,1.68,0,1,1,22,13.89,1.51,1.51,0,0,1,21,12.43l-3.47-.78-1.1,5a11.92,11.92,0,0,1,6.26,2,2.46,2.46,0,0,1,3.37,0,2.36,2.36,0,0,1,.67,1.69A1.71,1.71,0,0,1,25.63,22.46Z"/><circle class="cls-1" cx="12.54" cy="22.01" r="1.68"/></svg>