<svg id="Camada_1" data-name="Camada 1" xmlns="http://www.w3.org/2000/svg" viewBox="0 0 100 40"><defs><style>.cls-1{fill:#fff;}</style></defs><title>reuters</title><path id="rtv" class="cls-1" d="M45.54,24.78H43.89c-.15,0-.2-.14-.27-.27l-1.94-3.27h-.3c-.35,0-1.44,0-1.75-.06v3.32a.26.26,0,0,1-.26.27H38a.27.27,0,0,1-.27-.27V15.68c0-.27.16-.36.43-.4a27.55,27.55,0,0,1,3.19-.17c2.08,0,4,.74,4,3v.12a2.59,2.59,0,0,1-1.82,2.64l2.11,3.61a.17.17,0,0,1,0,.11.15.15,0,0,1-.16.16Zm-2-6.64c0-1-.78-1.44-2.13-1.44-.28,0-1.51,0-1.75.05v2.92l1.75,0c1.39,0,2.13-.27,2.13-1.45v-.12Zm5.78,4c0,1.13,0,1.16,1.06,1.16h3.41a.27.27,0,0,1,.27.27v.86c0,.19-.07.26-.27.28a18.08,18.08,0,0,1-2.91.19c-2.24,0-3.42,0-3.42-2.76V17.86c0-2.78,1.19-2.76,3.42-2.76a18.21,18.21,0,0,1,2.91.19c.2,0,.27.09.27.28v.86a.27.27,0,0,1-.27.27H50.36c-1,0-1.06,0-1.06,1.16V19.1h4.31a.27.27,0,0,1,.27.27v1a.27.27,0,0,1-.27.27H49.29v1.52Zm10.8,2.76c-2.17,0-4-.94-4-3.82V15.47a.26.26,0,0,1,.27-.26h1.33a.26.26,0,0,1,.27.26v5.61c0,1.54.71,2.27,2.16,2.27s2.17-.73,2.17-2.27V15.47a.26.26,0,0,1,.27-.26h1.34a.26.26,0,0,1,.27.26v5.61c0,2.87-1.87,3.82-4,3.82ZM73,16.77H70.31v7.74a.27.27,0,0,1-.27.27H68.7a.27.27,0,0,1-.27-.27V16.77H65.74a.25.25,0,0,1-.27-.24V15.47a.26.26,0,0,1,.27-.26H73a.26.26,0,0,1,.27.26v1.06a.25.25,0,0,1-.27.24Zm18.31,8H89.66c-.15,0-.2-.14-.27-.27l-1.94-3.27h-.3c-.35,0-1.44,0-1.75-.06v3.32a.26.26,0,0,1-.25.27H83.8a.27.27,0,0,1-.27-.27V15.68c0-.27.16-.36.43-.4a27.53,27.53,0,0,1,3.19-.17c2.08,0,4,.74,4,3v.12a2.59,2.59,0,0,1-1.82,2.64l2.12,3.61a.18.18,0,0,1,0,.11.15.15,0,0,1-.16.16Zm-2-6.64c0-1-.78-1.44-2.14-1.44-.28,0-1.51,0-1.75.05v2.92l1.75,0c1.39,0,2.14-.27,2.14-1.45v-.12Zm7.17,6.75a14.72,14.72,0,0,1-3-.35.29.29,0,0,1-.26-.27v-1a.26.26,0,0,1,.26-.26h0a24.52,24.52,0,0,0,3,.24c1.2,0,1.57-.43,1.57-1.21,0-1-2.41-1.57-3.59-2.06a2.41,2.41,0,0,1-1.59-2.36c0-1.48,1.19-2.56,3.7-2.56a13.28,13.28,0,0,1,2.92.35.27.27,0,0,1,.24.26v1a.23.23,0,0,1-.23.24h0a29,29,0,0,0-3-.24c-1,0-1.75.35-1.75,1,0,.44.51.85,1.1,1.09l2.28.9A2.48,2.48,0,0,1,100,22.08c0,1.36-.85,2.82-3.55,2.82ZM76.52,22.13c0,1.13,0,1.16,1.06,1.16H81a.27.27,0,0,1,.27.27v.86c0,.19-.07.26-.27.28a18.15,18.15,0,0,1-2.91.19c-2.24,0-3.43,0-3.43-2.76V17.86c0-2.78,1.18-2.76,3.43-2.76a18.28,18.28,0,0,1,2.91.19c.2,0,.27.09.27.28v.86a.27.27,0,0,1-.27.27H77.58c-1,0-1.06,0-1.06,1.16V19.1h4.32a.27.27,0,0,1,.27.27v1a.27.27,0,0,1-.27.27H76.52v1.52Z"/><g id="kinesis"><path id="rtv-1-path" class="cls-1" d="M14.67,33.75a.62.62,0,1,0,.62-.62.62.62,0,0,0-.62.62"/><path id="rtv-1-path-2" data-name="rtv-1-path" class="cls-1" d="M11.09,33.11a.66.66,0,1,0,.81-.47l-.17,0a.67.67,0,0,0-.64.49"/><path id="rtv-1-path-3" data-name="rtv-1-path" class="cls-1" d="M18.67,32.64a.67.67,0,1,0,.17,0l-.17,0"/><path id="rtv-1-path-4" data-name="rtv-1-path" class="cls-1" d="M7.58,31.73a.85.85,0,1,0,1-.65l-.18,0a.85.85,0,0,0-.83.67"/><path id="rtv-1-path-5" data-name="rtv-1-path" class="cls-1" d="M22,31.08a.85.85,0,1,0,.18,0l-.18,0"/><path id="rtv-1-path-6" data-name="rtv-1-path" class="cls-1" d="M4.55,29.56a1,1,0,1,0,1.18-.85H5.56a1,1,0,0,0-1,.87"/><path id="rtv-1-path-7" data-name="rtv-1-path" class="cls-1" d="M24.85,28.71a1,1,0,1,0,.16,0h-.16"/><path id="rtv-1-path-8" data-name="rtv-1-path" class="cls-1" d="M27.06,25.6a1.28,1.28,0,1,0,.14,0h-.14"/><path id="rtv-1-path-9" data-name="rtv-1-path" class="cls-1" d="M2.11,26.74A1.28,1.28,0,1,0,3.51,25.6H3.38a1.28,1.28,0,0,0-1.27,1.15"/><path id="rtv-1-path-10" data-name="rtv-1-path" class="cls-1" d="M.59,23.48a1.42,1.42,0,1,0,1.49-1.34H2A1.42,1.42,0,0,0,.59,23.48"/><path id="rtv-1-path-11" data-name="rtv-1-path" class="cls-1" d="M28.49,22.15a1.42,1.42,0,1,0,.07,0h-.07"/><path id="rtv-1-path-12" data-name="rtv-1-path" class="cls-1" d="M0,20a1.54,1.54,0,1,0,1.54-1.54A1.54,1.54,0,0,0,0,20"/><path id="rtv-1-path-13" data-name="rtv-1-path" class="cls-1" d="M27.5,20A1.54,1.54,0,1,0,29,18.46,1.54,1.54,0,0,0,27.5,20"/><path id="rtv-1-path-14" data-name="rtv-1-path" class="cls-1" d="M1.93,15A1.42,1.42,0,1,0,2,15H1.93"/><path id="rtv-1-path-15" data-name="rtv-1-path" class="cls-1" d="M27.16,16.37A1.41,1.41,0,1,0,28.64,15h-.08a1.41,1.41,0,0,0-1.41,1.34"/><path id="rtv-1-path-16" data-name="rtv-1-path" class="cls-1" d="M25.92,13a1.28,1.28,0,1,0,1.41-1.14h-.14A1.28,1.28,0,0,0,25.92,13"/><path id="rtv-1-path-17" data-name="rtv-1-path" class="cls-1" d="M3.25,11.85a1.28,1.28,0,1,0,.14,0H3.25"/><path id="rtv-1-path-18" data-name="rtv-1-path" class="cls-1" d="M24,10.12a1,1,0,1,0,1.18-.85H25a1,1,0,0,0-1,.87"/><path id="rtv-1-path-19" data-name="rtv-1-path" class="cls-1" d="M5.4,9.26a1,1,0,1,0,.16,0H5.4"/><path id="rtv-1-path-20" data-name="rtv-1-path" class="cls-1" d="M21.33,7.91a.85.85,0,1,0,1-.65l-.18,0a.85.85,0,0,0-.83.67"/><path id="rtv-1-path-21" data-name="rtv-1-path" class="cls-1" d="M8.24,7.26a.85.85,0,1,0,.18,0l-.18,0"/><path id="rtv-1-path-22" data-name="rtv-1-path" class="cls-1" d="M18.2,6.55A.66.66,0,1,0,19,6.08l-.17,0a.66.66,0,0,0-.64.49"/><path id="rtv-1-path-23" data-name="rtv-1-path" class="cls-1" d="M11.56,6.08a.66.66,0,1,0,.17,0l-.17,0"/><path id="rtv-1-path-24" data-name="rtv-1-path" class="cls-1" d="M14.67,6.25a.62.62,0,1,0,.62-.62.62.62,0,0,0-.62.62"/><path id="rtv-2-path" class="cls-1" d="M16.4,8.69a.66.66,0,1,0,.13,0H16.4"/><path id="rtv-2-path-2" data-name="rtv-2-path" class="cls-1" d="M13.66,8.87a.52.52,0,1,0,.08,0h-.08"/><path id="rtv-2-path-3" data-name="rtv-2-path" class="cls-1" d="M19.05,9.25a.8.8,0,1,0,.2,0l-.2,0"/><path id="rtv-2-path-4" data-name="rtv-2-path" class="cls-1" d="M10.85,9.7a.48.48,0,1,0,.19,0,.48.48,0,0,0-.19,0"/><path id="rtv-2-path-5" data-name="rtv-2-path" class="cls-1" d="M21.4,10.44a1,1,0,1,0,.3,0,1,1,0,0,0-.3,0"/><path id="rtv-2-path-6" data-name="rtv-2-path" class="cls-1" d="M8.31,11.17a.52.52,0,1,0,.32-.11.52.52,0,0,0-.32.11"/><path id="rtv-2-path-7" data-name="rtv-2-path" class="cls-1" d="M23.33,12.31a1.1,1.1,0,1,0,.38-.07,1.1,1.1,0,0,0-.38.07"/><path id="rtv-2-path-8" data-name="rtv-2-path" class="cls-1" d="M6.29,13a.66.66,0,1,0,.38-.12.66.66,0,0,0-.38.12"/><path id="rtv-2-path-9" data-name="rtv-2-path" class="cls-1" d="M24.67,14.65a1.2,1.2,0,1,0,.47-.1,1.2,1.2,0,0,0-.47.1"/><path id="rtv-2-path-10" data-name="rtv-2-path" class="cls-1" d="M4.88,15.36a.8.8,0,1,0,.43-.12.8.8,0,0,0-.43.12"/><path id="rtv-2-path-11" data-name="rtv-2-path" class="cls-1" d="M25.42,17.46a1.11,1.11,0,1,0,.49-.11,1.1,1.1,0,0,0-.49.11"/><path id="rtv-2-path-12" data-name="rtv-2-path" class="cls-1" d="M4.14,17.88a1,1,0,1,0,.49-.13,1,1,0,0,0-.49.13"/><path id="rtv-2-path-13" data-name="rtv-2-path" class="cls-1" d="M25.46,20.38a1,1,0,1,0,.49-.13,1,1,0,0,0-.49.13"/><path id="rtv-2-path-14" data-name="rtv-2-path" class="cls-1" d="M4.17,20.57a1.1,1.1,0,1,0,.49-.12,1.1,1.1,0,0,0-.49.12"/><path id="rtv-2-path-15" data-name="rtv-2-path" class="cls-1" d="M5,23.15a1.2,1.2,0,1,0,.47-.1,1.2,1.2,0,0,0-.47.1"/><path id="rtv-2-path-16" data-name="rtv-2-path" class="cls-1" d="M24.83,23.29a.8.8,0,1,0,.43-.12.8.8,0,0,0-.43.12"/><path id="rtv-2-path-17" data-name="rtv-2-path" class="cls-1" d="M6.48,25.62a1.1,1.1,0,1,0,.38-.07,1.1,1.1,0,0,0-.38.07"/><path id="rtv-2-path-18" data-name="rtv-2-path" class="cls-1" d="M23.52,25.87a.66.66,0,1,0,.38-.12.66.66,0,0,0-.38.12"/><path id="rtv-2-path-19" data-name="rtv-2-path" class="cls-1" d="M8.58,27.65a1,1,0,1,0,.3,0,1,1,0,0,0-.3,0"/><path id="rtv-2-path-20" data-name="rtv-2-path" class="cls-1" d="M21.62,28a.52.52,0,1,0,.32-.11.53.53,0,0,0-.32.11"/><path id="rtv-2-path-21" data-name="rtv-2-path" class="cls-1" d="M11.13,29.2a.8.8,0,1,0,.2,0l-.2,0"/><path id="rtv-2-path-22" data-name="rtv-2-path" class="cls-1" d="M19.35,29.41a.48.48,0,1,0,.19,0,.47.47,0,0,0-.19,0"/><path id="rtv-2-path-23" data-name="rtv-2-path" class="cls-1" d="M13.91,30A.67.67,0,1,0,14,30h-.13"/><path id="rtv-2-path-24" data-name="rtv-2-path" class="cls-1" d="M16.77,30.11a.53.53,0,1,0,.08,0h-.08"/><path id="rtv-3-path" class="cls-1" d="M15.76,11.4a.77.77,0,1,0,.56-.24.77.77,0,0,0-.56.24"/><path id="rtv-3-path-2" data-name="rtv-3-path" class="cls-1" d="M13.34,11.58a.6.6,0,1,0,.44-.19.6.6,0,0,0-.44.19"/><path id="rtv-3-path-3" data-name="rtv-3-path" class="cls-1" d="M18.14,12a.86.86,0,1,0,.63-.27.86.86,0,0,0-.63.27"/><path id="rtv-3-path-4" data-name="rtv-3-path" class="cls-1" d="M11,12.52a.49.49,0,1,0,.36-.15.49.49,0,0,0-.36.15"/><path id="rtv-3-path-5" data-name="rtv-3-path" class="cls-1" d="M20.15,13.39a1,1,0,0,0,1.44,1.36,1,1,0,0,0-.72-1.68,1,1,0,0,0-.72.31"/><path id="rtv-3-path-6" data-name="rtv-3-path" class="cls-1" d="M9.09,14.17a.36.36,0,1,0,.52,0,.37.37,0,0,0-.25-.1.36.36,0,0,0-.26.11"/><path id="rtv-3-path-7" data-name="rtv-3-path" class="cls-1" d="M21.8,15.5a.86.86,0,1,0,1.22,0,.85.85,0,0,0-.59-.23.87.87,0,0,0-.63.27"/><path id="rtv-3-path-8" data-name="rtv-3-path" class="cls-1" d="M7.57,16.18a.48.48,0,0,0,0,.69.49.49,0,1,0,.67-.71A.48.48,0,0,0,7.92,16a.49.49,0,0,0-.36.15"/><path id="rtv-3-path-9" data-name="rtv-3-path" class="cls-1" d="M22.73,18a.77.77,0,1,0,.56-.24.76.76,0,0,0-.56.24"/><path id="rtv-3-path-10" data-name="rtv-3-path" class="cls-1" d="M6.77,18.55a.6.6,0,1,0,.44-.19.6.6,0,0,0-.44.19"/><path id="rtv-3-path-11" data-name="rtv-3-path" class="cls-1" d="M22.92,20.62a.61.61,0,1,0,.44-.19.6.6,0,0,0-.44.19"/><path id="rtv-3-path-12" data-name="rtv-3-path" class="cls-1" d="M6.73,21a.77.77,0,1,0,1.08,0,.76.76,0,0,0-.52-.21.77.77,0,0,0-.56.24"/><path id="rtv-3-path-13" data-name="rtv-3-path" class="cls-1" d="M22.3,23.14a.49.49,0,1,0,.36-.15.49.49,0,0,0-.36.15"/><path id="rtv-3-path-14" data-name="rtv-3-path" class="cls-1" d="M7.52,23.32a.86.86,0,1,0,1.22,0,.85.85,0,0,0-.59-.23.87.87,0,0,0-.63.27"/><path id="rtv-3-path-15" data-name="rtv-3-path" class="cls-1" d="M9,25.25a1,1,0,1,0,.72-.31,1,1,0,0,0-.72.31"/><path id="rtv-3-path-16" data-name="rtv-3-path" class="cls-1" d="M21,25.33a.37.37,0,0,0,0,.52.36.36,0,0,0,.51,0,.36.36,0,0,0-.26-.61.36.36,0,0,0-.27.12"/><path id="rtv-3-path-17" data-name="rtv-3-path" class="cls-1" d="M11.18,26.78a.86.86,0,1,0,.63-.27.86.86,0,0,0-.63.27"/><path id="rtv-3-path-18" data-name="rtv-3-path" class="cls-1" d="M18.85,26.81a.49.49,0,1,0,.35-.15.49.49,0,0,0-.35.15"/><path id="rtv-3-path-19" data-name="rtv-3-path" class="cls-1" d="M13.7,27.55a.77.77,0,1,0,.56-.24.76.76,0,0,0-.56.24"/><path id="rtv-3-path-20" data-name="rtv-3-path" class="cls-1" d="M16.36,27.59a.61.61,0,1,0,.44-.19.61.61,0,0,0-.44.19"/><path id="rtv-4-path" class="cls-1" d="M14.47,13.7a.67.67,0,1,0,.84-.45l-.19,0a.67.67,0,0,0-.64.48"/><path id="rtv-4-path-2" data-name="rtv-4-path" class="cls-1" d="M16.27,13.92a.77.77,0,1,0,1-.53.79.79,0,0,0-.22,0,.77.77,0,0,0-.74.56"/><path id="rtv-4-path-3" data-name="rtv-4-path" class="cls-1" d="M12.66,14.08a.6.6,0,1,0,.74-.4l-.17,0a.6.6,0,0,0-.58.43"/><path id="rtv-4-path-4" data-name="rtv-4-path" class="cls-1" d="M18.09,14.77a.67.67,0,1,0,.84-.46l-.19,0a.68.68,0,0,0-.65.49"/><path id="rtv-4-path-5" data-name="rtv-4-path" class="cls-1" d="M11.11,15a.47.47,0,0,0,.32.58.47.47,0,1,0,.26-.9l-.13,0a.47.47,0,0,0-.45.34"/><path id="rtv-4-path-6" data-name="rtv-4-path" class="cls-1" d="M19.55,16.1a.6.6,0,1,0,.74-.4l-.17,0a.6.6,0,0,0-.57.43"/><path id="rtv-4-path-7" data-name="rtv-4-path" class="cls-1" d="M9.88,16.44a.38.38,0,1,0,.47-.26h-.1a.38.38,0,0,0-.37.27"/><path id="rtv-4-path-8" data-name="rtv-4-path" class="cls-1" d="M20.59,17.81a.47.47,0,1,0,.59-.32l-.13,0a.47.47,0,0,0-.45.34"/><path id="rtv-4-path-9" data-name="rtv-4-path" class="cls-1" d="M9.15,18.2A.28.28,0,1,0,9.51,18H9.43a.28.28,0,0,0-.27.2"/><path id="rtv-4-path-10" data-name="rtv-4-path" class="cls-1" d="M21,19.72a.38.38,0,0,0,.73.21.38.38,0,0,0-.26-.47H21.4a.38.38,0,0,0-.37.27"/><path id="rtv-4-path-11" data-name="rtv-4-path" class="cls-1" d="M8.81,20.07a.38.38,0,1,0,.48-.26l-.11,0a.39.39,0,0,0-.37.27"/><path id="rtv-4-path-12" data-name="rtv-4-path" class="cls-1" d="M20.88,21.64a.29.29,0,0,0,.19.35.28.28,0,0,0,.16-.55h-.08a.29.29,0,0,0-.27.21"/><path id="rtv-4-path-13" data-name="rtv-4-path" class="cls-1" d="M9.08,21.92a.47.47,0,1,0,.9.26.46.46,0,0,0-.32-.58l-.14,0a.46.46,0,0,0-.45.34"/><path id="rtv-4-path-14" data-name="rtv-4-path" class="cls-1" d="M20,23.34a.38.38,0,1,0,.47-.26h-.11a.38.38,0,0,0-.37.27"/><path id="rtv-4-path-15" data-name="rtv-4-path" class="cls-1" d="M9.88,23.56A.6.6,0,0,0,11,23.9a.6.6,0,0,0-.41-.75l-.17,0a.6.6,0,0,0-.57.43"/><path id="rtv-4-path-16" data-name="rtv-4-path" class="cls-1" d="M18.57,24.71a.48.48,0,0,0,.32.58.47.47,0,0,0,.27-.9l-.13,0a.48.48,0,0,0-.45.34"/><path id="rtv-4-path-17" data-name="rtv-4-path" class="cls-1" d="M11.2,24.86A.67.67,0,1,0,12,24.4l-.19,0a.67.67,0,0,0-.64.49"/><path id="rtv-4-path-18" data-name="rtv-4-path" class="cls-1" d="M12.83,25.64a.77.77,0,1,0,1-.52.79.79,0,0,0-.22,0,.77.77,0,0,0-.74.55"/><path id="rtv-4-path-19" data-name="rtv-4-path" class="cls-1" d="M16.77,25.59a.6.6,0,1,0,.74-.4l-.17,0a.6.6,0,0,0-.57.43"/><path id="rtv-4-path-20" data-name="rtv-4-path" class="cls-1" d="M14.82,25.92a.67.67,0,1,0,.84-.46l-.19,0a.67.67,0,0,0-.65.48"/><path id="rtv-5-path" class="cls-1" d="M14.24,15.15a.53.53,0,1,0,.25-.06.52.52,0,0,0-.25.06"/><path id="rtv-5-path-2" data-name="rtv-5-path" class="cls-1" d="M15.66,15.17a.46.46,0,1,0,.23-.06.46.46,0,0,0-.23.06"/><path id="rtv-5-path-3" data-name="rtv-5-path" class="cls-1" d="M12.89,15.55a.6.6,0,1,0,.29-.07.6.6,0,0,0-.29.07"/><path id="rtv-5-path-4" data-name="rtv-5-path" class="cls-1" d="M17,15.62a.42.42,0,0,0-.17.56.41.41,0,1,0,.36-.61.4.4,0,0,0-.19,0"/><path id="rtv-5-path-5" data-name="rtv-5-path" class="cls-1" d="M11.82,16.46a.53.53,0,1,0,.25-.06.5.5,0,0,0-.25.06"/><path id="rtv-5-path-6" data-name="rtv-5-path" class="cls-1" d="M18.2,16.46a.36.36,0,0,0-.15.48.35.35,0,1,0,.62-.34.36.36,0,0,0-.31-.19.34.34,0,0,0-.17,0"/><path id="rtv-5-path-7" data-name="rtv-5-path" class="cls-1" d="M19.07,17.62A.3.3,0,0,0,19,18a.29.29,0,0,0,.51-.28.3.3,0,0,0-.26-.16.31.31,0,0,0-.14,0"/><path id="rtv-5-path-8" data-name="rtv-5-path" class="cls-1" d="M11.05,17.66a.47.47,0,1,0,.44.83.47.47,0,0,0,.19-.64.48.48,0,0,0-.42-.25.47.47,0,0,0-.22.06"/><path id="rtv-5-path-9" data-name="rtv-5-path" class="cls-1" d="M19.51,18.88a.35.35,0,0,0,.33.63A.37.37,0,0,0,20,19a.36.36,0,0,0-.31-.18.34.34,0,0,0-.17,0"/><path id="rtv-5-path-10" data-name="rtv-5-path" class="cls-1" d="M10.68,19a.41.41,0,0,0,.39.72.42.42,0,0,0,.17-.56.41.41,0,0,0-.36-.22.42.42,0,0,0-.2.05"/><path id="rtv-5-path-11" data-name="rtv-5-path" class="cls-1" d="M19.51,20.23a.41.41,0,1,0,.39.72.41.41,0,0,0,.16-.56.41.41,0,0,0-.36-.22.42.42,0,0,0-.2,0"/><path id="rtv-5-path-12" data-name="rtv-5-path" class="cls-1" d="M10.74,20.49a.36.36,0,0,0-.14.48.35.35,0,0,0,.62-.34.36.36,0,0,0-.31-.18.36.36,0,0,0-.17,0"/><path id="rtv-5-path-13" data-name="rtv-5-path" class="cls-1" d="M19.08,21.51a.47.47,0,1,0,.22-.06.47.47,0,0,0-.22.06"/><path id="rtv-5-path-14" data-name="rtv-5-path" class="cls-1" d="M11.23,21.85a.29.29,0,0,0-.12.4.29.29,0,1,0,.26-.44.28.28,0,0,0-.14,0"/><path id="rtv-5-path-15" data-name="rtv-5-path" class="cls-1" d="M18.26,22.61a.53.53,0,1,0,.72.21.54.54,0,0,0-.47-.28.51.51,0,0,0-.25.06"/><path id="rtv-5-path-16" data-name="rtv-5-path" class="cls-1" d="M12,22.91a.35.35,0,0,0-.14.48.35.35,0,0,0,.48.14.35.35,0,0,0-.17-.66.36.36,0,0,0-.17,0"/><path id="rtv-5-path-17" data-name="rtv-5-path" class="cls-1" d="M17.12,23.39a.59.59,0,0,0-.24.81.6.6,0,1,0,.53-.89.6.6,0,0,0-.29.08"/><path id="rtv-5-path-18" data-name="rtv-5-path" class="cls-1" d="M13.17,23.65a.41.41,0,0,0,.39.73.41.41,0,0,0-.2-.78.38.38,0,0,0-.19,0"/><path id="rtv-5-path-19" data-name="rtv-5-path" class="cls-1" d="M15.84,23.91a.52.52,0,0,0-.21.72.52.52,0,0,0,.71.21.53.53,0,0,0,.21-.71.53.53,0,0,0-.72-.22"/><path id="rtv-5-path-20" data-name="rtv-5-path" class="cls-1" d="M14.47,24a.47.47,0,0,0,.45.83.47.47,0,0,0-.22-.88.49.49,0,0,0-.23.05"/></g></svg>