<svg id="Camada_1" data-name="Camada 1" xmlns="http://www.w3.org/2000/svg" viewBox="0 0 66 40"><defs><style>.cls-1{fill:#fff;}</style></defs><path class="cls-1" d="M4.47,5.88h0C1.15,6.11,0,8.23,0,10.73V29.46C0,32,1.21,34.12,3.77,34.12H7c2.52,0,3.77-2.13,3.77-4.62V18.35a.94.94,0,0,0-.94-.94H5.26v3.64H6.2v8.34c0,.56-.26.86-.67.86s-.67-.3-.67-.86V11.18c0-.45.11-.72.52-.72h5.33V5.88Zm10.15,0a1,1,0,0,0-1,1l-.06,1-2.17,26h4.1l.26-5h1.61l.27,5h4.62l-2.47-27h0a1,1,0,0,0-.94-.94Zm8.26,0v27a.94.94,0,0,0,.94.94h6.75V29.35h-3V5.88Zm8.71,0V33.82h4.77V5.88Zm5.82,0v27a.94.94,0,0,0,.94.94h6.84V29.42h-3V5.88Zm9.67,0a1,1,0,0,0-.95.94v26a1,1,0,0,0,.95,1h7.17V29.46H50.79V21.39h2.82V17H50.79v-6.8h3.38V5.88Zm8.14,0V29.5c0,2.49,1.38,4.62,5,4.62H61c3.38,0,5-2.17,5-4.62V5.88H61.2V28.94c0,.48-.15.71-.53.71s-.49-.19-.49-.71V5.88ZM16.5,15.29h.13l.5,9.42H16Z"/></svg>