<svg id="Camada_1" data-name="Camada 1" xmlns="http://www.w3.org/2000/svg" viewBox="0 0 60 40"><defs><style>.cls-1{fill:#fff;}</style></defs><polygon class="cls-1" points="5.66 17.75 5.66 16.3 5.66 14.86 8.1 14.78 10.53 14.7 10.53 12.49 10.53 10.25 5.26 10.25 0 10.25 0 19.85 0 29.46 2.77 29.46 5.5 29.46 5.58 25.96 5.66 22.49 7.58 22.4 9.47 22.32 9.47 20.11 9.47 17.9 7.58 17.83 5.66 17.75"/><path class="cls-1" d="M58.79,14.44a3.23,3.23,0,0,0-4.45.45l-.84.88L53.05,15a2.57,2.57,0,0,0-1.41-1.08,2.48,2.48,0,0,0-2,0A4.15,4.15,0,0,0,48.1,15l-.73.84V14.19H42.66v5.64c0,4.78,0,5.71-.42,6.05-.56.55-1.08.52-1.42-.08a36.93,36.93,0,0,1-.29-6V14.21h-4v14l.76.76a2.35,2.35,0,0,0,2.1.76,2.7,2.7,0,0,0,2.24-.81l.92-.82V29.5h4.74V23.93c0-5.18,0-5.55.53-6.05s.65-.47,1.05-.26.55.58.55,6V29.5h4.21V23.82c0-4.78.06-5.7.43-6,.47-.51.52-.51,1.18-.16.47.26.5.6.5,6.05V29.5H60V23C60,16.25,59.87,15.35,58.79,14.44Z"/><path class="cls-1" d="M22.61,18c-1.51,1.47-1.53,1.53-1.14,2.24A4.07,4.07,0,0,1,21.84,22a3.72,3.72,0,0,1-6.45,2.5A4.11,4.11,0,0,1,15,19.91a4,4,0,0,1,2.86-1.76c.4,0,.61-.35,1-1.67.26-.89.53-1.84.58-2.1s-.1-.46-1.15-.46a10,10,0,0,0-2.37.34,7.89,7.89,0,0,0-5.58,8.92,7.58,7.58,0,0,0,2.34,4.42c1.61,1.61,3.26,2.16,6,2a6.7,6.7,0,0,0,5.11-2.08c1.7-1.7,2.18-2.92,2.18-5.6a6.33,6.33,0,0,0-.63-3.55C24.24,16.38,24.29,16.38,22.61,18Z"/><path class="cls-1" d="M34.87,14.12a4.65,4.65,0,0,0-2.26,2.05L32.1,17v-2.5h-5v15h5l.08-4.76c.08-4.64.1-4.77.71-5.27a2.87,2.87,0,0,1,1.63-.5h1V16.43A18.08,18.08,0,0,0,35.44,14C35.38,14,35.16,14,34.87,14.12Z"/><path class="cls-1" d="M19.79,18.59c.55.24.77.16,1.68-.69.58-.52,1.27-1.2,1.53-1.5.45-.55.42-.57-.42-1.1A13.06,13.06,0,0,0,21,14.49c-.69-.27-.71-.24-1.11,1.1C19.13,18.3,19.13,18.27,19.79,18.59Z"/></svg>