<svg id="Camada_1" data-name="Camada 1" xmlns="http://www.w3.org/2000/svg" viewBox="0 0 70.09 40"><defs><style>.cls-1{fill:#fff;}</style></defs><path class="cls-1" d="M4.75,5V5C1.22,5.25,0,7.5,0,10.15v19.9C0,32.69,1.28,35,4,35H7.46c2.67,0,4-2.27,4-4.91V18.25a1,1,0,0,0-1-1H5.59v3.87h1v8.85c0,.6-.28.92-.72.92s-.71-.32-.71-.92V10.63c0-.48.12-.76.55-.76h5.67V5H4.75ZM15.53,5a1.07,1.07,0,0,0-1.07,1.07l-.07,1-2.3,27.62h4.35l.28-5.34h1.71l.28,5.34h4.91L21,6h0A1.07,1.07,0,0,0,20,5H15.53ZM24.3,5V33.64a1,1,0,0,0,1,1h7.17l0-4.71H29.32V5Zm9.25,0V34.68h5.07V5Zm6.18,0V33.64a1,1,0,0,0,1.05,1H48L48,30H44.76V5ZM50,5a1,1,0,0,0-1,1v27.6a1,1,0,0,0,1,1h7.62V30.05H53.94V21.48h3V16.77h-3V9.55h3.59V5Zm8.65,0V30.09C58.68,32.73,60.12,35,64,35h.8c3.59,0,5.3-2.31,5.3-4.91V5H65V29.5c0,.51-.16.75-.56.75s-.52-.2-.52-.75V5ZM17.52,15h.14l.53,10H17Z"/></svg>