<svg id="Camada_1" data-name="Camada 1" xmlns="http://www.w3.org/2000/svg" viewBox="0 0 60 40"><defs><style>.cls-1{fill:#fff;}</style></defs><path class="cls-1" d="M4.06,7.16h0C1.05,7.37,0,9.3,0,11.57v17c0,2.31,1.1,4.24,3.43,4.24H6.36c2.29,0,3.43-1.94,3.43-4.2V18.5a.85.85,0,0,0-.85-.85H4.78V21h.86v7.59c0,.51-.24.78-.61.78s-.61-.27-.61-.78V12c0-.41.1-.65.47-.65H9.74V7.16Zm9.23,0a.91.91,0,0,0-.91.91L12.33,9l-2,23.64h3.73l.24-4.55h1.46L16,32.62h4.2L18,8.07h0a.91.91,0,0,0-.85-.85Zm7.51,0V31.71a.85.85,0,0,0,.85.85h6.14V28.5H25.06V7.16Zm7.92,0v25.4h4.33V7.16Zm5.29,0V31.71a.85.85,0,0,0,.85.85h6.22v-4H38.35V7.16Zm8.79,0a.91.91,0,0,0-.86.86V31.65a.9.9,0,0,0,.86.91h6.52v-4H46.17V21.26h2.57v-4H46.17V11.09h3.08V7.16Zm7.4,0V28.64c0,2.26,1.25,4.2,4.55,4.2h.7c3.08,0,4.55-2,4.55-4.2V7.16H55.64v21c0,.43-.14.64-.49.64s-.44-.17-.44-.64v-21ZM15,15.72h.12l.45,8.56h-1Z"/></svg>