<svg id="Camada_1" data-name="Camada 1" xmlns="http://www.w3.org/2000/svg" viewBox="0 0 100 32.46"><defs><style>.cls-1{fill:#fff;}</style></defs><polygon class="cls-1" points="6 13.93 6 12.44 6 10.96 8.51 10.88 11 10.8 11 8.53 11 6.23 5.59 6.23 0.19 6.23 0.19 16.09 0.19 25.96 3.03 25.96 5.84 25.96 5.92 22.36 6 18.8 7.97 18.71 9.92 18.63 9.92 16.36 9.92 14.09 7.97 14.01 6 13.93"/><path class="cls-1" d="M60.57,10.53A3.31,3.31,0,0,0,56,11l-.87.9-.46-.79A2.58,2.58,0,0,0,53.22,10a2.52,2.52,0,0,0-2.08,0,4.15,4.15,0,0,0-1.55,1.14l-.75.86V10.28H44v5.79c0,4.91,0,5.86-.43,6.21-.57.57-1.11.54-1.46-.08A38,38,0,0,1,41.81,16v-5.7H37.76V24.66l.78.78a2.41,2.41,0,0,0,2.16.79A2.8,2.8,0,0,0,43,25.39l.94-.84V26h4.87V20.28c0-5.32,0-5.7.54-6.21s.67-.49,1.08-.27S51,14.39,51,20V26h4.32V20.17c0-4.91.06-5.86.44-6.21.48-.52.54-.52,1.21-.16.49.27.52.62.52,6.21V26h4.32V19.34C61.81,12.39,61.68,11.47,60.57,10.53Z"/><path class="cls-1" d="M23.41,14.23c-1.55,1.51-1.57,1.57-1.17,2.3a4.27,4.27,0,0,1,.38,1.73A3.81,3.81,0,0,1,16,20.82a4.21,4.21,0,0,1-.43-4.67,4.12,4.12,0,0,1,2.94-1.81c.41,0,.63-.36,1-1.71.27-.92.54-1.89.59-2.16S20,10,18.92,10a10.11,10.11,0,0,0-2.43.35,8.11,8.11,0,0,0-5.73,9.16,7.81,7.81,0,0,0,2.4,4.54c1.65,1.65,3.35,2.22,6.16,2.08A6.86,6.86,0,0,0,24.57,24c1.75-1.75,2.24-3,2.24-5.75,0-2-.11-2.63-.65-3.65C25.08,12.53,25.14,12.53,23.41,14.23Z"/><path class="cls-1" d="M36,10.2a4.84,4.84,0,0,0-2.32,2.11l-.52.81V10.55H28V26h5.11l.08-4.89c.08-4.76.1-4.9.73-5.41a2.88,2.88,0,0,1,1.67-.51h1.06V12.58c0-1.41,0-2.54-.06-2.54S36.3,10.12,36,10.2Z"/><path class="cls-1" d="M20.51,14.8c.57.24.79.16,1.73-.71.6-.54,1.3-1.24,1.57-1.54.46-.57.43-.59-.43-1.13a13.37,13.37,0,0,0-1.62-.84c-.71-.27-.73-.24-1.14,1.13C19.84,14.5,19.84,14.47,20.51,14.8Z"/></svg>