<svg id="svg-rs-logo" xmlns="http://www.w3.org/2000/svg" viewBox="0 0 114 40"><defs><style>.cls-1{fill:#fff;}</style></defs><path class="cls-1" d="M13.3,14.39A2.49,2.49,0,0,0,11,11.74H9.21L8.2,18h.67C11.29,18.1,13.3,16.56,13.3,14.39Zm18.05-3.9-2,12.36c-.08.51-.08.71.87.71L30,25.16H28.32c.95.42,1.81,1.08,1.81,1.95,0,1.65-1.63,3-5.91,3-7.92,0-13.15-4-14.95-10.08H7.87l-.61,3.8c-.12.73-.1.95,1.14,1.06l.89.06L9,26.82c-1.29-.07-2.73-.17-4.15-.17s-2.66.06-3.94.13l.3-1.9H2a2,2,0,0,0,.59-.11A1,1,0,0,0,3.32,24l1.9-11.7a8.19,8.19,0,0,0-1.61.45c-.43.17-.89.55-.89.88a.72.72,0,0,0,.08.32.61.61,0,0,1,.15.36.38.38,0,0,1-.09.25,2.15,2.15,0,0,1-1.5.61A1.4,1.4,0,0,1,0,13.8H0c0-2.19,2.73-3.06,4.46-3.42a33.48,33.48,0,0,1,6-.57c4,0,6.94,1.25,6.94,4.42a5.48,5.48,0,0,1-4.09,5c1.61,5,5.56,8.81,10.63,8.81,1.9,0,2.6-.82,2.6-1.62a1.24,1.24,0,0,0-1.14-1.28h-.85l.3-1.6c.56,0,1.14,0,1.28-.63L27.55,14c0-.16,0-.23-.21-.23H25.93l.29-1.38,5.05-2.05.16.16Zm73,13.11L104,25.2H98.54l.26-1.6c.84,0,1-.08,1.06-.79l.59-3.91a.66.66,0,0,0-.43-.85.75.75,0,0,0-.26,0A2,2,0,0,0,98,19.78L97.5,23c-.07.45,0,.65,1,.65l-.26,1.6H92.75L93,23.6c1,0,1.14-.14,1.27-.76l.65-4c0-.28,0-.31-.23-.31H93.48l.25-1.38L98.65,15l.14.14-.23,1.24a4.54,4.54,0,0,1,3-1.35A2.54,2.54,0,0,1,104,17.78v0h0a7.76,7.76,0,0,1-.11,1.07l-.64,4c-.12.67,0,.79,1.06.79Zm-20-8.11-1,2a3.4,3.4,0,0,0-1.14-.22H81.13l-.68,4.65c-.14.83,0,1,.44,1s1-.24,1.8-1l.72,1.45a5.7,5.7,0,0,1-3.91,2.18,2.28,2.28,0,0,1-2.54-2v-.06a2.17,2.17,0,0,1,0-.51A4.79,4.79,0,0,1,77,21.78l.74-4.56H76.55l.3-1.75h1.22l.29-1.84,3.42-1.37.21.23-.47,2.94h2.91Zm-6.65-5a41.79,41.79,0,0,0-1,4.56h-1.9A4.54,4.54,0,0,0,75,13.65c0-.84-1-1.37-2.36-1.37S70.19,13,70.18,14s.31,1.26,1.44,2.06l1.9,1.38c1.82,1.27,2.91,2.47,2.85,4.56-.08,3.42-3,5.18-6.72,5.18a9.15,9.15,0,0,1-2.2-.33,6.16,6.16,0,0,0-1.53-.28,2.3,2.3,0,0,0-1.14.31l-.26-.2c-.24-1.67-.56-3.33-.95-5l2.05-.48c.53,2.52,1.7,3.67,4.23,3.67,1.68,0,2.57-.8,2.6-2.1s-.63-1.77-1.82-2.54l-1.54-1a8.75,8.75,0,0,1-1.34-1.09,4.65,4.65,0,0,1-1.25-3.44C66.5,12,69,10,72.26,10c1.36,0,2.44.36,3.67.41a5.69,5.69,0,0,0,1.54-.18l.29.23ZM42.56,12.15a2.76,2.76,0,0,1-2.85,2.41c-.73,0-1.58-.33-1.58-1.35A2.86,2.86,0,0,1,41,10.64,1.48,1.48,0,0,1,42.53,12Zm-.31,3L41,22.66c-.13.85-.16.95,1.06.95l-.25,1.6h-5.7l.23-1.6c.95,0,1.22-.22,1.3-.73l.62-4.11c0-.23,0-.26-.21-.26H36.82l.23-1.36L42.17,15Zm-5-4.75-2,12.18c-.15.95-.06,1,.85,1l-.24,1.58H30.31l.25-1.58c1,0,1.21-.19,1.31-.87l1.38-8.58c0-.29,0-.31-.21-.31H31.77L32,12.4l5-2.11.14.14Zm73.53,7.69c0-.89-.39-1.14-1-1.14s-1.44.73-1.77,2.37Zm3.24.5-6.17,2.85c.12,1.05.71,1.76,1.68,1.76s1.36-.57,1.36-.83a.52.52,0,0,0-.11-.32.64.64,0,0,1-.13-.33.48.48,0,0,1,.07-.24,2,2,0,0,1,1.4-.6,1.34,1.34,0,0,1,1.35,1.33h0c0,1.78-1.75,3.23-4.48,3.23a4.35,4.35,0,0,1-4.66-4c0-.25,0-.49,0-.73a6,6,0,0,1,5.58-5.77c2.62,0,3.75,1.35,4.14,3.67Zm-24.16,0c0-1.14-.36-1.64-1-1.64-1,0-2,2-2,5,0,1.14.37,1.62,1,1.62,1,0,2-2.38,2-4.94m3.53.8a5.9,5.9,0,0,1-5.66,6.12h0c-2.66,0-4.35-1.56-4.35-4.64a5.77,5.77,0,0,1,5.6-5.93H89a4.11,4.11,0,0,1,4.38,3.84h0v.6m-34.2,7.37c0-.23-.22-.38-.72-.38s-1.14.07-1.73.07A5.47,5.47,0,0,1,54.15,26a1.41,1.41,0,0,0-.65,1.14c0,.65.88,1.19,1.82,1.19,2.52,0,3.8-1,3.8-1.53m.57-8.89c0-.57-.22-1.06-.68-1.06-1,0-1.48,1.9-1.48,3.07,0,.79.17,1.14.71,1.14.95,0,1.45-2.1,1.45-3.16m6.43-1.65c0,.65-.58,1.44-1.14,1.44-.18,0-.24-.13-.34-.25a.5.5,0,0,0-.24-.19h-.26c-.58,0-1,.67-1,1.25v.42a3.67,3.67,0,0,1-.53,1.8A4.91,4.91,0,0,1,58.47,23a5.06,5.06,0,0,1-1.85-.26.61.61,0,0,0-.15.41c0,.41.32.5.82.5,1.07,0,2-.15,3-.15,1.67,0,2.85.82,2.85,2.35,0,2.73-4.18,4.39-8.06,4.39-2.28,0-4.56-.65-4.56-2.62,0-.95.56-1.72,1.83-2.34H47.78l.28-1.59c.95,0,1-.09,1.14-.67l.52-4.13a.68.68,0,0,0-.51-.83H49a2.1,2.1,0,0,0-1.73,1.66L46.74,23c-.07.42,0,.61.89.61l-.24,1.6H42.18l.27-1.6c.95,0,.95-.13,1-.61l.67-4.15c0-.29,0-.3-.19-.3H42.62l.25-1.41,5-2.12.13.13-.13,1.24a4.83,4.83,0,0,1,3-1.37,2.59,2.59,0,0,1,2.41,2.78v.82l-.82,4.22c-.08.52.28.67.79.71A2.67,2.67,0,0,1,55.1,21.8a3.44,3.44,0,0,1-1-2.49c0-2.74,2.46-4.41,5-4.41a3.91,3.91,0,0,1,3.35,1.59,2.75,2.75,0,0,1,2.28-1.59,1.28,1.28,0,0,1,1.36,1.2v.1m-43.7,2.38c0-1.14-.37-1.63-1.05-1.63-.95,0-2,2.05-2,5,0,1.14.38,1.61,1,1.61,1,0,2-2.36,2-4.94m3.51.81a5.89,5.89,0,0,1-5.65,6.12h-.14c-2.64,0-4.34-1.55-4.34-4.64A5.76,5.76,0,0,1,21.4,15h.1a4.13,4.13,0,0,1,4.4,3.8q0,.3,0,.6"/></svg>