<svg id="svg-rs-logo" xmlns="http://www.w3.org/2000/svg" viewBox="0 0 120 40"><defs><style>.cls-1{fill:#fff;}</style></defs><path class="cls-1" d="M14,14.09a2.63,2.63,0,0,0-2.46-2.79H9.7L8.63,17.94h.71C11.88,18,14,16.38,14,14.09Zm19-4.1L30.91,23c-.09.54-.09.75.91.75l-.25,1.68H29.81c1,.44,1.91,1.14,1.91,2.05,0,1.74-1.72,3.13-6.22,3.13C17.16,30.65,11.65,26.4,9.76,20H8.28l-.64,4c-.12.77-.1,1,1.2,1.12l.94.06-.32,2C8.1,27.1,6.59,27,5.09,27s-2.8.06-4.14.14l.31-2h.83a2.27,2.27,0,0,0,.63-.12,1,1,0,0,0,.77-.86l2-12.32a8.34,8.34,0,0,0-1.69.48c-.45.18-.94.58-.94.92a.69.69,0,0,0,.09.34.68.68,0,0,1,.16.38.4.4,0,0,1-.1.26,2.27,2.27,0,0,1-1.58.64A1.47,1.47,0,0,1,0,13.47H0c0-2.3,2.87-3.22,4.7-3.6A36.68,36.68,0,0,1,11,9.27c4.23,0,7.31,1.32,7.31,4.66A5.78,5.78,0,0,1,14,19.23c1.7,5.3,5.85,9.28,11.19,9.28,2,0,2.74-.87,2.74-1.71a1.31,1.31,0,0,0-1.2-1.35h-.9l.32-1.68c.59,0,1.2,0,1.35-.66L29,13.69c0-.16,0-.24-.22-.24H27.29L27.6,12l5.32-2.16.16.17Zm76.8,13.8-.33,1.68h-5.74l.27-1.68c.88,0,1-.08,1.12-.83l.62-4.12a.71.71,0,0,0-.73-.93,2.13,2.13,0,0,0-1.86,1.86l-.52,3.33c-.07.48,0,.69,1,.69l-.27,1.68H97.63l.3-1.68c1,0,1.2-.15,1.33-.8l.69-4.21c0-.3,0-.33-.24-.33H98.4L98.66,17l5.18-2.22.15.15-.24,1.3a4.77,4.77,0,0,1,3.19-1.42,2.68,2.68,0,0,1,2.49,2.87v0a8.64,8.64,0,0,1-.11,1.13L108.64,23c-.12.7,0,.83,1.12.83Zm-21-8.54-1,2.09a3.32,3.32,0,0,0-1.2-.23h-1.2L84.68,22c-.14.87,0,1,.47,1s1-.25,1.89-1.06l.76,1.52a6,6,0,0,1-4.12,2.3A2.4,2.4,0,0,1,81,23.61a2.44,2.44,0,0,1,0-.54,5.44,5.44,0,0,1,.09-1.2l.78-4.8H80.58l.31-1.84h1.29l.3-1.94,3.6-1.44.22.24-.49,3.1h3.06Zm-7-5.24a46.32,46.32,0,0,0-1.1,4.8h-2a5,5,0,0,0,.25-1.49c0-.89-1-1.45-2.49-1.45s-2.58.79-2.59,1.78.33,1.33,1.52,2.17l2,1.45c1.91,1.34,3.06,2.6,3,4.8-.08,3.6-3.15,5.46-7.07,5.46a10.17,10.17,0,0,1-2.32-.35,6.73,6.73,0,0,0-1.61-.3,2.54,2.54,0,0,0-1.2.33L67.92,27q-.39-2.64-1-5.25l2.15-.51c.56,2.66,1.79,3.87,4.46,3.87,1.76,0,2.7-.85,2.73-2.22s-.66-1.86-1.91-2.67c-.55-.36-1.1-.71-1.62-1.07A9.42,9.42,0,0,1,71.32,18,4.88,4.88,0,0,1,70,14.38c0-2.85,2.6-4.86,6.06-4.86,1.44,0,2.57.37,3.87.43a6.3,6.3,0,0,0,1.62-.19l.3.24Zm-37,1.73a2.9,2.9,0,0,1-3,2.53c-.77,0-1.66-.34-1.66-1.42a3,3,0,0,1,3-2.7,1.56,1.56,0,0,1,1.63,1.47Zm-.33,3.14L43.2,22.8c-.14.89-.17,1,1.12,1l-.27,1.68h-6l.25-1.68c1,0,1.28-.23,1.36-.77l.66-4.32c0-.25,0-.28-.22-.28H38.76L39,17l5.39-2.22Zm-5.31-5-2.1,12.83c-.15,1-.06,1.05.9,1.05l-.26,1.66H31.91l.26-1.66c1,0,1.27-.2,1.38-.92L35,13.81c0-.3,0-.33-.22-.33H33.44L33.71,12,39,9.78l.15.15Zm77.4,8.1c0-.94-.41-1.2-1-1.2s-1.52.77-1.86,2.49Zm3.41.52-6.5,3c.13,1.11.75,1.86,1.77,1.86s1.43-.6,1.43-.88a.55.55,0,0,0-.11-.33.64.64,0,0,1-.14-.35.44.44,0,0,1,.08-.25,2,2,0,0,1,1.47-.63,1.41,1.41,0,0,1,1.42,1.41v0c0,1.87-1.84,3.4-4.72,3.4a4.59,4.59,0,0,1-4.9-4.23,6.43,6.43,0,0,1,0-.76,6.27,6.27,0,0,1,5.87-6.08C118.4,14.71,119.59,16.08,120,18.53Zm-25.43,0c0-1.2-.38-1.72-1.09-1.72-1,0-2.11,2.16-2.11,5.22,0,1.2.39,1.7,1.09,1.7,1.07,0,2.11-2.5,2.11-5.2m3.71.85a6.2,6.2,0,0,1-6,6.44h0c-2.8,0-4.58-1.64-4.58-4.89a6.08,6.08,0,0,1,5.9-6.24h.1a4.34,4.34,0,0,1,4.62,4.05q0,.32,0,.63m-36,7.75c0-.24-.23-.4-.75-.4s-1.2.08-1.82.08A5.73,5.73,0,0,1,57,26.26a1.49,1.49,0,0,0-.68,1.2c0,.69.92,1.26,1.91,1.26,2.65,0,4-1,4-1.62m.6-9.35c0-.6-.23-1.12-.71-1.12-1.09,0-1.56,2-1.56,3.23,0,.84.18,1.2.75,1.2,1,0,1.52-2.21,1.52-3.32M69.6,16c0,.68-.61,1.52-1.2,1.52-.19,0-.25-.14-.36-.27a.55.55,0,0,0-.25-.2,1.22,1.22,0,0,0-.27,0c-.61,0-1.06.71-1.06,1.32v.44a3.86,3.86,0,0,1-.56,1.9,5.19,5.19,0,0,1-4.35,2.4,5.39,5.39,0,0,1-1.95-.28.65.65,0,0,0-.16.43c0,.44.34.53.87.53,1.12,0,2.1-.16,3.13-.16,1.76,0,3,.86,3,2.48,0,2.87-4.4,4.62-8.48,4.62-2.4,0-4.8-.69-4.8-2.76,0-1,.59-1.81,1.92-2.46H50.3l.29-1.68c1,0,1.07-.09,1.2-.7l.55-4.35a.73.73,0,0,0-.54-.88l-.18,0a2.19,2.19,0,0,0-1.82,1.74l-.6,3.53c-.07.44,0,.64.94.64l-.26,1.68H44.4l.28-1.68c1,0,1-.14,1.06-.64l.7-4.37c0-.3,0-.32-.2-.32H44.86L45.13,17l5.27-2.23.14.14-.14,1.3a5.06,5.06,0,0,1,3.13-1.44,2.74,2.74,0,0,1,2.53,3,.19.19,0,0,1,0,.08c0,.24,0,.48,0,.71L55.2,23c-.08.55.3.71.83.75A2.84,2.84,0,0,1,58,21.89a3.59,3.59,0,0,1-1-2.62c0-2.88,2.59-4.64,5.24-4.64a4.14,4.14,0,0,1,3.53,1.67,2.89,2.89,0,0,1,2.4-1.67,1.35,1.35,0,0,1,1.43,1.26V16m-46,2.51c0-1.2-.39-1.72-1.1-1.72-1,0-2.11,2.16-2.11,5.22,0,1.2.4,1.69,1.09,1.69,1.08,0,2.12-2.48,2.12-5.19m3.7.85a6.2,6.2,0,0,1-5.95,6.44H21.2c-2.78,0-4.57-1.63-4.57-4.88a6.08,6.08,0,0,1,5.9-6.24h.1a4.34,4.34,0,0,1,4.63,4,4.56,4.56,0,0,1,0,.64"/></svg>