<svg id="svg-rs-logo" xmlns="http://www.w3.org/2000/svg" viewBox="0 0 100 40"><defs><style>.cls-1{fill:#fff;}</style></defs><title>rollingstone</title><path class="cls-1" d="M11.68,15.09a2.19,2.19,0,0,0-2.26-2.33c-.31,0-1.07,0-1.34,0l-.89,5.54c.16,0,.44,0,.59,0C9.9,18.34,11.68,17,11.68,15.09Zm15.86-3.42L25.76,22.55c-.08.45-.08.62.76.62l-.21,1.4H24.84c.81.37,1.59.95,1.59,1.71,0,1.45-1.43,2.61-5.18,2.61C14.3,28.89,9.71,25.35,8.13,20H6.9l-.53,3.35c-.1.64-.09.85,1,.93l.78.05L7.88,26c-1.13-.07-2.39-.13-3.64-.12S1.91,25.93.79,26l.26-1.64.69,0a2.36,2.36,0,0,0,.53-.1.87.87,0,0,0,.64-.72L4.6,13.27a7.8,7.8,0,0,0-1.41.4c-.37.15-.78.49-.78.77a.51.51,0,0,0,.07.28.62.62,0,0,1,.14.32.34.34,0,0,1-.09.22,1.86,1.86,0,0,1-1.31.53A1.22,1.22,0,0,1,0,14.57H0c0-1.91,2.39-2.68,3.92-3a31.5,31.5,0,0,1,5.22-.5c3.53,0,6.09,1.1,6.09,3.89a4.8,4.8,0,0,1-3.6,4.41c1.42,4.42,4.88,7.74,9.33,7.74,1.69,0,2.28-.73,2.28-1.43a1.08,1.08,0,0,0-1-1.12h-.75l.27-1.4c.49,0,1,0,1.12-.55l1.27-7.85c0-.14,0-.2-.18-.2H22.74L23,13.33l4.43-1.8.14.14Zm64,11.5-.27,1.4H86.48l.23-1.4c.73,0,.84-.06.93-.69l.52-3.43c.09-.58-.27-.78-.61-.78A1.78,1.78,0,0,0,86,19.82l-.43,2.78c-.06.4,0,.57.82.57l-.22,1.4H81.36l.25-1.4c.87,0,1-.12,1.11-.66L83.29,19c0-.25,0-.28-.2-.28H82l.22-1.22,4.31-1.85.13.12-.2,1.09a4,4,0,0,1,2.66-1.19,2.24,2.24,0,0,1,2.07,2.41,6.22,6.22,0,0,1-.09.94l-.57,3.48c-.1.58,0,.69.94.69ZM74.05,16.06l-.82,1.74a2.71,2.71,0,0,0-1-.19h-1l-.66,4.05c-.12.72,0,.85.39.85s.82-.21,1.57-.89l.64,1.27a5,5,0,0,1-3.44,1.92,2,2,0,0,1-2.19-2.24c0-.3,0-.69.08-1l.65-4-1.12,0,.26-1.53h1.07l.25-1.62,3-1.2.19.2-.41,2.59,2.55,0Zm-5.87-4.37a38.24,38.24,0,0,0-.91,4H65.56a4.5,4.5,0,0,0,.21-1.24c0-.74-.83-1.21-2.08-1.21s-2.15.66-2.16,1.48.28,1.11,1.27,1.81l1.71,1.21c1.59,1.12,2.55,2.17,2.52,4-.06,3-2.62,4.55-5.89,4.55A8.39,8.39,0,0,1,59.21,26a5.47,5.47,0,0,0-1.34-.25,2.13,2.13,0,0,0-1,.27l-.27-.15c-.22-1.46-.48-2.92-.79-4.37l1.79-.43c.47,2.22,1.49,3.23,3.72,3.23,1.46,0,2.25-.71,2.27-1.85s-.55-1.55-1.59-2.23c-.46-.3-.92-.59-1.35-.89a8.05,8.05,0,0,1-1.22-1,4.08,4.08,0,0,1-1.14-3c0-2.37,2.17-4.05,5.05-4.05,1.2,0,2.14.31,3.23.36a5.29,5.29,0,0,0,1.35-.16l.25.2ZM37.36,13.13a2.42,2.42,0,0,1-2.48,2.11c-.64,0-1.38-.28-1.38-1.18A2.47,2.47,0,0,1,36,11.81,1.29,1.29,0,0,1,37.36,13.13Zm-.28,2.62L36,22.35c-.12.74-.14.82.93.82l-.22,1.4h-5l.21-1.4c.82,0,1.06-.19,1.13-.64l.55-3.6c0-.21,0-.23-.18-.23H32.3l.21-1.22L37,15.63Zm-4.42-4.14L30.91,22.3c-.13.79-.05.87.75.87l-.22,1.39H26.59l.22-1.39c.85,0,1.06-.16,1.15-.76l1.22-7.55c0-.25,0-.28-.18-.28H27.87l.22-1.24,4.44-1.84.13.12Zm64.5,6.75c0-.79-.34-1-.8-1s-1.27.64-1.55,2.07Zm2.84.43-5.42,2.49c.11.93.63,1.55,1.48,1.55s1.19-.5,1.19-.73a.47.47,0,0,0-.09-.28.5.5,0,0,1-.12-.29.33.33,0,0,1,.07-.21,1.66,1.66,0,0,1,1.22-.52A1.18,1.18,0,0,1,99.52,22c0,1.56-1.54,2.83-3.94,2.83a3.81,3.81,0,0,1-4.07-4.16,5.22,5.22,0,0,1,4.89-5.06c2.27,0,3.26,1.14,3.6,3.18Zm-21.19,0c0-1-.32-1.43-.91-1.43-.85,0-1.76,1.8-1.76,4.35,0,1,.33,1.41.91,1.41.89,0,1.76-2.08,1.76-4.33m3.09.71a5.17,5.17,0,0,1-5,5.37c-2.33,0-3.82-1.36-3.82-4.07a5.06,5.06,0,0,1,5-5.2,3.62,3.62,0,0,1,3.85,3.9m-30,6.46c0-.2-.19-.34-.62-.34s-1,.07-1.52.07a4.88,4.88,0,0,1-2.26-.46,1.24,1.24,0,0,0-.56,1c0,.58.76,1.05,1.59,1.05,2.21,0,3.37-.8,3.37-1.35m.5-7.79c0-.5-.19-.93-.59-.93-.91,0-1.3,1.68-1.3,2.69,0,.7.15,1,.63,1,.8,0,1.26-1.84,1.26-2.77M58,16.68c0,.57-.51,1.27-1,1.27-.16,0-.21-.12-.3-.23a.41.41,0,0,0-.21-.16.54.54,0,0,0-.22,0c-.51,0-.89.59-.89,1.1l0,.36a3.19,3.19,0,0,1-.46,1.59,4.34,4.34,0,0,1-3.63,2,4.49,4.49,0,0,1-1.62-.24.54.54,0,0,0-.14.36c0,.37.29.44.73.44.93,0,1.75-.13,2.61-.13,1.46,0,2.51.72,2.51,2.07,0,2.39-3.66,3.85-7.06,3.85-2,0-4-.58-4-2.3,0-.85.49-1.51,1.6-2.05h-4l.24-1.4c.81,0,.89-.08,1-.59L43.62,19a.61.61,0,0,0-.6-.75A1.82,1.82,0,0,0,41.5,19.7L41,22.64c-.06.37,0,.53.78.53l-.21,1.4H37l.23-1.4c.8,0,.83-.11.89-.53L38.7,19c0-.25,0-.27-.17-.27H37.38l.23-1.24L42,15.63l.12.12L42,16.83a4.21,4.21,0,0,1,2.61-1.2,2.29,2.29,0,0,1,2.1,2.53,5.87,5.87,0,0,1,0,.59L46,22.55c-.07.46.25.59.69.62a2.39,2.39,0,0,1,1.6-1.58,3,3,0,0,1-.84-2.18c0-2.4,2.16-3.87,4.37-3.87a3.46,3.46,0,0,1,2.94,1.39,2.4,2.4,0,0,1,2-1.39,1.12,1.12,0,0,1,1.19,1.14M19.58,18.77c0-1-.32-1.43-.91-1.43-.85,0-1.76,1.8-1.76,4.35,0,1,.33,1.41.91,1.41.9,0,1.76-2.07,1.76-4.33m3.09.71a5.17,5.17,0,0,1-5,5.37c-2.32,0-3.81-1.36-3.81-4.07a5.06,5.06,0,0,1,5-5.2,3.62,3.62,0,0,1,3.85,3.9"/></svg>