<svg id="svg2" xmlns="http://www.w3.org/2000/svg" viewBox="0 0 51.18 40"><defs><style>.cls-1{fill:#fff;}</style></defs><title>rps</title><path id="path8" class="cls-1" d="M28.7,10.63c-.84-.09-1.77.29-2.52-.4h-.77a1.37,1.37,0,0,1-1.92,0h-2.3A2.34,2.34,0,0,0,20,12.31q0,7.73-.05,15.44c0,1,.25,1.6,1,1.86,0,0,0-.07,0-.1l.11,0,0,.1.25.06c.1-.08.22-.08.37,0h.16c2.73.1,2.94,0,2.92-2.75a8.56,8.56,0,0,0,0-1.34c-.25-1.62.57-1.94,2-1.83a11.19,11.19,0,0,0,2.65,0c0-.1,0-.21-.05-.37.12.14.26.23.16.35a7.75,7.75,0,0,0,1.93-.56c2.67-1.22,3.85-4.05,3.22-7.45a6.34,6.34,0,0,0-5.9-5.12ZM22.45,27.39c0-.21,0-.21.57-.17Zm1.72,1.18-.08-.05.12-.24.11.08-.15.21Zm-.06-5.63s0-.08,0-.08l.26-.15.06.17-.28.07Zm2.62-3.86c-1.07.08-2,.07-2-1.82,0-2.21,1.37-1.67,2.52-1.71s2.45.11,2.43,1.7c0,1.76-1.33,1.91-2.92,1.83ZM29.94,21c0-.17.07-.36.11-.55h.65c0,.2.08.4.15.72-.33-.25-.64.22-.91-.17Zm.88,2.4s-.1-.06-.09-.09a.38.38,0,0,1,.08-.17c.06.06.13.11.12.13a.28.28,0,0,1-.11.13Zm.07-.26c-.1-.16-.21-.27-.19-.31a1.06,1.06,0,0,1,.27-.29c.06.07.18.16.16.22a1.36,1.36,0,0,1-.24.38Zm1.82-1.84-.05-.12.26-.05s0,.06,0,.09a1.57,1.57,0,0,1-.23.09Zm.48-.65c0,.12-.08.23-.16.44-.15-.37-.15-.37.15-.44Zm-.08.71a.52.52,0,0,0,0-.11l.27-.05s0,.07,0,.1Zm.4-.14c0-.25,0-.4,0-.6l.39.15Z"/><path id="path18" class="cls-1" d="M13.46,22.17A5.49,5.49,0,0,0,15,20.32l.06-.13a.81.81,0,0,1,.25-.55s0-.09.05-.14a6.66,6.66,0,0,0,0-4.81,6.37,6.37,0,0,0-5.54-4.28c-.38,0-.92.26-1.12-.38H8a2.8,2.8,0,0,1-.62.32.34.34,0,0,1,.09.19c0,.2.15.42-.26.45,0-.2-.06-.38-.09-.57A2.29,2.29,0,0,1,5.26,10H3.17c0,.21.06.35.08.49l.29-.12c.11.35-.26.33-.37.52-.21-.1-.43-.21-.65-.3a.41.41,0,0,0-.27,0c-.18.1-.35.23-.53.35l-.31-.23c0,.21,0,.32,0,.46L1,11.39a2.28,2.28,0,0,0,.1.29l-.44.86-.39-.27C.17,17.45.05,22.62,0,27.8c0,.75.17,1.52,1.16,1.73,3,.63,4.07-.23,4.05-3.27,0-.51,0-1,0-1.53s-.27-1.14.54-1.18c.55,0,1.17-.31,1.52.63a26,26,0,0,0,1.82,3.35,4.31,4.31,0,0,0,5.87,2c.69-.31.68-.78.33-1.38-.76-1.32-1.44-2.69-2.24-4-.53-.87-.5-1.3.41-2ZM1.67,11.37l0-.14.29-.09a1.24,1.24,0,0,0,0,.16Zm.61.73c-.24-.24-.24-.44.08-.73C2.43,11.68,2.5,11.89,2.28,12.1ZM3,15.66l-.1-.09a.4.4,0,0,1,.47-.31h0Zm.28-3.85c-.13-.31-.18-.46,0-.51s.16.06.23.1ZM4,14.18C4,14.08,3.88,14,3.89,14A.25.25,0,0,1,4,13.81s.15.09.15.1a1.17,1.17,0,0,1-.15.27Zm.44-2.34c-.09-.43-.43-.41-.75-.45l.6-.53c0,.28.65.46.15,1Zm.5-.35c.29-.16.43.06.59.15a.37.37,0,0,1,0,.27c-.13.06-.21,0-.14-.16C5.37,11.72,5.12,11.59,5,11.49Zm2.36,7.2c-1,0-2.08.32-2.06-1.5s.6-2.12,2.11-1.83c1.16.1,2.81-.41,2.86,1.53S8.58,18.62,7.32,18.69Z"/><path id="path20" class="cls-1" d="M2.67,10.22,2.54,10H1.42a1,1,0,0,1-.2.26A1.52,1.52,0,0,0,2.67,10.22Z"/><path id="path28" class="cls-1" d="M47.91,18.34a4,4,0,0,0-.46-.23l-.2.05s0-.08,0-.08l.07,0a28.42,28.42,0,0,0-3-.91c-.32-.1-.82-.19-.81-.68s.49-.66.95-.71a9.28,9.28,0,0,1,4,.41c.26.24.53.66.78,0,.21,0,.41-.09.4-.38.09,0,.26-.07.27-.12,0-.23-.13-.23-.3-.2l-.07,0c0-.53.23-1.07-.06-1.58.57-2.45-1.26-3.07-2.92-3.83H42.67c-.08.09-.14.24-.23.27q-4.55,1.32-4.69,5.7a6.38,6.38,0,0,0,.84,3.7v0l.28.31-.05.05a6.67,6.67,0,0,0,3.42,2.16c.73.23,1.47.38,2.21.57.51.13,1.13.33,1.09.9s-.61.79-1.15.84a10.15,10.15,0,0,1-1.1.07.07.07,0,0,0,0,.05c0,.09,0,.24-.05.27a.36.36,0,0,1-.29,0,2.43,2.43,0,0,1-.34-.3,7.22,7.22,0,0,1-1.54-.2l-.07.09-.1-.1,0,0a6,6,0,0,1-1.85-.86c-.9-.63-1.44-.51-1.52.63-.06.83-.09,1.67-.11,2.5a.5.5,0,0,1,.16.28h-.17c0,.28,0,.57,0,.86a1.7,1.7,0,0,0,1.62,2,20.86,20.86,0,0,0,7,.07l.09,0v0l.36-.07.49-.11a.72.72,0,0,1,0-.48l.2.31a1.41,1.41,0,0,1,.41,0l.38-.14-.3,0v-.4c-.13.15-.21.25-.29.36-.33-.06-.38-.28-.35-.56-.48.14-.39.61-.6.91H46c.15-.32-.27-.6,0-.94-.15-.07-.25-.17-.36-.17a1.47,1.47,0,0,1-.91-.16.77.77,0,0,1,0-.15,1.49,1.49,0,0,1,0-.21l.41.2c.15-.07,0-.45.34-.35l0,.29.76.23.19-.31.09,0v.48c.23-.22.23-.22.08-.61l.59-.2.38.17c0,.21,0,.44,0,.69l.69.62.36-.18a.46.46,0,0,1-.07-.3c0-.05.14-.13.2-.13l.41.08.18-.14-.16-.05c.06-.14.09-.23.15-.36l.21.24a4.73,4.73,0,0,0,1.3-2,.88.88,0,0,1-.32,0c-.06,0-.11-.15-.16-.23s.16-.12.2-.1.12-.06.15-.13a4,4,0,0,1,.26-.32.93.93,0,0,1,0,.1,4.1,4.1,0,0,0,.11-.61c.41-3.17-.65-5.32-3.18-6.68ZM43.22,28l-.24-.2.08-.11.35,0Zm.71-.59c-.09.11-.09.11-.37.15l.34-.29c0,.08,0,.12,0,.14ZM44.11,25H44c0-.1,0-.19,0-.28l.11,0c0,.09,0,.18-.08.27Zm.36.92c0-.28,0-.28.28-.25Zm.13-.59c-.09,0-.19-.05-.24-.1a.25.25,0,0,1,0-.22.28.28,0,0,1,.47-.08Zm1-2.75c0-.21,0-.21.57-.17Zm1.15,3.77c0-.23-.08-.43-.11-.63l.15,0c0,.2.31.38,0,.65Zm.57-2.59-.09-.05.13-.23.1.07Zm.37,4.53.42-.14C48.05,28.43,48,28.62,47.69,28.31ZM49,26l.22.37-.06.09c-.09,0-.21,0-.26-.11s-.1-.25.1-.35Zm0,1.34c0-.16,0-.29,0-.52l.39.36Zm.21-7.54a.6.6,0,0,1-.09-.15c.05,0,.1-.06.14-.05a.53.53,0,0,1,.1.13c-.07,0-.13.08-.15.07Zm1.18,7c-.28,0-.39-.09-.4-.29s.09-.11.15-.17a1.11,1.11,0,0,0,.07.16l.18.3Zm.09-4.93c.05,0,.1.05.18.1s-.12.12-.14.11a.53.53,0,0,1-.14-.11S50.48,21.93,50.51,21.93Zm.33,1.21-.33.35C50.4,23.07,50.4,23.07,50.84,23.14Zm-1-1.42s.1.07.09.1-.12.24-.3.15c0-.16,0-.25.21-.25Zm.27,2.52c.65.15.79.68.27,1.25l-.82-.42Z"/></svg>