<svg xmlns="http://www.w3.org/2000/svg" viewBox="0 0 100 40"><title>sbnation</title><path d="M24.53,19.92a2.11,2.11,0,0,0,2.14-2.06V16.59a3.21,3.21,0,0,0-2.91-3.47H13.87V26.88H23.4a3.26,3.26,0,0,0,3.26-3.26V22a2.12,2.12,0,0,0-2.12-2.11ZM21.6,23a.29.29,0,0,1-.3.3H18.89V21.77h2.35a.32.32,0,0,1,.33.32h0Zm0-5.25a.34.34,0,0,1-.33.34H18.89v-1.4h2.34a.34.34,0,0,1,.35.32v0Z" style="fill:#fff"/><path d="M12.77,17.39v-.91a3.77,3.77,0,0,0-.55-1.87h0a3.27,3.27,0,0,0-2.53-1.5H3.23A3.24,3.24,0,0,0,0,16.35v1.86H0v.88a2.68,2.68,0,0,0,2.69,2.69H7.38a.34.34,0,0,1,.34.34h0v.8a.35.35,0,0,1-.34.35H5.06v-.66H0v1a3.37,3.37,0,0,0,.51,1.75h0a3.22,3.22,0,0,0,2.56,1.51H9.53a3.24,3.24,0,0,0,3.24-3.23h0V21.79h0v-1a2.69,2.69,0,0,0-2.69-2.69H5.39A.35.35,0,0,1,5,17.71H5v-.65a.36.36,0,0,1,.34-.38h2.4v.66h5Z" style="fill:#fff"/><rect x="67.41" y="13.11" width="5.04" height="13.77" style="fill:#fff"/><polygon points="66.44 13.11 54.92 13.11 54.92 16.75 58.16 16.75 58.16 26.88 63.2 26.88 63.2 16.75 66.44 16.75 66.44 13.11" style="fill:#fff"/><path d="M83.06,13.11H76.77a3.24,3.24,0,0,0-3.24,3.24h0v7.31a3.24,3.24,0,0,0,3.24,3.23H83a3.24,3.24,0,0,0,3.24-3.23h0V16.35A3.24,3.24,0,0,0,83,13.11h0ZM81.24,23a.32.32,0,0,1-.32.32h-2a.32.32,0,0,1-.32-.32h0v-5.9a.32.32,0,0,1,.32-.33h2a.32.32,0,0,1,.32.33h0Z" style="fill:#fff"/><path d="M95.1,13.11v5l-3.52-4a2.69,2.69,0,0,0-2-1H87.38V26.88h4.9v-5l3.52,4a2.69,2.69,0,0,0,2,.95H100V13.11Z" style="fill:#fff"/><path d="M35.47,13.11v5l-3.54-4a2.67,2.67,0,0,0-2-1H27.78V26.88h4.9v-5l3.52,4a2.69,2.69,0,0,0,2,.95H40.4V13.11Z" style="fill:#fff"/><path d="M53.16,14.9a2.71,2.71,0,0,0-2.54-1.79h-7v3.64h1.06L41.11,26.87h5.11l.72-2.08H51.6l.72,2.09h5Zm-3.9,3.17,1.11,3.1H48.2Z" style="fill:#fff"/></svg>