<svg xmlns="http://www.w3.org/2000/svg" width="200" height="200" viewBox="0 0 200 200"><defs><style>.a{fill:#fff;}</style></defs><title>science</title><path class="a" d="M38,132.35c1.93,0,3.86,0,5.79,0,.64,0,.68.43.84.81,2.28,5.46,4.41,11,6.87,16.38a95.56,95.56,0,0,0,13.88,22.33c6.19,7.31,13.51,13.08,22.69,16.17a47,47,0,0,0,27.78,1c10.25-2.78,17.13-9.31,20.38-19.42a44.66,44.66,0,0,0,0-27.93c-2.9-9-8.94-15.45-17-20.21-4.46-2.65-9.32-4.43-14.06-6.47-10.61-4.57-21.27-9-31.83-13.71A52.28,52.28,0,0,1,54.25,87.16,47.69,47.69,0,0,1,43.82,64.5a60.88,60.88,0,0,1-.37-21.36C46.28,26.74,55,14.45,69.63,6.55A54.32,54.32,0,0,1,100.9.32,66.84,66.84,0,0,1,134.3,12.53c.49.35,1,.74,1.5,1.14L141,5.37c.77-1.24,1.53-2.49,2.33-3.71a1.09,1.09,0,0,1,.71-.5c3,0,6,0,9,0l1.57,64.05c-2.05,0-4,0-6,0-.18,0-.43-.4-.52-.66-2.21-5.9-4.25-11.87-6.63-17.7a79.88,79.88,0,0,0-11.82-20.49,44.52,44.52,0,0,0-29.1-16.6,42,42,0,0,0-10.82-.53A27.59,27.59,0,0,0,74.7,16c-6,5.12-8.9,11.74-9.35,19.5C64.9,43.4,66,51,70.25,57.95A42,42,0,0,0,81.71,69.77a101.54,101.54,0,0,0,20.87,11.37c6.67,2.81,13.41,5.45,20,8.44a104.82,104.82,0,0,1,21.25,12.49,44.47,44.47,0,0,1,17.54,30.71c1.4,11.22.43,22.18-4,32.65-6.48,15.21-17.78,25.34-33.23,30.94a63,63,0,0,1-17.89,3.56,4.25,4.25,0,0,0-.66.14h-5.09a2.93,2.93,0,0,0-.56-.16,107.22,107.22,0,0,1-15-2.31,73.38,73.38,0,0,1-22.49-8.75c-1.9-1.18-3.69-2.54-5.57-3.85l-.55.83q-3.67,5.76-7.35,11.51c-.17.26-.49.59-.74.6-2.83,0-5.65,0-8.52,0,0-.3-.06-.53-.06-.76-.1-3.88-.22-7.76-.31-11.64-.14-5.9-.25-11.79-.39-17.69q-.32-13.53-.67-27.05c0-1.42-.13-2.83-.2-4.25Z"/></svg>