<svg id="Camada_1" data-name="Camada 1" xmlns="http://www.w3.org/2000/svg" viewBox="0 0 90 40"><defs><style>.cls-1{fill:#fff;}</style></defs><path class="cls-1" d="M2.29,30.52l-1,1.6h-1l-.19-8H.77C2.1,27.77,4.09,31.23,8,31.23a3.88,3.88,0,0,0,4.21-3.5,4.17,4.17,0,0,0,0-.79A4.64,4.64,0,0,0,9.13,22.4c-1.79-.77-3-1.24-4.78-2a6.14,6.14,0,0,1-3.72-6A6.28,6.28,0,0,1,6.84,8h.37A8.3,8.3,0,0,1,12,9.66l.95-1.54h1.15l.19,7.8h-.77C12.27,12,10.7,9.08,6.56,9.08a3.4,3.4,0,0,0-3.24,3.49c0,2.12.89,3.27,2.81,4.42,1.53.89,3.12,1.35,4.53,2,2.55,1.24,4.47,2.69,4.47,6.19a7,7,0,0,1-6.8,7.17H7.78a9.59,9.59,0,0,1-5.49-1.86m13.62-6.59c0-4.22,2.67-8.12,7-8.12,3.19,0,4.78,1.86,4.78,4a1.7,1.7,0,0,1-1.46,1.91h-.27a1.76,1.76,0,0,1-1.86-1.64V20c0-1.41.39-1.48.39-2.12-.19-1-.65-1.24-1.66-1.24-1.85,0-3.57,1.8-3.57,7,0,4.16,1.46,7,4.15,7a4.52,4.52,0,0,0,4.33-3.07l.71.51a7,7,0,0,1-5.74,4.1c-4.54,0-6.76-3.52-6.76-8.26M30.24,9.79a2.12,2.12,0,0,1,2-2.17,2,2,0,0,1,2.1,1.87v.17a2.16,2.16,0,0,1-2.06,2.24h0a2.05,2.05,0,0,1-2-2.1ZM28.76,31a9.58,9.58,0,0,0,1.4-.26A1.48,1.48,0,0,0,31,29.25V19.34a2.35,2.35,0,0,0-.83-1.73A4.51,4.51,0,0,0,28.28,17v-.64l5.55-.38.18.26V29.05a1.82,1.82,0,0,0,.83,1.59,3.13,3.13,0,0,0,1.4.39v.7H28.81V31h0Zm16.52-9.15c0-2.48-.45-5.25-2.61-5.25-1.85,0-3.2,2.12-3.26,5.37Zm-9.19,2c0-4.1,2.48-8.06,6.58-8.06s5.86,3.07,5.86,6.59v.32H39.41v.38c0,4.42,1.24,7.55,4.47,7.55,2.29,0,3.12-1,4.27-3.07l.64.39a6.45,6.45,0,0,1-5.74,4.16c-4.72.06-6.95-3.72-6.95-8.26Z"/><path class="cls-1" d="M48.72,31a9.58,9.58,0,0,0,1.4-.26c.57-.2.83-.77.83-1.54v-9.9a2.52,2.52,0,0,0-.83-1.8A3.84,3.84,0,0,0,48.58,17v-.64l5.17-.39.26.26v2.31h.06c1.24-1.24,2.36-2.81,5-2.81,2.78.06,4.12,2.24,4.12,5.55v7.94a1.57,1.57,0,0,0,.77,1.54,4.62,4.62,0,0,0,1.4.38v.71H57.78v-.71a7.21,7.21,0,0,0,1.4-.26c.57-.2.83-.77.83-1.54V21.11c0-2.36-1.15-3.65-2.47-3.65A3.86,3.86,0,0,0,53.9,19.7v9.35a1.53,1.53,0,0,0,.76,1.53,2.79,2.79,0,0,0,1.4.39v.7H48.63V31h.09Zm16-7.11c0-4.22,2.67-8.12,7-8.12,3.19,0,4.77,1.86,4.77,4A1.69,1.69,0,0,1,75,21.67h-.27A1.76,1.76,0,0,1,72.9,20h0c0-1.41.39-1.48.39-2.12-.19-1-.65-1.24-1.66-1.24-1.85,0-3.57,1.8-3.57,7,0,4.16,1.46,7,4.15,7a4.53,4.53,0,0,0,4.33-3.07l.71.51a7,7,0,0,1-5.75,4.1c-4.53,0-6.76-3.52-6.76-8.26m21.76-2c0-2.48-.45-5.25-2.62-5.25-1.84,0-3.19,2.12-3.25,5.37Zm-9.19,2c0-4.1,2.48-8.06,6.57-8.06s5.87,3.07,5.87,6.59v.32H80.61v.38c0,4.42,1.24,7.55,4.47,7.55,2.3,0,3.12-1,4.28-3.07L90,28a6.45,6.45,0,0,1-5.81,4.16c-4.78.06-6.94-3.72-6.94-8.26Z"/></svg>