<svg id="Layer_1" data-name="Layer 1" xmlns="http://www.w3.org/2000/svg" viewBox="0 0 100 40"><defs><style>.cls-1{fill:#fff;}</style></defs><title>sa</title><path class="cls-1" d="M5.58,10.91c-1.9-.64-2.9-1.08-2.9-2.39A1.71,1.71,0,0,1,4.59,7c1.83,0,2.85,1.24,3.27,3.31H8.3V6.68H7.9L7.39,7.8h0A3.5,3.5,0,0,0,4.61,6.49,3.33,3.33,0,0,0,1.08,9.62c0,2.19,1.6,3.07,3.6,3.71s2.65,1.28,2.65,2.37c0,1.37-.66,2-2.25,2a3.21,3.21,0,0,1-2.48-1.1,5.52,5.52,0,0,1-1.14-2.74H1V18h.36L2,16.73h.05a3.91,3.91,0,0,0,3,1.41A3.55,3.55,0,0,0,9,14.59C9,12.58,7.56,11.58,5.58,10.91Z"/><path class="cls-1" d="M98.72,8a3.45,3.45,0,0,0-3-1.5,5.58,5.58,0,0,0-5.52,5.85c0,3.17,2.12,5.86,5.49,5.86A4,4,0,0,0,100,14.5l-.47-.13c-.45,2.1-1.57,3.31-3.51,3.31S92.87,16,92.87,12.34,93.85,7,95.77,7s3.07,1.3,3.6,4h.51V6.68h-.3L98.74,8h0Z"/><path class="cls-1" d="M19.06,7.93a3.32,3.32,0,0,0-2.88-1.45,5.57,5.57,0,0,0-5.51,5.86c0,3.17,2.11,5.86,5.5,5.86,2.17,0,3.77-1.12,4.26-3.7L20,14.42c-.55,2-1.44,3.25-3.51,3.25S13.29,16,13.29,12.34,14.31,7,16.09,7s3.06,1.3,3.59,4h.43V6.68h-.4l-.62,1.25Z"/><polygon class="cls-1" points="27.18 17.51 25.51 17.51 25.51 7.12 27.18 7.12 27.18 6.67 21.48 6.67 21.48 7.12 23.16 7.12 23.16 17.51 21.48 17.51 21.48 17.97 27.18 17.97 27.18 17.51"/><polygon class="cls-1" points="65.47 17.51 65.47 17.97 71.17 17.97 71.17 17.51 69.5 17.51 69.5 7.12 71.17 7.12 71.17 6.67 65.47 6.67 65.47 7.12 67.15 7.12 67.15 17.51 65.47 17.51"/><polygon class="cls-1" points="83.52 7.12 85.2 7.12 85.2 17.51 83.52 17.51 83.52 17.97 89.23 17.97 89.23 17.51 87.55 17.51 87.55 7.12 89.23 7.12 89.23 6.67 83.52 6.67 83.52 7.12"/><path class="cls-1" d="M39.17,13.76H38.9a7.94,7.94,0,0,1-1.47,2.93c-.64.73-1.27.8-2.46.8H33.18v-5H34a1.87,1.87,0,0,1,1.46.47,2.67,2.67,0,0,1,.68,1.87h.31V9.71h-.31a3,3,0,0,1-.69,1.88,1.87,1.87,0,0,1-1.45.47h-.85V7.13h2a2.75,2.75,0,0,1,2,.62,5,5,0,0,1,1.52,2.79H39V6.67H29.15v.46h1.68V17.51H29.15V18h10Z"/><path class="cls-1" d="M43.3,8.38,50.41,18h.73V8.09c0-.64.28-1,.84-1h.74V6.67H49v.46h.76c.57,0,.84.33.84,1v6.36h0L44.87,6.67H40.62v.46h.48a1.59,1.59,0,0,1,1.28.47,1,1,0,0,1,.34.72v8.16c0,.62-.25,1-.83,1H41V18h4.06V17.5h-.95c-.57,0-.84-.43-.84-1V8.38h0Z"/><path class="cls-1" d="M55.6,7.83a2.1,2.1,0,0,1,1.62-.68h.39V17.51H55.89V18h5.79v-.46H60V7.15h.32a2.23,2.23,0,0,1,1.7.66,5.84,5.84,0,0,1,1.41,3h.44V6.67H53.76v4.06h.44A5.85,5.85,0,0,1,55.6,7.83Z"/><path class="cls-1" d="M72.83,17.51V18h5.74v-.46h-1.7v-5h.71A1.8,1.8,0,0,1,78.9,13a2.75,2.75,0,0,1,.71,1.89h.49V9.65h-.49A3,3,0,0,1,79,11.47a1.88,1.88,0,0,1-1.4.55h-.71V7.12h1.65a2.68,2.68,0,0,1,2.08.69A6.3,6.3,0,0,1,82,10.57h.42V6.67H72.85v.44h1.68V17.5h-1.7Z"/><path class="cls-1" d="M69.33,33a3.73,3.73,0,0,1-1.85-.43c-1.13-.71-1.69-2.31-1.69-4.91s.5-4.09,1.45-4.84a3.35,3.35,0,0,1,1.84-.54c1.81,0,3.68,1.15,4.17,4h.46V22h-.4l-.8,1.4h0A4.53,4.53,0,0,0,69,21.76a5.86,5.86,0,1,0,.19,11.72,4.34,4.34,0,0,0,4.58-3.7l-.49-.13A3.73,3.73,0,0,1,69.33,33Z"/><polygon class="cls-1" points="55.91 22.48 57.63 22.48 57.63 32.87 55.91 32.87 55.91 33.31 61.69 33.31 61.69 32.87 59.98 32.87 59.98 22.48 61.69 22.48 61.69 22.03 55.91 22.03 55.91 22.48"/><path class="cls-1" d="M95.55,22.48h.94c.57,0,.84.34.84,1v6.43h0L91.09,22H86.91v.45h.47a1.58,1.58,0,0,1,1.2.44,1.11,1.11,0,0,1,.35.76v8.16c0,.61-.26,1-.84,1h-1v.45h4.14v-.45h-1c-.57,0-.83-.44-.83-1V23.73h0l7.65,9.69h.73v-10c0-.64.28-1,.85-1h.91V22H95.55Z"/><path class="cls-1" d="M37.76,31.88a3.07,3.07,0,0,1-2.59,1h-2v-5H34a1.87,1.87,0,0,1,1.46.47,2.71,2.71,0,0,1,.68,1.88h.49V25h-.48a3,3,0,0,1-.68,1.89,1.88,1.88,0,0,1-1.46.46h-.86V22.48h2.13a2.9,2.9,0,0,1,2,.62,5.11,5.11,0,0,1,1.53,2.8h.44V22H29.1v.46h1.74V32.86H29.1v.45H39.56V29.13H39.3A6.88,6.88,0,0,1,37.76,31.88Z"/><path class="cls-1" d="M20.31,29.8h-.13L17,22H12.45v.45h1.81v9.31c0,.66-.28,1.06-.85,1.07h-.95v.46h4.2v-.46h-1c-.56,0-.84-.44-.84-1.07V22.92h.05l4.18,10.43h.46L23.3,22.92h0v9.94h-1.7v.45h5.78v-.45H25.68V22.48h1.76V22H23.09Z"/><path class="cls-1" d="M46,22.48h1.76a3,3,0,0,1,1.34.28,2.1,2.1,0,0,1,.91,2,2,2,0,0,1-2.13,2.42H46Zm7.13,10.24a.73.73,0,0,1-.83-.62h0a14.32,14.32,0,0,1-.23-1.71c-.16-1.74-1.28-2.44-2.87-2.74v0c2-.17,3.22-1.2,3.22-2.8S51.14,22,48.26,22H41.94v.45h1.73V32.86H41.94v.46h5.75v-.46H46V27.71h1.79a1.58,1.58,0,0,1,1.8,1.73c0,.1.06,1.35.06,1.46.09,1.81,1.09,2.62,2.48,2.62,1.75,0,2.45-.8,2.46-2.47h-.49C54.12,32.22,53.75,32.72,53.15,32.72Z"/><path class="cls-1" d="M3.24,29.32l1.65-4.4h.05l1.6,4.4Zm7.68,3.54c-.51,0-.68-.29-.89-.87L6.27,22H5.48L1.81,31.63c-.33.76-.55,1.23-1.27,1.23H0v.46H3.62v-.46H2.85c-.73,0-.73-.57-.46-1.29l.69-1.78H6.72l.82,2.27c.16.47.23.8-.33.8h-.9v.46h5.38v-.46Z"/><path class="cls-1" d="M77.7,29.32l1.65-4.4h.05l1.6,4.4H77.7Zm7.66,3.54c-.51,0-.68-.29-.89-.87L80.72,22h-.79l-3.67,9.61c-.3.78-.55,1.23-1.26,1.23h-.55v.46h3.62v-.45H77.3c-.72,0-.72-.57-.45-1.29l.67-1.78h3.64L82,32.06c.16.47.22.8-.34.8h-.88v.46h5.39v-.46Z"/></svg>