<svg id="Camada_1" data-name="Camada 1" xmlns="http://www.w3.org/2000/svg" viewBox="0 0 140 40"><defs><style>.cls-1{fill:#fff;}</style></defs><path class="cls-1" d="M20.18,8.12a2.55,2.55,0,0,0-1.13.71,1.83,1.83,0,0,0-.5,1.69,1.92,1.92,0,0,0,.59,1.14,2.36,2.36,0,0,0,3.3.11,2.11,2.11,0,0,0-.66-3.49A2.5,2.5,0,0,0,20.18,8.12Z"/><path class="cls-1" d="M1.65,9.07A2.66,2.66,0,0,0,.1,10.62a2.58,2.58,0,0,0,.06,1.6,2.05,2.05,0,0,0,1.57,1.21,2.6,2.6,0,0,0,2-.74,2.25,2.25,0,0,0-.37-3.5A2.24,2.24,0,0,0,1.65,9.07Z"/><path class="cls-1" d="M8.56,9.51A6,6,0,0,0,4.19,13a6.81,6.81,0,0,0-.73,3.86,5.88,5.88,0,0,0,2.27,4.17,3.37,3.37,0,0,0,2.8.88,2.43,2.43,0,0,0,2-1.09c.31-.66.14-1.36-.67-2.73A4.63,4.63,0,0,1,9,15.43a4.85,4.85,0,0,1,2-3.86,4.39,4.39,0,0,1,2.47-.93l.35,0-.49-.25A8.57,8.57,0,0,0,8.56,9.51Z"/><path class="cls-1" d="M14.84,11.56a6.71,6.71,0,0,0-2.28.84,6.72,6.72,0,0,0-2.44,2.79,2.65,2.65,0,0,0-.13,1c0,2.38,1.42,3,3.63,1.68,1.88-1.15,3.19-1.27,4.85-.44a4,4,0,0,1,1.33,1,4.91,4.91,0,0,1,1,1.22,4,4,0,0,1,.51,1.72c0,.28,0,.3.1.17s.11-.11.11,0a5.11,5.11,0,0,0,.7-1.46,8,8,0,0,0,.4-2.95A4.28,4.28,0,0,0,22,14.88a7.15,7.15,0,0,0-5-3.32A6.08,6.08,0,0,0,14.84,11.56Z"/><path class="cls-1" d="M112.47,14.16l-.4,0v3.6l-1,0a4.37,4.37,0,0,0-2.45.46,3.52,3.52,0,0,0-1.06.79,3.83,3.83,0,0,0-1.09,1.78,6.56,6.56,0,0,0-.14,2.9,3.94,3.94,0,0,0,2.95,3.08,5.55,5.55,0,0,0,1.66.15,11,11,0,0,0,2.85-.31l.61-.14V14.2l-.57,0a6.74,6.74,0,0,0-.79,0Zm-.63,5.51.23,0v5.08l-.3.08a4.38,4.38,0,0,1-.89.05c-1.47-.08-2.1-.84-2.1-2.53a2.73,2.73,0,0,1,.8-2.26,1.86,1.86,0,0,1,1.59-.54Z"/><path class="cls-1" d="M27.06,14.39A3.3,3.3,0,0,0,24.41,17a4.92,4.92,0,0,0,.13,2.18c.32.83,1,1.39,2.41,1.92a8.2,8.2,0,0,1,2.09,1A1.5,1.5,0,0,1,29,24.28c-.68.56-2.32.63-3.74.16l-.7-.2a7.57,7.57,0,0,0-.56,2,6.67,6.67,0,0,0,1.82.58,12.47,12.47,0,0,0,3.12,0,4.57,4.57,0,0,0,2.45-1.37A4.17,4.17,0,0,0,32,21.68c-.34-1.09-1.05-1.64-3.29-2.5-1.52-.59-1.74-.78-1.79-1.53a1.07,1.07,0,0,1,.66-1.22c.37-.17.43-.17,1.38-.14a4.94,4.94,0,0,1,2.14.44c.09,0,.16-.09.33-.61a8.22,8.22,0,0,0,.26-1l.05-.33-.58-.17A8.6,8.6,0,0,0,27.06,14.39Z"/><path class="cls-1" d="M85.41,14.37l-.37,0v3.82c0,4.77.07,5.53.62,6.64a3.94,3.94,0,0,0,1.47,1.55,6,6,0,0,0,3.28.5,3.75,3.75,0,0,0,3.5-2.63c.3-.94.35-1.56.35-5.85v-4l-.72-.05a7.15,7.15,0,0,0-1.24,0l-.52.05,0,4.23c0,3.73,0,4.27-.16,4.64A1.67,1.67,0,0,1,90,24.75a2,2,0,0,1-1-.05,1.54,1.54,0,0,1-1.25-1.17c-.22-.65-.26-1.39-.26-5.23,0-2.23,0-3.85-.06-3.87A11.86,11.86,0,0,0,85.41,14.37Z"/><path class="cls-1" d="M127.49,15.94c-2.44,3.08-2.72,3.45-2.64,3.64s.09.19.59.19H126v2.1c0,1.17,0,2.34.07,2.61.23,1.56,1.26,2.34,3.14,2.34a3.89,3.89,0,0,0,1.63-.23,5.12,5.12,0,0,0-.1-1.54c-.07-.26-.08-.27-.32-.22a6.67,6.67,0,0,1-.74,0c-.59,0-.87-.14-1.07-.53s-.13-.44-.16-2.43l0-2.14h1c1.2,0,1.1.09,1.07-1.09l0-.77-1,0-1,0V15.29h-.21C128,15.29,127.92,15.39,127.49,15.94Z"/><path class="cls-1" d="M36.85,17.78a4,4,0,0,0-3,2.67,6.65,6.65,0,0,0-.15,3.43,3.88,3.88,0,0,0,2.88,2.88,8.94,8.94,0,0,0,4.22-.21l.38-.13,0-.34c0-.5-.37-1.46-.51-1.45a6.32,6.32,0,0,0-.66.17,6.15,6.15,0,0,1-2.8,0A1.73,1.73,0,0,1,36,23.38l0-.33h5.69l.05-.54a4.63,4.63,0,0,0-1.09-3.69A4,4,0,0,0,36.85,17.78Zm1.64,1.89a2,2,0,0,1,.94,1.54v.16H36l.05-.31a1.75,1.75,0,0,1,1.06-1.42A2.65,2.65,0,0,1,38.49,19.67Z"/><path class="cls-1" d="M47.67,17.77a2.74,2.74,0,0,0-1.54,1c-.22.3-.2.32-.35-.42-.07-.36-.12-.45-.26-.51a7.62,7.62,0,0,0-1.72,0c-.1,0-.11.5-.11,4.46v4.42l.26.05a11.43,11.43,0,0,0,1.85,0l.25,0,0-2.74a15.05,15.05,0,0,1,.14-3.07,1.41,1.41,0,0,1,1.56-1.08.84.84,0,0,1,.89.61c.14.3.15.44.17,3.29l0,3,.26,0a12.31,12.31,0,0,0,1.92,0l.25,0,0-2.85,0-2.83.19-.39a1.28,1.28,0,0,1,1.22-.82c.6,0,.86.08,1.07.48s.27,1.21.27,3.91v2.49l.27.05a11.43,11.43,0,0,0,1.85,0l.26-.05V23.47c0-3.51,0-3.76-.38-4.47a2.7,2.7,0,0,0-2.75-1.31,2.78,2.78,0,0,0-2.11,1.25l-.2.27L50.92,19a3,3,0,0,0-1-1A3.7,3.7,0,0,0,47.67,17.77Z"/><path class="cls-1" d="M62.54,17.83a2.45,2.45,0,0,0-1.3.89c-.29.37-.37.42-.37.21a3.94,3.94,0,0,0-.11-.6c-.09-.34-.15-.44-.26-.48a10.22,10.22,0,0,0-1.75,0c-.1,0-.12.68-.12,6.49v6.44l.27,0a12.31,12.31,0,0,0,1.92,0l.26,0V26.91h1a4.41,4.41,0,0,0,4.82-4.84,5.24,5.24,0,0,0-.53-2.57A3.22,3.22,0,0,0,62.54,17.83Zm.82,2.11c.69.34,1,.95,1,2.23,0,1.44-.36,2.25-1.22,2.63a3.59,3.59,0,0,1-1.75.11l-.26-.05V23.19a6.07,6.07,0,0,1,.28-2.66A1.47,1.47,0,0,1,63.36,19.94Z"/><path class="cls-1" d="M78.42,17.75a4,4,0,0,0-2.75,1.91A6,6,0,0,0,75.06,23a3.86,3.86,0,0,0,3,3.76,5.64,5.64,0,0,0,1.57.15,8.13,8.13,0,0,0,2.47-.31l.55-.15L82.63,26a5.76,5.76,0,0,0-.41-1.41,3,3,0,0,0-.65.15,5.94,5.94,0,0,1-2.44.17,1.89,1.89,0,0,1-1.6-1.27c-.2-.68-.48-.61,2.71-.61,2.51,0,2.83,0,2.87-.11A9.38,9.38,0,0,0,83,20.67,3.82,3.82,0,0,0,78.42,17.75ZM80,19.7a1.71,1.71,0,0,1,.87,1.43v.24H77.41l0-.26a1.9,1.9,0,0,1,1-1.42A2.21,2.21,0,0,1,80,19.7Z"/><path class="cls-1" d="M100.66,17.75a2.74,2.74,0,0,0-1.4.83,3,3,0,0,0-.4.51,2.78,2.78,0,0,1-.14-.51,3.36,3.36,0,0,0-.2-.66,6.8,6.8,0,0,0-1.79-.08l-.17,0v12.9l.27,0a12.31,12.31,0,0,0,1.92,0l.26,0V26.91h1a5.06,5.06,0,0,0,1.54-.15,4.16,4.16,0,0,0,3.13-3.2,4.92,4.92,0,0,0,.11-1.66,4.69,4.69,0,0,0-.5-2.39A3.28,3.28,0,0,0,100.66,17.75Zm.55,2.15a1.68,1.68,0,0,1,.81.88c.15.31.16.44.16,1.43a3.28,3.28,0,0,1-.16,1.47,1.93,1.93,0,0,1-1,1.09,1.77,1.77,0,0,1-1,.19,4.45,4.45,0,0,1-.82-.05L99,24.86V23.12a20.46,20.46,0,0,1,.07-2.1A1.54,1.54,0,0,1,101.21,19.9Z"/><path class="cls-1" d="M119,17.71a16.62,16.62,0,0,0-1.71.35l-.37.11,0,.39a5.15,5.15,0,0,0,.42,1.34.88.88,0,0,0,.47-.09,6.78,6.78,0,0,1,2.8,0,1,1,0,0,1,.59.92l0,.37-1.14,0a4.91,4.91,0,0,0-1.7.21,3.2,3.2,0,0,0-1.52.95,2.25,2.25,0,0,0-.59,1.51,2.7,2.7,0,0,0,1,2.41c1.06.8,3.28,1,5.5.43l.8-.19,0-2.84c0-3.09,0-3.45-.37-4.22a3.08,3.08,0,0,0-2-1.53A10.69,10.69,0,0,0,119,17.71Zm2.18,5c.07,0,.09.31.09,1.14v1.12L121,25a5.15,5.15,0,0,1-1.71,0,1.72,1.72,0,0,1-.48-.33.8.8,0,0,1-.26-.69,1,1,0,0,1,.57-1.08A3.44,3.44,0,0,1,121.13,22.67Z"/><path class="cls-1" d="M135.12,17.78a4.11,4.11,0,0,0-2.53,1.73,5.74,5.74,0,0,0-.74,3.22,4.69,4.69,0,0,0,.51,2,3.63,3.63,0,0,0,2.53,2,8.91,8.91,0,0,0,4.21-.21l.38-.13,0-.34c0-.5-.37-1.46-.5-1.45a5.68,5.68,0,0,0-.67.17,6.13,6.13,0,0,1-2.83,0,1.81,1.81,0,0,1-1.18-1.45l-.05-.31h5.69l.05-.54a4.59,4.59,0,0,0-1.08-3.69A4,4,0,0,0,135.12,17.78Zm1.64,1.89a2,2,0,0,1,.94,1.54v.16h-3.42V21.2a1.94,1.94,0,0,1,1.05-1.55A2.75,2.75,0,0,1,136.76,19.67Z"/><path class="cls-1" d="M69,17.85c-.12,0-.13.31-.13,4.46v4.42l.22.05a12.65,12.65,0,0,0,2,0l.22-.05V24.39c0-1.38,0-2.52.07-2.78a2,2,0,0,1,.86-1.38c.3-.19.4-.21,1.09-.24l.76,0,0-.21a6.33,6.33,0,0,0,0-1.87,1.76,1.76,0,0,0-.77-.05,2.09,2.09,0,0,0-1.76.82l-.46.46L71,18.52a3,3,0,0,0-.16-.63A11.24,11.24,0,0,0,69,17.85Z"/><path class="cls-1" d="M15.13,18.1a3.19,3.19,0,0,0-1.25.58,1.33,1.33,0,0,0-.49,1.26,4.12,4.12,0,0,0,.79,2,4.56,4.56,0,0,1,.84,3,4.16,4.16,0,0,1-.45,1.67,5,5,0,0,1-3.43,2.71c-1,.15-1,.13-.45.41a9.5,9.5,0,0,0,2.24.74,9.43,9.43,0,0,0,2.75,0A6.48,6.48,0,0,0,20.24,26,7,7,0,0,0,20,21a6.16,6.16,0,0,0-3.17-2.87A4.23,4.23,0,0,0,15.13,18.1Z"/><path class="cls-1" d="M2.65,18.4c0,.06-.07.09-.11.07a3.89,3.89,0,0,0-.7,1.44,7.61,7.61,0,0,0-.19,4.5A6.63,6.63,0,0,0,5,27.87a6.74,6.74,0,0,0,7.8-1.41,5.63,5.63,0,0,0,1.06-1.7,4.68,4.68,0,0,0-.08-2.23,1.54,1.54,0,0,0-1.45-1.1,3.8,3.8,0,0,0-2,.72,5.93,5.93,0,0,1-2.18.9,4.43,4.43,0,0,1-3.13-.73,5,5,0,0,1-2.31-3.61C2.74,18.3,2.72,18.21,2.65,18.4Z"/><path class="cls-1" d="M21.29,26.67a2.42,2.42,0,0,0-1.71,2.27,2,2,0,0,0,1.07,1.9,1.45,1.45,0,0,0,.93.21,1.7,1.7,0,0,0,1-.24A2.36,2.36,0,0,0,24,28.68a2,2,0,0,0-.53-1.43A2,2,0,0,0,21.29,26.67Z"/><path class="cls-1" d="M2.65,27.65A2.45,2.45,0,0,0,1.12,28.8a2.14,2.14,0,0,0,1,2.91,1.63,1.63,0,0,0,1,.24,2.32,2.32,0,0,0,1.73-.69,2.18,2.18,0,0,0-1.6-3.64A3.09,3.09,0,0,0,2.65,27.65Z"/></svg>