<svg id="Camada_1" data-name="Camada 1" xmlns="http://www.w3.org/2000/svg" viewBox="0 0 130 40"><defs><style>.cls-1{fill:#fff;}</style></defs><path class="cls-1" d="M6.15,12.09a6.5,6.5,0,0,0-2.54,1A3.65,3.65,0,0,0,1.85,16.6a2.13,2.13,0,0,0,1.73,2,6.83,6.83,0,0,0,2.11.32A7,7,0,0,1,6.6,19a1.81,1.81,0,0,1-.33.5,10.85,10.85,0,0,1-2-.11,5.83,5.83,0,0,1-1.91-.6,1.92,1.92,0,0,1-.77-.92c-.08-.21-.19-.36-.23-.34A1.51,1.51,0,0,0,1,18a2.43,2.43,0,0,0,.31,2.85,4.5,4.5,0,0,0,1.55.73A9.21,9.21,0,0,0,5,21.77h.22a12.42,12.42,0,0,1-1,1.35c-.07.08-.09.08-.16,0a.5.5,0,0,1-.08-.2,1.32,1.32,0,0,0-.61-.76,1.07,1.07,0,0,0-1-.13,1.24,1.24,0,0,0-1,1.23,1.18,1.18,0,0,0,.72,1.06,1.83,1.83,0,0,0,1.91-.15A6.72,6.72,0,0,0,5.9,22.29l.29-.48.81,0a6.38,6.38,0,0,1,3.12.4.94.94,0,0,1,.45.67,1.21,1.21,0,0,1-.13.42.79.79,0,0,0-.08.3c.08.08.4-.13.7-.45a2.74,2.74,0,0,0,.73-2.57c-.36-.81-1.26-1.07-3.37-1.07H7.32l.1-.27.12-.26H8.93a4.61,4.61,0,0,1,2.6.43,2,2,0,0,1,1,1.62c0,.76-.46,1.63-1.63,3.14-.23.3-.49.61-.56.69s-.15.13-.43,0a10.87,10.87,0,0,0-3.25-.56,8.45,8.45,0,0,0-4.81,1.4A5.07,5.07,0,0,0,.34,27.15c-.49.7-.47.75.2.34a8.18,8.18,0,0,1,3.77-1.08,11.28,11.28,0,0,1,2.44.39c.57.17,2.13.72,2.43.86l.21.1a3.14,3.14,0,0,0,.28-.46c.15-.24.42-.65.61-.91.32-.42.59-.75,1.85-2.24.23-.26.72-.89,1.09-1.38a5.19,5.19,0,0,0,1.38-3.13,2.67,2.67,0,0,0-1-2.16,7.29,7.29,0,0,0-3.88-.91,2.58,2.58,0,0,1-.68,0,8.33,8.33,0,0,1,1-1.23,12.94,12.94,0,0,1,1.86-1.84c.22-.13.2-.24,0-.44s-.39-.19-.64.06l-.19.22-.25-.14A7.52,7.52,0,0,0,8,12.12,11.06,11.06,0,0,0,6.15,12.09Zm.44,1.25a3.87,3.87,0,0,1,2,1.4,1.72,1.72,0,0,1,.23.42,1.1,1.1,0,0,1-.23.37c-.15.21-.3.42-.44.64a.81.81,0,0,1-.35.38c-.45,0-.9,0-1.34,0-1.53,0-2.26-.2-2.75-.6a1.73,1.73,0,0,1-.44-.82c-.1-.72.61-1.5,1.63-1.78A3.72,3.72,0,0,1,6.59,13.34Z"/><path class="cls-1" d="M97.52,13a6.5,6.5,0,0,1-2,1,2.09,2.09,0,0,0-.43.11,1.83,1.83,0,0,0,.12.46l.14.44V25.18l-.16.11c-.09.07-.36.31-.59.54l-.44.43.56.19a8.17,8.17,0,0,1,2,1l.38.3c.09.06.22,0,1.43-1l.81-.63.15-.1-.17-.24c-.19-.3-.31-.35-.42-.19s-.28.16-.46-.07a1.68,1.68,0,0,0-.73-.47c-.1,0-.11-.33-.11-5.34,0-3.2,0-5.47.06-5.69A6.17,6.17,0,0,1,98,12.76C98.09,12.57,98,12.62,97.52,13Z"/><path class="cls-1" d="M61.21,14.48c-.23.17-.65.46-.92.62-.54.33-.65.44-.55.59s.25.22.4.07.16-.12.2-.06a.25.25,0,0,1,.06.16c0,.11.33.37.63.48a2.3,2.3,0,0,0,.82.12,1.35,1.35,0,0,0,.85-.18,1.7,1.7,0,0,0,1-1.28c0-.18,0-.18-.22-.14-.71.13-.81.12-1.15-.13a1.72,1.72,0,0,1-.44-.41c-.07-.1-.15-.18-.18-.18A2.16,2.16,0,0,0,61.21,14.48Z"/><path class="cls-1" d="M101.73,14.58a11.7,11.7,0,0,1-1,.68,2.08,2.08,0,0,0-.42.26,1.07,1.07,0,0,0,.15.22c.14.17.14.17.31.06s.29-.12.33,0a1.09,1.09,0,0,0,.71.53,3,3,0,0,0,1.27,0,2.32,2.32,0,0,0,1-.64c.19-.22.44-.82.37-.92a2.21,2.21,0,0,0-.51,0c-.56.09-.67.05-1.19-.43-.12-.11-.24-.22-.37-.32Z"/><path class="cls-1" d="M118.55,14.49a3.71,3.71,0,0,1-.81.57,3.61,3.61,0,0,1-1.43.4c-.17,0-.21,0-.1.2s.1.3.1.95v.82H116a3.16,3.16,0,0,1-.68-.14,1.62,1.62,0,0,0-.43-.12,1.28,1.28,0,0,0,0,.27,7.23,7.23,0,0,1,0,1.74l0,.16.22-.09a3.93,3.93,0,0,1,.94-.29l.25,0V25l-.38.38a3.86,3.86,0,0,0-.58.81c-.27.54-.27.61,0,.46a1.29,1.29,0,0,1,1-.13,5.09,5.09,0,0,1,2,1l.18.2.7-.63c.39-.35.91-.82,1.14-1s.42-.38.37-.48-.08-.11-.11-.11-.06,0-.08-.11a.13.13,0,0,0-.14-.13.12.12,0,0,0-.1.07c-.07.1-.3.06-.42-.06a2.71,2.71,0,0,0-1-.48l-.16-.05V19h.57a2.58,2.58,0,0,1,.73.11l.33.13c.16,0,.16,0,.1-.15a6.7,6.7,0,0,1-.08-.77,1.85,1.85,0,0,1,.06-.81c0-.14.08-.28,0-.29a.6.6,0,0,0-.35.05,4.38,4.38,0,0,1-1.34.18c-.08,0-.08-.24,0-1.33a4.71,4.71,0,0,1,.15-1.63.57.57,0,0,0,.07-.34A1.43,1.43,0,0,0,118.55,14.49Z"/><path class="cls-1" d="M24.12,17.72l-1.18,1.15c-.05,0-.06.08,0,.13a1.55,1.55,0,0,0,.36.08,1.24,1.24,0,0,1,.54.35l.34.32v5.48a1.12,1.12,0,0,1-.28.25,4.15,4.15,0,0,0-.81,1.06,1.35,1.35,0,0,0,.53.05,3.41,3.41,0,0,1,2.34,1l.35.3.82-.66,1.05-.81c.11-.1.2-.17.2-.2a2.82,2.82,0,0,0-.81-.73,4.6,4.6,0,0,0-.59-.29L26.67,25V19.9l.27-.21a5.3,5.3,0,0,0,.52-.42l.25-.23.25.23a3.2,3.2,0,0,0,1,.57c.09,0,.1.12.1.81v5.77l.17.34a2.12,2.12,0,0,0,.44.59,2.61,2.61,0,0,0,1.12.58,6.42,6.42,0,0,0,.55-.62l1.36-1.7.11-.14h-.46c-.47,0-.62-.06-.76-.33a24.71,24.71,0,0,1-.06-3V19.32l.17-.17a1.5,1.5,0,0,0,.29-.42,3,3,0,0,0,.25-1.07.7.7,0,0,0-.24.05,2.84,2.84,0,0,1-.95.25c-.26,0-.59-.24-1.15-.85a2.44,2.44,0,0,0-.43-.42,2.79,2.79,0,0,0-.43.34c-.81.69-2.35,2-2.44,2s-.06-.11,0-.29a2.41,2.41,0,0,0-.86-1.63,2.38,2.38,0,0,0-.51-.44A9.66,9.66,0,0,0,24.12,17.72Z"/><path class="cls-1" d="M71.23,16.86a7.65,7.65,0,0,1-3.15,1.25,7.82,7.82,0,0,1-2,0,.55.55,0,0,0-.31,0,.6.6,0,0,0,.13.33l.17.31v6.38l-.28.19a1.87,1.87,0,0,0-.74.81c-.19.38-.19.41.08.37s.38-.05.58-.06a2.59,2.59,0,0,1,2,.95,3.33,3.33,0,0,0,.39.36l.49-.36a7,7,0,0,1,2.23-1.07,9,9,0,0,1,2.64-.15,1,1,0,0,0,.34,0,1.28,1.28,0,0,0-.15-.25,1.69,1.69,0,0,1-.2-.46c0-.14-.06-1.43-.06-3.15V19.43l.27-.22a1.66,1.66,0,0,0,.45-.63c.34-.72.34-.76-.14-.59a1.27,1.27,0,0,1-.9,0,5.54,5.54,0,0,1-1.25-1.17c-.06-.1-.15-.19-.19-.19A1.9,1.9,0,0,0,71.23,16.86Zm-1.67,1.86c0,.17.68.67,1.11.81l.21.07v5.9h-.13a1.4,1.4,0,0,0-.35.1l-.21.1L70,25.49a2.46,2.46,0,0,0-1.11-.6,2.78,2.78,0,0,1-.38-.12s-.06-1.1-.06-3V18.85l.31,0a2.13,2.13,0,0,0,.42-.1C69.34,18.64,69.56,18.64,69.56,18.72Z"/><path class="cls-1" d="M75.87,17.8c-.64.64-1.16,1.17-1.15,1.18l.31.08a1.47,1.47,0,0,1,.81.5l.18.21v5.48l-.29.22a2.92,2.92,0,0,0-.77.94c-.12.21,0,.26.24.17a3.38,3.38,0,0,1,2.52.94l.38.34.55-.41c.28-.22.81-.59,1.07-.81s.52-.42.48-.49a4.28,4.28,0,0,0-1-.81,3.26,3.26,0,0,0-.48-.2.48.48,0,0,1-.22-.12V19.89l.51-.42.5-.4.2.16a4.53,4.53,0,0,0,.7.43l.5.26v6.54l.14.28a2.55,2.55,0,0,0,.4.53c.31.32,1,.68,1.19.6a2.92,2.92,0,0,0,.42-.44c.75-.95,1.53-1.93,1.53-2a1.15,1.15,0,0,0-.37,0,.92.92,0,0,1-.81-.29,14.81,14.81,0,0,1-.06-3V19.34l.14-.15a2.34,2.34,0,0,0,.56-1.33c0-.16,0-.18-.14-.18a.46.46,0,0,0-.2.05,2.12,2.12,0,0,1-.86.23,2.69,2.69,0,0,1-1.37-1.14c-.09-.19-.19-.16-.59.17-.19.18-.69.6-1.1.94l-1,.88a1,1,0,0,1-.32.22,2.54,2.54,0,0,1,0-.39A2.2,2.2,0,0,0,78,17.43a3.61,3.61,0,0,0-.89-.81S76.52,17.16,75.87,17.8Z"/><path class="cls-1" d="M20,17.07a7.24,7.24,0,0,1-4,1.18,1.13,1.13,0,0,0-.26,0,2.5,2.5,0,0,0,.15.38c.26.49.27.81.28,4V25.3l-.24.17a4.6,4.6,0,0,0-.88,1l-.09.15h.88a8,8,0,0,1,3.7.88l.61.31.57-.65c1.29-1.43,1.47-1.62,1.47-1.73s-.1-.15-.22-.24-.25-.15-.35-.09-.13.1-.13.14a.31.31,0,0,1-.12.18c-.1.09-.14.09-.3,0a15.1,15.1,0,0,0-2-.61,2.62,2.62,0,0,1-.54-.12,6.71,6.71,0,0,1,0-1.79,1.46,1.46,0,0,1,.38-.27l1.56-.94c.66-.41,1.39-.82,1.63-.95a1.33,1.33,0,0,0,.41-.25,1.45,1.45,0,0,0-.2-.34,16,16,0,0,1-1.62-3c-.06-.17-.15-.33-.19-.33A2,2,0,0,0,20,17.07Zm-1.24,1.57a3.77,3.77,0,0,1,.26.48,10.2,10.2,0,0,0,.87,1.63A.57.57,0,0,1,20,21a4.12,4.12,0,0,1-.45.27c-.23.13-.55.33-.7.43a1.2,1.2,0,0,1-.34.21,22,22,0,0,1,0-3.25C18.61,18.59,18.64,18.59,18.73,18.64Z"/><path class="cls-1" d="M55.8,17.17a4.19,4.19,0,0,1-1.91,1,2.5,2.5,0,0,1-1.33,0c-.1,0-.11,0-.07.1.3.94.29.75.3,3.91v3l-.36.37c-.34.34-.81,1-.73,1.06a.8.8,0,0,0,.31,0,5.45,5.45,0,0,1,3.93,1,1.5,1.5,0,0,0,.44.26,3.59,3.59,0,0,0,.52-.58c.24-.33.69-.9,1-1.26a5.68,5.68,0,0,0,.55-.74.86.86,0,0,0-.45-.3,1.48,1.48,0,0,0-.29.28c-.23.32-.33.35-.54.17a4.8,4.8,0,0,0-1.75-.68l-.24,0V18.82s.12.05.22.18a1.87,1.87,0,0,0,1.43.6,1.73,1.73,0,0,0,1.34-.45,2.07,2.07,0,0,0,.71-1c.19-.51.17-.51-.31-.25a.91.91,0,0,1-1,0,4.29,4.29,0,0,1-1.15-1C56.32,16.76,56.17,16.8,55.8,17.17Z"/><path class="cls-1" d="M38.61,17.19a4.13,4.13,0,0,1-1.48.95,3.23,3.23,0,0,1-1.35.14,9.82,9.82,0,0,1-1.21-.07.81.81,0,0,0-.31,0,.41.41,0,0,0,.08.22c.07.1.11.28.11,2.43v2.21l-.15.3-.14.29H35a3.66,3.66,0,0,1,.81,0,1.2,1.2,0,0,1-.17.17,11.63,11.63,0,0,0-1.9,2.57,8.4,8.4,0,0,0-.53,1.45s.07.08.21.08.35-.1.69-.57a1.54,1.54,0,0,1,1.23-.58,1.72,1.72,0,0,1,1.42.54l.48.44.37-.31A3.87,3.87,0,0,1,39,26.63a3.62,3.62,0,0,1,1.27-.13,4.92,4.92,0,0,1,1.15.17,1.32,1.32,0,0,0,.33.08,1.06,1.06,0,0,0-.12-.34l-.15-.3V24a10.44,10.44,0,0,1,.09-2.37,2.4,2.4,0,0,0,.12-.38v-.14l-1.08.05-1.18,0,.48-.54a10.8,10.8,0,0,0,2.26-3.45c0-.05-.1-.08-.31-.08a.73.73,0,0,0-.62.26,1.51,1.51,0,0,1-1,.38,2,2,0,0,1-1-.54,2,2,0,0,0-.31-.27A2.16,2.16,0,0,0,38.61,17.19ZM37.8,19a1.92,1.92,0,0,0,2,.36,1,1,0,0,1,.34-.12,9.82,9.82,0,0,1-.82.89,16.31,16.31,0,0,1-2.08,2c-.3.16-.3.12-.3-1.62V18.88l.13-.06A.66.66,0,0,1,37.8,19Zm1.32,3.73a7,7,0,0,1,.06,1.58v1.55l-.27.06-.28.05-.31-.28a4.81,4.81,0,0,0-.57-.44A2.64,2.64,0,0,0,35.84,25a.78.78,0,0,1-.34.05,14.58,14.58,0,0,1,1.16-1.2l1.18-1.18h.61Z"/><path class="cls-1" d="M110.92,17.25a3.6,3.6,0,0,1-1.39.89,5.92,5.92,0,0,1-2.37.09,3,3,0,0,0-.52-.07,2.56,2.56,0,0,0,.11.24c.1.21.11.34.11,2.44V23l-.14.27a2.1,2.1,0,0,0-.15.3,3.66,3.66,0,0,0,.81,0,3.75,3.75,0,0,1,.82,0,.8.8,0,0,1-.22.23,11.58,11.58,0,0,0-1.86,2.59,11.26,11.26,0,0,0-.48,1.38c0,.08.31.1.46,0a1.59,1.59,0,0,0,.3-.34,1.69,1.69,0,0,1,.95-.71,2.22,2.22,0,0,1,1.25.12,3.28,3.28,0,0,1,.64.53l.4.41.35-.31a3.74,3.74,0,0,1,1.45-.82,3.33,3.33,0,0,1,1.33-.15,3.25,3.25,0,0,1,1.35.17c.14.06.13-.09,0-.33s-.12-.3-.12-2.44V21.7l.14-.28c.14-.24.14-.27.06-.31a11.81,11.81,0,0,0-1.19,0h-1.09a5.78,5.78,0,0,1,.52-.59,10.18,10.18,0,0,0,2-2.92l.21-.49-.28-.05c-.3,0-.3,0-.61.24a1.22,1.22,0,0,1-1.59.27,3.17,3.17,0,0,1-.56-.4.82.82,0,0,0-.27-.22A2.46,2.46,0,0,0,110.92,17.25Zm-.61,1.84a1.75,1.75,0,0,0,1.88.26,1.17,1.17,0,0,1,.26-.1A18.56,18.56,0,0,1,110,21.83c-.67.59-.65.63-.66-1.19a14.59,14.59,0,0,1,0-1.62.52.52,0,0,1,.49-.17A5.06,5.06,0,0,1,110.31,19.09Zm1.27,5.22v1.56l-.27.05L111,26l-.33-.31a2.58,2.58,0,0,0-2.44-.66,1,1,0,0,1-.33.06,21.76,21.76,0,0,1,1.79-1.93l.43-.42h1.43Z"/><path class="cls-1" d="M44.63,17.42a7.47,7.47,0,0,1-1.76,1.19,3.48,3.48,0,0,0-.42.2,3.62,3.62,0,0,0,.38.41c.22.21.67.71,1,1.09l.73.81a.36.36,0,0,1,.14.16,3,3,0,0,1-.47.4,4.65,4.65,0,0,0-1.62,2.14,3.44,3.44,0,0,0,.15,2.24A3.93,3.93,0,0,0,44,27.27a3.74,3.74,0,0,0,1.63.5h.34l.59-.54c.33-.29.71-.63.81-.74l.21-.23.27.41a2.17,2.17,0,0,0,1.63,1.11c.42,0,.48,0,1-.75.18-.28.47-.67.61-.88a2.29,2.29,0,0,0,.28-.41.73.73,0,0,0-.25,0,.87.87,0,0,1-.74-.34c-.41-.38-.39-.25-.39-3.12V19.6l.22-.15a1.78,1.78,0,0,0,.38-.34,3.78,3.78,0,0,0,.48-1c0-.17,0-.17-.19-.13a2.28,2.28,0,0,1-1.16,0,3.47,3.47,0,0,1-.89-.82c0-.08-.11-.15-.14-.15a1.81,1.81,0,0,0-.42.41c-.58.71-1.1,1.09-1.44,1.09s-.74-.27-1.35-1.09a3.31,3.31,0,0,0-.35-.41Zm2.38,2a1.31,1.31,0,0,0,.37.24l.16.06v5.87l-.4.06a2.13,2.13,0,0,1-2.21-1.28,1.45,1.45,0,0,1-.23-1.05,2,2,0,0,1,.19-1.08,2.38,2.38,0,0,1,.23-.45,2.89,2.89,0,0,1,.34.32,9.21,9.21,0,0,0,1.21,1.29,1.32,1.32,0,0,0,.29-.19l.22-.19-.29-.32c-1-1.16-2.27-2.59-2.38-2.68s-.16-.26.12-.2a2.27,2.27,0,0,0,1.87-.42.68.68,0,0,1,.21-.17A1,1,0,0,1,47,19.47Z"/><path class="cls-1" d="M87.37,17.36a8,8,0,0,1-2.16,1.37c-.18,0-.16.12.1.33s.69.69,1,1.06.81.94.9,1,.16.26.06.26a5.93,5.93,0,0,0-1.22,1.07,3.24,3.24,0,0,0-.89,1.8,2.66,2.66,0,0,0,.12,1.48,3,3,0,0,0,.81,1.17,4,4,0,0,0,2.1.81c.38,0,.45,0,1.43-1,.18-.18.36-.35.56-.52a1.2,1.2,0,0,1,.16.27,3,3,0,0,0,1.06,1.08,2,2,0,0,0,.59.19c.4.05.58-.07,1-.73.2-.3.49-.71.65-.91a3,3,0,0,0,.27-.42.78.78,0,0,0-.27-.05,1.3,1.3,0,0,1-1-.61l-.15-.25v-5.2l.33-.28a3,3,0,0,0,.45-.49,2.21,2.21,0,0,0,.3-.86.82.82,0,0,0-.35,0,1.87,1.87,0,0,1-1,0,3.46,3.46,0,0,1-.89-.9c0-.14-.19,0-.4.26a5.18,5.18,0,0,1-1.19,1.1c-.24.14-.29.16-.5.09s-.35-.16-.74-.56a5.21,5.21,0,0,1-.6-.72.44.44,0,0,0-.15-.22A3,3,0,0,0,87.37,17.36Zm2.22,2.07a1.41,1.41,0,0,0,.36.24l.23.1v5.87l-.32.08a2.18,2.18,0,0,1-2.26-1.33,1.73,1.73,0,0,1-.22-.89,2.09,2.09,0,0,1,.15-1.05,2.11,2.11,0,0,1,.25-.55,7.74,7.74,0,0,1,.81.81l.75.81.22-.15a.53.53,0,0,0,.23-.24,8.83,8.83,0,0,0-1.29-1.62c-.74-.82-1.4-1.63-1.42-1.63h.23a2.3,2.3,0,0,0,1.88-.42C89.4,19.26,89.4,19.25,89.59,19.43Z"/><path class="cls-1" d="M123.4,17.4a6.68,6.68,0,0,1-1.74,1.18l-.49.24a1,1,0,0,0,.25.25c.3.26,2,2.16,2,2.23a2.51,2.51,0,0,1-.35.31,6.35,6.35,0,0,0-1.39,1.49,3,3,0,0,0,.4,3.69,3.8,3.8,0,0,0,2.44,1,5.83,5.83,0,0,0,1.28-1.05,3.13,3.13,0,0,1,.52-.43,2.3,2.3,0,0,1,.21.33,3,3,0,0,0,1,1c.7.3,1,.2,1.46-.49.19-.28.48-.7.65-.92a2.41,2.41,0,0,0,.3-.48.72.72,0,0,0-.31-.09,1.16,1.16,0,0,1-.89-.59l-.17-.23V19.67l.36-.33a2.3,2.3,0,0,0,.7-1.2V18l-.22,0c-1,.17-1.17.11-1.75-.52a2.67,2.67,0,0,0-.46-.43,1.11,1.11,0,0,0-.18.19,5.59,5.59,0,0,1-1.3,1.22.53.53,0,0,1-.5.08,2.63,2.63,0,0,1-1.13-1,1.85,1.85,0,0,0-.41-.47A2.26,2.26,0,0,0,123.4,17.4Zm2.28,2a1,1,0,0,0,.34.26l.27.15v5.84l-.32.06a1.52,1.52,0,0,1-1.14-.15,2.72,2.72,0,0,1-1.16-1.21,1.44,1.44,0,0,1-.21-1,2.16,2.16,0,0,1,.15-.9c.08-.2.16-.43.19-.51s.06-.12.08-.12a8.16,8.16,0,0,1,.71.73c.81.9.81.9.85.88a1.31,1.31,0,0,0,.44-.33c0-.09,0-.21-.38-.57s-.82-.9-1.48-1.68l-.56-.62a2.69,2.69,0,0,1-.27-.32,2.58,2.58,0,0,1,.68,0,1.79,1.79,0,0,0,1-.16,1.48,1.48,0,0,0,.43-.31C125.42,19.27,125.6,19.25,125.68,19.39Z"/><path class="cls-1" d="M60.84,17.73c-.38.35-.91.82-1.17,1a2.1,2.1,0,0,0-.48.46c0,.11.17.32.27.32a.3.3,0,0,0,.19-.1c.11-.09.12-.08.36.12l.33.27A24.12,24.12,0,0,1,60.4,23c0,3.57,0,3.49.5,4.06a2.48,2.48,0,0,0,1.4.73h.28l1-1c.57-.55,1-1,1-1a2.57,2.57,0,0,0-.4.06,1.17,1.17,0,0,1-1.31-.45c-.12-.19-.12-.28-.12-2.89V19.8l.26-.15a2.16,2.16,0,0,0,.87-1.16A1.35,1.35,0,0,0,64,18a1.43,1.43,0,0,0-.42.09c-.48.16-.62.16-.87,0a5.9,5.9,0,0,1-1.06-1C61.68,17,61.47,17.16,60.84,17.73Z"/><path class="cls-1" d="M101.84,17.46c-.48.45-1.54,1.36-1.8,1.53s-.24.3-.07.45.12.11.29,0l.19-.1a2.35,2.35,0,0,1,.33.3l.32.29v6.34l.16.32A2.34,2.34,0,0,0,103,27.78h.29l1-1a12.52,12.52,0,0,0,1-1.05.57.57,0,0,0-.29,0,1.34,1.34,0,0,1-1.44-.45c-.1-.15-.11-.33-.11-2.84V19.83l.33-.23a2.25,2.25,0,0,0,.52-.5,2.59,2.59,0,0,0,.4-1.06,1.25,1.25,0,0,0-.42.08c-.5.17-.61.17-.9,0a3.51,3.51,0,0,1-1-.91C102.4,17,102.25,17.08,101.84,17.46Z"/></svg>