<svg id="Camada_1" data-name="Camada 1" xmlns="http://www.w3.org/2000/svg" viewBox="0 0 160 40"><defs><style>.cls-1{fill:#fff;}</style></defs><path class="cls-1" d="M7.57,10.26a7.91,7.91,0,0,0-3.13,1.23,4.51,4.51,0,0,0-2.17,4.32A2.63,2.63,0,0,0,4.4,18.28,8.41,8.41,0,0,0,7,18.67a9.22,9.22,0,0,1,1.12.07,2.71,2.71,0,0,1-.4.62,14.38,14.38,0,0,1-2.53-.13,7.48,7.48,0,0,1-2.35-.74,2.35,2.35,0,0,1-.94-1.14c-.11-.25-.24-.44-.29-.42a2.16,2.16,0,0,0-.36.56A3,3,0,0,0,1.64,21a5.5,5.5,0,0,0,1.9.9,11.61,11.61,0,0,0,2.66.26c.15,0,.27,0,.27,0a14.8,14.8,0,0,1-1.28,1.67c-.08.09-.11.09-.19,0a.47.47,0,0,1-.1-.25,1.68,1.68,0,0,0-.76-.94,1.32,1.32,0,0,0-1.2-.16A1.54,1.54,0,0,0,1.76,24a1.42,1.42,0,0,0,.88,1.3A2.27,2.27,0,0,0,5,25.12,8.3,8.3,0,0,0,7.26,22.8l.35-.59,1-.05a7.87,7.87,0,0,1,3.84.5,1.12,1.12,0,0,1,.55.82,1.5,1.5,0,0,1-.15.52.8.8,0,0,0-.1.37c.09.1.49-.16.86-.55a3.41,3.41,0,0,0,.9-3.17c-.45-1-1.56-1.31-4.15-1.31H9L9.13,19l.15-.32,1.71,0c1.87,0,2.45.12,3.2.53a2.46,2.46,0,0,1,1.26,2c0,.93-.56,2-2,3.86-.28.37-.6.75-.69.85s-.19.16-.53.05a13.21,13.21,0,0,0-4-.69A10.41,10.41,0,0,0,2.31,27,6.46,6.46,0,0,0,.42,28.78c-.61.87-.58.93.24.43A10,10,0,0,1,5.3,27.88a13.88,13.88,0,0,1,3,.47c.71.21,2.63.89,3,1.06a1.16,1.16,0,0,0,.25.12,3.34,3.34,0,0,0,.35-.56c.18-.3.52-.8.75-1.12.39-.52.72-.92,2.28-2.76.28-.32.88-1.09,1.34-1.7,1.22-1.63,1.69-2.68,1.69-3.84a3.26,3.26,0,0,0-1.25-2.66,9,9,0,0,0-4.78-1.12,3.34,3.34,0,0,1-.83,0,10.19,10.19,0,0,1,1.22-1.52,15.8,15.8,0,0,1,2.29-2.26c.26-.16.24-.3-.07-.54s-.48-.24-.78.07l-.24.27-.3-.17A9.31,9.31,0,0,0,9.8,10.29,12.86,12.86,0,0,0,7.57,10.26Zm.54,1.53a4.8,4.8,0,0,1,2.5,1.73,2.3,2.3,0,0,1,.28.51,1.5,1.5,0,0,1-.28.46,9,9,0,0,0-.54.78c-.17.29-.32.44-.44.47a15,15,0,0,1-1.65,0C6.1,15.71,5.2,15.5,4.6,15a2,2,0,0,1-.54-1c-.12-.89.75-1.85,2-2.19A4.64,4.64,0,0,1,8.11,11.79Z"/><path class="cls-1" d="M120,11.35a7.82,7.82,0,0,1-2.47,1.24,3.22,3.22,0,0,0-.52.14,2.44,2.44,0,0,0,.14.56l.18.54V26.36l-.2.14c-.11.08-.44.38-.73.66l-.54.53.69.23A10.2,10.2,0,0,1,119,29.19l.47.37c.1.07.26,0,1.75-1.26l1-.77.18-.12-.2-.3c-.24-.37-.38-.43-.52-.23s-.35.19-.56-.09a2.12,2.12,0,0,0-.91-.57c-.12,0-.13-.41-.13-6.58,0-3.93,0-6.73.08-7a7.64,7.64,0,0,1,.45-1.56C120.7,10.84,120.56,10.91,120,11.35Z"/><path class="cls-1" d="M75.32,13.19c-.29.22-.8.57-1.13.77-.67.4-.8.54-.68.72s.3.28.49.09.2-.15.25-.07a.4.4,0,0,1,.07.19c0,.14.41.46.78.6a2.66,2.66,0,0,0,1,.14,1.65,1.65,0,0,0,1.05-.22,2.07,2.07,0,0,0,1.24-1.57c0-.22,0-.22-.27-.18-.87.16-1,.15-1.41-.16a2.13,2.13,0,0,1-.55-.5c-.08-.12-.18-.22-.22-.22A2.77,2.77,0,0,0,75.32,13.19Z"/><path class="cls-1" d="M125.18,13.32a13.37,13.37,0,0,1-1.23.83,3,3,0,0,0-.52.32,1,1,0,0,0,.18.27c.17.21.17.21.38.08s.36-.15.41.06a1.3,1.3,0,0,0,.87.65,3.58,3.58,0,0,0,1.56,0,2.74,2.74,0,0,0,1.19-.79c.23-.27.54-1,.45-1.12a2.22,2.22,0,0,0-.62.06c-.69.11-.83.06-1.47-.53a4.89,4.89,0,0,0-.46-.4Z"/><path class="cls-1" d="M145.87,13.21a4.72,4.72,0,0,1-1,.7,4.32,4.32,0,0,1-1.76.49c-.2-.05-.25.06-.12.25s.12.37.12,1.17v1h-.34a3.46,3.46,0,0,1-.84-.17,2.47,2.47,0,0,0-.52-.15,1.15,1.15,0,0,0,.06.34,9.06,9.06,0,0,1,0,2.14l-.05.2.27-.11a4.54,4.54,0,0,1,1.16-.36l.3-.05v7.5l-.47.47a4.7,4.7,0,0,0-.71,1c-.33.66-.33.75,0,.56a1.6,1.6,0,0,1,1.23-.15,6,6,0,0,1,2.41,1.28l.22.24.86-.78c.48-.43,1.12-1,1.41-1.22.46-.4.52-.47.45-.59s-.1-.14-.13-.14-.08-.06-.1-.14a.16.16,0,0,0-.3-.07c-.08.12-.36.07-.51-.08a3.6,3.6,0,0,0-1.18-.59l-.2-.05V18.74l.7,0a3.13,3.13,0,0,1,.9.14,3.12,3.12,0,0,0,.41.16c.19,0,.19,0,.12-.19a7.4,7.4,0,0,1-.1-.94,2.26,2.26,0,0,1,.07-1c.06-.17.1-.34.07-.36a.87.87,0,0,0-.44.07,5.77,5.77,0,0,1-1.65.22c-.09,0-.09-.3-.06-1.64a5.79,5.79,0,0,1,.19-2,.75.75,0,0,0,.08-.42A1.72,1.72,0,0,0,145.87,13.21Z"/><path class="cls-1" d="M29.68,17.18c-.75.74-1.4,1.38-1.46,1.42s-.07.1.07.16a2.92,2.92,0,0,0,.44.1,1.58,1.58,0,0,1,.67.43l.41.39V23c0,1.82,0,3.35,0,3.42a1.34,1.34,0,0,1-.34.31,4.86,4.86,0,0,0-1,1.31,2,2,0,0,0,.66.06A4.16,4.16,0,0,1,32,29.29l.44.37,1-.81c.58-.44,1.15-.88,1.29-1s.25-.21.25-.25a3.61,3.61,0,0,0-1-.9,5.41,5.41,0,0,0-.72-.35l-.45-.17V19.86l.34-.25a6.32,6.32,0,0,0,.64-.52l.3-.28.31.28a3.92,3.92,0,0,0,1.28.7c.11,0,.12.15.13,1,0,.52,0,2.34,0,4l0,3.1.2.41a2.75,2.75,0,0,0,.55.73,3.12,3.12,0,0,0,1.37.71,6.84,6.84,0,0,0,.68-.76l1.68-2.09.13-.17h-.56c-.59,0-.77-.08-.94-.41a30.43,30.43,0,0,1-.08-3.67V19.15l.21-.21a1.71,1.71,0,0,0,.36-.52,3.79,3.79,0,0,0,.31-1.31s-.15,0-.3.06a3.51,3.51,0,0,1-1.17.31c-.31,0-.72-.3-1.41-1.05a4.06,4.06,0,0,0-.53-.52,3.56,3.56,0,0,0-.53.42c-1,.85-2.89,2.44-3,2.44s-.07-.13,0-.36a3,3,0,0,0-1.06-2,3,3,0,0,0-.63-.55A13.15,13.15,0,0,0,29.68,17.18Z"/><path class="cls-1" d="M87.65,16.13a9.6,9.6,0,0,1-3.88,1.53,9.8,9.8,0,0,1-2.52,0,.66.66,0,0,0-.38,0s0,.2.15.41l.22.38V26.3l-.35.23a2.42,2.42,0,0,0-.91,1c-.23.47-.23.51.1.46.15,0,.47-.06.71-.08a3.21,3.21,0,0,1,2.51,1.17,5.62,5.62,0,0,0,.48.44l.61-.44a8.58,8.58,0,0,1,2.74-1.32,11.24,11.24,0,0,1,3.25-.18,1.21,1.21,0,0,0,.41,0,1.47,1.47,0,0,0-.18-.31,2.24,2.24,0,0,1-.25-.57c0-.17-.07-1.75-.07-3.87V19.29l.33-.27a2.15,2.15,0,0,0,.56-.78c.41-.89.41-.93-.18-.72a1.6,1.6,0,0,1-1.1,0,6.9,6.9,0,0,1-1.54-1.44c-.08-.13-.19-.24-.24-.24A1.79,1.79,0,0,0,87.65,16.13Zm-2.06,2.28c0,.21.84.83,1.37,1l.26.09v7.26h-.17a1.41,1.41,0,0,0-.43.12l-.26.12-.23-.26A3.09,3.09,0,0,0,84.77,26a3.28,3.28,0,0,1-.47-.14s-.07-1.36-.07-3.67V18.57l.38-.05a2.4,2.4,0,0,0,.51-.12C85.32,18.32,85.59,18.32,85.59,18.41Z"/><path class="cls-1" d="M93.35,17.28c-.78.79-1.42,1.44-1.41,1.45l.38.1a1.86,1.86,0,0,1,1,.62l.22.25v6.75l-.36.27a3.68,3.68,0,0,0-.95,1.15c-.14.26-.06.32.3.21a4.18,4.18,0,0,1,3.1,1.16l.47.42.67-.5c.35-.28,1-.73,1.32-1s.64-.52.59-.6a4.92,4.92,0,0,0-1.22-1,3.14,3.14,0,0,0-.59-.25.64.64,0,0,1-.27-.14c0-.7,0-6.31,0-6.32l.63-.51.61-.5.25.2a5.63,5.63,0,0,0,.86.53l.62.32,0,4,0,4.05.17.34a2.85,2.85,0,0,0,.49.65c.39.4,1.27.84,1.47.74a3.49,3.49,0,0,0,.51-.54c.93-1.17,1.89-2.38,1.89-2.41a1.65,1.65,0,0,0-.46,0c-.51,0-.84-.12-1-.36s-.07-1.32-.07-3.68V19.17l.17-.18a2.8,2.8,0,0,0,.69-1.64c0-.19,0-.22-.17-.22a.4.4,0,0,0-.24.07,2.75,2.75,0,0,1-1.06.28,3.33,3.33,0,0,1-1.69-1.41c-.11-.23-.24-.19-.72.22-.24.22-.85.73-1.36,1.15L97,18.52a1.17,1.17,0,0,1-.4.27,3.17,3.17,0,0,1,0-.47,2.64,2.64,0,0,0-.64-1.49,4.34,4.34,0,0,0-1.09-1S94.15,16.49,93.35,17.28Z"/><path class="cls-1" d="M24.57,16.38c-1.66,1-3.9,1.68-4.92,1.45a1.87,1.87,0,0,0-.32,0,2,2,0,0,0,.19.47c.31.61.33,1,.34,4.95v3.26l-.3.21a5.74,5.74,0,0,0-1.08,1.22l-.11.18h1.08A9.73,9.73,0,0,1,24,29.21l.76.38.7-.8c1.58-1.76,1.81-2,1.81-2.13s-.13-.19-.28-.3-.3-.18-.43-.11-.15.12-.15.17a.37.37,0,0,1-.15.22c-.12.12-.17.12-.37,0a18.73,18.73,0,0,0-2.44-.74,3.26,3.26,0,0,1-.66-.15,8.57,8.57,0,0,1,0-2.21,1.84,1.84,0,0,1,.47-.33l1.92-1.16c.81-.5,1.7-1,2-1.16a1.61,1.61,0,0,0,.5-.31,1.85,1.85,0,0,0-.24-.42,19.73,19.73,0,0,1-2-3.72c-.07-.21-.18-.4-.23-.4A2.33,2.33,0,0,0,24.57,16.38Zm-1.52,1.94a3.26,3.26,0,0,1,.31.59,13.35,13.35,0,0,0,1.08,2,.77.77,0,0,1,.17.34,4.36,4.36,0,0,1-.56.34c-.28.16-.67.4-.86.53a1.71,1.71,0,0,1-.41.26,27.43,27.43,0,0,1,0-4C22.9,18.25,22.94,18.25,23.05,18.32Z"/><path class="cls-1" d="M68.66,16.5a5.09,5.09,0,0,1-2.35,1.2,3.13,3.13,0,0,1-1.64,0c-.12-.05-.13,0-.08.12.37,1.16.35.92.37,4.81l0,3.65-.45.45c-.42.42-1,1.24-.89,1.31A.93.93,0,0,0,64,28c1.06-.38,3.51.26,4.83,1.26a1.81,1.81,0,0,0,.54.33,4.17,4.17,0,0,0,.64-.72c.3-.4.85-1.1,1.22-1.55a6.6,6.6,0,0,0,.68-.91,1.11,1.11,0,0,0-.56-.37s-.2.15-.35.35c-.29.39-.41.43-.67.21a5.7,5.7,0,0,0-2.15-.84l-.3-.05,0-3.56c0-2,0-3.58,0-3.62s.15.07.27.23a2,2,0,0,0,.68.5,1.87,1.87,0,0,0,1.08.23,2.12,2.12,0,0,0,1.65-.55,2.55,2.55,0,0,0,.88-1.22c.23-.62.21-.63-.39-.31a1.1,1.1,0,0,1-1.23,0,5.06,5.06,0,0,1-1.41-1.24C69.3,16,69.11,16.05,68.66,16.5Z"/><path class="cls-1" d="M47.51,16.53a5.22,5.22,0,0,1-1.82,1.17,3.89,3.89,0,0,1-1.66.17,10.18,10.18,0,0,1-1.49-.09,1,1,0,0,0-.38,0s0,.14.09.27.14.35.14,3v2.72l-.18.36-.18.36,1,0a4.92,4.92,0,0,1,1,0s-.1.13-.22.21a14.54,14.54,0,0,0-2.33,3.16,11,11,0,0,0-.66,1.79c0,.06.09.1.26.1s.43-.13.85-.71a1.94,1.94,0,0,1,1.52-.71A2.15,2.15,0,0,1,45.2,29l.58.54.46-.39a4.77,4.77,0,0,1,1.78-1,4.21,4.21,0,0,1,1.57-.16A5.36,5.36,0,0,1,51,28.2a1.43,1.43,0,0,0,.41.09,1.57,1.57,0,0,0-.15-.41l-.18-.38V24.86a13,13,0,0,1,.11-2.92,3,3,0,0,0,.15-.46l0-.17L50,21.36l-1.45.06.6-.67a13.26,13.26,0,0,0,2.77-4.25c0-.06-.12-.09-.38-.09s-.42,0-.76.32a1.87,1.87,0,0,1-1.19.47,2.55,2.55,0,0,1-1.29-.67,2.14,2.14,0,0,0-.39-.33A2.39,2.39,0,0,0,47.51,16.53Zm-1,2.24a2.34,2.34,0,0,0,2.42.44,1.57,1.57,0,0,1,.42-.15,11.35,11.35,0,0,1-1,1.1,21,21,0,0,1-2.57,2.45c-.36.19-.36.15-.36-2v-2l.16-.07A.81.81,0,0,1,46.51,18.77Zm1.63,4.59a9.32,9.32,0,0,1,.07,1.94v1.91l-.33.07-.35.06L47.15,27a5.09,5.09,0,0,0-.7-.54,3.28,3.28,0,0,0-2.35-.3,1.12,1.12,0,0,1-.42.07,19,19,0,0,1,1.43-1.48l1.45-1.45.75,0C47.72,23.32,48.09,23.35,48.14,23.36Z"/><path class="cls-1" d="M136.48,16.61a4.42,4.42,0,0,1-1.71,1.09,7.43,7.43,0,0,1-2.92.11,4.57,4.57,0,0,0-.63-.09,1.74,1.74,0,0,0,.13.3c.13.26.14.42.14,3v2.68l-.18.34a2.51,2.51,0,0,0-.18.37,5.66,5.66,0,0,0,1,0,4.25,4.25,0,0,1,1,0,1.07,1.07,0,0,1-.26.28,13.78,13.78,0,0,0-2.29,3.19,11.64,11.64,0,0,0-.59,1.69c0,.1.38.13.56,0a1.86,1.86,0,0,0,.37-.42,2.12,2.12,0,0,1,1.17-.87,2.7,2.7,0,0,1,1.54.15,3.84,3.84,0,0,1,.79.65l.49.5.43-.38a4.54,4.54,0,0,1,1.78-1,4,4,0,0,1,1.64-.19,4.09,4.09,0,0,1,1.66.21c.17.07.16-.11,0-.41s-.15-.36-.15-3V22.08l.18-.34c.17-.3.17-.34.07-.39a13.8,13.8,0,0,0-1.46,0c-.75,0-1.35,0-1.35,0a9.07,9.07,0,0,1,.64-.72,12.54,12.54,0,0,0,2.44-3.6l.26-.6-.35-.06c-.36-.05-.37-.05-.75.29A1.49,1.49,0,0,1,138,17a3.41,3.41,0,0,1-.69-.5,1,1,0,0,0-.34-.26A2.38,2.38,0,0,0,136.48,16.61Zm-.75,2.26a2.17,2.17,0,0,0,2.31.32,1.18,1.18,0,0,1,.33-.12,23.14,23.14,0,0,1-3,3.17c-.82.72-.79.78-.81-1.46a17.15,17.15,0,0,1,0-2,.66.66,0,0,1,.6-.21A4.89,4.89,0,0,1,135.73,18.87Zm1.57,6.42v1.92l-.34.06-.34.06-.41-.38a3.17,3.17,0,0,0-3-.81,1.1,1.1,0,0,1-.41.07A28.61,28.61,0,0,1,135,23.84l.54-.52.88,0,.88,0Z"/><path class="cls-1" d="M54.91,16.81a8.78,8.78,0,0,1-2.16,1.47c-.27.11-.5.23-.52.24a4.49,4.49,0,0,0,.47.51c.27.26.82.87,1.24,1.34s.82.91.9,1a.43.43,0,0,1,.17.19,3.8,3.8,0,0,1-.57.49,5.72,5.72,0,0,0-2,2.64,4.21,4.21,0,0,0,.19,2.76,4.76,4.76,0,0,0,1.46,1.48,4.62,4.62,0,0,0,2,.62h.42l.73-.66c.41-.36.87-.78,1-.92l.26-.28.33.5a2.64,2.64,0,0,0,2,1.37c.52,0,.6,0,1.2-.92.22-.35.57-.83.75-1.08a3.57,3.57,0,0,0,.34-.51S63,27,62.81,27a1.07,1.07,0,0,1-.91-.42c-.5-.47-.48-.31-.48-3.84V19.5l.28-.19a2.08,2.08,0,0,0,.46-.42,4.59,4.59,0,0,0,.59-1.22c0-.2,0-.2-.23-.16a2.83,2.83,0,0,1-1.43,0,4.07,4.07,0,0,1-1.09-1c0-.1-.14-.19-.18-.19a2.28,2.28,0,0,0-.51.5c-.72.88-1.35,1.35-1.77,1.35s-.91-.34-1.66-1.34a4,4,0,0,0-.44-.51S55.18,16.56,54.91,16.81Zm2.93,2.53a1.63,1.63,0,0,0,.46.29l.2.08v3.6l0,3.62L58,27a2.62,2.62,0,0,1-2.72-1.57,1.84,1.84,0,0,1-.28-1.3,2.55,2.55,0,0,1,.23-1.32,2.67,2.67,0,0,1,.29-.56s.22.17.42.39a11,11,0,0,0,1.48,1.59,1.24,1.24,0,0,0,.36-.23l.27-.24-.35-.39c-1.24-1.42-2.8-3.19-2.93-3.3s-.2-.32.15-.24a2.82,2.82,0,0,0,2.3-.52.79.79,0,0,1,.26-.21A1.1,1.1,0,0,1,57.84,19.34Z"/><path class="cls-1" d="M107.5,16.74a9.45,9.45,0,0,1-2.65,1.68c-.23.06-.2.15.12.41a16.6,16.6,0,0,1,1.24,1.31c.52.59,1,1.15,1.11,1.22s.2.33.08.33A7.06,7.06,0,0,0,105.89,23a4,4,0,0,0-1.09,2.22,3.29,3.29,0,0,0,.14,1.82,3.88,3.88,0,0,0,1,1.44,5,5,0,0,0,2.59,1c.47,0,.55-.06,1.76-1.22a8.63,8.63,0,0,1,.68-.64,1.29,1.29,0,0,1,.2.33,3.71,3.71,0,0,0,1.31,1.33,2.51,2.51,0,0,0,.72.23c.49.06.71-.09,1.25-.9.24-.37.6-.87.79-1.12a3.57,3.57,0,0,0,.34-.51s-.15-.07-.33-.07a1.55,1.55,0,0,1-1.2-.75l-.18-.3v-6.4l.4-.35a3.29,3.29,0,0,0,.56-.6,2.71,2.71,0,0,0,.37-1.06,1.23,1.23,0,0,0-.44.05,2.23,2.23,0,0,1-1.29,0,4.34,4.34,0,0,1-1.09-1.1c0-.18-.23,0-.5.32a6.26,6.26,0,0,1-1.46,1.35c-.3.17-.35.19-.62.11s-.43-.2-.9-.69a6.27,6.27,0,0,1-.74-.88c-.07-.16-.16-.28-.19-.28A6,6,0,0,0,107.5,16.74Zm2.74,2.55a1.6,1.6,0,0,0,.44.29l.28.13v3.61l0,3.61-.39.09a2.66,2.66,0,0,1-2.78-1.63,2.16,2.16,0,0,1-.27-1.1A2.63,2.63,0,0,1,107.7,23a2.57,2.57,0,0,1,.31-.68,12.32,12.32,0,0,1,1,1l.92,1,.27-.18a.72.72,0,0,0,.28-.3,10.54,10.54,0,0,0-1.59-2c-.9-1-1.72-2-1.74-2s.11,0,.28,0a2.82,2.82,0,0,0,2.31-.52C110,19.08,110,19.07,110.24,19.29Z"/><path class="cls-1" d="M151.84,16.79a8.33,8.33,0,0,1-2.14,1.45l-.61.3a1.65,1.65,0,0,0,.31.3c.37.32,2.47,2.66,2.47,2.75a2.41,2.41,0,0,1-.43.38,7.88,7.88,0,0,0-1.7,1.83,3.67,3.67,0,0,0,.49,4.54,4.69,4.69,0,0,0,3,1.2,7,7,0,0,0,1.57-1.29,3.55,3.55,0,0,1,.64-.53,2.42,2.42,0,0,1,.26.4A3.82,3.82,0,0,0,157,29.39c.86.37,1.21.25,1.79-.61.24-.34.59-.85.8-1.13a3.44,3.44,0,0,0,.37-.59s-.16-.09-.38-.11a1.42,1.42,0,0,1-1.1-.72l-.2-.29V19.58l.44-.41a2.79,2.79,0,0,0,.86-1.47l0-.24-.27.05c-1.22.21-1.44.14-2.16-.64a3.31,3.31,0,0,0-.56-.53s-.13.11-.22.24a7,7,0,0,1-1.6,1.5.69.69,0,0,1-.62.1,3.25,3.25,0,0,1-1.39-1.25,2.46,2.46,0,0,0-.5-.57A2.56,2.56,0,0,0,151.84,16.79Zm2.81,2.45a1.17,1.17,0,0,0,.41.32l.34.18v7.19L155,27a1.9,1.9,0,0,1-1.4-.18,3.33,3.33,0,0,1-1.43-1.49,1.8,1.8,0,0,1-.26-1.19,2.63,2.63,0,0,1,.19-1.11c.1-.25.2-.53.23-.63s.07-.15.1-.15a9.73,9.73,0,0,1,.87.9c1,1.11,1,1.11,1.05,1.08a1.59,1.59,0,0,0,.54-.4c0-.11-.05-.26-.47-.71s-1-1.1-1.82-2.06c-.2-.22-.51-.58-.69-.77a3.55,3.55,0,0,1-.33-.39,3.19,3.19,0,0,1,.84,0,2.1,2.1,0,0,0,1.25-.2,1.64,1.64,0,0,0,.53-.38C154.33,19.09,154.55,19.07,154.65,19.24Z"/><path class="cls-1" d="M74.86,17.2c-.47.43-1.12,1-1.44,1.25a2.6,2.6,0,0,0-.59.56c0,.14.21.4.33.4a.37.37,0,0,0,.24-.12c.13-.11.15-.1.44.15l.4.33a29.29,29.29,0,0,1,.08,3.91c0,4.39,0,4.29.62,5a3,3,0,0,0,1.72.89H77l1.25-1.24c.69-.68,1.25-1.24,1.24-1.25a2.1,2.1,0,0,0-.5.07,1.43,1.43,0,0,1-1.61-.56c-.15-.23-.15-.34-.15-3.55v-3.3l.32-.18a2.6,2.6,0,0,0,1.07-1.43,1.79,1.79,0,0,0,.14-.55,1.71,1.71,0,0,0-.52.11c-.59.19-.76.19-1.07,0a7.44,7.44,0,0,1-1.3-1.23C75.89,16.31,75.64,16.49,74.86,17.2Z"/><path class="cls-1" d="M125.31,16.86c-.59.55-1.9,1.67-2.21,1.89s-.3.36-.09.55.15.13.35,0l.24-.12a4.93,4.93,0,0,1,.41.36l.39.36v7.8l.2.4a2.88,2.88,0,0,0,2.08,1.46l.35,0,1.27-1.26a14.28,14.28,0,0,0,1.24-1.29.84.84,0,0,0-.36.05,1.61,1.61,0,0,1-1.76-.55c-.13-.19-.14-.41-.14-3.5V19.78l.41-.28a2.91,2.91,0,0,0,.64-.62,3.35,3.35,0,0,0,.49-1.31,1.66,1.66,0,0,0-.52.11c-.62.2-.75.2-1.11,0A4.24,4.24,0,0,1,126,16.55C126,16.33,125.81,16.39,125.31,16.86Z"/></svg>