<svg id="svg_resize" data-name="svg resize" xmlns="http://www.w3.org/2000/svg" viewBox="0 0 130 40"><defs><style>.cls-1{fill:#fff;}</style></defs><path class="cls-1" d="M33.3,16.57h3.55V28.15H33.3v-1.7a3.79,3.79,0,0,1-3.5,1.83A4.2,4.2,0,0,1,26.57,27a5.07,5.07,0,0,1-1.23-3.61V16.57h3.53v6.29a2.38,2.38,0,0,0,.59,1.73,2.47,2.47,0,0,0,3.26,0,2.37,2.37,0,0,0,.58-1.73ZM18.76,20a2.27,2.27,0,0,0-1.47-.51,2.1,2.1,0,0,0-1.44.51,2.25,2.25,0,0,0-.72,1.32h4.33A1.88,1.88,0,0,0,18.76,20ZM17.24,28.3a5.64,5.64,0,0,1-4.15-1.63,5.92,5.92,0,0,1-1.62-4.33,5.51,5.51,0,0,1,5.77-5.89A5.92,5.92,0,0,1,21.48,18a5.73,5.73,0,0,1,1.68,4.38,8.32,8.32,0,0,1-.08,1.12h-8a2,2,0,0,0,2,1.75,3.06,3.06,0,0,0,1-.13,1.93,1.93,0,0,0,.49-.27,3.47,3.47,0,0,0,.41-.45h3.84a5.07,5.07,0,0,1-2,2.8A5.91,5.91,0,0,1,17.24,28.3ZM0,20.06a3.16,3.16,0,0,1,1.31-2.57,5.5,5.5,0,0,1,3.53-1,5.91,5.91,0,0,1,3.6,1,3.5,3.5,0,0,1,1.45,2.78H6.29a1,1,0,0,0-.42-.82,2,2,0,0,0-1-.22c-.93,0-1.4.28-1.4.85s.57.86,1.71,1.06A13.56,13.56,0,0,1,8.25,22,2.69,2.69,0,0,1,10,24.62a3.12,3.12,0,0,1-1.38,2.65,5.72,5.72,0,0,1-3.51,1,6.09,6.09,0,0,1-3.52-1A3.52,3.52,0,0,1,0,24.48H3.63c.1.71.6,1.06,1.49,1.06a1.77,1.77,0,0,0,1-.29.92.92,0,0,0,.41-.75c0-.31-.23-.55-.68-.73a8.92,8.92,0,0,0-1.63-.45,17.92,17.92,0,0,1-1.92-.47,3.63,3.63,0,0,1-1.63-1A2.51,2.51,0,0,1,0,20.06Z"/><path class="cls-1" d="M125.68,24.52a3,3,0,0,0,.71-2.16,3,3,0,0,0-.73-2.15,2.34,2.34,0,0,0-1.72-.73,2.3,2.3,0,0,0-1.71.73,2.94,2.94,0,0,0-.72,2.15,3,3,0,0,0,.74,2.16,2.34,2.34,0,0,0,1.73.75A2.26,2.26,0,0,0,125.68,24.52Zm-6,2.14a5.62,5.62,0,0,1-1.75-4.32,5.54,5.54,0,0,1,1.74-4.28,6.57,6.57,0,0,1,8.62,0A5.56,5.56,0,0,1,130,22.34a5.69,5.69,0,0,1-1.72,4.32A6,6,0,0,1,124,28.3,6.14,6.14,0,0,1,119.65,26.66Zm-6.17-10.09v2.16a3.71,3.71,0,0,1,3.32-2.28v3.61h-.87a2.59,2.59,0,0,0-1.84.58,2.75,2.75,0,0,0-.61,2v5.47h-3.55V16.57ZM103.27,28.15V16.57h3.55V28.15Zm3.24-12.89a2.09,2.09,0,0,1-3,0,2,2,0,0,1-.6-1.48,2,2,0,0,1,.6-1.48,2.11,2.11,0,0,1,3,0,2.05,2.05,0,0,1,.6,1.48A2,2,0,0,1,106.51,15.26ZM96.59,20a2.27,2.27,0,0,0-1.47-.51,2.15,2.15,0,0,0-1.44.51A2.2,2.2,0,0,0,93,21.31h4.33A1.85,1.85,0,0,0,96.59,20ZM95.08,28.3a5.64,5.64,0,0,1-4.16-1.63,5.83,5.83,0,0,1-1.61-4.33,5.78,5.78,0,0,1,1.6-4.29,5.67,5.67,0,0,1,4.17-1.6A5.92,5.92,0,0,1,99.31,18,5.72,5.72,0,0,1,101,22.41a6.91,6.91,0,0,1-.08,1.11h-8a2,2,0,0,0,1.94,1.74,2.81,2.81,0,0,0,1-.13,2.12,2.12,0,0,0,.49-.27,3.39,3.39,0,0,0,.4-.45h3.85a5.09,5.09,0,0,1-2,2.81A5.92,5.92,0,0,1,95.08,28.3ZM79.18,12.8v5.48a3.79,3.79,0,0,1,3.51-1.83,4.22,4.22,0,0,1,3.22,1.33,5.17,5.17,0,0,1,1.24,3.61v6.76H83.62V21.86A2.39,2.39,0,0,0,83,20.13a2.49,2.49,0,0,0-3.26,0,2.39,2.39,0,0,0-.59,1.73v6.29H75.63V12.8ZM64.65,16.57v1.7a3.79,3.79,0,0,1,3.51-1.82,4.2,4.2,0,0,1,3.23,1.33,5.1,5.1,0,0,1,1.23,3.61v6.76H69.09V21.86a2.39,2.39,0,0,0-.59-1.73,2.47,2.47,0,0,0-3.26,0,2.42,2.42,0,0,0-.59,1.73v6.29H61.11V16.57ZM54.45,28.15V16.57H58V28.15Zm3.24-12.89a2.09,2.09,0,0,1-2.95,0,2,2,0,0,1-.6-1.48,2.05,2.05,0,0,1,.6-1.48,2.11,2.11,0,0,1,2.95,0,2,2,0,0,1,.6,1.48A2,2,0,0,1,57.69,15.26ZM47,24.48a2.83,2.83,0,0,0,.77-2.12,2.77,2.77,0,0,0-.77-2.1,2.46,2.46,0,0,0-3.52,0,2.8,2.8,0,0,0-.77,2.12,2.78,2.78,0,0,0,.77,2.1,2.46,2.46,0,0,0,3.52,0Zm-6.36,2.16a6,6,0,0,1-1.54-4.26,6,6,0,0,1,1.54-4.26,4.87,4.87,0,0,1,3.74-1.67,3.9,3.9,0,0,1,3.39,1.64V12.8h3.56V28.15H47.78V26.47a4,4,0,0,1-3.44,1.83A4.87,4.87,0,0,1,40.65,26.64Z"/></svg>