<svg id="Camada_1" data-name="Camada 1" xmlns="http://www.w3.org/2000/svg" viewBox="0 0 100 40"><defs><style>.cls-1{fill:#fff;}</style></defs><path class="cls-1" d="M0,14.72a5.09,5.09,0,0,1,.43-2.1A5.25,5.25,0,0,1,1.6,10.9,5.25,5.25,0,0,1,3.32,9.73a5.09,5.09,0,0,1,2.1-.43H11.9a1.81,1.81,0,0,1,1.81,1.81h0a1.81,1.81,0,0,1-1.81,1.81H5.42a1.87,1.87,0,0,0-.71.14,1.73,1.73,0,0,0-.57.38,1.84,1.84,0,0,0-.38.57,1.87,1.87,0,0,0,0,1.42,1.77,1.77,0,0,0,.38.58,1.84,1.84,0,0,0,.57.38,1.7,1.7,0,0,0,.71.14H9a5.33,5.33,0,0,1,2.11.42,5.54,5.54,0,0,1,1.73,1.16A5.71,5.71,0,0,1,14,19.84,5.33,5.33,0,0,1,14.46,22a5.25,5.25,0,0,1-.42,2.1,5.47,5.47,0,0,1-2.89,2.89A5.17,5.17,0,0,1,9,27.37H2.82A1.81,1.81,0,0,1,1,25.56H1a1.81,1.81,0,0,1,1.81-1.81H9a1.87,1.87,0,0,0,.71-.14,1.73,1.73,0,0,0,.57-.38,1.84,1.84,0,0,0,.38-.57,1.87,1.87,0,0,0,0-1.42,1.73,1.73,0,0,0-.38-.57,1.84,1.84,0,0,0-.57-.38A1.87,1.87,0,0,0,9,20.15H5.42a5.09,5.09,0,0,1-2.1-.43A5.47,5.47,0,0,1,.43,16.83,5.17,5.17,0,0,1,0,14.72Z"/><path class="cls-1" d="M23,27.38a5.81,5.81,0,0,1-2.35-.48,6.15,6.15,0,0,1-1.92-1.3,6,6,0,0,1-1.29-1.92A5.76,5.76,0,0,1,17,21.34V18.17a.84.84,0,0,0-.84-.84h0a.84.84,0,0,1-.83-.84V14.74a.84.84,0,0,1,.83-.84h0a.83.83,0,0,0,.84-.83V9.34a.85.85,0,0,1,.84-.84h1.75a.85.85,0,0,1,.84.84v3.72a.84.84,0,0,0,.84.84h3.54a.84.84,0,0,1,.84.83v1.76a.84.84,0,0,1-.84.83H21.24a.84.84,0,0,0-.84.84v3.17a2.48,2.48,0,0,0,.2,1,2.75,2.75,0,0,0,.55.82,2.63,2.63,0,0,0,1.85.77h.9a1.71,1.71,0,0,1,1.71,1.71h0a1.71,1.71,0,0,1-1.71,1.71H23v0Z"/><path class="cls-1" d="M40.07,27.38h0a.57.57,0,0,1-.45-.23L38.8,26A.54.54,0,0,0,38,25.9l-.6.45a7,7,0,0,1-1.16.67l-.33.15a6.41,6.41,0,0,1-3.33.38A8,8,0,0,1,31,27.16a6.37,6.37,0,0,1-2.19-1.4,6.63,6.63,0,0,1-1.48-2.24,7.92,7.92,0,0,1-.55-3,7.6,7.6,0,0,1,.55-2.9,7,7,0,0,1,1.48-2.26A6.7,6.7,0,0,1,31,13.88a6.88,6.88,0,0,1,2.68-.52,5.2,5.2,0,0,1,1.3.16,7.19,7.19,0,0,1,1.25.45,9,9,0,0,1,1.15.69,5.79,5.79,0,0,1,.61.47.55.55,0,0,0,.78-.07l.81-1a.53.53,0,0,1,.42-.2h0a.56.56,0,0,1,.56.55V26.83A.55.55,0,0,1,40.07,27.38ZM37.16,20.5a3.43,3.43,0,0,0-.28-1.37A3.75,3.75,0,0,0,36.14,18a3.68,3.68,0,0,0-1.09-.82,2.86,2.86,0,0,0-1.33-.31,3.69,3.69,0,0,0-1.33.24,3,3,0,0,0-1.08.71,3.29,3.29,0,0,0-.73,1.15,4.87,4.87,0,0,0,0,3.14,3.33,3.33,0,0,0,.73,1.16,3.17,3.17,0,0,0,1.08.71,3.69,3.69,0,0,0,1.33.24,2.87,2.87,0,0,0,1.33-.32,3.65,3.65,0,0,0,1.09-.81,3.8,3.8,0,0,0,.74-1.18A3.39,3.39,0,0,0,37.16,20.5Z"/><path class="cls-1" d="M45,27.38h0a1.73,1.73,0,0,1-1.72-1.72V14a.17.17,0,0,1,.17-.16H44a.15.15,0,0,1,.13.07l1,1.39a.16.16,0,0,0,.24,0,6,6,0,0,1,1.77-1,6.68,6.68,0,0,1,2.35-.41h1.16a1.72,1.72,0,0,1,1.71,1.72h0a1.72,1.72,0,0,1-1.71,1.71H49.29a2.51,2.51,0,0,0-1,.2,2.93,2.93,0,0,0-.83.55,2.61,2.61,0,0,0-.55.83,2.51,2.51,0,0,0-.2,1v5.72A1.74,1.74,0,0,1,45,27.38Z"/><path class="cls-1" d="M60.71,27.38a5.73,5.73,0,0,1-2.34-.48,6.08,6.08,0,0,1-1.93-1.3,6,6,0,0,1-1.29-1.92,5.76,5.76,0,0,1-.48-2.34V18.17a.84.84,0,0,0-.83-.84h0a.84.84,0,0,1-.84-.84V14.74a.84.84,0,0,1,.84-.84h0a.83.83,0,0,0,.83-.83V9.34a.85.85,0,0,1,.84-.84h1.75a.85.85,0,0,1,.84.84v3.72a.85.85,0,0,0,.84.84h3.54a.84.84,0,0,1,.84.83v1.76a.84.84,0,0,1-.84.83H58.94a.85.85,0,0,0-.84.84v3.17a2.48,2.48,0,0,0,.2,1,2.75,2.75,0,0,0,.55.82,3,3,0,0,0,.83.56,2.74,2.74,0,0,0,1,.21h.9a1.7,1.7,0,0,1,1.71,1.71h0a1.7,1.7,0,0,1-1.71,1.71h-.89v0Z"/><path class="cls-1" d="M75.51,26.29a.54.54,0,0,0-.79-.11,5.3,5.3,0,0,1-.45.34,6.94,6.94,0,0,1-1,.58l-.29.13a5.51,5.51,0,0,1-2.9.33,6.19,6.19,0,0,1-1.34-.37A5.69,5.69,0,0,1,65.53,24a6.82,6.82,0,0,1-.47-2.61V15.6a1.71,1.71,0,0,1,1.71-1.72h0a1.71,1.71,0,0,1,1.71,1.72v5.75a3.63,3.63,0,0,0,.21,1.22,2.92,2.92,0,0,0,.56.9,2.31,2.31,0,0,0,.82.56,2.88,2.88,0,0,0,.87.19,2.36,2.36,0,0,0,1.25-.3,3.2,3.2,0,0,0,.73-.6,3,3,0,0,0,.55-.92,2.84,2.84,0,0,0,.2-1V15.61a1.72,1.72,0,0,1,1.72-1.72h0a1.72,1.72,0,0,1,1.72,1.72V26.84a.56.56,0,0,1-.55.56h0a.56.56,0,0,1-.45-.23Z"/><path class="cls-1" d="M81.49,32.52h0a1.73,1.73,0,0,1-1.73-1.73V14.44a.57.57,0,0,1,.57-.57h0a.55.55,0,0,1,.43.2L82,15.5a9.44,9.44,0,0,1,1-.83,6.88,6.88,0,0,1,2.39-1.12,5.27,5.27,0,0,1,1.3-.17,6.85,6.85,0,0,1,2.68.52,6.51,6.51,0,0,1,2.2,1.44A6.78,6.78,0,0,1,93,17.59a7.63,7.63,0,0,1,.54,2.92,7.85,7.85,0,0,1-.54,3,6.88,6.88,0,0,1-1.48,2.26,6.46,6.46,0,0,1-2.2,1.42,7.17,7.17,0,0,1-2.68.49,3.94,3.94,0,0,1-.9-.1,5.58,5.58,0,0,1-.88-.27,9.37,9.37,0,0,1-.86-.38l-.81-.45v4.32A1.75,1.75,0,0,1,81.49,32.52Zm8.63-12A4.18,4.18,0,0,0,89.85,19a3.5,3.5,0,0,0-.74-1.15,3.16,3.16,0,0,0-1.1-.73,3.5,3.5,0,0,0-1.33-.25,3.42,3.42,0,0,0-1.33.25,3.26,3.26,0,0,0-1.1.73A3.48,3.48,0,0,0,83.52,19a4,4,0,0,0-.28,1.54,3.82,3.82,0,0,0,.28,1.5,3.42,3.42,0,0,0,.73,1.16,3.47,3.47,0,0,0,1.1.75,3.26,3.26,0,0,0,1.33.27A3.33,3.33,0,0,0,88,23.91a3.08,3.08,0,0,0,1.1-.75A3.35,3.35,0,0,0,89.85,22,4,4,0,0,0,90.12,20.5Z"/><path class="cls-1" d="M97.21,27.38h0a1.73,1.73,0,0,1-1.73-1.74v-10a1.73,1.73,0,0,1,1.73-1.73h0a1.73,1.73,0,0,1,1.73,1.73v10A1.73,1.73,0,0,1,97.21,27.38Z"/><path class="cls-1" d="M97.27,7.48h-4a2.75,2.75,0,1,0,0,5.49h3.89A2.77,2.77,0,0,0,100,10.21,2.73,2.73,0,0,0,97.27,7.48Zm1.59,4.35a2.51,2.51,0,0,1-.74.49,2.3,2.3,0,0,1-.9.18h0a2.26,2.26,0,0,1-.9-.18,2.51,2.51,0,0,1-.74-.49,2.46,2.46,0,0,1-.49-.73,2.32,2.32,0,0,1,0-1.79,2.46,2.46,0,0,1,.49-.73,2.22,2.22,0,0,1,.74-.49,2.1,2.1,0,0,1,.9-.18h0a2.16,2.16,0,0,1,.9.18,2.45,2.45,0,0,1,.74.49,2.25,2.25,0,0,1,.68,1.62,2.26,2.26,0,0,1-.18.9A2.49,2.49,0,0,1,98.86,11.83Z"/></svg>