<svg id="Camada_1" data-name="Camada 1" xmlns="http://www.w3.org/2000/svg" viewBox="0 0 90 40"><defs><style>.cls-1{fill:#fff;}</style></defs><path class="cls-1" d="M0,15.25a4.57,4.57,0,0,1,.39-1.89,4.68,4.68,0,0,1,1-1.55A4.68,4.68,0,0,1,3,10.76a4.7,4.7,0,0,1,1.89-.39h5.83A1.63,1.63,0,0,1,12.34,12h0a1.63,1.63,0,0,1-1.63,1.63H4.88a1.56,1.56,0,0,0-.64.13,1.35,1.35,0,0,0-.51.34,1.61,1.61,0,0,0-.35,1.79,1.64,1.64,0,0,0,.35.52,1.47,1.47,0,0,0,.51.34,1.56,1.56,0,0,0,.64.13H8.1a4.61,4.61,0,0,1,1.9.38,5,5,0,0,1,1.56,1,5.13,5.13,0,0,1,1,1.56A4.79,4.79,0,0,1,13,21.8a4.72,4.72,0,0,1-.37,1.89,4.93,4.93,0,0,1-2.6,2.6,4.8,4.8,0,0,1-1.94.35H2.54A1.64,1.64,0,0,1,.9,25h0a1.63,1.63,0,0,1,1.63-1.63H8.1a1.74,1.74,0,0,0,.64-.13,1.47,1.47,0,0,0,.51-.34,1.57,1.57,0,0,0,.34-.51,1.67,1.67,0,0,0,0-1.28,1.35,1.35,0,0,0-.34-.51,1.6,1.6,0,0,0-.51-.35,1.73,1.73,0,0,0-.64-.12H4.88A4.7,4.7,0,0,1,3,19.75a4.93,4.93,0,0,1-2.6-2.6A4.62,4.62,0,0,1,0,15.25Z"/><path class="cls-1" d="M20.7,26.64a5.08,5.08,0,0,1-2.11-.43,5.44,5.44,0,0,1-2.89-2.9,5,5,0,0,1-.4-2.1V18.36a.76.76,0,0,0-.76-.76h0a.76.76,0,0,1-.74-.76V15.27a.76.76,0,0,1,.74-.76h0a.74.74,0,0,0,.76-.74h0V10.41a.77.77,0,0,1,.76-.76h1.57a.77.77,0,0,1,.76.76v3.35a.76.76,0,0,0,.75.75h3.19a.77.77,0,0,1,.76.75v1.58a.76.76,0,0,1-.76.75H19.12a.76.76,0,0,0-.76.76h0V21.2a2.33,2.33,0,0,0,.18.9,2.61,2.61,0,0,0,.5.74,2.36,2.36,0,0,0,1.66.69h.81a1.54,1.54,0,0,1,1.54,1.54h0a1.54,1.54,0,0,1-1.54,1.54H20.7Z"/><path class="cls-1" d="M36.06,26.64h0a.48.48,0,0,1-.4-.2l-.74-1a.49.49,0,0,0-.68-.12l0,0-.54.41a7.19,7.19,0,0,1-1,.6l-.3.14a5.9,5.9,0,0,1-3,.34,7.75,7.75,0,0,1-1.42-.35,5.68,5.68,0,0,1-2-1.26,5.92,5.92,0,0,1-1.33-2,7.14,7.14,0,0,1-.5-2.7,6.88,6.88,0,0,1,.5-2.61,6.11,6.11,0,0,1,1.33-2,6,6,0,0,1,2-1.34A6.19,6.19,0,0,1,30.31,14a4.17,4.17,0,0,1,1.17.14,6.35,6.35,0,0,1,1.13.41,7.22,7.22,0,0,1,1,.62,4.44,4.44,0,0,1,.55.42.49.49,0,0,0,.7-.06h0l.73-.9a.44.44,0,0,1,.38-.18h0a.49.49,0,0,1,.5.49V26.15A.47.47,0,0,1,36.06,26.64Zm-2.62-6.19a2.91,2.91,0,0,0-.25-1.23,3.44,3.44,0,0,0-.66-1,3.57,3.57,0,0,0-1-.74,2.66,2.66,0,0,0-1.2-.27,3.26,3.26,0,0,0-1.2.21,2.65,2.65,0,0,0-1,.64,3.07,3.07,0,0,0-.66,1,4.39,4.39,0,0,0,0,2.82A3.11,3.11,0,0,0,28.18,23a3,3,0,0,0,1,.63,3.27,3.27,0,0,0,1.2.22,2.65,2.65,0,0,0,1.2-.29,3.3,3.3,0,0,0,1-.73,3.43,3.43,0,0,0,.66-1.06A2.91,2.91,0,0,0,33.44,20.45Z"/><path class="cls-1" d="M40.5,26.64h0A1.56,1.56,0,0,1,39,25.1V14.6a.15.15,0,0,1,.16-.14h.49a.14.14,0,0,1,.12.06l.9,1.25a.14.14,0,0,0,.2,0v0a5.49,5.49,0,0,1,1.6-.9,6,6,0,0,1,2.11-.37h1.05a1.55,1.55,0,0,1,1.53,1.55h0a1.54,1.54,0,0,1-1.53,1.54H44.36a2.33,2.33,0,0,0-.9.18,2.66,2.66,0,0,0-.75.5,2.17,2.17,0,0,0-.49.74,2.33,2.33,0,0,0-.18.9v5.15A1.56,1.56,0,0,1,40.5,26.64Z"/><path class="cls-1" d="M54.64,26.64a5.11,5.11,0,0,1-2.11-.43,5.51,5.51,0,0,1-3.33-5V18.36a.75.75,0,0,0-.74-.76h0a.76.76,0,0,1-.76-.76h0V15.27a.76.76,0,0,1,.76-.76h0a.74.74,0,0,0,.74-.74h0V10.41A.77.77,0,0,1,50,9.65h1.57a.77.77,0,0,1,.76.76v3.35a.76.76,0,0,0,.76.75h3.18a.76.76,0,0,1,.76.75v1.58a.76.76,0,0,1-.76.75H53.05a.77.77,0,0,0-.76.76V21.2a2.33,2.33,0,0,0,.18.9,2.61,2.61,0,0,0,.5.74,2.48,2.48,0,0,0,.74.5,2.54,2.54,0,0,0,.9.19h.81A1.53,1.53,0,0,1,57,25.05v0h0a1.53,1.53,0,0,1-1.52,1.54h-.82Z"/><path class="cls-1" d="M68,25.66a.49.49,0,0,0-.68-.12l0,0a4,4,0,0,1-.41.31,5.7,5.7,0,0,1-.9.52l-.26.12a5.06,5.06,0,0,1-2.61.3,5.49,5.49,0,0,1-1.2-.34A5.07,5.07,0,0,1,59,23.6a6.08,6.08,0,0,1-.43-2.35V16a1.55,1.55,0,0,1,1.53-1.55h0A1.54,1.54,0,0,1,61.63,16h0v5.18a3.49,3.49,0,0,0,.19,1.1,2.77,2.77,0,0,0,.51.81,2.07,2.07,0,0,0,.73.5,2.66,2.66,0,0,0,.79.17A2.09,2.09,0,0,0,65,23.53a2.89,2.89,0,0,0,.66-.54,2.57,2.57,0,0,0,.49-.83,2.3,2.3,0,0,0,.18-.9V16.05a1.56,1.56,0,0,1,1.55-1.55h0a1.55,1.55,0,0,1,1.55,1.55h0V26.16a.5.5,0,0,1-.5.5h0a.51.51,0,0,1-.4-.2Z"/><path class="cls-1" d="M73.34,31.27h0a1.56,1.56,0,0,1-1.56-1.56h0V15a.51.51,0,0,1,.52-.51h0a.44.44,0,0,1,.38.18L73.8,16a7.08,7.08,0,0,1,.9-.74,6.06,6.06,0,0,1,2.15-1A5.15,5.15,0,0,1,78,14a6.39,6.39,0,0,1,2.41.47,6,6,0,0,1,2,1.3,6.06,6.06,0,0,1,1.29,2,7,7,0,0,1,.49,2.63,7.14,7.14,0,0,1-.49,2.7,6.42,6.42,0,0,1-1.33,2,5.84,5.84,0,0,1-2,1.27,6.43,6.43,0,0,1-2.41.44,2.72,2.72,0,0,1-.81-.09,4.59,4.59,0,0,1-.8-.24,7.51,7.51,0,0,1-.77-.34l-.73-.41v3.89A1.57,1.57,0,0,1,73.34,31.27Zm7.77-10.8a4,4,0,0,0-.24-1.37,3.33,3.33,0,0,0-.67-1,2.87,2.87,0,0,0-1-.66,3.08,3.08,0,0,0-1.2-.22,3,3,0,0,0-1.19.22,2.78,2.78,0,0,0-1,.66,3.13,3.13,0,0,0-.66,1,3.46,3.46,0,0,0-.25,1.39,3.3,3.3,0,0,0,.25,1.35,2.92,2.92,0,0,0,.66,1,3,3,0,0,0,1,.68A3,3,0,0,0,78,23.8a3.05,3.05,0,0,0,1.19-.28,2.8,2.8,0,0,0,1-.67,3.17,3.17,0,0,0,.68-1.05,3.88,3.88,0,0,0,.24-1.35Z"/><path class="cls-1" d="M87.49,26.64h0a1.55,1.55,0,0,1-1.56-1.55h0v-9a1.56,1.56,0,0,1,1.56-1.56h0a1.56,1.56,0,0,1,1.56,1.56h0v9a1.55,1.55,0,0,1-1.55,1.56Z"/><path class="cls-1" d="M87.54,8.73h-3.6a2.48,2.48,0,0,0-.3,4.95h3.8A2.51,2.51,0,0,0,90,11.25v-.06a2.46,2.46,0,0,0-2.46-2.46ZM89,12.65a2.46,2.46,0,0,1-.66.44,2.05,2.05,0,0,1-.81.16h0a2,2,0,0,1-.81-.16,2.51,2.51,0,0,1-.67-.44,2.31,2.31,0,0,1-.44-.66,2.14,2.14,0,0,1,0-1.61A2.62,2.62,0,0,1,86,9.72a2,2,0,0,1,.67-.44,1.86,1.86,0,0,1,.81-.16h0a2.05,2.05,0,0,1,.81.16,2.46,2.46,0,0,1,.66.44A2,2,0,0,1,89.42,12,2.15,2.15,0,0,1,89,12.65Z"/></svg>