<svg id="Layer_1" data-name="Layer 1" xmlns="http://www.w3.org/2000/svg" viewBox="0 0 100 40"><defs><style>.cls-1{fill:#fff;}</style></defs><path class="cls-1" d="M11,15.21A45.11,45.11,0,0,0,6,14.76,4.17,4.17,0,0,0,4.17,15a.88.88,0,0,0-.41.83.76.76,0,0,0,.56.78,21.14,21.14,0,0,0,2.84.62,6.33,6.33,0,0,1,3.26,1.35,4.11,4.11,0,0,1,1,3q0,4.61-5.73,4.62a25.67,25.67,0,0,1-4.54-.52L.2,25.55l.12-3.19a42.3,42.3,0,0,0,4.9.46,4.36,4.36,0,0,0,1.89-.28.87.87,0,0,0,.43-1.16.84.84,0,0,0-.43-.44,14.32,14.32,0,0,0-2.74-.63,7,7,0,0,1-3.28-1.25A3.91,3.91,0,0,1,0,15.91,4,4,0,0,1,1.54,12.5a6.43,6.43,0,0,1,4-1.15,27.14,27.14,0,0,1,4.58.54l.94.17Z"/><path class="cls-1" d="M22.06,14.9h-3.5v5.83a9.21,9.21,0,0,0,0,1.21.94.94,0,0,0,.32.6,1.09,1.09,0,0,0,.83.26l2.17-.06.17,3.09a14.19,14.19,0,0,1-2.91.42c-1.7,0-2.87-.38-3.49-1.15s-.95-2.19-.95-4.27V14.9H13.08V11.67h1.66v-4h3.82v4h3.5v3.24Z"/><path class="cls-1" d="M35.44,16.1V22a2.29,2.29,0,0,0,.22,1,1,1,0,0,0,.71.38l-.11,2.88a11.25,11.25,0,0,1-2.32-.2,5.54,5.54,0,0,1-1.75-.79,9.58,9.58,0,0,1-4.17,1q-4.41,0-4.4-4.67a3.85,3.85,0,0,1,1.2-3.23,6.84,6.84,0,0,1,3.75-1.12L31.66,17V16.1a1.46,1.46,0,0,0-.4-1.21A2.07,2.07,0,0,0,30,14.56l-5.35.23-.11-2.65a22.07,22.07,0,0,1,5.83-.83,5.65,5.65,0,0,1,3.95,1.14A4.8,4.8,0,0,1,35.44,16.1ZM29,19.85a1.54,1.54,0,0,0-1.6,1.49,1.62,1.62,0,0,0,0,.22c0,1,.47,1.57,1.39,1.57a9.49,9.49,0,0,0,2.37-.34l.42-.12V19.62Z"/><path class="cls-1" d="M39.08,25.89V11.67h3.78v1.5a14.17,14.17,0,0,1,4.56-1.85v3.84a39.71,39.71,0,0,0-4,1l-.57.2v9.53Z"/><path class="cls-1" d="M57.55,14.9h-3.5v5.83a8.14,8.14,0,0,0,0,1.21.91.91,0,0,0,.3.6,1.17,1.17,0,0,0,.84.26l2.16-.06.22,3.09a14.19,14.19,0,0,1-2.9.42c-1.71,0-2.88-.38-3.5-1.15s-.94-2.19-.94-4.25v-6H48.57V11.67h1.66v-4h3.82v4h3.5Z"/><path class="cls-1" d="M69.38,11.67h1.67V25.89H69.38V24.84A8.35,8.35,0,0,1,65,26.17c-1.93,0-3.21-.49-3.83-1.48s-.92-2.85-.92-5.6V11.67h1.66v7.39a10.7,10.7,0,0,0,.61,4.44q.61,1.14,2.67,1.14a7.16,7.16,0,0,0,2-.3,7.67,7.67,0,0,0,1.59-.61l.54-.29V11.67Z"/><path class="cls-1" d="M75.33,32.29V11.67H77v1.08a8.81,8.81,0,0,1,4.68-1.37,4.15,4.15,0,0,1,3.67,1.74c.81,1.15,1.22,3,1.21,5.64s-.48,4.5-1.42,5.67-2.53,1.75-4.73,1.75A15.62,15.62,0,0,1,77,25.81V32.3Zm6-19.38a7.27,7.27,0,0,0-2,.31,8,8,0,0,0-1.66.66l-.63.31V24.32a19.69,19.69,0,0,0,3.33.34,3.92,3.92,0,0,0,3.44-1.37,8,8,0,0,0,1-4.56,9.07,9.07,0,0,0-.83-4.5A2.89,2.89,0,0,0,81.33,12.91Z"/><path class="cls-1" d="M94.51,12.94c-2.22,0-3.34.81-3.34,2.42a1.67,1.67,0,0,0,.75,1.56,11.26,11.26,0,0,0,3.33.9A9.2,9.2,0,0,1,98.92,19,3.42,3.42,0,0,1,100,22a3.7,3.7,0,0,1-1.39,3.19,7,7,0,0,1-4.1,1,26,26,0,0,1-4-.4l-.83-.11.1-1.5a34.77,34.77,0,0,0,4.89.49,5,5,0,0,0,2.66-.6,2.19,2.19,0,0,0,1-2,2,2,0,0,0-.78-1.89,11.39,11.39,0,0,0-3.34-.84,8.87,8.87,0,0,1-3.63-1.14,3.17,3.17,0,0,1-1-2.78,3.35,3.35,0,0,1,1.45-3,6.45,6.45,0,0,1,3.58-.94,30.65,30.65,0,0,1,4.28.37l.76.11-.05,1.51A35.79,35.79,0,0,0,94.51,12.94Z"/></svg>