<svg id="Layer_1" data-name="Layer 1" xmlns="http://www.w3.org/2000/svg" viewBox="0 0 120 40"><defs><style>.cls-1{fill:#fff;}</style></defs><path class="cls-1" d="M13.15,16.26a55.73,55.73,0,0,0-5.93-.55A5,5,0,0,0,5,16a1.07,1.07,0,0,0-.5,1,.93.93,0,0,0,.67.93,26,26,0,0,0,3.41.75,7.56,7.56,0,0,1,3.92,1.62,4.93,4.93,0,0,1,1.16,3.65q0,5.53-6.87,5.54a29.83,29.83,0,0,1-5.46-.62l-1.1-.2.14-3.83a53.25,53.25,0,0,0,5.89.55,5.23,5.23,0,0,0,2.26-.33,1.06,1.06,0,0,0,0-1.93,16.94,16.94,0,0,0-3.28-.75,8.43,8.43,0,0,1-3.94-1.5c-.87-.71-1.3-2-1.3-3.78A4.81,4.81,0,0,1,1.84,13a7.73,7.73,0,0,1,4.75-1.38,32.09,32.09,0,0,1,5.5.65l1.13.2Z"/><path class="cls-1" d="M26.47,15.88h-4.2v7c0,.68,0,1.16.05,1.45a1.19,1.19,0,0,0,.38.73,1.38,1.38,0,0,0,1,.31l2.6-.07L26.51,29a17.52,17.52,0,0,1-3.49.51q-3.07,0-4.2-1.38T17.69,23V15.88h-2V12h2V7.24h4.58V12h4.2v3.89Z"/><path class="cls-1" d="M42.53,17.32v7.1a2.63,2.63,0,0,0,.27,1.15,1.26,1.26,0,0,0,.85.46l-.13,3.45a12.93,12.93,0,0,1-2.79-.24,6.5,6.5,0,0,1-2.1-.95,11.45,11.45,0,0,1-5,1.19q-5.3,0-5.29-5.6A4.64,4.64,0,0,1,29.78,20a8.31,8.31,0,0,1,4.51-1.35L38,18.38V17.32a1.8,1.8,0,0,0-.48-1.45,2.43,2.43,0,0,0-1.54-.39l-6.42.27-.14-3.18a26.67,26.67,0,0,1,7-1c2.19,0,3.78.46,4.74,1.37A5.76,5.76,0,0,1,42.53,17.32Zm-7.69,4.51a1.85,1.85,0,0,0-1.91,2.05c0,1.25.56,1.88,1.67,1.88a11.25,11.25,0,0,0,2.84-.41l.51-.14V21.55Z"/><path class="cls-1" d="M46.9,29.07V12h4.54V13.8a17.41,17.41,0,0,1,5.47-2.22v4.61c-1.85.39-3.43.79-4.75,1.2l-.68.24V29.07Z"/><path class="cls-1" d="M69.07,15.88h-4.2v7a12.62,12.62,0,0,0,0,1.45,1.17,1.17,0,0,0,.37.73,1.42,1.42,0,0,0,1,.31l2.6-.07L69.1,29a17.45,17.45,0,0,1-3.48.51q-3.08,0-4.2-1.38c-.76-.93-1.13-2.63-1.13-5.11V15.88h-2V12h2V7.24h4.58V12h4.2Z"/><path class="cls-1" d="M83.28,12h2V29.07h-2V27.81A10,10,0,0,1,78,29.41q-3.49,0-4.6-1.77t-1.11-6.73V12h2v8.88q0,4,.73,5.33c.49.91,1.56,1.37,3.2,1.37a8.93,8.93,0,0,0,2.46-.36,8.74,8.74,0,0,0,1.91-.74l.65-.34V12Z"/><path class="cls-1" d="M90.42,36.76V12h2v1.3a10.59,10.59,0,0,1,5.62-1.64,5,5,0,0,1,4.41,2.08q1.46,2.08,1.45,6.78t-1.71,6.8q-1.71,2.1-5.67,2.1a19.08,19.08,0,0,1-4.1-.44v7.79Zm7.2-23.27a8.73,8.73,0,0,0-2.42.38,9.12,9.12,0,0,0-2,.79l-.75.37V27.19a23,23,0,0,0,4,.41c2,0,3.34-.55,4.13-1.65s1.2-2.93,1.2-5.47-.35-4.34-1-5.4A3.49,3.49,0,0,0,97.62,13.49Z"/><path class="cls-1" d="M113.44,13.53q-4,0-4,2.9a2,2,0,0,0,.89,1.88,13.59,13.59,0,0,0,4,1.08,11,11,0,0,1,4.41,1.45c.85.61,1.28,1.79,1.28,3.53a4.43,4.43,0,0,1-1.67,3.83,8.35,8.35,0,0,1-4.92,1.21,31.61,31.61,0,0,1-4.85-.48l-1-.13L107.7,27a42.11,42.11,0,0,0,5.88.59,6,6,0,0,0,3.19-.72,2.63,2.63,0,0,0,1.15-2.43,2.46,2.46,0,0,0-.94-2.27,13.45,13.45,0,0,0-4-1,10.78,10.78,0,0,1-4.36-1.37c-.84-.59-1.26-1.7-1.26-3.34a4,4,0,0,1,1.74-3.59,7.75,7.75,0,0,1,4.3-1.13,36.58,36.58,0,0,1,5.13.45l.92.13-.07,1.81A42.42,42.42,0,0,0,113.44,13.53Z"/></svg>