<svg id="Camada_1" data-name="Camada 1" xmlns="http://www.w3.org/2000/svg" viewBox="0 0 90 40"><defs><style>.cls-1{fill:#fff;}</style></defs><path class="cls-1" d="M76.33,9.23A12.3,12.3,0,0,0,70,13.38c-6.55,9,2.56,20.85,13,16.93,7.49-2.77,9.36-13,3.38-18.42A11,11,0,0,0,76.33,9.23ZM79.53,13a2,2,0,0,1,.36,2.74,2.1,2.1,0,0,1-.57.5c-.69.32-.72.47-.29.61s.58.76.58,2.23.1,2,.54,2,.54.4.54,1.26-.18,1.26-.54,1.26a.55.55,0,0,0-.54.54c0,.33.32.54.9.54s.9.18.9.9-.18.9-.9.9a1.27,1.27,0,0,0-1.08.54,1.26,1.26,0,0,1-1.12.55h-.9V22.1c0-3.2.14-5.4.36-5.4s-.07-.39-.54-.9a2.85,2.85,0,0,1-.9-1.26,4.76,4.76,0,0,1,2-2.16A2.89,2.89,0,0,1,79.53,13Z"/><path class="cls-1" d="M76.22,14.7c-.48.48-.24,1.19.37,1.09a.72.72,0,0,0,.58-.58.58.58,0,0,0-1-.51Z"/><path class="cls-1" d="M62.14,11.67a.91.91,0,0,0-.27,1.27.84.84,0,0,0,.37.33c.71.27,1.15,0,1.15-.85a.83.83,0,0,0-.84-.85A.92.92,0,0,0,62.14,11.67Z"/><path class="cls-1" d="M2.52,13.81c-2.38.58-3.31,3.1-1.69,4.61a11.08,11.08,0,0,0,2.52,1.51c1.51.69,1.73.9,1.62,1.73s-.22,1-1.73.9a11.54,11.54,0,0,1-2.41-.32C.14,22,0,22.09,0,22.7,0,24,1,24.58,3.28,24.58c1.8,0,2.3-.15,3-.9a3.27,3.27,0,0,0,.36-4A8.06,8.06,0,0,0,4.14,18.1c-1.62-.65-2-1-1.91-1.59s.36-.72,1.73-.72A19.66,19.66,0,0,1,6.12,16c.36.15.58-.11.65-.79s-.07-1-.54-1.12A7.19,7.19,0,0,0,2.52,13.81Z"/><path class="cls-1" d="M8.29,14.89c0,1,.07,1.08,1.44,1.08h1.44v8.64H13V16h1c1.16,0,2-.79,1.7-1.62-.15-.43-.9-.54-3.82-.54H8.29Z"/><path class="cls-1" d="M17.36,18.82a55,55,0,0,0-2.23,5.4c0,.21.4.39.9.39a1.71,1.71,0,0,0,1.44-1.08c.5-1,.72-1.08,2.52-1.08s2,.11,2.38.79a3.48,3.48,0,0,0,.82,1.08c.58.4,1.67.36,1.67-.07,0-.83-4.5-10.44-4.87-10.44S18.55,16.08,17.36,18.82Zm2.77,1.8a3.34,3.34,0,0,1-1.26,0c-.1-.11.11-.76.47-1.52L20,17.77l.61,1.32.61,1.4Z"/><path class="cls-1" d="M25.94,19.25v5.4l1-.11c.9-.11,1-.22,1.08-2.2.07-1.11.25-2.05.43-2.05A6.31,6.31,0,0,1,30.11,22,17.15,17.15,0,0,0,32,24.14c.54.51,2.2.65,2.2.22a15.31,15.31,0,0,0-1.41-2.09l-1.44-1.91.9-.79A3.24,3.24,0,0,0,32.48,15a3.17,3.17,0,0,0-.78-.63,8.68,8.68,0,0,0-3.39-.54H26Zm5.29-2.7c.36,1-.4,1.8-1.8,1.87s-1.3.07-1.3-1.15,0-1.3,1.44-1.3C30.55,16,31.09,16.15,31.23,16.55Z"/><path class="cls-1" d="M34.72,14.35c-.39,1,.15,1.62,1.48,1.62h1.26v8.68l1-.11,1-.11.11-4.25c.07-3.85.14-4.21.76-4.21,1.26,0,1.8-.43,1.8-1.29s0-.9-3.6-.9C35.66,13.81,34.87,13.92,34.72,14.35Z"/><path class="cls-1" d="M43.59,18.13c0,4.36,0,4.39,1,5.4a3.15,3.15,0,0,0,2.7,1c2,0,3.28-.54,3.78-1.7a22,22,0,0,0,.4-5v-4.1l-1,.1-1,.11-.11,4.14c-.07,2.7-.25,4.21-.54,4.39a2.7,2.7,0,0,1-2.7-.18,14.65,14.65,0,0,1-.5-4.42L45.54,14l-1-.11-1-.1Z"/><path class="cls-1" d="M53.67,19.21v5.4H55.8V20.29h1.8c1.37,0,1.91-.18,2.48-.83a3.21,3.21,0,0,0,.76-3.52c-.5-1.48-2-2.13-4.8-2.13H53.7Zm5.3-2.7c.36,1-.4,1.8-1.8,1.87s-1.37.11-1.37-1.09,0-1.3,1.45-1.3c1,0,1.57.16,1.72.56Z"/><path class="cls-1" d="M62.68,19.21v5.4h1.8V13.81h-1.8Z"/></svg>