<svg id="Camada_1" data-name="Camada 1" xmlns="http://www.w3.org/2000/svg" viewBox="0 0 90 40"><defs><style>.cls-1{fill:#fff;fill-rule:evenodd;}</style></defs><g id="SUPER"><g id="GABRILA65162183544miv_Superinteressante" data-name="GABRILA65162183544miv Superinteressante"><path id="Fill-3" class="cls-1" d="M78.44,12h.68c1.16,0,2.62.07,2.62,1.6s-1.35,1.8-2.59,1.8h-.71ZM71.5,26.3h7V20h.13l3.11,6.3h8.2l-4.25-6.39a5.08,5.08,0,0,0-1.19-1.17v-.15c2.64-.9,3.79-2.14,3.79-5.09,0-4.93-3.74-6.8-8.14-6.8H71.5Z"/><path id="Fill-4" class="cls-1" d="M36.94,6.7V18.26c0,5.56-3.4,8.17-8.64,8.3h-.4c-5.26-.12-8.68-2.7-8.68-8.3V6.7h7.11V17.59c0,1.42.05,2.7,1.57,2.86a2.8,2.8,0,0,0,.41,0c1.49-.19,1.53-1.44,1.53-2.85V6.7H37"/><path id="Fill-5" class="cls-1" d="M39.17,26.3H46V20.37h2.46c4,0,6.46-2.49,6.46-6.49,0-4.85-3.37-7.2-7.94-7.2H39.17ZM46,12.08h.67c1.17,0,2.62.08,2.62,1.61s-1.35,1.8-2.59,1.8H46V12.08Z"/><path id="Fill-6" class="cls-1" d="M32.23,31.86H32V30.51h.22c.38,0,.84,0,.84.64S32.63,31.86,32.23,31.86Zm1.67,1.35a1.61,1.61,0,0,0-.31-.38v0a1.5,1.5,0,0,0,1-1.67,2,2,0,0,0-1.73-2.21,2.36,2.36,0,0,0-.46,0H30.17V35.3H32V33.24h0l.89,2.06H35L33.9,33.22Z"/><path id="Fill-7" class="cls-1" d="M1.87,19.45S6.11,21.3,8,21.09c.76-.08,1.59-.48,1.59-1.44s-1-1-1.72-1.19L6.3,18.2c-3-.53-5.58-2.32-5.58-5.66C.74,7.44,5.4,4.61,10,4.61A12.75,12.75,0,0,1,16.77,6.5l-2.1,4.69a12,12,0,0,0-4.55-1.41,1.57,1.57,0,0,0-1.74,1.38.28.28,0,0,0,0,.09c0,.79,1.09,1.12,1.68,1.26l1.76.4c3.28.74,5.66,2.49,5.66,6.12,0,5.09-4.65,7.61-9.25,7.61A19.21,19.21,0,0,1,0,24.69l1.87-5.24"/><path id="Fill-8" class="cls-1" d="M63.51,21.14V18.4H69V14.6H63.51V11.9h6V6.74H59.09a2.8,2.8,0,0,0-2.7,2.49V23.82a2.79,2.79,0,0,0,2.7,2.49H69.71V21.14h-6.2"/><path id="Fill-9" class="cls-1" d="M54.76,33.24a3.8,3.8,0,0,0,1.47.48.39.39,0,0,0,.39-.4v0c0-.29-.25-.31-.42-.36l-.4-.08a1.64,1.64,0,0,1-1.35-1.69,2.25,2.25,0,0,1,2.12-2.36h.13a2.68,2.68,0,0,1,1.63.56l-.5,1.43a2.54,2.54,0,0,0-1.13-.45.41.41,0,0,0-.41.41v0c0,.23.26.33.4.38l.42.12a1.71,1.71,0,0,1,1.36,1.8,2.15,2.15,0,0,1-2,2.27h-.19a3.9,3.9,0,0,1-2-.58l.45-1.57"/><path id="Fill-10" class="cls-1" d="M46.87,33.24a3.9,3.9,0,0,0,1.49.48.39.39,0,0,0,.38-.41h0c0-.29-.25-.31-.42-.36l-.38-.08a1.62,1.62,0,0,1-1.34-1.69,2.24,2.24,0,0,1,2.1-2.36h.13a2.66,2.66,0,0,1,1.63.56L50,30.8a2.6,2.6,0,0,0-1.1-.42.42.42,0,0,0-.42.42v0c0,.23.26.33.4.38l.43.11a1.72,1.72,0,0,1,1.36,1.8,2.16,2.16,0,0,1-2,2.28h-.2a4,4,0,0,1-2-.59l.45-1.56"/><polygon id="Fill-11" class="cls-1" points="0.43 35.28 2.3 35.28 2.3 28.91 0.43 28.91 0.43 35.28"/><polyline id="Fill-12" class="cls-1" points="14.77 28.91 18.7 28.91 18.7 30.98 17.67 30.93 17.67 35.28 15.79 35.28 15.79 30.93 14.77 30.98 14.77 28.91"/><path id="Fill-13" class="cls-1" d="M64.11,33.18l.47-2.7h.08c0,.38.1.76.18,1.14l.3,1.55Zm1.53-4.24H63.57l-1.8,6.36h2l.14-.79H65.3l.18.79h2l-1.8-6.36Z"/><path id="Fill-14" class="cls-1" d="M70.49,28.91H72.2l1.6,3.54h0a14.78,14.78,0,0,1-.15-1.62V28.91h1.7V35.3H73.7L72.14,32h-.06a9.09,9.09,0,0,1,.12,1.28V35.3H70.49V28.91"/><path id="Fill-15" class="cls-1" d="M6.24,28.91H8l1.59,3.54h0a11.5,11.5,0,0,1-.15-1.65V28.91h1.71V35.3H9.45L7.88,31.93h0A9.21,9.21,0,0,1,8,33.21V35.3H6.24V28.91"/><polyline id="Fill-16" class="cls-1" points="79.28 28.91 83.2 28.91 83.2 30.98 82.18 30.93 82.18 35.28 80.31 35.28 80.31 30.93 79.28 30.98 79.28 28.91"/><path id="Fill-17" class="cls-1" d="M88.34,33.63v-.9H89.8V31.5H88.34v-.9H90V28.94H87.16a.81.81,0,0,0-.74.81v4.77a.81.81,0,0,0,.74.81H90v-1.7H88.34"/><path id="Fill-18" class="cls-1" d="M40.74,33.63v-.9h1.47V31.5H40.74v-.9h1.6V28.94H39.6a.81.81,0,0,0-.74.81v4.77a.82.82,0,0,0,.74.78h2.84V33.63h-1.7"/><path id="Fill-19" class="cls-1" d="M24.3,33.63v-.9h1.44V31.5H24.3v-.9h1.6V28.94H23.11a.83.83,0,0,0-.74.81v4.77a.83.83,0,0,0,.74.81H26v-1.7H24.3"/></g></g></svg>