<svg id="Camada_1" data-name="Camada 1" xmlns="http://www.w3.org/2000/svg" viewBox="0 0 100 40"><defs><style>.cls-1{fill:#fff;fill-rule:evenodd;}</style></defs><g id="SUPER"><g id="GABRILA65162183544miv_Superinteressante" data-name="GABRILA65162183544miv Superinteressante"><path id="Fill-3" class="cls-1" d="M87.16,11.13h.75c1.29,0,2.91.08,2.91,1.78s-1.5,2-2.88,2h-.78V11.13ZM79.45,27h7.72V20h.14l3.46,7h9.11L95.15,19.9a5.51,5.51,0,0,0-1.32-1.3v-.17c2.94-1,4.21-2.37,4.21-5.65C98,7.3,93.89,5.22,89,5.22H79.45V27Z"/><path id="Fill-4" class="cls-1" d="M41.05,5.22V18.07c0,6.18-3.78,9.08-9.61,9.22H31c-5.84-.13-9.64-3-9.64-9.22V5.22h7.9v12.1c0,1.58.05,3,1.74,3.18a2.37,2.37,0,0,0,.46,0c1.65-.21,1.7-1.6,1.7-3.17V5.22h7.9"/><path id="Fill-5" class="cls-1" d="M43.52,27h7.61V20.41h2.74c4.41,0,7.17-2.77,7.17-7.21,0-5.39-3.74-8-8.82-8h-8.7V27Zm7.61-15.8h.75c1.3,0,2.91.09,2.91,1.79s-1.5,2-2.88,2h-.78V11.15Z"/><path id="Fill-6" class="cls-1" d="M35.81,33.18h-.25v-1.5h.24c.42,0,.93,0,.93.71s-.48.79-.92.79Zm1.86,1.5a1.79,1.79,0,0,0-.35-.42V34.2a1.66,1.66,0,0,0,1.11-1.85A2.21,2.21,0,0,0,36,29.88H33.52V37h2V34.71h0L36.51,37h2.4l-1.24-2.31Z"/><path id="Fill-7" class="cls-1" d="M2.08,19.39s4.71,2.05,6.82,1.82c.85-.09,1.77-.53,1.77-1.6s-1.14-1.16-1.92-1.32L7,18c-3.37-.59-6.2-2.58-6.2-6.29C.82,6.05,6,2.9,11.11,2.9A14.11,14.11,0,0,1,18.63,5L16.3,10.21a13.23,13.23,0,0,0-5.06-1.56A1.74,1.74,0,0,0,9.3,10.28c0,.88,1.21,1.24,1.87,1.4l1.95.44c3.65.82,6.29,2.77,6.29,6.8,0,5.66-5.16,8.46-10.28,8.46A21.45,21.45,0,0,1,0,25.21l2.08-5.82"/><path id="Fill-8" class="cls-1" d="M70.57,21.27V18.22h6.08V14H70.57V11h6.66V5.27H65.66a3.09,3.09,0,0,0-3,2.76V24.25a3.08,3.08,0,0,0,3,2.76H77.46V21.27H70.57"/><path id="Fill-9" class="cls-1" d="M60.84,34.71a4.27,4.27,0,0,0,1.64.54.44.44,0,0,0,.43-.47c0-.32-.28-.35-.47-.4L62,34.29a1.81,1.81,0,0,1-1.5-1.88A2.49,2.49,0,0,1,63,29.79a2.94,2.94,0,0,1,1.81.62L64.26,32A2.87,2.87,0,0,0,63,31.5a.46.46,0,0,0-.46.49c0,.26.29.37.45.42l.47.13a1.91,1.91,0,0,1,1.51,2,2.4,2.4,0,0,1-2.48,2.53,4.36,4.36,0,0,1-2.19-.65l.5-1.74"/><path id="Fill-10" class="cls-1" d="M52.08,34.71a4.33,4.33,0,0,0,1.65.54.44.44,0,0,0,.42-.47c0-.32-.27-.35-.46-.4l-.42-.09a1.8,1.8,0,0,1-1.49-1.88,2.48,2.48,0,0,1,2.48-2.62,2.94,2.94,0,0,1,1.81.62L55.51,32a2.92,2.92,0,0,0-1.22-.47.47.47,0,0,0-.47.49c0,.26.29.37.45.42l.47.13a1.92,1.92,0,0,1,1.52,2,2.4,2.4,0,0,1-2.48,2.53,4.42,4.42,0,0,1-2.2-.65l.5-1.74"/><polygon id="Fill-11" class="cls-1" points="0.48 36.98 2.56 36.98 2.56 29.9 0.48 29.9 0.48 36.98"/><polyline id="Fill-12" class="cls-1" points="16.41 29.9 20.78 29.9 20.78 32.2 19.63 32.14 19.63 36.98 17.55 36.98 17.55 32.14 16.41 32.2 16.41 29.9"/><path id="Fill-13" class="cls-1" d="M71.23,34.65l.52-3h.1c.05.42.11.84.19,1.26l.34,1.72Zm1.7-4.72h-2.3l-2,7.07h2.2l.16-.88h1.57l.19.88H75l-2-7.07Z"/><path id="Fill-14" class="cls-1" d="M78.32,29.9h1.9L82,33.83h.06a13.54,13.54,0,0,1-.17-1.8V29.9h1.89V37H81.89l-1.74-3.72h-.06a10,10,0,0,1,.13,1.42V37h-1.9V29.9"/><path id="Fill-15" class="cls-1" d="M6.93,29.9H8.84l1.77,3.93h.06A13.54,13.54,0,0,1,10.5,32V29.9h1.9V37H10.5L8.76,33.26h0a11.66,11.66,0,0,1,.12,1.42V37H6.93V29.9"/><polyline id="Fill-16" class="cls-1" points="88.09 29.9 92.45 29.9 92.45 32.2 91.31 32.14 91.31 36.98 89.23 36.98 89.23 32.14 88.09 32.2 88.09 29.9"/><path id="Fill-17" class="cls-1" d="M98.15,35.15v-1h1.63V32.78H98.15v-1h1.79V29.93h-3.1a.91.91,0,0,0-.82.9v5.3a.91.91,0,0,0,.82.9H100V35.15H98.15"/><path id="Fill-18" class="cls-1" d="M45.27,35.15v-1H46.9V32.78H45.27v-1h1.78V29.93H44a.91.91,0,0,0-.82.9v5.3A.91.91,0,0,0,44,37h3.16V35.15H45.27"/><path id="Fill-19" class="cls-1" d="M27,35.15v-1H28.6V32.78H27v-1h1.78V29.93h-3.1a.91.91,0,0,0-.82.9v5.3a.91.91,0,0,0,.82.9h3.16V35.15H27"/></g></g></svg>