<svg id="Camada_1" data-name="Camada 1" xmlns="http://www.w3.org/2000/svg" viewBox="0 0 90 40"><defs><style>.cls-1{fill:#fff;fill-rule:evenodd;}</style></defs><path class="cls-1" d="M60.69,22.68a2.76,2.76,0,0,1-5.52.32V14.2H52.38v9.38a4.66,4.66,0,0,0,4.5,4.83H57a4.44,4.44,0,0,0,3.6-1.64h.06v1.49h2.79V14.2H60.7ZM47.92,11.54h-2.8V24.82A3.18,3.18,0,0,0,48,28.26H50.4V25.62H48.9c-.68,0-1-.27-1-1V17H50.4V14.18H47.92Zm25.8,4.29a5.11,5.11,0,0,0-3.6-1.65A4.49,4.49,0,0,0,66.4,16c-.77,1-1,1.89-1,5.29s.22,4.34,1,5.33a4.54,4.54,0,0,0,3.73,1.8,5,5,0,0,0,3.6-1.62v1.44H76.5V11.56H73.71v4.26ZM71,25.62c-2.64,0-2.77-2.17-2.77-4.33S68.38,17,71,17s2.7,2.3,2.7,4.31S73.58,25.62,71,25.62ZM88.5,16a5.87,5.87,0,0,0-8.31-.14l-.14.14c-1.07,1.18-1.51,2.33-1.51,5.32s.44,4.17,1.51,5.35a5.91,5.91,0,0,0,8.35.1.94.94,0,0,1,.1-.1c1.06-1.18,1.5-2.34,1.5-5.35s-.44-4.15-1.51-5.33h0Zm-2,8.64a3,3,0,0,1-4.22.28L82,24.61c-.52-.75-.69-1.29-.69-3.32s.17-2.56.69-3.3a3,3,0,0,1,4.21-.28,3.83,3.83,0,0,1,.29.28c.52.74.69,1.29.69,3.31s-.16,2.56-.68,3.3Z"/><path class="cls-1" d="M2.81,11.54H0V24.82a3.19,3.19,0,0,0,2.92,3.44H5.31V25.62H3.8c-.69,0-1-.27-1-1V17h2.5V14.18H2.81ZM25.65,25.62c-2.27,0-3.6-1.28-3.6-4.31S23.39,17,25.65,17a3.68,3.68,0,0,1,2.82,1.45l2.07-1.8a6.53,6.53,0,0,0-5-2.42c-3.2,0-6.3,2-6.3,7.14s3.1,7.11,6.3,7.11a6.56,6.56,0,0,0,5-2.41l-2.07-1.8a3.68,3.68,0,0,1-2.82,1.45ZM38.4,14a4.52,4.52,0,0,0-3.6,1.66h0V11.54H31.9V28.17h2.81V19.86a2.77,2.77,0,1,1,5.53-.45,3.38,3.38,0,0,1,0,.45v8.31H43V18.89A4.68,4.68,0,0,0,38.52,14H38.4Zm-26.32.14c-2.7,0-5.73,1.8-5.73,7.2,0,5.71,3.32,7.08,6.16,7.08a6.4,6.4,0,0,0,5-2.25l-2-1.73a4.4,4.4,0,0,1-3,1.34,3.1,3.1,0,0,1-3.32-2.89,3.25,3.25,0,0,1,0-.54h8.67V20.05a5.64,5.64,0,0,0-5.41-5.86h-.32ZM9.14,20.05c.06-2.11,1.29-3.24,2.94-3.24s2.85,1.13,2.93,3.24Z"/></svg>