<svg id="Camada_1" data-name="Camada 1" xmlns="http://www.w3.org/2000/svg" viewBox="0 0 100 40"><defs><style>.cls-1{fill:#fff;fill-rule:evenodd;}</style></defs><path class="cls-1" d="M67.43,23a3.07,3.07,0,1,1-6.13,0V13.58H58.19V24a5.19,5.19,0,0,0,5.18,5.37,4.91,4.91,0,0,0,4-1.83h.07V29.2h3.1V13.58h-3.1ZM53.24,10.62H50.13V25.38a3.53,3.53,0,0,0,3.74,3.82H56V26.27H54.33c-.76,0-1.09-.3-1.09-1.16V16.69H56V13.55H53.24V10.62Zm28.67,4.77a5.7,5.7,0,0,0-4-1.84,5.05,5.05,0,0,0-4.14,2c-.85,1.09-1.09,2.1-1.09,5.88s.24,4.82,1.1,5.92a5,5,0,0,0,4.14,2,5.46,5.46,0,0,0,4-1.8v1.61H85V10.64h-3.1v4.74Zm-3,10.88c-2.93,0-3.08-2.41-3.08-4.82s.15-4.79,3.08-4.79,3,2.56,3,4.79-.16,4.82-3,4.82ZM98.33,15.54a6.53,6.53,0,0,0-9.39,0c-1.19,1.31-1.67,2.59-1.67,5.91s.48,4.64,1.67,5.95a6.56,6.56,0,0,0,9.39,0c1.18-1.31,1.67-2.6,1.67-5.95s-.49-4.61-1.68-5.92h0Zm-2.2,9.6a3.32,3.32,0,0,1-5,0c-.58-.83-.77-1.43-.77-3.69s.19-2.84.77-3.66a3.32,3.32,0,0,1,5,0c.58.82.77,1.43.77,3.68s-.18,2.84-.76,3.66Z"/><path class="cls-1" d="M3.11,10.62H0V25.38A3.54,3.54,0,0,0,3.75,29.2H5.89V26.27H4.21c-.77,0-1.1-.3-1.1-1.16V16.69H5.89V13.55H3.11ZM28.49,26.27c-2.52,0-4-1.43-4-4.79s1.49-4.81,4-4.81a4.07,4.07,0,0,1,3.14,1.61l2.29-2a7.22,7.22,0,0,0-5.55-2.69c-3.56,0-7,2.26-7,7.93s3.44,7.9,7,7.9a7.24,7.24,0,0,0,5.55-2.68l-2.29-2a4.07,4.07,0,0,1-3.14,1.61ZM42.66,13.4a5,5,0,0,0-4,1.84h-.06V10.62H35.44V29.1h3.12V19.86a3.08,3.08,0,1,1,6.14,0V29.1h3.12V18.79a5.21,5.21,0,0,0-5.17-5.39Zm-29.25.15c-3,0-6.37,2-6.37,8,0,6.35,3.69,7.87,6.85,7.87a7.1,7.1,0,0,0,5.58-2.5L17.22,25a4.89,4.89,0,0,1-3.39,1.49,3.46,3.46,0,0,1-3.68-3.81h9.63V20.08a6.27,6.27,0,0,0-6.37-6.52Zm-3.26,6.53c.06-2.35,1.43-3.6,3.26-3.6s3.17,1.25,3.26,3.6Z"/></svg>