<svg id="Camada_1" data-name="Camada 1" xmlns="http://www.w3.org/2000/svg" viewBox="0 0 120 40"><defs><style>.cls-1{fill:#fff;}</style></defs><path class="cls-1" d="M105.78,13.24V18.4l-.44-.36a5,5,0,0,0-3.6-.7,4.8,4.8,0,0,0-3.11,1.77,5.48,5.48,0,0,0-.18,6.4,5.2,5.2,0,0,0,2.49,1.87,5.09,5.09,0,0,0,4.36-.54l.44-.26v1.06h2.31V12.36Zm-3,12.18a3.27,3.27,0,0,1-.89-.18l-.18-.08h0a2.37,2.37,0,0,1-1.07-.8,3,3,0,1,1,4.18.25h0A2.75,2.75,0,0,1,102.76,25.42Z"/><path class="cls-1" d="M82.8,22.66a2.48,2.48,0,0,1-2.16,2.76h-.07a2.4,2.4,0,0,1-2.73-2,1.23,1.23,0,0,1,0-.2v-6H75.6v5.43a4.77,4.77,0,0,0,9.52.44V17.24H82.8Z"/><path class="cls-1" d="M114.76,17.24A5.21,5.21,0,1,0,120,22.41h0a5.09,5.09,0,0,0-5-5.16h-.22Zm0,8.18a2.88,2.88,0,0,1-3-2.81,1.48,1.48,0,0,1,0-.21,3,3,0,0,1,3-2.93h0a2.93,2.93,0,0,1,2.94,2.92v.09A3,3,0,0,1,114.76,25.42Z"/><path class="cls-1" d="M69.34,17.24a4.67,4.67,0,0,0-3.6,1.61,4.4,4.4,0,0,0-3.6-1.61,4.67,4.67,0,0,0-4.8,4.54v5.86h2.31V22.22a2.56,2.56,0,0,1,5.07-.62v6H67V22.22a2.56,2.56,0,1,1,5-.62v6h2.3V22.22a4.67,4.67,0,0,0-4.33-5h-.63Z"/><path class="cls-1" d="M30.58,23.6v-5h3.2V17.24h-3.2V12.36H29.06V23.6c0,2.66,1.2,4,3.6,4h1.88V26.31H32.89C31.28,26.31,30.58,25.51,30.58,23.6Z"/><path class="cls-1" d="M40.44,17.24a5.06,5.06,0,0,0-5.15,5h0v.26a5.06,5.06,0,0,0,4.86,5.25h.29A4.37,4.37,0,0,0,44.89,25H43.28a3,3,0,0,1-2.84,1.42,3.6,3.6,0,0,1-3.73-3.29h8.4v-.63C45.16,19.38,43.2,17.24,40.44,17.24Zm-3.73,4.63a3.6,3.6,0,0,1,3.6-3.3,3.31,3.31,0,0,1,3.37,3.25V22Z"/><path class="cls-1" d="M51.82,26.31a3.6,3.6,0,0,1-3.6-3.6V22.4a3.6,3.6,0,0,1,3.35-3.83h.29a3.39,3.39,0,0,1,2.68,1.2l1.2-.62a4.86,4.86,0,0,0-3.91-2,5.07,5.07,0,0,0-5.15,5h0v.27a5.11,5.11,0,0,0,4.92,5.29h.26a4.82,4.82,0,0,0,4-2l-1.2-.61A3.89,3.89,0,0,1,51.82,26.31Z"/><path class="cls-1" d="M91.46,17.24a4.68,4.68,0,0,0-4.8,4.53h0v5.86h2.22V22.22A2.56,2.56,0,0,1,94,21.6v6h2.23V22.22a4.68,4.68,0,0,0-4.36-5Z"/><path class="cls-1" d="M6.13,23.37V29.6A1.6,1.6,0,0,0,7.7,31.2H13a1.61,1.61,0,0,0,1.61-1.59h0V23.37l-4.27,4.27Z"/><path class="cls-1" d="M19.2,8.8H1.43A1.41,1.41,0,0,0,0,10.18v5.64a1.41,1.41,0,0,0,1.39,1.42H6.84l3.47,3.47,3.47-3.47H19.2a1.4,1.4,0,0,0,1.42-1.37v0h0v-5.6A1.4,1.4,0,0,0,19.25,8.8Z"/></svg>