<svg id="Camada_1" data-name="Camada 1" xmlns="http://www.w3.org/2000/svg" viewBox="0 0 100 40"><defs><style>.cls-1{fill:#fff;}</style></defs><path class="cls-1" d="M88.15,14.37v4.3l-.37-.3a4.19,4.19,0,0,0-3-.59,4,4,0,0,0-2.59,1.48,4.57,4.57,0,0,0-.15,5.33,4.34,4.34,0,0,0,2.08,1.56,4.23,4.23,0,0,0,3.63-.45l.37-.22v.89h1.92V13.63ZM85.63,24.52a2.78,2.78,0,0,1-.74-.15l-.15-.07h0a2,2,0,0,1-.89-.67,2.47,2.47,0,1,1,3.48.22,2.32,2.32,0,0,1-1.7.67Z"/><path class="cls-1" d="M69,22.22a2.06,2.06,0,0,1-1.86,2.3,2,2,0,0,1-2.29-1.85v-5H63v4.52a4,4,0,0,0,3.78,4.15,4,4,0,0,0,4.15-3.78V17.7H69Z"/><path class="cls-1" d="M95.63,17.7A4.34,4.34,0,1,0,100,22h0a4.24,4.24,0,0,0-4.22-4.3Zm0,6.82A2.4,2.4,0,0,1,93.18,22a2.48,2.48,0,0,1,2.52-2.44,2.44,2.44,0,0,1,2.45,2.51A2.54,2.54,0,0,1,95.63,24.52Z"/><path class="cls-1" d="M57.78,17.7a3.88,3.88,0,0,0-3,1.34,3.67,3.67,0,0,0-3-1.34,3.9,3.9,0,0,0-4,3.78v4.89h1.93V21.85a2.13,2.13,0,0,1,4.22-.52v5h1.93V21.85A2.13,2.13,0,1,1,60,21.33v5h1.92V21.85A3.89,3.89,0,0,0,58.3,17.7Z"/><path class="cls-1" d="M25.48,23V18.81h2.67V17.7H25.48V13.63H24.22V23c0,2.22,1,3.33,3,3.33h1.56V25.26H27.41C26.07,25.26,25.48,24.59,25.48,23Z"/><path class="cls-1" d="M33.7,17.7a4.22,4.22,0,0,0-4.29,4.15v.22a4.21,4.21,0,0,0,4.07,4.37h.22a3.65,3.65,0,0,0,3.71-2.29H36.07a2.53,2.53,0,0,1-2.37,1.18,3,3,0,0,1-3.11-2.74h7v-.52C37.63,19.48,36,17.7,33.7,17.7Zm-3.11,3.86a3,3,0,0,1,3-2.75,2.76,2.76,0,0,1,2.81,2.75v.07Z"/><path class="cls-1" d="M43.18,25.26a3,3,0,0,1-3-3V22A3,3,0,0,1,43,18.81h.22a2.82,2.82,0,0,1,2.23,1l1-.52a4.05,4.05,0,0,0-3.26-1.63,4.22,4.22,0,0,0-4.29,4.15v.22A4.26,4.26,0,0,0,43,26.44h.22a4,4,0,0,0,3.34-1.63l-1-.51A3.26,3.26,0,0,1,43.18,25.26Z"/><path class="cls-1" d="M76.22,17.7a3.89,3.89,0,0,0-4,3.78v4.89h1.85V21.85a2.13,2.13,0,0,1,4.22-.52v5h1.86V21.85a3.9,3.9,0,0,0-3.63-4.15Z"/><path class="cls-1" d="M5.11,22.81V28a1.32,1.32,0,0,0,1.33,1.33h4.37A1.33,1.33,0,0,0,12.15,28V22.81L8.59,26.37Z"/><path class="cls-1" d="M16,10.67H1.19A1.17,1.17,0,0,0,0,11.85v4.67A1.17,1.17,0,0,0,1.19,17.7H5.7l2.89,2.89,2.89-2.89H16a1.16,1.16,0,0,0,1.18-1.18h0V11.85A1.16,1.16,0,0,0,16,10.67Z"/></svg>