<svg id="Camada_1" data-name="Camada 1" xmlns="http://www.w3.org/2000/svg" viewBox="0 0 100 40"><defs><style>.cls-1{fill:#fff;}</style></defs><path class="cls-1" d="M5.74,8.77C4.79,9.06,4,9.3,4,9.34a11.82,11.82,0,0,0-.47,1.48l-.42,1.4-1.3.07-1.3.06-.23,1A10.69,10.69,0,0,0,0,14.66V15H1.18c1.18,0,1.19,0,1.11.29C2,16.32.89,21.62.65,23,.33,24.94.38,25.49,1,26.22,2.24,27.7,5.35,27.57,7.62,26l.58-.43.43.4c1,1,2.59,1.41,4.78,1.3A13,13,0,0,0,19.6,25.4l.49-.34.5.55a5.66,5.66,0,0,0,4.16,1.65,9,9,0,0,0,3.37-.78l.55-.27-.09.39-.09.4h1.9a7.48,7.48,0,0,0,1.9-.12c0-.37.85-4.65,1.16-5.91.93-3.57,2-5.35,3.63-5.81a1.47,1.47,0,0,1,1.49.42,7.62,7.62,0,0,1-.22,3.62c-.19.82-.63,2.8-1,4.41s-.68,3-.7,3.16.1.23,1.79.23h1.87l.41-1.9c1.21-5.44,1.9-9.7,1.72-10.67a3.23,3.23,0,0,0-.78-1.58c-1.3-1.37-4.25-.93-6.21.93l-.73.69.08-.67c0-.37.11-.86.15-1.1l.08-.41H33.28a7.58,7.58,0,0,0-1.77.1c0,.09-2,10.05-2.15,10.68-.09.4-1.4,1-2.56,1.2a3,3,0,0,1-3.28-1.18c-.23-.37-.28-.66-.26-1.62A6.1,6.1,0,0,1,25,16.8a5.45,5.45,0,0,1,3.66-1.39c.57,0,.46.17,1-1.77.34-1.34.4-1.28-1.06-1.17-5.67.4-8.78,3.46-9.12,9l-.09,1.43-.92.48c-2.05,1.11-4.74,1.67-6.12,1.28a2.42,2.42,0,0,1-1.56-1.59,8,8,0,0,1,0-1.28l0-.84,1.54-.1c5.17-.32,7.8-2.12,7.82-5.37,0-2.19-1.34-3.3-4.21-3.43a7.23,7.23,0,0,0-6.76,3.43A11.56,11.56,0,0,0,7.27,22.2v1.64l-.55.3a2.46,2.46,0,0,1-1.17.31c-1.15,0-1.33-.56-.94-2.87.18-1.06.71-3.55,1.19-5.67L6,15H7.5c1.68,0,1.48.16,1.74-1.35S9.57,12.29,8,12.29H6.67l.57-1.87c.31-1,.57-1.92.57-2S7.71,8.2,5.74,8.77Zm10.37,6.07A1.6,1.6,0,0,1,16.37,17c-.58.87-2.42,1.53-4.22,1.55-1,0-1,0-.57-1.1a4.33,4.33,0,0,1,2.63-2.8A2.76,2.76,0,0,1,16.11,14.84Z"/><path class="cls-1" d="M60.22,8.78l-1.57.5-2,8.7c-1.43,6.05-2,8.71-1.9,8.77a29,29,0,0,0,5.13.45,7.54,7.54,0,0,0,4.17-1A10,10,0,0,0,67.36,23a12.85,12.85,0,0,0,1.44-6.83c-.21-2.87-1.42-4.06-4-3.95a5.32,5.32,0,0,0-3.42,1.43c-.43.4-.59.49-.53.3s.31-1.34.61-2.67l.61-2.7C62.16,8.16,62.11,8.17,60.22,8.78Zm4.16,6.12c.58.28.78.93.76,2.59,0,3.21-1.23,5.8-3.13,6.74a4.07,4.07,0,0,1-2,.4c-1,.05-1.29,0-1.34-.14a22.29,22.29,0,0,1,1.05-4.65c.86-2.57,2.17-4.45,3.39-4.88A1.42,1.42,0,0,1,64.38,14.9Z"/><path class="cls-1" d="M73.45,8.81l-1.63.55L69.65,18c-1.21,4.76-2.19,8.73-2.2,8.81s.45.17,1.86.17h1.86l2-9.15c1.13-5,2.09-9.25,2.12-9.38C75.43,8.16,75.27,8.18,73.45,8.81Z"/><path class="cls-1" d="M49.09,12.16a7.5,7.5,0,0,0-5.65,4.36,11.17,11.17,0,0,0-1.21,5,6,6,0,0,0,.2,2.57,4.29,4.29,0,0,0,2.34,2.66,4.21,4.21,0,0,0,2.22.48,7.21,7.21,0,0,0,3.73-.69c2.37-1.1,3.84-3.13,4.62-6.34.95-3.92,0-6.88-2.44-7.8A9.29,9.29,0,0,0,49.09,12.16ZM51.15,15c.69.42.84,1,.76,2.67-.15,3.18-1.34,5.9-2.89,6.63a2.86,2.86,0,0,1-2.34-.08c-.57-.44-.72-1-.72-2.64A8.91,8.91,0,0,1,47.59,16,3,3,0,0,1,51.15,15Z"/><path class="cls-1" d="M80,12.16c-3.58.57-6.12,3.59-6.77,8a11.4,11.4,0,0,0,.19,4.22,4.67,4.67,0,0,0,2.24,2.35,4.37,4.37,0,0,0,2.31.46,7.53,7.53,0,0,0,2.29-.16,8,8,0,0,0,5-4.05L85.77,22l.09,1.08a4.37,4.37,0,0,0,2,3.79,2.73,2.73,0,0,0,1.8.36,3.51,3.51,0,0,0,2.19-.5,6.92,6.92,0,0,0,1.69-1.2l.69-.69-.12.52a3.94,3.94,0,0,1-2.85,3.15,13.55,13.55,0,0,1-1.82.28l-1.09.1-1.23,1.43-1.23,1.44,2.21-.09c2.69-.12,3.83-.33,5.25-1a8.07,8.07,0,0,0,4.23-5.52C98.83,19.59,100,13.74,100,13v-.42l-1.26-.24a17.79,17.79,0,0,0-3.49-.23,7.73,7.73,0,0,0-3.26.36,7.87,7.87,0,0,0-4.71,3.94l-.5,1-.2-1.08c-.56-2.83-1.94-4.06-4.73-4.19A12,12,0,0,0,80,12.16Zm15.54,2.55.62.09-.08.66a20.46,20.46,0,0,1-1.85,6.23c-1,2-2.77,3.33-3.66,2.82-1.39-.78-1.43-4.09-.08-6.82C91.59,15.35,93.2,14.4,95.49,14.71ZM82,15c.5.3.67.57.81,1.37a13.57,13.57,0,0,1-1.15,6,3.15,3.15,0,0,1-3,2.11,1.44,1.44,0,0,1-1.18-.34c-.58-.48-.71-1.12-.63-3.11a8.39,8.39,0,0,1,.41-2.75c.74-2.32,2-3.56,3.65-3.57A2,2,0,0,1,82,15Z"/></svg>