<svg id="Camada_1" data-name="Camada 1" xmlns="http://www.w3.org/2000/svg" viewBox="0 0 100 40"><defs><style>.cls-1{fill:#fff;}</style></defs><path class="cls-1" d="M5.74,8.74A15.43,15.43,0,0,0,4,9.32a10.62,10.62,0,0,0-.47,1.48l-.42,1.4-1.29.06-1.3.07-.23,1A11.61,11.61,0,0,0,0,14.63V15H1.18c1.18,0,1.19,0,1.11.29C2,16.3.91,21.6.65,23c-.32,2-.27,2.47.35,3.23,1.24,1.47,4.35,1.34,6.62-.23l.56-.43.43.4c1,1,2.59,1.41,4.78,1.3a12.9,12.9,0,0,0,6.19-1.87l.49-.34.5.55a5.66,5.66,0,0,0,4.18,1.68,8.88,8.88,0,0,0,3.37-.78l.55-.27-.09.39-.09.4h1.9a7.54,7.54,0,0,0,1.9-.12c0-.37.85-4.65,1.16-5.91.9-3.57,2-5.34,3.63-5.81a1.47,1.47,0,0,1,1.49.42,7.74,7.74,0,0,1-.22,3.64c-.19.82-.63,2.8-1,4.41s-.68,3-.7,3.16.1.23,1.81.23h1.88l.41-1.9c1.2-5.46,1.9-9.7,1.71-10.67a3.17,3.17,0,0,0-.77-1.58c-1.3-1.37-4.25-.91-6.21.91l-.73.69.08-.67A6.49,6.49,0,0,1,35,12.72l.08-.41H33.28a7.4,7.4,0,0,0-1.82.1c0,.09-2,10.05-2.14,10.68-.09.4-1.4,1-2.57,1.2a3,3,0,0,1-3.28-1.18,2.56,2.56,0,0,1-.25-1.62A6,6,0,0,1,25,16.82a5.44,5.44,0,0,1,3.64-1.39c.56,0,.46.17,1-1.77.34-1.34.4-1.28-1.06-1.17-5.68.4-8.78,3.46-9.09,9l-.09,1.43-.91.48c-2.06,1.11-4.75,1.67-6.13,1.28a2.41,2.41,0,0,1-1.56-1.59,9.11,9.11,0,0,1,0-1.28V20.9l1.54-.1c5.17-.32,7.8-2.12,7.82-5.37,0-2.2-1.34-3.3-4.21-3.43a7.21,7.21,0,0,0-6.72,3.44,11.57,11.57,0,0,0-1.91,6.73v1.65l-.55.3a2.52,2.52,0,0,1-1.17.31c-1.15,0-1.33-.57-.91-2.88.18-1.05.71-3.54,1.19-5.67L6,15H7.5c1.68,0,1.48.16,1.74-1.34S9.57,12.26,8,12.26H6.67l.6-1.86c.32-1,.58-1.93.58-2S7.71,8.17,5.74,8.74Zm10.37,6.08A1.6,1.6,0,0,1,16.36,17c-.58.91-2.41,1.54-4.21,1.56-1,0-1,0-.58-1.1a4.34,4.34,0,0,1,2.63-2.8A2.69,2.69,0,0,1,16.11,14.82Z"/><path class="cls-1" d="M60.22,8.75l-1.57.5-2,8.7c-1.43,6.06-2,8.71-1.9,8.78a28.51,28.51,0,0,0,5.13.44,7.5,7.5,0,0,0,4.17-1A9.93,9.93,0,0,0,67.36,23a12.85,12.85,0,0,0,1.44-6.83c-.21-2.87-1.42-4.06-4-3.94a5.28,5.28,0,0,0-3.42,1.43c-.43.4-.59.49-.53.3s.31-1.35.61-2.68l.61-2.72C62.16,8.17,62.11,8.17,60.22,8.75Zm4.16,6.12c.58.28.78.91.76,2.59,0,3.21-1.23,5.8-3.13,6.75a4.06,4.06,0,0,1-2,.4c-1,0-1.29,0-1.34-.15a22.94,22.94,0,0,1,1-4.64c.91-2.58,2.17-4.46,3.39-4.89A1.42,1.42,0,0,1,64.38,14.87Z"/><path class="cls-1" d="M73.45,8.78l-1.63.55L69.65,18c-1.21,4.76-2.19,8.74-2.2,8.81s.45.17,1.82.17h1.87l2-9.14,2.15-9.38C75.45,8.17,75.27,8.17,73.45,8.78Z"/><path class="cls-1" d="M49.09,12.13a7.49,7.49,0,0,0-5.65,4.37,11.14,11.14,0,0,0-1.21,5,6,6,0,0,0,.2,2.56,4.31,4.31,0,0,0,2.34,2.67,4.37,4.37,0,0,0,2.22.48,7.38,7.38,0,0,0,3.73-.69c2.37-1.1,3.84-3.14,4.62-6.37.95-3.92,0-6.87-2.44-7.8A9.6,9.6,0,0,0,49.09,12.13ZM51.15,15c.69.43.84,1,.76,2.67-.15,3.19-1.34,5.9-2.89,6.63a2.89,2.89,0,0,1-2.34-.07c-.57-.45-.72-1-.72-2.65A8.9,8.9,0,0,1,47.59,16,3,3,0,0,1,51.15,15Z"/><path class="cls-1" d="M80,12.13c-3.58.58-6.12,3.64-6.77,8a11.31,11.31,0,0,0,.19,4.22,4.68,4.68,0,0,0,2.24,2.36,4.42,4.42,0,0,0,2.31.45A7.28,7.28,0,0,0,85.26,23l.51-1,.09,1.08a4.37,4.37,0,0,0,2,3.79,2.77,2.77,0,0,0,1.82.37,3.54,3.54,0,0,0,2.18-.5,7.2,7.2,0,0,0,1.69-1.2l.7-.69-.12.51a3.93,3.93,0,0,1-2.85,3.15,12.3,12.3,0,0,1-1.82.28l-1.08.1L87.15,30.3l-1.23,1.43,2.21-.09c2.72-.11,3.82-.32,5.24-1a8.08,8.08,0,0,0,4.24-5.51C98.83,19.56,100,13.72,100,13v-.42l-1.26-.23a17.08,17.08,0,0,0-3.49-.24,7.84,7.84,0,0,0-3.26.36,7.94,7.94,0,0,0-4.72,3.91l-.5,1-.19-1c-.56-2.83-1.94-4.06-4.73-4.19A11.45,11.45,0,0,0,80,12.13Zm15.54,2.55.62.09-.08.66a20.21,20.21,0,0,1-1.82,6.23c-1,2-2.72,3.34-3.63,2.82-1.39-.77-1.44-4.08-.08-6.82,1.1-2.33,2.72-3.29,5-3ZM82,15c.5.3.67.57.81,1.37a13.59,13.59,0,0,1-1.15,6,3.14,3.14,0,0,1-3,2.11,1.44,1.44,0,0,1-1.18-.33c-.58-.49-.71-1.12-.63-3.11a8.69,8.69,0,0,1,.41-2.73c.74-2.32,2-3.55,3.64-3.57A2,2,0,0,1,82,15Z"/></svg>