<svg id="Camada_1" data-name="Camada 1" xmlns="http://www.w3.org/2000/svg" viewBox="0 0 110 40"><defs><style>.cls-1{fill:#fff;}</style></defs><path class="cls-1" d="M6.31,7.63a16.35,16.35,0,0,0-1.91.63,12.89,12.89,0,0,0-.52,1.63l-.46,1.54L2,11.5l-1.43.07-.25,1.1A11.52,11.52,0,0,0,0,14.11v.37H1.3c1.3,0,1.31,0,1.22.32C2.2,15.94,1,21.77.71,23.28.36,25.42.42,26,1.1,26.83c1.36,1.62,4.78,1.48,7.28-.25L9,26.11l.47.44c1.1,1.1,2.85,1.55,5.26,1.43a14.26,14.26,0,0,0,6.81-2.06l.54-.37.55.6A6.23,6.23,0,0,0,27.23,28a9.9,9.9,0,0,0,3.7-.86l.61-.3-.1.43-.1.44h2.09a8.14,8.14,0,0,0,2.09-.13c0-.41.93-5.11,1.27-6.5,1-3.93,2.2-5.88,4-6.39a1.62,1.62,0,0,1,1.64.46,8.38,8.38,0,0,1-.25,4c-.2.91-.69,3.08-1.1,4.85s-.74,3.3-.77,3.48.11.25,2,.25h2.06l.45-2.09c1.33-6,2.09-10.67,1.89-11.73a3.56,3.56,0,0,0-.85-1.74c-1.43-1.51-4.68-1-6.83,1l-.81.76.09-.74A7.33,7.33,0,0,1,38.45,12l.08-.45H36.61a8.49,8.49,0,0,0-2,.11c0,.1-2.2,11.06-2.36,11.75-.1.44-1.54,1.1-2.82,1.32a3.3,3.3,0,0,1-3.61-1.3c-.25-.4-.31-.72-.28-1.78a6.69,6.69,0,0,1,1.91-5.14,6,6,0,0,1,4-1.53c.62,0,.5.19,1.1-1.94.37-1.48.44-1.41-1.17-1.29-6.24.44-9.66,3.81-10,9.9l-.1,1.57-1,.53c-2.26,1.22-5.22,1.84-6.74,1.41a2.65,2.65,0,0,1-1.71-1.75,8.3,8.3,0,0,1,0-1.41V21l1.69-.11c5.69-.35,8.58-2.33,8.6-5.91,0-2.41-1.47-3.63-4.63-3.77A7.94,7.94,0,0,0,10.1,15,12.68,12.68,0,0,0,8,22.4v1.81l-.61.33a2.73,2.73,0,0,1-1.29.34c-1.26,0-1.46-.62-1-3.16.2-1.16.78-3.9,1.31-6.24l.22-1H8.25c1.85,0,1.63.18,1.91-1.48s.37-1.5-1.36-1.5H7.34L8,9.45c.35-1.1.63-2.12.63-2.2S8.48,7,6.31,7.63Zm11.41,6.68A1.76,1.76,0,0,1,18,16.68c-.64,1-2.66,1.69-4.64,1.71-1.1,0-1.1,0-.63-1.21a4.77,4.77,0,0,1,2.89-3.08A3,3,0,0,1,17.72,14.31Z"/><path class="cls-1" d="M66.24,7.64l-1.72.55-2.2,9.57c-1.58,6.66-2.2,9.58-2.09,9.65a31.36,31.36,0,0,0,5.64.49,8.23,8.23,0,0,0,4.59-1.1,11,11,0,0,0,3.64-3.52,14.09,14.09,0,0,0,1.58-7.51c-.23-3.16-1.56-4.47-4.4-4.34A5.8,5.8,0,0,0,67.52,13c-.47.44-.65.54-.58.33s.34-1.48.67-2.94l.67-3C68.38,7,68.32,7,66.24,7.64Zm4.58,6.73c.64.31.86,1,.83,2.85,0,3.53-1.35,6.38-3.44,7.42a4.5,4.5,0,0,1-2.2.44c-1.1.05-1.42,0-1.47-.16a24.87,24.87,0,0,1,1.15-5.11c1-2.83,2.39-4.9,3.73-5.37A1.57,1.57,0,0,1,70.82,14.37Z"/><path class="cls-1" d="M80.79,7.67,79,8.28l-2.38,9.5c-1.34,5.24-2.41,9.61-2.42,9.69s.49.19,2,.19h2.05l2.2-10.06L82.82,7.28C83,7,82.8,7,80.79,7.67Z"/><path class="cls-1" d="M54,11.36a8.26,8.26,0,0,0-6.22,4.8,12.32,12.32,0,0,0-1.33,5.5,6.72,6.72,0,0,0,.22,2.82,4.75,4.75,0,0,0,2.58,2.93,4.69,4.69,0,0,0,2.44.53,8,8,0,0,0,4.1-.76c2.61-1.21,4.23-3.45,5.08-7,1.05-4.31,0-7.56-2.68-8.58A10.39,10.39,0,0,0,54,11.36Zm2.27,3.12c.75.47.92,1.1.83,2.94-.16,3.5-1.47,6.49-3.18,7.29a3.15,3.15,0,0,1-2.57-.08c-.63-.49-.79-1.1-.79-2.91a9.76,9.76,0,0,1,1.79-6.14A3.32,3.32,0,0,1,56.27,14.48Z"/><path class="cls-1" d="M88,11.36c-3.94.63-6.73,4-7.45,8.8a12.49,12.49,0,0,0,.21,4.64,5.15,5.15,0,0,0,2.47,2.59,4.83,4.83,0,0,0,2.54.5,8.55,8.55,0,0,0,2.52-.17,8.82,8.82,0,0,0,5.5-4.46l.56-1.08.1,1.19a4.78,4.78,0,0,0,2.2,4.17,3,3,0,0,0,2,.4,3.89,3.89,0,0,0,2.4-.55,7.65,7.65,0,0,0,1.86-1.32l.76-.76-.13.57a4.32,4.32,0,0,1-3.13,3.46,13.55,13.55,0,0,1-2,.31l-1.19.11-1.36,1.58-1.35,1.58,2.43-.1c3-.13,4.21-.36,5.77-1.1a8.9,8.9,0,0,0,4.66-6.07C108.71,19.53,110,13.1,110,12.28v-.46l-1.39-.26a19.68,19.68,0,0,0-3.84-.26,8.54,8.54,0,0,0-3.58.4A8.67,8.67,0,0,0,96,16l-.55,1.1L95.24,16c-.62-3.12-2.14-4.47-5.21-4.61A12.52,12.52,0,0,0,88,11.36Zm17.09,2.8.69.1-.09.73a22.48,22.48,0,0,1-2,6.85c-1.1,2.2-3,3.67-4,3.1-1.53-.85-1.58-4.49-.09-7.5,1.21-2.57,3-3.62,5.5-3.28Zm-14.89.32c.55.33.74.63.89,1.51a15,15,0,0,1-1.26,6.6,3.47,3.47,0,0,1-3.3,2.32,1.57,1.57,0,0,1-1.3-.37c-.64-.53-.78-1.23-.7-3.42a9.44,9.44,0,0,1,.46-3c.81-2.55,2.2-3.91,4-3.93A2.21,2.21,0,0,1,90.2,14.48Z"/></svg>