<svg id="Camada_1" data-name="Camada 1" xmlns="http://www.w3.org/2000/svg" viewBox="0 0 140 40"><defs><style>.cls-1{fill:#fff;}</style></defs><path class="cls-1" d="M28.12,13.25a2.59,2.59,0,0,1,1.95-3.12,2.41,2.41,0,0,1,.71-.07,2.44,2.44,0,0,0-.34,2A6.36,6.36,0,0,1,32,13.81v1.47c.79-.61,1.5-1.3,2.27-1.91.2-.19.46,0,.63.12.79.53,1.57,1.09,2.39,1.58.67-.64,1.36-1.26,2.08-1.87.89.73,1.86,1.38,2.75,2.15,0,2.5.07,5,0,7.53-1.44,1.47-2.94,2.87-4.42,4.3a34.86,34.86,0,0,1-3.18-2.49c-.88.82-1.61,1.81-2.55,2.57-.93-.91-1.9-1.8-2.76-2.8-.07-1.23,0-2.46,0-3.69a1.86,1.86,0,0,0-2,.18,2.45,2.45,0,0,1,1.94-2.89l.07,0V14.61a7.77,7.77,0,0,1-1.07-1.34m4.52,2.09c-.21.29-.7.46-.67.88v6.88c.56.53,1.11,1.09,1.67,1.63.19-.27.57-.47.55-.82v-7a15.32,15.32,0,0,0-1.55-1.57m4.66.63v7a18.09,18.09,0,0,0,1.7,1.8c.17-.29.56-.5.56-.87v-7c-.52-.5-1-1-1.52-1.52Z"/><path class="cls-1" d="M110.09,13.78c.93-.67,1.61-1.68,2.56-2.33.7.47,1.33,1,2,1.49a13.33,13.33,0,0,0,.09,2,4.57,4.57,0,0,0,.27-2.2l.59.41v1.08c.81-.7,1.64-1.37,2.45-2.09.84.65,1.66,1.33,2.49,2v8.92c-1.16.82-2.33,1.69-3.6,2.49-.42.32-.94-.14-1.34-.18V28.8l-.94-.68c-.74.62-1.48,1.25-2.25,1.82H112V24.22a7.37,7.37,0,0,0-2.71,1.09A5.84,5.84,0,0,1,112,22a27.76,27.76,0,0,0,0-3.16,1.42,1.42,0,0,0-2,.12,10.87,10.87,0,0,1,.18-1.8,2.25,2.25,0,0,1,1.87-1,9,9,0,0,0-.12-2.07c-.44-.55-1.16-.43-1.77-.41m5.53,1.77c-.06,2.22,0,4.44,0,6.65a11.05,11.05,0,0,1,2.09.74V15.49c-.26-.2-.5-.4-.77-.59-.47,0-.85.45-1.28.63m-.94,1.17v9.83a1,1,0,0,0,.31.9c.06-3.83.06-7.67,0-11.5a1.16,1.16,0,0,0-.34.78Z"/><path class="cls-1" d="M58.92,13.56a15.78,15.78,0,0,1,1.47-1.36c.79,1.51.23,3.26.43,4.9.74,0,1.16-.68,1.72-1.07.83.47,1.52,1.31,2.52,1.3v7.93A4.58,4.58,0,0,1,61,29c.78-.66,1.76-1.4,1.75-2.54v-7.4c-.47-.35-.94-.7-1.38-1l-.47.23v5.28l.91.87c-.65.63-1.16,1.54-1.91,2-.63-.62-1.25-1.22-1.91-1.8.18-.31.6-.54.58-.93V14.31C58.4,14,58.73,13.79,58.92,13.56Z"/><path class="cls-1" d="M87.5,14.62c.83-.77,1.66-1.54,2.48-2.33v3.88h1.26L90,17.77v5.75a1.45,1.45,0,0,0,1.4.63c-.68.7-1.28,1.47-2,2.17-.7-.46-1.28-1.3-2.23-1.16a2.45,2.45,0,0,0,.32-1.47,26,26,0,0,1,0-4c0-.31-.06-.61-.09-.93V17.54H86.33c.35-.47.76-.86,1.1-1.32A7.77,7.77,0,0,0,87.5,14.62Z"/><path class="cls-1" d="M11,14.19c.64-.5,1.16-1.17,1.78-1.66a2,2,0,0,1,.42,1.17v3.64c.76.16,1.17-.65,1.78-1,.84.47,1.54,1.4,2.59,1.29v7a4.66,4.66,0,0,1-4.23,4.66c.84-.59,1.81-1.43,1.74-2.56V19.37c-.46-.34-.93-.68-1.35-1l-.47.35v5.14a7.75,7.75,0,0,0,.9,1c-.61.68-1.24,1.33-1.83,2-.68-.64-1.31-1.32-2-1.95l.63-.7C11,20.84,10.93,17.53,11,14.19Z"/><path class="cls-1" d="M136.35,14.68c.83-.75,1.63-1.52,2.44-2.33v3.91a11.22,11.22,0,0,1,1.16,0,10.52,10.52,0,0,0-1.16,1.56c-.1,1.87,0,3.73,0,5.6l.5.58H140v.28l-1.75,2-1.49-1.17H136l.39-.46v-7H135.1c.43-.47.85-1,1.25-1.47Z"/><path class="cls-1" d="M0,17.69c.11-1.78.7-3.9,2.49-4.67,2-.67,3.81,1,5.83,1a7.86,7.86,0,0,0,2.27-1,4.18,4.18,0,0,1-2.33,3.27c-.09,2.39-.09,4.8-.09,7.23a5.3,5.3,0,0,0,2.33-2.33,5.83,5.83,0,0,1-1.87,4.35A5,5,0,0,1,4,26.71,5.46,5.46,0,0,1,.23,23,6.42,6.42,0,0,1,3.3,15.71l-.79-.28A3.49,3.49,0,0,0,0,17.69m3.78-1.76c-2,2-2.22,6,.23,7.76.1-1.82,0-3.63,0-5.45l-.52-.39c.68-.56,1.38-1.1,2.1-1.63a2.28,2.28,0,0,0-1.87-.29m2.91.59v4.93c-.79.76-1.56,1.51-2.34,2.33a4.3,4.3,0,0,0,3.41,0V16.52Z"/><path class="cls-1" d="M66.28,14.67c.52-.55,1-1.17,1.56-1.65.61.53,1.25,1,1.87,1.56-.63.49-1.17,1.05-1.82,1.58Z"/><path class="cls-1" d="M79.61,18c1.17-.78,2.34-1.66,3.5-2.42A32.59,32.59,0,0,1,86,17.28V23.7A6.33,6.33,0,0,0,86.66,26a7.45,7.45,0,0,1-3.59,3.65,3.1,3.1,0,0,0-3.81-.8l2.24-2.94a2.32,2.32,0,0,0-2.17-1.47l.23-.77V18M82,17.67v5c.35.36.69.72,1.06,1.07.2-.28.5-.56.46-.93a31.58,31.58,0,0,0-.07-4c-.43-.42-1-.73-1.43-1.11m-1.3,9.8A4.35,4.35,0,0,1,84,27.6c.51.46,1.28-.25,1-.84s-.89-.79-1.31-1.17a3.94,3.94,0,0,1-.29-1.4c-.91,1.17-1.75,2.27-2.72,3.31Z"/><path class="cls-1" d="M43,18.51c1.4-.87,2.65-2,4.1-2.72.86.54,1.47,1.61,2.54,1.71v5.84a5.46,5.46,0,0,0,.93.93l.52-.15a12.19,12.19,0,0,1-1.87,2.12,21.81,21.81,0,0,1-2.16-1.55l-1.79,1.74-2.61-1.74.35-.36V18.5m2.5-.59v5.31a3.51,3.51,0,0,0,1,.93l.47-.46V19c-.5-.34-1-.71-1.47-1.1Z"/><path class="cls-1" d="M50.73,18c1.16-.77,2.21-1.56,3.32-2.34a2.9,2.9,0,0,0,3,.4c-.71,1.17-1.37,2.33-2,3.5h2.42c.08,1.4,0,2.85,0,4.27-1.06.84-2.15,1.64-3.17,2.52a3,3,0,0,0-2.08-.7,3.43,3.43,0,0,0-1.82.93c.79-1.5,1.66-3,2.52-4.44H51.05l-.37-.27V18m2.54-.29v2.54a4.28,4.28,0,0,0,1-.1c.46-.72.82-1.48,1.28-2.21a3.53,3.53,0,0,1-2.33-.23m-1.1,6.67a4.52,4.52,0,0,1,3-.09V21.7H53.67c-.47.93-1,1.78-1.49,2.65Z"/><path class="cls-1" d="M91.79,18.3c1.36-.94,2.66-1.87,4-2.77.64.61,1.33,1.17,2,1.73h.54v6c-1.47,1-2.87,2.06-4.36,3a27.54,27.54,0,0,1-2.53-1.73l.34-.47V18.33m2.46-.64v5.36l1,1,.46-.57V18.86a17.2,17.2,0,0,1-1.53-1.17Z"/><path class="cls-1" d="M121.16,18.48c1.4-.85,2.64-1.94,4.07-2.68.87.54,1.48,1.58,2.54,1.73v5.83c-1.4,1.1-2.94,2-4.35,3.09-.86-.56-1.7-1.16-2.55-1.75a1.63,1.63,0,0,0,.32-1V18.48m2.42-.6v5.36c.35.3.67.61,1,.87a1.41,1.41,0,0,0,.53-.38V19.07l-1.57-1.17Z"/><path class="cls-1" d="M128.43,18c1-.84,2.14-1.54,3.21-2.34a3.78,3.78,0,0,0,3,.44c-.71,1.16-1.32,2.33-2,3.5a9.89,9.89,0,0,1,2.49.12v4.09c-1.07.88-2.19,1.7-3.27,2.59a2.65,2.65,0,0,0-1.95-.7c-.78-.07-1.35.52-1.92.93.79-1.52,1.69-3,2.53-4.47h-2.1a36.78,36.78,0,0,1,0-4.2m2.44-.29v2.47h.94c.4-.75.83-1.49,1.27-2.24a5.82,5.82,0,0,1-2.27-.25m.47,3.94c-.54.89-1,1.8-1.57,2.68a5.72,5.72,0,0,1,2.93-.16V21.53a7.63,7.63,0,0,1-1.35.06Z"/><path class="cls-1" d="M18.55,18.38c1.27-.84,2.5-1.75,3.77-2.59.8,1.05,1.58,2.13,2.33,3.18-1.24.94-2.45,1.87-3.67,2.76a6.55,6.55,0,0,0,0,1.4l2,1.4a20.5,20.5,0,0,1,1.75-1.17c-1,1.17-2.14,2.23-3.17,3.37-1.09-.69-2.16-1.4-3.27-2a3.29,3.29,0,0,0,.2-.93V18.38m2.47,0v2.73c.47-.34.91-.68,1.35-1C21.83,19.5,21.38,18.92,20.93,18.38Z"/><path class="cls-1" d="M102.56,17.75c.63-.61,1.17-1.26,1.83-1.87.8.47,1.4,1.53,2.4,1.45l-.23.54v5.44l.47.77h.86c-.66.68-1.24,1.4-1.89,2.13-.61-.55-1.24-1.08-1.84-1.65-.14-1.67,0-3.37-.06-5-.34-.4-.68-.77-1-1.17l-.49.21v4.67c-.07.5.38.82.63,1.17-.57.64-1.17,1.28-1.74,1.91-.76-.51-1.52-1-2.33-1.5.24-.37.49-.73.76-1.08v-5a1.28,1.28,0,0,0-1.31-.68,25.57,25.57,0,0,1,1.86-2C101.16,16.64,101.87,17.2,102.56,17.75Z"/><path class="cls-1" d="M65.58,18.1c.58-.61,1.16-1.17,1.76-1.83.7.55,1.4,1.07,2.13,1.58l-.29.44v5.54a6.37,6.37,0,0,0,.8.56A12,12,0,0,0,71.14,24v-4.9a1.16,1.16,0,0,0-1.28-.8c.63-.65,1.17-1.35,1.84-2,.68.61,1.4,1.17,2.12,1.72.57-.64,1.17-1.26,1.78-1.87.82.44,1.38,1.4,2.33,1.45a3,3,0,0,0-.23.93V23a3.07,3.07,0,0,0,.47,1.24h1c-.65.69-1.28,1.4-1.89,2.11-.65-.55-1.28-1.11-1.92-1.65v-5c-.47-.32-.72-1.17-1.33-1.05a15.28,15.28,0,0,0-.13,3.17c.09,1-.34,2.15.58,2.83-.66.69-1.28,1.4-1.91,2.12-.72-.56-1.45-1.17-2.16-1.73-.52.52-1.07,1-1.63,1.53-.75-.53-1.32-1.51-2.33-1.4l.46-.63V19.17A2.63,2.63,0,0,0,65.58,18.1Z"/></svg>