<svg xmlns="http://www.w3.org/2000/svg" viewBox="0 0 93.79 40"><defs><style>.a{fill:#fff;}</style></defs><title>the-guardian</title><path class="a" d="M21.09,21l1.58-.82V7.62h-1.2l-2.93,3.92h-.32l.16-4.36H31.17l.19,4.36H31l-2.9-3.92H26.87V20.13l1.58.85v.41H21.13V21Zm11.69-.57V6.55l-1.2-.48V5.79L36.06,5h.48v6.57l.09-.13A6,6,0,0,1,40.48,10c2,0,2.85,1.11,2.85,3.16v7.26l1,.54v.41H38.53V21l1.07-.57V13.18c0-1.14-.51-1.58-1.45-1.58a2.47,2.47,0,0,0-1.55.51v8.33l1,.57v.38H31.8V21Zm15.28-4.23c.13,2.27,1.14,4,3.6,4a5.71,5.71,0,0,0,2.78-.95v.48a5.53,5.53,0,0,1-4.29,2c-3.79,0-5.69-2.09-5.69-5.72s2.09-5.78,5.5-5.78c3.22,0,4.89,1.58,4.89,5.81v.13ZM48,15.64l3.32-.22c0-2.84-.48-4.74-1.46-4.74S48,12.89,48,15.61M0,27c0-6,4-8.21,8.46-8.21a13.7,13.7,0,0,1,4.68.72l.09,4.23h-.44l-2.62-4.1a3.82,3.82,0,0,0-1.64-.25C6.16,19.34,5,22.08,5,26.57c0,5.37,1,7.8,3.16,7.8a3.34,3.34,0,0,0,1.29-.22V28.4L8,27.58v-.51h7v.54l-1.42.79v5.68A15.58,15.58,0,0,1,8.27,35C3.22,35,0,32.6,0,27m14.87-2.84v-.32L19.58,23l.5,0v9.16c0,1.13.54,1.45,1.43,1.45A1.88,1.88,0,0,0,23,32.92V24.71l-1.26-.57v-.38L26.4,23l.44.06V33.55l1.27.5v.35L23.49,35l-.44,0V33.55h-.12A5.2,5.2,0,0,1,19.42,35a3,3,0,0,1-3.31-3.32V24.71Zm29.85-1.17.37,0v3.41h.13c.51-2.5,1.58-3.41,2.94-3.41a1.42,1.42,0,0,1,.57.09v3.48a4.32,4.32,0,0,0-.95-.1,5.82,5.82,0,0,0-2.53.51v6.69l1.08.6v.41h-6.1v-.41l1.11-.6V24.48l-1.27-.37v-.32Zm11.71.28V19.65l-1.26-.47v-.29L59.91,18l.41.07V33.52l1.32.47v.35L57,35l-.35,0V33.67h-.13A4.14,4.14,0,0,1,53.4,35C50.87,35,49,33,49,29.06c0-4.17,2.18-6.22,5.43-6.22a4.68,4.68,0,0,1,2,.38m0,9.85V23.92a1.7,1.7,0,0,0-1.26-.41c-1.26,0-2.05,1.95-2.05,5.33,0,3,.56,4.74,2.21,4.68a1.7,1.7,0,0,0,1.1-.41M66.79,23h.41V33.71l1.07.56v.38H62.21v-.41l1.07-.6v-9L62,24.14v-.35Zm.44-2.91a2,2,0,0,1-2,2h0a2,2,0,0,1,0-4h0a2.05,2.05,0,0,1,2.08,2M81.85,33.67V24.55l-1.26-.44v-.45l4.64-.88.48.06V24.2h.12a6.1,6.1,0,0,1,4-1.48c2,0,2.94.94,2.94,3.09v7.83l1.07.6v.41H87.73v-.41l1.1-.6V26.06c0-1.2-.5-1.67-1.48-1.67a2.46,2.46,0,0,0-1.58.54v8.71l1,.6v.41h-6v-.41ZM75.13,28V26.44c0-2.3-.48-3-1.9-3a4.17,4.17,0,0,0-.5,0L70.2,26.88h-.35V23.73A13.47,13.47,0,0,1,74.12,23c3.09,0,4.89.85,4.89,3.47v7.42l1.11.32v.28a4.76,4.76,0,0,1-2.28.51c-1.55,0-2.27-.51-2.62-1.33h-.09a3.42,3.42,0,0,1-3,1.36A2.89,2.89,0,0,1,69,31.87c0-1.89,1.2-3,3.63-3.41Zm0,5.12V28.49l-.76.07c-1.23.09-1.64.85-1.64,2.59s.6,2.33,1.45,2.33a1.14,1.14,0,0,0,.95-.41M34.64,27.93V26.44c0-2.3-.5-3.06-1.92-3.06a3.93,3.93,0,0,0-.48.06l-2.56,3.38h-.31V23.66a13.51,13.51,0,0,1,4.23-.72c3.09,0,4.89.85,4.89,3.47v7.42l1.11.32v.28a4.72,4.72,0,0,1-2.27.51c-1.55,0-2.28-.51-2.62-1.33h-.1a3.4,3.4,0,0,1-3,1.36,2.88,2.88,0,0,1-3.09-3.13c0-1.89,1.16-3,3.6-3.41Zm0,5.14V28.49l-.79.07c-1.2.09-1.64.85-1.64,2.59s.63,2.33,1.45,2.33a1.11,1.11,0,0,0,1-.41"/></svg>