<svg xmlns="http://www.w3.org/2000/svg" viewBox="0 0 83 40"><defs><style>.a{fill:#fff;}</style></defs><title>intercept</title><path class="a" d="M30.67,23.57c.74,0,1.34.84,1.34,1.9l-2.73.33c.08-1.45.53-2.23,1.39-2.23m-6.49-13c.74,0,1.34.84,1.34,1.9l-2.73.33c.08-1.45.53-2.23,1.39-2.23M55,23.57c.74,0,1.34.84,1.34,1.9l-2.73.33c.08-1.45.53-2.23,1.39-2.23m21.06,9.49H83v-1.3H76.06ZM63.22,24.3a2,2,0,0,1,.75-.11c1.51,0,2.53,1,2.53,3.21,0,1.84-1,3.09-2.47,3.09a2.77,2.77,0,0,1-.81-.14Zm-22.52.91h1.89V22.77a2.22,2.22,0,0,0-1-.21,3.7,3.7,0,0,0-2,1L39,24V22.57h-.39l-3.73.75v.57l1.25.38V30.2l-1.25.45v.51H40.5v-.51l-1.4-.45V24.63a5,5,0,0,1,1.15-.24Zm7-2.64a4.68,4.68,0,0,0-5,4.34h0v.43a3.7,3.7,0,0,0,3.37,4h.43a6.33,6.33,0,0,0,2.61-.57l1.39-.59-.2-.54a4.17,4.17,0,0,1-1.51.23c-1.87,0-3.29-1.12-3.29-3.64,0-1.75,1-2.7,1.93-2.7a.65.65,0,0,1,.29.06l.83,1.57h1.73V23.06a7.81,7.81,0,0,0-2.62-.5m25.68-1.34H72.7l-3.27,1.89v.63l1.1.11v6c0,1.07.84,1.57,2,1.57A9.75,9.75,0,0,0,74.82,31l1.24-.46L75.95,30a4.09,4.09,0,0,1-.74.06c-1.1,0-1.83-.41-1.83-1.76V23.93l2.58.14V22.79H73.39V21.22Zm-49.6,0H23.1l-3.27,1.89v.63l1.1.11v6c0,1.07.84,1.57,2,1.57A9.75,9.75,0,0,0,25.22,31l1.28-.46L26.39,30a4.09,4.09,0,0,1-.74.06c-1.1,0-1.82-.41-1.82-1.76V23.93l2.58.14V22.79H23.79Zm11,5.22V26.2a3.61,3.61,0,0,0-3.58-3.63h-.22a4.39,4.39,0,0,0-4.44,4.77,3.88,3.88,0,0,0,3.75,4h.38a6.55,6.55,0,0,0,2.63-.57l1.34-.59-.2-.54a4.24,4.24,0,0,1-1.54.23A3.37,3.37,0,0,1,29.3,26.7h0v-.3Zm24.33,0V26.2a3.61,3.61,0,0,0-3.57-3.63h-.22a4.39,4.39,0,0,0-4.48,4.78,3.88,3.88,0,0,0,3.75,4h.38a6.55,6.55,0,0,0,2.57-.57l1.34-.59-.2-.54a4.23,4.23,0,0,1-1.54.23,3.37,3.37,0,0,1-3.56-3.17h0v-.3Zm-30.82-13V13.2a3.61,3.61,0,0,0-3.59-3.63H24.5A4.39,4.39,0,0,0,20,14.35a3.88,3.88,0,0,0,3.75,4h.38a6.54,6.54,0,0,0,2.62-.57l1.34-.59-.2-.54a4.23,4.23,0,0,1-1.54.23,3.37,3.37,0,0,1-3.56-3.17h0v-.3ZM3.82,20.69V30l-1.47.56v.59H8.8v-.59L7.34,30V20.69l1.46-.56v-.56H2.35v.59Zm15,9.5V25.57c0-1.73-.65-3-2.4-3a4.58,4.58,0,0,0-2,.54l-1.28.56v-1.1h-.39L9,23.32v.57l1.25.38V30.2L9,30.65v.51h5.22v-.51l-1.1-.45V24.31a4.79,4.79,0,0,1,1.09-.12c.93,0,1.7.51,1.7,2v4l-1.1.45v.51H20v-.51Zm44.4-7.62h-.39l-3.73.75v.57l1.25.38v9.25L59.1,34v.51h5.67V34l-1.55-.4V31.39h.59c3.53,0,5.51-2.14,5.51-5.11a3.4,3.4,0,0,0-3.06-3.71h0a6.3,6.3,0,0,0-2.29.74l-.57.29h-.12ZM18.69,17.24V12.57c0-1.73-.65-3-2.4-3a4.57,4.57,0,0,0-2,.54L13,10.67V5.52h-.39L9.73,6.57H0V9.5H1.37l.56-1.8H3.82v9.35l-1.47.52v.59H8.64v-.59L7.33,17V7.7h2.84v9.53l-1.1.45v.51h5.07v-.51L13,17.23V11.37a4.76,4.76,0,0,1,1.09-.14c.94,0,1.7.51,1.7,2.05v4l-1.1.45v.51h5.22v-.51Z"/></svg>