<svg id="Camada_1" data-name="Camada 1" xmlns="http://www.w3.org/2000/svg" viewBox="0 0 100 40"><defs><style>.cls-1{fill:#fff;}</style></defs><path class="cls-1" d="M62.84,12,59.6,20.16l-3.12,7.9c0,.13.06.13,1.23.13H59l.68-1.68c.39-.93.83-2,1-2.41l.3-.72h5.87l1,2.39,1,2.38H70a4.61,4.61,0,0,0,1.24-.07c0-.08-6-15.19-6.33-16l-.18-.44-.88,0-.88,0Zm2.07,6.28c.51,1.48.93,2.72.93,2.77a31.72,31.72,0,0,1-3.91,0s.4-1.29.94-2.8,1-2.78,1-2.8C63.86,15.28,64.13,16,64.91,18.27Z"/><path class="cls-1" d="M89.13,15.61l0,4-4.66,0-4.68,0v.55l4.68,0,4.66,0,0,4v4h.56l0-8.33,0-8.33-.25,0-.27,0Z"/><path class="cls-1" d="M94.15,15.64C90.22,19.5,90,19.72,90,20s.25.46,1.86,1.87c1,.89,1.87,1.66,1.94,1.71s0,.17-.23.52a1.48,1.48,0,0,0-.31.43s.49.13,1,.24a6,6,0,0,1,1.15.3l1.91,1.68,1.78,1.56h.44c.39,0,.43,0,.34-.11s-1-.91-2.17-1.91l-2-1.79-.33-1a4.8,4.8,0,0,0-.4-1,2.33,2.33,0,0,0-.38.36l-.31.38-1.83-1.62c-1-.89-1.82-1.63-1.84-1.67S92.52,18,94.8,15.8,99,11.69,99,11.65s-.14-.08-.34-.08H98.3Z"/><path class="cls-1" d="M77.45,11.85a8.06,8.06,0,0,0-6,5.53A8.3,8.3,0,0,0,77.8,28.19,9.7,9.7,0,0,0,81.07,28a8,8,0,0,0,5.48-5.28c.13-.38.19-.66.14-.7a5.3,5.3,0,0,0-1.16,0l-1.09,0-.15.36a5.6,5.6,0,0,1-5.21,3.52,4.93,4.93,0,0,1-2.46-.58,6,6,0,0,1-3.27-4.92,6.31,6.31,0,0,1,.89-3.6A7.27,7.27,0,0,1,76,15a5.57,5.57,0,0,1,7.67,1.58,5.88,5.88,0,0,1,.48.9l.14.34h2.31l-.05-.28a8.9,8.9,0,0,0-1-2.22A7.77,7.77,0,0,0,81.15,12,11.82,11.82,0,0,0,77.45,11.85Z"/><path class="cls-1" d="M0,13.05v1.23H5V28.43H7.4V14.28l2.47,0,2.46,0V11.85l-6.16,0L0,11.81Z"/><path class="cls-1" d="M44.63,20l0,8.17,1.18,0,1.17,0V21h6.92v7.15H56.3V11.81H53.92v6.84H47V11.81H44.61Z"/><path class="cls-1" d="M13.38,20.1l0,8.21,1.22,0,1.2,0V21.2h6.92v7.15h2.39V11.89H22.74v6.92H15.82V11.89H13.36Z"/><path class="cls-1" d="M26.56,20.12v8.23h10.1V26H29V21.36h3.64c2,0,3.68,0,3.73-.07s.1-.35.08-1.21l0-1.15-3.71,0-3.72,0V14.28l3.8,0,3.79,0,0-1.18,0-1.17H26.56Z"/></svg>