<svg xmlns="http://www.w3.org/2000/svg" viewBox="0 0 60.01 40"><defs><style>.a{fill:#fff;}</style></defs><title>economist</title><path class="a" d="M36,13.66c-.53,0-.81.44-.9,1.41A16.9,16.9,0,0,0,37,14.95C36.92,14.08,36.59,13.66,36,13.66Z"/><path class="a" d="M0,5V35H60V5ZM45.48,19.41a.66.66,0,0,1,.66.67.66.66,0,1,1-.66-.67ZM9.54,26.79H8.78l-2.41,0H4.74l0-.26c.72,0,.91-.22.91-1V20.93c0-.74-.19-.93-.91-1l0-.26,1.52,0,2.41,0h.63l0,1.45-.39,0c-.07-.9-.23-1-1.65-1H7v2.67h.42l.45,0c.79,0,1-.17,1-.92h.33c0,.59,0,.91,0,1.2s0,.56,0,1H8.82c0-.71-.2-.85-1-.86H7.33l-.37,0v2.08c0,.83.06.87.89.87,1.11,0,1.43-.24,1.53-1.2l.39,0Zm3.63.11c-1.29,0-2.15-1-2.15-2.55a2.31,2.31,0,0,1,2.31-2.61,5.09,5.09,0,0,1,1.35.23l0,1.18-.44,0c-.16-.9-.34-1.1-.92-1.1h0c-.74,0-1.12.66-1.12,1.93,0,1.49.46,2.33,1.29,2.33a1.58,1.58,0,0,0,1.18-.59l.15.35A2.14,2.14,0,0,1,13.17,26.91Zm5.12,0h0a2.3,2.3,0,0,1-2.4-2.39v-.15a2.31,2.31,0,0,1,2.43-2.62,2.4,2.4,0,0,1,2.43,2.58A2.38,2.38,0,0,1,18.29,26.91Zm6.85-.11h0l0-.23c.52-.08.58-.17.58-1.06V24c0-1.24-.23-1.65-.87-1.65a1,1,0,0,0-.91.56,1.38,1.38,0,0,0-.15.48v2.1c0,.88.06,1,.58,1.06l0,.23c-.53,0-1.94,0-2.52,0l0-.23c.66,0,.76-.13.76-1.06V23.22c0-.92-.1-1-.76-1l0-.23a9.57,9.57,0,0,0,1.81-.23l.05.89a2,2,0,0,1,1.59-.86c1,0,1.49.63,1.49,1.72v2a1.86,1.86,0,0,0,0,.23c0,.63.16.82.77.82l0,.23C27.07,26.77,25.67,26.77,25.14,26.79Zm2.69-13.87c0-.85-.2-1-1.48-1h-.27v4.85c0,.67.17.85.83.86l0,.23H24.07l0-.23c.66,0,.83-.19.83-.86V12H24.6c-1.31,0-1.49.12-1.5,1l-.33,0,0-1.37,2.7,0,2.61,0,0,1.37Zm3.09,14h0a2.3,2.3,0,0,1-2.4-2.39v-.15A2.31,2.31,0,0,1,31,21.74a2.4,2.4,0,0,1,2.43,2.58A2.39,2.39,0,0,1,30.93,26.91Zm1.41-9-1.1,0,0-.21c.47-.07.51-.16.52-.95V15.4c0-1.12-.19-1.49-.78-1.49a.9.9,0,0,0-.81.51,1.72,1.72,0,0,0-.12.34.42.42,0,0,0,0,.1v1.89c0,.79.05.88.52.95l0,.21-1.11,0-1.16,0,0-.21c.59,0,.68-.12.69-.95V12.7c0-.84-.09-.95-.69-.95l0-.21a10,10,0,0,0,1.71-.2v2.75a1.76,1.76,0,0,1,1.39-.73c.87,0,1.35.55,1.35,1.56v1.83c0,.84.09.95.69.95l0,.21C33,17.89,32.59,17.87,32.34,17.87Zm3.87-4.54a1.6,1.6,0,0,1,1.49.79A2.14,2.14,0,0,1,38,15.39l-2.83,0c0,1.35.52,2.11,1.34,2.11a1.71,1.71,0,0,0,1.33-.73L38,17a2.2,2.2,0,0,1-1.79,1,2.05,2.05,0,0,1-2.07-2.25A2.17,2.17,0,0,1,36.21,13.34Zm4.53,13.46h0l0-.23c.52-.08.56-.17.58-1.06V24c0-1.22-.22-1.65-.83-1.65a1,1,0,0,0-.9.56,2,2,0,0,0-.13.37c0,.05,0,.09,0,.1v2.1c0,.88.06,1,.58,1.06l0,.23c-.53,0-1.82,0-2.33,0l0-.23c.52-.08.56-.17.58-1.06V24c0-1.22-.22-1.65-.83-1.65a1,1,0,0,0-.9.56,1.44,1.44,0,0,0-.15.48v2.1c0,.88.06,1,.58,1.06l0,.23c-.52,0-1.93,0-2.51,0l0-.23c.66,0,.76-.13.76-1.06V23.2c0-.92-.1-1-.76-1l0-.23a9.57,9.57,0,0,0,1.81-.23l.05.89A2,2,0,0,1,38,21.71a1.35,1.35,0,0,1,1.36.93A2.05,2.05,0,0,1,41,21.71c.93,0,1.46.63,1.46,1.72v2c0,.08,0,.16,0,.23,0,.63.17.82.77.82l0,.23c-.6,0-2,0-2.51,0Zm4.79,0h0l-1.34,0,0-.23c.66,0,.76-.13.76-1V23.24c0-.92-.1-1-.76-1l0-.23a13.14,13.14,0,0,0,1.91-.23v3.8c0,.93.09,1,.76,1l0,.23C46.27,26.77,45.83,26.75,45.52,26.75Zm3.89.16a4.33,4.33,0,0,1-1.34-.28l0-1,.5,0c.23.76.37.91.9.91s.75-.23.75-.59-.2-.59-.83-1l-.66-.45a1.51,1.51,0,0,1-.53-.7,1.49,1.49,0,0,1,1.44-2,5.06,5.06,0,0,1,1.34.22l0,1-.5,0c-.11-.68-.31-.9-.78-.9s-.76.25-.76.63.16.55.67.88a9.74,9.74,0,0,1,1.07.8,1.34,1.34,0,0,1,.43,1A1.59,1.59,0,0,1,49.42,26.92Zm5.84-.33a2.63,2.63,0,0,1-1.27.29,1.16,1.16,0,0,1-1-.6A2.66,2.66,0,0,1,52.76,25V22.47h-.62V22c.78-.06,1.08-.39,1.31-1.42h.44v1.33h1.25l-.13.53h-1.1v2.42c0,1.22.14,1.5.81,1.5a1.68,1.68,0,0,0,.53-.09Z"/><path class="a" d="M18.18,22.12c-.73,0-1.09.63-1.09,1.84a3.27,3.27,0,0,0,0,.44c.1,1.41.56,2.17,1.32,2.17s1.13-.74,1.13-2C19.56,23.14,19,22.12,18.18,22.12Z"/><path class="a" d="M30.81,22.12c-.72,0-1.09.63-1.09,1.84a3.27,3.27,0,0,0,0,.44c.1,1.41.56,2.17,1.32,2.17s1.13-.74,1.13-2C32.19,23.14,31.61,22.12,30.81,22.12Z"/></svg>