<svg id="Camada_1" data-name="Camada 1" xmlns="http://www.w3.org/2000/svg" viewBox="0 0 110 40"><defs><style>.cls-1{fill:#fff;}</style></defs><path class="cls-1" d="M82.57,14l-.11,3.24c-3.78-.26-4.86.72-4.86,3.89v.41H74.36V14.16H77.6v2.09C78.57,14.55,79.89,13.77,82.57,14ZM5.4,27.14H8.65V14.61H5.4V27.14ZM21.46,14a4.94,4.94,0,0,0-4.38,2.13V9.21H0v3H14.05V21.5h3.09c0-2.66,1.54-4.53,3.42-4.53,1.62,0,2.35.79,2.35,3.67v6.5h3.24V19.47c0-3.67-1.88-5.48-4.69-5.48ZM34.22,24.65a3.26,3.26,0,0,1-3.46-3.15H27.71a6.07,6.07,0,0,0,6.49,5.9c3,0,4.73-1.36,5.62-3.42l-2.75-1.21A2.55,2.55,0,0,1,34.22,24.65Zm-.13-10.6a6.75,6.75,0,0,0-3.33.78L32.31,17a3.86,3.86,0,0,1,1.89-.43,2.73,2.73,0,0,1,2.87,2.74H33.94V21.5h6.18a7.57,7.57,0,0,0,.06-.95c0-4.71-3.09-6.5-6.09-6.5Zm32.1,10.6a3.26,3.26,0,0,1-3.46-3.15h-3a6.06,6.06,0,0,0,6.48,5.9c3,0,4.74-1.36,5.62-3.42L69,22.77A2.58,2.58,0,0,1,66.19,24.65Zm-.11-10.6a6.78,6.78,0,0,0-3.33.78L64.31,17a3.8,3.8,0,0,1,1.88-.43,2.73,2.73,0,0,1,2.87,2.74H65.93V21.5h6.18a7.57,7.57,0,0,0,.06-.95c0-4.71-3.09-6.5-6.09-6.5Zm38,10.6a3.26,3.26,0,0,1-3.46-3.15H97.57a6.07,6.07,0,0,0,6.49,5.9c3,0,4.73-1.36,5.62-3.42l-2.75-1.21a2.58,2.58,0,0,1-2.85,1.88Zm-.18-10.6a6.74,6.74,0,0,0-3.32.78l1.55,2.2A3.82,3.82,0,0,1,104,16.6a2.73,2.73,0,0,1,2.88,2.74h-3.14V21.5h6.18a6.08,6.08,0,0,0,.07-.95c0-4.71-3.09-6.5-6.1-6.5Zm-62-6.37L47.68,21.5h3.54l-4.44-11h5.74V7.7l-10.67,0Zm17.29,0L52.46,24.61l-1,2.53h3.39l8-19.44ZM89,26.84a5.13,5.13,0,0,0,3.33-1.06L91,23.73a3.47,3.47,0,0,1-1.32.23,3,3,0,0,1-3.13-2.46H83.35C83.78,24.5,85.94,26.84,89,26.84ZM93,16a4.91,4.91,0,0,0-4.31-2,5.53,5.53,0,0,0-4.9,2.88l2.7,1.72a3.06,3.06,0,0,1,3-1.72A3.49,3.49,0,0,1,93,20.42a3.53,3.53,0,0,1-.16,1.08h3.4V14.18H93V16Zm-3.14,13.8c-2.1,0-2.87-1-3-2.2H83.69c.07,2.27,1.58,4.75,6.19,4.75,3.11,0,5.14-1.55,6-3.89l-2.91-1a3,3,0,0,1-3.14,2.35Z"/></svg>