<svg xmlns="http://www.w3.org/2000/svg" viewBox="0 0 100 40"><defs><style>.a{fill:#fff;}</style></defs><title>the-verge</title><path class="a" d="M0,11.6v4.5H3.1v12H8.3V11.6m8.9,6.3H14.7V16.2H16V11.7H9.5V28.2h5.2V22h2.5v6.2h5.2V11.6H17.2m6.4,16.5h9.7V23.6H28.6V21.7h3V17.9h-3V16.2h4.7V11.7H23.6m51,5.4c0-3.6-2.6-5.6-6.4-5.6H62.4V28h5.2V23.8l3,4.2h5.9l-4.3-6.3c1.6-.8,2.4-2.3,2.4-4.6m-7,1.9V15.9a1.89,1.89,0,0,1,1.9,1c0,.1,0,.2.1.2h0v.3c0,1.2-1.1,1.6-2,1.6M43.7,21.6h0l-.4-1.4-1.1-4.1h2.1l1.3-4.6H35L41,28h5.4l.6-1.8,4.4-12V28h9.7V23.5H56.4V21.6h3V17.9h-3V16.2h4.7V11.7H46.7ZM100,16.1V11.7H90.3V28.2H100V23.7H95.3V21.8h3V18h-3V16.3"/><path class="a" d="M89.3,24.6V17.8H81.9v3.8h2.8V23a2,2,0,0,1-1.1.3,3.4,3.4,0,0,1-.2-6.8h4.1V11.6H86.2c-2.3,0-4.7-.2-6.8.9a7.81,7.81,0,0,0-3.7,4.1,9.54,9.54,0,0,0-.6,3.3,8.56,8.56,0,0,0,8.4,8.6,9.77,9.77,0,0,0,5.9-2l-.1-1.9"/></svg>