<svg id="Camada_1" data-name="Camada 1" xmlns="http://www.w3.org/2000/svg" viewBox="0 0 150 40"><defs><style>.cls-1{fill:#fff;}</style></defs><path class="cls-1" d="M11.25,12.15c0-1.61-1.51-2.08-2.78-2v.22c.77,0,1.34.28,1.34.78s-.26.79-1,.79a11.42,11.42,0,0,1-2.7-.7,9.19,9.19,0,0,0-2.81-.69A2.71,2.71,0,0,0,.5,13.12h0a1.85,1.85,0,0,0,1.25,1.78l.13-.2a.86.86,0,0,1-.48-.8A1,1,0,0,1,2.48,13h0a12.81,12.81,0,0,1,3.06.63,24.45,24.45,0,0,0,3,.77V17L7.32,18v.08l1.25,1.07V22.6a4.26,4.26,0,0,1-2,.48,4.07,4.07,0,0,1-3.22-1.26l3.35-1.59V14.7L2.63,16.51A4.82,4.82,0,0,1,4.7,14.17V14A6.17,6.17,0,0,0,0,19.63a5.73,5.73,0,0,0,5.71,5.72h0a5.23,5.23,0,0,0,5.36-5.1h0V20H10.9a5.65,5.65,0,0,1-2.15,2.63V19.24l1.31-1.07v-.12L8.75,17V14.47a2.36,2.36,0,0,0,2.5-2.14v-.18ZM4.17,21.26l-1,.49a5,5,0,0,1-.91-3.22,5.74,5.74,0,0,1,.2-1.75L4.21,16Zm8.74,1.79-1.07.81L12,24l.53-.38,1.8,1.72,2.5-1.64-.12-.18-.64.4-.85-.85V17.51l.65-.51,1.4,1.13v5c0,3-.69,3.59-2.08,4.09v.21c2.3.09,4.41-.69,4.41-4.63V17.44l.73-.58-.13-.16-.64.51-2-1.72-2.34,1.74V10.48H15l-2.87,2v.19a1.16,1.16,0,0,1,.73,1.21Zm15-.92-2,1.55-2.14-1.63v-1l3.82-2.59v-.13l-1.92-2.9-4.22,2.21V23l-.83.63.14.17.76-.59,2.76,2,3.67-2.9Zm-4.07-1.36v-4l.13-.09,1.79,2.81Zm19.66-9.35a2.44,2.44,0,0,0-.15-.76h-.2c-.26.69-.56,1.07-1.36,1.07a2.11,2.11,0,0,1-1.55-.85l-2.34,2.68.2.19.66-.77a2.73,2.73,0,0,0,2,.79v6.78l-4.85-8.17a2.59,2.59,0,0,0-2.14-1.51,2.52,2.52,0,0,0-2.33,2.68h0a2.63,2.63,0,0,0,.06.39h.22a1,1,0,0,1,.87-1.07h0a1.42,1.42,0,0,1,1.07.81v2.67c-1.51,0-2.5.69-2.5,1.87A1.8,1.8,0,0,0,32.5,20v-.18a.71.71,0,0,1-.27-.57c0-.43.33-.73.92-.73h.43V22a2.69,2.69,0,0,0-3,2.3v.29a2.32,2.32,0,0,0,2.37,2.25h.38v-.2c-.88-.09-1.34-.5-1.34-1.07a1.07,1.07,0,0,1,1.07-1.07h.13a2.32,2.32,0,0,1,1.65.88l2.41-2.63L37,22.48l-.67.73A4.05,4.05,0,0,0,33.9,22V13.76l6.58,11.47H41V13.85a2.49,2.49,0,0,0,2.5-2.49h0Zm5.84,10.71-2,1.52L45.21,22v-.91L49,18.49v-.13l-1.89-2.93L42.86,17.7V23l-.84.65.14.16.8-.6,2.77,2,3.68-2.91ZM45.21,20.8v-4l.14-.09,1.79,2.79Zm17.38-4.5-.6.43-1.52-1.35L58.67,17l.74.7v6.15l-2-1.25v-5l.63-.44-2-1.73-1.78,1.63.74.7v5.85l-.26.15-1.72-1.25v-5a1.94,1.94,0,0,0-1.26-1.91c-.71-.4-.87-.69-.87-1.25s.48-.74.7-.87a.67.67,0,0,1,0-.2,2.47,2.47,0,0,0-2.35,2.26,1.76,1.76,0,0,0,.76,1.59,1.92,1.92,0,0,1,.77,1.45v4.7l-.88.7.14.18.8-.62L53,25.24l2-1.38,2.27,1.37,4.29-2.5V17.27l1.07-.77-.17-.25Zm15.15-4.5-.81.69L75,10.91l-2.66,2V11.07h-.28V24.28c-.27,0-1-.2-1.51-.28V12.94A1.94,1.94,0,0,0,68.61,11h-.16A2.39,2.39,0,0,0,66,13.25h.24c.08-.49.35-.91.82-.91s.93.3.93,1.39V17c-1.52,0-2.36.9-2.36,1.93a1.53,1.53,0,0,0,1.34,1.66v-.21a.59.59,0,0,1-.43-.55c0-.48.44-.67,1.07-.67h.28v5a2.36,2.36,0,0,0-1.68,2.31,2.49,2.49,0,0,0,2.51,2.42H69a13.18,13.18,0,0,0,3.12-.43,16.72,16.72,0,0,1,2.34-.35c.63,0,.9.28.9.73a.78.78,0,0,1-.57.88v.2a2.28,2.28,0,0,0,2.15-2.31c0-1.26-1.19-2-2.5-2a19.26,19.26,0,0,0-3,.45,13.66,13.66,0,0,1-2.63.37,1.06,1.06,0,0,1-1.23-1c0-.75.56-1.25,2-1.25a11.18,11.18,0,0,1,2.57.39,13.18,13.18,0,0,0,2.71.49c1.19,0,2.26-.42,2.26-2.14v-10L78,12Zm-3.34,5a1.32,1.32,0,0,1-1,.47,1.43,1.43,0,0,1-1-.47V13.15l.83-.57,1.08,1.07Zm0,2.42a1.39,1.39,0,0,0-1-.41,1.57,1.57,0,0,0-1,.41V17.13a1.65,1.65,0,0,0,1,.43,1.41,1.41,0,0,0,1-.43Zm0,3.75a1.25,1.25,0,0,1-1.25,1.25H72.5V19.55a1.26,1.26,0,0,1,1.76-.19l.19.19Zm11.13-5.79-2.7-1.76-3.94,2.27V23l-.81.66.12.17.64-.53,2.59,1.85,4-2.5Zm-4.28,5.23V16.62l2.06,1.51V24Zm12.13-6.81h-.17a1.19,1.19,0,0,1-.71.34,1.24,1.24,0,0,1-.91-.44h-.15L90,17l-1.43-1.51-2.32,1.66.13.2L87,16.9l.85,1v5.24l-1.07.81.13.15.53-.36,1.93,1.66,2.5-1.69-.21-.23-.71.43-1-.78V17.22a2.1,2.1,0,0,0,1.51.83c1.07,0,1.69-1.24,1.8-2.49Zm9.8,7.81L100.4,25.2l-3.75-5.68,2.65-4.07h.19a2.15,2.15,0,0,0,1.36.64,1.39,1.39,0,0,0,1.18-.64h.15a2.49,2.49,0,0,1-2,2.58,2.93,2.93,0,0,1-1.72-.66l-.26.36,4,6,.81-.49Zm-9-.34-1.07.8.13.15.53-.35,1.81,1.66,2.5-1.64-.14-.2-.62.42-.8-.87V10.45h-.23l-3,2v.19a1.16,1.16,0,0,1,.84,1.24Zm22.5-10.85c0-1.59-1.51-2.08-2.78-2v.27c.76,0,1.34.26,1.34.77s-.26.8-1,.8a11.46,11.46,0,0,1-2.7-.66,9.49,9.49,0,0,0-2.81-.69,2.69,2.69,0,0,0-2.79,2.59h0A1.83,1.83,0,0,0,107.14,15l.12-.2a.81.81,0,0,1-.47-.78,1,1,0,0,1,1.07-.92h0a13,13,0,0,1,3,.7,25.89,25.89,0,0,0,3,.69v2.41L112.66,18v.08l1.24,1.08v3.47a4.53,4.53,0,0,1-5.2-.81L112,20.23V14.7l-4.15,1.81A4.93,4.93,0,0,1,110,14.17V14a6.16,6.16,0,0,0-4.8,5.65A5.73,5.73,0,0,0,111,25.35h0a5.23,5.23,0,0,0,5.36-5V20h-.15a5.66,5.66,0,0,1-2.14,2.5V19.23l1.31-1.07V18L114.08,17V14.45a2.34,2.34,0,0,0,2.49-2.14v-.16Zm-7.14,9.08-1,.49a4.93,4.93,0,0,1-.93-3,5.32,5.32,0,0,1,.23-1.73l1.72-.78v5.11Zm9.88-9.78h-.13l-1.64,1.37V13L119,14.51h.14l1.63-1.36V13l-1.37-1.51Zm2.5,12.11-.63.42-.8-1v-5.6l.78-.58-.15-.19-.6.47-1.41-1.66-2.29,1.64.12.2.58-.39.72.9V23l-1.07.79.12.15.55-.4,1.78,1.64L122,23.62Zm13.64-.08-.58.39-.87-.79V17.41l.83-.63-.13-.18-.71.54-1.93-1.69-2.41,1.7-1.84-1.7-2.38,1.66L124,15.42l-2.34,1.64.13.21.57-.4.8.87V23l-.63.65,1.85,1.51,1.8-1.64-.73-.7V17.41l.7-.48,1.25,1.17V23l-.63.64,1.88,1.51,1.78-1.64-.74-.7V17.36l.62-.41,1.34,1.15V23l-.55.56L133,25.35l2.6-1.78Zm7.08-1.26-2,1.5-2.08-1.64V21.06l3.75-2.57v-.13l-1.91-2.95-4.1,2.3v5.5l2.81,2,3.69-2.9ZM138.54,21V16.78l.09-.1,1.79,2.81ZM150,20l-1.51-1.24a4.19,4.19,0,0,0,1.51-3v-.52h-.2a1.08,1.08,0,0,1-1.08.8,1.94,1.94,0,0,1-1.51-.78l-3.64,2v3l1.36,1.07c-1.38,1.25-1.64,2.07-1.64,2.7a1.64,1.64,0,0,0,1.07,1.66l.09-.19a.68.68,0,0,1-.33-.62c0-.28.33-.66.95-.66a2,2,0,0,1,1.51.83L150,23Zm-.88-2.49A9.82,9.82,0,0,1,146.63,20l-.9-.69V16.43a2.4,2.4,0,0,0,3.16,1.27l.05,0,.24-.12ZM147.73,24a2.66,2.66,0,0,0-2.33-1.49,2.87,2.87,0,0,0-1.51.4,9.1,9.1,0,0,1,2.9-2.62l1.07.77Z"/></svg>