<svg id="Camada_1" data-name="Camada 1" xmlns="http://www.w3.org/2000/svg" viewBox="0 0 90 40"><defs><style>.cls-1{fill:#fff;}</style></defs><path class="cls-1" d="M59.22,10.77a8.64,8.64,0,0,0-5.71,4.77,8.82,8.82,0,0,0,.11,6.64,9.52,9.52,0,0,0,1.28,2c.46.51.51.66.22.74-.68.23-2,1.8-1.9,2.16s.61.33,2.52.24c2.35-.11,2.39-.11,4.76.9,2.7,1.22,4.3,1.5,5.93,1a4.44,4.44,0,0,0,2.81-2.16c.15-.51,0-.54-2.83-.51s-3.09-.05-5-.9a12.26,12.26,0,0,1-1.88-.95,8.41,8.41,0,0,1,1.9.54c2.86,1,3.93.81,5.58-.94a8.22,8.22,0,0,0-.36-11.62,8.33,8.33,0,0,0-3.53-2A7,7,0,0,0,59.22,10.77ZM57.16,13A12,12,0,0,0,55,15.2c-.38.48-.38.45,0-.26a6.26,6.26,0,0,1,2.32-2.36C58.12,12.09,58.1,12.24,57.16,13Zm-.08,1.66c-1.4,1.43-1.88,1.65-1,.51a7.92,7.92,0,0,1,2.27-1.8A10.88,10.88,0,0,1,57.08,14.64Zm1,.48a7.5,7.5,0,0,0-1.19,1.2c-.13.23-.25.31-.25.13a5.25,5.25,0,0,1,2.11-2.12c.15,0-.12.31-.66.77Zm1.34.28c-.06.06-.49.41-1,.84-.71.64-.81.67-.55.21a2.06,2.06,0,0,1,1.39-1.1c.11,0,.18,0,.11,0Zm3.27,1.13a2.79,2.79,0,0,1,1.07,3,2.85,2.85,0,1,1-1.07-3Zm1.8,4.16A3.19,3.19,0,0,1,63,22.2c-.13,0,.13-.38.56-.9,1-1,1-1,1-.63Zm.61.95a4.24,4.24,0,0,1-1.68,1.6,11.77,11.77,0,0,1,2.1-2.3s-.13.29-.38.67Zm.74,1a5.06,5.06,0,0,1-1.37,1.2c-.77.46-.74.36.41-.76,1.4-1.41,1.84-1.61,1-.46Zm1.42-.15A6.87,6.87,0,0,1,65,24.92c-.43.21-.13-.22.9-1.26,1.81-1.89,1.84-1.89,1.42-1.16Z"/><path class="cls-1" d="M60.85,18.66c-.25.38.07.64.4.31.18-.18.18-.34,0-.44A.32.32,0,0,0,60.85,18.66Z"/><path class="cls-1" d="M87.08,10.67a2.61,2.61,0,0,0-1,.56c-.41.36-.46.65-.31,2.44.31,3.74,1.2,7,1.94,7s1.73-3.13,2-6.9c.12-2.24.11-2.49-.34-2.7A4,4,0,0,0,87.08,10.67Z"/><path class="cls-1" d="M.51,11A17.38,17.38,0,0,0,0,14.84c.33.56,1.38.2,2.06-.73,1-1.28,1.35-1.56,2.19-1.59h.69v5.4c0,5-.05,5.5-.51,6.3-.92,1.5-.83,1.54,2.52,1.54,3.6,0,4-.15,3.16-1.24-.53-.74-.56-1-.56-6.39V12.52h.58c.71,0,1.15.34,2.09,1.6.56.77.9,1,1.38.9s.66-.15.58-1.39a15.48,15.48,0,0,0-.28-2l-.18-.72L7.2,10.79C2.06,10.74.61,10.79.51,11Z"/><path class="cls-1" d="M16.09,10.92c-.28.25-.21.46.34,1.1a2,2,0,0,1,.5,1,94.7,94.7,0,0,1-2.16,11.33c-.74,1.12-.39,1.42,1.66,1.42s2.36-.28,1.62-1.39c-.41-.64-.41-.85,0-3.9.27-1.8.54-3.47.64-3.72.16-.43.21-.4.43.25.85,2.33,3.75,8.48,4.08,8.61s1.35-.25,1.35-.61c0-.17,1.6-4.43,2.93-7.76.15-.39.36.25.79,2.28.71,3.37.74,4.28.2,5.1-.23.33-.33.74-.23.9a9.41,9.41,0,0,0,3.08.25c3.21,0,3.6-.18,2.8-1.39a43.91,43.91,0,0,1-1.55-6.07l-1.12-5.4.51-.72c.9-1.2.53-1.45-1.91-1.45-1.56,0-2.27.11-2.52.39a18.55,18.55,0,0,0-1.48,3.6c-.58,1.8-1.25,3.64-1.45,4.13l-.35.9-1.43-4c-2.09-5.56-1.66-5.07-4.33-5.07A8.78,8.78,0,0,0,16.09,10.92Z"/><path class="cls-1" d="M35.64,11A1.48,1.48,0,0,0,36,12c.51.68.53,1.09.53,6.23s0,5.56-.56,6.3c-.9,1.25-.55,1.35,4.82,1.23s6.51-.42,8.66-2a7.11,7.11,0,0,0,2.28-7.41c-.78-2.7-3-4.5-6.51-5.22C43.2,10.7,35.9,10.61,35.64,11Zm8,1.64c1.94,1,3.38,4.14,3.44,7.4,0,2.26-.57,3.41-2,3.9a3.48,3.48,0,0,1-3.35-.51c-.42-.46-.46-1.07-.54-5.4s0-5,.33-5.32c.51-.58,1.2-.58,2.14-.12Z"/><path class="cls-1" d="M72.68,11.23a1.27,1.27,0,0,0,.39.79,1.36,1.36,0,0,1,.38.9c0,.9-4,10.47-4.79,11.36-1,1.19-.63,1.47,1.8,1.47a5,5,0,0,0,2.34-.28c.08-.15-.15-.58-.53-1-.58-.61-.67-.82-.46-1.45l.25-.72h5.56l.22.7a1,1,0,0,1-.3,1.29,2.1,2.1,0,0,0-.56,1c0,.39.41.43,3.69.43,3.13,0,3.74,0,3.87-.4s-.13-.67-.51-1.07a57.1,57.1,0,0,1-3.34-6.8A58.57,58.57,0,0,0,77.6,11a7.05,7.05,0,0,0-2.7-.31C72.9,10.74,72.68,10.79,72.68,11.23Zm3.6,6.57a16.66,16.66,0,0,1,.84,2.56,13.09,13.09,0,0,1-2,0l-1.92-.07.9-2.47a15.34,15.34,0,0,1,1.08-2.5,15,15,0,0,1,1.13,2.48Z"/><path class="cls-1" d="M86.31,22c-.74.4-.9.71-.9,1.8,0,1.39.68,2,2.29,2s2.3-.6,2.3-2.05-.68-2-2.09-2A4.18,4.18,0,0,0,86.31,22Z"/></svg>