<svg id="Camada_1" data-name="Camada 1" xmlns="http://www.w3.org/2000/svg" viewBox="0 0 100 40"><defs><style>.cls-1{fill:#fff;}</style></defs><path class="cls-1" d="M65.8,10.7A9.59,9.59,0,0,0,59.46,16a9.82,9.82,0,0,0,.12,7.38A10.82,10.82,0,0,0,61,25.64c.51.56.57.73.25.82-.76.25-2.26,2-2.12,2.4s.68.37,2.8.26c2.61-.12,2.66-.12,5.29,1,3,1.36,4.78,1.67,6.59,1.16a4.91,4.91,0,0,0,3.12-2.4c.17-.57,0-.6-3.14-.57s-3.43-.05-5.55-1a14.1,14.1,0,0,1-2.09-1.05,9.26,9.26,0,0,1,2.12.6c3.17,1.1,4.36.9,6.2-1.05a9.13,9.13,0,0,0-4.33-15.08A7.77,7.77,0,0,0,65.8,10.7Zm-2.29,2.46a13.45,13.45,0,0,0-2.41,2.46c-.42.54-.42.51,0-.28a7,7,0,0,1,2.58-2.63C64.58,12.17,64.55,12.34,63.51,13.16ZM63.42,15c-1.55,1.59-2.09,1.84-1.13.57a8.74,8.74,0,0,1,2.52-2A11.45,11.45,0,0,1,63.42,15Zm1.13.54a8.14,8.14,0,0,0-1.33,1.33c-.14.25-.28.34-.28.14a5.9,5.9,0,0,1,2.35-2.35C65.46,14.63,65.15,15,64.55,15.51Zm1.48.31c-.06.06-.54.45-1.08.93-.79.71-.9.74-.62.23a2.31,2.31,0,0,1,1.55-1.22C66,15.76,66.08,15.79,66,15.82Zm3.64,1.25a3.12,3.12,0,0,1,1.19,3.33,3.15,3.15,0,1,1-1.19-3.33Zm2,4.63A3.58,3.58,0,0,1,70,23.4c-.14,0,.14-.42.62-1C71.74,21.34,71.71,21.34,71.71,21.7Zm.68,1.05a4.79,4.79,0,0,1-1.87,1.78A13.19,13.19,0,0,1,72.81,22C72.87,22,72.67,22.33,72.39,22.75Zm.82,1.16a5.71,5.71,0,0,1-1.53,1.33c-.85.51-.82.4.46-.85C73.66,22.86,74.14,22.64,73.21,23.91Zm1.58-.17a7.64,7.64,0,0,1-2.54,2.66c-.48.23-.14-.25,1-1.41C75.22,22.92,75.25,22.92,74.79,23.74Z"/><path class="cls-1" d="M67.61,19.47c-.28.42.08.71.45.34.2-.2.2-.37,0-.48A.35.35,0,0,0,67.61,19.47Z"/><path class="cls-1" d="M96.75,10.59a3.11,3.11,0,0,0-1.11.62c-.45.4-.51.73-.34,2.72.34,4.15,1.33,7.77,2.15,7.77s1.93-3.48,2.18-7.66c.14-2.49.12-2.77-.37-3A4.53,4.53,0,0,0,96.75,10.59Z"/><path class="cls-1" d="M.57,11A19.39,19.39,0,0,0,0,15.23c.37.62,1.53.22,2.29-.82,1.07-1.42,1.5-1.73,2.43-1.76h.77v6c0,5.52-.06,6.11-.57,7C3.9,27.31,4,27.36,7.72,27.36c4,0,4.42-.17,3.51-1.38-.59-.82-.62-1.08-.62-7.1V12.65h.65c.79,0,1.27.37,2.32,1.78.62.85,1,1.05,1.53,1s.73-.17.65-1.55a17.92,17.92,0,0,0-.31-2.26l-.2-.8L8,10.73C2.29,10.67.68,10.73.57,11Z"/><path class="cls-1" d="M17.88,10.87c-.31.28-.23.51.37,1.22a2.2,2.2,0,0,1,.56,1.1,103.22,103.22,0,0,1-2.4,12.59c-.82,1.24-.43,1.58,1.84,1.58s2.63-.31,1.81-1.55c-.46-.71-.46-.94,0-4.33.29-2,.6-3.85.71-4.13.17-.48.23-.45.48.28.94,2.58,4.16,9.42,4.53,9.56s1.5-.28,1.5-.68c0-.19,1.78-4.92,3.25-8.62.17-.43.4.28.88,2.54.79,3.74.82,4.75.22,5.66-.25.37-.36.82-.25,1a10.42,10.42,0,0,0,3.42.28c3.57,0,4-.2,3.11-1.55a48,48,0,0,1-1.72-6.74l-1.25-6,.57-.8c1-1.33.59-1.61-2.12-1.61-1.73,0-2.52.12-2.8.43a20.45,20.45,0,0,0-1.64,4c-.65,2-1.39,4.05-1.62,4.59l-.39,1L25.35,16.3c-2.32-6.17-1.84-5.63-4.81-5.63A10.12,10.12,0,0,0,17.88,10.87Z"/><path class="cls-1" d="M39.6,11a1.66,1.66,0,0,0,.4,1.11c.57.76.59,1.21.59,6.93s0,6.17-.62,7c-1,1.38-.62,1.5,5.35,1.36s7.24-.46,9.62-2.21a7.9,7.9,0,0,0,2.54-8.23c-.87-3-3.36-5-7.24-5.8C48,10.62,39.89,10.53,39.6,11Zm8.89,1.82c2.15,1.13,3.76,4.61,3.82,8.23,0,2.51-.63,3.79-2.24,4.33a3.86,3.86,0,0,1-3.73-.57c-.46-.51-.51-1.19-.6-6s0-5.51.37-5.91C46.68,12.26,47.44,12.26,48.49,12.77Z"/><path class="cls-1" d="M80.76,11.21a1.37,1.37,0,0,0,.43.88,1.53,1.53,0,0,1,.42,1c0,1-4.5,11.63-5.32,12.62-1.1,1.33-.7,1.64,2,1.64a5.68,5.68,0,0,0,2.6-.31c.09-.17-.17-.65-.59-1.1-.65-.68-.74-.91-.51-1.61l.28-.8h6.17l.25.77a1.13,1.13,0,0,1-.33,1.44,2.33,2.33,0,0,0-.63,1.13c0,.43.46.48,4.1.48,3.48,0,4.16-.05,4.3-.45s-.14-.74-.56-1.19a61.39,61.39,0,0,1-3.71-7.55A66,66,0,0,0,86.22,11a7.88,7.88,0,0,0-3-.34C81,10.67,80.76,10.73,80.76,11.21Zm4,7.3a19.35,19.35,0,0,1,.93,2.85,15.38,15.38,0,0,1-2.2,0l-2.13-.08,1-2.74a17,17,0,0,1,1.19-2.78A16.36,16.36,0,0,1,84.81,18.51Z"/><path class="cls-1" d="M95.9,23.18c-.82.45-1,.79-1,2,0,1.55.76,2.2,2.54,2.2S100,26.71,100,25.1s-.76-2.26-2.32-2.26A4.59,4.59,0,0,0,95.9,23.18Z"/></svg>