<svg id="Camada_1" data-name="Camada 1" xmlns="http://www.w3.org/2000/svg" viewBox="0 0 100 40"><defs><style>.cls-1{fill:#fff;}</style></defs><g id="Grupo_11951" data-name="Grupo 11951"><g id="Grupo_8" data-name="Grupo 8"><g id="Grupo_7" data-name="Grupo 7"><g id="Grupo_5" data-name="Grupo 5"><path id="Trazado_1" data-name="Trazado 1" class="cls-1" d="M96.72,26.44l-.88-.26c-.59-.2-1.53-.5-1.53-1.27s.85-1,1.48-1h1.89l1.61-3H75A1.94,1.94,0,0,0,73,22.91h0v2.76a7.45,7.45,0,0,0-7.25-5.16A7.61,7.61,0,0,0,59,24.57C58.6,22.07,56.71,21,54.08,21H42.89a4.28,4.28,0,0,0-4.57,4.42c0,2.57,1.43,3.13,3.59,3.75.74.21,2.09.54,2.09,1.51S43.14,32,42.33,32a4.7,4.7,0,0,1-3.06-1.37L37.8,33.38a8.16,8.16,0,0,0,4.65,1.51,5.78,5.78,0,0,0,3.76-1.25,4.48,4.48,0,0,0,1.37-3.57c0-2.14-1.42-3.07-3.26-3.61l-.88-.27c-.6-.19-1.53-.49-1.53-1.26s.84-1.13,1.47-1.13h5.3V34.53h3.53V30h2c1.93,0,3.33-.55,4.1-1.75A7.53,7.53,0,0,0,73,29.56v5h3.53V29.31h0l3.91,5.22h3.81L80.05,29a3.65,3.65,0,0,0,3-3.83A5.3,5.3,0,0,0,82.88,24h2.37V34.53h3.52V24h2.15a5.24,5.24,0,0,0-.2,1.42c0,2.57,1.43,3.13,3.59,3.75.74.21,2.1.54,2.1,1.51S95.55,32,94.74,32a4.76,4.76,0,0,1-3.07-1.38l-1.48,2.79a8.25,8.25,0,0,0,4.67,1.51,5.83,5.83,0,0,0,3.77-1.25A4.52,4.52,0,0,0,100,30.07C100,27.92,98.57,27,96.72,26.44Zm-43.91.75h-.6V23.81h.59c1.37,0,2.54,0,2.54,1.72s-1.26,1.66-2.54,1.66Zm13,4.37a3.88,3.88,0,0,1-3.83-4,3.84,3.84,0,0,1,7.66,0,3.89,3.89,0,0,1-3.83,4ZM76.9,27.05h-.34V23.66h.34c1.15,0,2.44.22,2.44,1.7s-1.29,1.69-2.44,1.69Z"/></g><g id="Grupo_6" data-name="Grupo 6"><path id="Trazado_4" data-name="Trazado 4" class="cls-1" d="M59,4.69v6.75h-.13l-3.7-5.76a1.79,1.79,0,0,0-1.8-1H37.8V7.34h4.27V18.13h3.7V7.34h4.14V18.13h3.54v-8h.07l4.71,7.05a1.8,1.8,0,0,0,1.8,1h2.43V7.34h4.16V18.13h3.64V7.34h3.23l1.38-2.65Z"/></g></g></g><g id="Grupo_9" data-name="Grupo 9"><path id="Trazado_5" data-name="Trazado 5" class="cls-1" d="M13.85,16.22l5,7.15V15.5H31a15.81,15.81,0,0,0-30.31,0H12.46A1.71,1.71,0,0,1,13.85,16.22Z"/><path id="Trazado_6" data-name="Trazado 6" class="cls-1" d="M21.81,18.2V29H20.13a1.77,1.77,0,0,1-1.45-.75L11.58,18.2H.11a15.8,15.8,0,1,0,31.4,0Z"/></g></g></svg>