<svg id="Camada_1" data-name="Camada 1" xmlns="http://www.w3.org/2000/svg" viewBox="0 0 90 40"><defs><style>.cls-1{fill:#fff;}</style></defs><g id="Grupo_11951" data-name="Grupo 11951"><g id="Grupo_8" data-name="Grupo 8"><g id="Grupo_7" data-name="Grupo 7"><g id="Grupo_5" data-name="Grupo 5"><path id="Trazado_1" data-name="Trazado 1" class="cls-1" d="M87,25.81l-.8-.23c-.53-.18-1.37-.45-1.37-1.15s.76-.9,1.33-.9h1.7l1.45-2.7H67.49a1.75,1.75,0,0,0-1.8,1.69v.11h0v2.49a6.71,6.71,0,0,0-6.53-4.65,6.87,6.87,0,0,0-6.07,3.66c-.36-2.25-2.06-3.21-4.43-3.21H38.59a3.84,3.84,0,0,0-4.1,3.57,2.71,2.71,0,0,0,0,.4c0,2.32,1.29,2.82,3.23,3.38.67.19,1.88.48,1.88,1.36s-.77,1.18-1.5,1.18a4.19,4.19,0,0,1-2.76-1.23L34,32.06a7.37,7.37,0,0,0,4.19,1.36,5.25,5.25,0,0,0,3.38-1.13,4,4,0,0,0,1.23-3.21c0-1.93-1.28-2.76-2.93-3.25l-.79-.24c-.54-.17-1.38-.44-1.38-1.14s.76-1,1.32-1H43.8v9.65H47V29h1.8c1.74,0,3-.5,3.69-1.58a6.78,6.78,0,0,0,13.22,1.18v4.5h3.18V28.39h0l3.51,4.7h3.43l-3.78-5a3.29,3.29,0,0,0,2.7-3.45,4.59,4.59,0,0,0-.15-1.05h2.13v9.47h3.17V23.62h1.94a4.53,4.53,0,0,0-.18,1.27c0,2.32,1.28,2.82,3.23,3.38.66.19,1.89.48,1.89,1.36s-.78,1.18-1.51,1.18a4.25,4.25,0,0,1-2.76-1.24l-1.33,2.51a7.38,7.38,0,0,0,4.2,1.36,5.24,5.24,0,0,0,3.4-1.12A4.08,4.08,0,0,0,90,29.08C90,27.14,88.7,26.32,87,25.81Zm-39.52.68H47v-3h.53c1.23,0,2.29,0,2.29,1.55s-1.14,1.5-2.29,1.5Zm11.7,3.93a3.5,3.5,0,0,1-3.45-3.54v-.06a3.46,3.46,0,0,1,6.9,0,3.51,3.51,0,0,1-3.4,3.6Zm10-4.06h-.31V23.31h.31c1,0,2.19.2,2.19,1.53S70.23,26.36,69.2,26.36Z"/></g><g id="Grupo_6" data-name="Grupo 6"><path id="Trazado_4" data-name="Trazado 4" class="cls-1" d="M53.09,6.24v6.07H53L49.64,7.13A1.61,1.61,0,0,0,48,6.23H34V8.62h3.84v9.71h3.33V8.62h3.73v9.71H48.1v-7.2h.06l4.24,6.35a1.61,1.61,0,0,0,1.62.9H56.2V8.62H60v9.71h3.27V8.62h2.91l1.24-2.38Z"/></g></g></g><g id="Grupo_9" data-name="Grupo 9"><path id="Trazado_5" data-name="Trazado 5" class="cls-1" d="M12.46,16.61,17,23.05V16H27.89A14.23,14.23,0,0,0,.61,16h10.6A1.55,1.55,0,0,1,12.46,16.61Z"/><path id="Trazado_6" data-name="Trazado 6" class="cls-1" d="M19.62,18.4v9.72H18.11a1.62,1.62,0,0,1-1.31-.68l-6.39-9H.09a14.22,14.22,0,1,0,28.26,0Z"/></g></g></svg>