<svg id="Camada_1" data-name="Camada 1" xmlns="http://www.w3.org/2000/svg" viewBox="0 0 101.69 40"><defs><style>.cls-1{fill:#fff;}</style></defs><path class="cls-1" d="M55.68,18.58c-.63,5.31-1.22,10-1.31,10.46-.16.84-.16.87,1.34.87h1.53l.37-3.18a15.25,15.25,0,0,1,.69-3.5c.47-.46,1.12.29,2.62,3.06C63,30,62.92,30,64.64,29.85l1.43-.09-2.18-4-2.19-4,2.9-3,2.91-3L66,15.62l-1.56-.1L61.8,18.33c-2.91,3.16-3.66,3.53-3.38,1.66.1-.63.41-3.06.66-5.37s.56-4.53.62-4.93c.16-.63.07-.69-1.34-.69H56.83Z"/><path class="cls-1" d="M70.63,9.37c-.06.22-.34,2.38-.62,4.78s-.79,6.56-1.13,9.21c-.84,6.87-.87,6.55.78,6.55H71l.35-2.74c.22-1.5.72-5.65,1.15-9.27s.88-7.09,1-7.75L73.66,9H72.22C71.32,9,70.72,9.16,70.63,9.37Z"/><path class="cls-1" d="M76.9,10a2.46,2.46,0,0,0-.5,1.19,2,2,0,0,0,1.85,1.87,2,2,0,0,0,1.4-3.25A1.91,1.91,0,0,0,76.9,10Z"/><path class="cls-1" d="M11.48,11.56c-.16.41-.5,1.53-.78,2.5-.44,1.65-.53,1.78-1.5,1.87s-1,.25-1.09.94,0,.87.84.87a4.21,4.21,0,0,1,1,.06c0,.07-.22,1.78-.47,3.84-.66,5.31-.63,6.49.28,7.53.59.71,1,.87,2.25.87a6.7,6.7,0,0,0,2.52-.53c.94-.5,1-.59.69-1.47s-.53-1.09-1.68-.56c-.66.28-.91.28-1.32-.13s-.43-.87.07-4.83A43.66,43.66,0,0,1,12.94,18a4.46,4.46,0,0,1,1.85-.22c1.46,0,1.68-.09,1.74-.62a6.79,6.79,0,0,1,.07-1c0-.22-.6-.35-1.69-.38-1.31,0-1.72-.12-1.69-.5s.13-1.34.25-2.43l.22-1.94h-1C12,10.87,11.69,11.06,11.48,11.56Z"/><path class="cls-1" d="M96.82,11.12a7,7,0,0,0-1,2.41c-.59,2.09-.65,2.18-1.68,2.34-.88.12-1.1.31-1.16,1s0,.87.84.87c1.13,0,1.13-.16.5,4.37-.81,5.9-.56,7.09,1.53,7.8a5.08,5.08,0,0,0,4.06-.71c.5-.38.53-.53.19-1.19-.53-1-.5-1-1.25-.59s-1.75.18-2-.44a31.81,31.81,0,0,1,.35-4.74l.53-4.34,1.71-.1c1.72-.09,2.19-.37,2.19-1.4,0-.44-.28-.53-1.75-.53H98.16l.22-2.5c.22-2.47.22-2.5-.5-2.5A2.36,2.36,0,0,0,96.82,11.12Z"/><path class="cls-1" d="M33.8,15.65a9.32,9.32,0,0,0-6.4,6.4c-.72,2.28-.75,3.15-.28,4.9,1,3.49,4.43,4.18,7.14,1.37l1.22-1.25.09,1.35c.1,1.31.13,1.34,1.25,1.43,1.35.13,1.16.72,2.13-7,.78-6.15.78-6.9.09-7.15A11.43,11.43,0,0,0,33.8,15.65Zm2.52,4.18C36,23.67,34.2,27,32.17,27.54c-.53.16-.9,0-1.5-.56-1.43-1.44-.93-5.09,1-7.4a5.4,5.4,0,0,1,3.94-2.15h.9Z"/><path class="cls-1" d="M47.37,15.52a7.84,7.84,0,0,0-5.08,4.72c-.78,1.81-.88,5.65-.16,7,1.84,3.43,6.31,3.87,9.4.94.84-.81.84-.88.34-1.44-.69-.75-.81-.75-2.19.19-1.59,1.09-3,1-4.21-.13-.78-.81-.91-1.15-.91-2.74,0-3.28,2.06-6.34,4.28-6.34a5.84,5.84,0,0,1,1.81.53c1.06.5,1.13.5,1.78-.16l.69-.68-.75-.78A5.15,5.15,0,0,0,47.37,15.52Z"/><path class="cls-1" d="M85.36,15.68a4.47,4.47,0,0,0-2.9,2.59c-1.06,2.5-.34,3.9,2.72,5.4,2.09,1,2.31,1.19,2.4,2.06.19,2-2.5,3-4.46,1.69-1.22-.81-1.53-.78-2.19.22-.53.78-.53.84.19,1.37A7.14,7.14,0,0,0,86.3,30c3.34-.91,5.21-4.53,3.46-6.75a7.55,7.55,0,0,0-2.4-1.62c-3-1.31-3.43-2-2.06-3.37.91-.94,2.22-1,3.81-.28,1,.5,1.09.5,1.72-.13.78-.78.56-1.21-1.13-2A5.25,5.25,0,0,0,85.36,15.68Z"/><path class="cls-1" d="M19.47,16.24c-.1.41-.44,3.31-.81,6.49s-.72,6.09-.82,6.47c-.12.65,0,.71,1.38.71h1.53l.4-3.37c.66-5.58,2.09-8.18,4.56-8.18.91,0,1.09-.12,1.25-.87.09-.47.25-1.09.34-1.4s-.06-.53-1.12-.53a4.06,4.06,0,0,0-3.43,2.31c-.63,1.15-.82,1-.82-.66v-1.5l-1.15-.09C19.78,15.52,19.59,15.62,19.47,16.24Z"/><path class="cls-1" d="M76.28,17.18c-.47,3.4-1.44,11.67-1.44,12.17s.28.56,1.41.56c.78,0,1.4-.09,1.43-.25s.38-3.34.88-7.17l.84-6.93H76.5Z"/><path class="cls-1" d="M2.27,23.67A4.65,4.65,0,0,0,.08,26.11c-.34,1.12.41,2.74,1.81,4,1,.91,1.35,1.06,1.41.66.06-.25.53-.56,1-.69a3.66,3.66,0,0,0,2.78-3A3.58,3.58,0,0,0,2.27,23.67Z"/></svg>