<svg id="Camada_1" data-name="Camada 1" xmlns="http://www.w3.org/2000/svg" viewBox="0 0 90 40"><defs><style>.cls-1{fill:#fff;}</style></defs><path class="cls-1" d="M49.31,18.75c-.56,4.7-1.08,8.86-1.16,9.26-.14.75-.14.78,1.19.78h1.35L51,26a13.2,13.2,0,0,1,.61-3.1c.42-.41,1,.26,2.32,2.71,1.84,3.28,1.77,3.28,3.29,3.15l1.27-.08-1.93-3.54-1.94-3.54,2.57-2.66,2.57-2.66-1.33-.12L57.07,16l-2.34,2.49c-2.58,2.8-3.24,3.13-3,1.47.08-.56.36-2.71.58-4.75s.5-4,.55-4.37c.14-.56.06-.61-1.19-.61H50.33Z"/><path class="cls-1" d="M62.55,10.6c-.06.19-.3,2.1-.55,4.23s-.7,5.81-1,8.15c-.75,6.09-.77,5.81.69,5.81h1.19l.31-2.43c.19-1.33.63-5,1-8.21s.78-6.28.89-6.86l.14-1H64C63.16,10.27,62.63,10.41,62.55,10.6Z"/><path class="cls-1" d="M68.1,11.15a2.17,2.17,0,0,0-.44,1.06A1.64,1.64,0,1,0,70.92,12a1.69,1.69,0,0,0-.38-1,1.69,1.69,0,0,0-2.39.11S68.12,11.14,68.1,11.15Z"/><path class="cls-1" d="M10.17,12.54c-.14.36-.45,1.35-.69,2.21-.39,1.46-.47,1.58-1.33,1.66s-.89.22-1,.83,0,.77.75.77a3.72,3.72,0,0,1,.88,0c0,.06-.19,1.58-.41,3.4-.59,4.7-.56,5.75.24,6.67.53.63.89.77,2,.77a5.94,5.94,0,0,0,2.23-.47c.83-.44.88-.52.61-1.3s-.47-1-1.49-.5c-.58.25-.8.25-1.17-.11s-.38-.77.06-4.28c.13-1.34.32-2.68.58-4A4,4,0,0,1,13.1,18c1.29,0,1.49-.08,1.54-.55a6.51,6.51,0,0,1,.06-.88c0-.2-.53-.31-1.5-.34-1.16,0-1.52-.1-1.49-.44s.11-1.19.22-2.15L12.12,12h-.88C10.63,11.92,10.35,12.09,10.17,12.54Z"/><path class="cls-1" d="M85.74,12.15a6.15,6.15,0,0,0-.89,2.13c-.52,1.85-.57,1.93-1.48,2.07s-1,.28-1,.89,0,.77.74.77c1,0,1-.14.45,3.87-.72,5.22-.5,6.28,1.35,6.91a4.58,4.58,0,0,0,3.6-.63c.44-.34.47-.47.17-1.06-.47-.88-.45-.88-1.11-.52a1.29,1.29,0,0,1-1.77-.39,28.17,28.17,0,0,1,.31-4.2l.47-3.84,1.51-.09C89.58,18,90,17.73,90,16.82c0-.39-.25-.47-1.55-.47H86.93l.19-2.21c.2-2.19.2-2.22-.44-2.22A2,2,0,0,0,85.74,12.15Z"/><path class="cls-1" d="M29.93,16.16a8.22,8.22,0,0,0-5.66,5.66A6.25,6.25,0,0,0,24,26.16c.88,3.09,3.92,3.71,6.32,1.22l1.08-1.11.08,1.2c.09,1.16.12,1.18,1.11,1.26,1.19.12,1,.64,1.88-6.2.69-5.44.69-6.11.08-6.33A10.1,10.1,0,0,0,29.93,16.16Zm2.23,3.7c-.28,3.4-1.87,6.35-3.67,6.83-.47.14-.8,0-1.33-.5-1.27-1.27-.82-4.51.89-6.55a4.79,4.79,0,0,1,3.49-1.91h.79Z"/><path class="cls-1" d="M42,16a7,7,0,0,0-4.5,4.18c-.69,1.6-.78,5-.14,6.2,1.63,3,5.59,3.43,8.32.83.75-.71.75-.78.3-1.27-.61-.67-.71-.67-1.93.17A2.72,2.72,0,0,1,40.27,26c-.69-.72-.81-1-.81-2.43,0-2.9,1.83-5.61,3.79-5.61a5.18,5.18,0,0,1,1.6.47c.94.44,1,.44,1.58-.14l.61-.6-.66-.7A4.57,4.57,0,0,0,42,16Z"/><path class="cls-1" d="M75.59,16.18A4,4,0,0,0,73,18.48c-.93,2.21-.3,3.45,2.41,4.78,1.85.88,2,1,2.13,1.82.17,1.77-2.22,2.66-4,1.5-1.08-.72-1.36-.69-1.94.19-.47.7-.47.75.17,1.22a6.26,6.26,0,0,0,4.58.87c3-.8,4.62-4,3.07-6a6.74,6.74,0,0,0-2.13-1.44c-2.65-1.16-3-1.77-1.82-3,.8-.83,2-.89,3.37-.25.89.44,1,.44,1.53-.11s.49-1.08-1-1.78A4.7,4.7,0,0,0,75.59,16.18Z"/><path class="cls-1" d="M17.24,16.68c-.09.36-.39,2.93-.71,5.75s-.64,5.39-.73,5.73c-.11.57,0,.63,1.22.63h1.36l.35-3c.59-4.94,1.85-7.24,4-7.24.8,0,1-.11,1.11-.77.08-.42.22-1,.3-1.24s-.06-.47-1-.47a3.58,3.58,0,0,0-3,2c-.56,1-.73.89-.73-.58V16.21l-1-.08C17.52,16,17.35,16.13,17.24,16.68Z"/><path class="cls-1" d="M67.55,17.51c-.41,3-1.27,10.34-1.27,10.78s.24.5,1.24.5c.7,0,1.24-.08,1.27-.23s.34-2.95.78-6.35l.74-6.13H67.75Z"/><path class="cls-1" d="M2,23.26A4.1,4.1,0,0,0,.07,25.42c-.3,1,.37,2.43,1.6,3.54.89.81,1.2.94,1.25.59a1.34,1.34,0,0,1,.89-.61,3.26,3.26,0,0,0,2.46-2.66,3.17,3.17,0,0,0-3.13-3.21A3.12,3.12,0,0,0,2,23.26Z"/></svg>