<svg id="Camada_1" data-name="Camada 1" xmlns="http://www.w3.org/2000/svg" viewBox="0 0 120 40"><defs><style>.cls-1{fill:#fff;}</style></defs><path class="cls-1" d="M16.41,7.42C14.85,7.63,7,9,5.35,9.37c-4.52,1-5.78,2.64-5.23,7C.52,19.44,2,27.4,2.49,29a5.41,5.41,0,0,0,2.86,3.53c1.26.44,3.63.27,9-.65,6.46-1.11,7.49-1.34,9-2.1a3.89,3.89,0,0,0,2.41-3c.27-1.28.19-2.06-.86-8.21-1-5.63-1.45-7.56-2.12-8.9C21.76,7.67,19.72,7,16.41,7.42ZM14.58,17.49l.07,1.74H18v2.31H14.65l-.07,1.72L14.52,25l-1.2.06-1.21.06V21.54H8.54V19.25l1.74-.06L12,19.13l.06-1.74.07-1.75,1.19.07,1.2.06Z"/><path class="cls-1" d="M91.87,11.57l-.92.95h.94a3.45,3.45,0,0,0,2.29-.95l1.34-.94H94.16C92.82,10.63,92.77,10.65,91.87,11.57Z"/><path class="cls-1" d="M69.16,13.55c-2.29.75-3.4,3.14-2.27,5,.53.86,1,1.2,2.82,1.76s2.53,1.22,2.35,2.12-.47,1.18-1.37,1.43a3.6,3.6,0,0,1-2.9-.65L67,22.74l-.5.57c-.61.71-.55.92.33,1.53a5.52,5.52,0,0,0,5.92-.11c1.74-1.44,1.64-4.66-.17-5.56a16.93,16.93,0,0,0-2-.75c-1.68-.55-2.14-1-2-2,0-.56.21-.75.89-1.09s1-.38,2.81.34c.67.25.73.23,1.11-.23.59-.74.5-1-.55-1.49A6.21,6.21,0,0,0,69.16,13.55Z"/><path class="cls-1" d="M77.2,19.25c-1.28,3.24-2.33,6-2.33,6.09,0,.28,1.83.23,2-.06s.39-.8.69-1.49l.52-1.24h5l.53,1.24c.29.69.6,1.34.69,1.49s2,.34,2,0c0-.1-1-2.83-2.33-6.09l-2.31-5.87H79.53Zm4.51-1c.44,1.26.82,2.39.82,2.48a5,5,0,0,1-1.89.19c-1.45,0-1.87-.09-1.82-.3s.39-1.22.79-2.37.8-2.23.84-2.39C80.62,15.41,80.85,15.85,81.71,18.29Z"/><path class="cls-1" d="M87.46,17.6a35.76,35.76,0,0,0,.23,4.85,4.85,4.85,0,0,0,2.38,2.7,5.64,5.64,0,0,0,6.34-1.21c.94-1.22,1.13-2.33,1.13-6.53V13.57H95.23V17.7c0,3.8,0,4.22-.42,4.85a2.84,2.84,0,0,1-4.22.55c-.88-.84-1-1.66-1-5.82V13.57h-2.1Z"/><path class="cls-1" d="M99.85,19.57v6l3.21-.08c3.57-.08,4.47-.34,5.77-1.64a5,5,0,0,0,1.62-4.3,4.65,4.65,0,0,0-.61-3c-1.26-2.27-3-3-7.2-3H99.85Zm6-4c1.62.67,2.37,2,2.37,4,0,3-1.65,4.41-4.89,4.26l-1.3-.06-.06-4c0-2.18,0-4.09,0-4.24C102.2,15.12,104.91,15.16,105.87,15.56Z"/><path class="cls-1" d="M112.44,19.55v6H120V23.87l-2.67-.06-2.68-.06-.07-1.62-.06-1.62,2.16-.06,2.17-.06V18.71l-2.17-.06-2.16-.07.06-1.61.07-1.62,2.68-.06,2.67-.07V13.57h-7.56Z"/><path class="cls-1" d="M30,14.09c0,.25.38.32,2.1.32h2.1V20c0,5.41,0,5.56.42,5.56S35,25.38,35,20V14.41h2.09c1.73,0,2.1-.07,2.1-.32s-.65-.31-4.61-.31S30,13.82,30,14.09Z"/><path class="cls-1" d="M41.28,18.1c0,4.3,0,4.35.57,5.37a3.93,3.93,0,0,0,3.86,2.15A3.63,3.63,0,0,0,48.13,25a4.26,4.26,0,0,0,1.49-1.56c.46-.88.48-1.13.48-5.31,0-3.63,0-4.36-.29-4.36s-.32.75-.38,4.36l-.07,4.39-.58.88a3.68,3.68,0,0,1-6.3-.27c-.42-.8-.46-1.22-.53-5.12-.06-3.47-.12-4.24-.37-4.24S41.28,14.51,41.28,18.1Z"/><path class="cls-1" d="M54.05,19.65c-2.17,5.25-2.4,5.9-2,5.84s.61-.46,1.16-1.91l.71-1.85,3,.06,3,.07.75,1.78c.47,1.11.89,1.81,1.12,1.85s.35,0,.35-.11S61,22.66,59.69,19.55c-1.89-4.51-2.45-5.69-2.77-5.73S56.17,14.59,54.05,19.65Zm4.32-1.42c.65,1.57,1.18,2.91,1.18,3a15.26,15.26,0,0,1-2.63.12,9,9,0,0,1-2.62-.19c0-.1.5-1.38,1.11-2.87s1.2-2.9,1.28-3.13C56.88,14.59,56.88,14.59,58.37,18.23Z"/></svg>