<svg id="Camada_1" data-name="Camada 1" xmlns="http://www.w3.org/2000/svg" viewBox="0 0 118 40"><defs><style>.cls-1{fill:#fff;}</style></defs><path class="cls-1" d="M16.14,7.6C14.6,7.81,6.88,9.15,5.26,9.52.82,10.5-.42,12.11.12,16.4c.39,3,1.85,10.85,2.33,12.42a5.32,5.32,0,0,0,2.81,3.47c1.24.43,3.57.27,8.85-.64,6.35-1.09,7.37-1.32,8.85-2.06a3.82,3.82,0,0,0,2.37-2.95c.27-1.26.19-2-.84-8.08-1-5.53-1.43-7.43-2.09-8.75C21.4,7.85,19.39,7.19,16.14,7.6Zm-1.8,9.9.07,1.71H17.7v2.27H14.41l-.07,1.7-.06,1.71L13.1,25,11.91,25V21.48H8.4V19.23l1.71-.06,1.69-.06.06-1.71.07-1.72,1.17.07,1.18.06Z"/><path class="cls-1" d="M90.34,11.68l-.91.93h.93a3.38,3.38,0,0,0,2.25-.93l1.32-.92H92.59C91.27,10.76,91.22,10.78,90.34,11.68Z"/><path class="cls-1" d="M68,13.63c-2.25.73-3.35,3.08-2.23,4.91.52.85,1,1.18,2.77,1.73s2.49,1.2,2.31,2.09a1.52,1.52,0,0,1-1.35,1.41,3.57,3.57,0,0,1-2.85-.64l-.78-.47-.49.56c-.6.7-.54.91.33,1.51a5.44,5.44,0,0,0,5.82-.11c1.71-1.42,1.61-4.58-.17-5.47a17.24,17.24,0,0,0-2-.73c-1.65-.55-2.1-1-2-2,0-.55.2-.74.87-1.07s1-.38,2.77.33c.65.25.71.23,1.09-.22.58-.73.49-1-.54-1.47A6.08,6.08,0,0,0,68,13.63Z"/><path class="cls-1" d="M75.91,19.23c-1.26,3.19-2.29,5.9-2.29,6,0,.28,1.8.23,2-.06s.38-.79.68-1.46l.51-1.22H81.7l.52,1.22c.28.67.59,1.31.68,1.46s2,.34,2,0c0-.1-1-2.78-2.29-6L80.3,13.4H78.2Zm4.44-1c.43,1.24.8,2.35.8,2.44a4.83,4.83,0,0,1-1.85.18c-1.43,0-1.84-.08-1.79-.29s.38-1.2.77-2.33.79-2.19.83-2.35c.17-.44.39,0,1.24,2.39Z"/><path class="cls-1" d="M86,17.61a36.2,36.2,0,0,0,.23,4.77A4.76,4.76,0,0,0,88.57,25a5.53,5.53,0,0,0,6.23-1.19c.93-1.2,1.11-2.29,1.11-6.42V13.65H93.64v4.06c0,3.73,0,4.15-.41,4.77a2.8,2.8,0,0,1-3.88.75L89.08,23c-.86-.83-1-1.63-1-5.73V13.65H86Z"/><path class="cls-1" d="M98.19,19.55v5.9l3.15-.08c3.51-.08,4.4-.34,5.68-1.61a4.93,4.93,0,0,0,1.59-4.23,4.53,4.53,0,0,0-.6-3c-1.24-2.24-3-2.95-7.08-2.95H98.19Zm5.9-3.94c1.59.66,2.33,2,2.33,3.94,0,2.95-1.63,4.33-4.81,4.19l-1.28-.06-.06-3.94V15.57c.23-.4,2.89-.36,3.84,0Z"/><path class="cls-1" d="M110.57,19.53v5.9H118V23.77l-2.63-.05-2.63-.06-.07-1.6-.06-1.59,2.13-.06,2.13-.06V18.7l-2.13-.06-2.13-.07.06-1.58.07-1.59,2.63-.06,2.63-.07V13.65h-7.43Z"/><path class="cls-1" d="M34,13.61c-4.28,0-4.75,0-4.75.55s.57.56,2.32.56h1.81V20c0,5.71,0,5.71.66,5.71.47,0,.54-.36.58-.8s0-1.59,0-3.65V14.72h1.81c1.75,0,2.31-.05,2.31-.56S38.52,13.61,34,13.61Z"/><path class="cls-1" d="M49,13.6c-.54,0-.55.51-.62,4.53l-.07,4.24-.53.81A3.37,3.37,0,0,1,42,22.93c-.39-.74-.42-1.1-.49-4.92-.07-4-.13-4.41-.61-4.41s-.54.38-.54,4.5,0,4.34.58,5.39a4.08,4.08,0,0,0,4,2.25l.39,0a3.84,3.84,0,0,0,2.15-.66A4.49,4.49,0,0,0,49,23.47c.49-.94.5-1.27.5-5.34C49.51,13.85,49.51,13.6,49,13.6Z"/><path class="cls-1" d="M60.23,22.5l-1.31-3.07c-2.17-5.19-2.49-5.73-2.92-5.78s-.77.37-3.08,5.88h0c-2.19,5.31-2.29,5.66-2.06,6a.36.36,0,0,0,.36.12c.55-.08.79-.59,1.33-2l.64-1.66,5.57.12.67,1.6c.8,1.89,1.15,1.95,1.29,2l.19,0a.47.47,0,0,0,.32-.1.34.34,0,0,0,.12-.27A19.63,19.63,0,0,0,60.23,22.5Zm-5.52-4.12.63-1.51.6-1.47c.21.44.62,1.42,1.23,2.92h0c.53,1.28.91,2.24,1.07,2.65a14.49,14.49,0,0,1-2.29.08,8,8,0,0,1-2.24-.13C53.85,20.53,54.2,19.64,54.71,18.38Z"/></svg>