<svg id="Camada_1" data-name="Camada 1" xmlns="http://www.w3.org/2000/svg" viewBox="0 0 100 40"><defs><style>.cls-1{fill:#fff;}</style></defs><path class="cls-1" d="M0,17.74v5.51l.24.65a5.49,5.49,0,0,0,4,3.61c.31.06.92.14,1.35.18,1,.07,1,0,1-1.31v-.94l-1-.06a12.1,12.1,0,0,1-1.21-.14,3.55,3.55,0,0,1-2-2,6.14,6.14,0,0,1-.16-1.28v-.77H6.55l.07-.83a5,5,0,0,0,0-1.09V19H2.28V12.23H0Z"/><path class="cls-1" d="M27.82,12.29a17.91,17.91,0,0,0-.07,2.2v2.15H25.83c-2.27,0-2.9.11-4,.68a5.51,5.51,0,0,0-2.69,3.26,6.71,6.71,0,0,0,.09,3.33,5.37,5.37,0,0,0,5.15,3.75,5.5,5.5,0,0,0,5.38-4c.17-.57.19-1.08.19-6V12.28h-1A4.66,4.66,0,0,0,27.82,12.29Zm-.1,8.33c-.08,2.5-.28,3.17-1.22,4a3.16,3.16,0,0,1-4.37-.24,2.79,2.79,0,0,1-.89-2.45,3,3,0,0,1,1.2-2.32c.83-.67,1.19-.74,3.41-.74h1.93Z"/><path class="cls-1" d="M64.22,12.35V27.69h.46a6.86,6.86,0,0,0,1.11,0l.62-.08v-7.5c0-4.16,0-7.6,0-7.69s-.25-.16-1.07-.16S64.26,12.26,64.22,12.35Z"/><path class="cls-1" d="M78.76,20c0,6.82,0,7.72.15,7.77a5.34,5.34,0,0,0,1.13,0l1-.08V12.33H78.81Z"/><path class="cls-1" d="M7.37,20c0,3.2,0,3.43.26,4A5.84,5.84,0,0,0,10.32,27a6,6,0,0,0,5.19-.11,6.31,6.31,0,0,0,2.22-2.31c.55-1.14.58-1.39.58-4.82V16.64H16.17l-.05,3.11-.05,3.12-.34.68A3.24,3.24,0,0,1,11.4,25a3.43,3.43,0,0,1-.94-.71,4.5,4.5,0,0,1-.6-.83c-.28-.58-.37-2-.3-4.43,0-1.91,0-2.29-.08-2.37a4.42,4.42,0,0,0-1.15-.05h-1Z"/><path class="cls-1" d="M46.53,16.78A5.84,5.84,0,0,0,43,19.53,5.51,5.51,0,0,0,50.4,27a8,8,0,0,0,1.94-1.58c.14-.24.12-.27-.57-1a3.81,3.81,0,0,0-.83-.72,1.77,1.77,0,0,0-.59.5,4.42,4.42,0,0,1-1.05.83,2.68,2.68,0,0,1-1.5.29,2.25,2.25,0,0,1-1.48-.32A3.27,3.27,0,0,1,45,20.64a3.55,3.55,0,0,1,.5-.7,3,3,0,0,1,2.26-1,3.15,3.15,0,0,1,2.5,1,2,2,0,0,0,.73.53,6,6,0,0,0,1.49-1.45,6.52,6.52,0,0,0-2.19-1.85A5.62,5.62,0,0,0,46.53,16.78Z"/><path class="cls-1" d="M67.13,19.54a21.36,21.36,0,0,0,.16,3.66,5.58,5.58,0,0,0,4,4.27,7,7,0,0,0,2.8,0,5.46,5.46,0,0,0,4-4.22c.1-1.22.15-2.44.13-3.65v-3H75.89v6.5l-.28.51A3.23,3.23,0,0,1,71.25,25a3.47,3.47,0,0,1-.64-.44c-1.07-1-1.2-1.56-1.15-5.29v-2.6l-1.14-.07H67.16Z"/><path class="cls-1" d="M86,16.73a5.82,5.82,0,0,0-2.65,1.51,5.29,5.29,0,0,0-1.67,3.83,5.6,5.6,0,0,0,4,5.4,13.91,13.91,0,0,0,3.64.27h3.14l.29-.07-.06-3.41c-.08-3.7-.08-3.73-.72-4.86a5.67,5.67,0,0,0-3.22-2.5A6.79,6.79,0,0,0,86,16.73Zm2.57,2.41a3.75,3.75,0,0,1,1.78,1.94,8.47,8.47,0,0,1,.17,2.41v1.9H88.63c-2.31,0-2.68-.09-3.49-.84a3,3,0,0,1-1-3.33,3,3,0,0,1,1.14-1.67A3.23,3.23,0,0,1,88.54,19.14Z"/><path class="cls-1" d="M97.56,16.75a5.85,5.85,0,0,0-4.06,3.9c-.2.83-.23,6.93,0,7a7.52,7.52,0,0,0,2-.09,31.51,31.51,0,0,0,.12-3.2c0-3.54.05-3.62.91-4.48a3.93,3.93,0,0,1,2.38-1.05l1-.14c.06,0,.12-.32.12-1v-1A10.48,10.48,0,0,0,97.56,16.75Z"/><path class="cls-1" d="M34.62,16.87a4.89,4.89,0,0,0-2.36,1.43,5.39,5.39,0,0,0-.77,6.8,5.09,5.09,0,0,0,4.58,2.57,5,5,0,0,0,4-1.67,5.28,5.28,0,0,0,1.44-2.75,3.6,3.6,0,0,0,0-1.87,5.44,5.44,0,0,0-4-4.51A7.43,7.43,0,0,0,34.62,16.87Zm2.87,2.38a3.25,3.25,0,1,1-4.35,4.24,3.54,3.54,0,0,1,0-2.6,3.48,3.48,0,0,1,1.59-1.67,3.18,3.18,0,0,1,2.76,0Z"/><path class="cls-1" d="M57.37,16.87a5.4,5.4,0,0,0-2.84,1.86,5,5,0,0,0-1.21,3.5,5.33,5.33,0,0,0,3.09,4.94,5.61,5.61,0,0,0,6.5-1.29,4.07,4.07,0,0,0,.51-.59,12.28,12.28,0,0,0-1.6-1.54,1.37,1.37,0,0,0-.36.36,3.86,3.86,0,0,1-3,1.33c-.73-.1-.94-.16-.94-.29s1.34-1.42,3-3,3-3,3-3a5,5,0,0,0-.75-.78,5.52,5.52,0,0,0-2.61-1.46A7.83,7.83,0,0,0,57.37,16.87Zm2.35,2.19c.15.05.27.15.27.23s-4,4.16-4.09,4.16-.31-.62-.32-1.3a3.2,3.2,0,0,1,2-3A3.91,3.91,0,0,1,59.72,19.06Z"/></svg>