<svg id="Camada_1" data-name="Camada 1" xmlns="http://www.w3.org/2000/svg" viewBox="0 0 106 40"><defs><style>.cls-1,.cls-2{fill:#fff;}.cls-2{fill-rule:evenodd;}</style></defs><path id="fill-s" class="cls-1" d="M13.29,19.73a3.84,3.84,0,0,0-2.16-.91L9.8,18.65a1.57,1.57,0,0,1-.47-.13,1.15,1.15,0,0,1-.28-.19.76.76,0,0,1-.18-.26,1,1,0,0,1,0-.24.84.84,0,0,1,.07-.35,1.19,1.19,0,0,1,.23-.31,1.44,1.44,0,0,1,.42-.23,1.71,1.71,0,0,1,.6-.08h.41a1.84,1.84,0,0,1,.52.05,3,3,0,0,1,.58.18,2.12,2.12,0,0,1,.55.39l1.69-1.64a4,4,0,0,0-1.61-1,6.67,6.67,0,0,0-2.08-.3,5.38,5.38,0,0,0-1.69.26,3.81,3.81,0,0,0-1.26.7,3.2,3.2,0,0,0-.79,1.06,3.25,3.25,0,0,0-.28,1.34A3,3,0,0,0,7,20.07,3.9,3.9,0,0,0,9.2,21l1.31.18a1.4,1.4,0,0,1,.73.28.93.93,0,0,1,.21.62c0,.64-.52,1-1.57,1a5.08,5.08,0,0,1-1.34-.17,2.29,2.29,0,0,1-1.18-.57L5.7,24a4.43,4.43,0,0,0,1.86,1.11,8.91,8.91,0,0,0,2.3.3,6.13,6.13,0,0,0,1.64-.23,4.27,4.27,0,0,0,1.35-.63,3.3,3.3,0,0,0,.91-1.06,2.78,2.78,0,0,0,.37-1.43A4.58,4.58,0,0,0,14,20.73a2.53,2.53,0,0,0-.64-1"/><path id="fill-p" class="cls-1" d="M23.32,18.82a1.14,1.14,0,0,1-.82.31H21.05v-2H22.5a1.14,1.14,0,0,1,.82.31,1,1,0,0,1,0,1.35l0,0m1.91-3.16a3.47,3.47,0,0,0-1.18-.78,3.91,3.91,0,0,0-1.59-.3H18.21V25.41h2.65V21.55h1.62a3.75,3.75,0,0,0,1.59-.29,3.57,3.57,0,0,0,1.18-.78,3.2,3.2,0,0,0,.71-1.1,3.77,3.77,0,0,0,.23-1.29A3.71,3.71,0,0,0,26,16.81a2.9,2.9,0,0,0-.71-1.11"/><polygon id="fill-l" class="cls-1" points="42.66 14.63 42.66 25.41 49.76 25.41 49.76 23.04 45.29 23.04 45.29 14.63 42.66 14.63"/><path id="fill-a" class="cls-1" d="M58,21.51l.93-3,.87,3Zm2-6.89H57.81L53.74,25.41h2.88l.54-1.62H60.6l.51,1.62H64Z"/><path id="fill-s-2" class="cls-1" d="M86.92,19.73a3.89,3.89,0,0,0-2.12-.91l-1.32-.19a1.12,1.12,0,0,1-.47-.11,1.38,1.38,0,0,1-.28-.19.76.76,0,0,1-.18-.26,1,1,0,0,1,0-.24,1.05,1.05,0,0,1,.08-.35,1,1,0,0,1,.24-.31,1.27,1.27,0,0,1,.41-.23,1.74,1.74,0,0,1,.6-.08h.44a1.84,1.84,0,0,1,.52.05,2.9,2.9,0,0,1,.57.18,2.17,2.17,0,0,1,.56.39l1.69-1.64A4.22,4.22,0,0,0,86,14.91a7,7,0,0,0-2.09-.29,5,5,0,0,0-1.68.26,3.61,3.61,0,0,0-1.26.69,3,3,0,0,0-.79,1.06A3.1,3.1,0,0,0,79.88,18a2.89,2.89,0,0,0,.75,2.14,3.94,3.94,0,0,0,2.21.93l1.32.17a1.3,1.3,0,0,1,.73.29.88.88,0,0,1,.22.62c0,.64-.53.95-1.58.95a4.94,4.94,0,0,1-1.33-.16A2.39,2.39,0,0,1,81,22.33L79.34,24a4.31,4.31,0,0,0,1.86,1.11,8.47,8.47,0,0,0,2.35.3,6.07,6.07,0,0,0,1.64-.23,4.12,4.12,0,0,0,1.34-.63,3,3,0,0,0,.92-1.06,3,3,0,0,0,.34-1.43,4,4,0,0,0-.19-1.33,2.32,2.32,0,0,0-.62-1"/><polygon id="fill-h" class="cls-1" points="97.66 21.13 97.66 25.41 100.41 25.41 100.41 14.63 97.66 14.63 97.66 18.77 94.74 18.77 94.74 14.63 92 14.63 92 25.41 94.74 25.41 94.74 21.13 97.66 21.13"/><path id="fill-4" class="cls-2" d="M75.92,27.64h28.43V12.33H75.92Zm-37,0H67.31V12.33H39Zm-37.24,0H30.07V12.33H1.72Zm72.6-17v8.51H69V10.65H37.32v8.51H31.71V10.65L0,10.71V29.35H31.71V20.84h5.61v8.5H69v-8.5h5.31v8.5H106V10.65Z"/></svg>