<svg id="Camada_1" data-name="Camada 1" xmlns="http://www.w3.org/2000/svg" viewBox="0 0 70 40"><defs><style>.cls-1,.cls-5{opacity:0.8;}.cls-2,.cls-3,.cls-4,.cls-5{fill:#fff;}.cls-2,.cls-4,.cls-5{isolation:isolate;}.cls-2{opacity:0.85;}.cls-4{opacity:0.5;}</style></defs><g class="cls-1"><path class="cls-2" d="M5.59,30.41l-.35-.25Z"/><path class="cls-2" d="M6.91,31.17,6.53,31C6.65,31.05,6.78,31.11,6.91,31.17Z"/><path class="cls-2" d="M12.64,29.13h1A5,5,0,0,1,13,24.67c.89-3.32,4.13-6,7.2-6h0a10.18,10.18,0,0,0-8.54-4.41,10,10,0,0,0-9.4,6.07A10.44,10.44,0,0,0,12.64,29.13Z"/><path class="cls-2" d="M1.7,23.29a8.4,8.4,0,0,1,.55-3,10.32,10.32,0,0,1-.13-1.66A10.45,10.45,0,0,1,12.54,8.22h0A10.43,10.43,0,0,1,23,18.66c0,.33,0,.63,0,.94h0a4.71,4.71,0,0,1,1.13,5,3.53,3.53,0,0,1-.15.46A12.5,12.5,0,1,0,4.71,29.76,8.62,8.62,0,0,1,1.7,23.29Z"/><path class="cls-2" d="M17.48,31.51l-.15.06Z"/><path class="cls-2" d="M16.33,31.94l-.16,0Z"/><path class="cls-2" d="M22.14,28.06a.76.76,0,0,1,.11-.14A.76.76,0,0,0,22.14,28.06Z"/><path class="cls-2" d="M9.1,32l-.48-.15Z"/><path class="cls-2" d="M8,31.63a4.13,4.13,0,0,1-.45-.17Z"/><path class="cls-2" d="M10.21,32.3l-.45-.09Z"/></g><path class="cls-3" d="M69.4,23.38c-2,0-2.84-1-2.84-2.94v-12h-6v8.93a8.53,8.53,0,0,0-15.46,0V12.61H39.26V21c0,1.51-.8,2.53-2.13,2.53S35,22.49,35,21V12.61h-6v8.45c0,5.16,3.16,8.4,8.08,8.4a7.45,7.45,0,0,0,7.68-5.74,8.53,8.53,0,0,0,16.08.13c.89,3.8,3.75,5.48,7.6,5.48H70V23.38Zm-16.53.13a2.57,2.57,0,1,1,2.54-2.59h0a2.57,2.57,0,0,1-2.53,2.59Z"/><path class="cls-4" d="M12.54,8.22A10.4,10.4,0,0,0,2.25,20.32a9.91,9.91,0,0,1,9.4-6.07,10.16,10.16,0,0,1,8.53,4.41h0a4.12,4.12,0,0,1,2.77,1c0-.32,0-.64,0-1A10.43,10.43,0,0,0,12.55,8.22h0"/><path class="cls-5" d="M23,19.61a4.16,4.16,0,0,0-2.78-1h0c-3.07,0-6.31,2.68-7.2,6a5,5,0,0,0,.6,4.47c-.32,0-.63,0-.95,0A10.45,10.45,0,0,1,2.25,20.3a8.35,8.35,0,0,0-.55,3,8.64,8.64,0,0,0,3.05,6.52,12.51,12.51,0,0,0,19.16-4.53,4.35,4.35,0,0,0,.2-.61,4.73,4.73,0,0,0-1.13-5"/></svg>