<svg id="Camada_1" data-name="Camada 1" xmlns="http://www.w3.org/2000/svg" viewBox="0 0 78.32 40"><defs><style>.cls-1,.cls-5{opacity:0.8;}.cls-2,.cls-3,.cls-4,.cls-5{fill:#fff;}.cls-2{opacity:0.85;}.cls-4{opacity:0.5;}</style></defs><g class="cls-1"><path class="cls-2" d="M14,34h0Z"/><path class="cls-2" d="M6.21,31.63l-.39-.28Z"/><path class="cls-2" d="M15.38,33.93h0Z"/><path class="cls-2" d="M7.69,32.48l-.42-.21C7.4,32.35,7.55,32.41,7.69,32.48Z"/><path class="cls-2" d="M16.73,33.73l.14,0Z"/><path class="cls-2" d="M14.11,30.2c.36,0,.72,0,1.07,0a5.64,5.64,0,0,1-.68-5c1-3.71,4.62-6.72,8.06-6.73h0A11.38,11.38,0,0,0,13,13.54,11.13,11.13,0,0,0,2.47,20.33,11.71,11.71,0,0,0,14.11,30.2Z"/><path class="cls-2" d="M1.86,23.66a9.44,9.44,0,0,1,.61-3.33,12.73,12.73,0,0,1-.14-1.86A11.7,11.7,0,0,1,14,6.78h0A11.7,11.7,0,0,1,25.69,18.47c0,.37-.05.71-.05,1.06l0,0v0a5.27,5.27,0,0,1,1.26,5.62,5,5,0,0,1-.16.51A14,14,0,1,0,5.23,30.9,9.61,9.61,0,0,1,1.86,23.66Z"/><path class="cls-2" d="M19.53,32.86l-.17.07Z"/><path class="cls-2" d="M20.73,32.28l-.1,0Z"/><path class="cls-2" d="M18.24,33.34l-.18.06Z"/><path class="cls-2" d="M24.74,29a1,1,0,0,1,.13-.16A1,1,0,0,0,24.74,29Z"/><path class="cls-2" d="M23.9,29.9Z"/><path class="cls-2" d="M10.14,33.45l-.53-.16Z"/><path class="cls-2" d="M8.91,33c-.16-.06-.33-.12-.5-.2Z"/><path class="cls-2" d="M12.68,33.93l-.42,0Z"/><path class="cls-2" d="M11.39,33.75l-.51-.11Z"/></g><path class="cls-3" d="M77.66,23.76c-2.18,0-3.18-1.11-3.18-3.29V7H67.81V17A9.54,9.54,0,0,0,50.5,17V11.7H43.91v9.37c0,1.69-.89,2.83-2.38,2.83s-2.38-1.14-2.38-2.83V11.7H32.48v9.46c0,5.78,3.54,9.41,9.05,9.41,4.42,0,7.57-2.46,8.6-6.43a9.55,9.55,0,0,0,18,.15c1,4.25,4.2,6.13,8.51,6.13h1.69V23.76Zm-18.51.14A2.87,2.87,0,1,1,62,21h0A2.87,2.87,0,0,1,59.15,23.9Z"/><path class="cls-4" d="M14,6.78A11.69,11.69,0,0,0,2.32,18.47a11.48,11.48,0,0,0,.15,1.86A11.1,11.1,0,0,1,13,13.54a11.37,11.37,0,0,1,9.55,4.93h0a4.61,4.61,0,0,1,3.1,1.09c0-.36.05-.72.05-1.09A11.69,11.69,0,0,0,14,6.78h0"/><path class="cls-5" d="M25.68,19.54a4.66,4.66,0,0,0-3.11-1.09h0c-3.44,0-7.06,3-8.06,6.72a5.6,5.6,0,0,0,.67,5,9.4,9.4,0,0,1-1.06.05A11.69,11.69,0,0,1,2.48,20.31a9.22,9.22,0,0,0-.62,3.32,9.67,9.67,0,0,0,3.41,7.29,14,14,0,0,0,21.46-5.07c.08-.22.16-.45.22-.68a5.28,5.28,0,0,0-1.27-5.61"/></svg>