<svg id="Camada_1" data-name="Camada 1" xmlns="http://www.w3.org/2000/svg" viewBox="0 0 85.74 40"><defs><style>.cls-1{fill:#fff;}</style></defs><path class="cls-1" d="M11.46,6.19a13.77,13.77,0,0,0-7.6,4.19,12.93,12.93,0,0,0-3.84,9A13.55,13.55,0,0,0,3.74,29.49,13.83,13.83,0,0,0,18.5,33.22,14,14,0,0,0,27.24,15.4c-.06-.18-.12-.36-.19-.54a14.22,14.22,0,0,0-9.54-8.44A16.21,16.21,0,0,0,11.46,6.19Zm5.54,1a10.79,10.79,0,0,1,5.38,3,10.33,10.33,0,0,1,3.38,7.15l.1,1.46-.55-.42a4.25,4.25,0,0,0-2.63-.94,1.45,1.45,0,0,1-1.42-.67A12.77,12.77,0,0,0,12.18,13a10.34,10.34,0,0,0-8,3.17L2.91,17.48,3,16.6a12,12,0,0,1,2.75-5.94,12.23,12.23,0,0,1,6.12-3.5A14.62,14.62,0,0,1,17,7.18ZM5,10.38a15.24,15.24,0,0,0-2.79,5.24A12.93,12.93,0,0,0,2,18.18a8.32,8.32,0,0,1-.26,2.38,12.08,12.08,0,0,0-.19,4.11l.11.66-.24-.54a13.9,13.9,0,0,1-.75-6.67,13.39,13.39,0,0,1,3.9-7.69A16.91,16.91,0,0,1,6,9.07,7.79,7.79,0,0,1,5,10.38ZM26,14a18.17,18.17,0,0,1,1.08,2.63,16.87,16.87,0,0,1,.21,5.67l-.22,1.23L27,22.26a8.27,8.27,0,0,0-.28-1.64,7.34,7.34,0,0,1-.09-1.81,9.68,9.68,0,0,0-.16-2.63,14.79,14.79,0,0,0-2.15-4.73l-.64-.82.76.82A12.84,12.84,0,0,1,26,13.92Zm-11.1,1.42A13.15,13.15,0,0,1,19,17.69c.54.47.61.6.41.73a11.4,11.4,0,0,0-4.69,6.45,9.63,9.63,0,0,0,0,4c.13.3.07.31-1.33.23A11.55,11.55,0,0,1,3.28,20.66c-.33-1.27-.33-1.28,0-1.81a10.06,10.06,0,0,1,5.77-3.78A12.55,12.55,0,0,1,14.89,15.38Zm9.53,4.37a3.69,3.69,0,0,1,1,.6c.26.29.26.38-.12,1.43a8.77,8.77,0,0,1-.76,1.61l-.31.51-.12-1.13a11.38,11.38,0,0,0-.44-2.24c-.46-1.27-.4-1.33.79-.79ZM22.06,21.5a7.83,7.83,0,0,1,.69,3.79c-.09.56-.26.82-.93,1.38a13.22,13.22,0,0,1-5.88,2.46c-.39,0-.56-1.28-.34-2.55a9.1,9.1,0,0,1,4.74-6.48l.66-.34.31.36a9.93,9.93,0,0,1,.74,1.36ZM4.14,24.56a12.35,12.35,0,0,0,9.57,5.18c1.38.1,1.51.13,1.88.57a4.4,4.4,0,0,0,2.33,1.29l.87.28-.87.43a10,10,0,0,1-4.61.93A10.64,10.64,0,0,1,8.07,32a11.36,11.36,0,0,1-5.7-6.75,10.42,10.42,0,0,1-.14-3.65c.1-.49.13-.47.64.71A16.74,16.74,0,0,0,4.14,24.56Zm22.31-1.14A9.23,9.23,0,0,1,22,30.58c-1.18.69-1.35.66-.62-.1a9.62,9.62,0,0,0,2.22-3.79,10.47,10.47,0,0,1,1-2.18,15.9,15.9,0,0,0,1.05-1.89c.48-1,.55-1.09.64-.73A8.78,8.78,0,0,1,26.45,23.42Zm-4.07,3.87c-.48,1.66-2.46,4.14-3.31,4.14a4.29,4.29,0,0,1-2.57-1.12l-.6-.58,1.39-.35a14.55,14.55,0,0,0,4.49-2l.69-.52A3.58,3.58,0,0,1,22.38,27.29ZM21,31.5A9.8,9.8,0,0,1,20,32c-.49.25-.76.32-.57.17a4.65,4.65,0,0,1,1.46-.73C21,31.43,21.06,31.47,21,31.5Z"/><path class="cls-1" d="M60.14,10.36a9.9,9.9,0,0,0-7.77,5.47l-.62,1.26-.07-2.2c-.12-3.59-.61-4.08-4-4.1H45.6v5.64c0,6.23-.06,6.63-1.2,7.3a3.9,3.9,0,0,1-3,0c-1-.62-1.13-1.13-1.28-6.45-.11-4.53-.13-4.89-.51-5.4-.64-.84-1.3-1.07-3.52-1.14l-2-.08.06,6.26c.08,5.87.09,6.36.49,7.55C35.71,27.68,38,29.3,42,29.62c5.14.41,8.64-1.71,9.47-5.72.34-1.67.35-1.69.82-.51a10.07,10.07,0,0,0,18.57,0c.32-.75.32-.73.32,2.51v3.25l6.36-.06c7-.05,7.13-.09,7.8-1.24a4.45,4.45,0,0,0,.4-2.35V23.77l-4.27-.06H77.15V18.26c0-4.76,0-5.47-.34-6-.6-1.2-1.11-1.43-3.54-1.48l-2.14-.08v6.65l-.34-1a9.19,9.19,0,0,0-2.29-3.49,8.2,8.2,0,0,0-3.84-2.2A9.48,9.48,0,0,0,60.14,10.36ZM63,16.08a4.21,4.21,0,0,1,2.15,5.56,4.12,4.12,0,0,1-1,1.44,4.06,4.06,0,0,1-5.72-.41,4.54,4.54,0,0,1-.48-.67,4.58,4.58,0,0,1,.79-5.21A4.19,4.19,0,0,1,63,16.08Z"/></svg>