<?xml version="1.0" encoding="utf-8"?>
<!-- Generator: Adobe Illustrator 25.0.1, SVG Export Plug-In . SVG Version: 6.00 Build 0)  -->
<svg version="1.1" id="Camada_1" xmlns="http://www.w3.org/2000/svg" xmlns:xlink="http://www.w3.org/1999/xlink" x="0px" y="0px"
	 viewBox="0 0 100 40" style="enable-background:new 0 0 100 40;" xml:space="preserve">
<style type="text/css">
	.st0{fill:#FFFFFF;}
</style>
<g>
	<path class="st0" d="M0.4,5.8v16.6C0.6,28.9,6,34,12.4,33.8c6.2-0.2,11.3-5.2,11.4-11.4V5.8H0.4z"/>
	<path class="st0" d="M34.8,9.8c0-0.4-0.3-0.6-0.7-0.6h-0.3v1.1h0.3C34.5,10.4,34.8,10.2,34.8,9.8z"/>
	<path class="st0" d="M42.2,15.1h-0.7V16h0.7c0.4,0,0.6-0.2,0.6-0.4C42.7,15.3,42.6,15.1,42.2,15.1z"/>
	<ellipse class="st0" cx="36.7" cy="16.4" rx="1.1" ry="1.3"/>
	<path class="st0" d="M37,5.8H25.3v27.8h12.8v-4.5c6.4-0.7,11.1-6.5,10.4-12.9C47.8,10.4,42.9,5.9,37,5.8z M39.4,16.4
		c0,1.5-1.1,2.7-2.6,2.7c-1.5,0-2.7-1.1-2.7-2.6c0-1.5,1.1-2.7,2.6-2.7c0,0,0,0,0,0c1.4,0,2.6,1.1,2.7,2.5
		C39.4,16.3,39.4,16.4,39.4,16.4z M32.4,8h1.9c1-0.1,1.9,0.6,2,1.5c0,0.1,0,0.2,0,0.3c0,1-0.8,1.8-1.8,1.9c-0.1,0-0.2,0-0.2,0h-0.5
		v1.4h-1.4V8z M27.5,8h1.4v3.1c0,0.5,0.2,0.7,0.6,0.7c0.4,0,0.6-0.3,0.6-0.7V8h1.4v3.4c0,1-0.7,1.8-2.1,1.8c-1,0.1-1.9-0.6-2.1-1.6
		c0-0.1,0-0.1,0-0.2L27.5,8z M28.6,13.9l0.4,2.8l0,0l0.8-2.8h1.4l0.7,2.8l0,0l0.5-2.8h1.5l-1.1,5.1h-1.6l-0.7-2.8l-0.7,2.8H28
		l-1-5.1L28.6,13.9z M39.6,22.8v2h-1.4v-2l-1.8-3.1v5.1h-1.4v-1.9h-1.6v1.9h-1.5V21h-1.5v3.7h-1.5V21h-1.4v-1.3h5.8v1.9h1.6v-1.9
		h3.3l0.8,1.5l0,0l0.8-1.5h1.7L39.6,22.8z M42.8,19l-0.9-1.7h-0.5v1.7H40v-5.1h2.3c1-0.1,1.8,0.6,1.9,1.5c0,0,0,0.1,0,0.1
		c0,0.6-0.3,1.2-0.9,1.5l1.1,1.9L42.8,19z"/>
</g>
</svg>
