<svg id="Camada_1" data-name="Camada 1" xmlns="http://www.w3.org/2000/svg" viewBox="0 0 70 40"><defs><style>.cls-1{fill:#fff;fill-rule:evenodd;}</style></defs><path class="cls-1" d="M38,8.44c-.39,0-1.24.08-1.92.08H31.84a.09.09,0,0,0-.09.09v.44a.11.11,0,0,0,.09.11h2.4a.07.07,0,0,1,.07.06v0h0V30.55a.06.06,0,0,1,0,.08H32.53c-1.29,0-2-.38-2-2.1V21.26c0-4.08-1.54-5.89-6.68-5.89-2.7,0-5.69,1.07-5.69,3.67A1.81,1.81,0,0,0,20,20.77h.13c1.3,0,1.92-.7,1.92-1.75,0-.55-.09-1.13-.09-1.8,0-.92.67-1.21,1.71-1.21,2.05,0,2.95,1,2.95,3.31v1.49c0,.38-.07.55-.93.77s-2,.52-3,.7c-4.2.77-5.55,2.47-5.55,4.63,0,3.08,2.46,4.62,5.39,4.62a4.42,4.42,0,0,0,4-2.2h.09c.13.88.77,2,3.21,2H40.71a.1.1,0,0,0,.08-.1v-.49a.09.09,0,0,0-.08-.08H38.25s-.09,0-.09-.09v-22c0-.07,0-.11-.13-.11ZM.09,8.51A.09.09,0,0,0,0,8.6v.45a.1.1,0,0,0,.08.11H2.19a.23.23,0,0,1,.23.18L10.9,31.21a.17.17,0,0,0,.14.09h.52a.15.15,0,0,0,.11-.08l8-21.52c.12-.32.23-.52.62-.52h1.91s.07,0,.07-.09V8.61a.07.07,0,0,0-.06-.07H16.54a.09.09,0,0,0-.1.09v.42a.14.14,0,0,0,.11.11h2.16c.19,0,.34.09.34.23L19,9.71,13.15,25.43h0l-6-16.11V9.25c0-.05,0-.09.14-.09H9.58a.18.18,0,0,0,.1-.09V8.61s-.08-.07-.12-.07H.1Zm48.07,6.86c-4.63,0-7.85,3.27-7.85,8.15s3.2,8,7.86,8S56,28.4,56,23.54s-3.2-8.17-7.84-8.17Zm18.91,0a5.09,5.09,0,0,0-4.69,3.47h-.09V15.68c0-.08-.06-.12-.14-.12-.37,0-1.22.08-1.92.08H56.1a.08.08,0,0,0-.08.07h0v.47c0,.05,0,.09.08.09h2.38c.06,0,.09,0,.09.08V30.51a.09.09,0,0,1-.08.09H56s-.07,0-.08.08v.53a.09.09,0,0,0,.06.07h8.9A.09.09,0,0,0,65,31.2h0v-.51s0-.07-.06-.07H62.44a.08.08,0,0,1-.07-.08v-8a7.49,7.49,0,0,1,1.09-4.4c.63-.9,1.48-1.89,2.31-1.89.24,0,.44.1.44.34,0,.4-.24,1-.24,1.81a1.78,1.78,0,0,0,1.55,2,2.41,2.41,0,0,0,.38,0c1.49,0,2.1-.7,2.1-2.22S69.38,15.37,67.07,15.37ZM48.21,16a3.66,3.66,0,0,1,1.91.5c1,.74,1.71,2.65,1.71,6.94s-.7,6.17-1.72,6.89a3.49,3.49,0,0,1-1.91.53,3.79,3.79,0,0,1-2-.45c-1-.7-1.71-2.51-1.71-6.87s.7-6.25,1.73-7a3.5,3.5,0,0,1,1.92-.51ZM26.71,22V27.1a3.33,3.33,0,0,1-3.17,3.5h-.11c-1.31,0-2.1-1.46-2.1-3.64,0-2.77.61-3.73,2.46-4.2A26.61,26.61,0,0,0,26.67,22Z"/></svg>