<svg id="Camada_1" data-name="Camada 1" xmlns="http://www.w3.org/2000/svg" viewBox="0 0 100 40"><defs><style>.cls-1{fill:#fff;fill-rule:evenodd;}</style></defs><path class="cls-1" d="M54.31,3.49c-.55,0-1.76.12-2.74.12H45.46a.15.15,0,0,0-.14.13v.63a.16.16,0,0,0,.14.15h3.42a.11.11,0,0,1,.11.12V35.07a.1.1,0,0,1-.11.11H46.44c-1.84,0-2.8-.54-2.8-3V21.79c0-5.82-2.24-8.4-9.53-8.4-3.86,0-8.12,1.52-8.12,5.23a2.57,2.57,0,0,0,2.83,2.48c1.86,0,2.74-1,2.74-2.5,0-.78-.12-1.62-.12-2.57,0-1.31.94-1.72,2.44-1.72,2.93,0,4.2,1.36,4.2,4.72v2.13c0,.55-.1.78-1.33,1.11-1,.28-2.79.75-4.24,1-6,1.09-7.92,3.52-7.92,6.58,0,4.43,3.51,6.58,7.67,6.58A6.33,6.33,0,0,0,38,33.29h.12c.19,1.25,1.11,2.81,4.59,2.81H58.06a.13.13,0,0,0,.11-.14v-.7a.13.13,0,0,0-.11-.12H54.54a.13.13,0,0,1-.12-.13V3.67c0-.1-.06-.16-.19-.16ZM.12,3.59A.13.13,0,0,0,0,3.72v.65a.14.14,0,0,0,.12.15h3a.35.35,0,0,1,.34.26L15.52,36a.24.24,0,0,0,.2.14h.82c.06,0,.12-.06.16-.12L28.1,5.29c.16-.45.33-.73.88-.73h2.73s.1-.07.1-.13V3.74a.11.11,0,0,0-.12-.11H23.61a.14.14,0,0,0-.14.13v.61a.18.18,0,0,0,.16.15h3.08c.28,0,.49.14.49.34l-.08.45L18.77,27.76h-.1l-8.5-23v-.1c0-.08,0-.14.2-.14h3.32a.16.16,0,0,0,.14-.13V3.74c0-.07-.1-.11-.16-.11H.14Zm68.64,9.84c-6.64,0-11.21,4.65-11.21,11.62s4.57,11.46,11.23,11.46S80,32,80,25.05,75.43,13.43,68.8,13.43Zm27,0a7.23,7.23,0,0,0-6.69,4.94h-.14V13.82c0-.1-.08-.16-.2-.16-.52,0-1.75.12-2.73.12h-5.9a.11.11,0,0,0-.12.12v.66c0,.08,0,.14.12.14H83.5c.08,0,.12,0,.12.1V35a.12.12,0,0,1-.14.13H80a.13.13,0,0,0-.11.12V36a.09.09,0,0,0,.09.1h12.7a.11.11,0,0,0,.11-.12v-.72c0-.06,0-.12-.09-.12H89.18s-.12,0-.12-.11V23.68c0-3.12.75-5.23,1.57-6.29.9-1.29,2.11-2.69,3.32-2.69.33,0,.62.13.62.47,0,.58-.33,1.4-.33,2.59A2.53,2.53,0,0,0,97,20.58c2.13,0,3-1,3-3.17C100,15.42,99,13.43,95.74,13.43Zm-26.94.92a5.23,5.23,0,0,1,2.73.72C72.93,16.12,74,18.84,74,25s-1,8.79-2.46,9.84a4.91,4.91,0,0,1-2.73.74A5.24,5.24,0,0,1,66,34.89c-1.42-1-2.46-3.59-2.46-9.8s1-8.93,2.48-10a5.06,5.06,0,0,1,2.74-.74ZM38.14,22.82v7.32a4.77,4.77,0,0,1-4.69,5c-1.87,0-3-2.07-3-5.19,0-3.95.88-5.33,3.52-6a36.33,36.33,0,0,0,4.1-1.1Z"/></svg>