<svg id="Camada_1" data-name="Camada 1" xmlns="http://www.w3.org/2000/svg" viewBox="0 0 90.85 40"><defs><style>.cls-1{fill:#fff;fill-rule:evenodd;}</style></defs><path class="cls-1" d="M49.34,5c-.5,0-1.6.11-2.49.11H41.3a.12.12,0,0,0-.12.12V5.8a.14.14,0,0,0,.12.14h3.11a.09.09,0,0,1,.1.1h0V33.69a.08.08,0,0,1-.08.1H42.19c-1.67,0-2.54-.49-2.54-2.72V21.63c0-5.29-2-7.64-8.66-7.64-3.51,0-7.38,1.39-7.38,4.76A2.34,2.34,0,0,0,26,21h.16c1.69,0,2.49-.91,2.49-2.27,0-.71-.11-1.47-.11-2.34,0-1.19.86-1.56,2.22-1.56,2.66,0,3.82,1.24,3.82,4.29v1.93c0,.5-.09.71-1.21,1-.91.26-2.54.68-3.85.91-5.45,1-7.2,3.2-7.2,6,0,4,3.19,6,7,6a5.74,5.74,0,0,0,5.21-2.86h.11c.18,1.14,1,2.56,4.17,2.56h14a.12.12,0,0,0,.1-.13v-.64a.1.1,0,0,0-.1-.1h-3.2a.13.13,0,0,1-.11-.12V5.16c0-.09,0-.14-.17-.14ZM.11,5.09A.13.13,0,0,0,0,5.21V5.8a.12.12,0,0,0,.11.14H2.84a.3.3,0,0,1,.3.23l11,28.37a.2.2,0,0,0,.18.12H15a.19.19,0,0,0,.14-.11L25.53,6.64c.15-.41.3-.67.8-.67h2.48s.09-.06.09-.12V5.23a.09.09,0,0,0-.1-.1H21.45a.13.13,0,0,0-.13.12V5.8a.19.19,0,0,0,.15.14h2.8c.25,0,.44.12.44.3l-.07.41-7.59,20.4H17L9.24,6.15V6.06c0-.07,0-.12.18-.12h3a.18.18,0,0,0,.13-.12V5.23c0-.07-.1-.1-.15-.1H.13ZM62.47,14c-6,0-10.18,4.23-10.18,10.56S56.44,35,62.49,35s10.19-4.1,10.19-10.41S68.53,14,62.51,14ZM87,14a6.58,6.58,0,0,0-6.08,4.49H80.8V14.39c0-.1-.08-.15-.18-.15-.48,0-1.59.11-2.49.11H72.77a.09.09,0,0,0-.1.09s0,0,0,0v.6c0,.07,0,.12.1.12h3.09c.08,0,.11,0,.11.1V33.63a.11.11,0,0,1-.1.12H72.68c-.05,0-.09,0-.1.11v.68a.09.09,0,0,0,.08.09H84.2a.1.1,0,0,0,.1-.1h0v-.66s0-.1-.08-.1H81a.1.1,0,0,1-.1-.1V23.34a9.68,9.68,0,0,1,1.42-5.71c.82-1.17,1.92-2.45,3-2.45.3,0,.56.12.56.43,0,.53-.3,1.27-.3,2.35a2.3,2.3,0,0,0,2,2.56,2.77,2.77,0,0,0,.5,0c1.93,0,2.72-.91,2.72-2.88C90.85,15.84,90,14,87,14Zm-24.47.84a4.7,4.7,0,0,1,2.48.65c1.25.95,2.22,3.43,2.22,9s-.91,8-2.23,8.94a4.47,4.47,0,0,1-2.48.68A4.87,4.87,0,0,1,60,33.53c-1.29-.91-2.23-3.26-2.23-8.91s.91-8.11,2.25-9.08a4.55,4.55,0,0,1,2.49-.67ZM34.65,22.56v6.65a4.33,4.33,0,0,1-4.12,4.54h-.14c-1.7,0-2.72-1.89-2.72-4.72,0-3.59.79-4.84,3.19-5.45a34.17,34.17,0,0,0,3.73-1Z"/></svg>