<svg xmlns="http://www.w3.org/2000/svg" viewBox="0 0 77.58 40"><defs><style>.a{fill:#fff;}</style></defs><title>Variety_2013_logo</title><path class="a" d="M77.47,15.87l-.11.5-1,.27a1.21,1.21,0,0,0-.55.41l-4.62,5.88-1.73,5.78c-.09.3,0,.47.22.52l1.21.3-.16.5H64.65l.16-.5,1.13-.27a.75.75,0,0,0,.58-.61l1.73-5.83-1.51-5.69c-.07-.27-.15-.5-.44-.58l-.72-.19.11-.5h5.17l-.11.5-.88.25c-.31.09-.38.24-.3.55L70.81,22l3.68-4.9a.49.49,0,0,0,.11-.27c0-.11-.09-.19-.22-.22l-1-.25.14-.5Z"/><path class="a" d="M65.42,19.09h-.69l-.6-1.84a.54.54,0,0,0-.6-.44H62L58.46,28.72c-.09.3,0,.47.27.55l1,.27-.17.5H53.65l.17-.5,1-.25a.75.75,0,0,0,.69-.66l3.52-11.82H57.31a.84.84,0,0,0-.66.41l-1.24,1.7h-.69l1.1-3.41h.44a.53.53,0,0,0,.52.36h7.4a.7.7,0,0,0,.72-.36h.47Z"/><path class="a" d="M54.45,18.93h-.69l-.66-1.76a.53.53,0,0,0-.55-.36h-2.8l-1.6,5.39h2.67c.27,0,.44-.14.63-.41l.74-1.07h.69L51.62,25h-.69l0-1.51c0-.27-.16-.36-.44-.36H47.88l-1.76,5.94H50a1,1,0,0,0,1-.44l1.54-1.93h.74L51.7,30.42h-.5c-.14-.27-.33-.38-.83-.38H41.5l.17-.5,1.07-.27a.76.76,0,0,0,.55-.6l3.41-11.52c.07-.22,0-.42-.17-.47l-1-.3.14-.5h7.67a.65.65,0,0,0,.6-.36h.44Z"/><path class="a" d="M77.33,12.16a100.73,100.73,0,0,1-21.07,2.23,148.42,148.42,0,0,1-33.52-3.46l-21,19.85L.05,31,6.21,12.24a22.72,22.72,0,0,1-5.8,1.49c-.48,0-.49-.23-.27-.36a5.5,5.5,0,0,0,2.8-3.19c3,.74,5.31.17,8.06-.85L5.42,25.11,20.27,9a137.13,137.13,0,0,0,27.28,2.86c7.22,0,13.57-1.14,16.83-2.47,4.59,2.73,9.84,2.5,12.84,2.31.44,0,.49.38.11.47"/><path class="a" d="M45,15.87l-.14.5-1.16.33a.57.57,0,0,0-.41.47L39.9,28.61c-.1.34-.18.56.25.69l.83.25-.17.5H35.34l.16-.5.8-.25a.84.84,0,0,0,.69-.66l3.38-11.49a.34.34,0,0,0-.19-.47l-.91-.3.14-.5Z"/><path class="a" d="M36.85,19.37a4,4,0,0,1-4.48,3.9A7,7,0,0,1,30.77,23c0,2.63.81,5.31,2.36,5.31,1,0,1.25-.81,1.37-1.48,0-.11.11-.19.25-.06a2.23,2.23,0,0,1,.69,1.65c0,1.61-1,2.34-2.56,2.34-3.9,0-4.07-5.6-3.44-9,0-.19.11-.22.25-.14a3.46,3.46,0,0,0,1.87.47A2.55,2.55,0,0,0,34,19.26c0-1.8-1.5-2.91-3.71-2.91L26.65,28.66a1.1,1.1,0,0,0-.06.3.28.28,0,0,0,.25.3l1,.27-.17.5H22.25l.17-.5.82-.25c.25-.08.38-.23.5-.63l3.63-12.32c-1.57.33-2.34.91-2.34,1.81a1.52,1.52,0,0,0,.28,1,.47.47,0,0,1,.08.28c0,.2-.18.38-.69.38a1.47,1.47,0,0,1-1.57-1.62c0-.68.42-3,6.43-3,5.09,0,7.29,1.64,7.29,4.18"/><path class="a" d="M19.19,18.38l-5.64,7h5Zm2.92,11.17-.17.5H16.77l.17-.5.91-.25a.55.55,0,0,0,.41-.55l.22-2.39h-5.8l-1.9,2.31a.66.66,0,0,0-.19.36c0,.12.07.2.22.25l.88.27-.17.5H7.18l.19-.5.91-.22a1.8,1.8,0,0,0,.88-.6L20.9,14.91l1.21-.22L21,28.77c0,.3,0,.49.36.58Z"/></svg>