<svg id="Camada_1" data-name="Camada 1" xmlns="http://www.w3.org/2000/svg" viewBox="0 0 100 40"><defs><style>.cls-1{fill:#fff;}</style></defs><path class="cls-1" d="M40.5,7.12V9.25h4V5h-4Z"/><path class="cls-1" d="M55.15,10a15.63,15.63,0,0,0-3.85.47,7.68,7.68,0,0,0-2.17,1A5.41,5.41,0,0,0,47,14.31,5,5,0,0,0,46.75,16v.43h4.4v-.2a2.37,2.37,0,0,1,.78-1.72,3.36,3.36,0,0,1,.9-.63,6.49,6.49,0,0,1,2.27-.6c.26,0,1.18,0,1.42,0a5,5,0,0,1,1.69.44,2.47,2.47,0,0,1,1.15,1.08,2,2,0,0,1,.2.79,1.32,1.32,0,0,1-.4,1.16,2.6,2.6,0,0,1-.27.24,4.08,4.08,0,0,1-1.78.53c-.19,0-5.12.32-6.07.37A6,6,0,0,0,47.6,19a5.3,5.3,0,0,0-.82.82,4.92,4.92,0,0,0-.9,2.32A6.21,6.21,0,0,0,46,24.68a5.59,5.59,0,0,0,1,1.88,8.43,8.43,0,0,0,.78.8,8.43,8.43,0,0,0,4.33,1.69,17.25,17.25,0,0,0,2.25.1,9.65,9.65,0,0,0,4.42-1.28,8.81,8.81,0,0,0,.8-.51l.06-.05v1.06h4.09V21.75c0-7.16,0-6.64-.08-7.1a4.76,4.76,0,0,0-1.07-2.28,7.17,7.17,0,0,0-.69-.66,6.23,6.23,0,0,0-.8-.54,10,10,0,0,0-4.31-1.12C56.5,10,55.52,10,55.15,10Zm4.53,11.22a4.6,4.6,0,0,1-.93,2.6,3.9,3.9,0,0,1-.57.58,5,5,0,0,1-1.78.92,7.8,7.8,0,0,1-3.26.2A3.29,3.29,0,0,1,50.59,24a2,2,0,0,1-.07-1.57,1.53,1.53,0,0,1,.7-.7,4.84,4.84,0,0,1,1.65-.37c.66-.07.7-.07,1.68-.15,1.31-.11,1.87-.17,2.5-.27a7.24,7.24,0,0,0,2.5-.74l.14-.08v.44C59.7,20.82,59.69,21.12,59.68,21.25Z"/><path class="cls-1" d="M28.66,10.25a9.51,9.51,0,0,0-8.77,8.86c0,.33,0,1.21,0,1.56A10,10,0,0,0,21,24.49a8.54,8.54,0,0,0,2.86,3.14,9.34,9.34,0,0,0,3.92,1.44,12.6,12.6,0,0,0,2.74.06,9.83,9.83,0,0,0,8.36-6.66c.05-.13.08-.24.08-.24s-1,0-2.29,0H34.4l0,.08a7.18,7.18,0,0,1-.48,1,4.86,4.86,0,0,1-3.78,2.37,6.6,6.6,0,0,1-1.53,0,4.72,4.72,0,0,1-4-4.11,5.1,5.1,0,0,1,0-.73v-.11h14.8v-.32c0-.5,0-1.27-.06-1.55A9.14,9.14,0,0,0,37.38,14a10.06,10.06,0,0,0-7.29-3.72Zm1.41,3.4a5.46,5.46,0,0,1,3,1.28,4.55,4.55,0,0,1,1.39,2.12,5.07,5.07,0,0,1,.13.63s0,0-5,0h-5v-.07a4.74,4.74,0,0,1,4.32-4A10.5,10.5,0,0,1,30.07,13.65Z"/><path class="cls-1" d="M.27,10.47s2.09,4,4.63,9l4.63,8.94h3.24l4.63-8.95L22,10.46H17l-2.92,6.34-2.92,6.34-3-6.35-3-6.35H2.7C1.37,10.45.27,10.46.27,10.47Z"/><path class="cls-1" d="M40.36,19.88c0,8.08,0,9.27,0,9.39a2.42,2.42,0,0,1-2,2c-.08,0-.33,0-.84,0h-.72V35h1.09a7.78,7.78,0,0,0,3.39-.55A4.9,4.9,0,0,0,43.08,33,5.33,5.33,0,0,0,44,31.21,8.87,8.87,0,0,0,44.42,29c0-.16,0-3.37,0-9.29v-9H40.36Z"/></svg>