<svg id="Camada_1" data-name="Camada 1" xmlns="http://www.w3.org/2000/svg" viewBox="0 0 60 40"><defs><style>.cls-1{fill:#fff;}</style></defs><path class="cls-1" d="M38,7.82v2h3.78v-4H38Z"/><path class="cls-1" d="M51.89,10.54a14.4,14.4,0,0,0-3.64.44,7.36,7.36,0,0,0-2,.95,5.1,5.1,0,0,0-2,2.68,4.6,4.6,0,0,0-.23,1.6v.41h4.16v-.19a2.25,2.25,0,0,1,.73-1.63,3.32,3.32,0,0,1,.85-.59,6.23,6.23,0,0,1,2.15-.57h1.34a4.41,4.41,0,0,1,1.6.42,2.3,2.3,0,0,1,1.09,1,1.88,1.88,0,0,1,.19.74,1.25,1.25,0,0,1-.38,1.1l-.26.23a4,4,0,0,1-1.68.5c-.18,0-4.84.3-5.74.35a5.67,5.67,0,0,0-3.25,1.05,5.17,5.17,0,0,0-.78.77,4.72,4.72,0,0,0-.85,2.2,5.72,5.72,0,0,0,.12,2.4,5.44,5.44,0,0,0,.94,1.78,8.73,8.73,0,0,0,.74.75A8,8,0,0,0,49,28.55a15.18,15.18,0,0,0,2.13.09,9.07,9.07,0,0,0,4.18-1.21,6.88,6.88,0,0,0,.76-.48l.05-.05v1H60V21.65c0-6.77,0-6.28-.08-6.72a4.37,4.37,0,0,0-1-2.15,7.76,7.76,0,0,0-.65-.63,6.72,6.72,0,0,0-.76-.51,9.46,9.46,0,0,0-4.07-1.05A15,15,0,0,0,51.89,10.54Zm4.28,10.61a4.28,4.28,0,0,1-.88,2.45,3.13,3.13,0,0,1-.54.55,4.65,4.65,0,0,1-1.68.87,7.28,7.28,0,0,1-3.08.19,3.1,3.1,0,0,1-2.41-1.44,1.86,1.86,0,0,1-.07-1.48,1.41,1.41,0,0,1,.66-.66,4.47,4.47,0,0,1,1.56-.35c.63-.07.66-.07,1.59-.14,1.24-.11,1.77-.16,2.36-.26a6.76,6.76,0,0,0,2.37-.7l.13-.07v.41a6.26,6.26,0,0,1,0,.65Z"/><path class="cls-1" d="M26.84,10.77a9,9,0,0,0-8.29,8.38v1.48a9.34,9.34,0,0,0,1.05,3.61,8.2,8.2,0,0,0,2.7,3A9,9,0,0,0,26,28.57a12.47,12.47,0,0,0,2.59.06,9.29,9.29,0,0,0,7.9-6.3,2.13,2.13,0,0,0,.08-.23H32.27v.08a8.1,8.1,0,0,1-.45.94,4.59,4.59,0,0,1-3.58,2.24,5.86,5.86,0,0,1-1.45,0A4.46,4.46,0,0,1,23,21.48q0-.35,0-.69v-.11H37v-.3A10.27,10.27,0,0,0,37,18.92a8.7,8.7,0,0,0-1.86-4.6,9.54,9.54,0,0,0-6.9-3.52ZM28.18,14A5.15,5.15,0,0,1,31,15.2a4.29,4.29,0,0,1,1.32,2q.08.3.12.6H23v-.07A4.49,4.49,0,0,1,27.08,14,10.2,10.2,0,0,1,28.18,14Z"/><path class="cls-1" d="M0,11s2,3.78,4.38,8.51l4.38,8.45h3.06l4.38-8.46L20.55,11H15.82l-2.76,6L10.3,23,7.46,17,4.62,11H2.3Z"/><path class="cls-1" d="M37.9,19.88v8.88A2.28,2.28,0,0,1,36,30.65H34.54v3.53h1a7.44,7.44,0,0,0,3.2-.52,4.69,4.69,0,0,0,1.71-1.38,5,5,0,0,0,.87-1.69,8.29,8.29,0,0,0,.39-2.09V11.21H37.9Z"/></svg>