<svg id="Camada_1" data-name="Camada 1" xmlns="http://www.w3.org/2000/svg" viewBox="0 0 76.07 40"><defs><style>.cls-1{fill:#fff;}</style></defs><title>vice</title><path class="cls-1" d="M50.09,14c.63.72,2,.68,2.84,1.2a32.58,32.58,0,0,0-3.52.67c.24-.62.45-1.26.68-1.9"/><path class="cls-1" d="M42.22,16.5c-.33,1.53-1,3.26-1.41,4.95,2.15,0,4.41-.41,6.62-.54A4.69,4.69,0,0,0,48,19.42a3,3,0,0,1,.34,2.7c-3.36,0-5.78,2.7-9.07,2.7-1.47,0-2.72-.85-2-2.49,1-2.35,3.42-4,4.94-5.83"/><path class="cls-1" d="M52.52,11.29c-.86.11-1.46,1.05-2,1.36,0,0,.09,0,.06-.07a8,8,0,0,0,.34-1.36C46.4,9.64,42,12,38.8,13.73a28.26,28.26,0,0,0-6.5,4.73,32.76,32.76,0,0,1,1.89-2.9c.7-1,1.48-1.81,2.1-2.65-1.34-.34-2.7-.73-4-1-1.94-.4-4.62-1.09-6.22-.2-.47.26-.84.89-1.29,1a8.55,8.55,0,0,1-1.41-.27,15,15,0,0,0-4.67.27c-1.4.27-4.36.75-4.73,2.1-.24.85.3,1.67.2,2.51a7.75,7.75,0,0,1-1.28,2.57A4.43,4.43,0,0,1,11,21.71a16.75,16.75,0,0,1,.48-6.9c.26-1.32.8-2.66.33-4-1.28-.18-2.4.84-3.6,1.36-2.4.95-5.1,1.82-5.42,4.59a6.66,6.66,0,0,0,.8,3.6,26.88,26.88,0,0,0,3.32,6.21c-.36.66-1.2.83-1.28,1.76a2.31,2.31,0,0,0,2,.61,11.77,11.77,0,0,0,5.82-2.1c3.67-2.07,6.13-5.25,8.72-8.25a5.91,5.91,0,0,1,1.42-1.49c.58,2.67-.55,4.11-1.36,6.29-.31.84-1.28,3.48-.8,4.73s5,1.44,6.16.54c.59-.44.83-1.46,1.2-2.1.41-.81.75-1.52,1.08-2.23,0,3,2.22,3.83,4.6,4.46,5,1.35,10.15-1.05,12.92-2.7-.35,2.2.51,2.4,2.24,2.78,4.46.92,9-.15,12.57-1,3.33-.81,6-1.37,6.5-4.67a4.2,4.2,0,0,0-2.77-.27c-2.68.39-5.29,1.76-8.86,1.49-.65,0-2.07-.27-2.18-.67-.15-.62,1-1.06,1.9-1.2,2.69-.46,6.57,0,8.73-.82a3.11,3.11,0,0,0,2.16-2.77c-.09-.84-1.2-1.28-2.23-1.34-3-.2-5.08,1.54-8.19.94.38-.49.46-1.29.95-1.69,2.28,0,4.47.41,6.62.27a8,8,0,0,0,6-3.05c.15-.18.52-.39.4-.68-5.18-.79-12.26-2.88-18.66-2.1m23.49.32c.08.32-.28.63-.47.87a30,30,0,0,1-5.48,5.88,4.45,4.45,0,0,1-.21,2.4,8.65,8.65,0,0,1,1.49,2.3,8.36,8.36,0,0,1-3.18,5.48c-1.68,1.2-3.85,1.66-6.36,2.24C57.05,31.89,49,33,45.4,30.1,41.52,32.37,33.62,32.68,30,30c-2.62,3.25-12.85,3-11.32-3.52A37,37,0,0,1,11.33,31c-3.11,1.3-9,1.2-8.4-3.25a3.41,3.41,0,0,1,.54-1.29,29.23,29.23,0,0,1-2-4A14.39,14.39,0,0,1,0,17.74c-.19-3.94,2.87-6.42,5.89-7.61,1.55-.6,2.8-1.46,4.34-1.9A3.21,3.21,0,0,1,14.41,10a3.31,3.31,0,0,1,.22.94A21.6,21.6,0,0,1,24,9.75c2.79-2.18,8.24-.83,11.83.2a12.84,12.84,0,0,0,2.5.82,8.59,8.59,0,0,0,2-.95,16.29,16.29,0,0,1,9.4-1.69c.69.12,1.31.48,2,.54a14.55,14.55,0,0,0,1.62-.14c8.4-.4,15.4,1.85,22.66,3"/></svg>