<svg id="Camada_1" data-name="Camada 1" xmlns="http://www.w3.org/2000/svg" viewBox="0 0 100 40"><defs><style>.cls-1{fill:#fff;}</style></defs><path class="cls-1" d="M100,18.71a3.73,3.73,0,0,0-.48-1.82,4.58,4.58,0,0,0-4.26-2.17,4.5,4.5,0,0,0-3.36,1.72,4.7,4.7,0,0,0-4-1.72,4.53,4.53,0,0,0-2.82,1.14c0-.39-.66-.61-1.23-.6s-1.2.26-1.2.8l0,12.06a1.19,1.19,0,0,0,1.21,1.16,1.23,1.23,0,0,0,.86-.34,1.13,1.13,0,0,0,.36-.82l0-8.8c0-3,5-2.5,5-.4V28.1a1.19,1.19,0,0,0,2.38,0l.06-8.82c-.1-2.68,4.84-2.85,5-.49v9.29a1.2,1.2,0,0,0,1.23,1.16,1.24,1.24,0,0,0,.86-.34,1.16,1.16,0,0,0,.35-.82Z"/><path class="cls-1" d="M33.63,15a1.05,1.05,0,0,0-1,.69L28.28,26.57,23.81,15.72a1.07,1.07,0,0,0-1-.68,1,1,0,0,0-.89.52,1.18,1.18,0,0,0-.08,1.08l4.78,11.65a1.2,1.2,0,0,0,1.09.76h1.07a1.2,1.2,0,0,0,1.1-.77l4.72-11.64a1.21,1.21,0,0,0-.09-1.08,1,1,0,0,0-.91-.52"/><path class="cls-1" d="M79.59,25.19a1.29,1.29,0,0,0-.83.34,7,7,0,0,1-2.29,1.14c-1,.29-4.3.64-6-.92a5.65,5.65,0,0,1-1.67-5.3,4.88,4.88,0,0,1,9.43,0H72.36a1,1,0,0,0-.7.3,1,1,0,0,0-.28.72v.32a1,1,0,0,0,1,1H79.6a1,1,0,0,0,.74-.33,1,1,0,0,0,.28-.78,7.47,7.47,0,0,0-2.05-5c-2.13-2.09-7.09-3-10.07-.06a6.94,6.94,0,0,0-2.13,5.08,7.55,7.55,0,0,0,2.26,5.5c2.85,2.95,7.72,2,9,1.59a6.89,6.89,0,0,0,2.69-1.53,1.25,1.25,0,0,0,.38-.87,1.19,1.19,0,0,0-.32-.81,1,1,0,0,0-.75-.35"/><path class="cls-1" d="M18.54,10.61h-.2A1.36,1.36,0,0,0,17,12v.49a1.37,1.37,0,0,0,1.36,1.37h.2a1.37,1.37,0,0,0,1.36-1.37V12a1.36,1.36,0,0,0-1.36-1.36"/><path class="cls-1" d="M18.42,15.09a1.16,1.16,0,0,0-1.16,1.16V27.94a1.17,1.17,0,0,0,2.33,0V16.25a1.17,1.17,0,0,0-1.17-1.16"/><path class="cls-1" d="M37.4,25.11a2,2,0,0,1,1-1.68,6.43,6.43,0,0,1,4-1.07,16.14,16.14,0,0,1,2,.11,11.6,11.6,0,0,1,1.4.26v2.12a9.78,9.78,0,0,1-2.57,1.82,6.58,6.58,0,0,1-2.8.6,3.41,3.41,0,0,1-2.25-.64,1.92,1.92,0,0,1-.7-1.52m9.15-9.17a6,6,0,0,0-4.06-1.3,15.86,15.86,0,0,0-3.67.64c-1.49.39-1.78.6-1.93.76a1.06,1.06,0,0,0-.3.77,1.16,1.16,0,0,0,.32.82,1,1,0,0,0,.79.34,2.93,2.93,0,0,0,.78-.17,14.07,14.07,0,0,1,4-.83,4.09,4.09,0,0,1,2.54.65A1.72,1.72,0,0,1,45.72,19v1.39c-.56-.1-1.1-.18-1.61-.24A16.94,16.94,0,0,0,42.17,20,8.13,8.13,0,0,0,37,21.51a4.55,4.55,0,0,0-1.87,3.6,4.14,4.14,0,0,0,1.44,3.2,5.63,5.63,0,0,0,3.89,1.28,9.19,9.19,0,0,0,5.31-1.75v.31a1,1,0,0,0,1,1H47a1,1,0,0,0,1-1L48.06,19a4,4,0,0,0-1.51-3.06"/><path class="cls-1" d="M61.53,19.22a4.43,4.43,0,0,0,1.88-3.62A4.71,4.71,0,0,0,61.76,12a6,6,0,0,0-4.18-1.49h-6.1a1.42,1.42,0,0,0-1,.31,1.08,1.08,0,0,0-.38.85,1.12,1.12,0,0,0,.38.86,1.5,1.5,0,0,0,1,.3h6.1a3.64,3.64,0,0,1,2.53.86,2.39,2.39,0,0,1,.93,1.78,2.47,2.47,0,0,1-.42,1.33,2.75,2.75,0,0,1-1.19,1,6,6,0,0,1-2.38.48h-3.8a.11.11,0,0,1-.11-.12v-2a1,1,0,0,0-1-1h-.35a1,1,0,0,0-1,1v6.47a1,1,0,0,0,1,1h.38a1.08,1.08,0,0,0,.67-.28,1,1,0,0,0,.3-.71V20.76a.11.11,0,0,1,.11-.11h3.87a8.64,8.64,0,0,1,3.07.43,3.65,3.65,0,0,1,1.61,1.18,2.59,2.59,0,0,1,.56,1.54A2.67,2.67,0,0,1,62,25.17a3.34,3.34,0,0,1-1.18,1.15,3.55,3.55,0,0,1-1.83.46H51.48a1.46,1.46,0,0,0-1,.3,1.15,1.15,0,0,0,0,1.7,1.43,1.43,0,0,0,1,.32h7.6a5.65,5.65,0,0,0,3-.81,5.55,5.55,0,0,0,2-2,5.11,5.11,0,0,0,.66-2.56,4.6,4.6,0,0,0-1-2.9,5.94,5.94,0,0,0-2.17-1.65"/><path class="cls-1" d="M14.14,10.48a1.16,1.16,0,0,0-1.49.6L7.45,25.62c-.72-2-5.17-14.47-5.19-14.54a1.18,1.18,0,0,0-1.5-.6,1,1,0,0,0-.71,1.35L6,28.37a1.19,1.19,0,0,0,1.09.81h.78a1.18,1.18,0,0,0,1.09-.81l5.92-16.54a1,1,0,0,0-.71-1.35"/></svg>