<svg id="svg8" xmlns="http://www.w3.org/2000/svg" viewBox="0 0 100 40"><defs><style>.cls-1{fill:#fff;}</style></defs><g id="layer1"><path id="path1139" class="cls-1" d="M0,12.88H6l3.46,8.87,3.51-8.87h5.8L10,33.87H4.16l2.39-5.56Z"/><path id="path1141" class="cls-1" d="M24.75,12.53c-4.47,0-7.3,4-7.3,8,0,4.5,3.1,8.06,7.22,8.06a4.89,4.89,0,0,0,4.22-1.87v1.45h5.19V12.88H28.89v1.39A5.22,5.22,0,0,0,24.75,12.53Zm1.1,4.92a3.12,3.12,0,1,1,0,6.24,3.14,3.14,0,0,1-3.13-3.07A3,3,0,0,1,25.85,17.45Z"/><path id="path1145" class="cls-1" d="M35.87,28.17v-22h5.42v8.2a5,5,0,0,1,4-1.8c3.3,0,5.24,2.46,5.24,6v9.66H45.13V19.83c0-1.19-.56-2.33-1.85-2.33a2.11,2.11,0,0,0-2,2.33v8.34Z"/><path id="path1147" class="cls-1" d="M59.77,12.53a7.91,7.91,0,0,0-8.16,8.07A8.18,8.18,0,0,0,68,20.68,7.89,7.89,0,0,0,59.77,12.53Zm0,5a3.08,3.08,0,0,1,3.06,3.11,3.13,3.13,0,0,1-3.06,3.06,3,3,0,0,1-3-3.07A3,3,0,0,1,59.82,17.49Z"/><path id="path1153" class="cls-1" d="M77,12.53a7.92,7.92,0,0,0-8.17,8.07,8.18,8.18,0,0,0,16.36.08A7.89,7.89,0,0,0,77,12.53Zm0,5a3.08,3.08,0,0,1,3.06,3.11,3.13,3.13,0,0,1-3.06,3.06,3,3,0,0,1-3-3.07A3,3,0,0,1,77.05,17.49Z"/><circle id="path1155" class="cls-1" cx="89.48" cy="24.89" r="3.6"/><path id="path1157" class="cls-1" d="M94.27,20H87.78L93.54,6.13H100Z"/></g></svg>