<svg id="logo" xmlns="http://www.w3.org/2000/svg" viewBox="0 0 58.06 40"><defs><style>.cls-1{fill:#fff;}</style></defs><g id="g66"><path id="path56" class="cls-1" d="M20,21V39H38.07V35H24V32h11v-4H24V25h14V21H20Z"/><path id="path58" class="cls-1" d="M51,21H40v4h7V39h4V25h7V21Z"/><path id="path60" class="cls-1" d="M18.05,15H.66L18.05,9V1H0V5H17.36L0,11v8H18.05Z"/><path id="path62" class="cls-1" d="M14.07,38.34,8.05,21H0V39H4V21.64l6,17.36h8V21h-4Z"/><path id="path64" class="cls-1" d="M38,10v0a9,9,0,0,0-9-9H20V19.05h9A9,9,0,0,0,38,10ZM24,5h5a5,5,0,0,1,5,5v0a5,5,0,0,1-5,5H24Z"/></g></svg>