<svg id="Camada_1" data-name="Camada 1" xmlns="http://www.w3.org/2000/svg" viewBox="0 0 60.7 40"><defs><style>.cls-1{fill:#fff;}</style></defs><title>zdnet</title><polygon class="cls-1" points="42.29 18.31 37.35 9.67 34.98 9.67 34.98 16.59 37.24 21.23 37.24 14.17 42.11 22.6 44.56 22.6 44.56 9.67 42.29 9.67 42.29 18.31"/><path class="cls-1" d="M60.5,20.52a2.85,2.85,0,0,1-.93.24.62.62,0,0,1-.39-.12.57.57,0,0,1-.21-.32,10.45,10.45,0,0,1,0-1.33V15.21h1.58v-2H58.93V9.93L56.6,11.37v1.87H55.54v2H56.6V19.3A12.3,12.3,0,0,0,56.68,21,2.51,2.51,0,0,0,57,22a1.7,1.7,0,0,0,.74.58,2.75,2.75,0,0,0,1.13.22,4.31,4.31,0,0,0,1.83-.37Z"/><path class="cls-1" d="M50.45,13a3.61,3.61,0,0,0-2.87,1.32A5.41,5.41,0,0,0,46.44,18a5.61,5.61,0,0,0,.87,3.23,3.81,3.81,0,0,0,3.37,1.59,3.88,3.88,0,0,0,2.4-.71A4.06,4.06,0,0,0,54.49,20l-2.31-.42h0a2,2,0,0,1-.56,1,1.36,1.36,0,0,1-.91.31,1.71,1.71,0,0,1-1.34-.61,2.62,2.62,0,0,1-.56-1.71h5.8a6.45,6.45,0,0,0-1.08-4.23A3.74,3.74,0,0,0,50.45,13Zm-1.6,4.1a2.44,2.44,0,0,1,.49-1.61,1.58,1.58,0,0,1,1.25-.59,1.54,1.54,0,0,1,1.2.56,2.51,2.51,0,0,1,.52,1.64H48.85Z"/><path class="cls-1" d="M35,22.6h0v-6L26.87,0,0,13.13,13.13,40h0L40,26.87l-2.76-5.65V22.6Zm-8.85.08H24.27V19.56h1.15c3.6,0,3.64-2.71,3.64-3.38s0-3.37-3.64-3.37H23.78V19h0l-2.84,3.71H6.4L13,12.81H6.61L8.68,9.69H18.9l-6.16,9.87h7.4V9.69h6c5.34,0,6.68,3.58,6.68,6.49C32.81,19.67,30.79,22.68,26.13,22.68Z"/></svg>