<svg xmlns="http://www.w3.org/2000/svg" width="300" height="300" viewBox="0 0 300 300"><defs><style>.a{fill:#fff;}</style></defs><title>facebook</title><path class="a" d="M15.74,0H284a16.71,16.71,0,0,1,16,15.79V284.3A16.81,16.81,0,0,1,284.74,300h-77.6c-.09-38.81.09-77.62-.09-116.42,13.07,0,26.13,0,39.2,0,1.7-15,4-29.95,5.73-45H207c.22-10.56,0-21.12.14-31.68.11-4.93,1.27-10.19,4.87-13.78,4.23-4,10.34-5,16-5,8.62,0,17.24,0,25.86,0,0-13.86-.07-27.72,0-41.57-10.58-1.23-21.24-1.3-31.87-1.8-15.86-.38-32.86,3.27-44.6,14.62-12.2,11.25-17,28.36-17.07,44.52,0,11.58,0,23.16,0,34.73-13.1-.11-26.2,0-39.31-.06.06,15,.13,30,0,44.95,13.11,0,26.23.06,39.35,0-.11,38.81,0,77.63-.05,116.45H15.61A16.81,16.81,0,0,1,0,284.63V16A16.71,16.71,0,0,1,15.74,0Z"/></svg>