<svg xmlns="http://www.w3.org/2000/svg" width="32.7" height="31.71" viewBox="0 0 32.7 31.71"><defs><style>.a{fill:#fff;}</style></defs><path class="a" d="M16.3.4a16.27,16.27,0,0,0-5.2,31.7c.8.1,1.1-.4,1.1-.8V28.5c-4.5,1-5.5-2.2-5.5-2.2A4.11,4.11,0,0,0,4.9,24C3.5,23,5,23,5,23a3.48,3.48,0,0,1,2.5,1.7,3.46,3.46,0,0,0,4.7,1.4,3.48,3.48,0,0,1,1-2.2c-3.6-.4-7.4-1.8-7.4-8.1a6.2,6.2,0,0,1,1.7-4.4,5.69,5.69,0,0,1,.2-4.3s1.4-.4,4.5,1.7a14,14,0,0,1,4.1-.5,18.41,18.41,0,0,1,4.1.5c3.1-2.1,4.5-1.7,4.5-1.7a6.26,6.26,0,0,1,.2,4.3,6.47,6.47,0,0,1,1.7,4.4c0,6.3-3.8,7.6-7.4,8a3.82,3.82,0,0,1,1.1,3v4.5c0,.4.3.9,1.1.8A16.32,16.32,0,0,0,32.7,16.6,16.43,16.43,0,0,0,16.3.4Z" transform="translate(0 -0.4)"/></svg>