<svg xmlns="http://www.w3.org/2000/svg" width="219.01" height="220.43" viewBox="0 0 219.01 220.43"><defs><style>.a{fill:#fff;}</style></defs><title>pinterest</title><path class="a" d="M38.46,27.4A110.78,110.78,0,0,1,107,.59a109.89,109.89,0,0,1,110,87c1.46,6.68,1.81,13.53,2.56,20.31-.12,20-4.85,40.24-15.18,57.52A109.89,109.89,0,0,1,141,215.21c-10.13,3.14-20.73,4.12-31.26,4.85L111,221h-.23a12.2,12.2,0,0,0-5.76-1.43,114.43,114.43,0,0,1-25.79-4.28,84.73,84.73,0,0,0,11.76-26.22c2.22-8.92,4.66-17.78,6.71-26.74,5.64,8.73,16.28,13.17,26.42,13.24a51.65,51.65,0,0,0,36.48-14c12-11,18.89-26.64,21.57-42.5,2-12.23,2.74-25.12-1.26-37-4.65-14.52-15.06-26.92-28.11-34.68a73.22,73.22,0,0,0-39.73-10C88.77,36.93,63.71,47.15,49.11,67,38.21,81.39,33,100.41,36.73,118.25c1.75,10.53,7,20.95,16.08,27,2.55,1.57,5.27,3.43,8.4,3.32,2.6-1.23,3-4.29,3.7-6.74.64-2.94,1.83-5.87,1.58-8.91-1.51-2.82-3.83-5.12-5.32-7.95a34.72,34.72,0,0,1-3.74-17c.16-14.88,6.71-29.74,18.19-39.32C85.63,60.2,98.94,56,112,56.37c12.47-.07,25.6,4,34.23,13.35,7.3,7.81,10.58,18.73,10.34,29.28-.19,14.24-2.91,28.86-10.25,41.23-4.5,7.37-11.36,14.15-20.18,15.65a18.69,18.69,0,0,1-17.58-5.38,16.2,16.2,0,0,1-3.71-14.57c2.62-11.42,7.14-22.33,9.31-33.86,1-6,.71-12.9-3.48-17.7-3.5-4.2-9.56-5.28-14.7-4.2-6.28,1.21-11.16,6.18-14,11.7-4.95,10-4.65,22-.87,32.4.84,1.88,0,3.89-.34,5.78-4.34,18-8.49,36-12.76,54-2.14,8.63-2.44,17.57-2.23,26.41a111.11,111.11,0,0,1-47.11-40,109.55,109.55,0,0,1,19.81-143Z" transform="translate(-0.55 -0.57)"/></svg>