<svg xmlns="http://www.w3.org/2000/svg" width="300" height="243.91" viewBox="0 0 300 243.91"><defs><style>.a{fill:#fff;}</style></defs><title>twitter</title><path class="a" d="M165.62,44.58A61,61,0,0,1,208,28c16.82-.22,33.34,7.23,44.83,19.42A129.52,129.52,0,0,0,292,32.34a64.67,64.67,0,0,1-27,34.19c12-1.61,24-4.58,35-9.87V57a127.82,127.82,0,0,1-30.7,31.89C272.18,151,239.9,214,186.78,246.75,158.3,264.47,124.43,272.68,91,271.89a172.4,172.4,0,0,1-64.09-13.43c-9.38-3.8-18.18-8.82-26.93-13.87v-.17c2.82.09,5.64.29,8.45.49,29.59,1.74,59.38-8,82.77-26.1A61.47,61.47,0,0,1,59,209.07a62.93,62.93,0,0,1-25.55-33.13,59.87,59.87,0,0,0,27.63-1A61.71,61.71,0,0,1,12,113.78a65.38,65.38,0,0,0,27.75,7.78C27.31,112.89,17.82,99.88,14.3,85.05a62.63,62.63,0,0,1,6.55-46c30.58,38.25,78,62.3,126.88,64.56A61.87,61.87,0,0,1,165.62,44.58Z" transform="translate(0 -28.03)"/></svg>