<svg xmlns="http://www.w3.org/2000/svg" width="253.01" height="255.06" viewBox="0 0 253.01 255.06"><defs><style>.a{fill:#333;}</style></defs><title>whatsapp</title><path class="a" d="M43.58,35.65A124.67,124.67,0,0,1,118,.9c12.37-.75,24.9-.58,37.07,2,25,5.29,48.78,18,66,37C245.43,65.16,257.18,101.28,254,136a122.45,122.45,0,0,1-25.37,64.6,123.74,123.74,0,0,1-67.4,44.5c-15.36,4.08-31.45,4.53-47.2,2.89-15.41-2-30.23-7.25-44-14.35Q35.8,244.73,1.5,255.57c6.9-22,14.65-43.63,21.7-65.53.56-1.93-1.19-3.49-1.82-5.19A123.15,123.15,0,0,1,7.72,104.53,121.88,121.88,0,0,1,43.58,35.65M58.47,50.46a104.52,104.52,0,0,0-31.11,63.48,222.27,222.27,0,0,0,.47,25.81C30.74,156,36.53,172,46.61,185.3c-4,12.79-9.1,25.27-12.44,38.27,13-4.17,26-8.41,39.08-12.57,19.31,12.59,42.8,18.88,65.8,16.66A102.9,102.9,0,0,0,203,198.05a104.44,104.44,0,0,0,30.37-64.28,158.11,158.11,0,0,0-.62-23.64c-3.05-20.28-12-39.79-26.08-54.77-16.36-18.62-39.85-30.5-64.4-33.44-5.42-.36-10.85-.62-16.29-.64A103.75,103.75,0,0,0,58.47,50.46Z" transform="translate(-1.5 -0.51)"/><path class="a" d="M82.79,65.61C87,62.86,92.19,64,96.85,64.42a4.55,4.55,0,0,1,3.77,3c3.54,8.19,6.63,16.57,9.72,25,.7,2.07,1.7,4.4.64,6.55-2.35,5.48-7.26,9.21-10.52,14.09-.57,1.65.6,3.15,1.24,4.58A86.8,86.8,0,0,0,144,156.14a4.19,4.19,0,0,0,4.58-.48c4.55-3.87,8.08-8.75,12.08-13.15.8-1.08,2.12-1.38,3.3-1.82,7.68,2.55,14.54,6.94,21.69,10.62,3,1.74,6.22,3.11,8.87,5.35.69,8.18-1.5,17.47-8.51,22.49-5.57,4-12.07,7.31-19.06,7.36-5,.22-10.1.06-14.82-1.75a203.82,203.82,0,0,1-24.48-10.32C115,168,104.17,158.5,95.07,147.73c-8.41-10.12-16.21-20.92-21.9-32.83-4.72-9.75-6.65-21.34-3.09-31.78C72.48,76.25,76.68,69.72,82.79,65.61Z" transform="translate(-1.5 -0.51)"/></svg>